<?xml version="1.0" encoding="utf-8"?>
<!-- Generator: Adobe Illustrator 19.1.1, SVG Export Plug-In . SVG Version: 6.00 Build 0)  -->
<svg version="1.1" id="Слой_1" xmlns="http://www.w3.org/2000/svg" xmlns:xlink="http://www.w3.org/1999/xlink" x="0px" y="0px"
	 viewBox="0 0 830 501.1" style="enable-background:new 0 0 830 501.1;" xml:space="preserve">
<style type="text/css">
	.st0{fill:#FFFFFF;}
	.st1{fill:none;stroke:#FFFFFF;stroke-width:3;stroke-miterlimit:10;}
</style>
<g>
	<path class="st0" d="M542,501.1c-1-2.1-2.9-4.2-2.9-6.3c-0.2-16.8-0.2-33.6-0.1-50.5c0.1-9.2,6.3-15.3,15.4-15.3
		c11.2,0,22.3,0,33.5,0c9.1,0,15.3,6.2,15.3,15.3c0,16.7,0.1,33.3-0.1,50c0,2.3-1.3,4.5-2,6.8c-1.3,0-2.7,0-4,0
		c-1-2.1-2.9-4.1-2.9-6.2c-0.3-8.4-0.1-16.9-0.1-25.6c-15.3,0-30,0-45.2,0c0,7.9,0.2,15.5-0.1,23.1c-0.1,2.9-1.7,5.8-2.5,8.7
		C544.7,501.1,543.3,501.1,542,501.1z M593.9,459.2c0-4.9,0.2-9.2-0.1-13.5c-0.2-3.8-2-6.8-6.4-6.8c-11-0.1-22-0.2-32.9,0.2
		c-2,0.1-5.2,2.7-5.4,4.4c-0.7,5.1-0.3,10.5-0.3,15.7C564.1,459.2,578.7,459.2,593.9,459.2z"/>
	<path class="st0" d="M769,501.1c-0.6-2.4-2.3-5.5-1.5-7.1c0.9-1.7,4.3-2.6,6.7-2.7c12.5-0.3,25-0.1,37.5-0.1c6.7,0,8.3-1.6,8.4-8.1
		c0.1-13.1,0.1-13.1-12.8-13.1c-8,0-16,0-24,0c-9.9,0-16.3-6.3-16.3-16.1c0-3.5-0.1-7,0-10.5c0.2-7.9,6.5-14.3,14.3-14.3
		c14.3-0.1,28.6-0.1,43,0.1c2,0,3.9,1.9,5.8,2.9c0,1.3,0,2.7,0,4c-2.9,0.9-5.7,2.6-8.6,2.7c-10.8,0.3-21.6,0.1-32.4,0.1
		c-12.6,0-13.5,0.9-13,13.7c0.2,5.1,2.6,7.5,7.7,7.5c8.6,0,17.3,0.5,25.9-0.1c9.8-0.6,16.6,3,20.3,12.1c0,5.7,0,11.3,0,17
		c-2.2,5.8-6.2,9.8-12,12C801.6,501.1,785.3,501.1,769,501.1z"/>
	<path class="st0" d="M618,501.1c-0.7-2.3-2-4.6-2-6.8c-0.2-16.3-0.1-32.7-0.1-49c0-10.1,6.1-16.2,16.1-16.2c11.7,0,23.3,0,35,0
		c8.2,0,14.5,5.3,14.9,13.5c0.5,9.1,0.5,18.3,0,27.4c-0.4,7.8-6.9,13.1-14.9,13.1c-12,0-24,0-36,0c-1.6,0-3.2,0-4,0
		c-1.5,6.4-2.8,12.2-4.1,18C621.3,501.1,619.7,501.1,618,501.1z M625.7,473.5c13.9,0,27.2,0.1,40.5-0.1c4.3,0,6.8-2.5,6.8-6.9
		c0.1-7,0.1-14,0-20.9c-0.1-4.4-2.5-6.7-6.9-6.7c-11.3,0-22.6,0-33.9,0c-4,0-6.3,2.1-6.4,6.1C625.6,454.3,625.7,463.6,625.7,473.5z"
		/>
	<path class="st0" d="M693,501.1c-0.7-2.3-2-4.6-2-6.8c-0.2-16.3-0.1-32.7-0.1-49c0-10.1,6.1-16.2,16.1-16.2c11.7,0,23.3,0,35,0
		c8.2,0,14.5,5.3,14.9,13.5c0.5,9.1,0.5,18.3,0,27.4c-0.4,7.8-6.9,13.1-14.9,13.1c-12,0-24,0-36,0c-1.6,0-3.2,0-4,0
		c-1.5,6.4-2.8,12.2-4.1,18C696.3,501.1,694.7,501.1,693,501.1z M700.7,473.5c13.9,0,27.2,0.1,40.5,0c4,0,6.6-2.3,6.7-6.5
		c0.2-7.3,0.2-14.6,0-21.9c-0.1-3.6-2.2-6-5.9-6.1c-11.8-0.1-23.6-0.1-35.4,0c-3.5,0-5.7,2.1-5.8,5.6
		C700.6,454,700.7,463.4,700.7,473.5z"/>
	<path class="st0" d="M523,501.1c-0.8-2.8-2.2-5.5-2.3-8.3c-0.2-15.1-0.1-30.3-0.1-45.4c0-6.9-1.9-8.8-8.9-8.9
		c-10.5,0-21-0.1-31.4,0c-7,0-9.1,2.2-9.2,9.3c0,15.5,0.1,31-0.1,46.4c0,2.3-1.3,4.5-2,6.8c-1.3,0-2.7,0-4,0c-1-2.1-2.9-4.1-2.9-6.2
		c-0.2-16.8-0.2-33.7-0.1-50.5c0.1-9,6.5-15.2,15.6-15.3c12.3,0,24.7,0,37,0c9,0,15.5,6.3,15.5,15.3c0.1,16.8,0.1,33.7-0.1,50.5
		c0,2.1-1.9,4.1-2.9,6.2C525.7,501.1,524.3,501.1,523,501.1z"/>
	<path class="st0" d="M301,501.1c-0.4-1.9-1-3.8-1-5.7c-0.1-17-0.1-34,0-51c0-9.9,5.6-15.3,15.5-15.3c12,0,24,0,36,0
		c8.6,0,14.4,5.8,14.5,14.3c0,4.2,0,8.3,0,12.5c0,11.7-4.6,16.6-16.9,17.5c2.9,7.1,5.6,14.1,8.5,21c1,2.4,1.8,4.7-0.6,6.7
		c-1,0-2,0-3,0c-3.3-8.3-6.6-16.6-10.1-24.8c-0.5-1.3-2-3-3.1-3.1c-11.6-0.2-23.2-0.1-35.4-0.1c0,7.6,0.1,14.8-0.1,21.9
		c0,2-0.9,4.1-1.4,6.1C303,501.1,302,501.1,301,501.1z M305.6,467.1c16,0,31.4,0.1,46.9-0.1c4,0,7.1-2.5,7.5-6.6
		c0.5-5.8,0.7-11.6,0.3-17.4c-0.4-5.6-3.6-8.3-9.2-8.3c-12-0.2-24-0.2-35.9,0c-5.8,0.1-9.1,3-9.4,8.8
		C305.3,451.1,305.6,458.8,305.6,467.1z"/>
	<path class="st0" d="M386,501.1c-8.4-3.1-11.8-9-11.5-18.1c0.5-12.6,0.4-25.3,0-37.9c-0.3-10.6,7.4-16.6,16.4-16.2
		c13.1,0.6,26.3,0.1,39.4,0.3c1.5,0,3,1.6,4.5,2.4c-1.6,1-3.1,2.9-4.7,2.9c-12.8,0.2-25.6,0.1-38.4,0.2c-8.5,0-11.6,3.2-11.6,11.9
		c0,4.6,0,9.3,0,14.6c2.1,0,3.9,0,5.6,0c13.5,0,27,0,40.4,0c1,0,2.2-0.3,3,0.1c1.7,0.8,3.2,2.1,4.7,3.2c-1.5,0.9-3.1,2.5-4.6,2.5
		c-10.8,0.2-21.6,0.1-32.5,0.1c-5.3,0-10.6,0-16.4,0c0,7-0.4,13.8,0.1,20.5c0.4,4.9,4.2,7.5,9.5,7.5c13.5,0,27,0,40.4,0.1
		c1.4,0,2.9,1.1,4.3,1.7c-0.6,1.4-1.2,2.8-1.7,4.2C417.4,501.1,401.7,501.1,386,501.1z"/>
	<path class="st0" d="M77.1,501.1c-8.3-3.3-11.5-9.3-11.2-18.3c0.5-15.8,0.1-31.7,0.1-47.5c0-1.3-0.3-2.8,0.2-3.9
		c0.4-1,1.7-1.9,2.7-2.1c0.7-0.1,2,1.1,2.2,2c0.4,1.4,0.3,3,0.3,4.4c0,16,0,32,0,48c0,8.5,2.9,11.4,11.3,11.4
		c11.2,0,22.3-0.3,33.5,0.1c9.9,0.4,12.4-4.2,12.4-12.6c0.1-11.3,0-22.7,0-34c0-5.3-0.1-10.7,0.1-16c0.1-1.2,1.5-2.4,2.4-3.5
		c1,1.2,2.7,2.4,2.8,3.7c0.2,18.5,0.3,37,0,55.5c-0.1,6.9-5.3,10.2-10.9,12.8C107.7,501.1,92.4,501.1,77.1,501.1z"/>
	<path class="st0" d="M231,501.1c-8.3-3.3-11.5-9.3-11.2-18.3c0.5-15.8,0.1-31.7,0.1-47.5c0-1.3-0.3-2.8,0.2-3.9
		c0.4-1,1.7-1.9,2.7-2.1c0.7-0.1,2,1.1,2.2,2c0.4,1.4,0.3,3,0.3,4.4c0,16,0,32,0,48c0,8.5,2.9,11.4,11.3,11.4
		c11.2,0,22.3-0.3,33.5,0.1c9.9,0.4,12.4-4.2,12.4-12.6c0.1-11.3,0-22.7,0-34c0-5.3-0.1-10.7,0.1-16c0.1-1.2,1.5-2.4,2.4-3.5
		c1,1.2,2.7,2.4,2.8,3.7c0.2,18.5,0.3,37,0,55.5c-0.1,6.9-5.3,10.2-10.9,12.8C261.7,501.1,246.4,501.1,231,501.1z"/>
	<path class="st0" d="M1.1,501.1c-0.4-1.9-1-3.8-1-5.7c-0.1-17-0.1-33.9,0-50.9c0-9.9,5.5-15.4,15.4-15.4c13.5,0,27-0.1,40.4,0.1
		c1.7,0,3.4,1.6,5,2.5c-1.8,1-3.5,2.9-5.3,2.9c-12.8,0.3-25.6,0.1-38.4,0.1c-8.4,0-11.5,3-11.6,11.3c-0.1,4.8,0,9.6,0,14.9
		c2.1,0.1,3.9,0.3,5.6,0.3c12.6,0,25.3,0,37.9,0c1,0,2.2-0.3,3,0.1c1.4,0.7,2.7,1.9,4,2.8c-1.4,1-2.8,2.8-4.2,2.9
		c-13.3,0.2-26.6,0.1-39.9,0.1c-1.8,0-3.6,0-6.4,0c0,8,0.1,15.7-0.1,23.4c-0.1,3.5-0.9,7.1-1.4,10.6C3.1,501.1,2.1,501.1,1.1,501.1z
		"/>
	<path class="st0" d="M177.1,501.1c-0.3-2.1-0.9-4.2-1-6.3c-0.1-18,0-36,0-54c0-1.8,0-3.6,0-6.2c-7.6,0-14.9,0-22.2,0
		c-1.3,0-2.8,0.3-4-0.1c-1.7-0.6-4.5-1.6-4.7-2.7c-0.5-3.3,2.4-2.8,4.5-2.8c18.8,0,37.6,0,56.5,0c1,0,2.1-0.3,3,0.1
		c1.3,0.6,2.4,1.6,3.6,2.4c-1.2,1-2.5,2.9-3.8,3c-7,0.3-14,0.1-21,0.1c-2,0-3.9,0-6.6,0c0,2.3,0,4,0,5.8c0,18,0,36-0.1,54
		c0,2.2-0.9,4.4-1.4,6.6C179.1,501.1,178.1,501.1,177.1,501.1z"/>
	<path class="st0" d="M445,501.1c-1-2.1-2.9-4.1-2.9-6.2c-0.2-19.9-0.1-39.9-0.2-59.8c0-3.2,0.8-5.7,4.4-5.9c4-0.2,5.1,2.5,5.1,5.9
		c0,19.9,0.1,39.9-0.1,59.8c0,2.1-1.5,4.1-2.3,6.2C447.7,501.1,446.4,501.1,445,501.1z"/>
</g>
<g>
	<polygon class="st1" points="302,136.9 208.2,191.1 302.1,245.3 	"/>
	<polygon class="st1" points="414.5,71.8 526.9,6.8 526.8,136.8 	"/>
	<polygon class="st1" points="526.6,375 526.9,245.2 414.3,310.1 	"/>
	<polygon class="st1" points="302.3,7.4 302.4,190.8 466.6,102.4 	"/>
	<polygon class="st1" points="467,102.7 466.9,279.4 302.4,191.2 302.6,375.6 621,191.7 	"/>
	<polygon class="st1" points="467,102.7 466.6,102.4 302.4,190.8 302.4,191.2 466.9,279.4 	"/>
	<line class="st1" x1="208.2" y1="191.1" x2="411.4" y2="190.8"/>
	<line class="st1" x1="411.4" y1="190.8" x2="526.6" y2="375"/>
	<line class="st1" x1="411.4" y1="190.8" x2="526.9" y2="6.8"/>
</g>
</svg>
