<?xml version="1.0" encoding="utf-8"?>
<!-- Generator: Adobe Illustrator 19.1.1, SVG Export Plug-In . SVG Version: 6.00 Build 0)  -->
<svg version="1.1" id="Слой_1" xmlns="http://www.w3.org/2000/svg" xmlns:xlink="http://www.w3.org/1999/xlink" x="0px" y="0px"
	 viewBox="-404 89.6 149.3 382.4" style="enable-background:new -404 89.6 149.3 382.4;" xml:space="preserve">
<style type="text/css">
	.st0{fill:#0090DA;}
</style>
<g>
	<path class="st0" d="M-350.9,389.5c4.6,0,9.1,0,13.7,0c2.2,0,4.4,0,6.5,0.2c0.8,0.1,1.8,0.5,2.1,1.2c0.7,1.3,0.6,2.8-0.9,3.5
		c-1.4,0.7-3,1-4.4,1.5c-0.6,0.2-1.1,0.4-1.6,1c2.9,0.1,5.9,0.3,8.8,0.4c0.1,0.2,0.1,0.4,0.2,0.6c-0.9,0.6-1.8,1.1-2.7,1.8
		c-0.5,0.3-0.8,0.8-1.2,1.3c0.5,0.3,1.1,0.7,1.6,1c0.5,0.2,1,0.2,1.5,0.3c0.1,0.2,0.1,0.4,0.2,0.7c-0.8,0.3-1.6,0.8-2.4,0.8
		c-6.1,0-12.3,0.1-18.4-0.1c-3.6-0.1-7.2-0.6-10.7-0.7c-1.9-0.1-3.7,0.5-5.6,0.6c-1.1,0.1-2.2,0-2.2-1.7c0-0.3-0.7-0.9-1.1-0.9
		c-0.6,0-1.5,0.3-1.7,0.8c-0.8,2-2.4,1.8-4.1,1.8c-2,0.1-2.6-1.1-3.4-2.6c-2.4-4.2-1.8-4.2,2.6-4.1c9.7,0.1,19.4,0.2,29.1,0.2
		c2,0,4-0.2,6.2-0.3c-5.2-3.9-10.9-4.9-16.9-4.7c-2.3,0.1-4.7,0.6-7,0.4c-1.4-0.1-2.8-1.2-4.3-2c0.5-0.7,0.8-1.1,1.2-1.8
		c-1.9-0.1-3.6-0.1-5.3-0.3c-0.6-0.1-1.1-0.8-1.7-1.3c0.6-0.4,1.2-1.2,1.8-1.1c2.2,0.3,2.9-0.5,2.7-2.7c-0.1-1.5,0.3-3,0.5-4.8
		c3.4,0,7.1,0,10.8,0c0.1,1-0.2,2,0.3,2.5c1.1,1.3,2.3,2.5,3.8,3.3c0.6,0.4,2.2,0.1,2.7-0.5c0.7-0.7,1.2-2.2,0.9-3
		c-0.5-1.8,0-2.3,1.6-2.3c4.8,0,9.6,0,14.3,0c1.6,0,2.2,0.6,1.8,2.3c-0.2,0.9-0.1,2,0.1,2.9c0.1,0.4,1.1,0.7,1.7,0.7
		c0.3,0,0.6-0.8,0.9-1.3c0.1-0.1,0-0.3,0-0.4c0.2-4.1,0.2-4.2,4.5-4.2c11.9,0,23.9,0,35.8,0.1c3.4,0,3.4,0.1,3.7,3.5
		c0.1,1.7,0.4,3.4,0.5,5.1c0.1,1.1-0.4,1.7-1.7,1.7c-11.3-0.1-22.5-0.2-33.8-0.2c-6.6,0-13.1,0.1-19.7,0.1c-3.8,0-7.6,0-11.4,0
		C-350.9,389.1-350.9,389.3-350.9,389.5z M-301.4,382c1.3,2.5,2.5,3.3,3.8,2.5c1.6-0.9,0.4-2.3-0.1-3
		C-299.1,379.7-300.1,381.8-301.4,382z M-333.8,382.1c-1.1-0.8-1.9-1.7-2.2-1.6c-0.7,0.3-1.5,1.1-1.7,1.8c-0.1,0.5,1,1.6,1.5,1.6
		C-335.6,383.9-334.9,383-333.8,382.1z"/>
	<path class="st0" d="M-319.3,441.5c-4.7,0-9.4,0-14.1,0c-1.8,0-2.5-0.6-2.3-2.4c0.3-3.4,0.6-6.8,0.6-10.2c0.1-2.6-0.3-5.1-0.3-7.7
		c0-3,1-5.9-0.3-8.9c-0.3-0.6,0-1.3,0-2c0.3-3.7,0.4-3.7,4.2-3.7c8.2,0.1,16.4,0.1,24.5,0.2c3.2,0,3.1,0,3.1,3.2
		c0,3.4,0.3,6.8,0.3,10.2c0,1.6-0.4,3.3-1,4.7c-1.5,3.6-0.7,6.8,0.7,10.2c0.7,1.7,0.5,3.8,0.6,5.7c0,0.2-1.1,0.7-1.6,0.7
		C-309.7,441.6-314.5,441.5-319.3,441.5L-319.3,441.5z"/>
	<path class="st0" d="M-364.3,440.9c0.6-1.2,1.1-2.2,1.5-3.1c1.2-2.7,0.1-5.6-2.4-7.2c-0.9-0.5-1.5-1.6-1.9-2.6
		c-0.1-0.4,0.8-1.6,1.3-1.7c6.4-0.5,8.7-5.3,10.6-10.2c1.2-3,1.6-6.2-0.8-9.7c3.3,0,5.9,0,8.5,0c2.4,0,4.8,0.1,7.2,0.1
		c1.2,0,1.8,0.4,1.7,1.8c-0.1,4.5-0.1,9.1-0.2,13.6c0,0.7,0,1.6,0.4,2.2c1.4,2.1,1,4.2,0.7,6.5c-0.4,3-0.5,6-0.6,8.9
		c0,1.2-0.3,1.8-1.5,1.8c-7.7,0-15.4,0-23.1-0.1C-363.2,441.3-363.6,441.1-364.3,440.9z M-355,431c-0.4-1.7-0.6-2.8-1-3.9
		c-0.1-0.3-1.4-0.6-1.5-0.4c-0.8,1.1-2.1,2.3-1.9,3.4c0.2,1.3,1.5,2.5,2.4,3.7C-356.3,432.7-355.6,431.8-355,431z"/>
	<path class="st0" d="M-386.2,450.6c1-0.1,1.7-0.3,2.5-0.3c14.5,0.1,28.9,0.2,43.4,0.3c15.6,0.1,31.2,0.2,46.9,0.3
		c1.5,0,2.9-0.1,2.6,2.3c-0.1,0.5,1.6,1.2,2.5,1.7c0.9,0.5,1.9,0.8,2.9,1.1c-0.1,0.3-0.1,0.6-0.2,0.9c-1,0.1-1.9,0.2-2.9,0.2
		c-16.5-0.1-33-0.3-49.5-0.4c-15-0.1-29.9-0.1-44.7-0.2c-2.8,0-2.8-0.1-2.7-2.9C-385.4,452.8-385.9,451.8-386.2,450.6z"/>
	<path class="st0" d="M-297.4,441c5.4-1.8,4.3-5.6,3.8-9.5c-0.3-2.7,0.3-5.5,0.9-8.2c0.5-2.2,0.7-4.1-0.4-6.1
		c-0.4-0.7-0.4-1.7-0.2-2.5c0.5-2.3,1.1-4.6,1.8-7.1c-0.1,0,0.2-0.1,0.5-0.1c3.7-0.3,3.7-0.3,3.5,3.3c-0.1,1.1,0.1,2.3,0.2,3.4
		c0.3,0,0.6,0,0.9,0.1c0.4-1.5,0.8-3,1-4.6c0.2-1.5,0.6-2.5,2.4-2.2c1.7,0.2,1.4,1.4,1.4,2.6c0,6.9,0,13.8,0,20.6
		c0,3.1,0,6.3-0.1,9.4c0,0.6-0.7,1.8-1.1,1.8c-4.7,0.1-9.3,0.1-14,0.1C-297,441.5-297.2,441.2-297.4,441z M-288.2,431
		c0.9,1,1.4,1.6,2,2.2c0.5-0.8,1.2-1.5,1.5-2.4c0.1-0.4-0.6-1.1-1-1.7C-286.5,429.7-287.1,430.2-288.2,431z"/>
	<path class="st0" d="M-353.7,180.9c-1.6-0.5-3.1-1.3-2.6-3.6c0.5,0.2,1.1,0.4,2.1,0.7c-0.2-1-0.2-1.7-0.5-2.3
		c-0.4-0.7-1-1.3-1.6-1.9c-3.4-3.4-3.3-8.1,0.7-12.2c-0.2,0.9-0.1,1.4-0.4,1.8c-2.4,4.1-2.1,7.8,1.4,11.3c1,1,1.4,2.5,2.3,4.2
		c0-2.6-1.1-4.2-2.3-5.8c-1.7-2.2-2.5-4.5-1-7.1c1,1.4,1.7,3.1,3,4c1.5,1.1,3.6,1.6,5.4,2.3c1.1,0.4,2.1,1,3.2,1.3
		c0.8,0.2,1.7,0.1,2.6,0c1.8-0.3,3.6-0.8,5.8-1.2c0-0.2,0.3-0.8,0.2-1.3c-0.4-1.9,0.6-2.3,2.3-2.3c1.3,0,2.5-0.4,3.5-0.6
		c0-4,0-7.8,0-11.7c1.3,0.5,2,1.2,1.6,2.6c-0.7,3.1,0.3,5.9,1.1,8.8c0.1,0.3,0.6,0.5,0.8,0.8c0.3,0.5,0.5,1,0.7,1.5
		c-0.5,0-1.1,0.1-1.6,0c-0.6-0.1-1.2-0.6-1.7-0.5c-0.7,0.1-1.3,0.7-1.9,1c0.4,0.6,0.8,1.4,1.4,1.9c0.3,0.3,1,0.3,2.2,0.7
		c-1.1,0.8-1.8,1.8-2.6,1.8c-5.6,0.3-10.9,1.4-15.8,4.2c-0.1-0.2-0.2-0.4-0.3-0.6c1.6-1.1,3.2-2.2,4.9-3.3c-3.3-0.2-5.6,1.7-7.8,3.6
		c-4.3,3.9-8.5,7.8-12.9,11.9c-1.1-1.2-2.6-3.2-2.3-5.6c0.6-6-0.6-11.6-2.1-17.3c-1.7-6.3,1.9-13.3,7.3-15.9
		c0.4-0.2,0.8-0.5,1.1-0.4c0.5,0.1,1,0.4,1.5,0.7c-0.3,0.4-0.5,1.1-0.9,1.3c-2.5,1.3-4.5,3-6,5.4c-1.2,1.9-1.3,3.8-0.5,5.9
		c0.7,2,1.1,4,0.6,6.2c-0.3,1.4,0,3,0.2,4.4c0.2,1.5,0.5,3,0.9,4.4c0.5,1.8,1,3.5,1.9,5.1c0.2,0.3,1.9,0.4,2.3,0
		C-356.1,183.9-355.1,182.4-353.7,180.9z"/>
	<path class="st0" d="M-325.5,403.4c2-1.9,4.3-3.2,1.2-6c2.1-0.3,3.6-0.6,5.2-0.8c-1-1.4-3.1-2.9-0.2-4.4c-0.6-0.7-1-1.2-1.4-1.7
		c1.4-0.9,26.4-1,29,0.3c-1.7,0.2-3.3,0.5-5,0.6c-2.3,0.2-4.4,0.2-6.7,1c-1.9,0.6-4.4-0.1-6.4,1.3c-3.2-1.3-4.6,1.9-6.9,3.1
		c2.4,0.1,4.9,0.2,7.3,0.3c4.1,0,8.2,0,12.3-0.1c1.6,0,2.6,0.4,1.6,2.3c-0.3,0.6,0,1.6,0.3,2.2c1,1.8,0.8,2.3-1.3,2.3
		c-2.5,0.1-5,0-7.6-0.1c-6.2,0-12.4,0-18.6-0.1C-323.4,403.7-324.1,403.6-325.5,403.4z"/>
	<path class="st0" d="M-367,440.6c-2.9,0.7-5.9,0.3-8.9,0.4c2.4-5.8,0.9-11.7,1.6-17.4c0.3-2.3,0.5-4.6,1-6.8c0.4-1.9,0.4-3.4-0.8-5
		c-0.5-0.6-0.8-1.4-1-2.2c-0.4-2.8,0.1-3.4,2.9-3.4c1.3,0,2.6-0.1,3.9,0.1c0.5,0.1,1.3,0.9,1.3,1.4s-0.7,1.3-1.3,1.4
		c-2,0.5-2.5,1.1-1.6,2.8c0.7,1.4,0.6,2.5,0.1,3.9c-0.3,0.9-0.5,1.9-0.4,2.8c0.1,0.7,0.9,1.7,1.5,1.8c0.6,0.1,1.8-0.6,2-1.1
		c0.5-1.5,0.8-3.2,0.7-4.8c-0.2-2,0.4-2.9,2.3-3.3c0.7-0.1,1.3-0.5,1.9-0.7c1.9-0.7,3.2,0.1,3,2.1c-0.5,4.1-2.4,7.6-5.9,10.1
		c-0.2,0.1-0.4,0.2-0.5,0.3c-4.9,2.7-4.7,2.6-2.9,7.8c0.6,1.8,0.3,3.9,0.4,5.8c0.1,1.2,0.2,2.4,0.3,3.5
		C-367.4,440.2-367.2,440.4-367,440.6z"/>
	<path class="st0" d="M-302.3,420.4c0.3-3.9,0.5-7.7,0.8-11.6c0.1-2.1,1.7-1.7,3-1.8c1.6-0.1,1.7,0.8,1.7,2.1
		c-0.3,6-0.7,11.9-0.9,17.9c-0.1,2.3,0.3,4.6,0.5,6.9c0.2,2.7-0.6,3.7-3.2,4c-0.4,0.1-1.2-0.5-1.3-1c-0.6-2.2-1.1-4.4-1.4-6.7
		c-0.2-1.3-0.2-2.7,0.1-4c0.3-2,0.9-3.9,1.3-5.8C-301.9,420.5-302.1,420.4-302.3,420.4z"/>
	<path class="st0" d="M-324.7,226.8c0-3.7-0.1-7,0.1-10.3c0-0.5,0.9-1.3,1.3-1.3c4.1-0.1,8.1-0.2,12.2,0.1c2.5,0.1,3.1,1.2,2.7,3.8
		c-0.3,2-0.8,4-0.8,6.1c0,2.4,0.4,4.8,0.6,7.4c-1,0.4-1.8,0-2.4-1.2c-0.5-1.1-1.1-2.2-1.8-3.2c-1.1-1.6-1.9-3-1.6-5.2
		c0.3-1.7-0.4-3.5-2.4-4.3c-2.7-1-5.2,1.2-5,4.8C-321.7,225.4-322.8,226.1-324.7,226.8z"/>
	<path class="st0" d="M-340.9,443.3c-1,1-2.3,1.6-2.5,2.5c-0.2,0.7,1.1,1.6,2,3c-6.4,0-12.4,0-18.8,0c0.7-0.9,1.2-1.5,1.6-2.1
		c0.3-0.5,0.5-1.3,0.3-1.7c-0.3-0.4-1.1-0.8-1.7-0.8c-1.5,0.2-2.9,0.6-4.4,0.9c-0.4,0.1-0.8-0.1-1.2-0.1c-0.1-0.2-0.2-0.4-0.3-0.6
		c0.9-0.6,1.7-1.7,2.6-1.7c7.1-0.1,14.3,0,21.4,0.1C-341.6,442.9-341.4,443.1-340.9,443.3z"/>
	<path class="st0" d="M-301.9,448.9c-2.9,0-5.3,0-7.7,0c-2.5,0-4.9,0-7.4,0c-1,0-1.8-0.2-2.1-1.5c-0.1-0.6-0.8-1-1.2-1.6
		c-0.3-0.5-0.8-1.3-0.6-1.7c0.2-0.6,1-1.3,1.6-1.3c4.8-0.1,9.6,0,14.3,0.1c0.4,0,1.1,0.9,1,1.1c-0.9,1.8,0.2,2.8,1.3,3.8
		C-302.4,447.9-302.3,448.2-301.9,448.9z"/>
	<path class="st0" d="M-367.1,448.9c-7.2,0-14.4,0-21.5,0c-0.1-0.2-0.1-0.4-0.2-0.6c1-0.6,2-1.1,3.1-1.7c2.3-1.2,4.5-2.5,6.9-3.6
		c1.1-0.5,2.4-0.5,3.6-0.7c0.1,0.2,0.2,0.5,0.2,0.7c-0.5,0.7-1.1,1.4-1.6,2.1c0.1,0.1,0.2,0.3,0.2,0.4c2.4-0.9,4.8-1.8,7.6-2.9
		c-0.6,1.8-1.5,3.2-1.2,3.9c0.4,0.8,2,1.1,3,1.6C-367,448.5-367,448.7-367.1,448.9z"/>
	<path class="st0" d="M-294.5,398.3c1.3-0.5,2.2-1.1,3-1.1c3.6-0.1,7.2,0,10.8,0.1c2,0.1,2,0.6,1.4,2.5c-1.2,3.4-3.2,4.9-6.9,4.3
		c-2-0.3-4.1-0.2-6.1-0.2c0.4-1.5,1.1-2.7,0.8-3.5C-291.7,399.6-293.1,399.2-294.5,398.3z"/>
	<path class="st0" d="M-310.7,187.3c0.1-1.2,0.3-2.5,0.2-3.7c-0.1-1.8-0.1-3.7-0.8-5.3c-0.3-0.8-1.9-1.3-3-1.5
		c-1.4-0.2-2.8,0.1-4.3,0c-2-0.1-3.5-1.2-4.5-3.3c0.6,0.2,1.2,0.5,1.8,0.5c1,0,2-0.1,2.9-0.2c1.2-0.2,2.4-0.8,3.4-0.6
		c3.5,0.6,6-0.5,7.6-3.7c0.1-0.3,0.4-0.6,0.6-0.8c0,0,0.1-0.1,0.3-0.2c0.1,0.2,0.4,0.3,0.4,0.5c-0.3,2.4,0.5,4.9-1.1,7.2
		c-1.3,1.9-2.2,3.9-1.6,6.5c0.3,1.4-0.8,3.2-1.2,4.8C-310.2,187.3-310.5,187.3-310.7,187.3z"/>
	<path class="st0" d="M-333,289.7c-0.9-0.8-1.6-1.7-2.4-1.8c-3.8-0.6-4.1-3.9-5.2-6.6c-0.8-2.1-1.7-4.1-2.5-6.2
		c-0.7-1.7-1.4-3.4-2.1-5.1c-0.4-1-0.1-1.6,1-2c2.9-1,2.9-0.8,3.4,2.3c0.4,2.5,1.4,4.9,2.1,7.4c0.3,1,0.7,2.1,1.2,3
		c0.5,1,1.1,2.2,2,2.7C-332.6,284.9-332.8,287.1-333,289.7z"/>
	<path class="st0" d="M-279.5,457.1c-1.4,0-2.9,0.4-3.3-1.8c-0.1-0.5-1.8-0.7-2.7-0.8c-1-0.2-2.5,0.1-2.4-1.5
		c0.1-1.5,1.2-2.1,2.6-2.1c3.5,0,7.1-0.1,10.6,0c2,0,2.6,1,1.5,2.8C-274.6,455.9-276.7,457.2-279.5,457.1z"/>
	<path class="st0" d="M-274.3,456.5c0.5-0.3,1-0.5,1.4-0.9c0.7-0.9,1.4-1.9,2-2.8c0.4-0.5,0.8-1.5,1.2-1.5c3.4-0.1,6.7-0.1,10.2-0.1
		c-0.8,3.6-3.4,6-6.7,6.1c-2.7,0-5.3,0-8,0C-274.2,457-274.2,456.7-274.3,456.5z"/>
	<path class="st0" d="M-274.9,448.8c-2.9,0-5.8,0.2-8.7-0.1c-1-0.1-2.4-1.3-2.8-2.3c-0.7-1.6-1.8-2.1-3.3-2.1
		c-2-0.1-4.1-0.1-6.1-0.2c-0.3,0-0.6-0.2-0.8-0.7c0.5-0.1,1.1-0.2,1.6-0.2c3.8,0,7.6,0,11.5,0c0.9,0,1.5,0.1,2,1.2
		c0.5,1,2,1.6,3.2,2.3c1.2,0.7,2.4,1.1,3.6,1.7C-274.8,448.4-274.9,448.6-274.9,448.8z"/>
	<path class="st0" d="M-392.8,450.4c0.8,0,1.6,0,2.4,0c2,0,3,1,3.4,2.8c0.5,2.2-0.1,2.8-2.3,2.9c-0.8,0-1.6-0.1-2.4,0
		c-3.2,0.5-4.4-1.8-5.8-3.9c-0.7-1-0.2-1.7,1-1.8C-395.3,450.4-394.1,450.5-392.8,450.4L-392.8,450.4z"/>
	<path class="st0" d="M-278.3,443.1c5.6-0.1,10,3.7,15.3,4.7c0,0.3,0,0.5,0,0.8c-0.6,0.2-1.2,0.6-1.7,0.6c-1.6,0.1-3.1,0-4.7,0
		c-0.4,0-1-0.1-1.1-0.4c-1.8-2.6-4.9-3-7.3-4.6c-0.2-0.1-0.4-0.4-0.6-0.5C-278.5,443.5-278.4,443.3-278.3,443.1z"/>
	<path class="st0" d="M-353.6,161.7c-1.3-3.2,2.8-5.5-0.1-8.9c4.2,0,7.8,0,11.4,0c0.1,0.2,0.1,0.3,0.2,0.5
		C-347.4,154.1-351.7,156.3-353.6,161.7z"/>
	<path class="st0" d="M-332.1,442.8c-1.1,3.3-1.1,3.3,1.7,4.3c0.6,0.2,1.1,0.8,1.6,1.7c-2,0-3.9,0-5.9,0c-0.3,0-0.9-0.5-0.9-0.8
		c0.1-1.5,0.2-3.1,0.7-4.4C-334.7,443.1-333.2,443.1-332.1,442.8z"/>
	<path class="st0" d="M-296.4,395.2c2.5-0.8,4.9-1.8,7.5-2.4c0.5-0.1,1.3,1,1.9,1.7c0.1,0.1-0.6,1.3-1,1.3c-2.7,0.1-5.5,0.1-8.2,0.1
		C-296.3,395.6-296.4,395.4-296.4,395.2z"/>
	<path class="st0" d="M-331.1,130.5c-0.2-0.3-0.6-0.8-1.2-1.7c1.8,0,3.2,0,5,0c-0.3,0.7-0.5,1.2-0.7,1.7
		C-329,130.5-329.9,130.5-331.1,130.5z"/>
	<path class="st0" d="M-332.2,126.3c1.8,0,3.5,0,5.3,0c0,0.2,0,0.4,0,0.6c-1.8,0-3.5,0-5.3,0C-332.2,126.7-332.2,126.5-332.2,126.3z
		"/>
	<path class="st0" d="M-256.7,462.4c-2.3-3.3-2.9-6.7,0.5-9.9c0.4-0.4,0.5-0.9,0.9-1.4c1.1-1.4,0.9-2.2-0.9-2.8
		c-6.6-2.5-13.1-5.1-19.6-7.6c-1.5-0.6-2.1-1.4-2.1-3.1c0.1-8.5,0.3-17.1,0.2-25.6c0-4.4-0.1-8.7,2.9-12.4c0.8-1,0.5-2-0.3-2.9
		c-1.6-1.9-3.2-3.9-4.8-5.8c-2-2.5-2.2-8.6-0.2-11.2c0.9-1.2,1-2.3,0.4-3.6c-1-2.6-3.2-2.6-5.4-2.6c-6.6,0-13.2,0-19.9-0.2
		c-0.7,0-1.6-0.7-2.2-1.3c-1.2-1.4-2-3.2-3.4-4.4c-4-3.4-6.7-7.4-5.8-13c0.9-5.6,1.8-11.1,2.8-16.7c1.2-6.8,2.6-13.5,3.9-20.3
		c0.9-4.7,0.4-9.3-0.8-14c-0.7-2.5-1-5.1-1-7.7c0.2-7.6,1.6-14.9,3.8-22.3c4.2-14.1,3.9-28.6,1.9-43c-0.5-3.9,0-7.6,0.5-11.3
		c0.2-1.7,1-3,2.4-4.1c3.9-3,6.4-6.9,6.7-11.9c0.1-1.1,0.5-2.3,0.8-3.4c2-6.5,3.6-13,3-19.9c-0.2-2.4,0.3-5.1,0.9-7.5
		c1.2-4.5,1.3-9,0.2-13.6c-1.1-4.7-3.5-8.2-8.6-9.4c-6.2-1.5-11.6-4.7-16.9-7.9c-1-0.6-2-1.8-2.2-2.9c-0.6-3.9-0.2-7.7,1.1-11.5
		c2.8-8.4,3.1-16.8,0-25.3c-0.9-2.4-2.5-4-5-4.7c-5-1.5-9.9-1.1-14.7,0.6c-2.8,1-4.6,3.2-5.2,6.1c-0.4,2-0.5,4.1-0.9,6.1
		c-1.2,6.4,0.1,12.5,1.8,18.6c0.8,2.8,1.6,5.6,1.5,8.6c-0.1,2-0.8,3.3-2.5,4.3c-5.7,3.4-11.5,6.5-17.6,9c-2.7,1.1-4.6,2.9-5.8,5.5
		c-1.9,4.1-2,8.5-1.7,12.8c0.3,3.3,1.4,6.5,1.7,9.8c0.6,6.2,0.1,12.4,3,18.2c0.3,0.6,0.2,1.5,0.4,2.2c0.6,3.2,1,6.3,1.7,9.4
		c0.9,4,3,6.9,7.3,8c1,0.3,2.5,1.2,2.7,2c0.6,2.3,0.8,4.7,0.7,7.1c-0.5,7.7-1.2,15.4-1.8,23c-0.8,10.7,0.4,21.1,4.1,31.2
		c2.4,6.6,2.8,13.3,1.5,20.1c-1.7,8.7-1.4,17.4,0.3,26c1.3,6.8,3.4,13.5,5,20.2c1.3,5.6,1.7,11.2-2,16.1c-2,2.6-4.4,4.8-6.7,7.1
		c-0.6,0.6-1.4,1.1-1.6,1.8c-0.6,1.6-1.6,1.9-3.2,1.9c-5.8,0-11.6,0-17.4,0.1c-3.8,0-4.9,1.9-3.2,5.3c1.7,3.2,1,8.7-1.3,11.4
		c-1.2,1.4-2.4,2.8-3.6,4.1c-1.4,1.5-1.6,3-0.3,4.6c2.7,3.5,3.4,7.3,2.7,11.6c-0.1,0.7,0,1.5-0.1,2.2c-0.2,8.2-0.4,16.4-0.5,24.6
		c0,1.6-0.7,2.4-2.2,3c-5.8,2.3-11.7,4.6-17.5,7c-4.7,1.9-4.8,1.9-2.2,6.4c1,1.6,1.2,3.1,0,4.7c-2.4,3.2-3.6,6.9-3.2,10.9
		c0,0.5,0,1-0.1,1.4c-0.2,3.2,0,3.3,3.2,3.3c8.9-0.2,17.9-0.5,26.8-0.4c14.8,0.1,29.6,0.5,45,0.8c18.6,0,37.8,0,57,0
		c5,0,10,0.2,14.9,0.3c0.9,0,1.9,0.2,1.9-1.2C-255.2,469.7-254.3,465.9-256.7,462.4z M-341.5,122.8c-2.2-2.4-2.1-14.6,0.2-18.2
		C-342,110.7-343.1,116.8-341.5,122.8z M-309.8,370c-2.6,0.3-3.5-0.3-4.3-3.4C-312.7,367.7-311.4,368.7-309.8,370z M-312.4,372.7
		c-0.1,0.2-0.2,0.4-0.4,0.7c-1-0.4-2.1-0.7-3.1-1.2c-1.9-0.9-3.7-1.9-5.5-3c-3.5-2.2-4.1-2.8-1.6-7.2
		C-319.4,365.5-315.9,369.1-312.4,372.7z M-311.3,318.1c-0.1,0.4-6.9,41.5-6.9,41.5c-0.2,0-0.4,0.1-0.6,0.1
		c-0.3-1.4-0.9-2.8-0.7-4.1c0.7-5.9,1.3-11.9,2.6-17.8c1.3-6.4,3.3-12.8,5-19.1C-311.9,318.6-311.7,318.5-311.3,318.1z
		 M-308.4,272.2c-1.2,5-2.7,10-3.6,15.1c-0.6,3.7-0.5,7.5-0.7,11.2c0,0.6-0.1,1.3-0.2,1.9c-0.2,0-0.5,0.1-0.7,0.1
		c-0.3-1.1-0.8-2.2-0.8-3.3c0.3-6.6,0.8-13.2,2.6-19.6c1.8-6.3,3.1-12.8,4.6-19.2c0.1-0.3,0.3-0.5,0.6-1
		C-305.9,262.7-307.3,267.5-308.4,272.2z M-316.8,114.4c1.1,2.2-0.3,10.1-2.3,12.4C-318.3,122.5-317.6,118.4-316.8,114.4z
		 M-318.5,107.6c-0.8-2.5-1.5-4.5-2.2-6.6C-318.7,102.1-317.9,104.2-318.5,107.6z M-340.5,117.7c0-1.7,0.7-2.8,2.6-2.5
		c1.9,0.2,4.1-0.4,5.1,2.1c0.4-2.7-0.2-3.9-2.8-4.2c-2.4-0.3-3.1-1.4-2.9-3.6c0.2-1.8,0.1-3.6,0.5-5.3c0.3-1.4,1-2.7,1.6-4.2
		c0,0-0.4-0.3-0.8-0.6c3.2-2.6,13-2.6,15.3,0.1c-1,0.2-1.8,0.3-3.2,0.5c5.3,2.6,3.8,7.4,4.3,11.4c0,0.3-0.6,0.8-1,1.1
		c-0.4,0.2-0.9,0.2-1.4,0.3c-3.8,0.8-4,1.1-4.2,5c-0.1,1.3-0.2,2.5-0.2,3.8c0.2,0,0.4,0,0.6,0.1c0.1-1.3,0.2-2.6,0.3-3.8
		c0.1-1.7,0.8-2.4,2.6-2.6c4.8-0.5,5,0.5,4.6,4.8c-0.2,1.8-0.3,3.5-2.3,4.6c-0.7,0.4-0.8,2.1-1,3.2c-0.1,0.6,0.2,1.3,0.1,1.9
		c-0.7,3.6-1.2,4-4.9,4c-1.8,0-3.5,0.1-5.3,0.1c-2,0-3.1-1.1-3.6-3c-1.1-3.6-2.3-7.1-3.5-10.7C-340.2,119.3-340.4,118.5-340.5,117.7
		z M-338.9,140.7c-0.5,1-0.9,1.8-1.2,2.6c-0.4,0.9-0.7,1.9-1.2,2.7c-0.2,0.5-0.7,1.1-1.1,1.1c-2.7,0.4-5.5,0.7-8.2,1
		c-0.1-0.2-0.1-0.4-0.2-0.6C-347,145.3-343.1,143.1-338.9,140.7z M-342.8,336c-0.9-3.6-2.3-7.2-2.9-10.8c-1.5-9.1-2-18.3,0.4-27.4
		c0.4-1.6,0.3-3.4,0.5-5.5c1.3,1.5,2.4,2.8,2,4.6c-0.5,2-0.8,3.9,1.3,5.2c0.4,0.2,0.5,0.9,0.9,1.8c-1.1-0.6-1.8-1-2.9-1.6
		c-0.3,1.5-0.7,2.8-0.9,4c-1.6,10.6,0.3,20.9,2.8,31.1c1.1,4.5,3.2,8.9,2.9,13.7c0,0.5-0.1,1.1-0.2,1.6c0,0.1-0.2,0.1-0.2,0.1
		C-340.4,347.4-341.5,341.7-342.8,336z M-340.2,359.4c1.5,2.7,0.3,4.9-2.7,5C-342,362.7-341.2,361.2-340.2,359.4z M-344.8,366.2
		c1.1,2,0.7,2.5-2.5,2.9C-346.3,367.9-345.5,367.1-344.8,366.2z M-256.5,471.2c0,1.6-0.7,2.1-1.8,1.7c0.3-0.5,0.7-1,0.8-1.5
		c0.6-4.1-0.4-7.8-2.6-11.3c-0.2-0.4-0.6-0.9-1-0.9c-3.5-0.1-7,0-11.1,0c1.2,1.7,2.1,2.9,3,4.3c-1.8,0.7-2.9-0.1-3.4-1.2
		c-1.5-3-3.9-3.3-7-3.3c-24.4,0-48.9-0.2-73.3-0.3c-10.2-0.1-20.3-0.1-30.5-0.3c-1.8,0-2.9,0.6-3.8,2.2c-0.5,1-1.3,1.8-2,2.7
		c-0.2-0.1-0.4-0.2-0.6-0.3c0.4-1.3,0.9-2.7,1.4-4.4c-2.9,0-5.6,0-8.3,0c-0.2,0-0.5,0.2-0.7,0.4c-2.6,3.3-4.4,6.8-3.8,11.2
		c0.2,1.6,1.2,1.5,2.4,1.5c9,0,18,0,27,0.1c12.1,0.1,24.3,0.2,36.4,0.2c13.9,0.1,27.7,0.1,41.6,0.2c1.9,0,3.7,0.2,5.6,0.6
		c-3.7,0-7.3,0-11,0c-8,0-16.1-0.1-24.1-0.1c-8.3,0-16.7,0-25-0.1c-13.3,0-26.6-0.1-39.9-0.1c-4,0-8.1-0.1-12.1,0
		c-1.7,0-2.3-0.6-2.4-2.4c-0.2-4.6,1-8.6,3.5-12.3c1-1.4,1-2.7-0.1-4.1c-0.1-0.2-0.2-0.4-0.3-0.5c-1.9-3.3-1.8-3.5,1.8-4.9
		c6.1-2.4,12.1-4.9,18.2-7.3c1.6-0.6,1.7-1.8,1.7-3.1c0.2-9.9,0.1-19.8,0.7-29.7c0.2-3.9-0.3-7.1-2.7-10c-0.9-1.2-0.8-2.1,0.2-3.2
		c1.6-1.7,3.1-3.6,4.7-5.4c0.4-0.5,1-1,1-1.5c-0.2-3.4-0.1-6.9-0.9-10.2c-0.5-2.3-0.5-3.2,2-3.3c6.3-0.1,12.7,0,19-0.1
		c1,0,1.9-0.5,3.2-0.8c0.5,0.2,1.3,0.8,2.2,0.8c5.7,0.1,11.3,0,17,0.1c1.8,0,2.3-0.7,2.3-2.4c-0.1-12.2-0.1-24.4-0.2-36.6
		c0-16.9,0.1-33.8,0.1-50.8c0-14.5,0.1-28.9,0.1-43.4c0-7.9,0-15.8,0.1-23.7c0-2.1-1.4-2.3-2.8-2.5c-1.1-0.1-2.3,0.3-3.4,0.3
		c-2.2,0-4.4-0.2-6.5-0.2c0-0.3,0-0.6,0-0.9c1.6-0.1,3.2-0.2,4.7-0.3c0.2,0,0.4,0,0.6-0.1c4.6-2.2,9.6-1.4,14.4-2
		c2.5-0.3,5.2,0,7.6,0.7c3.5,0.9,6.8,0.6,10.1-0.3c3.3-0.9,5.7-5,5.3-8.4c-0.1-0.8,0.2-1.7,0-2.4c-0.1-0.6-0.7-1.6-1.1-1.6
		c-1,0.1-2.3,0.4-1.9,1.8c0.4,1.4,0.7,2.5-0.6,3.7c-1.8,1.7-3.4,3.7-6.4,2.3c-1.5-0.7-3.2-0.9-4.9-1.3c-0.1,0.2-0.1,0.4-0.2,0.5
		c0.8,0.8,1.7,1.6,2.7,2.5c-1.5,0.3-5.1-1.1-5.6-2c-0.1-0.2-0.2-0.4-0.1-0.6c1.4-2.2-0.8-2.9-1.9-3.8c-3.1-2.5-4.5-5.5-3.6-9.5
		c0.3-1.3,0.8-1.6,1.9-1.3c5.8,1.4,11.6,2.6,16.4,6.6c0.6,0.5,1.9,0.2,2.9,0.2c0.4,0,0.8-0.6,1.2-0.7c3.3-0.3,3.8-2.8,4.4-5.3
		c1.1-5.2,1.3-10.4,0.7-15.7c-0.2-1.8,0.1-3.9,0.8-5.6c2.4-5.6,1-10.9-1.2-15.9c-1.7-3.7-5.6-4.8-9.7-4.9c0.3,2.9,1,3.6,3.4,3.5
		c2.3-0.1,5,2.1,6,4.9c0.9,2.6,1.3,5.3,0.2,8c-0.5,1.2-0.8,2.5-1.3,3.7c-1,2.5-1,5,0,7.6c2.4,6.2-0.2,11.6-3.3,16.7
		c-0.4,0.6-1.8,1.1-2.4,0.8c-2-0.7-3.9-1.8-6.2-2.8c1.2-1.1,2.2-2,3.1-2.9c0.3,0,0.4,0,0.5,0.1c3,2.3,4.6,1.8,4.9-2
		c0.3-3,0.1-6.1-0.4-9.3c-1.5,2.4-3,4.8-4.5,7.2c-0.2,0-0.3-0.1-0.5-0.1c0-0.5-0.1-1.1,0-1.6c0.4-1.4,0.6-3.1,1.3-4.3
		c2.8-4.5,3-9.5,2.8-14.5c-0.1-1.7-1-3.5-1.6-5.2c-0.6-1.7-1.5-3.3-2-5c-0.5-1.8-1.4-2.6-3.5-2.7c-1.9-0.1-3.7-0.5-5.6-0.5
		c-1.3,0-2.7,0.2-4,0.5c-0.2,0-0.6,0.9-0.5,1.1c0.3,0.4,1.1,1,1.3,0.9c1.8-1.1,3.2,0,4.8,0.6c1.2,0.5,2.6,0.5,3.3,0.6
		c1,1.3,1.8,2.2,2.4,3.3c1.4,2.3,2.9,4.5,4,7c0.3,0.8-0.5,2.1-0.9,3.2c-1.3,3.1-2.9,6.2-3.8,9.4c-0.6,2.3-1.3,4.8-1.4,7
		c-0.1,2.3-0.4,4.4-1.9,6.8c-2.9-0.9-6.2-1.7-9.3-3c-1-0.4-1.7-2.2-2-3.4c-0.4-1.3-0.3-2.9-0.1-4.3c0.5-3.3-1.1-5.6-3-7.9
		c-0.3-0.3-1.1-0.2-1.8,0.1c1.9,1.7,1.9,3.7,1.8,5.8c-0.2,2.3,0,4.7-0.4,7.1c-2.5-2.3-1.4-5.5-2.6-8.1c0,1.2,0,2.5,0,3.7
		c0.1,5-1.2,6-6.3,4.6c3.6-2.2,2.6-5.4,2.5-8.8c-0.9,0.2-1.6,0.3-2.4,0.4c0.2,0.7,0.4,1.1,0.6,1.6c0.8,3.2-0.8,6.5-4.2,7.7
		c-4.7,1.7-7.3,5.5-9.8,9.4c-2,3.2-4,6.3-4.4,10.1c-0.1,0.6-1.1,1-1.6,1.5c-0.5-0.7-1-1.3-1.4-2c-0.1-0.3,0-0.7,0-1
		c-0.2-0.1-0.4-0.2-0.6-0.2c-0.6,1.4-2,3.2-1.6,4.1c0.7,1.6,2.4,3.4,4,3.9c2.4,0.7,5.1,1.3,7.7,0c0.5-0.3,1.2-0.2,2-0.2
		c-1,1.1-2.4,2-0.6,3.3c0.5,0.4,1.4,0.4,2.1,0.5c2.5,0.4,5,0.7,7.4,1.3c1.8,0.5,2.7,1.9,2.7,3.9c0,2.3,0,4.5,0,6.8
		c0,1.4,0.1,2.6-1.5,3.5c-0.5,0.3-0.7,2.2-0.3,2.7c2.7,3.2,2.2,7.1,2.3,10.8c0.3,11.8,0.4,23.6,0.6,35.4c0.1,5.9,0.1,11.8,0,17.8
		c0,1.9-0.9,3.7-1.3,5.5c-0.2,1.1-0.2,2.2,0,3.3c0.4,2.6,1.2,5.1,1.2,7.6c0.1,10.4,0.1,20.7,0.1,31.1c0,3.8,0,7.6,0,11.4
		c-0.2,0-0.4,0-0.5,0c-0.7-1.4-1.4-2.8-2.1-4.2c0.2-0.9,0.6-2,0.7-3.1c0.3-6.2-1.7-12-3.4-17.8c-0.9-2.9-1.8-5.7-1-8.8
		c0.4-1.6-0.2-3.4-0.1-5.1c0.2-3.4,0.6-6.8,1-10.2c0.2-1.6-0.4-2.8-2.1-3.7c-1.6,3.2-2.6,6.6-3,10.1c-0.8,7.3,1.3,14.2,3.4,21
		c1.5,5.1,3.3,10.2,2.8,15.6c-0.2,1.8-0.8,3.6-1.3,5.8c0.8-0.2,1.2-0.4,1.7-0.5c1.1-0.2,1.8,0.6,1.3,1.4c-2.3,3.2-3.4,7.4-7.3,9.4
		c-0.1,0-0.2,0-0.6,0c0.9-1.6,1.8-3.2,2.6-4.7c0.3-0.5,0.6-1.1,0.7-1.6c2.1-8.7,0.6-17.1-1.9-25.6s-4.1-17.2-2.6-26
		c0.4-2.2,1.9-4.3,3-6.4c1-2.2,1.8-4.4,0.4-6.7c-2-3.5-2.1-7.1-0.9-10.9c0.1-0.4,0.3-1,0.1-1.4c-1.2-2.7-2.3-5.5-3.7-8.1
		c-1.9-3.6-3.4-8.4-3.3-11.7c2,0.6,2,0.5,1.9-1.7c-0.1-4.8-0.3-9.7,0-14.5c0.1-2.1,1.2-4.2,2.3-6c1-1.8,0.7-3.3-0.1-4.8
		c-0.2-0.1-0.4-0.1-0.7-0.2c-0.8,1.6-1.7,3.2-2.5,4.8c-0.2-0.1-0.4-0.1-0.5-0.2c0.9-3.5,1.7-6.9,2.6-10.4c0.3-1.3,1.3-1.4,2.4-1.1
		c1,0.2,2,0.5,2.5-0.9c0.8-2.2,0.5-3.6-1-4.4c-2.5-1.3-4.7-2.7-4.8-6c0-0.8-1.3-1.5-2.3-2.2c-0.6,2.8-0.7,5.5,0.3,8
		c1.3,3,1.1,5.9,0.2,8.8c-2.8,9.1-3.4,18.4-2.4,27.9c0.8,7.2,2.9,14,4.8,20.9c0.4,1.4,0,3.1,0,4.6c-0.2,0-0.5,0-0.7,0
		c-0.5-1.9-0.7-3.9-1.4-5.7c-3.6-9.5-5.6-19.3-5.3-29.4c0.3-8.9,1.6-17.8,2.2-26.7c0.2-2.8-0.1-5.8-0.9-8.4
		c-0.4-1.2-2.4-2.2-3.9-2.8c-3.9-1.6-6.4-5.3-6.1-9.7c0.6,0.7,1.2,1.3,2,2.2c1.2-1.8,1.7-3.5,1.6-5.5c0-0.8,0.1-1.7,0.5-2.3
		c1.9-3.2,3.9-6.3,6.1-10c-1.8,0.7-3.3,1.4-5.1,2.1c1.6-4.6,5.2-7.5,7.4-11.4c-1.6,0.2-1.6,0.1-5.8,4.9c-1.7,1.9-3.5,3.9-4.7,6.1
		c-1.3,2.3-2,4.8-3,7.4c-1.3-3.8-2.9-7.5-3.1-11.7c-0.4-6-1.6-12-2-18c-0.3-4.6-0.5-9.3,1.6-13.6c0.7-1.4,2.1-2.8,3.5-3.5
		c2.9-1.5,5.9-2.5,9.1-3.4c-0.5,0.6-1.1,1.3-1.9,2.3c0.9,0,1.5,0.2,1.8,0.1c3.7-1.7,7.6-1,11.5-1.2c1.9-0.1,3.7-0.9,5.6-1.5
		c0.4-0.1,0.6-0.7,0.9-1.2c-0.4-0.2-0.7-0.4-0.9-0.6c-2.5-1.3-2.9-2.3-1.7-4.9c0.2-0.5,0.5-1,0.8-1.5c1.1-1.8,2.4-2.4,3.8-1.5
		c1,0.6,1.3,3,0.6,4.3c-0.3,0.7-0.9,1.8-0.7,2c1,1.1,2.2,2,3.5,2.8c0.2,0.1,1.1-0.5,1.3-1c0.2-0.7,0.4-1.9,0.1-2.2
		c-2.1-1.9,0-4.1-0.6-6.1c-0.1-0.3,1-1,1.7-1.3c1.4-0.6,2.8-1,4-1.4c0.3,2.3,0.5,4.8,0.9,7.4c0.1,0.9,0.7,1.8,1.4,2.4
		c1.5,1.3,3,2.8,5.3,2.8c0.4,0,0.9,0.4,1.1,0.8c1.8,3,4.3,2,7.4,1c-1.7-1-2.9-1.7-4.1-2.4c-2.3-1.2-4.8-2.4-7.1-3.7
		c-2.4-1.3-3.5-4.2-2.9-7.2c0.2,0.2,0.4,0.3,0.4,0.4c-0.1,4.6,3.6,5.9,6.7,7.6c5.1,2.7,10.2,5.1,15.8,6.6c2,0.5,3.2,1.9,4.1,3.7
		c2.6,5.6,2.5,11.3,1.2,17.2c-0.7,3.2-1.1,6.6-0.8,9.9c0.4,6.1-1.8,11.5-3,17.2c-0.4,1.9-1,3.8-1.4,5.8c-0.7,4.2-3.2,7.1-6.4,9.7
		c-0.9,0.7-1.5,1.9-1.9,2.9c-1.9,5.4-1.1,10.9-0.2,16.4c0.1,0.6,0,1.3,0,2.1c-1.1-0.7-1.9-1.2-3.3-2c0.6,2.2,1.2,3.8,1.3,5.5
		c0.1,1.1-0.7,2.3-1,3.4c-0.7-0.9-1.6-1.7-2-2.7c-0.5-1.2-0.7-2.6-1.2-3.8c-0.6,3.4-0.8,6.8,0.2,10.2c0.8,2.7,1.9,5.4,2.7,8.2
		c1.1,3.7,0.4,7.3-0.7,10.9c-0.2,0-0.4,0-0.5,0.1c-0.3-2.1-0.7-4.2-1-6.5c-1.9,4.9-3.6,9.4-5.4,13.9c-0.6,1.5-1.6,3-2.2,4.5
		c-1.3,3.5,0.7,6.6,1.5,9.8c1-4.7,2.8-9.1,4.7-13.4c0.2,0.1,0.5,0.1,0.7,0.2c-0.7,2.5-1.5,5-2,7.6c-0.5,2.5-0.7,5.1-1.1,7.6
		c-0.3,2-0.6,4-1.1,6c-0.7,2.9,0,5.6,1.5,8c1.4,2.3,2.1,8.3,0.6,10.4c-1.2-2.6-2.3-5.1-3.5-7.7c-0.9,0.3-1.7,0.5-2.5,0.8
		c-0.1-0.2-0.2-0.4-0.3-0.6c0.4-0.2,0.7-0.6,1.1-0.7c1.3-0.4,1.8-1.1,1.5-2.4c-0.2-1.1-0.3-2.3-0.4-3c-1.5-1.2-2.9-2.1-4-3.2
		c-0.6-0.7-1.2-2-1-2.8c1.3-5.4,0-10.7-0.2-16.1c-0.2-5.3-0.8-10.6-0.5-15.9c0.2-3,1.8-5.9,2.7-9c0.6-2.1,0.8-4.3,1.2-6.5
		c-0.2,0-0.4-0.1-0.6-0.1c-0.4,1.7-0.7,3.4-1.2,5.1c-0.5,1.6-0.9,3.3-1.7,4.8c-1.4,2.6-2,5.2-2,8.2c0,22.4-0.1,44.8-0.2,67.2
		c0,6.7-0.1,13.4-0.2,20.1c0,0.4,0.1,0.9,0.4,1.3c1.4-3.4,2.5-6.8,2.4-10.7c-0.2-6.5-0.3-13,0.2-19.4c0.3-3.4,2.1-6.7,3.3-10.3
		c2.2,1.7,2.6,3.5,2.3,5.5c-0.3,2.2-1.1,4.4-1.5,6.6c-0.2,1-0.2,2,0.2,3.1c1.1-3.1,2.3-6.2,3.4-9.2c0.3,0,0.6,0.1,0.9,0.1
		c0,0.9,0.2,1.9,0,2.7c-1.4,6-3.1,12-4.3,18.1c-0.9,4.4-1.3,8.9-1.7,13.4c-0.2,2.6-1.5,4.2-3.5,5.6c-0.9,0.6-1.9,1.8-2,2.7
		c-0.4,3.5-0.4,6.9-0.6,10.4c-0.1,1.4,0.5,1.9,1.9,1.9c3.4,0,6.8,0.1,10.2,0.1c1.4,0,2.9,0,4.3-0.2c0.6-0.1,1.2-0.5,1.3-0.6
		c1.8,0.3,3.2,0.8,4.7,0.8c6.8,0.2,13.7,0.2,20.5,0.4c0.9,0,2,0.4,2.5,1c0.5,0.5,0.7,2,0.4,2.3c-2.2,2-1.8,4.6-1.9,7.1
		c-0.1,2.7,0.3,5.2,2.5,7.2c1.4,1.3,2.4,3,3.7,4.4c0.9,1,1,2,0.2,3c-2.5,3.2-2.5,6.8-2.5,10.7c0.2,9.1,0.1,18.3,0,27.4
		c0,2.2,0.7,3.2,2.6,3.9c5.7,2.2,11.4,4.5,17.1,6.8c0.5,0.2,1,0.5,1.5,0.7c1.2,0.5,1.1,1.2,0.5,2.1c-0.9,1.2-1.9,2.4-2.5,3.7
		c-0.4,0.9-0.5,2.2-0.3,3.2c0.3,1.3,0.9,2.6,1.6,3.7C-256.7,465-256.5,468-256.5,471.2z M-334.6,369.5c0.7-2.4,1.6-4.8,2.4-7.2
		c0.4,0.1,0.8,0.1,1.2,0.2c0,2.7,0.2,5.5-0.1,8.1c-0.1,1.3-1.8,1.5-2.8,1C-334.5,371.4-334.8,370.1-334.6,369.5z M-333.1,192
		c-0.1-0.2-0.1-0.5-0.4-1.5c2.7,0.7,5,1.2,7.2,2c0.4,0.1,0.6,1.3,0.5,2c-0.5,3.2,0.6,5.5,3.5,7.1c1.2,0.6,2.3,1.7,3.4,2.6
		c1,0.8,0.6,1.6-0.4,1.7c-0.9,0.2-1.9,0-2.8-0.3c-2.4-0.6-4.6-1.3-7,0.3c-1.1,0.7-3,0.3-4.5,0.4l0,0c-1.1-2-1.5-3.9,0-5.9
		C-331.5,197.8-331.2,195-333.1,192z M-321.7,209.1c-1.5,0.1-3,0.2-4.5,0.3c0-0.3,0-0.6,0-1c1.5,0,3,0,4.5,0
		C-321.7,208.6-321.7,208.9-321.7,209.1z M-335.1,199.6c-1.5,3.3-1.2,4.4,1.6,6.9c-0.9,0.2-1.8,0.5-2.7,0.6c-2,0-4-2.5-3.7-4.6
		c0.1-0.8,0-1.8-0.3-2.5c-0.8-2.3-0.3-4.1,1.6-5.6c0.3-0.2,0.6-0.4,0.8-0.6c1.6-1.8,2.1-1.7,2.9,0.5
		C-334.2,196.1-334.3,197.8-335.1,199.6z M-340.3,193.5c-0.8,1.1-1.7,2.1-2.6,3.1c-1,1.1-1.2,2.1-0.2,3.4c0.5,0.6,0.6,1.5,0.8,2.3
		c0.1,0.4-0.3,0.9-0.4,1.4c-0.5-0.2-1.3-0.2-1.4-0.5c-0.7-1.5-1.6-3.1-1.6-4.6c0-2.8,1.6-5,3.7-6.7c0.3-0.2,0.7-0.3,1.1-0.5
		c0.3,0.2,0.8,0.3,0.8,0.5C-340,192.3-340,193-340.3,193.5z M-340.6,205.7c-1.1,0.9-2,1.6-3,2.4c3.6,2.7,7.4,1.7,11.2,1.9
		c-2.1,1.3-4.4,1.5-6.8,1.2c-2.3-0.4-4.6-0.9-7-1.3C-347.1,207.6-344.5,205.3-340.6,205.7z M-347.7,252c0.2-1.6,0.3-3.1,0.5-4.7
		c0.2,0,0.4,0,0.6,0.1c-0.1,1.5-0.3,3.1-0.4,4.6C-347.2,252-347.5,252-347.7,252z"/>
</g>
</svg>
