<?xml version="1.0" encoding="utf-8"?>
<!-- Generator: Adobe Illustrator 19.1.1, SVG Export Plug-In . SVG Version: 6.00 Build 0)  -->
<svg version="1.1" id="Слой_1" xmlns="http://www.w3.org/2000/svg" xmlns:xlink="http://www.w3.org/1999/xlink" x="0px" y="0px"
	 viewBox="-884 897.2 438.5 415.8" style="enable-background:new -884 897.2 438.5 415.8;" xml:space="preserve">
<style type="text/css">
	.st0{fill:#0090DA;}
</style>
<g>
	<path class="st0" d="M-841.2,931.8c0.6-3.2,1.3-6.4,2.2-9.7c2-9.5,11.1-14.4,19.9-10.9c2,0.8,5.3,1.2,5.9,2.7c1.6,4,2.2,8.5,3,12.9
		c0.7,3.7,0.3,7.6,1.7,10.9c2.5,5.8,7.3,6.8,12.9,3.4c15.6-9.4,34.9-8,48.6,3.6c13.6,11.6,18.4,30.7,11.7,47.4
		c-4.9,12.2,4.6,24.2,17.9,22.6c2.9-0.3,5.8-1.2,8.5-2.3c11.2-4.3,21.1-1.8,28.8,7.1c1.8,2,4.4,3.3,6.2,4.7c-0.3,2.8-1,6.1-1,9.4
		c0.1,10-6.1,19.4-15.6,23.1c-9.8,3.8-11.8,14.4-3.1,20.3c7.3,5,13.1,10,12.4,19.8c-0.1,1.4,1.5,3,2.2,4.2c-3.3,2.3-6.4,4.7-9.7,6.7
		c-8.5,5.2-16.8,3.8-22.5-3.8c-5.6-7.4-4.6-16.3,2.8-22.7c4.9-4.3,8.8-9.2,7.3-15.8c-0.7-3.1-3.3-7-6.1-8.3
		c-10.9-4.9-15.3-13.1-16.3-24.6c-0.5-5.8-2.6-12-5.8-16.9c-4.9-7.6-14.8-8.7-22.5-3.9c-15.2,9.4-34,8.3-48.3-2.8
		c-1.9-1.5-4.3-2.3-6.4-3.4c-0.8-1.9-1.4-4.4-2.6-6.6c-8.8-15.5-8.8-30.8,1-45.8c1.9-2.8,4.5-5.8,1.7-8.9c-2.3-2.6-6.2-5.9-8.9-5.5
		c-9.4,1.4-17.7,1.3-23.8-7.3C-839.3,931.2-840.5,931.7-841.2,931.8C-841.2,931.7-841.2,931.8-841.2,931.8z M-773.9,1012
		c19.8,0,35.3-15.6,35.3-35.4s-15.8-35.5-35.4-35.4c-19.9,0.1-35.3,15.7-35.3,35.5S-793.7,1012-773.9,1012z"/>
	<path class="st0" d="M-646.4,1126.8c3.5,4.4,7.4,5.9,13.3,4.5c10.9-2.4,20.8,3.3,25.7,13.5c1.4,3,3.8,5.5,5.4,7.8
		c-1.5,2.9-3.6,6-5.1,9.5c-3.8,8.9-12,14.6-21.7,14.7c-4,0-7.9-0.2-11.9-0.1c-9.5,0.3-16.2,5.8-17.4,15.3c-1,7.8-1.9,15.8-1.2,23.6
		c1.8,19.8-12.7,32.8-26.3,35.3c-15.6,2.8-30.1-6.1-36.6-22.5c-0.9-2.3-4.3-4.9-6.6-5c-3.2-0.2-5,2.7-5.3,6.5
		c-0.6,9.5-6,16.1-13,22.3c-6.3,5.6-13.5,5.1-20.6,4.6c-8.6-0.6-16-4.8-20.7-12.2c-2.6-4.1-5.6-5.6-10-5.3l0.1,0.2
		c3.8-1.9,4.9-4.4,4.2-9c-1.7-11,2.6-20,10.8-27.4c7.9-7.3,17.2-8.1,26.8-5.8c10.5,2.5,17.5,9.5,21.4,19.6c0.7,1.9,2.6,4.1,4.4,4.7
		c4,1.3,7,0.8,7.7-4.8c1.9-15.7,12.2-26.9,26.7-29.1c6.2-0.9,12.6-0.2,18.9-0.6c3.9-0.3,7.9-0.8,11.5-2.2c9.8-4,13.7-12.1,13.5-22.2
		c-0.2-9,0.6-17.5,6.2-25.3C-644.6,1135.1-646.2,1130.4-646.4,1126.8L-646.4,1126.8z M-690.8,1244.3c13.7,0,25-11.2,25.1-24.8
		c0.1-13.5-11.3-25-24.9-25c-13.7-0.1-24.7,11-24.8,24.8C-715.5,1233.2-704.6,1244.2-690.8,1244.3z M-763.5,1202.3
		c-13.5-0.4-24.8,10.1-25.2,23.7c-0.4,13.3,10.4,24.8,23.9,25.3c13.4,0.5,24.7-10.3,25.1-23.9
		C-739.3,1213.7-749.7,1202.7-763.5,1202.3z M-611.6,1154.1c0.1-9.8-7.6-17.8-17.4-17.8c-9.6,0-17.3,7.5-17.5,17
		c-0.2,9.9,7.2,17.9,17,18.2C-619.9,1171.8-611.7,1163.9-611.6,1154.1z"/>
	<path class="st0" d="M-468.8,1101.1c-1.8,1-4,1.6-5.3,3.1c-7.7,8.9-21.3,8.9-26.3-1.2c-1.8-3.7,1.1-9.9,2.5-14.8
		c0.5-1.8,2.8-3.1,4.4-4.6c8-7.4,8.5-11.5,1.7-20.3c-2.4-3.1-5.2-5.9-8-8.7c-7.9-8-8.2-20.5-0.5-28.3c7.8-8,20.2-8.2,28.2-0.4
		c8.2,7.9,8.2,20.4,0,28.6c-2.9,3-6.1,5.7-8.7,8.9c-3.5,4.2-5.1,9.8-1.8,14.2c5.6,7.3,10.4,14.9,13.6,23.5H-468.8z M-486.7,1106.7
		c6.1,0.1,11.1-4.8,11-10.7c-0.1-5.7-5-10.6-10.6-10.7c-5.9-0.1-10.9,4.9-10.9,10.9S-492.7,1106.7-486.7,1106.7z"/>
	<path class="st0" d="M-529.7,1280.5c-1.1,0-2.5-0.4-3.3,0.2c-8.7,5.9-16.8,3.7-25.7-0.2c-10.7-4.7-19.3,0.7-22.7,12.8
		c-3.1,10.9-9.3,16.4-18.8,16.7c-11.5,0.4-20.1-8.5-20.4-20c-0.2-8.1,3.5-13.1,10.1-16.6c6.6-3.6,13.3-3.4,19.8,0.4
		c1.3,0.8,2.6,1.7,4,2.5c10.5,6.1,19.9,2.3,21.5-9.7c1.7-13.1,7.6-20.8,21.3-21.3c1-0.1,2-1,2.8-1.4c2,1.4,3.8,2.9,5.7,4.1
		c9.9,6.4,12.5,17.8,6.4,27.9C-529.7,1277.1-529.5,1279-529.7,1280.5L-529.7,1280.5z M-546.2,1278.8c8,0.1,14.5-6.3,14.6-14.1
		c0.1-7.7-6.6-14.4-14.3-14.4c-7.7,0.1-13.9,6.2-14.1,13.9C-560.2,1272.4-554.2,1278.7-546.2,1278.8z M-586.6,1291.4
		c0.1-7.9-6.2-14.5-13.9-14.8c-7.8-0.3-14.9,6.6-14.9,14.5c0,7.7,6.6,14.4,14.3,14.4C-593.3,1305.5-586.8,1299.2-586.6,1291.4z"/>
	<path class="st0" d="M-646.4,1126.8c0.5-5.3,0.6-10.6,1.7-15.7c1.8-8.6-6.5-18.6-15-16.5c-5.6,1.4-10.7,5-15.5,7.4
		c1,3.7,1.8,6.6,2.5,9.4c1.8,7.3,6.3,10.9,13.6,11.8C-654.8,1123.8-650.6,1125.6-646.4,1126.8L-646.4,1126.8z"/>
	<path class="st0" d="M-506.8,1194c6.1,0,12.3,0.4,18.3-0.3c1.6-0.2,3.2-3.7,4.2-5.9c0.9-2.1,0.9-4.7,1.7-6.9
		c2.1-5.9,8.5-9.1,14.3-7.3c6.3,1.9,9.7,8.1,8.1,14.5c-1.4,5.9-7.6,9.7-13.7,8.5c-2.5-0.5-5-1.1-7.5-1.5c-5.1-0.8-8.3,1.1-9.4,6.4
		c-2.1,9.8-5.6,11.6-14.5,7.7c-0.9-0.4-1.8-0.5-3-0.8C-507.8,1203.6-507.3,1198.8-506.8,1194L-506.8,1194z M-492.2,1203.9
		c0-1-0.1-1.9-0.1-2.9c-2.5-1.5-5.1-4.3-7.4-4.1c-2.1,0.2-5.1,3.5-5.6,5.8c-0.7,3.6,2.1,6.6,6,5.9
		C-496.7,1208.1-494.6,1205.5-492.2,1203.9z"/>
	<path class="st0" d="M-650.6,1005.9c-0.9-1.5,0.5-4.9,1.7-7c0.7-1.3,3.7-1.2,4.5-2.4c1.5-2.4,3.6-5.9,2.8-8c-0.9-2.4-4.6-5-7.2-5
		c-2.3-0.1-5.2,2.9-6.6,5.3c-0.8,1.5,0.4,4.5,1.4,6.5c3.3,6.5,2.6,8-3.9,11c-2.9,1.3-5.4,4.4-7.3,7.1c-1.8,2.7-2.8,5.9-4,8.7
		c7.4,2.1,14.7,8.4,24,2.5C-645.1,1014.8-645.3,1014.9-650.6,1005.9z"/>
	<path class="st0" d="M-523.9,1100.4c-0.9-3.7-2.6-7.1-7-6.5c-4.7,0.6-4.9,4.3-5.4,8.4c-0.4,2.8-3.4,5.9-6,7.6c-2,1.3-5.3,0.8-8,1.1
		c-5.9,0.6-10.2,5-10.6,10.8c-0.3,4.9,3.7,11.3,7.6,12.1c6.6,1.4,12.9-1.2,14.6-6.9c0.9-3,0.5-6.5-0.1-9.7
		c-1.3-7.1,1.2-10.8,8.3-11.7c2.5-0.4,4.8-1.5,7.8-2.4C-523.3,1101.8-523.7,1101.2-523.9,1100.4z"/>
	<path class="st0" d="M-468.8,1101c2.4,2.4,5.3,4.5,7.2,7.2c3.4,4.8,8.6,6.4,13.1,3.4c4.1-2.7,5.2-8.3,2.4-12.4
		c-3-4.4-8.4-4.9-13.4-1.8c-2.9,1.7-6.3,2.5-9.5,3.7L-468.8,1101z"/>
	<path class="st0" d="M-859.1,946.1c1.1-1,2.1-2.9,3.3-3c5.2-0.6,7.5-3.9,9.6-8.2c0.8-1.5,3.3-2.1,5-3.2l0,0
		c-6.7-2.1-13.3-4.2-19.7-6.3c-2.7,7.2-3.6,12.5,1.7,17c0.7,0.6,0.2,2.6,0.2,3.9L-859.1,946.1z"/>
	<path class="st0" d="M-809.6,1008.3c-5.9,0.3-13.4-4.3-16.6,4.7c-2.6,7.1,3.6,9.3,7.5,11.4
		C-809.5,1021.9-810.7,1014.6-809.6,1008.3z"/>
	<path class="st0" d="M-635.9,1042.9c4.9,0.3,7-3.2,8.5-6.8c0.5-1.2-1-4.3-2.3-4.9c-4-1.8-8.4-2.8-13-4.3
		C-642.3,1039.9-641.1,1042.5-635.9,1042.9z"/>
	<path class="st0" d="M-798.7,1239.3c-1.5,3.6-3.2,7.2-4.6,10.9c-2.1,5.4-8.1,8.4-13.4,6.5c-5.8-2.1-8.8-8-6.8-13.7
		c2.1-5.7,8.1-8.4,13.9-6.5c3.7,1.3,7.5,2,11.2,3C-798.4,1239.5-798.6,1239.3-798.7,1239.3z M-805.3,1246.6c-0.1-4.3-3.8-8-8-8
		c-4.4-0.1-8.4,4-8.3,8.4c0.1,4.4,4.3,8.2,8.7,7.9C-808.6,1254.6-805.3,1250.9-805.3,1246.6z"/>
	<path class="st0" d="M-559.2,1148.7c2.5-2.7,2.3-8,3.3-12.2c-8.4,0.1-14.4,1.4-15.3,9.9C-567.5,1147.9-563.5,1153.4-559.2,1148.7z"
		/>
	<path class="st0" d="M-517.2,1208.7c-4.6-0.9-7.7,0.9-8.9,5.5c-1.2,4.1,1.4,6.5,4.7,7.5c4.5,1.3,7.7-0.8,9-5.3c0.6-2,1-4.1,1.4-6.1
		C-513,1209.7-515.1,1209.1-517.2,1208.7z"/>
	<path class="st0" d="M-520.5,1103.3c1.5,5.6,0.9,11,7,11.7c8,0.8,6.8-6.6,10-11.7C-509.5,1103.3-514.8,1103.3-520.5,1103.3z"/>
	<path class="st0" d="M-775.2,1165.2c-1.5-5.6,1.4-13-6.2-16.1c-4.5,1.2-8.7,3-7.5,8.7c1.1,5.1,4.9,5.9,9.6,5.1
		c1.3-0.2,2.9,1.4,4.3,2.2L-775.2,1165.2z"/>
	<path class="st0" d="M-642.5,1255.6c-2.2-5.4-3-11.9-10.6-12.9c-0.6,0.6-1.2,1.1-1.8,1.6c-3.5,2.6-4.8,5.9-2.3,9.7
		c2.3,3.5,5.5,3.8,9.3,2C-646.3,1255.3-644.3,1255.7-642.5,1255.6L-642.5,1255.6z"/>
	<path class="st0" d="M-773.1,1177.2c-1.5,0.1-3.1,0.3-4.6,0.2c-4-0.3-7.2,1.7-7.1,5.3c0,2.6,2.7,5.4,4.7,7.6c1.2,1.3,3.4,1.6,6.9,3
		c0-5.9,0-11.1,0-16.3C-773.2,1177-773.1,1177.2-773.1,1177.2z"/>
	<path class="st0" d="M-637.1,1278.2c4.2,6.7,9.2,1.8,15.3,0.1c-3.4-4.4-6.4-8.3-9.5-12.3C-636.1,1270-640.5,1272.9-637.1,1278.2z"
		/>
	<path class="st0" d="M-749.7,1272.5c2.8,1.6,7.1,0.3,8.1-3.7c2-7.6-4.5-7.5-8.9-9.3C-752.3,1264.1-755.4,1269.2-749.7,1272.5z"/>
	<path class="st0" d="M-800.1,905.9c-0.6-2.2-3.5-4.9-5.8-5.4c-4.1-0.9-5.7,2.8-5.3,11C-803.8,911.7-799,909.5-800.1,905.9z"/>
	<path class="st0" d="M-867.5,913.6c-2.4,0.1-5.6,2.4-6.5,4.6c-1.5,3.6,3,6.5,10.4,6.7C-861.9,917.3-863.2,913.1-867.5,913.6z"/>
	<path class="st0" d="M-859.1,946.4c-1.6,0.6-3.3,1.1-4.9,1.8c-3.6,1.6-4.8,4.7-2.9,7.7c1.2,1.7,5.3,3.4,6.6,2.6
		c1.9-1.2,3-4.5,3.4-7c0.3-1.6-1.5-3.5-2.3-5.3C-859.2,946.2-859,946.3-859.1,946.4z"/>
	<path class="st0" d="M-821.4,1039.1c1.3,1.3,6.2,1.4,7.4,0.1c4.8-5.1-0.3-8.1-3.7-11.8C-820.3,1031.2-826.6,1033.8-821.4,1039.1z"
		/>
	<path class="st0" d="M-534.9,1229.7c-1.1-1.2-5-1.4-6.4-0.4c-5.8,4-1.1,7.8,1,11.8C-533,1236.3-531.5,1233.4-534.9,1229.7z"/>
	<path class="st0" d="M-506.8,1194c-0.6-1.8-0.8-4-1.9-5.6c-1.3-2-3.4-4.9-5.1-4.8c-1.8,0.1-3.5,3.2-5.3,4.9
		c1.8,1.8,3.3,4.1,5.4,5.1C-511.7,1194.5-509.1,1193.9-506.8,1194C-506.8,1194-506.9,1194-506.8,1194z"/>
	<path class="st0" d="M-642.5,1255.6c0.9,0.7,2,1.2,2.7,2c2,2.5,3.8,5.1,5.7,7.7c0.7-0.3,1.5-0.5,2.3-0.8c0.2-2.9,1.7-6.7,0.4-8.3
		c-1.3-1.6-5.3-1-8.2-1.2C-640.6,1254.9-641.5,1255.4-642.5,1255.6L-642.5,1255.6z"/>
	<path class="st0" d="M-529.7,1280.5c0,9.4,0,9.4,8.6,11.5l-0.1,0.1c1.9-7.2-0.1-11.5-8.3-11.1
		C-529.5,1281-529.6,1280.7-529.7,1280.5C-529.7,1280.5-529.6,1280.4-529.7,1280.5z"/>
	<path class="st0" d="M-521.1,1292.1c-0.6,2-1.9,4.1-1.8,6.2c0.2,2,1.8,3.9,2.8,5.8c2.1-1.1,4.8-1.8,5.9-3.5c0.6-1-1.2-3.9-2.5-5.5
		C-517.8,1293.7-519.6,1293.1-521.1,1292.1C-521.1,1292.1-521,1292.1-521.1,1292.1z"/>
	<path class="st0" d="M-775,1165.1c0.7,4,1.3,8.1,1.9,12.1l-0.1-0.2c2.1-3.4,9.9-1.4,8.1-8.1C-766.5,1163.8-771.6,1166-775,1165.1
		C-775.1,1165.2-775,1165.1-775,1165.1z"/>
	<path class="st0" d="M-652.6,1230.5c-1.3-0.9-5.7,0-6.3,1.2c-2.5,5.1,1.8,6.6,5.6,8.4C-651.7,1236.9-648,1233.8-652.6,1230.5z"/>
	<path class="st0" d="M-776.7,1137.2c-1-1.1-5-1.3-6-0.3c-3.9,3.8-0.4,6.5,2.3,9.5C-777.1,1143.7-773.1,1141.5-776.7,1137.2z"/>
	<path class="st0" d="M-614,1033.7c-3.5,0.3-7,0.6-10.5,0.9c-0.2,0.9-0.3,1.8-0.5,2.7c2.3,1.3,4.5,2.6,6.8,3.9c1-2.2,1.9-4.4,3-6.6
		C-615,1034.2-614.4,1034-614,1033.7L-614,1033.7z"/>
	<path class="st0" d="M-757.6,1281.2c0.4,1.2,3.8,2.6,5.1,2.1c4.6-1.9,2.3-5.3,0.9-8.6C-755.4,1275.7-759.2,1276.5-757.6,1281.2z"/>
	<path class="st0" d="M-614,1033.7c1.5-0.5,3.1-0.6,4.3-1.4c1.7-1,3-2.4,4.5-3.6c-1.3-1.4-2.4-3.9-3.9-4.1c-1.2-0.2-3.4,1.8-4.2,3.4
		C-614.1,1029.6-613.8,1031.8-614,1033.7L-614,1033.7z"/>
	<path class="st0" d="M-499.3,1214.4c-0.4,2.5-1.7,5.4-0.9,7.3c0.5,1.2,4.3,1,6.6,1.4c0.3-0.6,0.7-1.2,1-1.8c-1.4-2.3-2.8-4.7-4.2-7
		C-497.7,1214.3-498.6,1214.4-499.3,1214.4z"/>
	<path class="st0" d="M-528.5,1217.7c-2.4,0.6-5.6,0.4-6.9,1.9c-1.1,1.2,0,4.4,0.1,6.7c0.7,0.2,1.3,0.5,2,0.8c2-2.3,4-4.7,6-7
		C-527.7,1219.3-528.1,1218.5-528.5,1217.7z"/>
	<path class="st0" d="M-492.4,1224.9c1.8,1.4,3.5,2.9,5.3,4.3c1-1.5,1.9-2.9,2.9-4.3c-2.1-1-4.1-2.1-6.2-3.1
		C-491,1222.8-491.7,1223.8-492.4,1224.9z"/>
	<path class="st0" d="M-797.6,906.8c2.1,0,4.2,0,6.3,0c-0.3-1.5-0.5-3.1-0.7-4.6c-2.1,0.6-4.1,1.3-6.1,1.9
		C-798,905-797.9,905.9-797.6,906.8z"/>
	<path class="st0" d="M-875.8,915.9c-2-0.7-4-1.4-6-2.1c-0.4,1.4-0.8,2.7-1.2,4.1c2.1,0.4,4.1,0.8,6.2,1.2
		C-876.5,918-876.2,917-875.8,915.9z"/>
	<path class="st0" d="M-741,976.6c0-18.6-14.5-33-33.1-33c-18.5-0.1-33,14.6-32.9,33.2c0.1,18.2,14.6,32.7,32.8,32.7
		C-755.5,1009.6-741,995.2-741,976.6z"/>
	<path class="st0" d="M-763.7,1204.6c-12.2-0.3-22.4,9.6-22.6,21.8c-0.2,12.1,9.9,22.4,22,22.5c11.9,0.2,21.8-9.5,22.1-21.6
		C-741.8,1214.9-751.3,1204.9-763.7,1204.6z"/>
	<path class="st0" d="M-613.2,1153.9c0-8.6-7.2-15.8-15.8-15.8c-8.6-0.1-15.9,7.1-16,15.7c0,8.4,7.3,15.7,15.9,15.7
		C-620.4,1169.6-613.2,1162.5-613.2,1153.9z"/>
	<path class="st0" d="M-601.3,1303.7c7,0.2,13-5.6,13-12.5c0-6.7-5.6-12.4-12.4-12.5c-7.4-0.2-12.7,5-12.7,12.4
		C-613.4,1298-608.1,1303.5-601.3,1303.7z"/>
</g>
</svg>
