<?xml version="1.0" encoding="utf-8"?>
<!-- Generator: Adobe Illustrator 19.1.1, SVG Export Plug-In . SVG Version: 6.00 Build 0)  -->
<svg version="1.1" id="Слой_1" xmlns="http://www.w3.org/2000/svg" xmlns:xlink="http://www.w3.org/1999/xlink" x="0px" y="0px"
	 viewBox="-339 105.1 279.6 350.9" style="enable-background:new -339 105.1 279.6 350.9;" xml:space="preserve">
<style type="text/css">
	.st0{fill:#002469;}
</style>
<g>
	<path class="st0" d="M-339,413.6c1.4,0,2.8,0,4.2,0c0.1-0.2,0.2-0.4,0.2-0.6c-0.9-0.7-1.8-1.4-2.7-2.2c1.9-1.2,3.3-1.3,5.4,0.2
		c2.2,1.6,3.4,1.1,4.2-1.3c2.4,0.7,4.3,0.9,6.7-1.1c3.6-3,8-4.9,12.1-7.7c-4.7,1.7-9.4,3.5-14.7,5.4c1-2.9-0.9-3-2.4-3.2
		c-2.8-0.4-5.6-0.7-8.3-1.3c4.3-1.1,8.5-1.6,12.8,0.5c1.2,0.6,3,0.1,4.4,0.1c-0.9-1.3-1.6-2.9-2.8-3.7c-1.6-1.1-3.6-1.6-5.9-2.5
		c3.1-1.7,5.9-0.7,8.5-0.1c2.4,0.5,4.7,1.4,7.1,1.9c0.9,0.2,2.6-0.1,2.8-0.6c1.8-4.2,6.1-2.2,8.9-4c0.7-0.4,1.3-0.9,1.5-1.9
		c-1.7,0.6-3.4,1.3-5.4,2c0.5-2.9,3.6-4.6,6.2-4.1c7.1-12.9,14.1-25.8,21.4-39c0.9,2.3,2.6,4.8,2.6,7.4c0,5.5,2.7,10.1,4.5,14.9
		c1.4,3.8,3.6,7.4,5.3,10.9c0,0-0.4-0.1-0.8-0.3c0,0.3-0.1,0.6,0,0.9c2.5,9,5,18.1,7.6,27.1c0.9,3,2.6,5.8,3.1,8.8
		c1.4,7.3,2.3,14.6,3.4,21.9c0.4,2.8,0.7,5.7,0.9,8.5c0.2,2.3-0.7,3.3-3.2,2.8c-7.1-1.5-14.2-2.6-21.3-4.3c-8.3-2-16.5-4.5-24.8-6.7
		c-6.2-1.6-12.4-3.1-18.7-4.4c-2.1-0.4-4.4-0.1-6.5-0.4c-3.9-0.5-7.8-1.1-11.5-2.1c-1.1-0.3-1.8-2-2.8-2.9c-0.6-0.5-1.3-0.8-2-1.2
		C-339,425.4-339,419.5-339,413.6z"/>
	<path class="st0" d="M-339,403.8c4.1-0.2,8.1,0.2,12.5,2.9c-4.7,0-8.6,0-12.5,0C-339,405.8-339,404.8-339,403.8z"/>
	<path class="st0" d="M-132.9,173.5c-1.2-0.9-4.1,0.7-3.9-2.3c1.4-0.1,2.7-0.2,4.1-0.3c-0.5-1.5,1.8-2.8,0.2-4.6
		c-1.2-1.3-1.6-3.2-2.4-4.8c-3.2,1.2-7.2-1.9-6.7-5.1c0.2-1.4-2.8-3.8-5-3.7c-0.2-1.5-0.5-3-0.8-4.8c-0.2-0.1-0.6-0.3-1-0.3
		c-4.8-0.6-5.2-1.1-5.1-5.9c0-0.6-0.9-1.1-1.4-1.7c-1,2.1-1.9,3.8-2.7,5.5c-0.4-0.1-0.7-0.1-1.1-0.2c1.5-3,0-4.6-2.1-6.2
		c-0.6-0.5-0.7-1.6-1.1-2.5c-0.5,0.7-1.1,1.6-1.9,2.7c-0.4-0.7-0.7-1.3-1-1.8c-0.8,0.4-1.6,0.9-2.4,1.3c-0.1-0.2-0.2-0.4-0.4-0.5
		c0.5-0.4,1.1-0.7,2.1-1.5c-9-2.1-17.5-4.7-26.6-4.9c0.6,1.3,1,2.4,1.7,4c0.1-1.3,0.1-1.8,0.1-2.7c0.6,0.8,1.1,1.4,1.3,1.6
		c1.5-0.1,2.7-0.5,3.8-0.3c2.9,0.4,5.8,1.4,8.7,1.2c2.4-0.1,2.7,1.9,4,2.8c1.1,0.7,1.6,1.4,3.1,0.6c1.7-1,4.8,1,5.1,3.2
		c-1.1-0.4-2.1-0.8-3.3-1.2c0.4,0.8,0.8,1.6,1.2,2.4c-0.1,0.1-0.2,0.2-0.3,0.3c-0.5-0.5-1-0.9-1.4-1.4c0,0.2-0.1,0.5-0.1,0.7
		c-1.9-0.2-3.8-0.3-5.7-0.5c0,0.1-0.1,0.3-0.1,0.4c0.9,0.4,1.7,0.8,2.4,1.2c-1.8,1.2-3.4,2.2-5.1,3.3c-0.1-0.2-0.6-1-1.2-1.9
		c-0.3,0.2-0.7,0.5-1,0.7c0.9,2.4,1.9,4.9,2.8,7.3c-0.1,0.1-0.3,0.2-0.4,0.3c-0.5-0.8-1.1-1.6-1.8-2.5c-0.5,0.2-1.2,0.2-1.7,0.6
		c-3,2-6.1,3.9-8.9,6.2c-1.2,1-1.7,2.7-2.5,3.8c-0.5-0.7-1.1-2.2-1.6-2.1c-1.3,0.1-2.6,0.9-4.4,1.6c-0.6-0.4-2-1.3-3.3-2.2
		c-0.1,0.1-0.2,0.2-0.3,0.4c0.8,1.1,1.6,2.1,2.4,3.2c-0.2,0.2-0.3,0.5-0.5,0.7c-2-1-3.9-2-6.2-3.2c0.2,1.2,0.3,2.1,0.5,3
		c-1.2-1.8-2.5-2.3-4.8-1.4c-1.4,0.5-3.5-0.5-5.2-0.9c-3-0.6-5.5,0.5-7.9,2.4c-0.7-0.5-1.4-1-2.4-1.7c1-0.4,1.7-0.8,3-1.3
		c-1.8-0.4-3-0.7-4.5-1.1c0.4,0.6,0.6,1.1,1.1,1.8c-1.3-0.5-2.4-0.9-3.6-1.3c-0.1,0.4-0.1,0.8-0.3,2c-3.5-1.4-6.8-2.7-10.2-4
		c0-0.4,0-0.8-0.1-1.2c-0.2,0.5-0.4,1-0.6,1.5c-0.2-0.1-0.4-0.2-0.6-0.2c-0.1-1-0.2-2.1-0.3-3.3c-0.8-0.1-1.7-0.2-2.6-0.3
		c0.9-1,1.8-1.9,2.4-2.5c-0.7-1-1.3-2.1-2.1-3.4c0.8-0.6,1.4-1.1,2.8-2.1c-2.1-0.7-3.6-1.2-5-1.6c1.7-4,1.9-4.2,3.1-4.3
		c-0.9-2.4-1.7-4.9-2.9-7.3c-1.5-3.1-5.9-5.2-9.1-4.5c-2.5,0.5-5.1,1.2-7.8,1.2c2.8-0.7,5.6-1.6,8.4-1.9c3.2-0.3,6.2,0.9,9,2.5
		c1.4,0.8,3.4,0.7,5,1.1c0.8,0.2,1.5,1,2.3,1.3c0.9,0.4,1.8,0.6,3,0.9c0,0-0.3,0.6-0.5,1.2c3.3,2.2,8.3-0.6,11.2,4.3
		c-0.1-4.7-5.3-3.6-6.2-7.3c2,1.1,3.8,2,5-0.7c-0.1,0.8-0.3,1.5-0.5,3c1.4-1.1,2.3-1.8,3.3-2.6c-5.7-4-5.7-4-4.3-4.9
		c-1-0.5-1.8-0.9-3.1-1.6c1.5-0.6,2.6-1,3.5-1.3c-0.4-1.6-0.8-3-1.4-5.2c3,1,5.3,1.7,7.7,2.5c0-0.2,0.2-1.1,0.4-2.1
		c0.2,0,0.4-0.1,0.5-0.1c0.2,1.1,0.3,2.1,0.5,2.9c0.4-1,0.9-2.2,1.4-3.4c0.2,0,0.5,0.1,0.7,0.1c0.3,1.5,0.7,3.1,1,4.6
		c-0.2,0-0.3,0-0.5,0c1.2,2.8,2.3,5.7,3.5,8.5c0.1,0,0.3-0.1,0.4-0.1c-0.4-1.5-0.9-3-1.3-4.5c-0.6-2.2,0.2-2.8,2.5-2.8
		c0.8,0,1.7-1.2,2.8-2c0,0.8-0.1,1.7,0,2.6c0.1,0.8,0.3,1.6,0.8,2.3c-0.6-2.7,1.8-5,0.8-7.9c-0.3-0.8,2.1-2.6,3.3-3.9
		c0.3,0.2,0.7,0.5,1,0.7c-0.9,1.6-1.8,3.1-2.7,4.6c2.1,1,3.5-0.5,4.6-4.9c0.7,0,1.3,0,2,0s1.3-0.1,2.2-0.1c0.1,0.9,0.1,1.7,0.2,2.4
		c1.5,0.5,2,0.2,3.1-1c1.4-1.5,4.1,1.1,3.9,3.9c0.5,0,1-0.1,1.1-0.1c0.6,1.6,1.1,3.1,1.6,4.6c0.3,0,0.5,0,0.8,0
		c0.3-1.2,0.6-2.5,1-4.1c0.5,0.7,0.7,1.1,1.1,1.7c0.3-0.5,0.3-0.9,0.6-1.2c0.8-0.9,1.7-1.7,2.6-2.5c0.2,1.9,4.6-0.2,3.3,3.7
		c-0.6,1.9,2,2.5,3.6,2.7c1.3,0.1,3.2-1,3.3,1.2c0.1,1.1-1.2,2.2-2,3.4c1.3,0.5,3,1.2,4.7,1.9c0.2,0.3,0.3,0.5,0.5,0.8
		c-0.6,0.2-1.1,0.5-1.8,0.8c0.5,0.2,0.8,0.5,1.2,0.6c1.2,0.1,2.5,0.4,3.7,0.3c1.4-0.1,3.1-0.3,4.1-1.1c0.6-0.5,0-2.3-0.1-3.8
		c0.3-0.1,1-0.5,1.6-0.7c-0.7-0.7-1.4-1.3-2-1.9l0,0c0.6-0.2,1.3-0.4,2.2-0.8c0.8,2,1.6,4,2.2,5.7c0.9,0,2.4-0.3,2.6,0.1
		c0.9,1.6,1.4,3.4,2.1,5.3c0.7-0.6,1.6-1.6,2.8-2.7c0.4,0.2,1,0.5,1.8,0.8c0.3-0.5,0.6-1,0.9-1.7c0.8,0.3,1.5,0.7,2.3,1
		c0-0.2,0-0.4,0-0.6c0.8-0.2,1.6-0.4,2.4-0.5c1.2-0.1,2.5-0.2,3.7-0.3l-0.1,0.1c1.4-0.2,2.8-0.5,4.7-0.8c-2.4-2.5-5.2-2.4-7.6-3
		c1.8-1.4,3.6-2.9,5.4-4.4c0.1,0.1,0.2,0.1,0.3,0.2c-0.5,0.7-1,1.5-1.5,2.2c0.1,0.3,0.3,0.5,0.4,0.8c1.3-0.7,2.6-1.3,4.1-2.1
		c0,0.4,0.1,1,0.1,1.8c2.2-0.4,4.5-0.8,6.7-1.2c0,0.2,0.1,0.4,0.1,0.7c-2.7,1.8-5.5,3.6-8,5.6c-0.5,0.4-0.1,1.9-0.1,3.3
		c1.9-1.5,3.4-2.6,4.8-3.7c0.2,0.2,0.4,0.5,0.6,0.7c-2.6,2.6-5.2,5.3-7.9,8.1c0.2,2.8,1.9,5.6,5.1,7.6c-0.2,0.2-0.4,0.3-0.6,0.5
		c0.9-0.2,1.8-0.4,2.9-0.7c0.2,0.6,0.4,1.2,0.7,1.9c0.8-0.2,1.6-0.5,2.3-0.7c0.1,0.1,0.1,0.2,0.2,0.3c-0.5,0.4-1.1,0.8-2.1,1.5
		c2.6,0,4.8,0,7.1,0c0,0.2,0.1,0.4,0.1,0.7c-1.2,0.6-2.4,1.1-3.6,1.7c0.1,0.3,0.2,0.5,0.3,0.8c1.3-0.4,2.6-0.8,4-1.3
		c0.2,1.7-1.4,4.1-3.1,5.2c-0.7,0.5-1.2,1.4-1.8,2.1c0.8,0.3,1.5,0.7,2.2,1.1s1.6,0.8,1.9,1.4c1.2,2.3,2.8,3.7,5.4,3.9
		c0.5,0.1,0.9,0.6,1,0.6c0,1.4,0,2.5,0,2.8c2.2,0.2,3.6,0.4,5,0.5c1.5,0.1,3.1,0,4.7,0c-1.9-1.6-3.7-3.2-5.5-4.7
		c0.1-0.2,0.3-0.5,0.4-0.7c0.8,0.4,2.1,0.5,2.4,1.1c1.6,2.8,3.9,2.7,6.4,1.8c0.2-0.1,0.5,0,1,0.6c-1,0.4-2.1,0.7-3.6,1.3
		c1.7,0,2.9,0,4.1,0c0.2,0.2,0.3,0.4,0.5,0.6c-0.7,0.2-1.4,0.5-2.2,0.7c0.1,0.2,0.3,0.4,0.4,0.6c2.1-0.5,4.1-1.1,6.2-1.6
		c-1.5-1.2-3.3-2.5-5.1-3.9c2.9-0.4,7.9,2.1,10.3,5.3c-0.6-0.1-0.9-0.2-1.2-0.2c-0.3-0.1-0.6-0.1-1-0.1c0,0.2-0.1,0.5-0.1,0.7
		c1.2,0.3,2.4,0.4,3.5,0.9c1.2,0.5,2.6,0.9,3.5,1.8c4.8,4.6,8.4,10.1,11.1,16.1c2,4.5,4.6,8.9,4.1,14.1c-0.2,2.2-0.6,4.4-0.9,6.5
		c-0.6-2.4-1.3-4.7-1.9-7c-0.6-2.4-1.1-4.9-2.2-7.2c-1.1,4.6-2.2,9.1-3.2,13.1c-0.7,1.2-1.6,2-1.4,2.7c0.5,2.5,1.3,4.9,2.1,8
		c1.2-1.3,2.1-2.2,3-3.1c0.1,0.1,0.3,0.2,0.4,0.3c-1.2,1.8-2.5,3.6-3.7,5.2c-3-6.8-5.8-13-9-20.2c-0.3-1.4-0.8-4.1-1.4-6.8
		c-0.2,0-0.4,0.1-0.6,0.1c-0.3,1.1-0.6,2.2-0.8,3.4c-0.2,0-0.5-0.1-0.7-0.1c0.2-0.9,0.1-1.8,0.5-2.6c1.9-4.4,0-7.8-2.7-11
		c-0.6-0.7-2-0.6-3.3-0.9c1.8-3.7-2.1-5.3-3.6-7.8c-0.2-0.4-1.8-0.5-1.9-0.4c-0.6,1.2-1,2.5-1.3,3.8c-0.1,0.4,0.5,1,0.8,1.5
		c-2.4,2.3-1.8,5.5,1.3,8.3c0.9,0.8,1.7,2,2.2,3.1c2.5,5.8,3.5,11.9,4.5,18.1c0.5,3.6,2.8,6.9,4.3,10.4c0.6,1.4,0.9,3,1.9,4.1
		c2.2,2.5,4.7,4.8,7,7.1c0,0-0.5,0.1-1.8,0.2c1.7,1.8,3.1,3.2,4.2,4.4c-1.7,0.8-4,1.8-6.5,2.9c1.3,1.3,2.6,2.4,4.2,4
		c-1.4,0.2-2.7,0.4-4,0.6c0.7,0.4,1.5,0.8,3.1,1.7c-2.3-0.1-4.3-1.2-4.9,1.7c-0.1,0-0.7-0.1-1.4-0.3c-0.1,0.2-0.1,0.3-0.2,0.5
		c1.3,0.6,2.7,1.2,4.1,1.8c-0.2,0.4-0.5,0.9-0.8,1.5c0.7,0.5,1.4,1.1,2.9,2.1c-2,0.2-3.2,0.3-4.4,0.5c0,0.1-0.1,0.3-0.1,0.4
		c2.1,0.5,4.3,1,6.8,1.5c-0.6,0.5-1,0.7-1.4,1c1.5,0.6,3,1.2,5,2c-2.8,1.1-5,2-7.5,2.9c0.7,1.2,1.6,2.8,2.5,4.3
		c-0.2,0.1-0.3,0.2-0.5,0.3c2.3,1.4,4.6,2.7,6.8,4.1c-0.2,0.2-0.4,0.3-0.3,0.3c3.8,0,7.8,0,11.6,0c-1.4,2.1-1.4,2.1-4.2,2.1
		c-0.4,0-0.7,0.2-1.1,0.3c-1.5,0.6-3,1.1-4.6,1.3c-2.2,2.3-7.6,2.2-9.7-0.4c-2,0.6-4,1.2-6.2,1.9c0.7,0.4,1.2,0.6,1.9,1
		c-1.1,0.3-1.9,0.5-3.1,0.9c0.7,0.6,1.1,1,1.6,1.5c-0.4,0.2-0.8,0.3-1.3,0.5c0.3,0.4,0.6,0.7,1,1.2c-0.7,0.2-1.3,0.3-2,0.5
		c0.9,1.1,1.8,2.1,2.7,3.1c-0.1,0.2-0.3,0.3-0.4,0.5c-0.8-0.3-1.5-0.5-2.4-0.8c-0.2,2.2,4.5,1.5,2.3,4.6c-0.9,0-1.9,0-3.1,0
		c-0.4,2.2-0.8,4.6-1.2,6.9c-0.1,0-0.3,0.1-0.4,0.1c-0.2-1.4-0.5-2.8-0.7-4.5c-0.6,0.4-1.2,0.7-1.9,1.1c-0.4-1-0.7-2-1.1-2.9
		c-0.1-0.2-0.1-0.4-0.2-0.5c-1.6-3.1-5-1.3-7.4-2.5c-0.2-0.1-1.8,2.5-2.6,3.9c-0.6,1-0.9,2.2-1.5,3.7c-2.2-2-1.2-3.6-0.5-5.1
		c1.4-2.8,1.8-5.7,0.5-8.5c-0.4-0.8-1.3-1.8-2.1-1.9c-0.5-0.1-1.4,1.1-1.9,1.9s-0.9,1.7-1.5,2.9c-2.2-2.4-4.5-4.5-5-7.9
		c-0.1-0.6,0.1-1.2-0.1-1.7c-0.3-0.8-0.9-1.6-1.4-2.4c-0.7,0.5-1.7,0.9-2.1,1.6c-1.3,2.5-2.4,5.1-3.6,7.9c-1.8-0.5-2-2.3-1.4-3.7
		c1-2.4,2.1-4.9,3.9-6.8c2.5-2.7,3-3.9,1.7-7.6c-0.3-0.9,0.4-2.1,0.7-3.1c0.3-0.8,1.1-1.7,1-2.5c-0.7-6.8-1.2-13.8-2.6-20.5
		c-0.5-2.4-0.7-6.2-4.6-6.9c-0.1,0-0.1-0.5-0.3-0.9c0.6,0.1,1.1,0.2,1.6,0.3c0-0.3,0-0.6-0.1-0.6c-2.1-1.2-4.5-2.1-5.1-5
		c-0.1-0.5-2.4-0.6-4.2-1c1.1-0.4,1.8-0.7,2.5-1c-0.4-1.5-4.9-1.5-1.2-4.1c-0.6-0.7-1.3-1.4-2.2-2.4c0.9,0,1.6,0,2.2,0
		c0-1.4,0-2.8,0-4.2c1.7-0.2,3.3-0.3,4.8-0.4c-0.1-0.9-0.1-1.9-0.2-2.8c0.2-0.1,0.4-0.1,0.6-0.2c-0.6-0.8-1.3-1.6-2.2-2.7
		c0.9,0.1,1.3,0.1,1.8,0.1c-0.2-0.4-0.2-1-0.5-1.3c-0.5-0.7-1.1-1.3-1.7-1.9c1-0.3,1.8-0.3,2-0.6c0.4-0.7,0.6-1.6,0.6-2.4
		c0.1-2.6,0.2-5.2,0.2-7.7c0.3,0,0.6,0,0.9,0c-0.9-0.5-1.7-0.9-2.8-1.5c3-1,4.2-2.4,2.9-5.6c-0.8-2-0.4-4.5-0.9-6.7
		c-0.2-1.1-1.2-2.1-1.9-3.1c-1.3,0.4-2.8,0.9-4.3,1.3c0.3-1.8,0.6-3.3,0.9-4.7c0.5,0.8,1,1.6,2,3c0.3-1.8,0.6-3.1,0.8-4.4
		C-131,172.7-131.9,173.1-132.9,173.5z M-144.6,136.3c2.1,3.1,4.3,6.1,6.4,9.2c0.3-0.2,0.6-0.4,0.9-0.6
		C-138.4,140.9-141.5,138.6-144.6,136.3z M-79,206.2c2.4-6.2,2.4-8,0-11.6C-79,198.7-79,202.4-79,206.2z M-90.5,185.2
		c1.2,1.8,2.3,3.5,3.4,5.1c0.2-0.1,0.3-0.2,0.5-0.3c-0.4-0.9-0.9-1.9-1.2-2.6c0.6-0.2,1-0.3,1.4-0.4c-0.5-1.2-1-2.3-1.5-3.5
		C-89,184.2-89.6,184.6-90.5,185.2z M-132.4,152.5c-1.4-2.7-2.5-4.7-3.8-7.4C-136.9,148.4-135.9,150.1-132.4,152.5z M-75.8,202.6
		c0.4,0,0.8-0.1,1.3-0.1c-0.3-2.2-0.5-4.3-0.8-6.5c-0.3,0-0.7,0.1-1,0.1C-76.1,198.2-75.9,200.4-75.8,202.6z M-82.9,195.5
		c-0.2,0.1-0.4,0.1-0.6,0.2c-0.3-0.5-0.7-1-1-1.5c-0.2,0.1-0.4,0.3-0.5,0.4c0.8,1,1.7,2,2.5,2.9c0.3-0.2,0.7-0.4,1-0.6
		c-0.7-1.8-1.4-3.6-2.2-5.5c-0.2,0.1-0.3,0.1-0.5,0.2C-83.8,193-83.3,194.3-82.9,195.5z M-92.4,180.2c0.3-0.4,0.6-0.8,0.9-1.2
		c-1.8-1.2-3.6-2.4-5.3-3.6c-0.2,0.2-0.3,0.5-0.5,0.7C-95.6,177.5-94,178.8-92.4,180.2z"/>
	<path class="st0" d="M-280.4,300.6c-1.1,0.7-2.5,1.6-4.4,2.8c0.3-1.3,0.5-2,0.7-2.9c-1.8-0.8-3.6-1.6-5.4-2.5
		c-0.6-0.3-0.9-1.1-1.3-1.8c-2.2-3.8-4.3-7.6-6.5-11.4c-0.2-0.4-0.6-0.7-1.3-1.5c-1.1,2.3-2.1,4.4-3.1,6.4c-0.1,0.2,0.1,0.6-0.1,0.8
		c-2,2.4-2,2.4,1.3,3.5c-1.5,0-2.5,0-4.2,0c0.6-2,1.3-3.6,1.6-5.2c0.7-2.9,1.2-5.8,1.4-8.8c-0.3,3.1-2.6,4.3-5,5
		c-2.4,0.7-5.1,1.2-7.6,1c-1.6-0.1-2.9-0.7-4.4,0.6c-1.7,1.5-5.1,1-7.6-1c0.9-0.1,1.6-0.2,2.3-0.4c0.6-0.1,1.3-0.3,1.3-0.3
		c0.8-1.9,1.4-3.5,2-5c0.1,0,0.3,0,0.4,0.1c0,0.7,0,1.4,0,3.2c2-1.5,3.5-3.4,5.1-3.6c2.7-0.3,3.7-1.9,5.4-4.5
		c-1.8-0.2-3.1-0.6-4.4-0.4c-1.5,0.2-2.8,0.9-4.3,1.4c-0.2-0.2-0.5-0.4-0.7-0.5c0.5-0.8,0.7-1.9,1.4-2.5c2.9-2.8,6.2-5.2,8.9-8.2
		c1.7-1.8,2.8-4.2,4.4-6.9c-3.1,1.4-4.9,4.6-9.1,3.2c3-2.3,5.3-4,7.6-5.8c0.3-1.2,0.8-2.8,1-4.4c0.1-1.2-0.2-2.4-0.5-3.6
		c-0.7-3-1.1-6.1-2.3-8.9c-2.8-6.6,0.3-13.1-0.4-19.6c-0.1-0.5-0.4-1-0.6-1.8c-1.2,0.5-2.2,1-3.2,1.4c-0.1-0.8-0.2-1.8-0.4-3.8
		c-1.6,2.3-2.8,3.9-4.2,5.7c0.3-4.6,5.9-6.4,5.3-11.9c-1.2,0.9-1.9,1.4-2.5,1.8c-0.4-0.8-0.8-1.6-1.2-2.4c2.9-2.9,4-7.2,2.1-9.3
		c0.8-0.5,1.7-0.9,2.3-1.6c0.5-0.5,0.6-1.4,0.8-2.2c0.2-0.6,0.4-1.2,0.6-1.8c0.5-1.3,1.1-2.6,1.9-4.5c0,1.4,0,2.2,0,3.1
		c2.2-4.7,7.3-7.2,8.4-12.6c0.3-1.4,1.8-2.6,2.5-4c1.3-2.9,2.6-5.8,3.5-8.8c0.8-2.6,2.3-3.5,5.1-3c-0.4,0.7-0.7,1.3-1,1.9
		c2.9,1.2,1.7-1.9,3-2.5c0.7,0.6,1.4,1.2,1.5,1.3c2.1-1,3.5-1.8,5-2.3c0.9-0.3,2.2-0.5,2.5,1.3c0.1,0.4,1.8,0.6,2.8,0.8
		c0-0.4,0-0.8,0-1.4c0.8-0.4,2-1,3.4-1.7c-2.1,3.9-3.3,8-6.2,11.4c-2.8,3.4-2.9,8.4-6.3,11.7c-0.6,4.4-1.2,9.1-2,13.8
		c0,0.3-1,0.4-1.1,0.4c0.2,0.9,0.5,1.7,0.6,2.5c0.6,3.5-0.6,7.3,2.2,10.5c1.4,1.6-0.2,7.4-2,9c0-0.6,0-1.1,0-1.5
		c-0.2,0-0.3-0.1-0.5-0.1c-0.3,0.8-0.6,1.7-1.2,3c1.3-0.4,1.9-0.7,2.5-0.9c1.4,1.5,2.2,2.9-0.1,4.1c2.4,3.2,0.7,9.3-2.8,10.1
		c0.7,0.1,1.3,0.2,1.8,0.2c0.3,6.8,0.7,13.5,0.9,20.2c0.1,3.5-0.4,7-0.3,10.5c0.2,5.9,0.6,11.7,1.3,17.6
		C-282.6,288.9-281.4,294.6-280.4,300.6z"/>
	<path class="st0" d="M-169.5,383.7c-2.2,3.8-2.2,3.8,1.2,4.5c-2.1,0.6-3.8,1.1-6.1,1.8c0.6-1.1,0.8-1.6,1.1-2
		c-0.2-0.1-0.5-0.3-0.7-0.4c-0.6,1.1-1.3,2.1-1.9,3.1c1.7,0.7,3.3,1.7,4.9,1.9c1,0.1,2.1-1,3.2-1.6c1.5,2,0.4,3.3-1.6,3.7
		c-3.1,0.6-3.2,3.2-4,5.2c-0.2,0.6,1.5,1.9,2.4,2.8c0.2-0.2,0.4-0.3,0.7-0.5c-0.6,1.4-1.3,2.8-1.9,4.1c0.9,0.6,1.6,1.1,2.4,1.6
		c-0.1,0.2-0.2,0.3-0.3,0.5c-2.6-0.8-5.3-1.6-8.4-2.5c0.3,1.1,0.5,1.9,0.7,2.7c-1.3,0.3-2.5,0.6-3.9,0.9c-0.6,1.7-1.1,4-2.1,6
		c-2,3.9-5.7,5.2-9.8,5.9c-2.4,0.4-4.6,1.4-6.8,2.1c-0.1,0.5-0.3,1.1-0.3,1.5c-2-0.1-3.8-0.2-6-0.4c0.5-0.9,0.8-1.3,1.1-1.9
		c-0.3,0-0.5,0-0.8,0.1c-0.5,0.1-1,0.1-1.5,0.2c-0.1-3.6-3.1-2.1-4.9-2.8c-0.6-0.3-1-1-1.6-1.4c-0.4-0.2-1-0.1-1.5-0.1
		c0.1,0.3,0.3,0.7,0.4,1c-0.2,0.2-0.4,0.3-0.5,0.5c-0.7-0.8-1.5-1.6-2.4-2.6c-0.2,0.1-1,0.4-1.8,0.6c-0.2-0.8-0.3-1.6-0.6-2.9
		c-0.8,1.1-1.2,1.7-1.6,2.2c-0.8-1.4-1.5-2.5-2.1-3.7c-0.3,0-0.6,0-0.9,0c-0.2,2.8-0.3,5.6-0.5,8.4c-0.3,0-1.2-0.2-2.2-0.3
		c-0.1,0.2-0.1,0.4-0.2,0.6c1.2,0.5,2.4,1.1,3.9,1.7c-2.6,4-0.6,6.9,3,9.4c-0.3,0.1-0.7,0.3-1,0.4c-0.5-0.2-0.9-0.3-2.2-0.8
		c1.5,1.8,2.5,3,3.5,4.2c-0.1,0.2-0.2,0.3-0.3,0.5c-0.5-0.2-1.2-0.2-1.5-0.5c-5-6.6-10.1-13.2-14.9-19.9c-4.9-7-9.3-14.3-14.3-21.2
		c-2.5-3.5-5.8-6.5-8.7-9.8c-0.3-0.4-0.6-0.9-0.4-1.8c1.5,1.6,3,3.1,4.4,4.7c1.1,1.2,1.8,3.1,4,1.3c0.4-0.3,1.5,0.3,2.4,0.5
		c0.1-0.4,0.3-0.8,0.4-1.2c1.6,1.4,3.2,2.7,4.9,4.1c0.2-0.2-0.1,0.1-0.4,0.4c0.9,0.6,1.8,1.3,2.8,1.9c0.2-0.3,0.4-0.6,0.7-0.9
		c-1.7-4-4.6-6.5-9.2-7.1c-0.1,0.4-0.3,0.9-0.3,1.2c-3.9-5.4-7.9-10.6-11.5-16.1c-1.6-2.4-2.3-5.3-3.5-7.9c-0.5-1.2-1.2-2.3-1.9-3.6
		c4.5-2.2,0.3-5.5,0.9-8.4c2.1,3.1,4.1,5.8,5.8,8.8c1.1,1.9,1.7,1.7,2.8,0c0.8-1.1,2.2-1.8,3-2.4c1.1,0.7,1.8,1.2,2.4,1.6
		c0.1-0.2,0.3-0.4,0.4-0.6c-0.4-0.4-0.8-0.9-1.2-1.3c2.3-1.2,2.7,0.5,2.8,1.7c0.2,1.9,0.1,3.9,0.1,6.5c1.1-0.8,1.6-1.1,1.6-1.2
		c1.3,0.5,2.4,0.9,4.1,1.5c0.8,2.2,1.9,5.1,3.1,8.2c1.8,0,3.6-0.1,2.7,3.1c-0.2,1,0.2,5.2,4.1,4.4c0.3-0.1,0.7,0.7,1.2,1
		c2.6,1.9,5.2,3.7,7.9,5.6c0.2-0.3,0.4-0.5,0.6-0.8c-0.6-0.6-1.2-1.3-1.9-2c0.9-0.8,1.7-1.6,2.7-2.5c-0.4-0.1-0.8-0.1-1.2-0.2
		c1.3-1.7,2-1.6,3.2,0.6c1.7,0.6,2.7-5.7,5.4-0.5c0.1-0.7,0.2-1.3,0.3-2.5c1.1,1.2,1.9,2.2,2.7,3c-0.8,0.7-1.5,1.4-2.2,2.1
		c0.2,0.2,0.3,0.4,0.5,0.6c0.5-0.3,0.9-0.6,1.7-1c0.1,1,0.1,1.9,0.2,2.6c2.3,0.7,4.5,1.3,6.3,1.8c2,0.3,3.5,0.6,5.1,0.7
		c2.2,0,4.5-0.2,6.7-0.2c1.7,0,3.5,0.7,5,0.1c4.9-1.8,10.6-1.5,14.6-5.9c0.8-0.9,3.5-0.6,3.8-1.4
		C-172.5,383.1-170.6,384.8-169.5,383.7z"/>
	<path class="st0" d="M-100.1,411.2c1.9,0.7,3.8,1.3,5.8,2c0.1-0.1,0.2-0.2,0.3-0.3c-2.7-2.7-5.4-5.4-8.1-8.2
		c0.3-0.4,0.5-0.7,0.8-1.1c2.1,1.2,4.2,2.3,6.1,3.7c3.7,2.6,7.3,5.4,11,7.9c1.1,0.7,2.7,0.6,4.6,1.1c-2.6-4.8-6.9-6.7-10.3-9.5
		c-3.4-2.7-7.1-5.1-10.4-8.1c7.7,1.2,15.5,1.7,22.1,6.4c2.2-2.6,4.8-1.1,6.4,0c2.8,2,6.4,3.1,7.9,6.5c0.7,1.6,0.6,3.5,0.9,5.3
		c0.2,1.7,0.7,3.4,0.6,5c-0.1,1.4-0.7,3-1.7,3.8c-0.5,0.4-2.5-0.5-3.4-1.2c-3.1-2.4-6-5-9.1-7.5c-0.5-0.4-1.5-0.4-2.2-0.5
		c-0.3,0.5-0.7,0.9-1,1.4c0.9,0.5,1.9,0.8,2.7,1.4c2.9,2,5.7,4,8.5,6.1c3.2,2.4,3.5,3.9,1.1,7c-1.5,2-2.8,4.5-4.7,6
		c-2.6,2-5.8,3.4-8.8,4.7c-0.5,0.2-2.1-0.9-2.6-1.7c-2.6-4.1-5.9-8.1-7.1-12.6c-1.4-5.1-4.9-8.2-7.6-12.1c-1-1.4-1.6-3-2.3-4.5
		C-100.4,411.8-100.3,411.5-100.1,411.2z"/>
	<path class="st0" d="M-226.7,264.2c-0.5,0.1-0.9,0.1-1.4,0.2c-0.3-3.5-2.8-1.7-4.6-2c-2-0.3-3.7-0.2-5.1-2.8
		c-1.1-1.9-4.7-2.5-7.6-3.9c-0.3,3.6-1,6.6-4,7.4c-3.4,0.8-6.9,0.5-8.1-3c-3.8,2.1-7.5,4-11.1,5.9c-0.1-0.2-0.2-0.3-0.3-0.5
		c1.5-1.3,3-2.6,4.6-3.8c-0.1-0.3-0.3-0.7-0.4-1c-1.1,0.4-2.1,0.7-3.2,1.1c-1.1,0.4-2.2,1-3.3,1.1c-0.9,0-2.3-0.5-2.5-1.1
		c-0.3-0.9,0.3-2.1,0.4-3.2c0.1-1.2,0.2-2.5,0-3.6c-0.4-1.8-1.4-3.5,0.5-5.3c0.6-0.6,0.2-2.5,0-3.7c-0.6-2.7,1.8-3.6,3-5
		c1.5-1.8,3.8-2.9,5.8-4.3c-0.1-0.3-0.3-0.6-0.4-1c-1.2,0.2-2.3,0.4-3.4,0.6c0.1-0.7,0.1-1.6,0.2-2.6c5.1-2.2,6.9-1.6,8.5,2.9
		c1.4-0.2,3,0,4.1-0.7c1.8-1,2.4,0.6,3.5,1c1.3,0.5,2.7,1.2,4.1,1.1c5-0.1,9.8,0.5,13.7,4c1.9,1.7,3.2,1.8,4.4-0.6
		c0.2-0.4,0.8-0.6,1.5-1.1c0.1,1.1,0.2,1.9,0.2,2.9c1.5-0.4,3.9-2.4,2.9,1.7c-0.2,0.9,1.5,2.2,2,3c-0.1,2-0.4,3.9-0.2,5.8
		c0.4,5.4,0.5,10.6-4.5,14.3c-1.1,0.8-1.9,2.2-2.8,3.3c-0.4-0.3-0.7-0.5-1.1-0.8c1-1.5,2-3,3.1-4.5
		C-227.8,265.5-227.3,264.8-226.7,264.2c0.4-0.8,1.4-2.2,1.3-2.3c-1.1-1-2.4-1.9-3.7-2.8c-0.2,0.3-0.4,0.7-0.6,1
		c0.8,0.5,1.8,0.8,2.4,1.5C-226.8,262.2-226.9,263.3-226.7,264.2z M-265.9,253.9c2.2-0.7,4.3-1.3,6.5-1.9c1.3-0.4,3-1.3,4-0.9
		c3.1,1.3,5.5-0.1,8.1-1.6c-4.2-0.6-6.9-5.5-11.6-4.2c-0.3-0.9-0.7-1.9-1.3-3.2c-0.8,1.1-1.1,1.7-1.5,2.2c-1.1-1-2-1.9-2.9-2.7
		c0.8,1.7,0.6,4.2-0.8,4.8c-4.1,1.7-5.8,5.1-5,9.5c0.2,0.8-0.3,1.7-0.4,2.3c1,0.4,2,0.9,3.5,1.6c-2-2.3,0.4-1.6,0.9-2.1
		c-0.6-0.5-1.1-1-1.6-1.5c1-0.2,1.9-0.4,3.3-0.7C-265.2,254.8-265.6,254.2-265.9,253.9z M-248,253.1c0,0.3-0.1,0.5-0.1,0.8
		c2.6,0.5,5.2,1,8.1,1.5C-242.2,251.3-245.6,254.7-248,253.1z M-243.9,248.5c-0.1,0.3-0.1,0.6-0.2,0.8c2.5,0.2,4.9,0.4,7.4,0.6
		c0-0.4,0.1-0.7,0.1-1.1C-239,248.8-241.5,248.6-243.9,248.5z"/>
	<path class="st0" d="M-192,260.9c0.6-0.8,1.1-1.6,1.9-2.8c-3,0.7-5.8,1.3-9.1,2c-0.1-5.3-2.2-8.9-5.6-11.9c0.8,0.3,1.5,0.9,2.3,0.9
		c1.2,0,2.6,0,3.5-0.7c0.4-0.3,0.2-2.2-0.3-3c-1-1.8-1.7-3.5-0.2-6.4c0.4,0.9,0.6,1.6,1,2c4.4,3.3,4.4,3.3,10.2,0.8
		c0.7-0.3,1.6-0.4,2.4-0.4c3.9-0.1,7.7-0.2,11.6-0.2c0.5,0,1.1,0.5,1.6,0.3c1.1-0.4,2.7-0.7,3.2-1.6c1.6-2.8,4.8-4,7.7-2.3
		c1.1,0.7,2.1,1.7,3.3,2.2c2.4,1.2,4.9,2.1,4.4,5.7c1.4-2.9,3.2-1.5,4.5-0.4c1.7,1.3,3,2.9,4.4,4.3c-1.7,0.6-3.5,1.2-5.8,2
		c0,0-0.5-0.6-1-1.2c2.1-1.3,2.3-2.2,1.2-4c-1.4,2.1-2.6,1-3.9-0.2c-1-1-2.2-1.8-3.3-2.7c-0.3,0.2-0.5,0.3-0.8,0.5
		c0.2-0.5,0.5-1,1-2.2c-2.4,0.1-4.4,0.4-6.4,0.3c-5.1,0-7.7,4.7-12.1,6c-2.9,0.9-5.9,1.8-8.9,2.5c-1.8,0.4-3.6,0.5-5.4,0.7
		c0,0.3,0,0.6,0,0.9c0.7,0.1,1.5,0.5,2.2,0.3c6.8-1.7,13.5,0.3,20.2,0.5c4.4,0.1,8.8,1,13.2,1.6c0.6,0.1,1,1,1.7,1.8
		c3-0.6,6.4-1.4,10.3-2.2c-1.9,2.7-6.1,1-6.8,5.1c2-0.6,3.7-1.2,5.9-1.9c-2.8,3.8-5.7,4.3-9.5,2.8c-2.2-0.9-4.8-0.9-7.3-1.4
		c-0.7-0.1-1.3-0.7-1.9-0.8c-2.6-0.7-5.2-1.4-7.8-2c-0.4-0.1-1.2,0.7-1.5,1.3c-1.7,4-4.1,5.4-8.3,4.6c-1.5-0.3-3.1-0.4-4.6-0.4
		c-2.4,0-4.7,0.3-7.1,0.5C-191.8,261.6-191.9,261.3-192,260.9z"/>
	<path class="st0" d="M-112.2,346c0.3-0.8,0.5-1.5,0.8-2.3c0.3-0.6,0.8-1.1,0.9-1.7c0.3-2.3,0.4-4.5,0.3-7.2c-1,1.8-1.9,3.7-3,5.5
		c-1.6,2.6-3.1,5.4-5.1,7.7s-4.5,4.2-6.9,6.3c-0.1-3.2-0.1-6.5,3.1-9c-1.2-0.6-2-1-2.5-1.2c1.1-3.9,2-7.8,3.3-11.5
		c1.6-4.4,3.8-8.7,5.3-13.2c0.6-1.8,0.1-3.9,0.3-5.9c2.3,5.8,7,6.8,12,2.6c1.1-0.9,2-2,3.6-3.6c0.3,2.7,0.6,4.8,0.9,7.5
		c2-3.5,3.2-6.5,1.6-10c-0.1-0.2-0.2-0.6-0.1-0.8c1.5-2.7,3.1-5.3,5-7.9c0.4,6,4.9,11.3,2.9,17.5c-0.3,0-0.6,0.1-0.8,0.1
		c-0.1-2.4-0.3-4.8-0.4-7.2c-0.4,0-0.9-0.1-1.3-0.1c-0.3,2.3-0.7,4.5-1.1,7.1c-0.8-0.6-1.2-0.9-1.5-1.1c-0.2,0.3-0.4,0.5-0.4,0.6
		c-0.6,4.6-3.8,7.7-6.5,11.1c-1.2,1.5-2.3,3.3-3.2,5c-1.6,3.1-2.9,6.3-4.5,9.4C-110.3,344.6-111.4,345.2-112.2,346L-112.2,346z
		 M-120.7,347.2c2.3-3.4,4.6-6.9,6.9-10.3c-0.3-0.2-0.6-0.4-0.8-0.5C-116.3,340.1-121.1,342-120.7,347.2z"/>
	<path class="st0" d="M-237,304.8c-0.5,0.5-0.8,1.2-1.4,1.4c-1.4,0.6-2.8,0.9-4.2,1.3c1.6,3.6,0.3,7.5-3,9.6
		c-0.4,0.3-0.8,0.7-0.9,1.1c-0.1,0.3,0.4,1,0.7,1c2.7,0.1,1.8,2.3,2.3,3.7c0.2,0.7,0.7,1.7,1.2,1.8c3.8,0.6,7.6,1,11.5,1.3
		c0.5,0,0.9-0.5,1.4-0.6c1.3-0.3,2.6-0.5,4-0.8c0.2,0.3,0.3,0.6,0.5,0.9c-1.5,1.2-2.9,2.4-4.6,3.9c-0.8,2.6,3,2.8,3.3,4.2
		c0.6,3.6,3.4,1.9,5,3c-3.5,0-6.7,0.6-10.5-1.2c-4.2-2-7.8-4.6-11.7-7c-1.5-1-3-2-4.9-3.2c-0.5,1.3-0.8,2.2-1.4,3.8
		c-2-2.5-3.8-4.8-5.6-7.1c-2.4,3.3-2.4,3.3,2.7,5.6c-1.5,0.6-2.9,1.2-4.6,1.9c-1.5-5.4-1.7-10.7,2-15.4c1.3-1.7,3.4-2.8,5.3-3.9
		c2.1-1.3,4.3-2.3,6.4-3.5c0.5-0.3,1.1-0.9,1.3-1.5c0.8-2.3,2.6-2.7,4.7-2.4C-237.5,303.5-237.2,304.2-237,304.8z M-252.2,323.3
		c1.9-2.6,3.6-4.9,5.9-8.1c-2.4,0.2-4.2,0-5.6,0.7c-1.5,0.7-2.5,2.3-3.5,3.2C-254.2,320.6-253.4,321.6-252.2,323.3z"/>
	<path class="st0" d="M-220.7,305.6c-2.7-1.5-5-2.6-7.1-4c-0.4-0.2-0.6-1.5-0.3-1.7c0.7-0.7,1.8-1.6,2.4-1.4
		c1.9,0.6,3.8,1.7,5.6,2.7c1.1,0.6,2,1.5,3,2c0.7,0.3,1.6,0.2,2.4,0.2c-0.1-0.8-0.2-1.7-0.3-2.7c0.2-0.1,0.9-0.5,1.3-0.3
		c4.8,2.1,8.4-1.4,12.6-2.5c1.8-0.5,3.8-0.4,5.7-0.2c0.5,0.1,1.1,1.4,1.3,2.2c0.1,0.2-1.1,1.2-1.7,1.1c-5.6-0.4-9.3,3.2-13.3,6.2
		c-2.6,2-5.7,3.5-8.8,4.7c-1.1,0.4-2.9-0.4-4.2-1.1c-0.4-0.2-0.2-1.9,0.1-2.8C-221.8,307.1-221.2,306.3-220.7,305.6z"/>
	<path class="st0" d="M-224.6,326.2c0.8-0.3,1.7-0.8,2.5-0.8c4.7-0.1,9.4,0,14.1,0c0.6,0,1.2,0,1.7-0.2c6-2,12.1-1.4,18.2-1.5
		c7.3-0.1,14.6-1.5,21.9-2.3c1.5-0.2,3-0.2,4.6,0.4c-5.4,2.7-10.7,5.5-16.3,8.3c-0.3-1.3-0.2-2.2-0.6-2.9c-0.4-0.6-1.3-1.3-1.8-1.2
		c-1,0.2-1.8,0.6-2-0.8c0-0.2-0.8-0.4-1-0.3c-3.1,2.2-7-1.2-10.1,1.4c-0.2,0.2-1-0.3-1.5-0.3c-1.1-0.1-2.2-0.4-3.3-0.3
		c-4.3,0.6-8.5,2-12.7,1.9c-3-0.1-5.7,0.2-8.5,0.8c-1.5,0.4-3.3-0.8-5-1.3C-224.4,326.9-224.5,326.6-224.6,326.2z"/>
	<path class="st0" d="M-89.1,166.7c-0.6-0.2-1.1-0.3-1.5-0.4c0,0.1-0.1,0.1-0.1,0.2c0.9,0.5,1.8,1,2.7,1.5c-4-0.7-7.5-2.2-9.9-6.5
		c-0.5,2.2-0.3,4.3-3.3,3.9c0.6-0.8,1-1.2,1.6-1.9c-0.8,0.2-1.4,0.3-2,0.4c-1.8-2.7-3.6-5.4-5.6-7.9c-0.7-0.8-2.1-1.1-3-2.3
		c2.3,0.6,4.6,1.3,7.1,2c-1.2-5.4-5.9-4.1-9.5-5.3c-0.1-0.6-0.4-1.5-0.7-2.8c5.2,0.4,9.3,3.3,13.5,5.5
		C-94.5,156-89.7,159.6-89.1,166.7z"/>
	<path class="st0" d="M-164.3,313.4c-0.8,0.4-1.5,0.8-3,1.6c2.7-3.9-1-4.3-2.1-6c-1.1-1.6-2.4-3-3.7-4.5s-2.6-3-3.9-4.5
		c-0.8-1-1.6-2-2.3-3c0.2-0.2,0.4-0.4,0.5-0.7c0.8,0.4,1.8,0.7,2.4,1.3c3,2.9,6,5.8,9,8.7c0.8,0.8,1.6,1.5,2.4,2.3
		c2.7,2.6,5.5,5.1,8,7.9c3.1,3.4,2.7,7.5-0.8,10.1c-1.4,1.1-2.2,0.1-2.3-1.2c-0.2-1.4-0.2-2.8-0.2-4.2c0.1-2.1-1.1-2.9-2.9-3.1
		c-2.9-0.4-3-0.6-1.3-2.8c0.3-0.4,0.5-1,0.7-1.5C-163.9,313.6-164.1,313.5-164.3,313.4z"/>
	<path class="st0" d="M-130.8,422.4c4.8,10.6,9.4,20.6,14,30.7c-2.8,1.3-3.9-0.5-4.6-1.8c-4.8-8.5-8.6-17.4-9.6-27.3
		C-131,423.7-130.9,423.4-130.8,422.4z"/>
	<path class="st0" d="M-276.9,339.5c-3.2,0.3-5.1-1.8-3.9-3.4c1-1.2,0.3-1.5,0-2.5c-1.5-4.7-3.4-9.5-1.3-14.5
		c0.2-0.5,0.7-0.8,1.4-1.5c1.2,4.8,2.2,9.2,1.2,13.8c-0.1,0.5,0.1,1.1,0.3,1.6C-278.5,335.1-277.8,337.1-276.9,339.5z"/>
	<path class="st0" d="M-278.4,222.2c3.5-4.2,6.3-9.3,12-10.9c5.4-1.6,10.8-0.8,16.1,1.5c-0.8,0.2-1.7,0.6-2.5,0.5
		c-2.2-0.2-4.3-0.5-6.4-0.8c-6.8-1-11.4,2.7-15.7,7.1C-276,220.6-277.3,221.3-278.4,222.2z"/>
	<path class="st0" d="M-253.2,277.4c0.1-4.3-2.8-1.4-3.9-2.8c2.1-1.9,4.5-1,6.9-0.8c1.1,0.1,2.2,0.2,3.3,0c2.6-0.6,5.1-1.4,7.7-2.2
		c0.1,0.5,0.3,0.9,0.4,1.4C-243.5,274.3-248.1,275.8-253.2,277.4z"/>
	<path class="st0" d="M-235.6,214.6c-3.3,1.2-11.8,0-13.4-2C-244.2,211.7-239.7,212-235.6,214.6z"/>
	<path class="st0" d="M-132,179.6c0.5,4.5,0.9,9,1.4,13.5c-0.2,0.2-0.4,0.3-0.6,0.5c-0.5-0.5-1.4-1-1.4-1.5
		c-0.1-4.1-0.1-8.2-0.1-12.4C-132.5,179.7-132.2,179.7-132,179.6z"/>
	<path class="st0" d="M-160.1,127.9c-1.7,3-4.2,3.6-8.1,1.9c0-3.5,2.5-2.7,4.7-2.8c0.3,1,0.6,1.9,1.1,3.7c0.2-1.5,0.3-2.2,0.4-3
		C-161.3,127.8-160.7,127.8-160.1,127.9L-160.1,127.9z"/>
	<path class="st0" d="M-237,304.8c-0.2-0.7-0.5-1.3-0.7-2c0.5-1.4,1.1-2.8,1.6-4.1c0.3,0.1,0.6,0.2,0.9,0.3
		c-0.2,0.9-0.3,1.8-0.5,2.6c2,1.2,4,2.4,6,3.7c-0.1,0.2-0.2,0.4-0.3,0.7C-232.3,305.3-234.4,303.3-237,304.8z"/>
	<path class="st0" d="M-96.3,146.5c-0.8-0.6-1.7-1.1-2.4-1.7c-2.1-2-4-4.1-6.2-5.9c-0.8-0.7-2.1-0.9-3.1-1.5
		C-104.6,137.1-98.1,141.9-96.3,146.5z"/>
	<path class="st0" d="M-179.9,332.1c-1.9,0.4-3.9,1.1-5.8,1c-0.7,0-1.3-1.8-1.8-3.2c2.3,2.3,4.1,2.5,5.5-0.9c1,0.8,1.7,1.4,2.4,2
		C-179.7,331.4-179.8,331.7-179.9,332.1z"/>
	<path class="st0" d="M-135.5,408.5c1.6,3.6,3.1,7.2,4.7,10.9c-0.3,0.2-0.7,0.3-1,0.5c-1.7-3.6-3.3-7.2-5-10.8
		C-136.4,408.8-135.9,408.7-135.5,408.5z"/>
	<path class="st0" d="M-162.1,379.4c-0.7,0.5-1.3,1.2-2.1,1.5c-1.2,0.4-2.5,0.7-3.8,0.8c-0.5,0-1-0.4-1.6-0.6
		c0.4-0.5,0.7-1.4,1.1-1.5c1.9-0.4,3.9-0.6,5.9-0.9C-162.4,378.9-162.3,379.2-162.1,379.4z"/>
	<path class="st0" d="M-305.8,392c-1,0.9-2,2.1-2.3,1.9c-0.9-0.5-1.6-1.5-2.4-2.3c0.6-0.6,1.3-1.7,1.8-1.6
		C-307.7,390.3-307,391.2-305.8,392z"/>
	<path class="st0" d="M-94.4,154.7c-0.7-2.5-1.2-4.3-1.7-6.3C-93.8,149.3-93.2,151.4-94.4,154.7z"/>
	<path class="st0" d="M-137,134.3c-1.4-0.4-2.9-0.7-4.4-1.1c1.4-1.8,2.2-1.9,5.4-0.5C-136.4,133.3-136.7,133.8-137,134.3
		C-137.1,134.4-137,134.3-137,134.3z"/>
	<path class="st0" d="M-88.3,295.7c1.5,0.1,2.9,0.3,4.4,0.4c0.1,0.4,0.1,0.7,0.2,1.1c-1.1,0.3-2.2,0.9-3.3,0.9
		c-0.8,0-1.7-0.6-2.5-0.9C-89.1,296.7-88.7,296.2-88.3,295.7z"/>
	<path class="st0" d="M-86.8,168.9c1.3,1.5,2.6,3.1,3.9,4.6c-0.3,0.3-0.7,0.6-1,0.9c-1.3-1.6-2.6-3.1-3.9-4.7
		C-87.4,169.5-87.1,169.2-86.8,168.9z"/>
	<path class="st0" d="M-186.1,267.1c1,0.8,2,1.5,2.9,2.3c0.2,0.2,0.3,0.8,0.1,1c-0.3,0.3-0.8,0.5-1.1,0.5
		C-186.4,270.8-187,269.5-186.1,267.1z"/>
	<path class="st0" d="M-112.2,346c-1.2,3.2-3.8,4.4-7.4,5.3C-116.8,349.3-114.5,347.7-112.2,346L-112.2,346z"/>
	<path class="st0" d="M-71.4,247.2c-0.3-0.5-0.5-0.8-0.8-1.4c1.1,0.5,2,1,2.9,1.4c0,0.2,0,0.4,0,0.6c-1.9,0-3.8,0-5.7,0
		c0-0.2,0-0.5,0-0.7C-73.9,247-72.8,247.1-71.4,247.2z"/>
</g>
</svg>
