<?xml version="1.0" encoding="utf-8"?>
<!-- Generator: Adobe Illustrator 19.1.1, SVG Export Plug-In . SVG Version: 6.00 Build 0)  -->
<svg version="1.1" id="Слой_1" xmlns="http://www.w3.org/2000/svg" xmlns:xlink="http://www.w3.org/1999/xlink" x="0px" y="0px"
	 viewBox="-956 891.6 294 426.4" style="enable-background:new -956 891.6 294 426.4;" xml:space="preserve">
<style type="text/css">
	.st0{fill:#EAEAEA;}
</style>
<g>
	<path class="st0" d="M-846.1,913.3c-19.7,12.4-30.7,30-31.4,53.4c0.6,0.6,1.3,1.1,1.9,1.6c1.8-2.2,5-4.3,5.1-6.6
		c1-23.2,13.4-39.3,32.8-49.2c28.7-14.6,59.6-21,91.1-10.5c14.1,4.7,27.3,13.1,39.7,21.6c11.2,7.6,13.7,20.8,16.1,33.5
		c0.5,2.4,2.4,4.5,3.7,6.7c0.9-0.5,1.7-0.9,2.6-1.3c-2.1-7.6-4.2-15.1-6.3-22.7c8.9,12.3,7.1,26.8,8.8,42.8
		c-3.4-7.2,1.3-16.1-8.8-18.9c0.3,6.3,0.6,11.6,0.9,17c0.6,2.1,1.1,4.2,1.8,6.9c-0.8,0.8-2.3,2-2,1.8c-0.4,9-0.8,16.3-1.1,23.6
		c-1.7,12.6,2,25.9-3.9,39.2c0.4,0.4,2.1,1.7,3.9,3.2c2-1.9,3.7-3.5,5.4-5.1l-0.1-0.1c-0.3,1.1-0.2,2.9-0.9,3.4
		c-8.8,6-6,15.1-6.7,23.4c-0.5,7.1-1.1,14.3-2.6,21.3c-1.3,6.3-3.9,12.3-5.9,18.4c5.6-20.1,9.9-40.3,4-61.2
		c-0.7,23.7,1.1,48-22.4,65.1c-0.5-4.3-0.9-8.2-1.3-12.2c7.3-3.9,12.7-9.8,14-17.8c1.9-11.8,2.9-23.7,3.6-35.6
		c0.1-1.5-3.2-4.4-5.2-4.7c-11-1.7-22.2-3.8-33.3-3.7c-27.5,0.3-54.9,1.7-82.3,2.4c-7.1,0.1-10.1,2.8-9.2,9.9
		c1.2,9.9,1.8,19.9,3.6,29.7c1.9,10.1,14.1,15,27,11.2c11-3.2,21.8-7.2,32.9-9.9c9.6-2.4,19.4-1.8,28.4,2.8c2.2,1.1,3.8,3.4,5.6,5.2
		c-1.7-0.6-3.5-1.1-5.2-1.7c-6.7-7-15.3-6.4-23.6-5.5c-6.4,0.7-12.6,2.8-18.8,4.6c-5.7,1.7-11.2,3.9-16.4,7.3
		c3.9-1.2,7.8-2.3,11.7-3.4c0.2,0.6,0.5,1.1,0.7,1.7c-5.6,2-11.1,5-16.9,5.8c-7.3,1.1-14.9,0.8-22.3,0.4s-13.2-4.9-15.6-11.3
		c-4-10.6-6.6-21.7-9.4-32.7c-0.8-3-0.5-6.4-0.7-9.7c-2.2,0-4-0.3-5.6,0c-11.1,2.1-12.6,4.7-10,15.6c0.7,2.6,0.9,5.3,1.3,8l0.2-0.1
		c-1.8-5.6-1.8-13.3-5.6-16.3c-10.5-8.3-9.4-19.3-9.3-29.9c0.1-21.9,1.1-43.8,2.1-65.7c1-22.8,11.9-40.3,30.7-52.8
		c27.5-18.2,57.9-23.8,90-19c21.1,3.2,40.9,10.4,55.1,28C-747.5,882.7-809.1,889.8-846.1,913.3z M-806.5,928c1.3,4.3,2.1,8.7,3,13.1
		c0.8,4.2,1.3,8.3,2,12.9c20.8,0,41.2,0,63.4,0c-7.1-5.4-13.1-10.2-19.4-14.7c-1-0.7-4.5-0.1-4.5,0.2c-0.4,2.7-0.2,5.4-0.2,10.7
		c-4-4.7-10.5-9.6-9.7-11.8c2.6-6.9,7.8-12.8,13.2-20.8c-2.5-7.9-11.1-12.4-20.8-12.3c-14.1,0.2-28.2,1.8-42.1,4.2
		c-18.3,3.1-31.9,13.8-40,30.5c-3.3,6.9-4.6,14.8-7,22.9c18.9-3.3,35.9-6.2,53.8-9.2c-1.6-9.8-3.1-19.9-5.3-29.8
		c-0.5-1.9-4-3.8-6.4-4.4c-2.4-0.5-5.2,0.6-8.5,1.1C-822.7,911.2-810.6,914.6-806.5,928z M-799.4,1034.3c0.2,4.3,7.8,7.9,15.1,7.3
		c5.7-0.4,11.5-1.8,17.1-1.5c15.7,0.9,31.3,2.7,46.9,3.7c4.2,0.3,8.6-0.8,12.8-2c1.1-0.3,2-3.1,2-4.8c0.1-12.4-9.2-22.5-21.5-22.7
		c-23.9-0.3-47.7-0.1-72.5-0.1C-799.5,1021.5-799.7,1027.9-799.4,1034.3z M-879.5,1041.3c0.9,10.5,4.4,13,14.5,10.9
		c10.2-2.1,20.5-4.1,30.8-5.8c7.6-1.2,15.3-1.8,23.3-2.7c0-9.2,0-18.2,0-27.8c-4.1,0-7.8,0.1-11.4-0.1c-3.2-0.2-7.6,0.3-9.3-1.5
		c-6.7-7-14.4-3.4-21.7-3c-1.8,0.1-4.3,3.3-4.8,5.4c-1.4,6.8-1.4,13.9-3.4,20.5c-1,3.2-5,5.4-7.7,8.1c-2.5-2.7-5.8-5-7.5-8.2
		c-1.9-3.3-2.3-7.5-3.3-11.3c-0.2,0-0.5,0.1-0.8,0.1C-880.4,1031-880,1036.2-879.5,1041.3z M-731.9,989.7c-1-1.6-2-2.5-2.2-3.6
		c-1.5-8.7-6.5-11.4-15.2-11.1c-16.6,0.6-33.3,0.2-50.3,0.2c0,7.6,0,14.3,0,21.2c32.1,0.9,64,1.8,96.2,2.7c-4.3-11.4-21-4-27.1-16.5
		C-731.1,986.2-731.4,987.6-731.9,989.7z M-813.4,976.7c-17.6-0.9-34.8,0-51.4,5.9c-1,0.4-2,3.7-1.4,4.9c3,6.8,6.6,13.4,10.5,21.2
		c3.9-0.2,9.7-0.5,15.6-1c1.1-0.1,2.8-0.6,3.1-1.4c3.2-9.4,11.2-8.4,18.6-8.6c1.9-0.1,3.8-0.4,6.3-0.6
		C-812.6,990.3-813.1,983.9-813.4,976.7z M-800.1,972.5c8.1,0,15.7-0.1,23.4,0c9.9,0.2,19.9,0.3,29.8,0.9c6.3,0.4,10.4-3.1,10.3-8
		c-0.1-3-5.3-8.4-8.4-8.5c-18.5-0.8-37.1-0.4-56.4-0.4C-800.9,962.5-800.5,967.3-800.1,972.5z M-815,957.6
		c-17.1,0.7-33.8,2.4-49.5,8.8c-2.6,1.1-2.8,8.2-4.1,12.6c19-2.3,36.5-4.5,54.9-6.7C-814.1,967.7-814.5,963-815,957.6z
		 M-864.6,1029.3c1.3-7.8,2.5-15.7,3.1-23.6c0.3-4.3,0.5-10-5.4-10.5c-2.2-0.1-5.3,3.9-6.9,6.7c-6.4,10.8-3.1,22.2-0.7,33.3
		c0.4,1.8,3.2,3.1,6.3,5.9C-866.5,1035.8-865.1,1032.6-864.6,1029.3z M-871.1,981.6c0-4.5,0-8.7,0-12.9c-7.6,1.5-7.6,1.5-7.5,16
		C-875.6,983.5-873.4,982.6-871.1,981.6z M-833.7,1090.4c-1.2-13.1-2.4-26.2-3.7-40.6C-839.9,1064.5-838.9,1077.6-833.7,1090.4z
		 M-871.2,985.9c-8.3,0-8.6,0.6-8,13.6C-876.4,994.8-873.8,990.3-871.2,985.9z"/>
	<path class="st0" d="M-905.4,1273.2c-3,13.1-0.1,16.2,12.9,13.3c17.5-3.9,35.3-7,52.5-11.8c32.8-9.1,58.1-28.3,75.9-57.8
		c9.2-15.1,20.1-29.1,31.2-42.8c5.2-6.4,12.8-10.9,19.4-16.3c-4.5-1.2-7.8-4.1-4.7-12.3c-12.7,4-23.2,6.6-33.2,10.6
		c-26.4,10.5-52.5,21.7-78.6,32.7c-5.2,2.2-10.2,4.8-15.3,7.2c-1.2-0.2-2.4-0.3-3.6-0.6c-2.3-0.6-4.5-1.3-6.7-1.9
		c0.8-2.1,1.5-4.3,2.4-6.8c-1-0.7-2.6-1.8-4.4-3c0,1.8,0,3.4,0,5c-0.1,2.9-0.2,5.9-0.3,8.8c3.2-0.3,6.5-0.5,9.7-0.8
		c1-0.1,1.9-0.4,2.9-0.6c-3.6,3-7,6.3-10.9,8.9c-14.4,9.9-24,23.6-32.2,38.6c-2,3.6-5,6.5-7.6,9.7c0.5-1.1,0.9-2.3,1.5-3.4
		c7.6-14.8,7.7-14.9-3.2-27.5c-5.9-6.9-11.9-14.1-23.2-8.8c0.2-0.9,0.3-1.8,0.5-2.7c7.8,0,15.7,0,23.8,0
		c-4.3-13.2-1.7-23.1,7.1-29.5c-2.4,5.6-5.2,11.1-7.2,16.9c-1.8,5.3,1.2,9,5.7,11.6c6.2,3.6,10.4,1.3,11.5-5.8
		c1-6.3,1.6-13,4.2-18.7c4.7-10,13.1-11,21.6-4c1.2,1,3.4,0.7,5.4,0.2c-4.6-7.9-11.7-8.9-19.4-8.7c9.1-6.1,15.9,3.1,25.4,4.9
		c-2.1-3.4-3.2-5.2-4.3-7c1.3-0.8,2.3-1.5,3.3-2.1c-1.7-1.2-2.9-2.1-5.3-3.8c4.2-1.8,7.3-3.2,10.4-4.5c5-2.1,6.2-10.2,1.9-13.7
		c-7.7-6.1-12.6-15-21.2-20.6c-3.3-2.2-5.4-7.9-6.1-12.3c-1.8-12.2-2.7-24.6-3.9-36.9l-0.2,0.1c1.6,8.7,4,17.4,4.4,26.1
		c0.9,19.7,9.4,29.2,29.1,30.7c12.5,0.9,24.9,1.8,37.3,3c2.4,0.2,4.7,2,7.1,3c-10.6-1-21.1-2-31.7-2.9c-6.1-0.6-12.2-1.1-18.7-0.1
		c2.6,1,5.1,2.5,7.8,2.8c12.6,1.2,25.2,2.2,37.8,2.9c1.5,0.1,3.1-1.9,4.6-2.9c2.6-1,5.3-2,7.9-3c1.1,0.5,2.2,1.6,3.2,1.6
		c17.7-0.5,35.3-1,52.9-1.9c11.6-0.6,17.3-9.6,23.2-17.9c-0.9,2.5-1.7,4.9-2.6,7.5c0.9,0,1.9,0.1,2.8,0.2c-2.7,2.3-5.3,4.7-8,7.1
		c0.1,0.6,0.3,1.2,0.4,1.8c4-0.6,8-1.2,12-1.8c-4,7.8-7.1,15.6-1.9,25.9c2.2-2.8,3.8-4.7,5.4-6.7l-0.1,0.1
		c6.5,0.2,13.1,0.1,19.5,0.8c3.7,0.4,7.3,2.1,12.4,3.6c-2.5,1.7-2.9,2.1-3.3,2.2c-37.9,6.5-60.6,29.6-72.8,65.1
		c-3.5,10-8.5,19.8-14.4,28.6c-9.2,13.7-21.4,24.3-38,28.6c-14.2,3.6-28.5,7.3-42.8,10.7c-2.9,0.7-6,0.1-9.3,0.1
		c0.4,3.3,1,8.1,1.5,12.9c-2.4-5.1-3.3-10.5-4.7-15.7c-0.5-2-2.1-3.7-3.2-5.6c-0.9,2-2.7,4.1-2.5,6c0.4,5.2-1.6,7.3-6.6,7.6
		c-2.6,0.1-5.3,1-8,1.6c-0.2,2.5-0.5,4.8-0.7,7.2c-0.2,0-0.5-0.1-0.7-0.1c-1.2-6.4-2.5-12.8-3.7-19.2c-1.4-0.6-2.8-1.3-4.2-1.9
		c3.9,14.6-2.5,19.3-13.9,18.4c0,4.8,0,8.7,0,12.7c-0.2,0.1-0.4,0.1-0.6,0.1c-1.5-8.1-2.9-16.1-4.3-24.2c-0.8,0-1.5,0-2.3,0
		c-0.8,4.3-1.6,8.5-2.4,12.7c-0.8,0-1.5,0.1-2.3,0.1c-1.9-7.8-4.5-15.6-5.5-23.6c-0.5-3.7,1.9-7.7,3-11.6
		C-904.8,1270.8-904.9,1272.1-905.4,1273.2z M-874.5,1217.9c5.9-5.3,11.6-10.3,16.8-14.8c-2.3-4.1-4.4-8-6.3-11.5
		c-5.4,7.1-10.6,13.8-15.9,20.6C-877.7,1214.5-876.2,1216.1-874.5,1217.9z M-791.9,1149.2c0.2-0.9,0.5-1.7,0.7-2.5
		c-1.8-0.7-3.6-1.9-5.5-2.1c-14.5-1.2-29-2.2-45.6-3.4C-824.9,1149.1-808.1,1147-791.9,1149.2z M-730.7,1144.3c0-0.4,0-0.7,0-1
		c-13.1,0-26.3,0-39.4,0c0,0.4,0,0.7,0,1C-757,1144.3-743.9,1144.3-730.7,1144.3z M-769.7,1149.1c-4.3-0.1-9.5,2.2-12.5-3.5
		c-0.3-0.7-2.8-0.5-4.2-0.2c-0.4,0.1-1,2.3-0.8,2.5c1.1,0.8,2.5,1.7,3.8,1.7c12.3,0.1,24.5,0.1,36.7,0.1c0.1-0.1,0.2-0.3,0.3-0.4
		C-754.1,1149.3-761.9,1149.5-769.7,1149.1z"/>
	<path class="st0" d="M-906.5,1267.7c-8.9,17.1-22.1,30.7-35.7,43.9c-2.9,2.8-7,4.3-10.5,6.4c-0.8-0.7-1.6-1.3-2.4-1.9
		c0.5-4.1-0.4-9.1,1.7-12c4.6-6.7,10.6-12.5,16.3-18.4c2-2,4.5-3.5,6.7-5.3c0.6,0.7,1.2,1.3,1.8,1.9c2.5,0.9,5,1.9,7.8,2.9
		c4.6-6.8,8.9-13.6,13.7-20.1c1.4-1.8,4-2.7,6.1-4c-0.3,0.9-0.6,1.9-0.9,2.8C-903.5,1265.2-905.7,1266.1-906.5,1267.7z"/>
	<path class="st0" d="M-694.4,1152.7c0.7-4.5,0.5-9.5,2.3-13.5c2.6-5.8,10.8-8.4,16.8-6.3c5.8,2.1,9.3,6,8.8,13.1
		c-6.6,0-12.8,0.3-19-0.1c-5.2-0.3-8.3,1.6-9.1,6.9C-694.6,1152.8-694.4,1152.7-694.4,1152.7z M-681.9,1144.2c0.3-0.5,0.7-1,1-1.5
		c-2-1.8-3.9-4.8-5.9-4.9s-4.1,2.9-6.1,4.5c0.4,0.7,0.7,1.3,1.1,1.9C-688.5,1144.2-685.3,1144.2-681.9,1144.2z"/>
	<path class="st0" d="M-867.2,1172.7c-7.7,3.9-12.7,9.9-14,18.6c-0.5,3.4-0.4,7-1.5,10.2c-0.8,2.2-3.2,3.8-4.9,5.7
		c-1.6-1.9-4.6-4-4.5-5.8c0.2-4.5,1.3-9.3,3.3-13.3c2.1-4.2,5.7-7.6,8.6-11.3c0.4,0.4,0.8,0.7,1.2,1.1c-2.4,0.3-4.8,0.6-7.2,0.9
		C-879.9,1176.8-873.5,1174.8-867.2,1172.7z M-883.7,1195.6c0.7-3.5,1.4-7,2.2-10.7c-8.6,4.7-11.1,12.9-4.4,20.7
		C-885.1,1202.2-884.4,1198.9-883.7,1195.6z"/>
	<path class="st0" d="M-681.9,989.3c0.2,14.7,0.3,29.3-0.3,43.9c-0.2,5.6-2.5,11.2-3.9,16.8l0.1,0.1c0.8-6.9,1.5-13.8,2.5-20.7
		c0.9-6.3-0.2-11.7-5.9-15.4c1.9,0.5,3.9,0.9,7,1.6c-0.8-11.4-1.6-21.8-2.3-32.3C-683.8,985.3-682,987.3-681.9,989.3z"/>
	<path class="st0" d="M-907.7,1244.9l-0.1-0.1c-1.3,2.3-2.6,4.7-3.9,7c-5.6,10.2-11.2,20.4-16.8,30.6c-0.6-0.7-1.2-1.3-1.8-1.9
		C-926.4,1266.3-916.8,1255.7-907.7,1244.9z"/>
	<path class="st0" d="M-907.7,1244.7c1.3-2.5,2.8-5,3.9-7.6c1.9-4.5,3.6-9,5.3-13.3c0.2,1.9,1.8,5.9,0.5,8.4
		c-2.4,4.6-6.5,8.3-9.9,12.4C-907.9,1244.6-907.7,1244.8-907.7,1244.7z"/>
	<path class="st0" d="M-736.9,1097.9c3.8,3.6,7.6,7.1,11.4,10.7c0.2,1.2,0.3,2.5,0.7,3.6c7.6,20.7,0.2,23-15,23.6
		c-14.1,0.5-28.2,0.8-42.3,1.2c-5.4-0.8-10.8-1.6-17.9-2.6c10.9-0.5,20.1-0.5,29.2-1.6c9.1-1.1,18.2-2.7,27.1-4.9
		c12-3,14.9-11.8,7.8-22c-2.5-3.7-5.7-6.8-9.8-11.5c2.4,1.1,3.1,1.4,3.7,1.7C-740.3,1096.7-738.5,1097.3-736.9,1097.9z"/>
	<path class="st0" d="M-775.2,1064.4c4.8-4.3,23.4-5.4,34.1,0C-753.7,1064.4-765.2,1064.4-775.2,1064.4z"/>
	<path class="st0" d="M-742.4,1077c-9.2-0.5-18.3-1.2-27.5-1.9c-1.1-0.1-2-0.9-3-1.4c0.1-0.7,0.3-1.3,0.4-2
		c10.9,1,21.7,1.9,33.2,2.9C-740.2,1075.4-741.4,1077.1-742.4,1077z"/>
	<path class="st0" d="M-873.2,1006.8c0.8-0.8,4.7-0.3,5.4,0.8c3.4,5.2,1.2,16.1-3.7,20.9C-875.5,1024.3-876.9,1010.3-873.2,1006.8z"
		/>
</g>
</svg>
