<?xml version="1.0" encoding="utf-8"?>
<!-- Generator: Adobe Illustrator 20.0.0, SVG Export Plug-In . SVG Version: 6.00 Build 0)  -->
<svg version="1.1" id="Слой_1" xmlns="http://www.w3.org/2000/svg" xmlns:xlink="http://www.w3.org/1999/xlink" x="0px" y="0px"
	 viewBox="0 0 223 306" style="enable-background:new 0 0 223 306;" xml:space="preserve">
<style type="text/css">
	.st0{fill:#FFFFFF;}
</style>
<g>
	<path d="M83.9,22c1.5-0.9,2,0.2,2.1,1.3c0.3,2.2,0.4,4.5,0.3,6.8c-0.2-0.8-0.3-1.7-0.6-2.5c-0.4-0.9-1.1-1.7-1.7-2.5
		c-0.7,0.5-1.5,1-2.4,1.7c0.8-1.4-2.6-2-0.3-3.6C82.2,22.8,83.1,22.4,83.9,22z"/>
	<path d="M136.8,42c-0.1,0.5-0.3,0.9-0.4,1.4c-0.2-0.1-0.3-0.2-0.5-0.3C136.2,42.7,136.5,42.3,136.8,42L136.8,42L136.8,42z"/>
	<path class="st0" d="M47.5,38.1C47.5,38.1,47.5,38,47.5,38.1C47.5,38,47.5,38,47.5,38.1z"/>
	<path d="M154.1,90.2h0.1C154.3,90.2,154.1,90.2,154.1,90.2z"/>
	<path class="st0" d="M51.6,42.6L51.6,42.6L51.6,42.6z"/>
	<path class="st0" d="M50.5,41.4C50.5,41.4,50.4,41.3,50.5,41.4L50.5,41.4z"/>
	<path class="st0" d="M47.8,38.3l-0.1-0.1L47.8,38.3z"/>
	<path d="M137.2,120.4c-0.2,2.5-2,3.3-3.9,4.1c-2,0.9-4.4,1.6-5.8,3.2c-2.7,2.9-5.8,2.8-9.1,2.4c-2.9-0.3-5.7-1.2-8.6-1.8
		c-5.5-1.1-9.6,2-14.4,5c-1.6-3.8-3.5-7.5-4.8-11.3c-0.9-2.8-1.1-5.7-4.1-7.5c-1.2-0.7-1.7-2.5-2.4-3.9c-0.1-0.3,0.4-1.4,0.8-1.5
		c6.1-1.5,12.2-2.8,18.2-4.2c0.5-0.1,1.1-0.1,1.5,0.1c8.2,2,16.6,2.4,24.9,1.2c3.4-0.5,5,2.3,7.3,3.7c1.5,0.9,2.6,2.4,3.9,3.4
		c1.6,1.3,2.6,2.8,1.9,4.9c-0.7,2.2-2.6,1.9-4.3,2C138.2,120.3,137.8,120.3,137.2,120.4z M112.5,120.7c-1.9,0.9-4,1.8-6.1,2.8
		c0,0.4,0.1,0.8,0.1,1.3c2.8,0.3,5.6,0.7,8.9,1.1C114.3,123.8,113.6,122.6,112.5,120.7z M118.2,116.6c3.9,0.8,7.9,1.6,12,2.5
		C128.4,115.6,122.6,115,118.2,116.6z"/>
	<path d="M92.9,176c0.5-5.2,2-6,6.3-4.5c5.9,2,12,3.5,18,5.3c1.7,0.5,3.3,1.1,2.7,3.6c-0.5,1.8-1.5,2.3-2.8,1.7
		c-6.9-3.3-14.3-2.5-21.5-3.4C93.2,178.4,92.8,178,92.9,176z"/>
	<path d="M172.1,117.9c-1.6-3.3-3.2-6.5-4.9-9.8c-0.3,0.1-0.6,0.1-0.9,0.2c-0.6,1.4-1.2,2.7-1.9,4.1c-0.8-3.1,1.9-9.9,4.4-11.4
		c1.8-1,3.1-0.7,4.1,1.2c2.7,5.2,1.8,10.4,0,15.5C172.7,117.7,172.4,117.8,172.1,117.9z"/>
	<path class="st0" d="M142.2,48c-0.2,0.2-0.4,0.4-0.6,0.6C141.8,48.4,142,48.2,142.2,48z"/>
	<g>
		<path d="M180.5,279c2.5-2.5,5.3-4.8,8.3-6.9c2.6-4.1,5.5-7.9,8.7-11.1c4.5-4.5,9.9-8.3,15.8-11.3c-2.5-7.1-3.8-14.7-4.2-22.2
			c-0.3-5.8,0.7-11.9,2.6-17.8c-4.4-2.3-8.8-5.1-12.5-8.5c-2.9-1.1-5.9-2.3-8.8-3.5c-9-3.5-18.4-6.2-26.1-12.7c-1.5-1.2-2-2.5-2-4.4
			c0-3.5-0.1-7.1-0.7-10.5c-0.8-4.8-0.9-9.5-0.3-14.3c0.1-1.2,1-3,1.9-3.3c4.8-1.5,9-5.9,9.8-10.9c1.5-9.3,3-18.7,4.4-28
			c0.3-2.3,0.3-4.7,0-7c-0.5-3.9-1.1-7.8-1.9-11.7c-1.5-7.6-1.5-15.5-4.4-23c-2.8-7.4-5.2-15-10.5-21.1c-2.3-2.7-5.4-4.8-7.5-7.6
			c-6.1-8-13.9-13.8-22.8-18.3c-2.7-1.4-5.2-3.1-7.8-4.6c-1.6-1-3.2-2.2-5-2.8c-6.6-2.1-13.2-4.1-19.9-5.9c-3.6-0.9-7.3-1.7-11-1.8
			c-7.8-0.3-15.3,1.9-22.4,4.8c-4.4,1.8-8.7,3.8-12.9,6.2c-3.2,1.8-5.9,4.5-9.1,6.3c-5.2,3-9.1,7.4-12.3,12.2c-2,3-3.3,6.6-4.8,10
			c-0.8,1.8-1.3,3.8-2,5.6c-2.5,6.2-5.3,12.2-6.3,19c-1.3,8.2-2.9,16.3-2.4,24.7c0.4,6.4,0.1,12.9,4.6,18.1c-1.9,2-3,8.6-2,10.8
			c2.6,5.6,6.2,10.9,7.1,17.2c1.1,7.1,6.2,12.5,7.3,19.6c0.7,4.8,2.2,9.5,3.1,14.3c1.2,6.6,2.8,13.1,6.9,18.6
			c4.9,6.6,10.1,13,15.2,19.6c0,0.9-0.2,2.2-0.1,3.5c0.3,2.8-0.4,3.9-3.2,4.7c-5.1,1.6-10.2,3.4-15.4,4.8c-0.6,0.2-1.2,0.4-1.8,0.5
			c1.7,5.9,2.6,12.1,2.9,18.2c0.3,6.7-1,13.9-3.5,20.7c2.5,1.8,4.8,3.7,7.1,5.8c1.9,1.7,3.6,3.6,5.2,5.6c10.4,0.1,20,2.9,28.8,7.6
			c4.7-1.2,9.4-2.4,14-3.6c4.8-1.2,9.6-1.9,14.3-3.4c2.5-0.8,4.7-2.7,6.9-4c2.8,5.5,1.8,11.7,2.1,17.8c0.3,0.2,0.5,0.3,0.8,0.5
			c0.3-5.8,0.7-11.6-1-17.7c2.9-0.8,5.6-1.5,8.3-2.5c5.6-2.1,11.3-1.6,17-1.2c1.9,0.1,3.9-0.7,5.9-1c1-0.2,2.1-0.2,3.3-0.3
			c0.5-1.9-0.9-3.5-3-4c-6.9-1.7-13.2,0.1-19.4,2.9c-2.2,1-4.7,1.2-7.1,1.5c-1.3,0.1-2.8-0.2-2.8-2.2c0-1.8,0.3-3.3,2.6-3.4
			c4.6-0.3,8.6-2.2,12.2-4.8c0.8-0.5,1.1-1.7,1.4-2.9c-7.9,5.2-16.1,8.1-25.5,5.2c2.9-1,5.5-2.8,9-2.1c1.4,0.3,3.5-0.9,4.7-2.1
			c2.1-2.1,4.2-2.7,7.2-2.4c5.8,0.6,11.6,0.8,17.4,0.6c5.4-0.2,10.8-1.2,16.6-1.9c-0.3,4.2-0.1,9-1.1,13.5
			c-1.1,4.9-1.6,9.8-1.6,14.7c3.1-1.4,6.2-2.6,9.6-3.5l11-1.5C179.7,279.9,180.1,279.4,180.5,279z M24.7,83.9
			c-3.9,0.6-6.7-0.1-7.2-2.1c5.8,0.6,5.8,0.6,9.1-3.7C27.1,81.5,26.4,83.6,24.7,83.9z M165.8,68.2c0.2,0.2,0.4,0.4,0.7,0.6l-8.2,8.9
			c0.1,0.2,0.2,0.4,0.4,0.6c1.6-0.1,3.1-0.2,4.7-0.3c0.1,0.3,0.1,0.5,0.2,0.8c-1.5,0.8-3,1.6-4.8,2.6c0.1-0.7,0.1-1.1,0.2-1.6
			c-1-0.1-2-0.3-3-0.5C157.2,73.5,161.6,70.9,165.8,68.2z M155.3,82.7c3,1.6,5.9,1.7,8.6-0.8c1.7-1.6,3.7-3,5.5-4.5l0.8,0.8
			c-1.8,1.4-3.6,2.8-5.4,4.2l0.6,0.8c1.7-1,3.3-2,5-3c0.2,0.3,0.4,0.5,0.6,0.8c-1.2,1.1-2.4,2.1-3.6,3.2c1.1-0.5,2.3-1,3.4-1.5
			c0.1,0.2,0.3,0.5,0.4,0.7C168,86.5,165,90,160,91.8c0.6-1.2,0.9-1.9,1.2-2.6c-0.2-0.2-0.4-0.4-0.6-0.6c-2.3,2-4.6,4.1-7.1,6.2
			c5.1-1.5,10-2.7,14.6-4.3c1.5-0.5,2.6-2.3,4.1-3.7v7.8c0,0.3-0.5,0.8-0.9,0.9c-3.1,0.7-4.5,3.3-5.9,5.6c-2,3.4-4.9,5.7-8.1,7.7
			c-0.4,0.3-0.8,0.6-1.3,1c-0.2-0.3-0.5-0.7-0.9-1.4c7.6-3.8,11.6-10.5,15.5-17.5c-2.9,0.9-5.5,1.6-8.1,2.5c-2,0.7-4.1,1.2-6,2.3
			c-0.8,0.4-0.9,1.9-1.3,2.9c-0.2-0.4-0.4-0.9-0.7-1.7c-1.4,0.9-2.6,1.6-4.3,2.7c1.5-3.6,2.8-6.5,4-9.4h-0.1c1.4-0.7,2.7-1.3,4.1-2
			c-4-0.8-8.3-0.7-11-5.2c2.1,0.1,3.7,0.2,5.4,0.2c-1.7-0.9-3.5-1.6-5.1-2.6c-0.8-0.6-1.1-1.8-1.7-2.7c0.2-0.2,0.4-0.4,0.7-0.6
			c0.6,0.3,1.3,0.5,1.9,0.9C150.7,79.7,153,81.4,155.3,82.7z M122.5,28c0.2,0.1,0.4,0.3,0.6,0.4c-0.1,1-0.3,2-0.4,2.8
			c1.3,1,2.5,1.9,3.7,2.8c-0.1,0.2-0.2,0.4-0.3,0.6c0.7-0.1,1.5-0.4,2.2-0.2c0.8,0.2,2,0.9,2,1.3c0,1.7-0.4,3.3-0.7,5.2
			c2.2-0.5,4.4-1,6.7-1.6c0.2,0.9,0.3,1.7,0.5,2.6c1.5,1.3,2.2,0,2.9-0.9c0.4-0.6,0.2-1.6,0.6-2.2c0.6-0.9,1.4-1.6,2.2-2.3
			c0.4,0.9,1.3,2.1,1,2.5c-1.3,2.1-2.9,4.1-4.5,6.1c-0.2,0.2-0.6,0.3-0.9,0.5c0.1,0.3,0.2,0.6,0.3,0.9h2.8c0.4-0.2,0.8-0.4,1.3-0.6
			h2.9c-0.2,0.9-0.3,2-0.7,2.8c-0.9,1.8-2.1,3.4-3.6,5.9c4.9-1.3,9.2-2.4,13.4-3.5c0,1.6-1.2,2.7-3.2,3.2c-0.8,0.2-1.4,1.1-2.1,1.6
			c-1.1,0.7-2.1,1.6-3.3,2.1c-1,0.4-2.3,0.3-3.5,0.7c-1.4-0.9-5.2-0.1-3.4-4.4c-5.6,2-7.5-2.5-10.2-5.3c-3.5-3.7-6.5-7.7-9.9-11.5
			c-0.7-0.7-1.9-1-2.8-1.4C118.2,33.3,120.4,30.7,122.5,28z M102.8,22.9c0.3,0,0.5,0,0.8-0.1c0.4,1.1,0.9,2.2,1.5,3.8
			c1.1-2.2,2.1-4.3,3.2-6.3c0.3,0,0.5,0,0.8,0.1c0.8,1.9,1.7,3.9,2.7,6.2c-0.1,0.2-0.5,0.9-1.3,2.2c1.5-0.3,2.4-0.5,3.5-0.7
			c0.9,1.5,3.3,2.9,0.3,5.6c-0.3-0.6-0.7-1.2-0.9-1.7c-1.4,0.6-2.7,1.1-4.3,1.7v-10c-1.9,2.5-1.2,6.1-4.7,7.1
			c-0.4-0.7-0.7-1.4-1.1-2.2c-0.5,0.3-0.9,0.7-1.3,1l-0.7-0.3C101.7,27.2,102.2,25.1,102.8,22.9z M74.5,20c1,0.5,2.1,1.1,3.1,1.6
			c1.2,0.6,2.5,1,3.7,1.5c0.9-0.4,1.7-0.8,2.6-1.2c0.1-0.9,0.3-1.7,0.4-2.6c0.1-1,0.2-2.1,0.2-3.1c0.3-0.1,0.6-0.2,0.9-0.3
			c1.4,2,2.9,4.1,4.3,6.1c0.9-0.7,1.4-1,1.8-1.4c0.9-0.8,1.8-1.3,0.8-2.9c-0.5-0.8,0.1-2.4,0.1-3.6h0.8c0.5,0.6,1,1.3,1.6,1.9
			c0.4-0.5,0.7-0.9,1.1-1.3c0.2,0.1,0.5,0.2,0.5,0.3c1,5.3,1.9,10.7,2.8,16.1c0.4,2.5-1.4,3.5-3.4,4.3c-0.4-0.5-0.8-1-1.5-1.9
			c0,3.3-1.6,4.8-4.4,5c0.1-0.7,0.3-1.4,0.4-2c-0.6,0.1-1.3,0.5-1.6,0.3c-2.1-1.2-4.3,0.3-6.4-0.5c-0.5-0.2-0.9-0.8-1-1.3
			c-0.9-2.5-1.6-5.1-2.8-7.6c-0.8-1.6-2.1-2.9-3.2-4.4c-0.5-0.7-0.9-1.5-1.4-2.3C74.1,20.5,74.3,20.3,74.5,20z M62,27.3
			c3,3.1,5.9,6.2,8.7,9c-1.5,0.3-2.7-0.4-4.7-2.6c-3-3.2-6.2-6.3-9.4-9.4c-0.9-0.8-2.2-1.2-3.3-1.9C56.9,23,59.6,24.8,62,27.3z
			 M49.6,31.7c0.7,0.4,1.7,1,2.8,1.4c0.7,0.3,1.6,0.1,2.4,0.1c0-0.7,0-1.4-0.1-2.1c-0.1-0.8-0.2-1.6-0.3-2.3c0.7,0.5,1.4,1,2,1.5
			c1.8,1.6,2.2,4.7,5.5,4.8c0.6,0,1.6,1.6,1.6,2.4c0,0.8-1.1,1.5-1.7,2.3c-0.7,0.8-1.5,1.6-2.2,2.4c-0.4,0.4-0.8,1.2-1.2,1.2
			c-2.1,0.2-4.1,0.2-6.2,0.2c-0.2,0-0.4-0.7-0.5-1h0.1c-0.4-0.4-0.8-0.8-1.2-1.2c-0.9-1.1-1.8-2.1-2.6-3.1c-0.1-0.1-0.2-0.1-0.2-0.2
			C48.2,36,48.9,33.9,49.6,31.7z M31.9,124.8c2.4-0.3,4.6-0.5,6.1-0.7v9C34.8,130.8,33.2,127.8,31.9,124.8z M50.4,193.2
			c-1.1-1.9-3.1-3.2-4.5-4.9c-3.7-4.6-3.6-9.9-2.7-15.6l1.5,2.1c0.9,1.2,1.8,2.8,3.5,1.9c0.9-0.4,1.5-1.9,1.8-3
			c1-4.2-0.8-7.6-3.2-10.8c-3.4-4.5-6.8-9-10.1-13.6c-2.1-3-1.5-6.1,1.1-8.1c2.2-1.6,5.7-0.9,7.8,1.6c0.5,0.6,1.1,1,1.9,1.3
			c-0.4-0.9-0.8-1.8-1.4-3c2.5-0.2,4.7-0.1,6.9-0.5c2.1-0.4,4.4-1,6-2.2c3.6-2.8,7.7-3.4,11.9-4.1c1.4-0.2,2.2,0.3,1.9,1.9
			c-1.7,7.9-2.1,16.2-5,23.9c-0.5,1.2-0.2,2.7-0.2,4.1c0,1.3,0.6,2.7,0.2,3.9c-1.8,5.4-3.2,11-5.8,15.9c-1.9,3.6-0.8,7-1.3,10.5
			c-0.3,2.1,1.4,3.6,3.6,4.2c5.3,1.6,10.6,3.2,15.9,5c0.9,0.3,1.6,0.9,2.6,1.5c-2.3,2.3-4.2,4.2-6.5,6.5c-0.3-0.7-0.8-1.3-0.7-1.9
			c0.2-2.3-1.3-2.6-3-2.6C62.2,207,55.4,201.7,50.4,193.2z M48.1,131.4c1.6-0.9,3.1-1.8,4.4-2.5c1.2,1.8,2.3,3.3,3.6,5.2
			c-2.7-0.6-5.3-1.1-7.9-1.7C48.2,132,48.1,131.7,48.1,131.4z M62,132.5c0.4-1.8,0.7-3.3,1.1-5.2c1.5,1.1,2.5,1.8,3.9,2.9
			C65.2,131.1,63.8,131.7,62,132.5z M73.2,164c-0.4,0.2-0.9,0.5-1.3,0.7c-0.8-0.9-2.1-1.7-2.3-2.8c-0.5-2.4,0.8-4.3,2.1-6.2
			c0.3,0,0.6,0.1,0.9,0.1C72.8,158.6,73,161.3,73.2,164z M67.2,233.5c-1.3-3-1.1-8.4,0-9.5V233.5z M69.6,240.1c1,2.6,2.7,4.9,2.7,8
			l-3.7-7.6C68.9,240.4,69.3,240.2,69.6,240.1z M99,251c-8.1,0.4-16.3,1.3-24.4,0.1c-1.9-0.3-2-1.5-2.3-2.8
			c3.6,0.1,7.2,0.3,10.7,0.3c4.8,0,9.6,0.4,14.4-0.2c3-0.3,5.8-0.8,8.9,1.2C103.6,250.1,101.3,250.9,99,251z M104,238.9
			c-1.7-2-3.3-3.8-4.9-5.6c3.3-0.8,6.7-1.6,10.7-2.5C107.7,233.7,105.9,236.2,104,238.9z M101.9,227.1c-6.8,0.3-13.8-0.8-18.4-7.2
			c-0.6-0.8-1.6-1.4-2.5-1.9c-2.2-1.1-3.3-2.9-4-5.5c4.5-1.2,8.9-2.3,13.3-3.6c4.6-1.3,9.8-1.4,13.3-5.4c0.8-0.9,1.5-2,2.5-3.6
			c-2.8,0-4.9-0.1-7,0c-2.6,0.2-5.2,0.6-7.8,0.9c-7.7,1-14.2-2-20.9-5.6c3.1-0.7,5.9-2.1,8.6-1.9c7.2,0.6,13.7-1.9,20.5-3.1
			c2.3-0.4,4.6-0.6,7-0.8c3.7-0.3,7.4-0.5,11.1-0.7c0.7,0,1.4,0.5,2,0.8c2,0.9,4.1,1.9,6.1,2.8c0.2-0.3,0.4-0.6,0.6-0.9
			c-0.6-0.8-1-1.8-1.7-2.3c-3-2.3-6.2-3.6-10.4-3.1c-3.1,0.4-6.4-1.2-9.6-2c-4.6-1.1-9.1-2.2-13.7,0.6c-1.2,0.8-3.2,0.4-4.8,0.5
			c-2.6,0.1-5.2,0.5-7.7,0.1c-4.4-0.7-8,1.3-11.7,3c-0.1-0.3-0.2-0.5-0.3-0.8c3.1-1.4,6.1-2.9,9.3-4.1c2.7-1,5.6-1.4,8.3-2.3
			c1-0.3,2.5-1.3,2.6-2.1c0.1-1.6-0.4-3.3-1.1-4.7c-0.2-0.4-2-0.1-3.1,0.2c-1.8,0.4-3.6,0.9-5.9,1.6c1-2.8,1.8-4.7,2.6-6.8
			c0.9,0.6,1.7,1.2,2.5,1.7c3,1.7,5.9,2.3,9.1,0.5c2-1.1,4.3-2.2,6.6-2.3c5.8-0.5,7.5-4.6,9-9.1c0.2-0.7,0.3-1.5,0.5-2.8
			c5.4,5.1,10.5,9.9,14.1,16.1c-3.5-10.8-12.1-17.6-19.4-25.4c-0.3,0.1-0.6,0.3-0.9,0.4c0.3,1.4,0.5,2.8,1.1,4.1
			c1,2.3,0.6,4.4-1.3,5.9c-1.9,1.5-4,3.3-6.2,3.6c-4.1,0.6-8.3,0.6-12.4-0.1c-5.2-0.8-7.1-4-6.6-9.3c-2.4-0.5-1.9-2.1-1.4-3.7
			c0.3-1.2,0.9-2.4,0.7-3.5c-1.4-6.9,0.4-13.5,1.7-20.1c0.7-3.6,0.8-6.8-1.6-9.6c0.1-0.3,0.1-0.5,0.2-0.7c0.4-0.9,0.9-1.7,1.3-2.6
			c-1.3-0.2-2.6-0.7-3.9-0.6c-5,0.4-10,1.1-15,1.3c-5.4,0.3-10.8-0.2-16.1,0.3s-7.9,4.1-7.7,9.4c0,0.2-0.1,0.4-0.2,0.7
			c-3.4-2.4-3.7-5.2-1.7-8.4c3.6-5.7,8.9-8.6,15-10.4c5.5-1.5,5.8-4.8,4.3-9.3c-0.7-2.2-2-4.2-3.2-6.6c1.2-0.7,2.7-1.5,4.2-2.4
			c-0.3-0.2-0.4-0.3-0.4-0.3c-6.3,3.6-8.8-1.5-11.4-5.3c-2.3-3.5-3.8-7.6-5.5-11.4c-4.4-9.8,6.1-22.2,14.9-22.5
			c1.6-0.1,3.1-0.4,4.7-0.6c3.6-0.4,6.5-2.2,9.1-4.7c1.3-1.3,3.1-2.4,4.8-2.7c4.4-0.8,9-1.4,13.3,0.6c4.9,2.3,9.3,1.3,13.5-1.5
			c1-0.7,2.2-1.1,3.1-2c3.2-3.1,6.5-3.1,10.4-1.2c7.2,3.5,13.7,7.5,18.3,14.3c1.1,1.6,2.6,3.1,4,4.4c3.4,3.1,5.5,6.9,6.9,11.2
			c2,6,4,12,5.9,18c1.9,5.9,3,12,5.6,17.5c2.3,5,5.3,9.5,5.8,15.2c0.3,3.8,2.7,6.6,5.6,9.1c1.3,1.1,2.2,2.7,3,4.2
			c1,1.8,0.7,3.5-0.9,5c-2,1.9-2.4,4.3-3.1,6.9c-0.6,2.4-0.4,4.5-0.1,6.8c0.2,1.4,1.3,2.3,2.4,1.4c2.9-2.4,6.4-4.5,6.8-8.9
			c0.1-1-0.3-2-0.8-3.1c-1.6,2.4-1.8,6.2-5.9,4.6c-0.7-0.3-0.9-1.7-1.4-2.8c2.9-0.4,5.2-0.8,6.4-3.9c-1.7,0.6-2.9,1.1-4.5,1.7
			c1.3-2.4,2.3-4.4,3.6-7c1.8,0,1.9-1.2,0.9-3.4c-0.8-1.8-0.7-3.9-1.4-5.8c-0.9-2.5-2.2-2.7-4.3-0.7c1.6-5.4,3-10.8,4.8-16.1
			c0.6-1.9,2-3.7,3.3-5.2c1.8-2,3.4-1.6,4.2,1c1.7,5.6,2.6,11.3,1.2,17.2c-1.3,5.6-2.4,11.2-3.6,16.8c-0.2,1.1-0.4,2.3-0.2,3.4
			c0.6,5.1-1.8,9.1-5.1,12.5c-1.1,1.1-2.9,1.7-4.5,2c-1.6,0.3-2.3,0.9-2.2,2.5c0.1,7.6,0.4,15.2,0.1,22.7c-0.1,2.9-1.3,6.3-3.9,7.9
			c-3.9,2.3-5.3,6-7.4,9.5c-2.7,4.5-5.4,8.9-8.3,13.2c-0.7,1-1.9,1.8-3.1,2.3c-2.6,1.3-5,2.6-6.2,5.6c-0.5,1.2-1.9,2-3,2.8
			C119.8,222.8,111.3,226.7,101.9,227.1z M154,193.9c1.8-4,3.6-8.1,5.4-12.1C159.8,186.6,157.1,190.3,154,193.9z M141.6,229.6
			c-3.7,2.3-6.9,5.2-10.4,7.8c-0.8,0.6-1.8,0.9-3.2,1.6c2.4-8.6,5.7-16.2,13-21.4c-0.2-0.2-0.4-0.4-0.6-0.7
			c-0.7,0.4-1.5,0.7-2.1,1.3c-6.4,5.1-9.3,12.1-11.4,19.7c-0.3,1.1-1,2.4-1.9,3c-2.7,1.8-5.6,3.4-8.4,5l-0.5-0.6
			c1.1-1.6,2.2-3.2,3.4-4.8c4.2-5.8,8.4-11.5,10.8-18.4c0.7-2,2.7-3.5,4.2-5.1c3.1-3.2,6.4-6.3,9.6-9.5c1-1,2.3-1.7,3.3-2.7
			c5.4-4.9,10.3-10.2,13.1-17.1c0.2-0.4,0.5-0.7,0.8-1.3c2.6,2.9,4.6,5.8,3.2,9.9c-1.8,5-2.8,10.6-5.8,14.7
			C153.8,217.9,149,224.9,141.6,229.6z M162.5,247.8c-0.2,0.1-0.4,0.3-0.6,0.4c-2.8-3.5-5.5-7.1-8.2-10.5c4-4.8,7.7-9.2,11.4-13.6
			c0.2,0.1,0.5,0.2,0.7,0.3C164.7,232.2,163.6,240,162.5,247.8z"/>
		<polygon points="136.7,42 136.8,42 136.8,42 		"/>
	</g>
</g>
</svg>
