<?xml version="1.0" encoding="utf-8"?>
<!-- Generator: Adobe Illustrator 20.0.0, SVG Export Plug-In . SVG Version: 6.00 Build 0)  -->
<svg version="1.1" id="Слой_1" xmlns="http://www.w3.org/2000/svg" xmlns:xlink="http://www.w3.org/1999/xlink" x="0px" y="0px"
	 viewBox="0 0 379.6 366.8" style="enable-background:new 0 0 379.6 366.8;" xml:space="preserve">
<style type="text/css">
	.st0{fill:#002469;}
</style>
<g>
	<path class="st0" d="M275.6,325.8c4.2-1.9,8.7-2.7,13.2-2.9c-0.5-0.6-1-1.2-1.6-1.9c-4.7-5.5-10-10.1-17-12.6
		c-9-3.2-18.2-3.6-27.6-2.3c-1.2,0.1-1.6-0.1-1.7-1.2c-0.6-6.9-1.6-13.8-1.8-20.7c-0.3-10.2-0.1-20.4,0-30.6
		c0.1-1.8,0.4-3.8,1.1-5.4c2.3-5,5.1-9.8,7.2-14.9c4.4-10.8,6.8-22.1,7.6-33.7c0.2-0.1,0.5-0.3,0.7-0.3c5.8-0.6,8.9-4.1,10.3-9.3
		c1-3.8,1.8-7.8,2-11.7c0.4-7.2,0.4-14.5,0.4-21.7c0-2.7,0.5-5.2,1.4-7.7c5.7-15.2,8.5-31,6.9-47.2c-0.9-9-2.5-18-4.1-26.9
		c-2.6-14.2-8.4-26.8-19.2-36.7c-0.4-0.4-0.5-1.2-0.5-1.8v-5.5c0-0.1-0.1-0.1-0.2-0.1c-0.6,1.5-1.3,3.1-1.9,4.7
		c-0.6-0.5-0.9-1-0.9-1.5c0-0.8,0.2-1.6,0-2.3c-1.2-3.5-3.4-6.4-6-9.6c2.7,7.5,2.7,7.5,1.5,9.2c-10.4-7.8-21.9-13.9-34-18.7
		c-14.7-5.8-29.9-10.2-45.7-12.1c-6.6-0.8-13.1-1-19.6,1.1c-20,6.4-37.3,17.1-52.1,32c-7.4,7.5-13.7,15.8-17.2,25.8
		C72,73,67.5,86.8,63.2,100.6c-2.3,7.5-3.5,15.2-3.3,23c0.1,6.5,0.5,13.1,0.6,19.6c0.1,7.9-0.2,15.8,0.4,23.6
		c0.4,5,1.6,10.1,3.2,14.9c2.4,7,7.9,11.6,14.2,15.2c1.2,0.7,2.5,1.9,3.2,3.1c5.4,9,10.6,18.2,15.9,27.3c1.2,2.1,2.9,4,3.6,6.3
		c2.2,7.5,4.1,15.2,6,22.8c2.3,9.2,3.9,18.5,3.6,28.1c-0.1,4.1-0.4,8.2-0.8,12.3c-0.1,2.1-0.6,4.3-0.9,5.9c-1.5,0.5-2.8,0.6-3.7,1.2
		c-2.6,1.8-3.9,4-3.5,7.4c0.6,4.5,0.1,4.3-3.3,4.7c-1,0.1-1.9,0.3-2.9,0.3c-5.9-0.1-11.7-0.3-17.6-0.4c-4.9-0.1-9.8,0.1-14.5,1.5
		c-1.2,0.3-2.3,0.8-3.4,1.3c0.2,0.4,0.4,0.8,0.4,1.3c2.6,0.6,5,2.2,6.7,5.4c0.4,0.7,0.6,1.6,0.5,2.5c1.7,1.1,3.1,2.5,3.9,4.2
		c0.2,0,0.3,0.1,0.5,0.1c2.2,0.3,3,2.3,2.8,4.2c3.2,0.6,6.3,1.2,9.3,2.8c5.2,2.7,10.2,5.6,15.5,8.1c1.2,0.6,1.8,1.8,1.9,3
		c4.1,0.8,8.2,1.3,12.1,3c1.8,0.8,2.3,2.8,1.8,4.5c3.7,2.2,7.8,3.7,11.9,5.1c1.2,0.4,2,1.2,2.4,2.1c0.1,0.1,0.2,0.1,0.3,0.2
		c1.6-0.2,3.2-0.3,4.8-0.3c2.7,0,5.4,0.3,7.9,0.8c0.3-0.2,0.7-0.3,1-0.5c1.5-0.8,3.2-0.6,4.4,0.2c0.5-0.1,1.1-0.2,1.7-0.3
		c1.5-0.2,2.6,0.6,3.3,1.8c1,0,2,0,2.9,0c0.9-0.3,1.8-0.5,2.7-0.6c1.1-0.2,2.4,0.1,3.3,0.6c6.4,0,12.8,0,19.2,0
		c1.3-2,4.3-2.9,6.2-1.6c0.1-0.1,0.2-0.1,0.4-0.2c2.3-1.1,4.6-0.2,5.6,1.7c0.9,0,1.7,0,2.6,0c0.5-0.4,1-0.7,1.5-1.1
		c1.5-1.3,3.4-1.4,4.8-0.6c2.7-1,5.5-1.5,8.5-1.9c2.1-0.3,3.7,0.4,4.6,2c0.8-0.3,1.7-0.6,2.5-0.8c0.7-0.3,1.3-0.5,1.9-0.8
		c0.9-0.4,1.9-0.5,2.8-0.4c0.4-0.5,0.8-1.1,1.2-1.6c0.9-1.3,2.1-1.9,3.4-1.9c0,0,0,0,0.1,0c2.1-1,4.4-0.2,5.5,1.4
		c0.3-0.1,0.7-0.2,1-0.3c1.4-0.4,2.9,0.1,3.9,1c0.1,0,0.1-0.1,0.2-0.1c0.9-0.6,2.1-0.7,3.2-0.4c1.1-0.2,2.2-0.4,3.3-0.6
		c0.1-1.8,1.4-3.6,3.9-3.9c1.3-0.2,2.7-0.3,4.1-0.5c-0.2-1.8,0.7-3.6,2.9-4.1c2.8-0.6,5.7-0.8,8.6-1c0.5-0.7,1.1-1.2,2-1.5
		c-1.2-1.5-1.5-3.5,0.3-5.1c0.5-0.4,1.1-0.8,1.6-1.2c0.2-1.1,0.9-2.2,1.9-2.8c1.3-0.7,2.7-1.4,4-2.1c-1.3-1.8-0.7-4.8,1.3-5.9
		c0,0,0.1-0.1,0.1-0.1C273.2,330.7,272.9,327,275.6,325.8z M98.2,216.7c-1-5.9-2.6-11.8-4-17.6c-0.2-0.7-0.5-1.2-0.8-1.8
		c-0.9-1.6-2-2-3.3-0.8c-3.5,3.2-6.7,2.2-9.9-0.2c-3.4-2.6-6.8-5.2-10-7.9c-4.6-3.9-6.1-9.2-7.1-14.8C61.3,163.5,62,153.2,62,143
		c0-3.6,5.4-8.7,9-8.4c1.2,0.1,2.5,0.9,3.4,1.8c3.2,3.4,3.9,8,5.3,12.2c1,3,2.1,6,3.2,9c0.5,1.4,1.4,1.4,2.5,0.5
		c3.2-2.6,4.2-2.1,5.2,1.9c1.6,6.7,3.5,13.2,5.3,19.8c0.1,0.4,0.3,0.7,0.6,1.3c1-4.1,1.8-8.2,2.9-12.2c1.9-6,3.9-11.9,6.3-17.6
		c2.7-6.6,3.9-13.5,4.8-20.5c1.6-12.9,5.5-24.8,14.6-34.5c7-7.5,12.9-15.7,19-23.9c10.9-14.6,25.2-24,43.3-26.8
		c5.8-1,11.8-1.5,17.7-1.1c8.5,0.6,16.1,4.2,23.1,9.2c9.2,6.7,14.4,15.9,18,26.3c3.8,10.8,6.3,21.9,7.9,33.2
		c1,6.8,1.9,13.7,2.6,20.6c0.5,4.5,0.6,9,0.8,13.5c0.3,8.2,0.5,16.4,1.1,24.8c2.7-5.1,5.5-10.2,8.3-15.4c0,2.9,0.1,5.7,0,8.5
		c-0.3,5.4-0.6,10.8-1.1,16.2c-0.4,4.5-1.2,8.8-3.7,12.7c-1.5,2.5-4,3-6.5,3.7c-0.2,0.1-0.6-0.5-1.1-0.9c-0.7,4-1.6,7.8-2.2,11.7
		c-2.9,17.8-10.4,33.6-21.1,48c-5.3,7.2-11.1,13.8-17.6,19.8c-8.9,8.2-18.6,15.2-30.7,18.2c-6.1,1.5-11.5-0.3-16.8-2.6
		c-8.3-3.5-15.6-8.6-22.7-14.1c-8-6.2-15.7-12.9-22.1-20.7c-6.2-7.6-11.4-15.9-17.4-23.6C99.8,228.5,99.2,222.6,98.2,216.7z
		 M237.8,314.4c-1.8,7.8-7,13.4-13.5,17.7c-7.5,5.1-16,8-24.9,9.6c-7.5,1.4-15.1,2.5-22.7,2.6c-12.2,0.2-24.1-2-35.4-6.9
		c-6.6-2.9-12.9-6.4-17.8-11.9c-3.3-3.6-6.3-7.5-9.4-11.3c-0.7-0.8-1.4-1.7-2.2-2.4c-1.4-1.2-1.4-2.6-1.2-4.2
		c1.5-10.2,2.4-20.5,1.9-30.8s-3.8-20-6.3-29.8c-0.8-3.1-1.8-6.2-2.6-9.4c2.2,3,4.5,6,6.7,9c8.1,10.8,17.1,20.7,27,29.8
		c6.2,5.7,12.9,10.9,20.4,14.9c6.8,3.6,14,6.2,22,5.7c4.5-0.3,8.6-1.9,12.6-3.7c10.4-4.8,19.8-11.2,27.6-19.7
		c6-6.6,11.4-13.8,16.8-20.4c0.2,8.6,0.3,17.5,0.5,26.2c0.3,7.8,0.7,15.6,0.9,23.4C238.2,306.6,238.7,310.7,237.8,314.4z"/>
	<path class="st0" d="M112.2,126.3c0-4.2,1.9-6.7,4.9-8.5c5.5-3.3,11.4-5.4,18-4.8c3.2,0.3,6.5,0,9.6,0.4
		c8.1,0.9,14.3,5.4,19.4,11.6C146.8,119.2,129.5,117.1,112.2,126.3z"/>
	<path class="st0" d="M240.1,138.1c-2.2,4.7-6,7.1-10.7,8.2c-8.3,1.8-16.1,0.5-23.6-3.4c-0.3-0.2-0.7-0.3-1-0.5
		c-4.4-2.8-4.6-4.9-1.1-8.8c4.1-4.6,9.5-6.1,15.4-6.5C228.2,126.5,234.4,131.8,240.1,138.1z M204,137.8c4.6,6.8,22.7,9,27.4,4.7
		c-3.5-2.8-3.5-5.2,0.1-8.1C221.4,128.3,212.8,128.6,204,137.8z M233,137.1c-0.6,0.8-1.4,1.5-1.3,1.7c0.3,0.6,0.9,1.2,1.6,1.4
		c0.2,0.1,1.2-0.8,1.2-1.1C234.2,138.4,233.6,137.9,233,137.1z"/>
	<path class="st0" d="M246.3,124.8c-15.6-6-30.4-2-45,3c0.5-2.5,3.7-6,6.9-8.1c3.2-2.1,6.7-2.9,10.4-3.3c5.6-0.6,11.3-1,16.9-1.1
		C241.1,115.2,245.1,118.9,246.3,124.8z"/>
	<path class="st0" d="M168.3,140.7c-3.9,2.5-7.9,3.9-12.1,4.4c-10.1,1.3-19.2-2-28.1-6.2c-1.3-0.6-1.1-1.3-0.6-2.3
		c2.5-4.6,6.2-7.7,11.3-8.8c3.4-0.7,6.8-1.2,10.3-1.5c7.3-0.6,12.6,2.9,16.3,8.9C166.5,137,167.3,138.8,168.3,140.7z M159.1,142.6
		c-2.1-1.3-3.4-2.7-3-5c0.4-2.2,1.9-3.5,4.1-4.1c-2.7-3.3-6-5.3-10.2-4.8c-4.1,0.5-8.2,1.3-12.1,2.5c-2,0.6-3.8,2.4-5.1,4.1
		c-2,2.6-1.7,3.2,1.3,4.4c0.4,0.2,0.8,0.3,1.2,0.5C142.9,143.2,150.5,145,159.1,142.6z M160.6,136.3c-0.6,0.9-1.2,1.6-1.1,1.8
		c0.3,0.6,0.9,1,1.5,1.3c0.1,0.1,1-0.8,1-1.1C161.9,137.7,161.3,137.2,160.6,136.3z"/>
	<path class="st0" d="M218.2,206.7c0,2.9-2,4-3.5,5.2c-4.8,3.9-10.6,5.6-16.6,6.8c-7.3,1.5-14.7,2.3-22.2,1.9
		c-6.5-0.4-12.6-2.3-18.5-4.8c-3.8-1.6-7.5-3.6-11.4-5.5c-1,1.2-0.9,2.8-0.3,4.3c0.5,1.3,1.2,2.5,1.7,3.9c0.2,0.4-0.1,1-0.2,1.5
		c-0.5-0.2-1.3-0.2-1.5-0.5c-1.5-2.8-2.7-5.9-2.2-9.2c0.4-2.4,4-3.7,6.3-2.4c-0.5,0.4-1,0.8-1.7,1.3c6.8,2.9,13.1,6.7,20.3,7.9
		c14.4,2.3,28.4,1.1,41.7-5.2c1.9-0.9,3.6-2.5,5.4-3.7C216.4,207.7,217.2,207.3,218.2,206.7z"/>
	<path class="st0" d="M148.1,270.3c1.7,1.2,3.4,2.5,5.1,3.7c8,5.4,16.6,9,26.4,8.7c6.4-0.2,12.3-2.3,17.9-5.3
		c2.2-1.1,4.2-2.6,6.3-3.8c1-0.6,2.2-0.9,3.3-1.3c0.2,0.3,0.4,0.6,0.6,0.9c-0.9,1-1.7,2.1-2.7,2.9c-8.7,7.1-19,9.1-30,8.6
		c-6.4-0.3-12.4-1.6-18-4.7c-4-2.2-6.7-5.7-9.4-9.2C147.8,270.6,147.9,270.4,148.1,270.3z"/>
	<path class="st0" d="M180,189.2c-3.7,0.3-7.5,0.5-10.9-1.7c-1.5-1-2.2-3.4-1.5-4.6c0.9-1.5,2.3-2,4.4-1.1c1.8,0.7,3.7,1.4,5.2,2.6
		c1.4,1.1,2.3,2.7,3.4,4.1C180.4,188.7,180.2,188.9,180,189.2z"/>
	<path class="st0" d="M145.3,196.7c-0.9,0.4-1.8,0.8-2.8,1.2c-5,1.9-6.3,6.6-5.5,11c0.4,2.1,1.2,4,1.8,6.1c0.2,0.6,0.2,1.2,0.2,1.7
		c-0.2,0.1-0.4,0.2-0.5,0.2c-0.4-0.5-1-0.9-1.1-1.5c-1.1-3.2-2.3-6.4-3.1-9.6c-0.8-3.3,2.9-10.3,7.3-10.3c1.2,0,2.5,0.4,3.7,0.6
		C145.3,196.3,145.3,196.5,145.3,196.7z"/>
	<path class="st0" d="M168.1,170.1c-1,0.7-1.9,1.4-2.9,2c-3.5,2-4.4,5.4-4.5,9c-0.1,2.5,1.9,3.9,3.9,5.1c1.2,0.7,2.5,1.4,3.6,2.2
		c0.5,0.4,0.8,1.1,1,1.8c-3.6-1.1-6.9-2.5-9.6-5c-1.6-1.6-2.5-3.4-1.7-5.7c1.5-4.2,3.3-8.1,8-9.6c0.6-0.2,1.3-0.2,1.9-0.3
		C167.9,169.8,168,169.9,168.1,170.1z"/>
	<path class="st0" d="M67,143.7c0.8,6.8,2,13.7-0.5,20.7C63.6,161.5,64,148.4,67,143.7z"/>
	<path class="st0" d="M215.3,204.2c2.1-0.1,4.1-0.2,6.2-0.2c3.6,0,5.1,3,4.5,6.2c-0.7,4.4-2.1,8.7-3.2,13c-0.1,0.5-0.5,0.9-0.8,1.4
		c-0.2-0.1-0.5-0.1-0.7-0.2c0.2-1.3,0.5-2.6,0.7-3.8c0.6-3.1,1.5-6.1,1.8-9.2c0.3-3.5-2.3-5.9-5.8-5.9c-0.9,0-1.9-0.2-2.8-0.3
		C215.2,204.9,215.2,204.5,215.3,204.2z"/>
	<path class="st0" d="M230.2,208.3c-0.1-0.8-0.1-1.7-0.3-2.5c-0.7-2.1-1.2-4.3-2.4-6.1c-2-3.2-5.4-2.6-8.6-2.3
		c-2.3,0.2-4.6,0.5-6.9,0.8c-0.1-0.3-0.2-0.5-0.3-0.8c0.5-0.4,1-1.1,1.5-1.1c3.6-0.5,7.1-0.9,10.7-1.1c2.5-0.1,4.5,1.2,5.4,3.6
		c1.3,3.1,2.1,6.3,1.6,9.6C230.7,208.2,230.4,208.2,230.2,208.3z"/>
	<path class="st0" d="M195.1,164.8c6.4,2.6,15.2,10.8,12.8,14.6c-0.6-0.6-1.2-1.1-1.8-1.6c-1.5-1.6-2.9-3.2-4.4-4.7
		c-2-2.1-4-4.2-6-6.3C195.4,166.2,195.3,165.4,195.1,164.8z"/>
	<path class="st0" d="M173.2,211.2c-1.6-1.5-1.2-3.1-0.9-4.4c0.9-4.1,2-8,3.1-12c0.1-0.4,0.3-0.8,0.6-1c0.4-0.3,0.8-0.4,1.3-0.6
		c0.1,0.4,0.2,0.8,0.2,1.2c-1.1,5.1-2.2,10.2-3.3,15.3C174,210.2,173.6,210.6,173.2,211.2z"/>
	<path class="st0" d="M186.7,193.2c3,1.9,6.3,15.3,4.5,18.1C188.8,205.3,187.7,199.3,186.7,193.2z"/>
	<path class="st0" d="M195.3,187.7c0.6-3.8,3.9-4.8,6.4-5.2c1.5-0.2,1.4,1,1.6,1.9c0.4,1.6-0.2,3-1.6,3.3
		C199.7,188,197.5,187.7,195.3,187.7z"/>
</g>
</svg>
