<?xml version="1.0" encoding="utf-8"?>
<!-- Generator: Adobe Illustrator 19.1.1, SVG Export Plug-In . SVG Version: 6.00 Build 0)  -->
<svg version="1.1" id="Слой_1" xmlns="http://www.w3.org/2000/svg" xmlns:xlink="http://www.w3.org/1999/xlink" x="0px" y="0px"
	 viewBox="-1260 150.2 116.6 41" style="enable-background:new -1260 150.2 116.6 41;" xml:space="preserve">
<style type="text/css">
	.st0{fill:#D63D41;}
	.st1{fill:#FFFFFF;}
</style>
<path class="st0" d="M-1163.8,191.1h-75.7c-11.2,0-20.5-9.2-20.5-20.5l0,0c0-11.3,9.3-20.5,20.5-20.5h75.7
	c11.3,0,20.5,9.2,20.5,20.5l0,0C-1143.3,181.9-1152.5,191.1-1163.8,191.1z"/>
<g>
	<path class="st1" d="M-1213.3,174.7c-0.5,0.2-1.4,0.5-2.7,0.5c-2.8,0-5-1.8-5-5.1c0-3.2,2.1-5.3,5.3-5.3c1.3,0,2.1,0.3,2.4,0.4
		l-0.3,1.1c-0.5-0.2-1.2-0.4-2-0.4c-2.4,0-3.9,1.5-3.9,4.2c0,2.5,1.4,4.1,3.9,4.1c0.8,0,1.6-0.2,2.1-0.4L-1213.3,174.7z"/>
	<path class="st1" d="M-1209.2,166h-3.1v-1.1h7.5v1.1h-3.1v9h-1.3V166z"/>
	<path class="st1" d="M-1203.2,171.8l-1,3.2h-1.3l3.4-10.1h1.6l3.5,10.1h-1.4l-1.1-3.2H-1203.2z M-1199.9,170.8l-1-2.9
		c-0.2-0.7-0.4-1.3-0.5-1.8h0c-0.2,0.6-0.3,1.2-0.5,1.8l-1,2.9H-1199.9z"/>
	<path class="st1" d="M-1194.4,166h-3.1v-1.1h7.5v1.1h-3.1v9h-1.3V166z"/>
	<path class="st1" d="M-1187.6,164.9v3.8c0.3,0,0.9-0.1,1.2-0.1c2.1,0,3.9,0.9,3.9,3.1c0,0.9-0.3,1.6-0.8,2.2
		c-0.8,0.9-2.2,1.2-3.6,1.2c-0.9,0-1.6-0.1-2-0.1v-10.1H-1187.6z M-1187.6,174c0.3,0.1,0.6,0.1,1.1,0.1c1.5,0,2.7-0.7,2.7-2.3
		c0-1.6-1.3-2.2-2.7-2.2c-0.3,0-0.7,0-1.1,0.1V174z"/>
</g>
</svg>
