<?xml version="1.0" encoding="utf-8"?>
<!-- Generator: Adobe Illustrator 19.1.1, SVG Export Plug-In . SVG Version: 6.00 Build 0)  -->
<svg version="1.1" id="Слой_1" xmlns="http://www.w3.org/2000/svg" xmlns:xlink="http://www.w3.org/1999/xlink" x="0px" y="0px"
	 viewBox="-1260 150.2 116.6 41" style="enable-background:new -1260 150.2 116.6 41;" xml:space="preserve">
<style type="text/css">
	.st0{fill:none;stroke:#EAEAEA;stroke-miterlimit:10;}
	.st1{enable-background:new    ;}
	.st2{fill:#EAEAEA;}
</style>
<path class="st0" d="M-1163.8,191.2h-75.7c-11.2,0-20.5-9.2-20.5-20.5l0,0c0-11.3,9.3-20.5,20.5-20.5h75.7
	c11.3,0,20.5,9.2,20.5,20.5l0,0C-1143.3,182-1152.5,191.2-1163.8,191.2z"/>
<g class="st1">
	<path class="st2" d="M-1214.2,170.2h-1.3v4.3h-0.8v-9.2h0.8v4.2h1.2l3.6-4.2h1l-3.8,4.5l4.1,4.7h-1L-1214.2,170.2z"/>
	<path class="st2" d="M-1202.9,171.9h-4.2l-1,2.6h-0.8l3.5-9.2h0.7l3.5,9.2h-0.8L-1202.9,171.9z M-1206.9,171.2h3.7l-1.9-5
		L-1206.9,171.2z"/>
	<path class="st2" d="M-1197.7,170.2h-1.3v4.3h-0.8v-9.2h0.8v4.2h1.2l3.6-4.2h1l-3.8,4.5l4.1,4.7h-1L-1197.7,170.2z"/>
	<path class="st2" d="M-1190.3,171.9c0-0.5,0.1-0.9,0.2-1.2s0.4-0.7,0.8-1.1s0.7-0.7,0.8-0.9c0.1-0.2,0.2-0.4,0.3-0.6
		c0.1-0.2,0.1-0.4,0.1-0.7c0-0.5-0.1-0.9-0.4-1.2s-0.7-0.5-1.2-0.5s-0.9,0.1-1.2,0.4c-0.3,0.3-0.5,0.7-0.5,1.2h-0.8
		c0-0.7,0.2-1.2,0.7-1.7s1-0.6,1.8-0.6c0.7,0,1.3,0.2,1.7,0.6c0.4,0.4,0.6,1,0.6,1.7c0,0.5-0.1,0.9-0.3,1.3s-0.6,0.9-1.2,1.4
		c-0.5,0.4-0.7,1-0.7,1.8h-0.7L-1190.3,171.9L-1190.3,171.9z M-1190.4,174.1c0-0.1,0-0.3,0.1-0.4c0.1-0.1,0.2-0.2,0.4-0.2
		c0.2,0,0.3,0,0.4,0.2c0.1,0.1,0.1,0.2,0.1,0.4c0,0.1,0,0.3-0.1,0.4c-0.1,0.1-0.2,0.1-0.4,0.1c-0.2,0-0.3,0-0.4-0.1
		C-1190.4,174.3-1190.4,174.2-1190.4,174.1z"/>
</g>
</svg>
