<?xml version="1.0" encoding="utf-8"?>
<!-- Generator: Adobe Illustrator 19.1.1, SVG Export Plug-In . SVG Version: 6.00 Build 0)  -->
<svg version="1.1" id="Слой_1" xmlns="http://www.w3.org/2000/svg" xmlns:xlink="http://www.w3.org/1999/xlink" x="0px" y="0px"
	 viewBox="0 0 116.6 41" style="enable-background:new 0 0 116.6 41;" xml:space="preserve">
<style type="text/css">
	.st0{fill:none;stroke:#EAEAEA;stroke-miterlimit:10;}
	.st1{fill:#EAEAEA;}
</style>
<path class="st0" d="M96.1,41H20.4C9.2,41-0.1,31.8-0.1,20.5v0C-0.1,9.2,9.2,0,20.4,0h75.7c11.3,0,20.5,9.2,20.5,20.5v0
	C116.6,31.8,107.4,41,96.1,41z"/>
<g>
	<g>
		<path class="st1" d="M27.3,25h-0.7v-7.3h-4.4V25h-0.7v-7.8h5.7V25z"/>
		<path class="st1" d="M36.4,21.5c0,0.7-0.1,1.4-0.4,1.9c-0.2,0.5-0.6,1-1.1,1.3s-1,0.4-1.6,0.4c-0.9,0-1.7-0.3-2.2-1
			c-0.6-0.7-0.8-1.5-0.8-2.6v-0.8c0-0.7,0.1-1.3,0.4-1.9c0.3-0.5,0.6-1,1.1-1.3c0.5-0.3,1-0.4,1.6-0.4s1.1,0.1,1.6,0.4
			c0.5,0.3,0.8,0.7,1.1,1.2s0.4,1.1,0.4,1.8V21.5z M35.7,20.7c0-0.9-0.2-1.7-0.6-2.2s-1-0.8-1.8-0.8c-0.7,0-1.3,0.3-1.7,0.8
			C31.2,19,31,19.8,31,20.7v0.8c0,0.9,0.2,1.7,0.6,2.2c0.4,0.5,1,0.8,1.8,0.8c0.7,0,1.3-0.3,1.8-0.8c0.4-0.5,0.6-1.3,0.6-2.2V20.7z"
			/>
		<path class="st1" d="M45,24.5h0.8l0,2.5h-0.7V25h-5.9v1.9h-0.7v-2.5h0.5c0.4-0.4,0.7-1,1-1.8c0.2-0.8,0.4-1.7,0.4-2.6l0.1-2.8H45
			V24.5z M39.9,24.5h4.4v-6.7h-3L41.2,20c0,0.9-0.2,1.8-0.4,2.6C40.5,23.4,40.2,24,39.9,24.5z"/>
		<path class="st1" d="M49.1,21.8V25h-0.7v-7.8h2.7c0.8,0,1.5,0.2,1.9,0.6s0.7,1,0.7,1.7c0,0.7-0.2,1.3-0.7,1.7
			c-0.5,0.4-1.1,0.6-2,0.6H49.1z M49.1,21.3h2c0.6,0,1.1-0.2,1.5-0.5c0.3-0.3,0.5-0.7,0.5-1.3c0-0.5-0.2-1-0.5-1.3s-0.8-0.5-1.4-0.5
			h-2V21.3z"/>
		<path class="st1" d="M62.4,21.5c0,0.7-0.1,1.4-0.4,1.9s-0.6,1-1.1,1.3s-1,0.4-1.6,0.4c-0.9,0-1.7-0.3-2.2-1
			c-0.6-0.7-0.8-1.5-0.8-2.6v-0.8c0-0.7,0.1-1.3,0.4-1.9c0.3-0.5,0.6-1,1.1-1.3c0.5-0.3,1-0.4,1.6-0.4s1.1,0.1,1.6,0.4
			s0.8,0.7,1.1,1.2c0.3,0.5,0.4,1.1,0.4,1.8V21.5z M61.7,20.7c0-0.9-0.2-1.7-0.6-2.2s-1-0.8-1.8-0.8c-0.7,0-1.3,0.3-1.7,0.8
			c-0.4,0.5-0.6,1.3-0.6,2.2v0.8c0,0.9,0.2,1.7,0.6,2.2c0.4,0.5,1,0.8,1.8,0.8c0.7,0,1.3-0.3,1.8-0.8c0.4-0.5,0.6-1.3,0.6-2.2V20.7z
			"/>
		<path class="st1" d="M70,17.8h-4v2.8h1.9c0.5,0,1,0.1,1.4,0.3c0.4,0.2,0.7,0.4,0.9,0.8s0.3,0.7,0.3,1.2c0,0.7-0.2,1.2-0.7,1.6
			c-0.5,0.4-1.1,0.6-1.9,0.6h-2.6v-7.8H70V17.8z M66,21.2v3.3h1.9c0.6,0,1.1-0.2,1.4-0.4c0.3-0.3,0.5-0.7,0.5-1.2
			c0-0.5-0.2-0.9-0.5-1.2s-0.8-0.4-1.4-0.4H66z"/>
		<path class="st1" d="M79.4,25h-0.7v-3.7h-4.5V25h-0.7v-7.8h0.7v3.5h4.5v-3.5h0.7V25z"/>
		<path class="st1" d="M87,21.3h-3.7v3.2h4.2V25h-4.9v-7.8h4.8v0.6h-4.2v3H87V21.3z"/>
		<path class="st1" d="M94.6,21.3h-3.7v3.2h4.2V25h-4.9v-7.8h4.8v0.6h-4.2v3h3.7V21.3z"/>
	</g>
</g>
</svg>
