<?xml version="1.0" encoding="utf-8"?>
<!-- Generator: Adobe Illustrator 19.1.1, SVG Export Plug-In . SVG Version: 6.00 Build 0)  -->
<svg version="1.1" id="Слой_1" xmlns="http://www.w3.org/2000/svg" xmlns:xlink="http://www.w3.org/1999/xlink" x="0px" y="0px"
	 viewBox="0 0 116.6 41" style="enable-background:new 0 0 116.6 41;" xml:space="preserve">
<style type="text/css">
	.st0{fill:#D63D41;}
	.st1{fill:#FFFFFF;}
</style>
<path class="st0" d="M96.1,41H20.4C9.2,41-0.1,31.8-0.1,20.5v0C-0.1,9.2,9.2,0,20.4,0h75.7c11.3,0,20.5,9.2,20.5,20.5v0
	C116.6,31.8,107.4,41,96.1,41z"/>
<g>
	<g>
		<path class="st1" d="M26.1,18.3c0-0.4-0.2-0.7-0.5-1c-0.3-0.2-0.7-0.4-1.3-0.4c-0.5,0-0.8,0.1-1.2,0.4s-0.5,0.6-0.5,0.9h-1.6
			c0-0.5,0.1-1,0.4-1.3c0.3-0.4,0.7-0.7,1.2-0.9c0.5-0.2,1-0.3,1.6-0.3c1.1,0,1.9,0.2,2.5,0.7c0.6,0.5,0.9,1.1,0.9,1.9
			c0,0.4-0.1,0.8-0.4,1.2s-0.6,0.6-1.1,0.8c0.5,0.2,0.9,0.4,1.2,0.8c0.3,0.4,0.4,0.8,0.4,1.3c0,0.8-0.3,1.5-1,2
			c-0.6,0.5-1.5,0.7-2.5,0.7c-0.7,0-1.2-0.1-1.8-0.3c-0.5-0.2-0.9-0.6-1.2-1C21.1,23.4,21,23,21,22.5h1.6c0,0.4,0.2,0.7,0.5,1
			c0.3,0.3,0.7,0.4,1.3,0.4c0.6,0,1-0.1,1.4-0.4c0.3-0.3,0.5-0.6,0.5-1c0-0.5-0.2-0.9-0.5-1.1C25.5,21.1,25,21,24.4,21h-1.1v-1.3h1
			C25.5,19.7,26.1,19.2,26.1,18.3z"/>
		<path class="st1" d="M36.1,22.9h-3.6L31.7,25h-1.7l3.5-9.2H35l3.5,9.2h-1.7L36.1,22.9z M32.9,21.6h2.7l-1.3-3.8L32.9,21.6z"/>
		<path class="st1" d="M43.8,21.1h-1.1v4h-1.6v-9.2h1.6v3.9h0.9l2.7-3.9h2l-3.2,4.4l3.5,4.8h-1.9L43.8,21.1z"/>
		<path class="st1" d="M56.2,22.9h-3.6L51.9,25h-1.7l3.5-9.2h1.4l3.5,9.2H57L56.2,22.9z M53.1,21.6h2.7l-1.3-3.8L53.1,21.6z"/>
		<path class="st1" d="M65.9,18.3c0-0.4-0.2-0.7-0.5-1c-0.3-0.2-0.7-0.4-1.3-0.4c-0.5,0-0.8,0.1-1.2,0.4c-0.3,0.2-0.5,0.6-0.5,0.9
			h-1.6c0-0.5,0.1-1,0.4-1.3c0.3-0.4,0.7-0.7,1.2-0.9c0.5-0.2,1-0.3,1.6-0.3c1.1,0,1.9,0.2,2.5,0.7c0.6,0.5,0.9,1.1,0.9,1.9
			c0,0.4-0.1,0.8-0.4,1.2s-0.6,0.6-1.1,0.8c0.5,0.2,0.9,0.4,1.2,0.8c0.3,0.4,0.4,0.8,0.4,1.3c0,0.8-0.3,1.5-1,2
			c-0.6,0.5-1.5,0.7-2.5,0.7c-0.7,0-1.2-0.1-1.8-0.3c-0.5-0.2-0.9-0.6-1.2-1s-0.4-0.9-0.4-1.4h1.6c0,0.4,0.2,0.7,0.5,1
			c0.3,0.3,0.7,0.4,1.3,0.4c0.6,0,1-0.1,1.4-0.4s0.5-0.6,0.5-1c0-0.5-0.2-0.9-0.5-1.1c-0.3-0.2-0.7-0.4-1.3-0.4h-1.1v-1.3h1
			C65.3,19.7,65.9,19.2,65.9,18.3z"/>
		<path class="st1" d="M75.8,22.9h-3.6L71.5,25h-1.7l3.5-9.2h1.4l3.5,9.2h-1.7L75.8,22.9z M72.7,21.6h2.7L74,17.8L72.7,21.6z"/>
		<path class="st1" d="M86.8,17.1h-2.9V25h-1.6v-7.9h-2.9v-1.3h7.3V17.1z"/>
		<path class="st1" d="M91.2,19.3h1.9c0.7,0,1.3,0.1,1.8,0.3s0.9,0.6,1.1,1c0.3,0.4,0.4,0.9,0.4,1.5c0,0.9-0.3,1.6-0.9,2.1
			S94.2,25,93.2,25h-3.5v-9.2h1.6V19.3z M91.2,20.6v3.1h1.9c0.5,0,1-0.1,1.3-0.4s0.5-0.7,0.5-1.2c0-0.5-0.1-0.8-0.4-1.1
			c-0.3-0.3-0.7-0.4-1.2-0.4H91.2z"/>
	</g>
</g>
</svg>
