<?xml version="1.0" encoding="utf-8"?>
<!-- Generator: Adobe Illustrator 19.1.1, SVG Export Plug-In . SVG Version: 6.00 Build 0)  -->
<svg version="1.1" id="Слой_1" xmlns="http://www.w3.org/2000/svg" xmlns:xlink="http://www.w3.org/1999/xlink" x="0px" y="0px"
	 viewBox="0 0 116.6 41" style="enable-background:new 0 0 116.6 41;" xml:space="preserve">
<style type="text/css">
	.st0{fill:none;stroke:#1E1E1E;stroke-miterlimit:10;}
	.st1{fill:#1E1E1E;}
</style>
<path class="st0" d="M96.1,41H20.4C9.2,41-0.1,31.8-0.1,20.5v0C-0.1,9.2,9.2,0,20.4,0h75.7c11.3,0,20.5,9.2,20.5,20.5v0
	C116.6,31.8,107.4,41,96.1,41z"/>
<g>
	<g>
		<path class="st1" d="M31,22.6c-0.1,0.8-0.4,1.5-0.9,1.9c-0.5,0.4-1.2,0.7-2,0.7c-0.6,0-1.1-0.1-1.5-0.4c-0.4-0.3-0.8-0.7-1-1.2
			c-0.2-0.5-0.4-1.1-0.4-1.8v-1c0-0.7,0.1-1.3,0.4-1.8s0.6-1,1.1-1.2c0.5-0.3,1-0.4,1.6-0.4c0.8,0,1.5,0.2,2,0.7
			c0.5,0.5,0.8,1.1,0.8,1.9h-0.7c-0.2-1.3-0.9-2-2.2-2c-0.7,0-1.3,0.3-1.7,0.8c-0.4,0.5-0.6,1.3-0.6,2.2v1c0,0.9,0.2,1.6,0.6,2.2
			c0.4,0.5,1,0.8,1.7,0.8c0.7,0,1.2-0.2,1.6-0.5s0.6-0.8,0.6-1.5H31z"/>
		<path class="st1" d="M33.9,17.2h0.7v7.3H39v-7.3h0.7v7.3h0.8l0,2.5h-0.6V25h-5.9V17.2z"/>
		<path class="st1" d="M47.5,21.3h-3.7v3.2H48V25h-4.9v-7.8H48v0.6h-4.2v3h3.7V21.3z"/>
		<path class="st1" d="M56.5,25h-0.7v-3.7h-4.5V25h-0.7v-7.8h0.7v3.5h4.5v-3.5h0.7V25z"/>
		<path class="st1" d="M64.1,22.8h-3.5L59.8,25h-0.7l3-7.8h0.6l3,7.8h-0.7L64.1,22.8z M60.8,22.3h3.1L62.4,18L60.8,22.3z"/>
		<path class="st1" d="M68.8,21.8V25h-0.7v-7.8h2.7c0.8,0,1.5,0.2,1.9,0.6s0.7,1,0.7,1.7c0,0.7-0.2,1.3-0.7,1.7
			c-0.5,0.4-1.1,0.6-2,0.6H68.8z M68.8,21.3h2c0.6,0,1.1-0.2,1.5-0.5c0.3-0.3,0.5-0.7,0.5-1.3c0-0.5-0.2-1-0.5-1.3s-0.8-0.5-1.4-0.5
			h-2V21.3z"/>
		<path class="st1" d="M81.3,17.2H82V25h-0.7v-6.7L76.9,25h-0.7v-7.8h0.7v6.7L81.3,17.2z"/>
		<path class="st1" d="M90.5,17.2h0.7V25h-0.7v-6.7L86,25h-0.7v-7.8H86v6.7L90.5,17.2z M89.8,15.3c0,0.4-0.1,0.7-0.4,1
			s-0.7,0.4-1.1,0.4c-0.5,0-0.8-0.1-1.1-0.4c-0.3-0.3-0.4-0.6-0.4-1h0.5c0,0.3,0.1,0.5,0.3,0.7c0.2,0.2,0.4,0.2,0.7,0.2
			s0.6-0.1,0.7-0.2c0.2-0.2,0.3-0.4,0.3-0.7H89.8z"/>
	</g>
</g>
</svg>
