<?xml version="1.0" encoding="utf-8"?>
<!-- Generator: Adobe Illustrator 20.0.0, SVG Export Plug-In . SVG Version: 6.00 Build 0)  -->
<svg version="1.1" id="Слой_1" xmlns="http://www.w3.org/2000/svg" xmlns:xlink="http://www.w3.org/1999/xlink" x="0px" y="0px"
	 viewBox="0 0 331.8 694.8" style="enable-background:new 0 0 331.8 694.8;" xml:space="preserve">
<style type="text/css">
	.st0{fill:#FFFFFF;}
</style>
<g>
	<path d="M185.4,395.2c1,0.1,2,0.1,2.5,0.2c-0.5-1.5-1-3-1.9-5.6c2.7,1.7,4.3,2.8,5.9,3.8c-0.3,0.1-0.6,0.3-0.9,0.4
		c0.9,2.4,1.8,4.8,2.6,6.9c2.9,0.5,5.6,0.9,8,1.3c1.6,2.1,3.1,4,4.6,5.9c0.3,0.2,0.5,0.3,0.8,0.5c0.5-0.4,1-0.7,1.5-1.1l0.3,0.1
		c0,0,0.4-0.1,0.4-0.1c0.6-0.5,1.1-1,1.8-1.4c0.4-0.2,1-0.2,1.5-0.4c0,0.4-0.2,1-0.1,1.1c1,0.7,2.1,1.9,3.2,1.9c3.7-0.1,3.6,0,6,0.9
		c3.2,1.2,6.6,2,10.5,3.1c-0.5-1.1-0.8-1.6-1.1-2.3c1.6,0,3.2,0.1,4.7,0c4.3-0.4,8.9,0.2,12.1-3.9c0.6-0.8,2.8-0.4,4.2-0.5
		c0.5,0.4,0.9,0.9,1.4,1.3c-0.7,1.5-2.1,3,0.7,4c0.5,0.2,0.9,1.6,0.7,2.3c-0.3,1-1.5,1.7-1.7,2.6c-0.7,3.7-3,6.4-5.2,9.2
		c-0.2,0.3,0.4,1.4,0.6,1.9c-5.8-0.1-7.8,5.7-11.9,9.8c0.1,0.7,0.4,2.4,0.8,4.4c-3.5,2.3-7.3,4.8-11.4,7.4c0,0.1,0.3,1,0.5,2
		c-0.4,0-0.6,0.1-0.7,0c-0.8-0.8-1.7-1.6-3.2-3.1c-1.4,2-2.9,4.6-4.9,6.7c-1.2,1.3-3,2.3-4.7,2.7c-3.1,0.8-3.7,1.3-3.5,3.8
		c-0.8,0-1.5,0-2.3,0c0,0.3,0,0.6-0.1,0.9c1.7,0.1,3.4,0.2,5.1,0.3c-5.9,1.1-11.5,3.4-17.3,4.6c-6.7,1.4-13.7,0.9-20.6,1
		c-6.6,0.1-13.3,1.3-19.3-1c-1.2,0.9-2.2,2.4-3.2,2.4c-1.8,0-3.5-0.9-5.6-1.6c0-0.1-0.3,0.8-0.9,2.1c-1.3-1-2.4-1.7-3.6-2.6
		c-1.6,4.3-4.7,0.9-7.1,1.2c-2.7,0.3-5.5-0.9-8.2-1.6c-1.8-0.5-3.6-1.1-5.2-1.9c-2.6-1.3-5.1-2.2-8.2-1c-3.3,1.4-12.7-1.6-15-4.3
		c-0.5-0.5-1.4-0.7-2.1-0.9c-2.1-0.5-4.3-0.8-6.4-1.3c-0.1,0,0-0.9,0-1.9c-4.6-1.7-4.6-1.7-5-4c-2.4-1.9-4.1-3.2-5.9-4.6
		c0.7-0.5,1.2-0.9,2-1.5c-4.6-0.8-4.7-4-4.2-7.3c0.2-0.2,0.4-0.4,0.7-0.6c0-0.3,0-0.7,0-1c0-0.2,0-0.4,0-0.6c-0.5,0-1,0-1.5,0
		c-4.2-0.6-5.7-4.4-8.1-7.1c-1.3-1.5-2.6-3-3.8-4.6c-0.8-1.2-1.1-2.7-1.8-3.8c-1.4-2.1-2.9-4.1-4.4-6c-1.3-1.7-2.8-3.3-4.2-4.9
		c-1.7-1.9-0.9-3.1,0.3-3.3c-2-2.4-4.1-4.8-6.5-7.7c2-0.5,3.7-0.9,5.4-1.3c0.1,0.3,0.2,0.7,0.3,1c0.4-0.7,0.7-2,1.1-2
		c5.5-0.6,5.7-5.8,7.3-9.1c2.3-4.7,5-8.6,9.5-11.2c2-1.1,1.6-4.8,5-4.2c0.9,0.1,2-0.3,2.7,0c3.5,1.7,6.9,1.1,10.2-0.2
		c7.6-3,15.1-3.1,22.5,0.7c-0.3,0.4-0.6,0.7-1,1.1c-0.4,0.3-0.9,1-1,1c-2.3-1.2-4.7-0.1-7-0.2c-3.1-0.1-6.2,0.3-9.2,0.6
		c-2.9,0.4-5.8,0.8-8.7,1.6c-1.5,0.4-2.7,1.5-4.4,2.5c0.1,0.5,0.3,1.7,0.5,3.4c-1.6-0.2-2.9-0.3-4.7-0.5c2.3,1.5,2.1,2.6,0.3,4.2
		c-2,1.8-3.8,4-5.1,6.3c-0.5,0.9,0.7,2.7,1,4c-1-0.1-2.6-0.4-4.3-0.6c-0.1,0.2-0.1,0.4-0.2,0.7c1.6,0.7,3.3,1.5,5,2.3
		c-1.2,1.5-2.4,3-4.2,5.2c3-1,5.5-2.6,7.9-2.4c2.5,0.2,4.8,2.2,7.1,3.4c2.1-2.4,2.3-7.1-0.3-10.4c2.4-0.2,4.2-0.4,6.3-0.6
		c0.2-0.8,0.4-1.9,0.7-3.2c2.3,0.5,4.9-0.7,6.4,2.2c0.2,0.4,2-0.2,3.1-0.3c-0.1-0.3-0.1-0.6-0.2-0.9c1.3,0.8,2.6,1.6,3.9,2.4
		c0.9-4.8,3.5-6,8.3-4.9c3.5,0.8,7.3,1.5,10.9,1.3c3.6-0.2,5.2,1,6.1,4.4c0.1-1.5,0.2-3.1,0.3-5.2c3.9,2.1,5.1,5.4,4.8,9.1
		c0.7-0.5,1.3-1,1.9-1.3c0,0,0.5,0.4,0.6,0.7c0.9,1.7,1.7,3.4,2.6,5.2c0.4-0.2,0.8-0.3,1.2-0.5c-0.6-2.2-0.9-4.5-1.8-6.6
		c-0.9-2.3-0.3-3.3,2.1-3.6c0.3,2.1,0.7,4.2,1.2,6.9c0.8-0.7,1.3-1.2,2.5-2.3c0.5,1.5,1.4,3.2,1.3,4.9c0,0.9-1.5,2-2.6,2.5
		c-1.7,0.8-3.6,2.2-5.1-0.5c-0.2-0.4-2.3-0.4-2.9,0.2c-2.7,2.2-5.3,4.7-7.3,6.6c-3.3-0.4-6.4-0.7-10.1-1.1c1.6-1.8,2.8-3.1,4.6-4.9
		c-5.5-0.8-8.6,2.1-11.3,4.7c-4.6,4.5-7.9,10.5-13.6,14c-0.6,0.4-1,1.3-1.2,1.6c-2.4-0.8-4.5-1.6-6.8-2.4c-1.2,1.2-2.7,2.8-4.7,4.8
		c0,0.2,0.2,1.3,0.4,2.8c1.8-0.4,3.6-0.8,5.1-1.2c-0.5-3,0.5-3.9,3.2-2.3c0.8,0.5,1.2,1.7,1.9,2.8c-2.6,2.4-5.3,5-8.2,7.8
		c0.6,0.9,1.3,1.9,1.8,2.8c3.7-2.4,7.3-4.8,10.9-7.2c-0.1-0.2-0.1-0.4-0.2-0.6c-1.3,0.4-2.6,0.8-4.1,1.3c1.6-2.9,3.2-5.8,4.7-8.6
		c0.4,0.7,0.8,1.4,1.2,2.1c0,0-0.1-0.1-0.1-0.1c-1.6,4.1-0.6,8.1,0.2,12.2c1-0.6,1.9-1.1,2.7-1.6c0.8-1.3,1.6-2.6,2.4-3.9
		c1.4-0.8,2.9-1.6,4.6-2.5c0-1.8,0-4.1,0-6.2c4.2-1.6,5.7-0.8,8.4,4.2c0.6-1.1,1.2-2.4,1.9-3.6c0.3-0.1,0.6-0.2,0.9-0.2
		c0.2,0.4,0.5,0.8,0.7,1.2c0,0.2,0,0.3,0,0.5c0.2,2.4,0.4,4.8,0.6,7.2c4.4,1.3,5.5,2.9,4,6.5c3.2,2.6,3.3,2.5,8.5-8.4
		c0.5,1.2,1,2.3,1.4,3.5c0.3,1,0.7,2.5,0.3,3c-2.1,2.3-2.5,4,0.8,5.4c0.4,0.2,0.6,1.1,1.2,2.2c0.3-1.7,0.5-2.5,0.6-3.5
		c0.1-0.9,0.1-1.8,0.6-2.6c0.3,2.4,0.6,4.9,0.9,7.5c2.2,0.3,4.3,0.6,6.9,1c-1,0.6-1.7,0.9-2.4,1.3c0.3,0.3,0.5,0.6,0.8,0.9
		c1-1.1,2-2.2,2.7-2.9c-0.5,3.7,4.4,2.6,6,5c0.7-0.6,1.9-1.2,2-1.9c0.2-2-0.1-4-0.3-5.9c0-0.3-0.8-0.5-1.2-0.7c2-1.8,2-1.8,0-4.1
		c-0.3-0.3-0.1-1-0.1-1.4c0-1.3-0.1-2.6,0.1-3.9c0.1-0.7,0.6-1.6,1.1-1.8c0.6-0.2,1.4,0.3,2.1,0.5c1.7,0.6,3.4,1.2,5.1,1.8
		c0.1-0.4,0.3-0.8,0.4-1.2c-0.9-0.4-1.8-0.8-3.2-1.3c1.7-1.7,3.3-3.2,4.9-4.7c-2.1-2.3-4.6-5.1-7.4-8.3c5.8-0.9,8.3,3,11,5.4
		c2.1-0.7,3.8-1.3,5.7-1.9c-0.5-3.1-5.3,2.7-5-2.1c-0.3,0.5-0.6,1-0.9,1.5c0.1-2.2-2.4-1.9-3.1-3.2c-0.7-1.2-1.6-3.2-1.2-4.2
		c1.2-2.4,6.4-4.1,8.1-2.9c1.5,1.1,2.7,2.7,4.2,3.8c0.8,0.5,2,0.4,3.1,0.6c-0.4-1.5-0.6-2.5-0.8-3.4c1.5,0.8,3,1.7,4.9,2.7
		c0,0,0.4-0.7,0.9-1.5c0.7,3.6-1.7,7.7,2.3,10.2c3,1.9,6.2,3.6,9.6,5.6c-0.1-1.3-0.2-2.7-0.3-4.2c1.3-0.6,2.7-1.2,4.9-2.2
		c-2.7-3-5-5.7-7.5-8.1c-0.2-0.2-1.7,0.9-2.2,1.2c-1.6-1.1-3.4-2.1-4.8-3.5c-2.2-2.2-5.7-3.5-5.4-7.6c-1.9-1-5.7-1.1-2.7-5.1
		c-2.4-2.5,0-3.4,1.4-3.7c1.4,0.3,2.7,0.6,4.1,0.9c0.7,0.4,1.3,0.7,2,1.1c0.1-0.2,0.2-0.4,0.3-0.5c-0.7-0.4-1.5-0.9-2.2-1.3
		c0.3-0.8,0.7-1.6,1-2.4L185.4,395.2z M198.7,417.7c-0.2,0.3-0.4,0.6-0.6,0.9c2.1,1,4.2,2.8,6.4,2.9c5.4,0.2,10.8-0.4,16.2-0.6
		c0-0.4,0-0.9,0-1.3C213.4,419,206,418.4,198.7,417.7z M236.3,413.2c-1.6,3.1-2.7,5.3-4,8c3.7-1.2,6.7-2.2,9.7-3.2
		c-1.6-0.9-2.9-1.4-3.9-2.2C237.3,415.1,236.8,414,236.3,413.2z M196.7,414.2c1.6,0.8,2.8,1.7,4,2c0.7,0.2,1.8-0.3,2.4-0.8
		c0.6-0.5,0.6-1.5,0.9-2.3c-0.7,0.1-1.4,0.3-2.1,0.1c-1.3-0.3-2.5-0.8-3.7-1.3c-0.9-0.4-1.7-0.9-3.1-1.6
		C195.9,412.2,196.3,413.3,196.7,414.2z M146.5,459.8c-0.2-1.9-0.4-3.9-0.6-5.8c-0.2,0-0.5,0.1-0.7,0.1c-0.2,1.6-0.4,3.2-0.6,4.7
		c-1-0.9-2.1-1.1-1.7,0.6c0.2,0.8,1.5,1.5,2.5,1.9c1,0.5,2.1,0.7,3.2,1.1c0.2-0.2,0.3-0.5,0.5-0.7
		C148.2,461.1,147.4,460.5,146.5,459.8z M192.9,408.2c0.3-0.2,0.5-0.4,0.8-0.6c-1.4-1.9-2.8-3.7-4.2-5.6c-0.9,1.1-1.9,2.3-2.6,3.1
		C189.4,406.3,191.1,407.3,192.9,408.2z M73.1,430.4c1.3-0.9,2.6-1.9,3.5-2.6c-0.7-1.7-1.3-3.1-2-4.7c-0.4,0.9-0.6,1.4-0.9,2.2
		c-0.3-0.7-0.5-1.2-0.5-1.2c-0.2,2-0.4,4.3-0.7,6.6c-0.3,0-0.6,0-0.9,0c0.7,0.8,1.5,1.7,2.2,2.5c0.2-0.1,0.3-0.2,0.5-0.3
		C74,432,73.5,431.1,73.1,430.4z M178,429.4c1.6,1.3,2.8,2.2,3.9,3.1c-0.3-1.8-1-3.5-2.3-4.4c-0.5-0.3-2.4,0.8-3.2,1.7
		c-0.4,0.5,0.3,1.9,0.5,2.9c0.2,0,0.4-0.1,0.6-0.1C177.6,431.8,177.7,431,178,429.4z M76,419.8c3.2,1.7,3.2,1.7,5.3-1.9
		C78.6,415.9,77.2,417.6,76,419.8z"/>
	<path d="M81,45.2c4.4-3.6,9.5-0.7,14.5-1.1c2.7,5.2,7.4,7.5,13.7,8.1c3.5,0.3,6.8,2.8,10.1,4.4c3.8,1.9,7.5,3.9,11.2,5.9
		c-0.2,1.9-0.5,3.9-0.7,5.8c-0.7-0.2-1.5-0.2-2-0.6c-4.1-2.7-7.2-6.9-11.8-9.1c-0.2-0.1-0.2-0.5-0.4-0.6c-1-0.5-2.2-1.6-2.9-1.3
		c-2.6,1.1-4.7-0.5-6.8-1.2c-5.6-1.9-11.2-3-17.1-2.9c-1.3,0-2.9,1.2-3.8,0.7c-4-2.1-6.4,0.2-9.3,3.1c5.3,4,10.3,8,15.6,11.7
		c1,0.7,2.8,0.4,4.6,0.5c8,7.2,15.3,16.2,26.7,22c-1-2.1-1.3-3.5-2.2-4.2c-4.3-3.6-8.5-7.3-13.2-10.5c-7.1-4.8-12.4-12-20.3-15.8
		c1-0.5,2.1-1,3.1-1.6c0.9-0.1,1.9-0.6,2.7-0.3c1.8,0.6,3.5,1.7,5.4,2.1c7.5,1.8,13,6.8,19,11.2c5.1,3.8,8.4,9.4,13.9,12.8
		c2.7,1.6,5.3,3.5,7.7,5.5c2.7,2.3,6.7,3.5,7.6,7.6c-0.5,1.1-1,2.2-1.5,3.4c-1.7,2-4,3.5-4.4,6.4c-0.1,0.4-2.2,0.6-3.4,0.7
		c-1.6,0.1-3.2,0-4.5,0c-0.9,1.2-1.7,2.2-2.5,3.2c-0.2-0.1-0.4-0.3-0.5-0.4c0.2-1.1,0.3-2.1,0.5-3.2c-1.6,5.1-6.1,3.4-8.1,2.3
		c-5.5-3-11.2-2.3-16.9-3c-0.6-0.1-1.2-0.6-1.8-0.9c-1.3,2.6-2.7,2.2-6.4,3c-3.2,0.6-5.8-0.4-8.7-0.3c-0.2,0-0.5,0-0.7,0
		c-4.9-0.6-5.6,0-6,4.8c-0.2-0.8-0.3-1.7-0.4-2.4c-1.4,0-2.6,0.1-3.9,0c-3.9-0.4-4.4,4.3-7.6,4.9c-0.8,0.2-1.6,0.6-2.4,0.9
		c-1.2,0.5-2.9,0.7-3.6,1.7c-1.4,1.8-3,2.1-5,2.3c-1.2,0.1-4.2-1-3.4,2.6c0.1,0.4-1.8,1.2-2.7,1.9c-0.4-0.5-0.8-1-1.3-1.4
		c1.1-0.5,2.1-0.9,3.2-1.4c-0.2-0.4-0.5-0.9-0.7-1.3c-0.9,0.3-1.9,0.7-2.8,1c0.1,0.3,0.1,0.5,0.2,0.8c-1.1-0.4-2.3-0.8-3.5-1.2
		c-3.5,5.3-7.2,10.7-10.7,16.2c-1.8,2.9-3.4,6-4.8,9.1c-1.8,4-2.9,8.3-4.9,12.1c-2.1,4.1-4.1,8.2-4.7,12.9c-0.4,3-2.7,4.5-5.9,4.2
		c-1-0.1-2.1-0.2-2.6-0.2c-1.8-4.8,2.7-3.9,5-5.5c-1.1-0.8-2.1-1.5-3.1-2.2c0.3,0,0.6-0.1,0.9-0.1c-0.1-1-0.2-2.1-0.3-3.6
		c-0.9,1.1-1.4,1.8-2,2.7c-2-2.8-4.5-5.1-2-8.6c0.1-0.2,0.3-0.4,0.3-0.7c0.1-1.4-3.8-1.1-1.6-3.3c0.9-0.9,2.6-1.1,3.9-1.7
		c0.3-0.1,0.3-0.8,0.3-0.7c-2.5-0.7-5-1.3-7.7-2c0.6-1.1,1.2-1.9,1.4-2.3c-2.2-2.7-4.2-5-6-7.4c-0.4-0.5-0.3-1.4-0.2-2
		c0.6-4.7,0.6-4.7-2.2-7.2c1.1-0.8,2.2-1.7,3.4-2.4c1.9-1.1,2-1.9,0.4-3.6c-0.7-0.8-0.1-2.9,0.5-4.3c-1.1-2-2.2-4-3.2-5.9
		c0.6-0.6,1.5-1.5,2.7-2.7c-1.6-0.7-2.6-1.1-3.9-1.6c1.4-1,2.6-1.9,4.5-3.2c-2-0.4-3.2-0.6-4.6-0.9c0.1-1,0.3-2,0.4-3
		c0.2,0,0.4,0,0.7,0c0.2,0.7,0.4,1.5,0.5,2.2c0.3,0,0.6,0,0.9,0c-0.1-1.3-0.3-2.7-0.3-4c0-0.8,0.1-1.8,0.6-2.5
		c0.7-1.1,1.9-2,2.6-3.2c1.9-2.8,3.7-5.7,5.8-8.9c-0.9-0.4-1.7-0.9-3-1.5c0.8-0.9,1.5-1.8,2.3-2.5c2.6-2.3,2.6-2.8-0.4-4.1
		c3.4-3.9,6.8-7.9,10.4-11.8c0.6-0.6,1.8-0.7,2.7-1c0.2,2.7,0.5,5.4,0.7,8.6c1.5-0.6,2.6-1,3.4-1.3c0-1.6,0-2.9,0-4
		c-0.8,0-1.6,0.1-2.4,0.1c0.6-1,1.2-2,1.7-2.9c-1.1-0.2-2.3-0.3-3.5-0.5c1.5-0.4,2.9-0.8,4.4-1.3c1.2-0.4,2.5-0.8,3.5-1.5
		c2-1.3,3.2-1.6,4.4,1.1c0.9,2.1,2.6,3.8,5.4,3.4c1.5-0.2,3.2-0.7,3.7,2c0.2,0.9,3.3,1.1,5.1,1.8c3.6,1.4,7.2,2.8,10.7,4.2
		c2,0.8,3.9,1.8,5.9,2.2c2.8,0.6,4.9,1.6,5.5,4.8c0-0.7,0-1.5,0-2.5c8.5,5.5,16.8,10.8,25.1,16.2c0.4-0.3,0.7-0.5,1.1-0.8
		c-0.8-2-1.6-3.9-2.5-6.3c0,0,0.7-0.6,1-0.9c1.8,0.9,3.4,1.8,5,2.6c0.2-0.3,0.5-0.5,0.7-0.8c-0.4-0.8-0.5-1.8-1.1-2.3
		c-3.5-2.7-7.1-5.2-10.7-7.8c-3.7-2.7-7-6.3-11.1-7.8c-4.9-1.8-8.9-5.1-11.2-8.6c-2.3-3.5-5.7-3.8-8.1-6.1c1.5-2,3-4,4.5-5.9
		c1.5-3.5,6.6-5.4,9.7-3.2c0.3-4.1,2.9-4.5,6-3.7C80.5,45.6,80.7,45.4,81,45.2z M31.9,69.3c-0.7,0.3-2.1,0.5-2.4,1.2
		c-0.5,1.1-0.2,2.5-0.3,3.3c2.8-0.8,4.8-1.3,6.9-1.9c-0.1-0.2-0.1-0.5-0.2-0.7c-0.6,0.1-1.2,0.2-2.9,0.5c1.4-1.8,2.3-2.9,3.1-3.9
		c-0.3-0.3-0.5-0.6-0.8-0.9C34.2,67.5,33.2,68.3,31.9,69.3z M71.2,99.4c-0.3,0.1-0.6,0.2-0.9,0.4c0.5,1,1,2.1,1.4,3.1
		c-0.1,0-0.5,0.3-1.2,0.6c1.8,1,3.3,1.8,4.7,2.7c0.2-0.3,0.5-0.7,0.7-1C74.3,103.2,72.7,101.3,71.2,99.4z M104.1,65.8
		c-0.1-0.1-0.2-0.2-0.2-0.3c-0.1,0.1-0.2,0.2-0.3,0.2c0.1,0.1,0.1,0.2,0.2,0.2C103.9,66,104,65.9,104.1,65.8z"/>
	<path d="M215.9,57.9c0.1-0.2,0.2-0.4,0.1-0.6c0.3-0.1,0.5-0.1,0.8-0.2c0.2,0.5,0.4,0.9,0.6,1.4c0-0.4,0.1-0.8,0.1-1.3
		c0-0.3,0-0.6,0-0.9c-0.2-0.2-0.4-0.4-0.6-0.6c-0.3,0-0.6,0-0.9,0c-0.2,0.2-0.4,0.5-0.5,0.7c-1.4-0.2-3.2,0-4-0.8
		c-3.7-3.4-7.2-7.1-10.8-10.7c-0.3-0.3-0.2-0.9-0.2-1.4l-0.1,0.1c1.9,0.5,3.8,0.8,5.7,1.4c0.9,0.3,1.6,0.8,1.9,0.9
		c2.2,0.6,3.8,0.8,5.3,1.4c3.4,1.5,6.8,3.1,10.1,4.8c0.7,0.4,1,1.5,1.7,2.1c3,2.9,6,5.9,9.1,8.6c1.2,1,2.8,1.4,4.2,2.1
		c1.8-2.1-5.9-2.7-0.1-5.2c-6.6-5.4-12.8-10.4-19.5-15.8c1.6-0.3,2.4-0.4,3.2-0.5c0.1-0.3,0.2-0.5,0.2-0.8c-2-0.9-4.5-1.2-5.9-2.7
		c-2.3-2.4-5.2-3.2-8-4.1c-4.9-1.5-10-2.6-15-3.6c-8.3-1.7-16.6-3.1-24.9-4.8c-2.9-0.6-5.4-0.9-8.3,0.8c-3,1.7-6.2,1.1-9.7-0.3
		c-4.6-2-9.8-1.1-14.8-0.9c-2.1,0.1-4.2-0.2-6.3-0.9c6,0.5,11.1-0.4,13.1-7.2c2,0,3.8,0,6,0c-0.3-0.8-0.5-1.4-0.8-2.4
		c5.2,2.6,9.7,0.2,14.2-0.8c6.9-1.5,13.4-2.8,19.5,2.8c1.9,1.8,5.7,1.3,8.5,2.3c4.5,1.6,8.8,3.8,13.3,5.5c2.3,0.8,4.7,1.3,7.1,1.6
		c2.6,0.4,4.7,1.1,5.5,4.3c6.4-3.9,10.3,1.6,13.9,4.8c5,4.5,10,8.8,15.6,12.6c2.6,1.8,5.2,3.7,7.5,5.8c4.8,4.4,9.5,8.9,14.4,13.4
		c-0.4,1.3-0.8,2.5-1.2,3.8c1.8,0.1,3.7-0.2,5.2,0.5c0.9,0.4,1,2.3,1.8,4.3c0.1,0,1.1,0.1,2.2,0.2c0.2,0.3,0.4,0.6,0.5,0.9
		c-1,0.9-2,1.7-3.1,2.7c0.4,0.9,4.1-0.6,2.6,2.6c2,1.8,4,3.8,6.3,5.9c-1.2,1.7-2.7,3.8-4.8,6.7c2.1-0.4,3.1-0.6,4.8-1
		c-0.2,2.6-0.3,4.9-0.5,7.2c-0.4,0.1-0.8,0.2-1.2,0.3c0.6,0.2,1.7,0.6,1.7,0.6c1.1-2.8,2.7-3,4.4-0.8c-2,1.5-1.9,6.3,0.5,7.8
		c-1.8,1.5-2.1,2.5,0.7,3.1c4.9,1,7.7,6,6.3,10.8c-0.4,1.4-0.5,2.8-0.6,3.6c1.1,1.6,2,2.9,2.8,4.1c-3.7,3,1.2,4.2,0.9,6.6
		c-2.4,0.2-5.2,0.3-2.4,4.1c0.5,0.7-0.2,2.4-0.5,4.8c2,2.9-2.8,1.6-3.9,3.9c0.1-1.4,0.1-1.9,0.2-3.3c-0.9,1.9-1.5,3.1-2,4.2
		c1.7,0.1,3.7,0.2,5.7,0.3c0,0.3,0,0.6,0,0.9c-1.1,0.2-2.2,0.3-3.7,0.5c1,0.7,1.9,1.2,3,1.9c-0.6,0.3-0.8,0.6-1.1,0.7
		c-0.9,0.2-1.9,0.4-2.8,0.6c0.7,0.8,1.4,1.7,2.2,2.4c0.6,0.5,1.4,0.8,2.2,1.2c-0.7,0.4-1.4,0.8-2,1.4c-0.6,0.5-1,1.2-1.5,1.9
		c1.1,0.6,2.2,1.2,3.1,1.7c-3.8,1.6-2.5,4.9-2.6,8c0.9-0.1,1.7-0.2,2.4-0.3c0.1,0.3,0.3,0.6,0.4,0.8c-1.2,0.6-2.3,1.3-4.1,2.2
		c1.1,1,2.2,2,3.2,2.8c-0.5,0.1-1.1,0.1-2.6,0.3c1.4,1.5,2.4,2.5,3.4,3.5c-1.1,1.3-2.4,2.7-3.6,4.2c0.2,0.2,0.4,0.4,0.6,0.6
		c-1.1,0.4-2.3,0.8-3.4,1.3c-0.2,0.2-0.5,0.4-0.7,0.6c-0.1,0.2-0.2,0.3-0.3,0.5c0.1-0.2,0.1-0.4,0.2-0.6c0.3,0,0.5,0.1,0.8,0.1
		c0,0,0,0,0,0c0.2,0.2,0.4,0.3,0.7,0.5c0.3,0.4,0.6,0.7,0.9,1.1c0.2,0.2,0.4,0.4,0.6,0.6c0.2,0.3,0.7,0.7,0.6,0.8
		c-2.1,4.7,1.2,6.7,4.7,8.7c-4.4,4.7-9,8.9-12.7,13.9c-3.1,4.2-9.1,6.9-7.8,13.9c0.7,3.7,0.1,7.7,0.1,11.6c0,0.5-0.4,0.9-0.5,1.4
		c-0.5,0.3-1,0.6-1.5,0.9c-0.8-0.3-1.5-0.6-2.3-1c-0.2,0.4-0.3,0.7-0.5,1.1c-2-1.7,4.6-6.6-2.6-6.3c1.4-0.7,2.8-1.1,3.1-1.8
		c0.3-0.7-0.7-1.9-1.2-2.8c0.8-1,1.6-2.1,2.6-3.4c-1.2-0.2-2.1-0.3-4.1-0.5c1.8-1.3,2.8-2.1,3.7-2.7c0.1-1.7,0.2-3.5,0.3-5.1
		c-2-1.3-4.4-2.9-6.7-4.4c0.9,0.1,1.9,0,2.8,0.2c2.9,0.5,3.7-0.5,2.5-3.2c1.1-0.3,2.1-0.5,2.7-0.7c0.6-1.5,1.4-3.2,1.8-4.9
		c0.3-1.1,0.5-2.6-0.1-3.5c-1.6-2.7,0.1-4.8,0.5-7.4c-1.1,1.2-2.3,2.5-3.5,3.6c-0.5,0.5-1.1,1-1.8,1.4c-1.1,0.6-3.9-1-2.3,2.1
		c-1.4-1-2.6-1.9-4-2.9c0.9-0.2,1.9-0.5,3.3-0.9c-0.7-1.2-1.2-2.2-1.6-2.9c0.5-1.1,1.4-2.1,1.4-3.2c0-0.5-1.6-1-2.4-1.5
		c0.5-1.3,1.1-2.9,1.8-4.8c-2.1,0.6-3.4,1.1-4.8,1.5c-0.2-0.4-0.4-0.9-0.6-1.3c1.5-0.7,3-1.4,4.7-2.2c0.1-0.6,0.2-1.6,0.3-2.6
		c4.4,3.1,3.9,9.3,8.8,13.4c-0.9-3.3-1.2-5.9-2.2-8.1c-1.1-2.4-3-4.4-4.5-6.6c-0.6-1.8-1.2-3.6-1.8-5.4c-0.5-1.5-0.8-3.1-1.4-4.5
		c-0.8-1.7-1.8-3.2-2.7-4.8c-1.9-3.2-3.9-6.5-5.8-9.7c0.7-0.9,1.3-1.8,2.1-2.9c1.5,2.6,5.3,3.4,5.2,7.3c0,0.5,1.5,0.9,2.3,1.4
		c0.3-0.9,1-1.9,0.9-2.7c-0.2-1.9-0.8-3.9-1.4-6.9c2.7,1.5,4.4,2.4,6.1,3.3c1.5,0.8,2.9,1.6,4.8,1.8c-4.1-2.6-5.3-6.9-7.3-10.7
		c-1-1.9-3.2-3.1-4.6-4.8c-1.6-2-3-4.2-4.4-6.3c0-0.2,0-0.5,0-0.7c1,0.8,4.1-1.7,3.8,1c1.7,2.9,3.1,5.3,4.7,8.1
		c0.5,0,1.7-0.2,3.8-0.3c-1.6-1.1-2.3-1.6-3-2.1c0.4-0.2,0.7-0.3,1.1-0.5c-1.2-2.9-2.1-5.9-3.6-8.7c-1.4-2.6-3.2-5.1-5-7.8
		c-0.4,0-1.4-0.1-2.8-0.3c1.3-0.7,2.3-1.2,3.2-1.7c-2.8-3.7-5.3-4.2-9-1.4c2.5,0.3,4.2,0.4,5.8,0.6c-0.6,3.3-2.5,2.7-4.5,1.3
		c0.1,1.7,0.1,3,0.2,4.4c-0.5-0.1-1.3-0.1-1.3-0.2c-0.4-3.1-3.1-4.2-5.2-5.8c-1.7-1.2-2-2.5-1.1-4.2c1.3-0.8,2.6-1.6,3.8-2.3
		c0.6-1.7,1.1-3.4,1.7-5.2c-0.3-0.1-0.5-0.3-0.8-0.4c-0.7,0.5-1.4,1-1.5,1.1c-1.9-1.5-3.6-2.8-5.3-4.1c-0.7-2.7-0.7-6.2-2.4-8
		c-3.4-3.6-7.7-6.3-11.6-9.4c-1.3-1.1-2.3-2.4-4.1-4.4c2.5,0.4,3.8,0.7,5.2,0.9c-1.1-2.3-1.9-4.1-2.8-5.8c-0.2-0.4-0.7-0.6-1-0.8
		c-1.1-0.6-2.5-1-3.4-1.8c-3.1-3.1-5.9-6.6-9.2-9.6c-0.8-0.7-2.4-3.9-4.4-0.7c-0.5-0.4-1-0.8-1.5-1.1c-0.5-0.4-1.1-0.8-1.6-1.1
		c1-2.5,2-4.9,3-7.4c2.3,2,4.6,4.1,6.9,6c0.7,0.6,1.7,0.7,3.3,0.4c-1.4-1.9-2.9-3.8-4.3-5.7C215.9,58.4,215.9,58.2,215.9,57.9z"/>
	<path d="M192,77.5c-2.4-2.9-3.9-6.4-7.6-8.4c-1.7-0.9-2.5-3.6-3.6-5.4c0.5-0.7,1-1.4,1.5-2.1c3.1,1.3,6.6,2.1,9.3,4
		c6.4,4.6,12.5,9.8,18.5,14.7c-0.2,0.9-0.5,2.1-0.8,3.2c-0.4-0.1-1-0.1-1-0.2c-0.4-3.9-3.1-2.7-5.8-2.1c2.3,1.5,4.5,3,6.8,4.6
		c1.2,0.3,2.3,0.5,3.5,0.8c-0.2,0.1-0.4,0.2-0.6,0.3c2.6,2.3,5.3,4.5,7.9,6.7c-0.5,0.2-1.1,0.4-2.2,0.8c3.3,0.7,6,1.2,9.1,1.9
		c0.1,0.5,0.3,1.7,0.6,3.5c0.3-1.3,0.5-1.9,0.7-3.1c0.3,1.4,0.4,2.2,0.5,2.4c1-0.4,2.2-1.2,2.5-0.9c1.9,1.7,4.5,3.3,5.3,5.4
		c1.4,3.7,4.1,3.9,7.1,4.4c0.6,1.9,4,2.7,2.2,5.5c-1.2,1.2-2.5,2.4-3.7,3.6c-2.4,1.6-0.3,3.6-0.3,5.3c0,0.2,1.2,0.4,2,0.6
		c0,0.1-0.2,0.6-0.3,1.2c1.8,0.4,4.4-0.4,3.9,2.9c-1-0.7-2.1-2.4-2.9,0.2c-0.7-0.3-1.3-0.7-2-0.9c-2.1-0.7-4.2-3.2-6.3-0.1
		c-0.1,0.2,0.4,0.9,0.6,1.3c0,0.7,0,1.5,0,2.2c-0.8,0.7-1.6,1.4-2.3,2.1c-0.3-0.2-0.5-0.4-0.8-0.6c-0.1-0.4-0.3-1.3-0.4-1.3
		c-3.8,0-6.1-2.2-8.8-4.8c-4.1-3.9-8-8.8-14.6-9.1c-1.4-0.1-3.7-0.5-2-3.3c-2.9-0.7-6.1-0.8-8.3-2.3c-2.1-1.4-4.2-3-6-4.7
		c-1.9-1.8-1.8-2.6-4.1-1.7c-0.3-0.9-0.6-1.7-1.1-3.1c-1.9,5-5.4,0.4-7.9,2.1c0.1,0.7,0.2,1.5,0.3,2.3c-0.3,0-0.7,0-0.7,0
		c-0.6-2.4-2.9-2-4.4-2.9c-3.4-2.3-8-1-11.1-4.2c-0.6-0.6-2.4-0.1-3.6,0c-1-1.2-2-2.5-3-3.7c0.5-2.4-2-1.6-2.9-2.7
		c-1.6-2-3.4-4-5.5-5.6c-2.1-1.6-3.3-3.2-2.9-5.9c0.3-0.7,0.5-1.5,0.8-2.2c1.9,0.8,4.2,1.2,5.8,2.5c2.6,2.1,4.8,4.7,7.2,7
		c1.1,1.1,2.2,3.6,3.7,0.4c1.7,0.8,3.4,1.5,5,2.5c2.8,1.8,5.5,3.7,8.3,5.5c0.4,0.3,1.3,0.3,1.8,0c1-0.6,1.8-1.4,2.4-1.9
		c-1.5-0.7-3.7-1.6-5.7-2.8c-0.6-0.3-0.4-1.7-0.6-2.7c0.2-0.2,0.3-0.4,0.5-0.6c-0.2,0-0.4-0.1-0.5-0.1c-4.1-1.3-7-4.2-9.7-7.4
		c-2.5-3-5.3-5.7-7.9-8.4c-4.4-0.9-7.3-4.7-11.1-7c-4.1-2.5-7.7-5.7-8-11c0.3-0.5,0.5-1.1,0.8-1.6c2.8-1.3,4.4,0.9,6.1,2.4
		c1.8,1.6,3.2,3.7,5,5.3c0.9,0.8,2.3,1,3.5,1.5c0.3,0.1,0.9,0.1,1,0.4c1.4,3.2,4.9,3.5,7.1,5.5c2.4,2.2,5,4.2,7.6,6.3
		c0.3-0.4,0.8-1,1.7-2c0.5,1.5,0.8,2.5,1.2,3.6c0.5-0.3,1-0.6,1.8-1.1c-0.2,1-0.4,1.8-0.5,2c6.9,2.3,12.7,6.1,17.7,10.7
		c1.5-0.4,2.8-0.7,5.4-1.3c-1.7-1.4-2.9-2.3-4-3.4c-0.8-0.8-1.4-1.8-2.1-2.7C191.4,79,191.7,78.2,192,77.5z M238.1,114.7
		c0-1.7,0.2-3.1,0-3.2c-2.1-0.8-4.5-2.2-6.5-1.8c-2.8,0.6-5.4,2.4-8.1,3.9c-0.4,0.2-0.7,1.1-0.6,1.5c0.1,0.4,1.1,0.8,1.4,0.6
		c2-0.8,4.3-1.5,6-2.8C233.3,110.4,235.5,111,238.1,114.7z M198.6,86.8c-0.1-0.1-0.1-0.2-0.2-0.3c-0.1,0.1-0.2,0.1-0.2,0.2
		c0,0.1,0.1,0.2,0.2,0.2C198.4,87,198.5,86.9,198.6,86.8z"/>
	<path d="M143.9,202.5c3.2-1,6.3-2.4,9.5-2.9c4.2-0.6,8.8-1.4,12.7-0.2c2.3,0.7,4.9-1.7,6.6,0.9c0,0,0.7-0.4,1-0.6
		c0.4-0.3,0.9-1.1,1-1c3.3,2,7.7-2.8,10.8,1.9c0.6,1,4.9,1.1,5.5,0.3c1.9-2.7,3.9-2.1,6.3-1.2c0.1-0.3,0.2-0.6,0.3-1
		c-1.2-0.7-2.5-1.3-3.7-2c0.1-0.2,0.1-0.3,0.2-0.5c2.5,1,5.3,1.5,7.4,3.1c3.1,2.3,6.3,2.9,10,3.6c3.3,0.6,6.2,3.2,9.2,5.1
		c0.6,0.4,0.4,2,0.6,2.9c-3.8,0.2-7.5,0.6-11,0.5c-3.5-0.1-7,0.8-10.3-2.1c-1.2-1-4.7,0.6-7.2,1.1c-0.3,0.1-0.7,0.2-0.9,0.2
		c-0.3-3.2-2.3-2.9-5-2.2c1.2,0.8,1.9,1.3,2.7,1.8c-3.8,0.1-7.2,2.3-11.3,1.1c-2.3-0.7-5.4,1.1-8.1,1.8c0-0.1,0.2-0.6,0.4-1.5
		c-0.6,0.1-1.4-0.1-1.5,0.2c-2.2,3.9-6.2,3.9-10,4.8c-3.3,0.8-6.6,2-9.9,2.8c-2.8,0.7-5.8,1.9-8.5,1.4c-2.3-0.4-4.2-3-6.4-4.5
		c-2.1-1.5-2.6-2.7,0.8-3.6c-3.3-2.3-1.5-4.1,0.3-5.8c0.4,0.7,0.8,1.4,1.6,2.8c0.3-2.5,0.4-4.2,0.5-5c2.4-1,4.1-1.7,5.8-2.4l0.4,0.1
		L143.9,202.5z M139.4,217.7c-0.2,0.2-0.4,0.2-0.7,0.1c-0.1-0.2-0.2-0.4-0.3-0.6c-0.1,0.1-0.1,0.2-0.2,0.3c0.2,0.1,0.4,0.1,0.6,0.2
		l0.2-0.1c0,0,0.2,0,0.2,0c0.2-0.1,0.3-0.3,0.5-0.4C139.7,217.3,139.5,217.5,139.4,217.7z"/>
	<path d="M47.8,209.6c0.1,0.1-0.2-0.5-0.5-1.1c11-2.5,23.8,6.1,28.4,13.2c0.6,0.9,1,2,1.2,3.1c0.4,2.2,0.3,4.4-2.9,4.1
		c-3.7-0.2-7.4-0.5-11.2-0.8c-6.4-0.5-12.7-1.1-19.1-1.6c-1-0.1-2.1,0.7-3.2,0.8c-2.1,0.1-4.2,0-6.4,0c0-0.1,0.1,0.5,0.2,1.8
		c-3.3-1.8-7.2,3.2-9.3-1.3c-1,0.6-1.8,1.5-2.7,1.7c-2.8,0.7-3.3-1.9-4.1-3.5c-0.4-0.9-0.1-2.6,0.6-3.4c3.5-4.2,7-8.3,11-12
		c0.9-0.8,3.6,0,5.3,0.6c1.6,0.6,2.5,1.1,4.4,0C41.7,209.9,44.8,210.1,47.8,209.6z"/>
	<path d="M209.9,57.9c-1,2.5-2,4.9-3,7.4c-0.3,0.1-0.5,0.2-0.8,0.3c-1-0.5-2.1-1.1-3.1-1.6c0.1-0.2,0.2-0.3,0.3-0.4
		c-0.1,0.2-0.1,0.4-0.2,0.6c-0.2,0.2-0.4,0.2-0.6,0.1c-1.8-0.1-3.6-0.2-5.4-0.3c-7-5.5-15.7-7.8-23-13.4c0,1.5,0,2.1,0,2.8
		c-3.4-2.6-6.5-5-9.7-7.4c-0.3,0.3-0.5,0.7-0.8,1c1.3,0.8,1.2,2.9,3.8,3.1c1.3,0.1,4.1,1.9,3.5,4.8c0,0.9-0.1,1.7-0.1,2.6
		c-2.6-0.1-4.3-1.5-6.2-3.3c-2.5-2.3-5.8-3.7-8.8-5.5c-1.6-1-3.3-1.9-5-2.7c-1.5-0.8-3.1-1.5-4.7-2.2c0.3-1.4,0.5-2.8,0.8-4.2
		c2.1-0.9,4.8,0.1,6.5-2.6c0.3-0.5,3.6,0.4,5.4,1.1c3.4,1.5,6.7,3.4,10.1,5c0.7,0.4,1.7,0.3,2.5,0.4c-0.5-1.2-0.9-2.4-1.5-3.6
		c-0.1-0.3-0.8-0.3-1-1.2c3.9,0.3,8.2-0.3,11.7,1.1c4.3,1.7,8,5.1,12,7.6c1.4,0.9,3.3,1.1,4.7,2c2.8,1.9,5.3,4.1,8,6.1
		C206.7,56.4,208.4,57.1,209.9,57.9z M189.5,56.8c2.1,0.7,3.8,1.3,6.5,2.2c-5.1-5.7-7.3-6.6-8.9-4.3c1.1,0.2,2.2,0.4,3.6,0.6
		C190.2,56.1,189.9,56.5,189.5,56.8z"/>
	<path d="M194.9,234.2c-6.1-1.9-12.3-3.8-19.2-6c0.3,1.8,0.4,3.3,0.9,4.6c2.2,5.6,0,9.9-5.1,13.1c-3.6,2.3-6.5,1.6-9.4-0.2
		c-3.8-2.3-4.9-6.5-5.9-10.5c-0.3-1,0.7-2.4,1.2-3.7c-0.8,0.1-1.5,0.2-2.2,0.3c0-1.6,0-3.3,0-4.9c4.9-3.7,10.7-4,16.5-3.6
		c1.2,0.1,4.3-1.2,4,2.3c0,0.2,1,0.6,1.6,0.7c2.9,0.5,5.9,0.6,8.7,1.4c2.1,0.6,4,1.9,6,2.8c0.5,0,1,0,1.6,0l0,0c0.3,0,0.5,0,0.8,0
		C194.4,231.7,194.7,232.9,194.9,234.2z M174.6,227.4c-0.6-3.2-3.9-4-9-1.8C169.1,226.3,171.6,226.8,174.6,227.4z M173.7,231.9
		c-1.4,0.6-2.8,1.2-4.6,2c2.3,1.2,4.4,2.2,7.2,3.6C175.1,235,174.5,233.6,173.7,231.9z"/>
	<path d="M81.7,249.2c-2.3-4.2-11.4-8.8-16.5-8.4c-0.9,0.1-1.9-0.5-2.7-0.9c-2.8-1.4-3.6,0.4-3.6,2.6c0,1.5,0.7,2.9,0.9,4.4
		c0.1,0.5-0.1,1.3-0.5,1.7c-2.2,2-4.3,4.8-6.9,5.5c-3,0.7-5.9-2-7.2-4.7c-1.2-2.8-4-6-0.3-9.2c0.2-0.2-0.5-1.4-0.7-2.1
		c0.3-0.8,0.5-1.5,0.8-2.3c0.6-0.7,1.2-2,1.9-2.1c2.3-0.3,4.6-0.1,6.9-0.1c0.6,1.6,1.1,3.1,3.4,1.8c0.3-0.2,2.1,1.2,2,1.4
		c-1.1,2.7,0.8,1.9,2,1.8c1.4-0.1,2.9-0.9,4.1-0.6c4.4,1.3,8.8,3,13.1,4.5c-0.9-1.1-1.8-2.4-2.8-3.7c0.5-0.5,1-1,1.5-1.6
		c0.9,0.4,3.3-0.9,1.9,2.1c-0.4,0.8,1.4,2.6,2.1,4c0.7,1.2,1.3,2.5,1.9,3.7C82.7,247.7,82.2,248.4,81.7,249.2z"/>
	<path d="M292.5,477.2c1.5,1.5,2.9,3,4.4,4.5c-0.2,0.3-0.4,0.5-0.6,0.8c0,0.2-0.1,0.4-0.1,0.6c-0.2,0-0.5,0.1-0.7,0.2
		c-0.2-0.1-0.5-0.1-0.7,0c-1.4-1.2-2.6-2.5-4.1-3.5c-0.5-0.3-1.6,0.4-2.4,0.4c-1.1,0.1-2.2-0.1-3.1-0.7c-1.1,0.4-2.3,0.7-3.4,1.1
		c0.4-1.2,0.9-2.5,1.3-3.7c-0.7-0.2-1.5-0.5-1.9-0.6c-0.7,1.1-1.4,2.2-2.1,3.2c-0.8-0.6-1.5-1.3-2.3-1.9c-0.6,0.8-1.2,1.6-1.8,2.4
		c-0.4,0.6-0.8,1.2-1.2,1.8c-2.9-7.3-5.8-14.6-8.6-22c0.3-0.2,0.7-0.3,1-0.5c0.6,0.7,1.2,1.4,1.9,2.1c1.4-2.1,2.4-1.6,3.3,0.3
		c2-2.4,3.8,0,4.9,0.8c5.5,4.1,12,7.2,15,14C291.5,476.7,292,476.9,292.5,477.2z"/>
	<path d="M191.3,592.7c1.7,0,3.6-0.2,5.2,0.1c1,0.2,1.8,1.5,2.8,2.2c3.2,2,6.6,3.7,9.5,6c2.5,1.9,4.4,4.5,6.6,6.7
		c0.6,0.6,1.5,0.7,2.2,1.1c1.6,1.1,3,2.3,4.7,3.3c1,0.5,2.2,0.6,3.6,0.9c-0.9,1.2,1.3,4.5-2.2,3.6c3,2.1,6.4,4.4,9.9,6.8
		c-0.9,1.3-1.3,1.9-1.6,2.3c0.8,1.1,1.4,2,2.1,3c-0.4,0.3-0.7,0.7-1.1,1c-1.7-1.6-3.5-3.1-5.1-4.7c-5.6-5.4-11.7-10.5-16.7-16.5
		c-4-4.9-10.2-5.4-14.6-9.1c-1-0.9-2.6-1-4-1.5c0-0.4,0-0.8,0-1.2c-0.1-0.8-0.1-1.6-0.2-2.4C192.1,593.8,191.7,593.2,191.3,592.7z"
		/>
	<path d="M110.1,373c0.3-0.4,0.6-0.7,1-1.1c2.5-2.8,2.5-0.2,3,1.3c1-0.2,1.9-0.4,2.9-0.6c-0.2-0.7-0.4-1.5-1-3.3
		c3.1,1,5.4,1.7,7.8,2.5c2.1-2.2,4.5-4.5,7.5-7.6c-0.6,1.5-0.8,2.3-1.1,2.9c8.9,1.1,17.8,2.2,27.1,3.4c2.6-2.8,6.7-2.6,10.9-1.7
		c-1.5,0.1-2.9,0.2-4.4,0.3c1.4,1.3,2.7,2.3,4,3.5c-0.4,0.4-0.7,0.9-0.9,0.8c-8.7-1.7-17.4,0.9-26.1-0.5c-4.1-0.7-8.3-0.9-12.5-1
		c-1.6,0-3.3,0.9-5,1.2c-3.7,0.6-7.3,1.3-11,1.6C111.5,374.8,110.8,373.6,110.1,373z"/>
	<path d="M300.7,240.2c-0.2,0.7-0.5,1.4-0.9,2.7c-3-6.3-5.9-12.3-8.7-18.2c0.4-0.2,0.7-0.4,1.1-0.6c0.8,1.2,1.6,2.3,2.4,3.5
		c0.3-0.2,0.5-0.4,0.8-0.6c-0.8-1.5-2.5-3.3-2.2-4.5c0.6-2.1,2.3-4,3.8-5.7c2-2.3,5.7-0.3,6.6,3.5c0.8,3.4,1.4,6.9,2,10.4
		c0.3,1.7,0.1,3.4,0.2,5.1c-1-0.8-2-1.6-3.1-2.5C299.8,234.5,301.4,237.7,300.7,240.2z M299.8,220.3c-0.1-0.1-0.2-0.2-0.2-0.3
		c-0.1,0.1-0.2,0.1-0.2,0.2c0,0.1,0.1,0.2,0.2,0.2C299.6,220.5,299.7,220.4,299.8,220.3z"/>
	<path d="M155.2,226.8c0,1.6,0,3.3,0,4.9c-0.5,0.2-1.6,0.5-1.5,0.7c0.5,4.5,1,8.9,1.7,13.4c0.2,1,1.1,2,1.5,2.8
		c-3.9,0.4-7.9-3.5-12.9-2.2c0-2.9,0-5.2,0-7.5c1.4,0.1,2.4,0.1,4.3,0.2c-4.3-2.3-4.7-2.9-1.3-6.6
		C149.2,230.2,152.4,228.7,155.2,226.8z"/>
	<path d="M48,66.9c-3.6-0.6-4.5-3.6-5.9-6.5c5-1.5,9.7-2.1,14.1,1.7c1.2,1,2.9,1.4,4.5,1.7c4.3,1,6.9,4.1,9.8,7
		c1.5,1.5,1.7,4.9,5.1,4.4c0.3,0,0.9,1.3,1,2.3c-5.4-4.4-13.7-2.2-18.1-8.5c0.2-0.3,0.4-0.5,0.6-0.8c-4.1-2.7-6.7-8.9-13.7-5.9
		c1,0.8,1.8,1.5,2.5,2.1C48,65.4,48,66.1,48,66.9z"/>
	<path d="M172.4,602.4c-2.9-1.5-5.8-3-9.1-4.7c-0.3,1.1-0.6,1.9-0.9,2.8c-0.3,0.1-0.6,0.2-0.8,0.4c-0.6-1.6-1.3-3.1-1.7-4.7
		c-0.1-0.2,1.2-0.8,1.8-1.2c-0.7-0.9-1.5-1.9-2.3-2.9c0.3-0.8,0.6-1.6,1-2.4c1.2-3.2,3.5-5.1,6.7-5.9c0.2,0.2,0.4,0.3,0.6,0.5
		c0.1-0.2,0.2-0.4,0.3-0.5l0,0c0-0.5,0-1.1,0-1.6c0.2-0.2,0.4-0.5,0.7-0.7c1.3,0.5,2.6,1,3.9,1.6c0.8,0.4,1.5,0.9,2.2,1.3
		c-0.3,1.3-0.6,2.5-0.9,3.8c-1.1-0.3-2.2-0.6-3.4-0.9c0-0.4,0-0.8,0.1-1.2c-2.2,1.3-4.5,2.6-6.3,3.7c2.9,3.9,5.9,7.9,8.9,11.9
		C172.9,601.9,172.7,602.2,172.4,602.4z"/>
	<path d="M83.9,331.9c7-0.1,12.5,5.7,19.7,5c0,1.9,0.3,3.8-0.1,5.5c-0.3,1.5-1.2,3.7-2.1,3.9c-1.3,0.3-2.9-1.4-4.5-1.7
		c-2.2-0.4-2.3-4.7-5.6-2.9c-0.3-0.7-0.6-1.4-0.9-2.2c0.8-0.1,1.5-0.2,2.3-0.3C88.1,338.6,85.3,336.2,83.9,331.9z"/>
	<path d="M158.2,94.7c1,1.2,2,2.5,3,3.7c-0.3,0.7-0.6,1.4-0.9,2.1c-1.2-0.5-2.4-1.1-4-1.8c-0.3,0.3-1,1-2.1,2c0.8,0.7,1.6,1.3,2.5,2
		c-0.4,1.3-7.5,0.4-11.9-1.8c0.5-1.1,1-2.2,1.5-3.4c1.4,0.1,2.7,0.1,4.5,0.2c0.2-3.6-3.4-4.7-5.5-6.4c-2-1.6-3.2-3-2.1-6.7
		c3.7,3.7,6.9,6.8,10.1,10C154.9,96.1,156.5,97.4,158.2,94.7z"/>
	<path d="M147.7,78.3c-0.3,0.7-0.5,1.5-0.8,2.2c-0.9-0.1-2.1,0.2-2.6-0.3c-4.9-3.9-9.7-8-14.6-12c0.2-1.9,0.5-3.9,0.7-5.8
		c3.2,2,6.5,3.8,9.5,6c1.4,1,2.2,2.9,3.3,4.3C144.7,74.7,146.2,76.5,147.7,78.3z"/>
	<path d="M242.4,610.6c2.8,1.3,4.8,3.2,5,6.5c0.1,2-0.8,2-2.1,1c-0.3,0-0.6,0-0.9,0c-0.5,0-1,0-1.4,0c-0.5,0-1,0-1.5,0l0,0
		c-0.1,0.5-0.3,1-0.4,1.6c-0.1,1.7-0.1,3.5-0.2,5.2c-1-0.5-2.1-1-3.1-1.5c-0.9-1.6-1.9-3.1-2.6-4.7c-0.8-1.6-1.3-3.3-1.9-5
		c0.2-1.3,0.5-2.6,0.7-3.9c-0.3-3.2,1.9-1.1,3-1.4c0.5,0.8,0.9,1.5,1.4,2.3c0.5,0,1,0,1.5-0.1C240.7,610.6,241.6,610.6,242.4,610.6z
		"/>
	<path d="M256.5,396.9c-0.6-0.5-1.2-1.1-1.5-1.4c-4,3.7-7.8,7.2-11.8,11c-0.6-1.2-1.3-2.6-1.5-3c-4.4,0.7-8.5,1.4-12.6,2
		c-0.1-0.5-0.3-1-0.4-1.4c0.9-0.5,1.8-0.9,2.7-1.4c-0.2-0.2-0.4-0.6-0.9-1.3c3.5,0,6.7-0.2,9.9,0c2.8,0.2,4.9-1.2,6.9-2.6
		c3.3-2.2,6.3-4.9,9.7-6.9c0.9-0.6,2.8,0.4,5,0.8c-1,1.3-1.7,2.3-2.5,3.3C258.5,396.4,257.5,396.7,256.5,396.9z"/>
	<path d="M233.9,609.8c-0.2,1.3-0.5,2.6-0.7,3.9c-5.1-0.4-9.4-5-9.9-10.5c1.9-0.8,3.8-1.6,5.6-2.4c1.8,1.8,5.9-0.6,6.2,2.9
		c0.2,2.1-1.7,4.3-2.7,6.7C233.1,610.2,233.5,610,233.9,609.8z"/>
	<path d="M292.3,259.2c-1.3,0-3.1,0-5.2,0c1.9-3.2-0.5-3.2-2.6-3.5c0.4-0.6,0.8-1.2,1.2-1.7c-0.5-0.3-1-0.6-1.6-0.8
		c-2.9-0.7-3.8-2.6-2.2-5c1.2-1.7,2.5-3.4,4.1-4.7c0.8-0.7,2.2-0.6,3.5-0.1c-1,0.5-2.1,1-3.8,1.9c4.3,0.5,4.8,3.1,5.3,5.7
		C291.4,253.6,291.8,256.2,292.3,259.2z"/>
	<path d="M273.7,481.7c0.4-0.6,0.8-1.2,1.2-1.8c0.6-0.8,1.2-1.6,1.8-2.4c0.8,0.6,1.5,1.3,2.3,1.9c1.8,2,3.8,3.9,5.5,6
		c1.1,1.4,1.9,3,2.8,4.5c-0.3,0.7-0.5,1.4-0.8,2.1c-0.1,3.4-2.3,0-3.2,0.9C280.1,489.2,276.9,485.5,273.7,481.7z"/>
	<path d="M147,39.5c-0.3,1.4-0.5,2.8-0.8,4.2c-1.2-1.1-2.5-2.1-3.8-3.3c-2.2,1.4-2.2,2.5,1.2,4.6c2.2,1.4,4.8,2.1,7,3.4
		c0.9,0.5,1.2,2,1.7,3c-0.4,0.4-0.8,0.8-1.2,1.1c-2.1-1.6-4.2-3.1-6.3-4.7c0-0.1-0.2,0.7-0.6,2c-4.1-3.3-8-6.6-11.7-9.6
		c4.2-1,7.8-1.7,11.3-2.7C146,36.7,146.1,38.5,147,39.5z"/>
	<path d="M237,129.9c0-0.7,0-1.5,0-2.2c1.8,0.6,3.5,1.3,5.4,1.8c0.9,0.3,2,0.2,3.2,0.2c2.7,3.7,5.9,7.9,9.2,12.4c-1.9,0-3.1,0-4.3,0
		c-0.2-0.1-0.5-0.2-0.7-0.2c-1.6-1.6-3.2-3.1-4.8-4.7C241.7,135.7,239,133.3,237,129.9z"/>
	<path d="M174.8,584.3c-0.7-0.4-1.4-0.9-2.2-1.3c-1.3-0.6-2.6-1.1-3.9-1.6c0.8-2.9,1.6-5.7,5.3-6c0.5,0.9,1.1,1.8,1.8,3.1
		c1.6-2.3,1.4-5.9,5-5.4c3.4,1.8,6.8,3.5,10.2,5.3C183.9,575.8,178.9,578.8,174.8,584.3z"/>
	<path d="M233.9,131.4c0.3,0.2,0.5,0.4,0.8,0.6c-0.2,0.6-0.8,1.5-0.6,1.7c0.7,0.7,1.6,1.3,2.5,1.6c2.3,0.9,3.9,2.1,4.3,4.8
		c0.1,0.5,2.2,0.7,3.4,1.1c-1.6,1.1-2.8,2.1-0.1,4.1c2,1.5,3.2,4,4.5,6.1c0.3,0.5-0.2,1.5-0.4,2.8c-6.3-7.7-12.2-14.9-18.2-22.3
		C231.5,131.7,232.7,131.5,233.9,131.4z"/>
	<path d="M45,235.7c-0.3,0.8-0.5,1.5-0.8,2.3c-3.4,2-6.3,4.2-7.4,8.3c-0.2,0.6-2.3,0.9-3.5,0.7c-0.6-0.1-1.7-1.3-1.7-1.9
		c0.3-3.1,1.4-5.9,4.4-7.5c2-1,4.1-2,6.3-2.7C43,234.7,44,235.4,45,235.7z"/>
	<path d="M228.9,600.8c-1.9,0.8-3.8,1.6-5.6,2.4c-1.6-1.4-3.3-2.8-4.9-4.1c0,0,0,0.1-0.1,0.1c-2.3-1.9-4.7-3.8-7.3-5.8
		c1.5-0.3,3.1-0.7,4.9-1c2,6.9,8.4,3.3,12.6,5.2C228.5,598.6,228.7,599.7,228.9,600.8z"/>
	<path d="M86.9,623.5c1.2-3.3,4.2-2.5,6.4-2.1c3.5,0.5,6.8,1.2,10.4,0.1c1.3-0.4,3.2,1,4.8,1.6c-0.2,0.6-0.4,1.7-0.7,1.7
		c-1.9,0.2-3.8,0.3-5.7,0.3c-3.8,0-7.5,0-11.3-0.2c-1.3-0.1-2.6-0.9-3.9-1.4L86.9,623.5z"/>
	<path d="M190.4,597c-2.6-0.4-5.7,0.4-7.4-2.8c-0.3-0.5-2-0.1-2.7-0.6c-1.6-1-2.3-3.3-2.3-6.5c3.6-1.3,6.2-1.3,6.7,3.5
		c0.1,0.8,2.2,1.3,3.4,2c0.5,0.3,1.1,0.6,1.6,0.8c0,0.3,0,0.5,0,0.8c0,0.2,0,0.4,0,0.6c0,0.3,0,0.5,0,0.8
		C190,596.1,190.2,596.5,190.4,597z"/>
	<path d="M170.9,57.4c0-0.9,0.1-1.7,0.1-2.6c0.6,0.2,1.2,0.7,1.7,0.6c4.2-1.1,5.9,3.1,9,4.2c0.4,0.1,0.4,1.3,0.6,1.9
		c-0.5,0.7-1,1.4-1.5,2.1c-2.6-0.5-5.4-0.5-7.7-1.6C171.8,61.5,171.6,59,170.9,57.4z"/>
	<path d="M110.4,19c8.3-0.4,16.7-0.9,24.8-1.3c-1.6,0.7-3.4,1.5-5.4,2.4c-1.6-2.6-3.4-1.1-4.8,0.8c-1.2,1.6-1.8,1.9-3.7,0.7
		c-0.9-0.5-3,1-3.7,1.2c-1.8-0.6-3-1-4.3-1.4c-1.1-0.4-2.2-0.8-3.3-1.2C110.2,19.8,110.3,19.4,110.4,19z"/>
	<path d="M200.3,43.6c-5.8,1.9-7.3-3.3-10.6-6.3c6.1-0.6,12-2.1,16.9,3.2c-2.7,0.2-5.4,1.2-7.5-1.7c-0.3-0.3-2.6,0.9-4.2,1.4
		c1.9,1.2,3.6,2.4,5.3,3.5C200.2,43.7,200.3,43.6,200.3,43.6z"/>
	<path d="M256.5,396.9c1-0.3,2-0.5,3-0.8c0.7,0.1,1.4,0.2,2.1,0.3c-5.3,3.5-4.1,8.9-4.5,14.8c-1.4-1.8-2.1-2.8-2.9-3.8
		c-0.3-0.5-0.5-1-0.8-1.6l0.1,0.1c-0.5-1.5-1.1-3-1.7-4.7c1.7,0.1,2.9,0.2,4.7,0.3c-0.9-1.1-1.5-1.7-2.1-2.4
		C255.1,398.4,255.8,397.7,256.5,396.9z"/>
	<path d="M105.7,433.6c-0.8,1.3-1.6,2.6-2.4,3.9c-2.8-2.9-2.8-6.4-0.1-10.1c-1-0.2-1.9-0.3-2.9-0.5c0,0,0.1,0.1,0.1,0.1
		c2.6-2.7,5.1-5.5,7.7-8.2c0.4,0.4,0.8,0.7,1.1,1.1c-0.6,0.5-1.1,1-1.3,1.3c0.6,1.1,1.2,2.2,2.2,4.1c-2.1-1.3-3.3-2.1-4.8-3
		C103.7,426.2,104.6,429.9,105.7,433.6z"/>
	<path d="M32.2,56.4c2.4-2.1,4.4-4.9,8.4-3.8c1,0.3,2.3-0.3,4.3-0.5c-1.6,1.1-2.5,1.8-3.6,2.6c5.5,0.5,5.5,0.5,6,2.1
		c-4.5,0.3-9,0.7-13.5,1C33.2,57.3,32.7,56.9,32.2,56.4z"/>
	<path d="M139.5,52.5c-0.3,0.5-0.5,1.1-0.8,1.6c-3.9-1.2-7.7-2.3-11.5-3.6c-0.6-0.2-0.8-1.2-1.2-1.9c0.8-0.2,1.7-0.5,2.5-0.4
		c1.2,0.1,2.4,0.4,3.5,0.7c0.5-0.2,1-0.5,1.5-0.7C136,48.9,139,49,139.5,52.5z"/>
	<path d="M248.3,633.9c-0.9-0.3-1.7-0.5-2.6-0.8c0.5-0.7,1.1-1.8,1.8-2.8c1.3,0.8,2.4,2,3.6,2c0.8,0,1.7-1.6,2.5-2.5
		c0.3,0.2,0.5,0.3,0.8,0.5c-2,4.1-3.9,8.3-6.1,12.8c-0.8-2-1.5-3.5-2.4-5.8C246.2,636.7,247.1,635.5,248.3,633.9z"/>
	<path d="M194.9,234.2c-0.2-1.3-0.5-2.5-0.7-3.8c0-0.2,0.1-0.5,0.1-0.7c2.4,1.1,5.2,1.8,7.1,3.5c1.4,1.2,1.7,3.8,2.5,5.8
		c-1.7-0.3-3.1-0.5-4.4-0.7c0.3,0.7,0.5,1.5,0.8,2.4c-0.3,0-1.2,0.1-2.3,0.2C200.1,237,197.3,235.7,194.9,234.2z"/>
	<path d="M131.2,221.5c-1,3.3-3.8,1.8-6.9,3c2.8-3.1,1.5-4.4-0.5-5.3c0.2-1.1,0.5-2.1,0.7-3.1c1.8-0.2,3.5-0.5,5.3-0.7
		c0.8,1.2,1.5,2.4,2.3,3.6C131.7,219.9,131.4,220.7,131.2,221.5z"/>
	<path d="M185.5,395.1c-3.2,1-3.4-1.3-3.5-3.3c-2.9-0.2-5.5-0.4-8.1-0.7c-0.1-0.3-0.1-0.5-0.2-0.8c2.2-0.8,4.4-1.7,7-2.7
		c-0.1,0.9-0.1,1.5-0.3,2.7c1.5-1,2.8-1.8,4.9-3.2c0,3.1,0,5.5,0,7.9C185.4,395.2,185.5,395.1,185.5,395.1z"/>
	<path d="M75.7,238.8c-1.9-1.6-4.7-1.6-6.5-2.6c-3.9-2.2-8.1-2.3-12.1-3.5c5.8-1.7,11.2,0.2,16.5,2.4c1.3,0.5,2.5,1.4,3.7,2.2
		C76.7,237.7,76.2,238.2,75.7,238.8z"/>
	<path d="M96.3,484.3c2.8,2.6,5.5,5.2,8.2,7.8c0.6,0.6,1,1.3,2.1,2.8c-1.8-0.1-3.6,0.2-4-0.4C100.5,491.1,95.4,489.5,96.3,484.3
		L96.3,484.3z"/>
	<path d="M203.3,588.1c-1.9,1.2-3.5,2.1-4.5,2.7c-1.1-2.7-2.3-5.9-3.6-9.3C199.2,582.2,201.7,584.4,203.3,588.1z"/>
	<path d="M180.8,573.1c-3.6-0.5-3.4,3.1-5,5.4c-0.8-1.3-1.3-2.2-1.8-3.1c2.3-2.6,4.3-5.4,6.9-7.6c1-0.8,3.3,0,5,0.8
		c-1.6,0.1-3.3,0.1-4.6,0.2C181.1,570.3,180.9,571.7,180.8,573.1z"/>
	<path d="M17.1,189.4c-0.6-0.7-1.2-1.4-1.6-1.8c1.8-2.2,3.4-4.2,5.4-6.8c-0.8,4.6-1.4,8.5-2.1,12.5c-1-0.2-2.4-0.6-4.3-1
		C15.5,191.2,16.2,190.4,17.1,189.4z"/>
	<path d="M286.4,492.1c0.3-0.7,0.5-1.4,0.8-2.1c4.2,2,6.8,5.5,8.4,9.8c-3.9,1.2-4.3,0.9-4.6-2.8c-0.1-0.9-1.2-1.6-1.8-2.5
		c-0.6-0.8-1.1-1.5-2-2.7C287.5,491.6,287,491.8,286.4,492.1z"/>
	<path d="M64.5,52.7c-1.5,2-3,4-4.5,5.9c-2-0.8-4-1.6-6.6-2.6c3.6-2,7.7-1.5,9.2-5.3C63.2,51.3,63.8,52,64.5,52.7z"/>
	<path d="M87.1,623.4c-3.2,0-6.5,0.1-9.7-0.2c-0.6,0-1.2-1.3-1.7-2c0.5,0,1,0,1.6,0c3.1-0.3,6.2-0.6,9.5-1c0.1,1.4,0.2,2.3,0.2,3.3
		C86.9,623.5,87.1,623.4,87.1,623.4z"/>
	<path d="M271.6,243.2c0.5-0.3,1-0.6,1.5-0.9c0.9,3.2,1.8,6.4,2.6,9.2c-0.9,0.2-2,0.7-2.4,0.4c-0.9-0.9-2-2.1-2.1-3.3
		C270.9,246.8,271.4,245,271.6,243.2z"/>
	<path d="M48.6,50.3c1,0.3,2,0.5,2.8,0.8c0.9-1.6,1.7-3.2,2.8-5.2c0.8,0.6,2.5,1.2,2.5,1.9c0.1,1.4-0.6,3.9-1.3,4
		c-2.3,0.3-4.7-0.2-7.1-0.4C48.4,51.1,48.5,50.7,48.6,50.3z"/>
	<path d="M150.7,73.6c3.8,3.5,7.5,7.1,11.3,10.6c0.3,0.2,0,1,0.1,1.5c-0.5,0-1.2,0.2-1.4-0.1c-3.6-3.7-7.2-7.4-10.7-11.1
		C150.1,74.2,150.4,73.9,150.7,73.6z"/>
	<path d="M253.1,626.5c-3.4,1.3-5.8,2.1-8.1,3c2.6-1.3-0.7-6.3,3.4-6C249.9,623.7,251.2,625.3,253.1,626.5z"/>
	<path d="M301.7,512.2c3.4,1.4,3.8,4.7,4.6,7.7c0.2,0.7-0.1,1.5-1.1,2c-1.2-2.3-2.6-4.6-3.6-7C301.2,514.2,301.7,513.1,301.7,512.2
		L301.7,512.2z"/>
	<path d="M115.1,504.6c-1.1-0.3-1.6-0.2-1.9-0.5c-2.3-2.1-4-5.1-7.2-6.2c0.2-0.7,0.3-1.7,0.8-1.9c0.7-0.3,2-0.2,2.3,0.2
		C111.1,498.7,112.8,501.3,115.1,504.6z"/>
	<path d="M138.6,330.8c-1.1,1.4-1.7,2.1-2.2,2.8c-2.5-2-4.9-3.9-7.3-5.9C133.7,324.6,134.9,330.1,138.6,330.8z"/>
	<path d="M81.7,249.2c0.5-0.7,1-1.5,1.5-2.2c1.3-0.1,3.1-1.1,3.3,1c0.1,1-1.2,2.8-2.1,3c-3,0.8-6.1,0.9-9.2,1.4
		c0-0.3-0.1-0.6-0.1-0.9c1.5-0.1,3.1,0,4.6-0.4C80.5,250.8,81.1,249.8,81.7,249.2z"/>
	<path d="M129.7,215.4c-1.8,0.2-3.5,0.5-5.3,0.7c-2.5-2.8,1.2-4.2,1.1-7.3C127.2,211.6,128.5,213.5,129.7,215.4z"/>
	<path d="M96.3,484.2c-1-0.4-2.8-0.7-2.9-1.3c-0.6-2.5-5.6-3.3-2.6-8.1C92.8,478.3,94.6,481.3,96.3,484.2
		C96.3,484.3,96.3,484.2,96.3,484.2z"/>
	<path d="M300.7,240.2c0.7-2.4-0.8-5.7,1.9-7c1.1,0.9,2.1,1.7,3.1,2.5C304.5,237.6,304.1,240.6,300.7,240.2z"/>
	<path d="M77.2,621.2c-0.5,0-1,0-1.6,0c-2.7,0.2-3.4-1.7-3.5-3.7c-0.1-0.9,0.8-2,1.2-2.9c0.4,0,0.8,0.1,1.2,0.1
		C75.4,616.9,76.3,619,77.2,621.2z"/>
	<path d="M301.8,512.1c-0.9-0.1-2.3,0-2.7-0.5c-1.7-2.7-3.1-5.6-5-9.3c3,1.1,4.7,1.7,4.9,4.6c0.1,1.8,1.7,3.5,2.7,5.3
		C301.7,512.2,301.8,512.1,301.8,512.1z"/>
	<path d="M105.8,38.7c2.9,1.5,7.7,0,7.7,6c-2.8-1.7-5.6-3.4-8.4-5.1C105.3,39.3,105.6,39,105.8,38.7z"/>
	<path d="M237.7,623.4c1,0.5,2.1,1,3.1,1.5c1.1,0.4,2.2,0.8,3.2,1.2c-0.5,1.2-1,2.5-1.5,4c-2-1.9-4-3.7-6-5.5
		C236.9,624.2,237.3,623.8,237.7,623.4z"/>
	<path d="M122.2,426.9c0-0.2,0-0.3,0-0.5c1.4-1,2.7-2,4.2-3c-0.8-0.2-1.6-0.3-2.6-0.5c1-1.1,1.9-2.1,2.9-3c0.2,3.3,0.4,6.9,0.6,10.4
		c-0.3,0-0.6,0.1-1,0.1c-0.2-1.3-0.3-2.6-0.5-3.9C124.6,426.6,123.4,426.7,122.2,426.9z"/>
	<path d="M234.3,597.8c-4-1.5-5.5-5.2-7.7-8.3c0.2-0.2,0.5-0.4,0.7-0.6c2.6,2.7,5.2,5.5,7.8,8.2
		C234.8,597.3,234.5,597.6,234.3,597.8z"/>
	<path d="M160.4,589.6c-0.3,0.8-0.6,1.6-1,2.4c-0.5,1.2-1,2.4-1.6,3.8c-3.5-3.6-3.9,1.6-5.8,2.9c-0.3-0.4-0.6-0.8-0.9-1.2
		C154.2,594.9,157.3,592.3,160.4,589.6z"/>
	<path d="M269.2,213.2c1.2,2.7,0.3,3.7-2.5,3.2c-0.9-0.2-1.9-0.1-2.8-0.2c-0.4-0.8-0.8-1.7-1.5-3.4
		C265.1,215.6,266.9,210.2,269.2,213.2z"/>
	<path d="M238.4,610.7c-0.5-0.8-0.9-1.5-1.4-2.3c1.3-1,2.5-2,3.8-3c0.4,0.1,0.9,0.2,1.3,0.4c0.1,1.6,0.3,3.3,0.4,4.9
		c-0.9,0-1.7,0-2.6,0C239.4,610.7,238.9,610.7,238.4,610.7z"/>
	<path d="M189.2,648.1c-1-2.1-2-4.1-3-6.3c-0.8-1.7-1.4-3.5-2.1-5.3c0.4-0.2,0.7-0.3,1.1-0.5c1.7,3.8,3.3,7.5,5,11.3
		C189.9,647.7,189.5,647.9,189.2,648.1z"/>
	<path d="M112.1,49.3c-2.6-0.8-5.4-1.2-7.8-2.4c-2.5-1.4-1.4-3.8-0.8-6.7c1.3,2.2,3.6,3.4,0.4,5.5c3,1.1,5.7,2,8.4,3
		C112.2,48.9,112.1,49.1,112.1,49.3z"/>
	<path d="M120.7,46.6c-4.8-0.6-6.1-1.7-5.7-4.8c3.7-1.9,3.8,2.2,5.6,3.4c0.1,0.2,0.1,0.4,0.1,0.6C120.7,46.1,120.7,46.3,120.7,46.6z
		"/>
	<path d="M32.2,56.4c0.5,0.4,1,0.9,1.5,1.3c0.2,0.8,0.5,1.7,1,3.4c-2.4-0.5-4.3-0.8-7.4-1.4C29.6,58.2,30.9,57.3,32.2,56.4z"/>
	<path d="M297.7,484.6c1-0.1,2.2-0.5,3.1-0.1c2.7,1.1,2.4,3-0.7,5.3c-0.9-1.5-1.8-2.9-2.6-4.4C297.5,485.1,297.6,484.9,297.7,484.6z
		"/>
	<path d="M192,77.5c-0.3,0.8-0.5,1.5-0.8,2.3c-3-2.5-6-5-8.9-7.5c0.3-0.3,0.5-0.6,0.8-0.9c1.8,1.5,3.6,3.1,5.5,4.5
		C189.5,76.6,190.8,76.9,192,77.5z"/>
	<path d="M48,64.6c1.7,0.5,3.5,0.9,5,1.7c1,0.6,1.6,1.9,2.4,2.8c-2.5-0.7-4.9-1.5-7.4-2.2C48,66.1,48,65.4,48,64.6z"/>
	<path d="M133.4,48.2c-0.5,0.2-1,0.5-1.5,0.7c-1.9-3.5-4.4-5.9-7-6.6C127.7,41.3,130.8,43.4,133.4,48.2z"/>
	<path d="M110.8,414.2c0.6-3.9,2-4.6,4.3-3.8c0.7,0.3,1.2,0.9,1.7,1.4C115.1,412.5,113.3,413.2,110.8,414.2z"/>
	<path d="M189.7,593.5c-0.5-0.3-1.1-0.6-1.6-0.8c0.3-2.4,0.6-4.8,0.9-7.3c0.4,0,0.9,0,1.3,0c0.1,2.4,0.2,4.9,0.3,7.3
		C190.3,592.9,190,593.2,189.7,593.5z"/>
	<path d="M252.8,131.5c1.2,0.2,2.5,0.4,3.7,0.6c1.4,0.6,2.8,1.2,3.9,1.6c-0.5,0.6-1.1,1.3-1.6,2c0,0.2,0,0.5,0,0.7
		C256.7,134.9,254.7,133.2,252.8,131.5z"/>
	<path d="M131.2,221.5c0.3-0.8,0.5-1.6,0.8-2.4c2.1-1.4,2.4,1.2,3.6,1.7c-1,0.8-2,1.7-3,2.5C132.1,222.7,131.7,222.1,131.2,221.5z"
		/>
	<path d="M172.4,602.4c0.3-0.3,0.5-0.5,0.8-0.8c1,2.6,2,5.3,2.9,8c0.1,0.3-0.6,0.8-1,1.2c-0.2-0.3-0.6-0.6-0.7-1
		C173.7,607.4,173.1,604.9,172.4,602.4z"/>
	<path d="M189.2,648.1c0.4-0.2,0.7-0.5,1.1-0.7c1.7,3.3,3.5,6.6,5.2,9.9c-0.3,0.2-0.6,0.3-0.9,0.5
		C192.8,654.6,191,651.4,189.2,648.1z"/>
	<path d="M181.8,629.4c-1.1-3.3-2.3-6.7-3.4-10c0.4-0.1,0.7-0.2,1.1-0.3c1.1,3.4,2.2,6.7,3.3,10.1
		C182.5,629.2,182.1,629.3,181.8,629.4z"/>
	<path d="M245.1,639.7c-2.9,2,2.7,3.8-1.6,4.4c-0.8,0.1-1.8-1.8-2.7-2.8c0.9-0.6,1.7-1.3,2.6-1.8
		C243.8,639.4,244.4,639.7,245.1,639.7z"/>
	<path d="M122.5,617.1c2.9-1.4,6-3,8.8-4.4C130.9,615.5,127.2,617.4,122.5,617.1z"/>
	<path d="M190.4,597c-0.2-0.4-0.5-0.9-0.7-1.3c0.9-0.4,1.8-0.9,2.7-1.3c0.1,0.8,0.1,1.6,0.2,2.4c-0.3,0.4-0.5,0.8-0.8,1.1
		C191.4,597.6,190.9,597.3,190.4,597z"/>
	<path class="st0" d="M192.4,594.3c-0.9,0.4-1.8,0.9-2.7,1.3c0-0.3,0-0.5,0-0.8c0.1-0.1,0.2-0.1,0.2-0.2c-0.1-0.2-0.1-0.3-0.2-0.4
		c0-0.3,0-0.5,0-0.8c0.3-0.3,0.6-0.5,0.9-0.8c0.2,0,0.4,0,0.7,0C191.7,593.2,192.1,593.8,192.4,594.3z"/>
	<path d="M120.7,46.6c0-0.3,0-0.5,0-0.8c0.3-0.2,0.5-0.4,0.8-0.6c0,0-0.1,0-0.1,0c0.3-0.3,0.6-0.5,0.9-0.8
		C121.8,45.2,121.2,45.9,120.7,46.6z"/>
	<path class="st0" d="M184.5,397.5c0.7,0.4,1.5,0.9,2.2,1.3c-0.1,0.2-0.2,0.4-0.3,0.5c-0.7-0.4-1.3-0.7-2-1.1
		C184.5,398,184.5,397.8,184.5,397.5z"/>
	<path class="st0" d="M241,619.7c0.1-0.5,0.3-1,0.4-1.6c0,0.5,0.1,1,0.1,1.6l-0.1,0.1C241.3,619.7,241.1,619.7,241,619.7z"/>
	<path d="M253.3,407.4c-0.5-0.4-0.9-0.9-1.4-1.3c0.5,0,1-0.1,1.5-0.1c0,0-0.1-0.1-0.1-0.1c0.1,0.5,0.1,1.1,0.2,1.6L253.3,407.4z"/>
	<path d="M75.7,436c0.5,0,1,0,1.5,0c-0.3,0.2-0.5,0.5-0.8,0.7l0.1-0.1c-0.3,0-0.5,0-0.8,0C75.7,436.4,75.7,436.2,75.7,436z"/>
	<path class="st0" d="M241.4,618.1c0.5,0,1,0,1.5,0C242.4,618.2,241.9,618.1,241.4,618.1z"/>
	<path class="st0" d="M193.4,230.4c-0.5,0-1,0-1.6,0C192.4,230.4,192.9,230.4,193.4,230.4z"/>
	<path class="st0" d="M191.8,597.9c0.3-0.4,0.5-0.8,0.8-1.1c0,0.4,0,0.8,0,1.2C192.4,597.9,192.1,597.9,191.8,597.9z"/>
	<path class="st0" d="M253.6,407.5c-0.1-0.5-0.1-1.1-0.2-1.6c0.3,0.5,0.5,1,0.8,1.6C254,407.4,253.8,407.4,253.6,407.5z"/>
	<path class="st0" d="M207,408.7c-0.3-0.2-0.5-0.3-0.8-0.5C206.5,408.3,206.7,408.5,207,408.7z"/>
	<path class="st0" d="M121.5,425.1c-0.3,0.1-0.6,0.2-0.9,0.2C120.9,425.3,121.2,425.2,121.5,425.1z"/>
	<path class="st0" d="M168,582.1c0,0.5,0,1.1,0,1.6C168,583.1,168,582.6,168,582.1z"/>
	<path class="st0" d="M292.5,477.2c-0.5-0.3-0.9-0.5-1.4-0.8C291.5,476.7,292,476.9,292.5,477.2z"/>
	<path class="st0" d="M81,45.2c-0.3,0.2-0.5,0.4-0.8,0.6C80.5,45.6,80.7,45.4,81,45.2z"/>
	<path class="st0" d="M288.7,192c-0.2-0.2-0.4-0.4-0.6-0.6C288.3,191.6,288.5,191.8,288.7,192z"/>
	<path class="st0" d="M122.3,44.5c-0.3,0.3-0.6,0.5-0.9,0.8C121.7,45,122,44.7,122.3,44.5z"/>
	<path class="st0" d="M244.4,618.1c0.3,0,0.6,0,0.9,0C245,618.1,244.7,618.1,244.4,618.1z"/>
	<path class="st0" d="M287.2,190.4c-0.2-0.2-0.4-0.3-0.7-0.5C286.7,190.1,286.9,190.2,287.2,190.4z"/>
	<path class="st0" d="M286.5,189.9c-0.3,0-0.5-0.1-0.8-0.1c0,0,0.1,0.1,0.1,0.1c0.2-0.2,0.5-0.4,0.7-0.6
		C286.5,189.5,286.5,189.7,286.5,189.9z"/>
	<path class="st0" d="M241.5,619.7C241.5,619.7,241.4,619.7,241.5,619.7C241.4,619.7,241.5,619.7,241.5,619.7z"/>
	<path class="st0" d="M249.7,141.8c0.2,0.1,0.5,0.1,0.7,0.2C250.2,142,250,141.9,249.7,141.8z"/>
	<path class="st0" d="M175.5,88c0.2,0,0.4,0.1,0.5,0.1c-0.2,0.2-0.3,0.4-0.5,0.6C175.5,88.5,175.5,88.3,175.5,88z"/>
	<path class="st0" d="M121.5,45.2c-0.3,0.2-0.5,0.4-0.8,0.6c0-0.2-0.1-0.4-0.1-0.6C120.9,45.2,121.2,45.2,121.5,45.2z"/>
	<path class="st0" d="M215.3,56.4c0.2-0.2,0.4-0.5,0.5-0.7c0.1,0.2,0.1,0.4,0.1,0.7l-0.1,0.1C215.7,56.4,215.5,56.4,215.3,56.4z"/>
	<path class="st0" d="M216.8,57.1c-0.3,0.1-0.5,0.1-0.8,0.2c0-0.3-0.1-0.6-0.1-0.8c0,0,0.1-0.1,0.1-0.1c0.2,0,0.5,0.1,0.7,0.1
		l-0.1-0.1c0,0.3,0,0.6,0,0.9C216.7,57.2,216.8,57.1,216.8,57.1z"/>
	<path class="st0" d="M215.9,57.9c0,0.2,0,0.5,0,0.7C215.9,58.4,215.9,58.2,215.9,57.9z"/>
	<path class="st0" d="M297,485.4C297,485.4,296.9,485.4,297,485.4C296.9,485.4,297,485.4,297,485.4z"/>
	<path class="st0" d="M297.7,484.6c-0.1,0.3-0.1,0.5-0.2,0.8c-0.2,0-0.3,0-0.5,0c0,0,0,0,0,0c0-0.3,0-0.5,0.1-0.8
		c0.3,0,0.5,0.1,0.8,0.1L297.7,484.6z"/>
	<path d="M297.8,484.7c-0.3,0-0.5-0.1-0.8-0.1c0,0,0,0,0,0c0-0.2-0.1-0.5-0.1-0.7c0,0,0,0,0,0c0.3,0,0.5,0,0.8,0
		C297.7,484.2,297.7,484.4,297.8,484.7z"/>
	<path class="st0" d="M296.9,483.9c0,0.2,0.1,0.5,0.1,0.7c-0.1-0.2-0.1-0.3-0.2-0.5C296.8,484.1,296.9,484,296.9,483.9z"/>
	<path class="st0" d="M297.7,483.9c-0.3,0-0.5,0-0.8,0c0-0.2,0-0.4,0-0.7c0.3,0,0.5,0,0.8,0.1C297.7,483.5,297.7,483.7,297.7,483.9z
		"/>
	<path class="st0" d="M294.7,483.3c0.2-0.1,0.5-0.1,0.7,0C295.2,483.3,295,483.3,294.7,483.3z"/>
	<path d="M297.7,483.3c-0.3,0-0.5,0-0.8-0.1c0,0,0,0,0,0c0-0.3,0-0.5,0-0.8C297.2,482.7,297.5,483,297.7,483.3z"/>
	<path class="st0" d="M296.9,482.4c0,0.3,0,0.5,0,0.8c-0.3,0-0.5,0-0.8,0c0-0.2,0.1-0.4,0.1-0.6c0.3,0,0.5,0,0.8,0
		C297,482.5,296.9,482.4,296.9,482.4z"/>
	<path d="M297,482.5c-0.3,0-0.5,0-0.8,0c0.2-0.3,0.4-0.5,0.6-0.8C296.9,481.9,296.9,482.2,297,482.5z"/>
	<path class="st0" d="M77.1,437.6c-0.2,0.2-0.4,0.4-0.7,0.6c0-0.2,0-0.5-0.1-0.7c0,0,0.1,0,0.1,0C76.7,437.5,76.9,437.6,77.1,437.6z
		"/>
	<path class="st0" d="M75.7,436.6c0.3,0,0.5,0,0.8,0c0,0.3,0,0.5-0.1,0.8c0,0-0.1,0-0.1,0C76.2,437.2,75.9,436.9,75.7,436.6z"/>
	<path class="st0" d="M168,583.7c-0.1,0.2-0.2,0.4-0.3,0.5c-0.2-0.2-0.4-0.3-0.6-0.5C167.4,583.7,167.7,583.7,168,583.7z"/>
	<path d="M209.2,407.6l-0.4,0.1l-0.3-0.1C208.7,407.4,209,407.4,209.2,407.6z"/>
	<path class="st0" d="M194.3,229.7c-0.1,0.2-0.1,0.5-0.1,0.7c-0.3,0-0.5,0-0.8,0C193.7,230.2,194,229.9,194.3,229.7z"/>
	<path class="st0" d="M143.9,202.5l-0.4,0.1l-0.4-0.1C143.5,202.5,143.7,202.5,143.9,202.5z"/>
	<path d="M76.4,437.4c0-0.3,0-0.5,0.1-0.8c0,0-0.1,0.1-0.1,0.1c0.3,0,0.5-0.1,0.8-0.1c0,0.3,0,0.7,0,1
		C76.9,437.6,76.7,437.5,76.4,437.4z"/>
	<path class="st0" d="M77.2,436.6c-0.3,0-0.5,0.1-0.8,0.1c0.3-0.2,0.5-0.5,0.8-0.7C77.2,436.2,77.2,436.4,77.2,436.6z"/>
	<path d="M86.9,60.2c-2.2-1.2-4.5-2.3-7.7-4c2.7-1,4.5-1.6,6.6-2.4c0.3,1.4,0.6,2.5,0.8,3.6c0.2-0.3,0.5-0.5,0.7-0.8
		c0.9,0.7,1.8,1.3,2.7,2C88.9,59.2,87.9,59.7,86.9,60.2z"/>
	<path class="st0" d="M104.1,65.8c-0.1,0.1-0.2,0.2-0.3,0.2c-0.1,0-0.2-0.2-0.2-0.2c0.1-0.1,0.2-0.2,0.3-0.2
		C103.9,65.6,104,65.7,104.1,65.8z"/>
	<path d="M245.9,118.1c-0.8,0.6-1.7,1.1-2.8,1.9c-0.3-1-0.6-1.9-0.9-2.8c1.2-1.2,2.5-2.4,3.7-3.6c2.3-1,2.9,0.9,3.8,2.2
		C248.4,116.6,247.1,117.3,245.9,118.1z"/>
	<path class="st0" d="M217.4,57.3c0,0.4-0.1,0.8-0.1,1.3c-0.2-0.5-0.4-0.9-0.6-1.4c0,0-0.1,0.1-0.1,0.1
		C216.9,57.2,217.2,57.2,217.4,57.3z"/>
	<path class="st0" d="M285.7,189.8c-0.1,0.2-0.1,0.4-0.2,0.6c0.1-0.2,0.2-0.3,0.3-0.5C285.8,189.9,285.7,189.8,285.7,189.8z"/>
	<path d="M216.8,56.5c-0.2,0-0.5-0.1-0.7-0.1c0-0.2-0.1-0.4-0.1-0.7c0.3,0,0.6,0,0.9,0C216.8,56,216.8,56.2,216.8,56.5z"/>
	<path class="st0" d="M216.8,56.5c0-0.3,0-0.5,0-0.8c0.2,0.2,0.4,0.4,0.6,0.6c-0.3,0-0.5,0-0.8,0L216.8,56.5z"/>
	<path d="M216.6,56.4c0.3,0,0.5,0,0.8,0c0,0.3,0,0.6,0,0.9c-0.3,0-0.5,0-0.8,0C216.7,56.9,216.7,56.6,216.6,56.4z"/>
	<path class="st0" d="M198.6,86.8c-0.1,0.1-0.2,0.2-0.3,0.2c-0.1,0-0.2-0.2-0.2-0.2c0-0.1,0.2-0.2,0.2-0.2
		C198.4,86.6,198.5,86.7,198.6,86.8z"/>
	<path class="st0" d="M138.7,217.7c0.2,0.1,0.4,0.1,0.6-0.1l-0.1-0.1l-0.2,0l-0.2,0.1L138.7,217.7z"/>
	<path class="st0" d="M139.4,217.7c0.1-0.2,0.3-0.3,0.4-0.5c-0.2,0.1-0.3,0.3-0.5,0.4C139.3,217.6,139.4,217.7,139.4,217.7z"/>
	<path class="st0" d="M138.9,217.6c-0.2-0.1-0.4-0.1-0.6-0.2c0.1-0.1,0.1-0.2,0.2-0.3c0.1,0.2,0.2,0.4,0.3,0.6
		C138.7,217.7,138.9,217.6,138.9,217.6z"/>
	<path d="M203.9,67.8c-0.3,0.3-0.9,1-0.9,1c-2-1.6-3.9-3.2-5.8-4.8c1.8,0.1,3.6,0.2,5.4,0.3C203,65.4,203.5,66.6,203.9,67.8z"/>
	<path class="st0" d="M203.2,64.1c0.1-0.2,0.1-0.4,0.2-0.6c-0.1,0.1-0.2,0.3-0.3,0.4C203.1,63.9,203.2,64.1,203.2,64.1z"/>
	<path class="st0" d="M299.8,220.3c-0.1,0.1-0.2,0.2-0.3,0.2c-0.1,0-0.2-0.2-0.2-0.2c0-0.1,0.2-0.2,0.2-0.2
		C299.7,220.1,299.7,220.2,299.8,220.3z"/>
	<path class="st0" d="M238.4,610.7c0.5,0,1,0,1.5-0.1C239.4,610.7,238.9,610.7,238.4,610.7z"/>
	<path d="M189.7,594.2c0.1,0.1,0.2,0.3,0.2,0.4c0,0-0.1,0.1-0.2,0.2C189.7,594.6,189.7,594.4,189.7,594.2z"/>
</g>
</svg>
