<?xml version="1.0" encoding="utf-8"?>
<!-- Generator: Adobe Illustrator 20.0.0, SVG Export Plug-In . SVG Version: 6.00 Build 0)  -->
<svg version="1.1" id="Слой_1" xmlns="http://www.w3.org/2000/svg" xmlns:xlink="http://www.w3.org/1999/xlink" x="0px" y="0px"
	 viewBox="0 0 731.3 971.3" style="enable-background:new 0 0 731.3 971.3;" xml:space="preserve">
<g>
	<path d="M528.1,909.4c0.5,0.3,1.1,0.6,1.6,0.9c2.3-0.2,4.6-0.3,6.9-0.5C534.7,908,532.4,907.1,528.1,909.4z"/>
	<path d="M603.4,888.7c1.5-0.4,5-0.1,0-4.9c4.7,2.1,7.5,3.3,10.3,4.5c0.3-0.3,0.7-0.6,1-0.9c-3.4-2.2-6.8-4.5-10.2-6.7
		c-0.5,0.5-4.6,1.9,0,6c-2.1,1.4-3.9,2.6-6,4c-0.2-3.4-0.3-5.9-0.5-8.9c-2.2,1-3.9,1.8-5.7,2.6c-0.2-0.3-0.4-0.6-0.6-0.8
		c0.7-0.8,1.4-1.6,1.6-1.9c-1.2-1.9-2.2-3.6-3.6-5.8c-0.7,0.6-2,1.7-3.7,3.2c0.2-1.6,0.3-2.6,0.5-3.9c-1.5,0.2-3,0.4-5.4,0.8
		c1.4-1.7,2.1-2.6,3.2-3.9c-2.5-0.2-4.7-0.3-7.9-0.6c4.5,6.5,9.9,10.8,16,14.4c1.6,0.9,4.1,0.8,2.9,3.8c-0.1,0.3,0.2,1,0.6,1.3
		c1.6,1.7,3.2,3.4,4.9,5.1c1.5-0.5,2.9-0.9,4.4-1.4C604.6,892.8,604.1,890.8,603.4,888.7z"/>
	<path d="M50.1,697.4c0.9,0.7,1.9,1.4,2.8,2.1c-0.2-0.8-0.5-1.7-0.8-3C51.4,696.8,50.8,697.1,50.1,697.4z"/>
	<path d="M616.9,890.8c-0.5-0.5-1.1-0.6-0.7-0.4c-1.7,0.8-3.3,1.6-4.7,2.2C613.4,892.1,615.1,891.5,616.9,890.8z"/>
	<path d="M34.8,617.9c2.5,11.4,5.1,22.8,7.5,34.2c0.9,4.6,1.2,9.4,2,14c0.8,4.3,2,8.6,2.9,12.9c0.7,3.2,0.9,6.6,1.7,9.7
		c1.3,4.8,2.8,5.2,7.5,3.4c2.8-1.1,5.9-1.6,8.9-1.8c0.9,0,1.8,2.1,2.8,3.3c-0.9,0.4-2.1,1.5-2.7,1.2c-4.7-2.3-6.9,0.9-9.5,3.7
		c-0.6,0.7-1.3,1.2-2,1.7c12.8,10,24.6,20.6,35.1,33.3c11.2,13.5,20.9,27.9,31.2,41.9c11.1,13.5,23.4,25.9,36.8,37
		c20.4,14.8,42.6,26.7,65.6,36.9c12,4.8,24,9.2,36.3,13.3c47.7,16.1,96.2,30.5,145.7,39.9c-0.4-3.1-0.7-6.2-0.9-9.2
		c-0.5-7.9,1.4-16.1,0.6-23.9c-1-9,0.1-18-0.7-27c-0.4-4.5,0.8-9.2,0.6-13.8c-0.2-5.7-1.4-11.4-1.6-17.2c-0.1-4,1.3-8.2,0.9-12.1
		c-0.4-4.8-2.1-9.4-3.1-14.2c-0.5-2.5-1.2-5.2-0.9-7.8c1-8.2-2.2-15.6-4.1-23.3c-1.2-4.6-1.3-9.5-1.9-14.7c4.4-0.2,5.6,3.6,5.9,6
		c1.3,10.1,7.8,17,13.7,24.3c5.4,6.6,11.2,13,16.8,19.4c4.4,5,4.5,9.2-0.2,13.1c-1.2,1-3.5,1.6-4.7,1c-1-0.4-1.3-2.8-0.9-4.9
		c0.9,0.5,1.7,1,2.6,1.4c0.2-0.2,0.3-0.4,0.5-0.6c-7.5-8.4-15-16.7-23.2-25.8c2.4,9.2,4.8,17.8,6.8,26.5c0.4,1.8-1,4-1.2,6.1
		c-0.3,2.1-0.9,4.6-0.1,6.4c0.4,0.9,3.6,0.6,5.5,0.8c1,0.1,2.2,0.4,2.9-0.1c3.9-2.3,5.4-0.7,6.2,3.3c0.1-1,0.2-2,0.5-2.9
		c0.3-0.8,1.1-2.2,1.3-2.2c5.3,1.8,11.2-2.5,16.2,1.8c3.1,2.7,6.3,5.4,10.4,8.9c-2.1,1.1-3.1,1.7-4.1,2.2c0.3,0.4,0.6,0.8,0.8,1.2
		c2-1.1,4.1-2.1,6.1-3.2c0.3,0.2,0.6,0.5,0.9,0.7c-1.7,2.6-3.5,5.3-5.7,8.6c2.9,1.9,5.9,3.8,9,5.8c0.6,2,1.4,4.4,2.3,7
		c-0.2,1.2-1.4,3.3-0.8,4.5c1.8,4,0,5-2.1,4.9c0.2,2.8,1.3,5.7,0.3,7.6c-1.2,2.3-4.1,3.7-7.1,6.2c-0.1,0.1-0.8,1.5-1.3,2.5
		c0.8,2.1,1.6,4,2.1,6c0.1,0.4-1.5,1.7-1.9,1.5c-1.3-0.5-2.3-1.5-4.6-3.1c-0.8,3.7-1.7,7.3-2.5,11c0.3,0.2,0.6,0.3,0.8,0.5
		c0.5-0.8,1-1.5,2.1-3.2v9.1l-0.6,0.2c-0.4-1-0.7-2.1-1.1-3.3c-0.7,0.5-1.3,0.9-2.3,1.6c-0.2-3-0.3-5.6-0.5-9.4
		c-0.9,1.7-1.3,2.6-1.7,3.5c-0.7-0.4-1.3-0.8-2.1-1.2c-0.3,1.4-0.6,2.7-0.8,3.9c-0.3,0-0.6,0-0.9,0c-0.2-1.6-0.3-3.3-0.6-5.7
		c-1.7,3.3-3.1,6.1-4.6,9.3c-2-2.6,0.8-7.6-5-6.6c0.1,1.7,0.3,3.3,0.4,4.9c-0.4,0.1-0.9,0.1-1.3,0.2c-0.6-2.7-1.1-5.3-1.7-8.2
		c-1.6,0.8-3.1,1.7-3.6,1.9c-3.2-0.9-5.4-1.5-9-2.5c-0.1,1.9-0.7,3.8-0.4,5.5c1.3,6.6,3.6,12.8,6.5,18.7c5.3,0.9,10.7,1.8,16,2.6
		c24,2.8,48.1,4.2,72.2,3.7c-0.2-1.1-0.5-2.2-0.7-3.4c0,0-1.2,0.5-2.4,0.9c-0.2-0.4-0.5-0.8-0.5-0.8c2.7-2.9,0.1-5-1.8-5.6
		c-4.5-1.5-2.2-3.8-1.3-6.6c-4.8,1.3-9.7-3.7-14.5,1c-0.5-0.8-1-1.5-1.5-2.3c-4.8,2.8-7.2,2-9.7-3.1c-0.6-1.1-2.3-1.6-3.3-2.5
		c-1.4-1.3-2.5-2.7-3.5-3.8c4.4-0.2,8-0.4,11.7-0.5c0.1-0.6,0.2-1.3,0.3-1.9c-2.6-0.8-5.2-1.7-7.2-2.3c-1.2-1.9-2.3-3.6-3.4-5.3
		c0.2-0.3,0.4-0.6,0.6-0.9c2.6,1.2,5.2,2.5,7.9,3.7c0.2-0.1,0.3-0.2,0.5-0.3c-1.5-1.2-2.9-2.4-4.6-3.8c4.1-0.9,8.4-1.7,12.6-2.6
		c0-0.2-0.1-0.5-0.1-0.7c-1.5,0.2-3.1,0.3-4.6,0.5c-0.2-0.4-0.4-0.7-0.6-1.1c1.2-1.3,2.4-2.7,4.6-5.1c-2.9,1-4.5,1.6-6,2.1
		c-0.2-0.4-0.4-0.8-0.6-1.2c0.8-0.7,1.6-1.3,2.3-2c3.4-3.6,7.1-6.9,10.2-10.8c3.4-4.3,9.8-6.4,15.9-4.3c-0.4-1.3-0.7-2.4-1-3.2
		c2.4-1.2,4.4-2.3,6.6-3.4c-2.5-3.6,1.7-3.1,3.5-4.3c2.8-1.8,5.6-3.6,8.4-5.4c-0.2-0.5-0.5-1-0.7-1.4c-1.4-0.5-3-0.9-4.3-1.6
		c-0.7-0.4-1.9-1.5-1.7-2c2.3-6.4-3.2-8.1-6.5-11.1c-0.6-0.6-1.7-0.8-2.6-1c-2.5-0.5-5-0.8-8.3-1.3c-0.2,0.1-1.7,0.9-3.2,1.6
		c1.1,1.5,2.6,3.5,4.1,5.5c-0.2,0.3-0.4,0.7-0.6,1c-1-0.4-2.1-0.5-2.9-1.1c-1.3-0.9-2.3-2.1-3.5-3.2c-1.1,1.6-2.1,3.2-3.2,4.8
		c-1.6,0.6-3.5,1.3-5.4,2c-1.3-2.6,6-11.9,10.1-12.1c-2.9-3.4-2.3-4.8,3.3-9.6c4.7-4.1,9-8.6,13.7-12.6c1.2-1,3.1-1.5,4.7-1.5
		c0.9,0,2.5,1.6,2.5,2.5c-0.1,5.7,4.3,9.6,5.9,14.5c0.2,0.6,0.7,1.2,0.6,1.8c-1.4,11.7,6.5,21.2,7.6,32.3c1.1,11.2,3,22.3,4.4,33.5
		c1,7.6,1.9,15.3,2.4,22.9c0.3,4.4,0.2,8.7,0.1,13.3c2.1-0.2,4.2-0.4,6.3-0.6c1.1-0.2,2.2-0.4,3.4-0.6c-0.1-0.5-0.1-1.1-0.1-1.6
		c-0.1-2.1,0.6-4.3,0.6-6.4c-0.1-3.3,0.8-7.1-0.6-9.8c-1.9-3.7-2.2-6.6,0-9.3c-1.3-2.8-2.4-5.2-3.6-7.6c1-0.5,2.1-1,3.3-1.5
		c2.3,7.8,4.4,15,6.3,21.8c1.4-0.9,3-1.9,4.6-2.8c0.3,0.5,0.6,1.1,0.9,1.6c-2.6,2.1-5.3,4.2-7.4,5.9c0.6,3,1.1,5.7,1.6,8.7
		c11.9-2.2,23.7-4.8,35.3-8.1c-6.5-8.9-13.4-17.5-21.7-25.1c2.3-1.2,4.5-2.4,7.1-3.8c-2.8-5.8-11.2-7.9-10.4-15.5
		c-2.4-1.3-4.6-2.6-6.4-3.6c0.2-2.8,0.3-4.7,0.4-6.7c2.5,1.4,4.9,2.7,7.9,4.4c0.1-2.2,0.2-3.4,0.2-4.4c1.6-2.6,7.7,0.8,6.1-6.2
		c-2.9,0.7-5.6,1.2-8.2,2.1c-0.2,0.1,0.4,2.5,0.7,4.5c-6.4-0.1-1.4-6.7-4.3-8.3h5.9c-0.3-2.9-0.1-6.1-1.1-8.8c-0.7-2-3-3.4-4.3-5.2
		c-6.7-10-13.4-20-19.8-30.2c-1.5-2.4-1.9-5.6-1.9-9c6.4,5.5,12.8,10.9,19.6,16.8c-0.6-1.3-1.1-2.3-1.5-3.3c0.4-0.3,0.7-0.7,1.1-1
		c4.2,4.4,8.7,8.6,12.5,13.3c2.3,2.9,3.2,6.9,5.3,10.1c1.8,2.6,4.3,4.8,6.2,6.8c-1.8,1-3.6,1.9-5.4,2.9c1.3,1.9,2.5,3.9,4,5.7
		c5,5.9,10,11.8,15.2,17.5c8.5,9.3,17.3,18.2,25.6,27.6c1.8,2,3.6,4.1,5.3,6.3c4.7-2.4,9.3-5,13.7-8c0.6-0.5,1.2-1.1,1.8-1.7
		c-1.3-0.6-2.7-1.2-4.2-1.8c4.1-1.4,6.1-1.9,7.3-1.1c1.1-1.1,2.2-2.2,3.2-3.4c2.3-3.5,4.4-7.2,6.3-10.9c3-8.8,5.2-17.8,6.8-26.9
		c0.4-4,0.7-7.9,1-11.9c-6.5-5.7-13.3-11.2-19.1-17.6c-7.8-8.6-17.1-14.7-26.7-20.6c-7-4.4-14.3-8.4-21.6-12.3
		c-8.1-4.4-16.2-8.7-24.6-12.6c-8.4-3.9-8.9-5-2.7-11.3c0.3-0.3,0.2-0.8,0.4-1.4c-14.1,10.4-28.1,20.7-42.1,31
		c-0.3-0.4-0.7-0.8-1-1.1c1.4-4.2,7.2-7.1,3.8-12.6c-2.3-3.8-4.4-7.7-6.7-11.5c-0.2,0.1-0.5,0.3-0.7,0.4c2.3,4.7,4.5,9.4,6.6,13.8
		c-1.1,1.9-2.1,3.4-2.8,5c-1.3,3-3,5.4-6.6,4c-3.4-1.3-4.1-3.9-2.3-7.3c2.1-4.1,1.1-7.3-3.2-9.3c-1.2-0.5-2.2-1.2-3.4-1.9
		c-3.5,2.5-5.7,5-4,9.7c0.7,1.9,0,4.5-0.6,6.7c-0.9,3.1-4.3,3.8-6.2,1.3c-1.4-1.9-2.4-4-4.2-7.1c0.1,2.3,0.6,3.7,0.2,4.6
		c-3.5,6.9-8.2,12.6-15.4,16c-3.7,1.8-6.8,4.9-10.5,6.7c-5.1,2.5-8.2,9.4-15.6,7.1c-1-0.3-2.8,0.4-3.4,1.2
		c-4.8,6.4-11.6,7.7-19.2,7.2c0.3-0.4,0.6-0.8,0.9-1.1c4.4-5.3,12.1-6.3,15.8-12.9c1.9-3.5,7-5,7.5-9.9c0-0.3,0.9-0.4,1.3-0.7
		c3.5-3.5,6.8-7.2,10.4-10.7c9.7-9.6,18-20.4,30.2-27.7c6.1-3.6,13-5.8,18.3-11.5c8.8-9.4,21-15.1,29.1-25.8
		c6.1-8.1,13.5-15.1,21.2-23.4c-2.7,0.6-4,0.9-5.4,1.2c-1-5.9,1.3-9.5,6.7-11.7c6.2-2.6,12.2-5.4,18.2-8.1
		c-5.8-2.9-11.5-5.2-16.7-8.4c-3.2-2-5.3-1.4-7.7,0.7c-0.9,0.8-1.5,2-2.5,2.3c-1.2,0.4-3.2,0.7-3.8,0c-0.7-0.8-0.8-2.9-0.3-3.9
		c0.6-1.2,2.2-1.8,3.4-2.7c5.2-4.4,12-4.6,18-6.8c0.3-0.1,0.8,0.3,1.2,0.5c-0.7,1-1.3,1.9-2.1,3c8-1,6.4,6.5,9.9,9.3
		c-1-3.4-2-6.8-3.9-9.7c-2.7-4.3-5.8-8.4-9-12.4c-5.7-7.1-11.4-14.1-17.3-20.9c-2.4-2.7-5.3-3.1-8,0.1c-3.6,4.2-7.4,8.3-11.3,12.2
		c-1.8,1.8-4.1,3.1-6.2,4.6c-2.9,2-5.6,4.3-8.6,6.1c-4,2.5-8.3,4.6-11.5,6.4c4.1,11.4,8,21.7,11.6,32.1c1.2,3.5,2.2,7.2,2.9,10.9
		c1.8,10.3,3.4,20.6,5.1,31.2c-6.8,2.8-14.3,5.7-22.9,2.2c0.2-2.8,0.4-5.7,0.7-9c-1.2-0.2-2.7-0.4-4.9-0.7c1.3-1.2,2.2-1.9,2.7-2.3
		c-1.8-1.6-3.7-3.3-5.7-5.1c2.5-2.9,4.4-5.1,6.6-7.6c-2-0.2-3.5-0.4-6.4-0.8c1.4-2.8,2.6-5.1,3.7-7.3c0.4-0.9,0.6-1.8,0.9-2.8
		c-3.9-1-1.1-2.9-0.7-4.6c0.2-1,0.2-2.3-0.3-3.2c-1.5-3.2-3.2-6.3-4.8-9.4c-1.2,0.7-2.4,1.3-3.6,2c1.3-1.6,2.6-3.3,3.9-4.9
		c-0.5-1-1.2-2.7-1.9-4.2c3.6-1.6,6.6-3,9.7-4.4c-2.3-0.7-4.5-0.3-6.7-0.2c-1.3,0.1-2.7-0.3-4-0.4c0.5-1.8,0.7-3.7,1.5-5.3
		c0.3-0.6,1.9-0.6,3-0.9c-3.9-1.2-7,1.9-6.8,4c0.4,3.8-1.8,5.5-2.9,8.2c-2.9,6.9-4.9,14.2-7.4,21.3c-5.9,16.9-12,33.7-17.9,50.5
		c-1.4,3.9-2.7,7.8-4.2,11.6c-3.2,7.9-6.9,15.5-9.5,23.6c-2.1,6.2-3.2,8-9.7,8.9c-7,0.9-7.8,0.2-11.3-6.5c-3.7-7.1-7.7-14-11.8-20.8
		c-6.1-10.3-13.4-20.1-18.2-31c-4.6-10.3-10.6-19.1-18.4-27c-4.1-4.1-8.6-8-11.8-12.7c-11.1-16.5-22.9-32.5-36.8-46.7
		c-18.8-19.3-38-38.1-56.9-57.2c-9.3-9.3-18.4-18.8-27.7-28.2c0.6-0.3,1.2-0.5,1.8-0.8c1-3.9,3-8,2.6-11.8
		c-0.5-4.6-0.3-8.7,1.5-12.9c1.2-2.8,0.2-4.7-2.6-6.2c-2.5-1.3-4.6-3.4-6.9-5.1c-3.4-2.5-6.8-5-10.2-7.5c-0.4,0.4-0.8,0.8-1.3,1.2
		c2.4,4.9,4.8,9.7,7.2,14.6c-4-3.8-11-5.5-8.6-14.1c-1.7,2-2.6,3-3.4,3.9c-1.9-1.5-3.5-2.7-5.1-4c1.5,3.6,3.9,6.4,6.1,9.3
		c0.7,1,1.3,2.1,1.9,3.2c-1.4-0.1-3.3,0.4-4.1-0.3c-3.8-3.6-7.4-7.4-10.8-11.4c-1.5-1.8-2.3-4.2-3.8-7.2c1-1.9,0.4-4.5-3.3-4
		c-5.8,0.7-10.4-2.3-15.4-4c-2.3-0.8-4.4-2-6.6-3c-0.2,0.3-0.4,0.7-0.6,1c5.9,5.2,11.8,10.4,17.7,15.6c1-0.6,2.2-1.4,3.5-2.1
		c2.1,4.9,3.9,9.5,6.4,15.3c-2.4-1.5-3.7-2.1-4.7-3c-3.7-3.2-7.2-6.6-11-9.7c-1.8-1.4-4.6-1.8-5.9-3.5c-4.8-5.8-9.2-12-13.6-18.1
		c-4.7-6.3-9.4-12.7-14-19c-4.9-6.8-15.3-5.8-19.3,1.9c-0.4,0.7-1.1,1.3-1.7,2c-0.6-0.8-1.6-1.5-1.8-2.4c-1.3-4.4-4.1-6.2-8.3-4.6
		c-3.7,1.4-7.3,3-10.7,5.1c-5.2,3.3-10.2,7-15.2,10.6c-1.9,1.4-3.7,3-6.2,5c8.1,2,5.4,8.1,6.1,12.8c-0.6,0.3-1.6,0.7-2.5,1.1
		c0.5,1.5,0.9,2.7,1.3,3.9c-6,4.9-11.9,9.4-17.5,14.3c-3.7,3.2-6.9,7.2-10.7,10.3c-4.8,4-10.1,7.4-15.2,11.1
		c-2.6,1.9-5.1,3.9-8.2,6.3c0.3,3.1-2.2,5.6-4.9,5.3c-1.4,1.5-2,2.4-2.8,3c-1.7,1-3.9,1.4-5.2,2.8c-3.1,3.2-2.9,3.3-6.5,0.4
		c3-4.3,7.1-8.3,8.9-13.1c2-5.5,3.4-10.6,10.5-11.5c-4.9-1.4-7.6,1-9.5,4.6c-3.1,5.9-5.9,12-9,17.9c-2.7,5-6,9.8-8.4,14.9
		c-1.6,3.4-3.8,7.5-3.2,10.9C28.6,591.9,31.9,604.9,34.8,617.9z M557.4,831.8h6.7c-0.4-1.1-0.7-1.9-1.3-3.9c2,1.6,3.2,2.5,4.3,3.4
		c-0.7,1.7-1.2,3.1-2,5.2c-1.2-1.5-1.9-2.5-2-2.6c-2.4-0.3-4.1-0.4-5.7-0.6C557.3,832.7,557.4,832.2,557.4,831.8z M640.4,849.4
		c-11.6-9.9-23.1-19.9-32.7-31.7C620,826.8,632.1,836.3,640.4,849.4z M582.8,783c8.1,5.4,16.4,10.3,24.5,15.7
		c5.5,3.7,11.6,6.9,14,13.9c-3.2-2.8-6.3-5.6-9.5-8.3c-5.7-4.8-12.4-7.7-19.2-10.6c-2.9-1.2-5.4-3.3-8-5.2c-2.1-1.5-4.1-3.2-6.6-5.1
		C578.8,781,580.2,781.3,582.8,783z M557.2,758.2c0.3-0.7,3.6-0.7,5.4-0.4c2.2,0.3,4.4,1.3,7.6,2.2c0.2,1.2,0.5,3.2,0.9,5.2
		c3.5-1.2,6.3,0.5,6.2,3.4c-5-3.1-6.1-2.4-6.6,4.6c-3.8-3.1-7.1-6.9-11.4-8.9C555.5,762.6,556.5,760.3,557.2,758.2z M547.1,837.5
		c0.4,1,1.1,2.7,0.6,3.2c-3.5,3.8-0.6,7.3,0.1,11c0.6,3.5,0.1,7.3,0.1,10.9c-0.6,0.1-1.3,0.1-1.9,0.2c-0.8-4.9-1.3-9.9-2.6-14.6
		c-1.8-6.6,1.5-14.1-4.5-20.2c-2.4-2.4-2.7-7.2-0.1-10.5C541.7,824.1,544.4,830.8,547.1,837.5z M523.5,775.3
		c1.3,0.5,3.4,0.6,3.8,1.5c3.6,7.7,7.1,15.4,10.1,23.3c0.6,1.6-0.8,4-1.5,7.5c-2.3-2.1-3.6-2.8-4-3.8c-3.3-8.2-6.4-16.5-9.4-24.8
		C522.1,778.1,523.1,776.6,523.5,775.3z M374.8,736.4c-0.1-5,2.8-5.4,5.9-4.5c1,0.3,2.3,2.8,1.9,3.6
		C380.8,740.4,377.7,736.6,374.8,736.4z M383.3,824.3c-0.7-4.8-1.2-7.9-1.7-11.1c4.4,0,4.6,0.2,3.2,3.2c1.3,1.5,2.9,2.9,2.8,3.2
		C386.7,821.1,385.4,822.2,383.3,824.3z M368.4,717.9c0.3-1.9,0.9-3.8,1.7-5.5c3.2-6.3,13.2-9.4,19.5-6.2c3.6,1.9,6.8,11.4,4.3,15.7
		c-1.2,2.1-4.8,2.8-7.3,4.1l-1.3-1.9c0.6-1.3,1.1-2.7,1.9-3.9c2.7-3.6,0-6.1-2.4-7.1c-1.6-0.6-5.4,0.9-6.3,2.6
		c-1.8,3.4-2.2,7.5-3.2,11.3c-0.3,1.1-0.1,2.6-0.7,3.3c-1.2,1.4-2.9,2.4-4.3,3.6c-0.9-2.1-2.5-4.1-2.7-6.3
		C367.4,724.4,367.9,721.1,368.4,717.9z M248.1,698.3c22.4,19.8,43.9,38.8,65.8,58.1c-0.2,0.4-0.6,1.2-1.1,2.2c4.7-2,6.3,2,8.7,3.9
		c4.1,3.1,7.9,6.5,12.3,10.3h-15.1c0.3-0.8,0.6-1.7,1.2-3.2c-2.9-0.3-5.7-0.6-8.8-1c-1-4.4-6.8-9-9.3-7.5c-1.4-0.9-2.4-1.5-3.4-2.1
		c0.3-0.7,0.8-1.8,1.3-2.9c-1.3-0.2-2.7-0.2-3.9-0.6c-3.9-1.4-9.1,1.7-12.1-3.9c-1.1-2-4.7-2.5-7.4-3.8c0.2-0.2,0.9-1,1.9-2.1
		c-2.5-0.9-4.8-1.8-7.2-2.7c0.8-1.3,1.9-2.8,2.9-4.4c-1.6-0.3-3.1-0.5-4.7-0.7c-1.5-0.2-3.1-0.5-5-0.9c2.1-2.4,3.9-4.3,5.1-5.6
		c-3.1,0.2-6.5,0.4-11,0.8c1.6-2.5,2.6-4.1,3.6-5.6c-0.3-0.3-0.5-0.6-0.8-0.9c-1.6,1.1-3.2,2.2-5.6,3.8c0.3-3.9,0.5-7.2,0.8-10.5
		c-2.9,0.4-5.9,0.7-8.9,1.1c-0.2-0.5-0.3-0.9-0.5-1.4c2.9-1.2,5.8-2.5,8.8-3.8c-2-0.8-4.5-1.1-5.7-2.4c-0.9-1,0-3.5,0.1-5.7
		c-1,0.2-2.1,0.5-3.3,0.7C247.2,704.8,247.5,702.1,248.1,698.3z M159.1,784.3c5,5.8,10.5,11.1,15.9,16.6c0.8,0.8,1.5,1.6,2.4,2.2
		c2.1,1.6,4.3,3.2,6.4,4.8l0.5-0.8c1.2,2.8,2.4,5.7,4.1,9.7c-2.4-1.9-4.5-3.5-6.9-5.4c-0.4,0.3-1.4,0.9-2.9,1.8
		c0.9-5-3.3-5.2-5.6-7.1c-6.3-5.4-12.6-10.8-18.7-16.4c-0.5-0.5,0.2-2.3,0.4-3.6c-1.2-0.1-2.6-0.3-4.3-0.5
		C153.2,780,155.5,780,159.1,784.3z M68.9,632.7c-2.6,4-4.1,7.8-6.7,10.3c-4.8,4.6-5.6,10.8-8.1,16.4c-1.3,2.9-1.4,7-5.8,7.7
		C47.3,658.8,61.3,634.6,68.9,632.7z"/>
	<path d="M242.9,312.6c-2.3-2.5-4.5-4.5-2-8.6c2.1-3.3-0.1-5.6-4.5-5.7c-0.8,0-1.5-1-2.1-1.5c1.9-1.4,3.9-2.1,4.8-3.6
		c7.4-11.2,17.5-19.7,27.8-27.8c3.6-2.8,7.3-5.4,11.2-7.7c0.9-0.5,3.4-0.2,3.9,0.6c4.7,7.2,11.6,10.9,19.5,13.9
		c5.4,2,10.3,5.6,15.4,8.4c0.3,0.2,0.6,0.5,0.9,0.4c9-0.4,17.7,2.5,26.9-1.6c17.8-7.9,33.9-18.6,50.7-28.2
		c10.2-5.8,21.1-10.4,31.8-15.1c10.2-4.4,20.3-9.2,30.9-12.3c16-4.8,32.1-9.6,49-10.6c5-0.3,10.1,0.7,15,0.3
		c13.1-1.2,25.6,2.2,38.2,4.8c2.2,0.4,5,1.4,6,3c2.3,3.7,3.4,2.8,6,0.3c1.3-1.3,4.4-0.7,7.3-1c-0.4,2.5-0.7,4-1,5.6
		c3.2,3.5,5.4,1.5,7.6-2.2c4.1,2.7,8.1,5.4,12.1,8.1c9.5,6.3,19.2,12.4,28.5,19c5.5,3.9,10.4,8.5,15.5,12.9c0.6,0.5,1,1.5,1.6,1.8
		c9.2,3.9,13.3,7.2,19.2,15.6c2.5,3.6,5.6,7,7.7,10.8c4.4,8,9.4,15.9,10.2,25.1c0.6,6.5-8.2,13.6-14.5,11.9
		c-8.5-2.2-16.2-6.1-22.9-12.2c-5.9-5.4-12.8-9.7-19.5-14.1c-1.4-0.9-4-0.1-6-0.1c0.4,2.2,0.8,4.4,1.3,7.3c-0.5,0.3-2.3,1.1-4.3,2.1
		c-5.8-9.3-15.6-12.1-25.2-15.6c-6.4-2.3-11.9-7-17.9-10.6c-5.2-3-10.4-5.9-15.6-8.9c-1-0.6-1.8-1.5-2.9-2c-2-1-4-2.6-6-2.6
		c-5.4,0-10.8,1.4-16.1,1c-4.3-0.3-8.8-2-12.5-4.1c-2.9-1.7-3.6-1.3-4.2,1.4c-1.4-0.9-2.7-1.9-4.2-2.4c-0.3-0.1-1.3,1.7-1.4,1.9
		c-8.3-1-16.4-1.8-24.5-3c-6.3-0.9-12.5-2.4-18.8-3.3c-3.6-0.5-7.4-0.1-11-0.2c-0.7,0-1.3-0.8-2.1-0.9c-1.4-0.2-3-0.8-4.2-0.3
		c-3.2,1.3-6.2,3-9.3,4.6c-0.2-0.4-0.5-0.7-0.7-1.1c0.8-1,1.6-1.9,2.2-2.8c-3.7-0.9-7.2-2.8-10.5-2.4c-3.4,0.5-6.5,3.1-9.8,4.9
		c0.6-0.9,1.4-2.1,2.5-3.9c-1.9-1.4-3.8-2.9-5.7-4.3c-0.5,0.2-1.1,0.3-1.6,0.5c5.6,7.1-2,7.8-3.7,11.3c-0.4-0.3-0.7-0.5-1.1-0.8
		c1.1-1,2.3-1.9,3.2-3.1c0.7-1,1.7-2.7,1.3-3.3c-0.8-1.2-2.6-2.8-3.7-2.6c-4,0.6-8.2,1.4-11.8,3.1c-2.4,1.1-4.1,3.9-6.4,6.2
		c-4.2-1.6-6.3-0.3-5.8,5.2c-1.2-0.8-2.3-1.4-4-2.5c-0.2,1.9-0.3,3.2-0.5,5.3c-1.6-1.8-2.8-3.3-4.2-4.9c5.5-3.1,10.2-5.7,14.9-8.3
		c-0.2-0.5-0.3-0.9-0.5-1.4c-1,0.1-2.2-0.2-2.9,0.2c-7.4,4.3-14.5,9.1-22.2,12.9c-8.7,4.3-17.6,8.7-26.9,11.4
		c-10,2.9-19.9-0.7-28.6-5.4c-9-4.9-17.3-11.3-26.2-16.5c-2.1-1.2-5.9-1.3-8.2-0.2c-9.3,4.2-16.5,11.2-23.4,18.4
		c-3.2,3.4-6.7,6.4-11.3,10.7c4.2,1.4,6.9,2.3,9.2,3c-0.9,0.7-2.5,1.9-4.5,3.3c-0.4-0.8-1-1.8-1.9-3.4c-0.7,1.7-1.3,2.9-1.6,3.8
		c1.3,1,2.4,1.9,3.6,2.8l0.1,0c-1.2,0.1-2.5,0.1-4.1,0.2c1.2,1.9,2.1,3.4,3,4.9c-0.4,3.3-6.5-1.1-5,4L242.9,312.6z M607.2,267.1
		c-8.4-10-17-19.6-27.5-27c-0.4,0.4-0.7,0.7-1.1,1.1c2.1,1.9,4.2,3.8,6.5,5.9c-1,1.5-1.8,2.6-2.6,3.8c6.6,6.6,12.9,12.9,19.2,19.2
		C603.3,269.1,604.8,268.3,607.2,267.1z"/>
	<path d="M629.1,201c-3.4-3.9-6.6-8-10.1-11.8c-3.8-4.1-7.9-8-11.8-12c-1.7-1.7-3.3-3.5-4.7-5.4c-0.5-0.7-0.5-1.7-0.7-2.7
		c-5.3-4.9-10.9-10.2-16.5-15.4c0.2-0.3,0.4-0.6,0.6-0.9c2.2,1.7,4.5,3.5,6.7,5.2c3.6,2.7,7.3,5.3,10.8,8.2c2.2,1.8,4,4.2,6.3,5.9
		c1.2,0.9,4.1,1.6,4.6,1.1c1.6-1.9,6.1-3.4,2.8-7c-4.3-4.8-9.1-9.3-13.6-13.9c-4-4.1-7.9-8.3-11.9-12.4c-0.4-0.4-0.6-1.2-0.6-1.8
		c1.5-11.3-6.7-16.7-14-22.4c-8.2-6.4-17.1-11.3-27.2-14.4c-6.5-2-11.9-7-18.3-9.4c-14.3-5.3-28.9-9.8-44.5-9.4
		c-10.1,0.3-20.2-0.3-30.2,0.3c-6.5,0.4-12.9,2.1-19.2,3.9c-12,3.5-24.1,7-35.9,11.3c-7.4,2.7-8,5.5-5,12.7c-7.7,3-15.4,6.2-23.1,9
		c-3.4,1.3-7.2,1.6-10.6,3c-1.8,0.8-3,2.9-4.5,4.4c1.4,1,2.7,2.1,4.1,3.1c0.6,0.4,1.3,0.7,1.3,0.7c-3,2.2-5.9,4.3-8.9,6.4
		c0.9,1,1.7,1.9,2.7,3.1c-3,2.6-5.8,5.1-8.6,7.5c0.3-3.6,2.6-7.1-2.6-8.9c-0.6,0.7-1.4,1.4-2.3,2.5c-1.2-0.9-2.3-1.7-3.5-2.6
		c-1.3,1.1-2.6,2.3-3.9,3.4c-2.4,2.1-3.5,5.7-7.9,5.6c-1,0-2.1,2.8-3.4,4.6c-3.1-2.5-5.4-4.8-10.3-4.2c-5.6,0.8-1.9-3.8-1.2-6.5
		c-5.2-0.7-2.7,3.8-5.1,6.6c0.1-16.4,5.1-30.3,9.7-44.3c0.6,0.2,1.1,0.3,1.7,0.5c-0.7,1.6-1.4,3.3-2.3,5.2
		c8.6-1.1,17.1-2.1,25.6-3.1c1.4-5.7,2.1-6.1,8-3.8c-1.1-2-1.8-3.3-3.1-5.4c0.6-0.6,1.7-1.5,2.5-2.3c0.8,0.4,1,0.4,1.1,0.5
		c0.6,2.4,1.1,4.7,1.6,7.1c0.6,0,1.2,0,1.9,0c0.1-1.5,0.1-2.9,0.2-5.2c2.9-1.2,0.7-3.6-1.2-6c0.3-0.4,0.6-0.8,0.9-1.3
		c1.2,0.5,2.5,1,4.6,1.8c0.5-0.4,2.2-1.7,4-3.1c0.3,3,0.6,5.9,1,9.9c1.7-1.2,3.3-1.9,3.8-3c0.3-0.6-1.3-2-1.7-3.1
		c-0.3-1-0.6-2.3-0.2-3.1c0.5-1,1.7-1.6,2.2-2.1c1.7,0.5,3.4,1.1,5,1.6c-0.5-1-0.9-2-1.1-2.3c1-1.6,1.8-3,2.7-4.6
		c3.2,2.2,5.7,3.2,4.1-2.6c-0.2-0.7,0.7-1.6,1.5-3.2c0.7,1.8,1.2,3,1.8,4.5c1.5-1.3,3-2.5,4.4-3.7c0,0.4,0.1,0.9,0.1,1.3
		c3-0.3,6-0.7,9.1-1c0-0.6-0.1-1.2-0.1-1.8c-2-0.2-4.1-0.4-6.1-0.6c-0.1-0.4-0.3-0.7-0.4-1.1c1.2-0.7,2.4-1.7,3.7-1.9
		c1.9-0.2,3.9,0.2,6-0.8c1.6,0.6,3.1,1.1,4.7,1.7c0.2-0.4,0.4-0.8,0.6-1.1c-1-0.9-1.9-1.8-3.5-3.2c1.9-1,4.7-2.7,4.9-2.5
		c2.9,3.7,4.1-0.4,6.1-1.1c0.1,0.7,0.2,1.4,0.3,2.9c2.4-1.8,4.6-3.4,7.1-5.2c-0.9-0.7-1.9-1.5-3.2-2.5c2.7-0.1,5-0.2,7.2-0.4
		c1.6,5.7,4-1.1,5.7,1c5.8,0.5,11.6,1,17.4,1.5c0.1-0.4,0.3-0.7,0.4-1.1c-0.8-0.5-1.5-1-2.4-1.6c2-1.7,3.4-3.5-1-3.4
		c1.2-7.3,7.6,1,9-2.4c2,0,3.5,0.4,4.3-0.1c2.4-1.5,4.5-3.3,7-4.7c-2.3,1.6-4.6,3.2-6.9,4.7c0.6,0.8,1.3,1.6,1.9,2.4
		c0.8,0.1,2.3,0.5,2.4,0.3c2-4.1,4.5-3.1,8.1-2.1c3.8,1.1,8,0,12,0.4c5.8,0.7,10.8,3,13.8,8.5c1.4,2.8,3.1,5.4,5.2,9.2
		c0.3-11.9-6-21.1-7.2-32c3.1,0.7,6.8,1.2,10.2,2.6c4.6,1.8,9.2,3.8,13.2,6.6c4,2.8,7.3,6.7,11.1,10c1.1,0.9,2.5,1.5,4.4,1.3
		c-2.2-2.1-4.5-4.3-6.7-6.4c0.1-0.1,0.2-0.3,0.3-0.4c3.9,1.9,8,3.8,11.8,5.9c8.4,4.5,16.8,8.8,24.9,13.8c4,2.5,7.3,6.1,10.8,9.4
		c7.1,6.7,14.2,13.4,21,20.4c4.5,4.6,8.7,9.5,12.6,14.6c4.7,6.1,9.1,12.4,12.9,19.4c-1.6-2.4-3.2-4.9-4.9-7.3
		c-0.6,0.6-1.3,1.1-1.9,1.7c3.3,7.3,6.7,14.7,9.8,21.5c1-0.5,2.4-1.2,4.8-2.3c-1.3-2.3-2.8-5-4.3-7.7c0.3-0.2,0.6-0.3,1-0.5
		c2.9,5.5,6.1,10.9,8.6,16.5c2.3,5.2,6,10.1,5.9,16c-3.2-6.7-6.5-13.4-9.9-20.3c-2.8,2.1-5.5,3.6-3.3,7.7c0.5,0.9-1,2.7-1.6,4.4
		c2.2,2.4,5.6,4.6,4.1,9.2c-0.3,1,1.8,2.7,1.6,4.1c0.4,6.7,0.9,13.4,1.3,20.5c-1-0.3-1.9-0.5-2.7-0.7L629.1,201z M514.3,82.7
		c-1.9-2.4-3.5-4.8-5.4-7c-0.7-0.8-2.1-1-3.2-1.4c0.3,1.2,0.2,2.6,0.9,3.5c1,1.5,2.5,2.8,4.5,4.8C511.2,82.7,512.7,82.7,514.3,82.7z
		 M602.4,123.8c3.1,1.9,6.1,3.8,10,6.3c-2.6-3.9-4.7-7-6.9-10.3C604.4,121.2,603.2,122.7,602.4,123.8z"/>
	<path d="M308.8,152.3c0,6.3,0,12.6,0,19.2c3.4-3.3,5.8-3.1,8.1,0.1c0.6,0.9,1.4,1.7,2.2,2.5c0.7,0.7,1.5,1.3,2.3,1.9
		c-1.6,1.5-3.1,2.8-3.8,3.5c-3-0.7-5.4-1.7-7.7-1.6c-2.1,0.1-5.1,0.8-2.3,4.4c0.5,0.7-0.6,2.7-1,4c3.3-0.4,6.5-0.9,9.7-1.3
		c0.1,0.4,0.2,0.7,0.3,1.1c-1,0.6-1.9,1.2-3.3,2.1c3.3,5.3,9.2,4.7,14.1,6.5c6.1,2.2,9.5-5.3,15.6-2.9c0.9-2.7,1.9-5.4,3-8.7
		c0.8,1.5,1.3,2.6,2.4,4.7c0.3-2.8,0.5-4.4,0.7-6.1c3.1-0.9,6.2-1.8,10.3-3c-3.3-1.5-6.7-2.2-3.7-5.8c-2.4-0.6-4.4-1.1-6.4-1.7
		c0-0.3,0-0.6,0-1c4.1-0.3,8.1-0.7,12.2-0.8c0.6,0,1.3,1.3,2,1.9c1,0.9,2.1,2.5,3,2.4c5.5-0.9,9,2.1,13,5.1c1.4,1.1,5.1,0.5,7.2-0.6
		c6.7-3.6,14.5-4.3,20.5-1.7c6.2,2.7,12.6,3.5,18.6,5.9c2,0.8,3.2,3.8,6.7,2c0-2.9,0-6.1,0-9.4c-0.5,0-1.1-0.1-1.6-0.1
		c-0.3,1.6-0.5,3.2-1.1,6.3c-0.9-3.2-1.4-5-2.1-7.5c2.4-0.4,4.7-0.8,7.2-1.2c-4.5-1.9-9.4-2.8-12.7-5.6c-3-2.5-8.5-4.8-4.9-12.1
		c-3.7,2.1-6.2,3.5-9,5.1c0.9-3.6,1.8-6.4,2.1-9.4c0.1-1-0.9-2.4-1.7-3.3c-0.6-0.7-1.8-1-2.5-1.6c-1.6-1.5-1.6-5.7-5.1-3.7
		c-1.6,0.9-2.2,3.5-3.2,5.3c-1.4-0.7-2.7-1.2-3.9-1.8c-1.9,2.5,3.4,6.6-1.2,7.8c-0.8-2.8-1.4-5.3-2.3-8.5c0.1-0.2,0.8-1.3,1.7-2.6
		c-1.3-0.6-2.4-1.2-3.8-1.9c0.1,1.5,0.2,2.4,0.2,3.3c-0.4,0.1-0.7,0.3-1.1,0.4c-1.2-3.1-2.4-6.2-4.1-10.5c5.4-1.7,11-4.7,16.6-4.9
		c4.4-0.2,8.1,4,9.2,9.1c2.4,11,9.6,18.5,18.2,24.8c1.6,1.1,3.8,1.8,5.8,1.8c7.4,0.2,13.1,4.3,19.4,7.3c2.2,1,5.3,1.7,7.6,1.1
		c5.4-1.4,10.6-0.6,14.2,2.7c3.9,3.5,8.3,3.7,12.6,4.6c10.3,2,20.7,3.5,31,5.5c2.1,0.4,4,2.2,7.1,4c-3,0-5,0.2-7-0.1
		c-1.9-0.3-3.6-2.3-5.6,0c-0.3,0.3-2.4-1.2-3.9-1.9c0,2.3,0,4.9,0,7.5c0.6,0.5,1.3,1,1.9,1.5c0.6-1.8,1.3-3.6,1.9-5.4
		c0.5,0.3,0.9,0.5,1.4,0.8c0.3,1.6,0.6,3.3,0.9,4.7c1.3-0.4,2.4-0.8,3.5-1.1c0.2,0.6,0.3,1.2,0.5,1.8c-1.1,0.1-2.2,0.5-3.3,0.4
		c-14.4-0.6-28.8-1.9-43.2-1.8c-8.3,0-16.5,1.9-24.8,3.2c-7.3,1.1-14.5,2.5-21.8,3.6c-1.5,0.2-3.1,0-4.7,0c-0.1-0.4-0.1-0.9-0.2-1.3
		c2.6-0.4,5.1-0.8,7.7-1.2c-3.9-1.4-7.9-6.2-11.2,0.5c1,2.9,1,2.9-2.2,3.6c0.1-0.8,0.1-1.6,0.2-2.4c-0.8,0-2-0.2-2.3,0.2
		c-5.5,7.1-14.4,6.5-21.8,9.3c-16.2,6-33.1,10.4-49.3,16.5c-10.2,3.9-19.8,9.4-29.5,14.6c-8.3,4.5-16.3,9.4-24.5,14.2
		c-0.9,0.5-1.5,1.4-2.3,2c-3.7-3.9-3.6-6.8,0.7-9.5c7.8-4.9,15.9-9.2,25.2-10.9c4.9-0.9,4.9-2.3,2.8-6.7c-3.9-8.4-7.7-17-10.3-25.9
		c-1.3-4.5,0.2-9.8,0.5-14.7c0.8-10.4,1.6-20.7,2.5-31.1c0.2-2.4,0.6-4.8,0.9-7.2C308.4,152.4,308.6,152.4,308.8,152.3z M398,136.5
		c-0.7-1.7-1.4-3.2-2-4.8c-3.3,6.4-3.2,9.4,0.3,12.7c0.7-0.8,1.5-1.6,2.2-2.3c-1.1-0.5-2.2-1.1-3.4-1.6
		C396.2,138.9,397.1,137.7,398,136.5z"/>
	<path d="M282.6,539.9c1.1-0.4,2.5-0.8,4.1-1.4c0.7,2.2,1.3,4.2,1.9,6.1c2.7-0.7,2.7-0.7,0.3-7.1c8.8,7.3,13.1,10.5,7.8,17.1
		c3.8,3.8,7.4,7.7,11.3,11.3c4,3.8,8,7.5,12.3,10.9c2.2,1.8,4,3.8,7.6,4.4c3.7,0.6,6.7,5,10.1,7.7c7,5.5,14.6,10.4,21,16.5
		c7,6.6,15.3,9.7,24,12.5c1.6,0.5,3.4,0.3,5.2,0.4c0.2-0.5-0.1,0.3-1,2c5.8,0,11.1,0,16.5,0c1.8,0,4.3-0.6,5.3,0.3
		c8.4,7.8,19.6,8.7,29.6,12.7c1.9,0.8,3.3,2.8,4.7,4.1c1.2-2.3,2.6-5.1,4.1-8c1,2.4,1.8,4.3,2.6,6.2c0.5-0.2,1-0.5,1.6-0.7
		c-0.2-0.9-0.5-1.8-0.9-3.2c3.8,3.3,7,6.3,10.3,9c0.3,0.2,1.6-0.7,2.4-1.1c6.8,2,14.1,4.2,21.4,6.4c-0.1,0.6-0.1,1.2-0.2,1.8
		c-4.8,0.3-9.7,0.8-14.5,0.7c-6.6-0.1-13.2-0.2-19.8-0.9c-8.2-0.8-16.4-1.9-24.4-3.5c-6.2-1.3-12.4-3.1-18.3-5.5
		c-12.2-4.8-24.1-10.2-36.3-15.1c-2.8-1.1-6-1.9-9-1.8c-6.3,0.2-11.2-1.9-16.1-6c-10-8.5-21-15.8-30.8-24.5
		c-7.7-6.9-14.5-15.1-21.2-23.1c-8.4-10-12.6-22.3-17.1-34.3c-0.4-1.1-0.1-2.5-0.1-3.8c0.4-0.1,0.8-0.2,1.3-0.3
		C279.8,532.9,281.1,536.1,282.6,539.9z"/>
	<path d="M548.4,535.9c-1.5,1.9-2.7,3.4-4.1,5.3c-0.8-1.8-1.9-4.3-3.5-7.9c1.2-4.2-0.2-5.9-6.1-5.9c-9.7,0-18.9,1.3-28.1,4.9
		c-3.9,1.5-9.3-0.7-13.3,0.6c-6,2-11.3,0.3-16.9-0.4c-7.1-0.9-14.2-2.1-21.3-3.2c-2.9-0.5-5.7-1.4-8.6-1.7
		c-6.9-0.6-13.9-0.3-20.7-1.3c-4.5-0.7-8.8-2.9-13.2-4.5c-0.9-0.3-1.5-1.4-2.2-2.1c0.9-0.8,1.7-2.3,2.7-2.4c5.5-0.5,11.1-0.8,16.7-1
		c3-0.1,6-0.1,9-0.3c3.7-0.2,7.5-0.4,11.2-0.9c1.3-0.2,2.5-0.9,3.7-1.5c0.7-0.3,1.2-1.1,1.9-1.3c9.7-1.6,19.1-5.1,29.2-1.3
		c4.1,1.5,9.1,0.9,13.7,1.4c3.6,0.3,7.1,0.8,10.7,1.2c3.9,0.5,6,2.6,5.2,7.3c6.4,0.4,12.6,1.3,18.8,1.1c7.5-0.3,13.2,2.4,18,7.9
		c0.7,0.9,1.9,1.4,2.7,1.9c-1.5,3.3-4.8,6.1,0.3,8.9c-0.9,0.8-1.8,1.6-2.7,2.4C550.4,540.7,549.5,538.6,548.4,535.9z M494.7,525.9
		c0.8-2.9,0-5.4-3.7-5.7c-10.1-0.8-19.7-5.3-30.1-3.6c-2.7,0.4-5.3,0.2-5.3,4.1c0,3.9,2.5,5,5.4,5
		C472.1,526,483.2,525.9,494.7,525.9z M498.5,520.3c-0.6,2.3-1.1,4.3-1.6,6.2c0.4,0.4,0.7,0.7,1.1,1.1c1.8-1.5,3.5-2.9,5.9-4.9
		C501.4,521.5,500.1,520.9,498.5,520.3z"/>
	<path d="M552.7,400.2c-10-5.9-23.4-7-28.5-19.9c1.4-0.2,2.8-0.3,4.5-0.5c1.1-3.8,0.3-6.5-4-7.2c-3.1-0.5-2.9-2.2-1.5-4.2
		c4.5-6.3,9.5-11.9,18.1-12.2c1.6-0.1,3.3-0.6,4.7-1.4c8.2-4.9,16.7-2.6,24.8-0.6c9.2,2.2,15.9,8.4,21.4,16.1
		c2.6,3.6,5.8,6.8,8.5,10.9c-7.6-7.7-16.2-6.1-25.4-4c1.8-1,3.7-1.8,5.3-3c1.9-1.5,4.3-3.1,5.1-5.2c0.4-1.2-1.5-3.8-3-5.1
		c-2.3-2-4.8-2.4-6.2,1.3c-1,2.7-1.6,5.8-3.3,8.1c-1.2,1.6-4.2,3.4-5.9,3c-6.9-1.5-14.6,0.1-20.6-5.2c-1.1-1-3.7-0.4-6.2,0.1
		c11,2.3,10.7,10,9.7,18.9c-1.7-1.8-3-3.1-5.3-5.6c-0.1,2.8-0.2,4.4-0.2,4.6c3.6,3.2,6.2,5.6,9.2,8.3c0.3-1.4,0.7-3.2,1.1-4.8
		C557.9,395.7,557.4,397.9,552.7,400.2z M542.3,368.1c0.5-0.4,0.9-0.9,1.4-1.3c-0.9-1.8-1.8-3.6-2.6-5.4c-2.4,1.3-4.9,2.7-7.3,4
		c0.2,0.6,0.3,1.2,0.5,1.7C536.9,367.4,539.6,367.7,542.3,368.1z"/>
	<path d="M449.6,299.2c-2.8,0.5-4.8,0.8-6.9,1.2c0,0.4,0,0.8,0,1.2c1.8,0.3,3.7,0.7,5.5,1c-1.7,5.9-6.1,7.9-14.2,6.2
		c-2.1-0.5-3.8-2.8-6-3.5c-2.9-1-6-1.4-9-1.8c-10.7-1.7-21.4-3.4-32.2-5c-2.5-0.4-5.2-0.1-8.7-0.1c3.4-5.5,1.2-8.5-2.7-11.5
		c1.4,0.2,2.8,0.4,3.8,0.6c0.4-2.9,0.8-5.8,1.2-8.4c1.6,1.2,4,4.1,5.1,3.7c2.1-0.8,3.3-0.3,5.2,0c4.2,0.7,8.7,0.2,13.3,0.2
		c0-2,0-3.8,0-5.7c0.4-0.1,0.8-0.2,1.1-0.3c0.9,2.1,1.9,4.1,3.2,7c3.2-0.2,8.1,0.1,12.7-0.7c10.2-1.8,18,3.5,25.7,8.6
		C448.5,292.9,448.6,296.6,449.6,299.2z"/>
	<path d="M424,347.8c-4.8-2.9-9.9-6-14.9-9.1c-0.6,0.3-1.1,0.7-1.7,1c0,3.5-0.6,7.2,0.1,10.5c0.9,4.2-7.1,10-11.8,8.8
		c-5.9-1.6-12-3.8-17.1-7.1c-3.1-2-4.6-6.6-6.9-10.2c-2.9,2-6,4.3-9.2,6.5c-0.4-0.4-0.7-0.9-1.1-1.3c3.3-2.9,6.2-6.5,10-8.6
		c11.2-6.3,22.4-8.4,35.3-3.2c8.5,3.4,15.3,7.6,21.5,14.1c3.5,3.8,8.3,6.4,12.4,9.7c0.9,0.7,1,2.4,1.4,3.6c-1.1,0.4-2.3,1.2-3.4,1.1
		c-4.3-0.4-8.5-1.7-12.7-1.3c-4.7,0.4-4.4-2.8-4.4-5.2C421.7,354.5,422.9,351.9,424,347.8z"/>
	<path d="M207.5,385.1c-1.3-1.4-2.3-2.4-3.8-4c0.4,2.6,0.6,4.3,0.8,6c-3.3-5.5-8.1-9.7-9.6-16.2c-1.5-6.2,0.2-11.8,1.6-17.2
		c2.9-11.1,7.2-21.7,11-32.5c0.6-1.6,2.2-4,3.2-4c3.6,0.2,7.9,0.3,10.5,2.3c5.7,4.3,5.1,4.7,0.8,11c-5.8,8.3-8.5,17.8-9.8,27.8
		c-0.4,3-2,5.9-2.7,8.9c-0.7,2.9-1,5.9-1.3,8.8C207.9,378.9,207.8,381.7,207.5,385.1z"/>
	<path d="M559.4,312.3c-1.5-2.7-2.6-4.6-4.2-7.5c2.3,1.9,3.9,3.1,6.2,5c0.3-1.9,0.4-3.1,0.6-4.2c0.7,0.8,1.2,2.2,2,2.4
		c8.6,2.2,17.3,4.2,25.9,6.3c0.7,0.2,1.4,0.8,2,1.4c2.2,2.5,4.3,3.9,7.3,0.8c-0.3,1-0.5,2-1,4c3.6-2.9,6.5-5.2,10.7-8.6
		c0.5,3.1,0.8,4.9,1.2,6.7c0.1,0.8,0.4,1.6,0.6,2.3c0.7-0.4,1.5-0.7,2.2-1.1c0.7-0.3,1.5-0.6,2.2-0.9c0.2,0.5,0.4,1,0.6,1.5
		c-4.2,2-8.3,4.4-12.7,6c-2.9,1-6.2,0.7-9.4,1c-0.7,0.1-1.4-0.1-1.9,0.2c-8.8,4.9-16.7,0.6-24.7-2.4c-2.6-0.9-5.2-1.9-7.6-3.1
		c-1.6-0.9-4.1-2.5-4-3.6C555.7,316,554.5,311.9,559.4,312.3z"/>
	<path d="M466,351.7c-0.5,6.1,1.1,12.2-6.9,13.5c-1.5-1.3-3.3-5.6-6,0.2c-1.2-1.6-2-2.6-3.2-4.2c1.4,0,2.1,0,2.8,0
		c0-0.4,0.1-0.8,0-1c-3.1-3.1-6.3-6.2-9.4-9.4c-6.9-7.3-13.8-14.7-20.7-22c-6.3-6.7-13.4-11.2-23.2-9.5c-1.1,0.2-2.4-0.9-3.4-2
		c8.8-3.2,16.5-0.6,24,3.6c5.6,3.1,11.2,6.1,16.6,9.5c3.2,2.1,6,5,9.1,7.7c-0.7,0.8-1.3,1.5-2.1,2.5c2.3,1,6.8-2,5.9,3.9
		c1.8-1.5,3.6-3,5.5-4.6c-0.8,2.4-1.4,4.6-2.3,7.2c2.7,0,4.3,0,6.8,0c-0.6,2-1,3.6-1.6,5.7C459.9,353.3,462.6,357.8,466,351.7z"/>
	<path d="M507.2,145.2c7.9-5,11.9-4.1,15.8,3.3c-3.9,4.4-7.8,8.9-12,13.8c0.6,0.4,2.5,1.5,4.4,2.6c-2.1,2.2-4.2,3.2-7.2,1.1
		c-4-2.7-8.3-3.3-13.2-2.1c-4.3,1.1-10.2-2.3-13.6-7.9c4.6,2.5,8.4,2.5,9.4-2.5c0.6-3-0.3-6.2-0.3-9.4c0-2-0.2-5.2,0.7-5.7
		c2.1-1,5.2-1.4,7.4-0.7c1.9,0.6,3.5,2.9,4.9,4.6c2.3,2.9-1.3,3.3-2.2,4.9c-2.3,4.3-4.3,8.7-7.3,14.7c5-1.3,10.1-1.1,12.5-3.5
		C509.9,155.1,511.6,149.9,507.2,145.2z"/>
	<path d="M596.9,358.1c-8.7-11.7-20.2-17.6-34.9-17.9c0.5,2.7,1,4.9,1.6,8.2c-2.3-2.7-3.8-4.3-5.7-6.6c-3.7,2.6-6.5,6.2-9.6,6.5
		c-6.4,0.6-8.9,8-15.9,7.6c-2.5-0.1-5,4-7.8,5.7c-2.3,1.5-4.8,4.3-8.3,0.4c1.9-0.1,3-0.2,4.1-0.2c0.1-0.4,0.2-0.9,0.1-1
		c-3.4-2.2-2.8-4.7,0-6.7c2.4-1.7,5-3,7.7-4.2c7.7-3.2,15.4-6.2,23.1-9.4c11.3-4.6,21.7-2.5,32,3.4
		C589.1,347.5,594.4,351.3,596.9,358.1z"/>
	<path d="M433.1,452c6,3,10.6,5.4,15.4,7.4c1.1,0.5,3.3,0,4.2-0.9c5.9-5.8,17.9-6.9,25.1-2c1.7,1.2,3.6,2.5,4.7,4.2
		c1.2,1.8,1.4,4.2,2.1,6.3c-2.4,0.1-5.3,1.2-7.2,0.2c-5.7-2.9-11.8-3-17.7-2.5c-9.3,0.8-17.1-1.9-23.8-8
		C434.9,455.9,434.4,454.3,433.1,452z"/>
	<path d="M228.5,373.6c1.1,0.3,2.1,0.6,3.7,1c-0.6-2-1.1-3.5-1.6-5.1c4.5-3.9,8.2-8.9,15-9.9c2.7-0.4,4.4-0.7,5.5,2.1
		c0.3,0.7,0.8,1.5,1.4,2c3,2.5,4.8,4.5,0.1,7.4c-1.7,1-2,4.1-2.9,6.1c-0.5-0.7-1.6-2.4-2.9-3.7c-0.5-0.6-1.7-0.6-2.5-0.8
		c-0.2,0.9-0.8,2.1-0.4,2.6c2.6,3.6-0.9,4.3-3,5.6c0.7-1.1,1.3-2.1,2.4-3.8c-3.4-0.2-6.4-0.4-9.6-0.6c-1,1.1-2.4,2.8-3.9,4.5
		c-0.3-0.3-0.6-0.6-1-0.8c0.7-1.2,1.4-2.4,2.2-3.8c-1-0.6-1.9-1.1-2.8-1.6C228.3,374.3,228.4,374,228.5,373.6z"/>
	<path d="M637.7,412.4c-0.6-3.3-1-6.2-1.6-9c-1.3-6.4-2.5-12.8-4-19.2c-0.7-2.8-2.5-5.4-3-8.3c-0.3-1.7,0-4.5,1.2-5.4
		c2.6-2.1,6-4.4,9.2-1.4c1.5,1.4,2.9,4.6,2.3,6.2c-1.7,4.5-1.4,8.6,0.1,13c1.1,3.2,1,6.3-1.6,9.1c-2.1,2.3-2.9,4.8-0.7,8
		C641.8,408.8,639.7,410.9,637.7,412.4z"/>
	<path d="M94.2,489.7c-2.7,2.2-4.8,3.8-7,5.6c2.2,1.7,3.9,3,5,3.8c-2.9,0.9-6,1.1-7.9,2.7c-1.8,1.6-2.2,4.7-3.1,6.7
		c-2.4-0.5-5.6-1.2-8.9-1.8c-0.2,0.4-0.4,0.9-0.7,1.3c1.5,1.8,3.1,3.7,4.6,5.5c-0.3,0.3-0.5,0.5-0.8,0.8c-1.5-1.3-3-2.5-4.5-3.8
		c-1.9,1.5-3.9,3.2-5.8,4.8c1.1,0.8,2.5,1.9,3.9,3c-0.2,0.3-0.4,0.7-0.6,1c-0.8-0.3-1.5-0.6-2.3-0.9c-1.6-0.6-3.2-1.2-4.7-1.9
		c-0.3,1.7-0.6,3.4-1,5c-0.3,1.5-0.7,2.9-1.3,5.4c-5.1-9.9,2.9-13.6,6.9-17.8c7.4-7.7,16.2-14.3,26.1-19
		C92.6,489.8,93.1,489.9,94.2,489.7z"/>
	<path d="M357.9,158.7c-3.3-0.3-6.2-0.6-9.4-0.9c0.6-1,1.4-2.4,2.6-4.5c-7.9,2.8-10.5-2.8-13.7-7.2c1.8-0.2,3.5-0.4,5.1-0.4
		c1.1,0,2.4,0.2,3.2,0.8c4.3,3.3,5.6,3.8,11.5,3c-0.8-1.1-1.4-2-2.1-3.1c1.2-0.1,2.1-0.3,2.5-0.3c1.6,4.3,3,8.3,4.6,12.6
		c-1.5,1.6-3.8,4.2-6.1,6.7c-4.1-3-8-1.9-10.5,3.3c-0.4-2.3-0.8-4.6-1.2-7.1C348,163.1,356.4,161.5,357.9,158.7z"/>
	<path d="M242.4,459.7c-19-15.4-31.4-35.3-39-58.5c3.6,6.5,7.2,13.1,10.9,19.5c3.9,6.8,7.3,14.1,12.2,20.2
		c5.1,6.3,11.7,11.5,17.7,17.1C243.5,458.5,243,459.1,242.4,459.7z"/>
	<path d="M419.6,372.5c4.3-1.1,8.5-2.7,12.8-3.2c4.9-0.6,9.8-0.1,15.2-0.1c0.3,0.6,1,2.2,1.7,3.8c-0.2,0.2-0.4,0.3-0.6,0.5
		c-0.8-0.9-1.6-1.9-2.7-3.2c-2.3,1.3-4.7,2.7-7.4,4.2c-0.1-1.4-0.2-2.1-0.3-3.2c-5,4.9-11.7,6.5-16.2,3.6c1.8,0.1,3,0.2,4.2,0.2
		c0.1-0.5,0.1-1,0.2-1.5c-1.6-0.2-3.2-0.5-4.9-0.6c-0.5,0-1.1,0.4-1.6,0.6C419.9,373.2,419.7,372.8,419.6,372.5z"/>
	<path d="M396.8,50.8c3.8-4.8,9.9-2.9,14.5-4.7c1.4,1,2.7,2,4.1,3C408.8,56.3,400.9,57.3,396.8,50.8z"/>
	<path d="M628.9,200.8c0.2,1.4-0.2,3.7,0.5,4.2c4.1,2.7,3.6,7.2,4.2,11.4c-1.4-1.9-2.8-3.7-4.8-6.4c-3.4-0.1-5.6-3.8-12.3-12.5
		c4.8,1.3,8.6,2.4,12.5,3.5C629.1,201,628.9,200.8,628.9,200.8z"/>
	<path d="M229.5,423.1c-1.5,1-3,2.1-4.7,3.3c-2.5-3.2-5.1-6.4-7.9-9.9c1-0.4,1.7-0.7,2.4-1.1c-2.5-3.5-5-7.1-7.5-10.6
		c0.2-0.2,0.4-0.4,0.6-0.5C218.2,410.5,223.9,416.8,229.5,423.1z"/>
	<path d="M248.7,303.7c1.7,1.3,3.2,3.2,5.1,3.7c4.3,1,2.3,3.2,1.7,5.6c-1.5-1.6-2.7-2.9-3.9-4.2c-0.5,0.2-0.9,0.4-1.4,0.6
		c0,3.9,0,7.8,0,11.7c-0.3,0.2-0.6,0.4-1,0.6c-2.1-3.1-4.3-6.1-6.4-9.2c0,0-0.2,0.2-0.2,0.2c0.9,0.6,1.9,1.1,4.1,2.5
		c0.8-4.5,1.4-8.1,2-11.6L248.7,303.7z"/>
	<path d="M470.8,142.9c2.4-0.9,5-2.8,7.2-2.4c3.6,0.6,7.1,6.9,6.7,10.6C480.3,148.4,476,145.9,470.8,142.9z"/>
	<path d="M331.4,163.8c0.7-3.2,1.4-6.5,2.4-11.2c2,2.3,2.8,3.1,4.1,4.6c0.8-0.8,1.6-1.5,2.2-2.1c0.6,0.7,1.6,1.9,2.7,3.2
		c-0.5,1.1-1.1,2.4-1.6,3.3c-2-1.4-4-2.8-5.8-4.1c-0.8,2.3-1.5,4.5-2.2,6.7C332.5,164.1,331.9,164,331.4,163.8z"/>
	<path d="M573.9,193.5c1.3-1.5,2.5-3,4-4.3c1.7-1.5,3.7-2.7,5.4-4.2c4.7-4.2,5.2-4.2,9.1,1.2c-1.4-0.2-2.4-0.3-3.5-0.4
		c-1.6-0.1-3.7-0.7-4.7,0c-3.2,2.5-6,5.6-9,8.4C574.8,194.1,574.3,193.8,573.9,193.5z"/>
	<path d="M334.9,96.2c-1.6-0.7-3-1.4-5-2.3c1.8,3,3.2,5.2,4.6,7.4c-0.3,0.2-0.6,0.4-0.8,0.6c-2.1-2.5-4.1-5-6.5-8
		c-1.7,1.3-3.3,2.5-5,3.8c1.8-6.2,7.5-5.3,10.7-6.8C333.6,92.8,334.2,94.3,334.9,96.2z"/>
	<path d="M551.3,186c-2.9,4.9-6.5,4.9-10.6,1.1c-3.1-2.9-6.9-5-10.1-8.2c1.8,1,3.7,1.9,5.4,3c1.9,1.3,3.6,2.9,5.5,4.1
		C545.9,188.9,547.1,188.8,551.3,186z"/>
	<path d="M543.7,154.8c3.5,1.3,6.9,2.5,10.3,3.8c-0.1,0.4-0.1,0.8-0.2,1.3c-3.8,0-7.6,0-11.6,0C542.7,158.4,543.2,156.8,543.7,154.8
		z"/>
	<path d="M639,192.4c0.9,2.2,1.6,3.8,2.3,5.3c-0.5,0.2-1.1,0.4-1.6,0.6c-1-2.3-3.5-3.6-1.8-7.4c1-2.2-0.8-5.7-1.1-8.6
		C638.1,185.7,643.3,188.3,639,192.4z"/>
	<path d="M245.8,379.9c9.4-0.7,9.4-0.7,8.4-7.5c1.7,1.9,3.3,3.1,3.1,3.6c-0.9,2-1.9,4.9-3.6,5.4c-2.4,0.8-5.3,0-8-0.2
		C245.8,380.8,245.8,380.4,245.8,379.9z"/>
	<path d="M374,164.9c-1.1,1-2.5,2.2-3.8,3.4c-1.2,1.1-2.4,2.2-3.7,3.4c-0.7-0.7-1.4-1.4-2.1-2.1c1.6-0.6,3.1-1.2,5.2-2
		c-1.7-1.1-2.7-1.8-4.4-2.9c1.6-1.4,3-2.6,3.9-3.4C371,162.6,372.5,163.8,374,164.9z"/>
	<path d="M522.5,463.7c1.5-0.6,2.7-1,3.9-1.5c0.1,0.7,0.2,1.5,0.2,2.2c-4.5-0.2-9-0.5-13.6-0.7c0.1-0.7,0.1-1.3,0.2-2
		C516.1,463.9,520.5,457.6,522.5,463.7z"/>
	<path d="M438.9,140c2.4,0.3,4.6,0.5,7.2,0.8c-1.4,1.3-2.8,2.6-4.2,3.9c-6-5.6-6.3-6.8-2.4-12.3c-0.4,2-0.7,3.7-0.9,5.4
		C438.4,138.3,438.6,138.8,438.9,140z"/>
	<path d="M224.9,390.4c-0.8-2.1-3.4-4.4,0.1-6.4c-0.7-1.2-1.5-2.4-2.5-4.2c0.7-0.1,2-0.6,2.4-0.2C227.8,383,227.2,386.7,224.9,390.4
		z"/>
	<path d="M441.5,377.9c1.6,0,3.2,0,5.5,0c-1-1.5-1.7-2.7-2.4-3.7c2.8,0.2,5.7,0.3,8.5,0.5C449.2,375.5,446.7,381.1,441.5,377.9z"/>
	<path d="M396.7,150.8c2.9-0.7,5.7-1.5,9.4-2.5c-1.5,8.1-7.1-0.2-8.7,4.6C397.2,152.2,396.9,151.5,396.7,150.8z"/>
	<path d="M382.1,171.2c-3.3-0.2-6.7-0.4-10.7-0.7c4.2-6.3,7.5-1.1,10.8-1C382.2,170.1,382.1,170.7,382.1,171.2z"/>
	<path d="M644.2,253.4c3.1-2.6,5.5-4.6,7.9-6.6c0.2,0,0.4,0.1,0.6,0.1c-2.1,2.7-4.1,5.5-6.3,8C646.3,255,644.3,253.4,644.2,253.4z"
		/>
	<path d="M208.2,388.6c1,2.6,2,5.3,3.4,9.2c-2.3-0.9-4.3-1.2-4.4-1.8c-0.6-2.5-0.5-5-0.7-7.6C207,388.4,207.6,388.5,208.2,388.6z"/>
	<path d="M586.9,168.1c2.9,1.3,4.9,2.1,6.9,3c0,0.3-0.1,0.5-0.1,0.8c-1.2,0-2.4,0-3.9,0c-0.1,1.6-0.2,3.2-0.3,4.8
		c-0.5,0.1-0.9,0.1-1.4,0.2C587.7,174.2,587.3,171.5,586.9,168.1z"/>
	<path d="M526.7,171.9c2.1-3.6,4.3-7.5,6.2-10.8C534.7,163.9,532.4,168.8,526.7,171.9z"/>
	<path d="M233,501.4c-4.5-0.4-9-0.8-13.5-1.2c0-0.6,0.1-1.1,0.1-1.7c4.5,0.3,9,0.6,13.4,0.9C233,500.1,233,500.7,233,501.4z"/>
	<path d="M486.7,126.9c4.8-2.7,10.9-2.5,13.9,0C496.1,126.9,491.7,126.9,486.7,126.9z"/>
	<path d="M365,159.5c1.8,3.5-5.2,5.4-0.6,8.6c-1.3-1-2.7-2-4.4-3.2C361.6,163.2,363.1,161.6,365,159.5z"/>
	<path d="M336.1,87.1c2.4-7.3,5-2.5,8.1,0C341.2,87.1,338.8,87.1,336.1,87.1z"/>
	<path d="M378.5,320.3c2.9-1,5.8-2,8.8-2.9c0.1,0.4,0.2,0.8,0.4,1.2c-2.8,1.2-5.6,2.5-8.4,3.7C379,321.7,378.7,321,378.5,320.3z"/>
	<path d="M488.4,494.5c5.4-1.2,5.4-1.2,6.6,0.6c-2.3,0.4-4.4,0.7-6.6,1.1C488.5,495.6,488.4,495,488.4,494.5z"/>
	<path d="M376.2,297.2c-1.1-0.5-2.3-0.9-4.1-1.6c1.2-1,1.9-1.6,2.9-2.4c-0.7-0.5-1.4-1.2-2.5-2c1-0.4,2-1,2.1-0.9
		c1.2,1.9,2.3,3.8,3.4,5.7C377.4,296.4,376.8,296.8,376.2,297.2z"/>
	<path d="M482.1,171.7c-3.7-3.5-7.4-6.9-11.2-10.4c0.2-0.2,0.4-0.5,0.7-0.7c3.7,3.5,7.4,6.9,11.1,10.4
		C482.5,171.2,482.3,171.5,482.1,171.7z"/>
	<path d="M412,114.7c1.3,3.4,2.5,6.8,3.8,10.1c-0.5,0.2-1.1,0.4-1.6,0.5c-0.9-3.5-1.7-6.9-2.6-10.4
		C411.7,114.9,411.9,114.8,412,114.7z"/>
	<path d="M481.8,122.1c-2.4,0.4-4.9,0.9-7.3,1.3c-0.1-0.8-0.2-1.5-0.3-2.3c2.5-0.2,4.9-0.4,7.4-0.6
		C481.8,121.1,481.8,121.6,481.8,122.1z"/>
	<path d="M644.2,195c-0.9-3.8-1.9-7.5-2.8-11.3c0.3-0.1,0.7-0.2,1-0.2c1,3.8,1.9,7.6,2.9,11.3C644.9,194.9,644.6,194.9,644.2,195z"
		/>
	<path d="M440.6,52.1c-0.7-0.4-1.6-0.9-2.5-1.4c0.2-0.4,0.4-0.9,0.7-1.3c1.2,0.7,3.4,1.5,3.4,2.1c-0.1,1.7-1.1,3.4-1.8,5.1
		c-0.6-0.3-1.2-0.5-1.7-0.8C439.3,54.7,439.9,53.4,440.6,52.1z"/>
	<path d="M498.3,503.5c-1.7-0.6-4-0.7-4.9-1.9c-0.6-0.8,0.8-3.1,1.3-4.8c0.5,0.1,0.9,0.2,1.4,0.3c-0.1,1.1-0.6,2.4-0.1,3.1
		c0.4,0.7,1.9,0.9,2.8,1.3C498.6,502.2,498.5,502.9,498.3,503.5z"/>
	<path d="M419.3,825.2c1.4,1.2,2.8,2.3,5.2,4.3c0,1.6,0,4.6,0,8.6c1.2-1.6,1.7-2.3,2.7-3.8c0.3,2.6,0.5,4.4,0.7,6.2
		c0.3,0,0.5,0,0.8,0c0.2-2.5,0.5-5,0.7-7.5c0.4,0,0.7,0,1.1,0c0,5.3,0,10.6,0,15.9c0,9-0.1,18-0.2,27c0,1.1-0.6,2.6-1.5,3
		c-0.7,0.3-2-0.7-3.1-1.1c0.1-0.4,0.3-0.8,0.4-1.2c0.8,0.2,1.6,0.4,2.4,0.6c0.4-0.3,0.7-0.5,1.1-0.8c-1.4-2-2.7-4-3.5-5
		c-2.4,0.8-4.3,1.4-6,2c-1.1,0.9-2.3,2-3.5,3.1c-0.7-1.5-1.4-3.1-2.2-4.7c3.2-2.9,3.2-2.9-1.5-6.5c-0.1,2.5-0.1,5.2-0.4,7.9
		c-0.4,3.6,1,4.4,4.2,3.3c-1.1,0.6-3.1,1.8-3.3,1.6c-1-1.3-2.2-2.9-2.3-4.5c-0.3-3.6,0.1-7.3,0-10.9c-0.2-7.9-0.7-15.8-0.9-23.7
		c-0.2-7.3,0-14.6,0-21.9c0.4-0.1,0.9-0.1,1.3-0.2c0.5,2.2,1,4.3,1.7,7.6c2-2.2,3.6-3.9,5.6-6.1C419,820.9,419.2,823.1,419.3,825.2
		C419.4,825.3,419.3,825.2,419.3,825.2z M416.7,836.8c-4.7,0.5-6,2.5-4.3,6.4c0.8,1.7,2,3.7,1.8,5.4c-0.2,2.7-0.6,2.7,2.2,3.2
		c0.5-5,1.2-10.1,1.3-15.2c0-1.7-1.8-3.4-2.8-5.1c-0.4,0.4-0.9,0.7-1.3,1.1C414.5,833.8,415.4,835.1,416.7,836.8z M424.7,844.1
		c0.5,6.1-1,12.7,1.2,19c0.5-1.4,0-3.7,0.5-4c4.6-2.5,1.2-4.2,0-6.1c1.2-1.3,2.3-2.9,1.9-3.8C427.6,847.3,426,845.8,424.7,844.1z"/>
	<path d="M433.9,871.5c0.2-4.2,0.5-8.4,0.7-12.6c-0.5-0.1-1-0.2-1.5-0.4c1.1-0.6,2.2-1.2,3.6-2c0.4,1.6,0.7,2.8,1,3.9
		c1.6,0,3,0,5.4,0c-0.8,2.5-1.5,4.4-2.2,6.4c-0.5-0.2-1.1-0.4-1.6-0.6c0.5-0.8,1.6-1.6,1.5-2.3c-0.2-0.9-1.2-1.6-2.6-3.1
		c-1.3,4.4-2.3,7.8-3.3,11.3C434.6,871.9,434.2,871.7,433.9,871.5z"/>
	<path d="M419.4,825.3c1.2-2.4,2.3-4.8,3.7-7.6C425.4,823,424.3,824.9,419.4,825.3C419.3,825.2,419.4,825.3,419.4,825.3z"/>
	<path d="M587.4,866.4c1.2-1.4,2.2-2.5,3.1-3.6c2.5,2.4,5.2,5,8.2,7.8c-0.9,1-1.8,2-2.5,2.8c-1-2.2-1.9-4.2-2.7-6.2
		c-0.5,0.1-0.9,0.2-1.4,0.4c-0.3,2-0.6,3.9-1.1,7c-3.7-3.1-6.4-5.4-9.2-7.8c0.2-0.5,0.5-1,0.7-1.5c2.1,1.4,4.2,2.8,6.4,4.2
		c0.3-0.3,0.6-0.7,0.9-1C589,867.8,588.2,867.1,587.4,866.4z"/>
	<path d="M586.9,856.8c-0.9,2.2-1.4,3.7-2.1,5.6c-1.6-1.3-2.7-2.2-3.8-3c-1.5,0.7-2.7,1.4-4,2c-0.2-0.8-0.4-1.6-0.6-2.4
		c1.8-0.1,3.7,0,5.5-0.4C583.3,858.4,584.6,857.7,586.9,856.8z"/>
</g>
</svg>
