<?xml version="1.0" encoding="utf-8"?>
<!-- Generator: Adobe Illustrator 20.0.0, SVG Export Plug-In . SVG Version: 6.00 Build 0)  -->
<svg version="1.1" id="Слой_1" xmlns="http://www.w3.org/2000/svg" xmlns:xlink="http://www.w3.org/1999/xlink" x="0px" y="0px"
	 viewBox="0 0 439.3 923" style="enable-background:new 0 0 439.3 923;" xml:space="preserve">
<g>
	<path d="M156.9,895.6c-2.5-5.1-7.1-3.8-11.4-3.9c-4.1-0.1-8.7,0.5-12-1.3c-3.9-2.1-6.7-6.5-10-9.7c-1.5-1.4-3.4-2.4-5.4-3.1
		c-1.5-4,5.8-7.4,1.4-12.7c4.8-2.6,8.4,0.8,11.7,2.7c3.4,1.9,5.9,5.3,8.9,7.9c0.6,0.6,1.8,1,2.6,0.8c2.7-0.4,5.4-1.1,8-1.6
		c-11.4-10.9-22.8-21.8-34.3-32.8c-1.1,0.5-2.6,1.1-4.8,2c1.6-2.3,2.8-3.9,4.4-6.2c-2-0.1-3-0.2-4.4-0.3c2.8-3,1.7-5.2-1.3-7.2
		c-1.8-1.2-3.6-2.8-4.5-4.6c-1.9-4.2-3.6-0.8-5.7-0.1c-0.5-0.9-1.1-1.8-1.7-2.9c-1.3,0.9-2.6,1.9-4.6,3.3c1-2.3,1.7-3.9,2.6-5.9
		c-8.9-2.6-15.8,1.6-23.1,4.9c-1.9,0.9-4.2,0.9-6.3,1.3c-0.1-0.4-0.1-0.8-0.2-1.2c2-0.3,3.9-0.6,5.9-0.9c0.1-0.5,0.1-1,0.2-1.5
		c-6.5-3.4-16.6,0.3-20.3-10.1c1.3-0.7,2.9-1.5,4.5-2.4c1.2-0.7,2.5-1.5,3.2-2.6c2-3,4-2.4,6.3-0.5c1.6,1.2,3.3,2.3,5.4,3.7
		c1.2-6.9-0.8-8.8-5.8-7.9c-3.1,0.6-6.4,0.4-10.7,0.6c-3.1,3.3-5.5,3.4-8.2-1.7c1.2,1.1,2.3,2.1,3.5,3.2c6-10,5.2-15.4-1.9-23.3
		c-1.5-1.6-1.3-4.9-1.4-7.5c0-0.4,2.1-0.9,3.2-1.4c-1.8-4-3.9-8.4-5.9-12.8c-0.1,0.3-0.1,1.1-0.4,1.8c-1.5,3.4-3.4,5.7-7.5,3.4
		c-2.6-1.4-5.3-2.7-8.1-4.1c7-2.5,12.8-6.6,19.8-5.4c0.2,0.2,0.6,0.5,0.6,0.7c-0.4,5.8-0.4,5.8,4,3.8c0.8-0.4,1.7-0.8,2.5-1.2
		c1.7-1,3.5-1.8,5-3.1c0.2-0.2-1-3.1-2-3.4c-1.8-0.5-3.8,0.1-5.4,0.2c0.1-0.9,0.9-3.7,0.4-3.9c-1.7-0.9-3.9-0.8-5.9-1.2
		c-2.2-0.4-4.5-0.8-6.5-1.6c-0.6-0.3-0.5-2.2-0.6-2.6c4-0.2,8.1,0.7,10.3-0.9c2.1-1.6,2.4-5.7,3.5-8.7c-0.4-0.3-0.8-0.7-1.2-1
		c-2,0.6-4,1.2-6.4,1.9c-0.4-1-0.3-4.1-3.8-1.6c-1.3,0.9-3.8,0.2-5.8-0.5c7.9-2,15.7-4,23.6-6.1c0.1,0.1,0.1,0.2,0.2,0.4
		c-1.6,0.8-3.3,1.4-4.7,2.3c-0.7,0.5-1,1.7-1.5,2.5c0.8,0.3,1.6,0.9,2.5,0.9c0.8,0,1.7-0.3,2.3-0.8c4.9-4.6,8.8-1.3,12.7,1.5
		c2,1.5,1.9,5.7-1,8.7c2.4-0.3,3.8-0.5,5.6-0.7c4,5.1,9.3,10.2,12.5,16.4c5.3,10.4,13.4,18.7,19.1,28.6c3.1,5.5,7.4,10.4,7.8,17.5
		c0.2,4.1,1.3,8.7,4.8,12.2c3.7,3.7,6.5,8.4,9.8,12.4c2.5,3,5.4,5.6,7.9,8.5c2.5,2.9,4.7,5.9,7.2,9.2c-5.3,3.9-1.4,7.9,0.7,9.8
		c2.3,2.1,6.7,1.9,10.5,2.8c-0.1,1-0.3,2.4-0.5,4.5c4.2,0,8.1,0,12.1,0c0.3-0.4,0.5-0.7,0.8-1.1c-2-1.2-4-2.4-6.4-3.9
		c1.1,0.1,1.8,0.1,4.1,0.3c-8.5-9-12.4-19.7-20.2-28c0.3-0.2,0.7-0.5,1-0.7c1,1.3,1.9,2.7,3,4c0.8,1,1.7,1.9,2.6,2.8
		c1.3,1.6,3.6,3.1,3.7,4.8c0.3,4,2,5.3,5.8,4.6c0.4,1.6,0.7,3,1.1,5.2c1.2-1.3,1.8-2.1,2.2-2.5c0.8,2.3,1.7,4.8,2.8,7.9
		c4.7-3.2,8.6-5.8,12.5-8.4c7-4.6,12.1-2.8,16,4.7c3,5.8,2.9,10.1-0.7,16c-2.8,4.5-6.8,5.3-11.1,8.7c0.7,1.9,1.1,6.1,2.7,6.7
		c4.3,1.6,8.2-0.8,11.5-4.6c-0.4,1.9-1.5,3.9-1.1,5.6c0.3,1.6,2,2.9,3.3,4.2c0.2,0.2,1.6-1,2.4-1.4c0.3,1.3,0.8,3,1.2,4.5
		c3.1-2.3,5.7-4.3,8.4-6.2c-0.6,2.8-2.4,4.9,1.9,5.8c1.4,0.3,2.4,2.1,3.6,3.2c-7,0-14,0-21,0c-2-1.3-3.9-2.8-6-4
		c-2.1-1.2-4.6-1.6-6.4-3.1c-4.2-3.5-8-7.4-11.9-11.1c-0.1,0.6-0.1,1.2-0.2,1.8c-1.7,0.4-4,1.8-5,1.1c-1.5-1-2.1-3.3-3.6-6
		c-2.5-0.2-2.6,9-8.6,3.7c1,2.1,2.1,4.4,3.7,4.7c2.1,0.5,4.5-0.5,6.8-0.9c0.1,0.4,0.3,0.7,0.4,1.1c-2.9,1.3-5.8,2.7-8.7,4
		c2.8,6.2,4.8,7.2,9.6,5.1c2.5,1.3,4.7,2.4,7,3.5C169.6,895.6,163.2,895.6,156.9,895.6z M67.5,766.2c-1.9-1.6-3.4-3.6-4.3-3.4
		c-1.4,0.4-2.5,2.2-3.8,3.4c1.3,1.1,2.4,2.8,3.9,3.2C64.1,769.6,65.5,767.8,67.5,766.2z M59.7,776c-5.4-1.6-4.4,2.8-5.4,5.5
		c1.7,0.1,3.4,0.2,5.4,0.4C59.7,779.5,59.7,777.8,59.7,776z"/>
	<path d="M63.5,283.6c7.5-0.5,9.5-4,6-9.2c-2.5-3.7-2.9-7.1-1.2-11.2c0.9-2.2,0.8-4.9,1.1-7.5c-3.2-0.8-5.7-1.1-5.3,2.6
		c0.4,4.1-1,7.4-2.6,11.2c-5.2,12.2-9.5,24.8-9.7,38.4c-0.1,4.7-1.8,9.3-2.1,14c-0.3,3.7-0.4,7.7,0.7,11.3c2.8,9.6,4.1,19.9,10.6,28
		c4.7,6,10,11.6,18.7,10.6c4.5-0.5,5.5,2.7,6.2,5.5c2.1,8.4,5.2,17,5.2,25.5c-0.1,13.4,5.9,24.6,10.6,36.2c2.8,6.8,7.3,13,11,19.4
		c0.1,0.1,0.3,0.3,0.3,0.4c-1.6,6.3,3.9,7.9,8.3,10.6c-5.2,1.8-9.4-1-9.7-6.4c-0.2-4.1-2.2-5.1-5.6-6.1c-9.7-2.7-19.4-5.2-28.7-8.8
		c-14.4-5.5-27.9-13.2-39.2-23.7c-12.2-11.4-22.8-24.3-28.1-40.6c-1.1-3.3-1.7-6.9-2-10.4c-0.7-6.7-1.9-13.5-1.5-20.1
		c0.6-9,1.9-18,4-26.7c1.8-7.6,4.7-15,7.8-22.2c3-6.8,6.9-13.3,10.3-19.9c2.8-5.5,5.2-11.3,8.3-16.7c1.4-2.5,4.2-4.1,6-6.3
		c1.2-1.5,2.6-3.4,2.8-5.2c0.8-8.8,0.2-17.7,1.9-26.3c1.2-6.2,5.5-11.8,7.9-17.9c1.3-3.3,2.8-7.6,1.7-10.5
		c-2.9-7.4-0.5-14.6-0.6-21.8c-0.1-12.7,7.1-22.9,12.5-33.8c2.1-4.2,3.3-9.1,4-13.8c2-13.5,4.6-26.7,11.1-38.9
		c2.8-5.3,4.8-10.9,7.4-16.3c5.1-10.3,12.9-18.3,20.9-26.4c13.4-13.6,30.6-18.4,48.1-22.9c3.4-0.9,6.8-2.2,10.2-2.6
		c2.9-0.3,6.1,0.2,9,1c4.1,1.1,8.5,2.1,11.9,4.5c4.3,3,7.6,1.3,11.8,0.4c9.5-2.2,15.3-9.4,22.1-15.2c7.6-6.5,15.5-8.6,25.1-5.7
		c4.6,1.4,9.6,1.2,14.5,1.7c5.9,0.6,11.4,1.9,17.7,0.9c6.4-1,13.4,2.1,20.1,3.9c6.2,1.7,12.1,4,18.2,6.1c0.3,0.1,0.6,0.4,0.9,0.4
		c12.2-2.4,18.1,7.3,25.6,13.6c10.4,8.9,20.6,18.1,30.6,27.5c5,4.7,9.1,10.3,13.7,15.4c3.9,4.3,8.4,8.1,11.7,12.8
		c6.1,8.9,11.4,18.2,17,27.4c0.4,0.7,0.8,1.5,0.9,2.3c0.4,3.7,0.5,7.6,1.3,11.3c1.4,6.7,3.1,13.4,4.9,20c2.9,10.7,6.1,21.4,8.8,32.2
		c0.9,3.5,0.5,7.3,0.9,10.9c0.6,4.5,2,9,2,13.6c0,9.5,0.3,19.1-3.1,28.3c-1.2,3.2-0.7,7-0.9,10.5c-0.4,6.2-0.7,12.4-1,18.6
		c-0.1,3.1,0.2,6.3-0.1,9.4c-0.2,1.4-1.5,2.6-2.3,3.9c-1.2-0.9-2.6-1.6-3.6-2.6c-0.8-0.8-0.9-2.3-1.7-3c-1.3-1-3-1.6-4.5-2.4
		c-0.6,1.4-1.2,2.9-1.8,4.3c-0.8,1.7-1.3,3.6-2.5,5c-3.6,4.4-2.9,6.8,2.1,8.8c2.7,1.1,5.3,2.7,7.6,4.4c3,2.2,4.3,5.3,3.4,9.1
		c-1.6,6.6-0.3,14.4-7.1,19c-4,2.8-7.9,6.5-13.9,3.8c5.4-4.8,3.5-10.4,2.3-15.7c-0.6-2.7-2.2-5.1-3.3-7.7c-0.3-0.7-1.1-1.8-0.8-2.2
		c4.6-7.3,0.2-14.4-0.4-21.6c-0.8-11.4-1.3-22.7-2.2-34.1c-0.2-3-1.9-6-2-9c-0.1-3.7-0.3-8.1,5.1-10c-1.7-0.5-3.4-0.9-5.2-1.4
		c-0.1-0.5-0.1-1-0.2-1.4c2.1-0.3,4.3-0.7,6.9-1.1c0-0.8,0.3-2.2-0.1-3.3c-2.4-7.6-4.2-15.6-7.7-22.7c-3.2-6.4-8.5-11.6-12.5-17.6
		c-2.4-3.6-3.6-8.1-6.1-11.6c-4-5.4-8.2-10.8-13.3-15.1c-4.1-3.5-9.7-5.3-14.5-8.2c-10-6-20.9-9.5-32.3-11.5c-5.8-1-11.3-3.4-17-4.6
		c-5.7-1.2-11.5-1.7-17.2-2.6c-3.2-0.5-6.4-1.4-9.6-1.8c-7.8-1.1-15.7-2.2-23.6-3c-9.9-1-19.8-1.8-29.7-2.4c-9.5-0.6-19-1-28.5-1
		c-3.7,0-8.2,0.5-10.7,2.6c-4.4,3.8-9.6,5.3-14.5,5.4c-16.8,0.2-29.8,9.9-44.4,16c-10.6,4.5-17.4,12.7-24,20.7
		c-8.9,10.7-17,22.7-18.8,37.2c-0.9,7.4-0.9,14.9-1.4,22.4c-0.2,3.2-0.9,6.4-1.4,9.6c-0.1,0.6-0.6,1.4-0.4,1.9
		c4.4,11-1.5,21.2-2.3,31.7c-0.6,7.9-2.2,15.7-3.3,23.6c-0.1,0.6,0,1.4,0.3,1.9c2,3.6,0.8,6.5-1.9,9.2c-8.2,8.3-7.8,15.5,0.8,23.5
		c1.9,1.8,3,4.6,4.1,7.2c0.3,0.8-1,3.2-1.3,3.2c-2-0.3-4-1.1-5.6-2.6c1.4,0.1,2.8,0.2,4.2,0.3c-0.9-1.3-1.4-3.1-2.6-3.9
		c-4.3-3.1-9.7-4.4-12.7-9.6c-5.1-8.6-3.2-17.3,5.4-22c1.6-0.9,3.7-3,3.6-4.4c-0.1-1.9-2-3.8-3.4-5.4
		C67,285.3,65.7,284.9,63.5,283.6z M346.4,104.5c0.8,0.5,1.7,0.9,2.3,1.6c2.1,2.1,3.6,5,6.1,6.4c4.8,3,8.3,6.3,8,12.5
		c-0.1,2,0.5,4.1,0.9,7.2c1.9-3.6,3.2-6,4.5-8.5c10.1,1.9,7.7,8.3,5.2,14.5c4.4,0.3,5.4-1,4.4-4.3c-0.2-0.8-0.4-2.1-0.1-2.4
		c0.6-0.5,2-0.8,2.6-0.4c3.7,2.3,7.1,4.9,6.4,10.1c-0.3,2.3,0,4.7,0,7.1c-1,0.1-2.5,0.3-4.1,0.4c0,0.3,0.1,0.7,0.1,1
		c1.8,0.7,3.6,1.5,5.6,2.3c2.1-7.3,3.1-14,2-21.4c-0.8-5.8-2.9-8.7-7.7-11.2c-2.3-1.2-4.3-3.6-5.8-6c-4.9-7.7-9.8-15.2-16.8-21.1
		c-6.9-5.9-14.6-11.2-20.6-17.9c-8.1-9.1-19.7-11.9-29.2-19.1c-1.6,2.4-3,4.5-4.9,7.4c-0.3-3.5-0.6-5.7-0.8-8.3
		c-1.5,0.4-3,0.4-4.1,1.1c-4.3,2.7-9.3,5-13.6,6.5c-5.8,1.9-12.7,4.2-19.3,1c-0.6-0.3-1.4-0.5-1.9-0.2c-6.7,3.9-13.7,0.1-20.6,0.8
		c-8.9,0.9-18.1-0.8-27,1.7c-5.8,1.6-9.9,5.4-10.6,10.5c9.4,0,18.9-0.3,28.3,0.1c11.1,0.4,22.2,1,33.2,2.2
		c5.5,0.6,10.7,2.9,17.4,4.7c3.5-1.4,8.6-3,14.4-1.2c6.4,2,12.9,3.6,19.3,5.6c16.9,5.2,33.1,11.7,46.9,23.3c1.3,1.1,2.1,2.7,3.1,4.1
		c-9.3-3.9-15.7-11.9-25.7-14.1C345.3,102.3,345.8,103.4,346.4,104.5c-1.9,0-3.7,0-6.6,0c1.2-1.8,2.3-3.5,3.5-5.3
		c-1.9-0.5-3.5-0.6-4.5-1.4c-3.4-2.7-7.2-3.4-11.5-3.6c-3.2-0.1-6.7-1.4-9.3-3.4c-3-2.3-5.8-3.1-9.4-2.7c-4.1,0.4-8.1,0.9-12.2-2
		c-2-1.4-6.2-1.2-8.8-0.1c-8.9,3.8-10.7,15.6-3.5,22.4c2.6,2.4,5.5,4.7,8.5,6.5c4.7,2.8,7,1.9,10.4-4c-10.6,2.4-12.7-8.7-19.5-11.4
		c0.9-2.4,1.7-4.4,2.3-6.5c0.8-2.9,2.6-4.2,5.5-3.2c7.7,2.4,9.8,7,6.5,14.4c1.9,0.2,3.8,0.4,5.6,0.6c-0.3-0.3-0.6-0.6-0.9-0.9
		c2-2.7,3.5-6.7,6.1-7.6c2-0.7,6.3,1.8,7.9,4c1.3,1.9,0.3,5.5,0.3,9.1c0.8,0.2,2.7,0.7,3.3,0.9c2.8-3.8,4.6-8.7,7.3-9.3
		c5.4-1.2,6.3,4.7,8.4,8.2c-1.2,1.9-2.3,3.6-3.5,5.4c7.2,2.8,7.4,2.6,9-2.3c0.8-2.5,2.5-4.6,3.8-6.9c0.2,0.1,0.4,0.2,0.6,0.3
		C346,105.4,346.2,105,346.4,104.5z M372.3,145.1c-0.3,0.5-0.7,0.9-1,1.4c6,4.6,12,9.3,18.4,14.3c0-2.9,0-4.7,0-7.7
		c-1.1,2.1-1.6,3.2-1.9,3.7C381.7,154,378.7,147.1,372.3,145.1z M350.6,111.8c-0.9,3.6-1.5,5.7-1.8,7.9c-0.1,0.8,0.2,2.2,0.8,2.6
		c0.7,0.4,2.5,0.4,2.8,0c1-1.9,2.3-4.1,2.2-6.1C354.4,114.9,352.2,113.6,350.6,111.8z"/>
	<path d="M125.1,483.1c2.3,3.5,4.9,3.3,8.3,1.9c2.7-1.2,5.7-1.8,8.7-2.4c3.1-0.7,7.1-6.6,7.5-9.9c0.2-2,1.6-4.5,3.2-5.4
		c1.3-0.7,4.4-0.1,5.5,1c4,4.4,7.5,9.2,10.1,14.9c3.9,8.5,10.3,15.3,19,20.1c14.1,7.9,28.8,15.2,40.7,26.6c1.4,1.4,3.7,1.8,5.6,2.7
		c0.8-1.9,1.6-3.7,2.2-5c8-2,15.4,6.3,24.1,1.4c2.6,3,9.8,3,11.9-1c0.6,1,1.4,2.5,1.6,2.5c4-1.7,8.8-2.7,11.8-5.5
		c6.8-6.2,6.4-6.6,14.1-1.6c1.1-1.1,2.2-2.3,3.4-3.6c-2.6-1.6-3.2-6.6-8-4.7c0.5-4.1,6.4-9,11.2-8.8c0.4-1.2,0.9-2.5,1-2.7
		c6.4,0.4,12.3,0.8,17.9,1.2c0.3,2.4,0.7,5,1.1,8.5c2.4-1.6,4.2-2.8,6.4-4.3c0,1.3,0.3,2.3,0,2.8c-6.8,9-12.4,19.1-22.2,25.5
		c-2.6,1.7-4.6,4.2-7.1,6c-3.4,2.5-6.9,5-10.5,7c-5.6,3.1-11.2,6.3-17.1,8.5c-5.9,2.1-12.4,2.9-18.5,4.3c-4,1-7.9,2.3-12,3.2
		c-2.8,0.6-5.8,1.5-8.6,1.2c-6.6-0.8-13.1-2-19.5-3.7c-6-1.7-11.6-4.5-17.5-6.5c-11.5-3.8-20.5-11.7-30-18.8
		c-10.6-8-18.7-18.4-26.1-29.4C137.3,500.4,131.1,491.8,125.1,483.1z"/>
	<path d="M255,215.5c1.7,0.4,2,0.5,2,0.5c0.2,5.6,0.2,11.2,0.6,16.8c0.2,2,1.1,4.4,2.6,5.6c0.6,0.6,3.7-0.9,5-2.1
		c2.5-2.3,4.6-4.9,8.1-1.7c4.3-7.6,9.2-8.3,15.6-3c1.8,1.5,4.7,1.7,7.1,2.4c2.2,0.7,4.5,1.2,8,2.1c5.2-4.2-0.8-9.3-1.4-15.7
		c6.2,7.8,12.8,13.3,21.9,10.3c1.7-1.9,3-3.4,5.1-5.7c1.7,0,4.7,0,7.6,0c1,0,2.1,0.2,3-0.2c3.1-1.4,3.1-1.5,3.7,2
		c0,0.3,0.4,0.5,0.9,1c0.8-1,1.5-1.9,2.1-2.6c5.6,2.4,10.9,4.6,15.9,6.7c-1.9,1.5-1.8,3.1,1.5,4.3c2.4,0.9,4.9,1.6,7.1,2.9
		c1.2,0.8,1.8,2.5,2.8,4c-14.8,2.7-29.4-1.1-42.5,5.4c-2.9,0.5-5.9,1.7-8.8,1.5c-5.1-0.5-3.4,4.8-6.7,6c0.5-1.3,1-2.6,1.5-3.9
		c-0.2-0.4-0.4-0.8-0.6-1.2c-1.4,1.1-3.6,1.8-4.2,3.2c-1.1,2.4-0.3,4.6,2.9,5c5.4,0.6,10.7,1.4,16.1,1.9c12.8,1,24.7,4.5,35.7,11.2
		c1.6,1,3.6,2.3,4.3,3.9c1.5,3.9,3.8,3.1,7.3,1.2c-3.2,2.7-5.4,5-8,6.5c-1.2,0.7-3.4,0.1-5.1-0.2c-0.7-0.1-1.2-1.1-1.8-1.7
		c-8-7.7-10.9-8-20.9-3c-1.9,1-4.5,0.6-6.7,0.9c-3,0.4-6,0.9-10.1,1.6c2.3,3.3,3.9,5.7,5.2,7.5c-1,1.5-1.9,3-2.9,4.4
		c2,0.9,3.9,2.3,6,2.7c4.2,0.9,8.4,1.4,12.6,1.9c1.7,0.2,3.4,0.2,5.1,0.3c0.1,0.6,0.2,1.1,0.2,1.7c-4.3,1.1-8.6,2.4-12.9,3.2
		c-3.3,0.6-6.8-0.1-9.9,0.8c-3.3,1-6.9,2.8-9.2,5.3c-4.8,5.1-9.7,3.3-14.4,1c-8.5-4.2-17.6-7.7-23.3-16c-0.5-0.7-1.6-1.1-1.7-1.7
		c-0.3-3.7-1.8-6.3-4.7-8.7c-1.4-1.2-1.2-4.3-1.7-6.6c-0.1-0.5,0.1-1.2-0.2-1.4c-2.6-2.6-5-5.6-8.1-7.4c-3.7-2.2-4.7-4.4-1.9-7.7
		c0.5-0.6,1.3-1,1.9-1.5c4.3-3.6,4.6-6.3,0.6-10.1c-3.2-3.1-6.8-5.6-10.1-8.7c-2.9-2.8-4.3-5.9-3.2-10.4
		C255.3,225.5,254.8,220.6,255,215.5z"/>
	<path d="M238.9,226.5c-0.6,3.1-1.1,6.3-1.8,10c0.4,0.5,1.3,1.6,2.5,3c-3.4,6.4-7.2,12.4-14.2,15.5c-2.3,1-5.6,1.4-4,4.8
		c1.4,2.9,3.6,6.1,8.2,3.7c0.6,1.3,1.1,2.5,1.5,3.4c7.7,1.2,15.6-1.8,23.5,4.3c-7.3,1-13.3,1.9-19.3,2.7c-0.1,0.3-0.1,0.7-0.2,1
		c1.8,0.5,3.7,1.1,5.4,1.6c-3.5,3.2-7.3,3.4-8.6-1.4c-1.8,3.3-2.9,5.5-4.2,7.7c-0.6,1-1.4,1.9-2.1,2.8c-1-0.9-2.3-1.7-2.9-2.8
		c-1-1.8-1.1-5.1-2.3-5.4c-1.7-0.5-4.1,1-6.2,1.6c-2.6-4.5-8-5.6-13.5-4.3c-4.7,1.1-9.8,0.5-14.8,0.2c-5.2-0.3-10.4-2-15.4-1.3
		c-11.6,1.4-22.7-0.6-33.9-2.9c-3.4-0.7-7.1,0.5-10.7,0.8c-2.3,0.2-4.6,0.3-6.9,0.4c-0.3-0.7-0.6-1.3-0.9-2
		c3.4-2.8,6.4-6.3,10.2-8.1c8.9-4.4,18.7-4.9,28.5-4.5c6,0.2,11.9,0.1,17.9,0.1c5.7,0,11.5,0,17.6,0c-0.1-4.8-4.4-6-7.3-7.2
		c-6.9-2.8-14.1-4.8-21.4-6.7c-14-3.6-27.8-7.6-42.7-5.7c-3.3,0.4-7-1.5-10.3-2.9c-0.6-0.3-1-3.4-0.3-4.4
		c6.2-8.2,18.5-13.6,29.5-11.2c3.8,0.8,7.9,2.1,11.1-1.3c4.8,1.3,9.6,2.7,14.5,3.8c7.1,1.6,14.6,1.4,21.1,5.6c2.1,1.4,6,1.2,8.6,0.2
		c7.4-2.7,14.2-2.9,20.2,2.5c2.7,2.4,4.9,5.4,7.3,8.1c1.1,1.2,2,2.7,3.3,3.6c1.8,1.2,5.1,3,5.6,2.5c2-2.1,3.8-4.9,4.5-7.7
		c0.9-3.3,0.6-7,0.8-10.5C237.6,226.3,238.2,226.4,238.9,226.5z"/>
	<path d="M75.6,696.9c1.6,0.8,3.2,1.5,4.7,2.4c2,1.2,4,2.5,5.9,3.9c3.5,2.4,5.5,6.2,11.3,6c3.6-0.1,7.2,5.5,11,8.4
		c2.9,2.2,6,4.4,9.3,5.9c2.6,1.2,4.1,2.1,3.4,5.4c-0.4,2.2,0.5,4.6,0.9,7.5c3.5-1.2,6.9-2.2,10.2-3.3c4.3,3.6,9.4,7.8,13.9,11.6
		c-0.9,4.8-8.2,1.8-6.6,8c3.6,1.5,7.3,3,11.6,4.8c-2.6,0.3-5,0.6-7.4,0.9c-0.8-2.5-6.6-5.6-9.2-5.3c-4.4,0.5-8.9,0.7-13.6,1
		c-2.1,6.4-1.3,7.9,4.3,8.8c1.1,2.3,2,5.7,3.1,5.8c2.8,0.1,5.7-1.9,8.5-1.8c2.2,0.1,5.6,1.7,6.3,3.4c1.8,4.6,4.3,6.4,9.3,7.2
		c3.4,0.5,6.9,3.8,9.1,6.7c3.5,4.5,2.3,11.9-1.6,16.1c-1.6,1.7-2.8,3.7-4.4,5.3c-1,1-2.5,2.4-3.7,2.4c-5.4-0.3-11.4,0-15.6-4
		c-5.7-5.5-10.7-11.8-16.1-17.7c-1.5-1.6-3.6-3.4-0.6-5.1c1.2-0.7,3.4,0.6,5.2,0.9c-0.1,0.6-0.2,1.2-0.3,1.7
		c-1.2,0.2-2.4,0.3-4.7,0.7c1.7,1.4,3.3,3.2,3.9,2.9c5.3-2.5,7.7,2.3,11.5,4c3.4-4.7,6.9-9.4,9.9-13.5c-2.6-0.7-5.4-1.3-8.1-2
		c-3.9-1.1-6.7,1.5-5.8,5.3c0.2,1.1,0.2,2.2,0.3,3.4c-0.5,0.2-1.1,0.4-1.6,0.6c-1.2-3-2.4-6.1-3.8-9.1c-1-2-2.3-3.9-3.7-6.2
		c-2,2.7-8.1,0.1-7.3,6.6c-10.7-12.1-20.4-24.4-28.3-38.3c-2.9-5.2-8.1-9-12-13.7c-2.8-3.5-4.9-7.7-7.7-11.2c-4.1-5-8.5-9.9-13-14.5
		c-4.5-4.6-6.1-7.9-7.1-17.3c3.5,9.4,8.1,14.4,14.3,15.5c-2.1,6.6,3.3,8.3,7.2,11c1.1,0.8,2.4,1.5,3.2,2.6c1.8,2.3,3.1,4.4,6.8,3.2
		c1.3-0.4,3.5,1.7,6.7,3.4c-1.2-3.2-1.3-6.6-3.1-7.9c-3.3-2.5-6.4-6.1-11.9-4.8c-1.7,0.4-4.3-3.2-6.4-5.4c3.4,1.1,6.2,1.4,7.6-2.6
		c0.2-0.6,2.2-0.6,3.3-0.9C75.1,696,75.3,696.4,75.6,696.9z M110.1,749.6c5.4,18.8,5.4,18.8,10.9,18.2c-2-3-3.8-5.6-5.5-8.4
		c-0.4-0.6-0.5-1.6-0.3-2.3C117.2,751.9,116.7,751,110.1,749.6z"/>
	<path d="M245.5,386.3c5.2,0,9.7,0,14.7,0c0,2.3,0,3.8,0,5.9c1.9-0.8,3.4-1.4,5-2c0.2,0.2,0.3,0.5,0.5,0.7c-2,1.3-3.9,2.5-6.2,4
		c3.5,1.2,6.9,2.4,9.4,3.2c-1.7,3-3.3,5.8-5.1,9c5.2,1.3,9.8,2.8,14.5,3.7c3.7,0.7,5.8,1.9,4.5,6.1c-0.4,1.2,0.6,2.7,1,4.1
		c-7.9-0.6-9.5-1.5-11.2-7c-0.6,1.9-1.1,3.3-1.7,5.3c-4.8-1.4-9.4-3-14.2-4c-1.9-0.4-4,0-5.9,0.5c-2.3,0.6-4.5,1.9-6.8,2.7
		c-8.5,3.1-15.3-0.5-22-5.2c-1.1-0.7-2.3-1.7-3.5-1.7c-8.1,0.4-16.2,0.7-24.3,1.6c-2.6,0.3-5,2.3-7.5,3.5c-5.1,2.4-7.4,2-11.4-1.8
		c1.6-0.4,3.3-0.8,5.5-1.4c-3.5-2.1-6.2-3.8-10.1-6.2c4.2-2.4,6.7-4.3,9.5-5.4c6.9-2.9,14-5.5,21-8.2c2.7-1,5.3-2.2,8.6-3.6
		c-0.5-0.7-1.5-2.4-2.7-3.7c-2.7-2.9-5.8-5.3-8.2-8.4c-3.6-4.6-6-9.6-4-15.9c0.6-2.1-0.9-4.8-1.5-7.5c0.4,0.1,1.4,0.2,2.5,0.4
		c0.1-0.2,0.2-0.5,0.3-0.7c-1.8-1.2-3.6-2.3-5.8-3.8c0-4.7,4.1-6.5,7.9-8.5c4.6,4.9,14.2,3.9,17.4-1.9c0.4,0.2,0.8,0.3,1.2,0.5
		c-0.7,1.2-1,2.8-2,3.5c-4.1,2.9-8.5,5.4-12.6,8.3c-5.3,3.7-8.1,12.5-5.3,17.8c1.3,2.4,3.7,4.2,5.2,5.8c3.3-2.3,5.5-4.2,8-5.6
		c5.1-2.8,9.1-1.9,13.9,2.4c5.6,5.1,12.1,8.8,19.4,11.3c1-1.3,1.9-2.4,2.7-3.5c0.2,0.1,0.5,0.1,0.7,0.2
		C246.3,382.3,246,383.7,245.5,386.3z M256.2,414.1c4,0,6.7,0,10.2,0c0,0,0.7,1.3,1.7,3c3-9.1-6.8-2.7-7.3-7.1c0,0-0.5,0-1-0.1
		C259,410.9,258.1,411.9,256.2,414.1z"/>
	<path d="M189.1,425.9c2.6-1.2,5-2.6,7.7-3.4c6.1-1.8,12.3-2.7,18.5-0.7c4.1,1.4,8.1,3.9,12.3,4.4c6.3,0.7,12.7,0.3,19.1,0.1
		c4.5-0.1,9.1-1.5,13.4-0.7c10.9,2.1,21.7,5.2,32.5,7.8c1.4,0.3,3.2,0,4.6-0.5c5.9-2.1,12.2-3.3,17.4,0.3c4.1,2.8,7.2,7.3,9.8,11.6
		c0.6,1-2.3,4.2-3.8,6.7c0.8,0.3,2.1,0.9,3.5,1.5c0,0.5,0,0.9,0,1.4c-1.2,0-2.6,0.5-3.5-0.1c-5.6-3.7-11-7.7-16.6-11.4
		c-1.9-1.3-5-3.1-6.4-2.4c-5.8,2.7-11.6,0.1-17.3,0.7c-12.9,1.4-25.8,3.1-38.7,4.5c-2.5,0.3-5.2-0.6-7.8-1.1
		c-2.8-0.5-5.8-2.1-8.4-1.6c-7.2,1.2-13.3-2.7-19.9-3.5c-3.9-0.5-7.9,0-11.8-0.3c-4.2-0.3-8.4-0.9-12.6-1.3c-1.7-0.2-3.4,0-5.3,1
		c1,0.5,1.9,1,2.9,1.5c-0.1,0.4-0.2,0.8-0.2,1.2c-2.9-0.4-6.2-0.1-8.5-1.5c-3.2-2-5.2-5.1-0.9-8.6c1.6-1.3,2.5-3.8,4.2-4.8
		c1.5-0.9,4.4-1.4,5.6-0.5c2.7,1.9,4.7,2.8,7.5,0.5c0.6-0.5,2.2,0.3,3.3,0.6C189.5,426.7,189.3,426.3,189.1,425.9z"/>
	<path d="M341.6,407.9c-0.8-0.9-1.6-1.8-2.4-2.5c-3.4,0.1-3.1,7.6,0.2,9.6c0.8,0.5,1.7,0.9,2.6,1.4c-3.5,4.2-5.7,4-9.1,0.3
		c-5.3-6-11.1-11.5-16.3-17.5c-7-8.2-13.2-17-20.3-24.9c-7-7.8-12-16.7-16.1-26.3c-1.1-2.5-2.2-5.1-2.8-7.8c-0.2-0.9,0.9-2.5,1.9-3
		c0.8-0.4,2.6-0.1,3.3,0.6c6.3,5.8,12.7,11.5,18.5,17.8c6.6,7.2,12.7,14.8,18.8,22.4c6.1,7.7,11.9,15.7,17.8,23.5c1.5,2,3,4,4.4,6
		C342,407.6,341.8,407.8,341.6,407.9z"/>
	<path d="M260.9,471.4c-1.3,1.8-2.5,3.6-4,5.7c-0.6-1-1.2-1.9-1.7-2.8c-3.9,3.8-3.6,10,0.4,13.7c2.3,2.1,4,4.8,6.9,8.4
		c-8.2-1-14.9-2.3-21.7-2.4c-6.5-0.1-13.1,1.1-19.7,1.7c0-0.5,0-1,0-1.5c1.4,0.2,2.8,0.8,4.2,0.6c2.3-0.3,3.7-1.2,2-4
		c-0.9-1.4-1-3.3-1.4-4.8c-2.9-3.8-5.6-8-9-11.5c-1.6-1.7-4.5-2-6.4-2.8C227.1,464.4,244.3,466.1,260.9,471.4z"/>
	<path d="M95,703.2c-13.5-12.1-24.6-25.9-34.4-41.3c-5.5-8.6-8.3-17.9-12.4-26.8c-3.6-7.7-4.7-16.9-5.5-25.5
		c-0.6-6.3,1-12.9,1.7-19.3c0.1-0.9,0.2-2.3,0.9-2.7c6-4,11.9-8.1,18.2-11.6c2.7-1.5,6.3-1.4,9.9-1.1c-1.4,0.7-2.8,1.9-4.2,2
		c-8.4,0.5-13.1,6.9-18.3,12c-7.7,7.4-7.3,16.8-5.1,26.4c1,4.1,1.4,8.4,2.1,12.6c0.1,0.8,0.1,1.7,0.4,2.4c3.5,7.7,6.7,15.6,10.8,23
		c7.6,13.7,16.7,26.3,27,38.2c3.3,3.8,6.9,7.3,10.4,11C95.7,702.8,95.4,703,95,703.2z"/>
	<path d="M327.6,728.7c-1.5,3.2-2.7,5.7-4,8.6c4.4,1.3,8.8,2.6,13.1,4c0,0.4-0.1,0.8-0.1,1.1c-2.6-0.3-5.2-0.9-7.8-1
		c-5.2-0.1-10.4-0.3-15.5,0.3c-1.3,0.1-2.9,2.9-3.2,4.7c-0.4,2.4,0.2,5,0.4,8c3.2,1.2,7.5,2.8,11.7,4.3c-0.2,0.5-0.3,0.9-0.5,1.4
		c-3.8-0.7-7.6-1.6-11.4-1.8c-1.4-0.1-3.4,1.2-4.3,2.4c-2.5,3.7-4.6,7.8-7.3,12.6c-1.2-7.2,2.2-12,4.5-17c2.1-4.7,4.4-9.4,6.5-14.1
		c0.5-1.2,0.7-2.8,0.7-4.1c-0.1-5.3,0.6-10.1,4.8-14c1.4-1.3,1.7-3.6,2.7-5.8c2,1.7,3.6,3,5.8,4.9c-2.4-0.7-3.9-1.2-5.5-1.4
		c-0.2,0-1.2,2.7-0.8,3c1.9,1.5,4,2.8,6.1,3.7C324.8,729,326.4,728.7,327.6,728.7z"/>
	<path d="M398.9,604.8c-0.1-1-0.1-1.9-0.1-2.9c-0.1-3.2-0.1-6.5-0.1-9.7c0-2.5,0.4-5,0.1-7.4c-0.3-2.7-0.7-5.5-1.9-7.8
		c-3.1-6.2-7.3-11.2-14.7-12.7c-2.3-0.5-4.4-2.3-7.5-3.9c11.6-2.4,21.2,3.7,23.7,13.8c0.5,2,1.8,3.9,2.2,5.9
		c0.5,3.4,0.8,6.8,0.8,10.2c0,4.3-0.3,8.6-0.5,12.9c0,0.6-0.4,1.2-0.7,1.8C399.8,604.9,399.3,604.8,398.9,604.8z"/>
	<path d="M281.8,377.7c-1,0.6-2.1,1.1-2.8,1.9c-3.5,3.5-7.2,4.6-11.7,1.7c-1.8-1.2-4.3-1.2-6.1-2.3c-0.8-0.5-1.2-3.4-0.8-3.6
		c3.6-2.3,7.2-5,11.2-6c3.5-0.9,6.7,1.3,7.3,5.6c0.2,1.5,0.5,2.9,0.7,4.4C280.2,378.7,281,378.2,281.8,377.7z"/>
	<path d="M85.7,852.6c5.3-1.2,11.7,1.7,12.6,6.9c1.2-0.2,2.4-0.4,3.6-0.6c0,0.6-0.1,1.5-0.1,2.4c1.8,0,3.4,0,5.3,0
		c-2.2,1.7-4.1,3.2-6,4.6c-0.7-1.3-1.2-2.4-2-3.9c-1,2.5-1.8,4.4-2.5,6.1c-3.8-0.7,1.9-7.8-3.9-6C90.2,858.7,87.9,855.6,85.7,852.6z
		"/>
	<path d="M91.8,842.9c1.7-0.2,2.7-0.3,3.6-0.4c0.1,0,0.2,0.3,0.6,1.1c-2.3,0.5-4.3,1-7.7,1.8c3.7-5.2,1.4-7.7-2.1-10.2
		c-3.7-2.6-3.6-7.4-0.1-9.6c0.9-0.6,2.6-0.7,3.5-0.2c0.9,0.5,2.1,2.5,1.8,2.9C88.3,833.3,93.1,837.7,91.8,842.9z"/>
	<path d="M257.1,859.7c-5.6,11.6-10.9,22.7-16.3,33.8c-0.6-0.3-1.3-0.7-1.9-1C245.6,882.1,246.6,868.5,257.1,859.7z"/>
	<path d="M110.1,879c-0.4,0.8-0.9,1.7-1.3,2.4c-1.8-0.3-3.8-0.6-6-0.9c-0.1-1.3-0.7-3.6-0.6-5.8c0.1-1.6,0.9-3.2,1.4-4.8
		c1.9,1.2,4.2,2.2,5.5,3.9C110.3,875,109.9,877.2,110.1,879L110.1,879z"/>
	<path d="M161.8,387.1c1.3-1.1,2.7-2.2,4.7-3.8c0.8-2.4,1.9-6.1,3.1-9.7c0.9,0.4,1.5,0.8,2.2,1.1c0.6-1.8,1.2-3.5,1.9-5.4
		c2.4,4.8-4.7,16.6-11,18.9C162.4,387.7,162.1,387.4,161.8,387.1z"/>
	<path d="M22.3,732.3c-2.3,0.7-5.8,2-9.5,2.7c-1.6,0.3-3.4-0.4-6.8-0.9c6.1-3.4,14-2.8,13.2-12.8C21.8,725.9,16.7,732.1,22.3,732.3z
		"/>
	<path d="M41.2,674c-2.2-0.2-2.2-0.2-8-14.9c5.5,3.1,6.9,6.4,5.7,11.8C38.8,671.7,40.5,673,41.2,674z"/>
	<path d="M149,726.7c1.5,3.3,3.3,5.6,3.4,7.9c0.2,5.8-0.4,11.6-1.5,17.4c-0.2-5.3-0.3-10.7-0.6-16
		C150.1,733.5,149.6,730.9,149,726.7z"/>
	<path d="M322.7,467c-1.2-1.4-3.4-3.1-3.2-4.2c0.4-1.8,2.4-3.3,3.8-5c0.3,0.3,0.6,0.5,1,0.8c0,2.5,0,5.1,0,7.6
		C323.8,466.5,323.3,466.7,322.7,467z"/>
	<path d="M201.8,869.3c7.1-1.7,7.6,6.9,11.9,9.9C209.7,875.9,205.7,872.6,201.8,869.3z"/>
	<path d="M212.6,883.1c-3.6,1.4-7.3,2.8-10.9,4.2c-0.3-0.5-0.6-1-1-1.5c1-1.3,2-2.7,2.9-4c1.9,0.5,2.3,7.1,4.9,0.9
		c0.3-0.7,2.4-0.6,3.7-0.8C212.4,882.3,212.5,882.7,212.6,883.1z"/>
	<path d="M412.8,374.3c-3.7,1.9-6.9,3.8-10.6,1.1c-0.5-0.4-0.6-1.5-0.8-2.3c0.7-0.2,1.4-0.7,2.1-0.6
		C406.3,372.9,409.1,373.5,412.8,374.3z"/>
	<path d="M273,825.2c-2.3,4.9-4.6,9.7-6.8,14.6c-0.3-0.2-0.7-0.3-1-0.5c2.2-4.9,4.4-9.7,6.7-14.6C272.2,824.9,272.6,825,273,825.2z"
		/>
	<path d="M160.6,772.9c-2.5-4.6-5.1-9.2-7.6-13.8c0.5-0.2,0.9-0.5,1.4-0.7c2.3,4.7,4.5,9.4,6.8,14.1
		C160.9,772.5,160.7,772.7,160.6,772.9z"/>
	<path d="M14.1,768.6c3.4-1.5,6.7-3,10.1-4.5c0.2,0.5,0.5,1.1,0.7,1.6c-3.3,1.6-6.6,3.2-9.9,4.8C14.7,769.9,14.4,769.3,14.1,768.6z"
		/>
	<path d="M75.6,696.9c-0.2-0.4-0.5-0.9-0.7-1.3c-1.3-1.1-2.7-2.1-4.3-3.3c0.3-0.2,1.3-0.9,2.6-1.7c1.9,1.7,4.2,3.6,7.4,6.4
		C78.2,696.9,76.9,696.9,75.6,696.9z"/>
	<path d="M67.6,835.8c-3.9,1.3-7.9,2.6-11.8,3.9c-0.1-0.3-0.2-0.6-0.3-1c3.9-1.6,7.9-3.1,11.8-4.7C67.5,834.7,67.6,835.2,67.6,835.8
		z"/>
	<path d="M59.2,854.1c-4.2,1.8-8.4,3.5-12.6,5.3c-0.1-0.2-0.2-0.5-0.3-0.7c4.1-1.9,8.2-3.7,12.4-5.6C58.8,853.4,59,853.8,59.2,854.1
		z"/>
	<path d="M110.1,879c3,1.3,6,2.6,9.2,4c-2.4,0.9-4.1,1.5-5,1.8C112.8,882.7,111.5,880.9,110.1,879C110.1,879,110.1,879,110.1,879z"
		/>
	<path d="M30.7,744.5c2.5,2.4,5,4.7,7.6,7.1c-0.5,0.6-1.1,1.1-1.6,1.7c-2.1-2.6-4.2-5.3-6.4-7.9C30.4,745.1,30.6,744.8,30.7,744.5z"
		/>
	<path d="M84.6,844.5c-2.7-2.8-5.4-5.5-8-8.3c0.3-0.3,0.6-0.5,0.9-0.8c2.7,2.7,5.5,5.4,8.2,8.1C85.3,843.8,85,844.2,84.6,844.5z"/>
	<path d="M322.3,469.7c1.6,2.2,3.2,4.3,5,6.7c-2.1,0.3-2.1,0.3-6-5.8C321.6,470.3,322,470,322.3,469.7z"/>
	<path d="M37.4,798.2c1.9,0.3,3.9,0.5,6.7,0.9c0,0.4,0.2,1.7,0.5,4.1c-3.2-1.7-5.4-2.9-7.6-4C37.2,798.9,37.3,798.5,37.4,798.2z"/>
	<path d="M168.7,441.3c-3.5,2.2-5.8,3.7-7.8,5c0.5-1.2,1.2-3.1,1.9-5C164.4,441.3,166,441.3,168.7,441.3z"/>
	<path d="M291.7,867.2c-2.8-3.2-5.3-6-7.3-8.4C289.2,858,289.6,863.1,291.7,867.2z"/>
	<path d="M372.5,253.9c-4.6-2.7-1.2-4.9,1.1-7.1C373.2,249.2,372.8,251.6,372.5,253.9z"/>
</g>
</svg>
