<?xml version="1.0" encoding="utf-8"?>
<!-- Generator: Adobe Illustrator 20.0.0, SVG Export Plug-In . SVG Version: 6.00 Build 0)  -->
<svg version="1.1" id="Слой_1" xmlns="http://www.w3.org/2000/svg" xmlns:xlink="http://www.w3.org/1999/xlink" x="0px" y="0px"
	 viewBox="0 0 539 943" style="enable-background:new 0 0 539 943;" xml:space="preserve">
<g>
	<path d="M39.7,771.1c-0.8-0.6-1.4-1.2-2-1.8c-0.6,0.7-1.3,1.5-2,2.2c1.9,2.9,3.9,5.8,5.9,8.6c4.4,5.4,9,10.6,13.7,15.8
		c19.2,21,40.3,40.3,62.4,58.3c-2.4-2.5-4.7-5-7.1-7.5c-9.2-9.6-15.2-21.9-25.4-30.7c-4.9-4.3-8.5-10-13.1-14.8
		c-5.1-5.3-10.7-10.2-16.1-15.2C50.6,781,45.6,775.5,39.7,771.1z"/>
	<path d="M208,903.4c-1.2-0.7-2.4-1.4-3.7-2c-5.1-2.1-10.9-2.6-15-7.2c-1.1-1.3-3.4-1.5-5.6-1.5c3.4,5,8.8,6.9,14.6,8.1
		c-0.1,0.5-0.2,1-0.4,1.4c-2.7-0.2-5.7,0.4-7.9-0.8c-12.6-6.4-25.8-12-35.5-23.1c-2.1-2.4-4.7-4.4-7.1-6.5c0.3-0.3,0.7-0.7,1-1
		c3.8,3.2,7.6,6.4,11.4,9.6c-4.2-9-11.8-14.8-18.8-21.2c-7.4-6.7-15.1-13.1-22-20.3c-10.6-11-20.4-22.8-30.9-33.8
		c-5-5.3-11.1-9.6-16.4-14.7c-6.1-5.9-11.7-12.2-17.1-17.9c1.4-3.4,2.5-6.3,4.2-10.3c-2,0-3.9,0.1-5.7,0c-2.4-0.1-5.1-4.2-3.9-6.2
		c0.6-1,3.1-2.1,3.8-1.6c3.2,1.9,5.2-0.2,7.9-1.2c2.9-1.1,6.5-1,9.5-0.4c3,0.6,3,4,2.5,6.4c-0.5,2-2.3,3.7-3.9,6.2
		c2.4,0.2,4.6,0.3,6.8,0.5c-0.1-2.8-0.3-5.6-0.4-8.1c1.3-0.2,3.3-0.4,5.3-0.6c-0.4-0.9-0.8-1.8-1.1-2.5c5.4-1.5,10,0.4,13.5,5.5
		c0.4-0.4,0.7-0.9,1.1-1.3c-0.5-0.8-0.9-1.8-1.5-2.5c-1.4-1.5-4.1-2.7-4.3-4.3c-0.7-6.9-4.1-3.8-7.6-2.7c1.5-2.7,3.1-5.2,6.8-4.9
		c9.6,0.8,8.2,8.4,8.7,15.5c-1.6,0.3-3.4,0.7-5.2,1.1c-0.4-0.5-0.8-1-1.3-1.4c-0.2,2.3-0.4,4.5-0.6,7.6c4.7-3.1,8.6-0.7,10.1,2.4
		c1.3,2.8,5.9,6.3,2.3,9.3c1.9,3.9,3.3,7.5,5.3,10.6c3.7,6,7.1,12.4,11.8,17.7c10.8,12.2,22.2,23.8,33.4,35.6
		c1.4,1.5,3.4,2.4,6.3,4.5c-1.1-2.3-1.6-3.2-2.1-4.2c0.4-0.2,0.8-0.3,1.2-0.5c0.6,1.7,0.8,3.6,1.8,4.9c0.9,1.2,2.7,1.6,3.9,2.6
		c5.9,4.8,11.7,9.8,18.4,15.4c-0.5-2.1-0.7-3.1-0.7-3.3c8.3,5.4,16.9,11,25.6,16.6c0.1-0.5,0.2-0.9,0.3-1.4c2,0.4,4.1,0.6,5.9,1.3
		c0.9,0.3,1.3,2.1,2.2,2.4c10.4,3.2,20.9,5.9,31.2,9.3c12.6,4.2,25.6,5.3,38.7,5.9c0.6,0,1.2,0.5,1.9,0.8c-2.2,1.1-4.1,2.1-6.7,3.3
		c-0.3-0.3-1.1-1.3-2-2.3c-0.4,0.1-0.7,0.2-1.1,0.3c0.4,1.6,0.7,3.2,1.1,4.8C254.7,903.4,231.3,903.4,208,903.4z M72.4,780.1
		c1.7-2.2,3.7-4.2,3.4-4.6c-1.1-1.7-3-3.8-4.6-3.9c-1.7-0.1-3.5,2-5.3,3.2C67.8,776.3,69.7,777.9,72.4,780.1z M62.1,755.8
		c1.9,2.6,1.6,7.2,7.6,6.2c0-2.7,0-5.6,0-9.1C66.3,754.2,64.3,755,62.1,755.8z M87.5,767.2c-4.9,2.6-4.8,6.6-4.1,12.6
		c3.1-2.3,5.2-3.9,7.4-5.6C84.9,774.4,84.9,774.4,87.5,767.2z M66.3,771.1c-1.6-3.3-2.9-6-4.8-9.9c-0.8,3.6-2.2,6.4-1.4,8.3
		C60.6,770.8,64.4,770.7,66.3,771.1z"/>
	<path d="M262.7,115c-1.1-1.9-2.2-3.8-3.7-6.5c-0.8,1.8-1.3,2.9-1.9,4.3c-1.7-6.4-8.8-7.2-13.8-6.3c-11.9,1.9-16.6,11-20.3,20.9
		c-0.2,0.6-0.7,1.1-1.1,1.8c-0.6-0.5-1.2-0.8-1.6-1.2c-0.7-0.7-1.3-1.5-1.2-1.3c0.7-4.6,1.2-8.4,1.7-11.6c-3.7,1.7-7.4,3.4-10.9,5
		c1.6-4.8,3.1-9.3,4.6-14c-7.8,1.3-12.2,4.3-12.9,13c-0.4,4.7-2.4,9.2-3.7,13.8c-0.7-0.2-1.3-0.3-2-0.5c1.6-7.4,3.3-14.8,5.1-23.1
		c-2.3,0.9-4.4,1.8-7.1,3c0.5-1.5,0.9-2.4,1.2-3.2c-2.2,0-4.8,0-7.3,0c0.3,0.3,0.7,0.6,1,0.8c-1,1.4-1.9,2.8-2.9,4.2
		c-0.7-0.7-1.4-1.4-2.1-2c0.3-3,0.6-6,0.9-9.7c-7.5,0.3-12.8,6-19.3,8.4c-6.9,2.5-11.8,6.9-17.7,11.1c0.5-3,1-5.4,1.1-7.8
		c0-0.5-1.8-1-3.4-1.9c-2.6,21.7-17,38.4-21.9,60c1.1,1.9,0.8,4.8-0.8,8.7c-2,4.8-2.1,10.6-2.4,16c-0.2,4.4,0.9,8.9,0.6,13.4
		c-0.3,5.4-1.2,10.7-2.2,16c-0.9,4.5-2.7,8.8-3.4,13.3c-0.6,3.7-0.1,7.6-0.2,11.5c-0.3,13.9-0.3,27.8-1.2,41.7
		c-0.4,7.1,1.2,13.9,1.8,20.8c0.6,7.3-1.4,14.8-2,22.3c-0.3,4-0.3,8.1-0.2,12.2c0.1,7.8-0.3,8.2-8.9,7c1.5,3.2,2.2,6.6,4.2,8.7
		c5,5.4,5.5,11.1,3.6,18c-1.3,4.6-1,9.7-1.3,14.1c-1.8-1.8-4.2-4-5.9-5.6c0.8-1.9,1.9-3.4,2-5.1c0.4-4.6,2.1-10.1,0.2-13.6
		c-2.6-4.7-2-10.8-7.2-14.6c-4.2-3.1-7.2-7.9-11-11.6c-2.4-2.3-5.4-4-7.9-5.8c0.8-2.8,1.6-6,2.6-9.8c-6.8,1.2-10.3,4.6-13.7,9.8
		c0-1.4-0.6-3.2,0.1-4.3c2.7-4.2,3.9-10,10.6-10.3c0.3,0,1.1-2.7,0.7-3.2c-4.3-4.4-3.6-9.6-3.4-15c0.1-4.5-1.4-9-2-13.5
		c-0.2-1.7-0.2-3.5,0-5.1c0.5-3.3,0.9-6.5,0.4-10c-1-6.6-0.6-13.4-1.3-20.1C74,247,72,236.5,71.5,226c-0.2-4.6,1.7-9.5,3.5-13.8
		c2.9-6.9,4.9-13.8,4.3-21.4c-0.1-0.9,0.4-1.9,0.8-2.8c3.4-7.4,6.4-15,10.2-22.2c4-7.6,8.4-15,13.3-22.1c2.3-3.4,0.5-7.1,2.4-10.4
		c3.6-6.3,6.7-12.8,10-19.3c0.7-1.3,1.1-2.9,2-4c2.3-2.8,4.5-5.8,7.2-8.1c6.1-4.9,12.7-9,18.6-14c4.1-3.5,7.4-8,11.2-11.9
		c1.1-1.2,2.7-1.9,3.2-2.2c1.4,2.1,2.3,3.5,2.9,4.4c6.3-5.4,12.1-10.7,18.3-15.6c3.8-3.1,8.1-5.6,12.2-8.2c2-1.3,3.7-2.1,6.6-0.5
		c1.8,1,5.6-1.1,8.2-2.4c4.3-2.2,8.3-5.2,12.6-7.3c2.1-1,4.7-0.6,7.1-1.2c2.8-0.7,6-1.1,8.3-2.7c3.7-2.8,7.7-4.2,12.1-4.7
		c1.3-0.1,2.6-0.5,3.7-1.1c6.6-3.6,13.3-5.4,20.8-2.6c1,0.4,2.6-1.1,4.1-1.7c1.2,1.8,2.7,3.9,4.4,6.5c0.2-2.6,0.5-4.7,0.8-8
		c2.9,4.9,3.8,1.8,4.9-0.7c0.2,0.6,0.4,1.3,0.5,1.9c2-0.4,4.1-1.1,6.1-1.2c5.6-0.1,11.5-1.2,16.6,0.4c8.3,2.6,16.3,4.4,25.1,4.9
		c8,0.4,16.1,3.7,23.8,6.5c7.7,2.9,15.1,6.6,22.4,10.4c6.7,3.5,12.8,7.9,19.6,11.2c8.1,4,15,8.9,21,15.8c5.1,5.9,11.6,10.6,18,15.2
		c6.8,4.9,11.9,11.2,16.5,18c7.8,11.7,15.9,23.2,23.2,35.3c3.7,6.2,6.1,13.2,8.9,19.9c2.1,5,4.3,10.1,5.9,15.3
		c2.3,7.5,3.6,15.5,6.4,22.8c1.5,4,2.3,6.2-0.7,10c-1.5,1.9-0.6,6.7,0.6,9.5c2.7,6.2,1.2,12.3,0.8,18.5c-0.3,4.9,0.5,9.9,0.7,14.9
		c0.1,2.3,0.1,4.7,0.2,7c0.6,10.4,1.4,20.7,1.8,31.1c0.3,8.1,2.7,16.3-0.7,24.4c-0.6,1.3-0.5,3.9,0.4,4.7c6.2,5.5,1.3,10.7-0.9,15.3
		c-1.8,3.9-5.7,7-8.8,10.3c-0.4,0.5-1.5,0.4-2.3,0.6c0.4-2.1,0.7-3.8,1-5.3c0.9-0.2,2.8-0.2,2.9-0.7c1.1-5.3,1.2-5.2,5.8-8.7
		c1.2-0.9,2-2.7,2.2-4.1c0.1-0.6-2.1-1.5-3.4-2.1c-0.8-0.4-1.8-0.5-3.3-0.8c4.1,5.1-2.2,6.2-3.2,9.6c-0.8,2.8-4.7,4.3-3.1,8.5
		c0.5,1.2-4.2,3.8-4.1,5.7c0.2,4.7-3.3,5.7-5.9,7.8c-0.7,0.5-1.8,0.4-3.6,0.8c1.9-2.6,1.2-7.3,5.7-3.9c0.7-3.1,1.4-6.1,2.4-10.3
		c-3,2.1-5.2,3.9-7.7,5.3c-1,0.5-3.4,0.5-3.6,0c-1-2.4-1.8-5-2-7.6c-0.1-3,0.8-6.1,0.7-9.2c-0.1-2.9-1.2-5.8-1.2-8.7
		c-0.1-2.7,0.7-5.5,1-8.3c0.1-1.1,0.3-2.6-0.3-3.4c-1.8-2.5-0.1-4.7,0.1-7.1c0.4-4,2.7-3.3,5.2-3.3c0.7,0,2-1.4,1.8-1.7
		c-0.3-1-1.1-2.3-2-2.7c-6.1-3-6.2-3.2-3.1-8.7c-4.7-5.5-2.7-12.1-2.7-18.5c0-4.9-0.6-9.7-0.9-14.6c0-0.8-0.2-2,0.2-2.3
		c5.2-4,2.4-7.5,0.2-9.8c0.6-3.1,0.9-5.3,1.4-7.5c0.2-0.9,0.5-2.3,1.1-2.6c4.4-2.1,3.1-7.1,5.5-10.3c0.6-0.8-1.3-3.6-2.3-5.9
		c-1.8,3.3-3,5.8-4.3,8.2c-0.4-0.2-0.8-0.4-1.2-0.6c0.4-2.5,0.6-5,1.1-7.4c0.5-2.9-0.4-4.7-3-6.3c-4.1-2.4-4.2-6.7-2.3-11.1
		c1.4-3.2,2.9-6.7-0.8-10.5c-2.6-2.7-4.3-7.4-4.5-11.3c-0.2-6.2-3.7-10.8-5.7-16.1c-1.3-3.6-6.9-6.4-1.7-11c0.3-0.2-0.1-1.6-0.6-2.2
		c-5-6.7-9.9-13.5-15.1-20.1c-1.6-2.1-2.7-5.3-6.9-4.3c-1.1,0.3-3-2.2-4.3-3.6c-5.5-6.2-12.8-9-20.4-11.2c-2.5,4.6-7.2,3.9-10.4,2.9
		c-7.5-2.2-14.6,0.8-21.8,0.4c-5-0.3-10.1-1-15-2.3c-4-1-7.7-3.1-11.1-4.5c-2-2.6-4-5.2-5.9-7.9c-0.6,0.3-1.2,0.7-1.7,1
		c0.8,3,1.6,6,2.7,9.8c-3.2-2.1-5.7-3.7-8.2-5.3c-3.9,6.3-5,6.5-10.6,2.4c-0.5-0.4-1.5-0.1-2.2-0.2c0,0.9-0.5,2.2-0.1,2.7
		c2.2,2.8,4.8,5.5,7.1,8.3c2.5,3.1,5.8,5.9,5.2,11.6c-6.8-6.2-8.7-16.8-20.4-17.2c2.7,4.3,5.2,8.2,7.7,12.2
		c-0.1,0.2-0.3,0.5-0.4,0.7c-3.8-3.1-7.6-6.3-11.4-9.5c-1.2-1.1-2.4-2.3-3.3-3.7c-3-4.5-5.8-9.1-8.7-13.7c-2.4-3.8-4.8-7.6-7.4-11.1
		c-0.6-0.8-2.5-0.7-3.8-1c-0.1,1.3-0.7,3.3-0.1,3.8c6.5,5.6,8,14.2,12.6,20.9c1.2,1.8,2.4,3.7,4.1,6.1c-1.7-0.7-3-1.3-4.4-1.7
		c-2.9-0.7-5.9-1.6-8.8-1.5c-2.6,0.1-5.1,1.5-7.7,2.2c-5.8,1.6-7.5,0.7-10-4.7c-0.5,1-1,2-1.1,2C267.4,114.9,265,114.9,262.7,115
		L262.7,115z M482.8,254.6c0.2,2.7,0.3,5,0.4,7.3c0.2,0,0.4,0,0.6,0c0.3-1.2,0.6-2.3,0.9-3.5c0.4,0,0.8,0.1,1.3,0.1
		c0,5.1-1.2,10.7,0.3,15.3c1.6,4.7,0.3,9.5,2.9,14.2c-1.4-0.6-2.1-1-4.1-1.8c3.1,4.3,1.4,6.1-2.3,7.5c1.6,0.7,3.3,1.3,5.1,2.1
		c-0.2-1.6-0.3-2.6-0.5-4.5c3.2,2.3,5.7,4,8.1,5.8c1.5-3.3,0.2-9.9-2-9.7c-4.2,0.4-3.5-2.4-3.6-4.4c-0.2-6.1-0.5-12.2,0.1-18.3
		c0.5-5.1-0.4-8.1-5.8-7.9c-1.6-4.3-3-8.3-4.1-11.4c-0.8,2.3-1.9,5.6-3,8.7C479.2,254.2,481,254.4,482.8,254.6z M279.7,53.7
		c0.2,0.3,0.4,0.6,0.7,0.9c7.3-6.8,14.5-13.5,22.5-21c-4.7,1.2-8.8,2.2-12.9,3.3c0.1,0.4,0.2,0.8,0.3,1.3c0.8,0,1.6,0.1,2.3,0.1
		c-10.8,2.2-14.8,10.6-18.9,19.6c1.9,0.6,3.2,0.9,4.9,1.4C279.1,57.2,279.4,55.5,279.7,53.7z M243.3,54.8c-2.4,6.1-4.8,12-7.2,18.1
		c4.1,1.5,6.7,0.8,5.8-2.7c-1-3.8-0.2-6.6,2.2-9.3c3.6-4,7.5-7.6,10.8-11.9c1.8-2.3,2.4-5.5,3.6-8.3c-3.4,0.5-12.3,10.9-12.9,15.2
		C244.9,55.5,244.2,55.2,243.3,54.8z M235.9,93.8c0.6,0.4,1.1,0.8,1.7,1.3c4-5.5,8.3-10.9,11.9-16.6c2.4-3.9,0.8-5.9-3-5.7
		C242.8,80,239.4,86.9,235.9,93.8z M469,197.9c-0.3,0.6-0.7,1.1-1,1.7c1.1,1,2.1,2,3.5,3.3c-1.6,0.6-2.5,1-3.7,1.5
		c1.5,1.1,2.7,1.9,3.7,2.5c0.7-0.9,1.3-1.7,1.9-2.5c0.4,0.6,1.3,1.5,1.2,1.7c-3.7,4.7,1.4,5.5,3.6,8.8c-0.1-2.4,0.3-4-0.4-4.9
		c-1.6-2.2-1.8-2.6,0-3.8C474.8,203.5,471.9,200.7,469,197.9z M482.8,184.8c0.8-4,0.4-6.7-3.5-6.6c-1.1,0-2.9,2.6-2.8,3.9
		C476.8,187.1,480.6,183.8,482.8,184.8z M227.2,83.9c-0.6,0.4-1.2,0.9-1.9,1.3c0.5,2.4,1,4.8,1.5,7.2c1.7-1.5,3.4-3,5.2-4.4
		C230.4,86.6,228.8,85.3,227.2,83.9z M305.6,92.4c2,6.2,3.7,11.5,5.4,16.9C310.2,103.6,311.6,97.2,305.6,92.4z M312.1,62
		c3.8-2.2,6.6-4,9.5-5.7c-0.1-0.5-0.2-0.9-0.3-1.4c-2.4,2.2-4.8,4.5-4.9-1c-0.5-0.1-1-0.2-1.5-0.3C314.1,56.3,313.2,59,312.1,62z
		 M485,207.6c-2.6,2.8,1.9,6.3,1,9.8c1.4-2.6,2.6-4.9,3.8-7.3c-1.2,1.3-2.5,2.5-3.7,3.8C485.8,212.2,485.5,210.5,485,207.6z"/>
	<path d="M375.6,491.9c-2.8,0.3-5.6,0.5-8.4,0.8c-0.2,0.4-0.4,0.9-0.7,1.3c2.4,1.3,4.7,2.5,7.2,3.8c-0.4,0.4-1.9,1.7-3.6,3.2
		c-2.6-2.2-5-5.2-8.1-6.6c-6.3-2.8-12.8-5.9-19.5-6.8c-6.9-1-14.3,0.8-21.4,0.5c-10.6-0.4-21.2,3-31.9,0.3c-2.5-0.6-5.3,0-7.9-0.2
		c-8.6-0.6-17.2-1.9-25.7-1.7c-5.9,0.1-11.9,2-17.7,3.3c-4.5,1-9,3-13.5,3.3c-3.4,0.2-7-1.6-11.1-2.7c5.1-6.7,11.5-9.3,18.2-9.3
		c8.8-0.1,16.1-3.2,23.4-7.7c5.7-3.6,12.2-6,18.3-8.8c4.1-1.9,8.1-1.2,11.9,0.9c3.1,1.7,6,3.9,9.3,4.8c2.2,0.6,5.4,0,7.4-1.3
		c10.5-7.1,14.1-3.3,23,1.9c7.5,4.4,15.1,8.9,23.1,12.3c5.1,2.2,11.1,2.2,16.6,3.4c3.8,0.9,7.5,2.3,11.2,3.5
		C375.7,490.7,375.7,491.3,375.6,491.9z"/>
	<path d="M143.6,291.8c1.1-0.2,2.2-0.5,3.3-0.7c-2.7-5.9,2-9.6,4.5-13.1c4-5.8,9.5-10.5,14.3-15.6c0.4,0.2,0.9,0.4,1.3,0.6
		c0,2.6,0,5.2,0,8.1c4.4,1.7,6.3-2.6,9.1-4.5c3.9-2.7,6.7-7.8,12.4-7c6.6,0.9,12.9,0.4,19.6-0.5c7.1-0.9,14.8,1.8,22.2,3.2
		c3.6,0.7,7.6,3.7,10.6,2.8c3.5-1.1,5.5,0.1,8.2,1.1c3.9,1.4,4.3,3.4,2,6.5c-1.4-0.2-3-1-4-0.5c-11.4,6-23.6,5.3-35.9,4.9
		c-15.3-0.5-30.5-0.3-44.8,6.1c-6,2.7-11.7,5.9-17.7,8.8c-1.5,0.7-3.2,0.9-4.8,1.4C143.9,292.9,143.8,292.3,143.6,291.8z"/>
	<path d="M441.1,288.2c0-2.2,0-4.2,0-5.9c-4.7-0.3-9.2-1.4-13.1-0.5c-5.7,1.4-9.7-1.9-13.6-4.1c-7-3.9-14.3-4-21.9-4.6
		c-13.4-1.1-26,5.5-39.5,3.3c-4.8-0.8-9.7-1.4-13-1.8c-1.6-2.6-2.5-4-3.4-5.4c4.9-2.7,4.9-2.9-0.5-7.1c3,0.2,4.9,0.9,6.3,0.4
		c7.1-2.9,14.6,1.7,21.9-2.5c4.4-2.5,10.5-2.2,15.9-2.7c1.4-0.1,3,1.5,4.3,2.3c3.5-1.4,7.7-3.1,11.8-4.7c0.5-0.2,1.5,0,1.8,0.4
		c3.9,4.6,9.2,3.1,14.2,3.8c4.4,0.6,8.4,4,12.4,6.6c6,3.9,12.2,7.4,16.5,13.5c2,2.8,3.1,5.3,1.5,8.4
		C442.5,288,441.4,288,441.1,288.2z"/>
	<path d="M221,314.9c3.6-1.2,7.1-2.5,10.7-3.7c-0.1-4.9-3.9-10.5-8.2-12.1c0.9,6.6-0.7,12.3-6.5,16.2c-6,3.9-12.3,4.6-18.1,0
		c-2.2-1.8-3.1-5.2-4.9-7.7c-1-1.3-3-3.3-4-3c-2.3,0.7-4.8,2.2-5.9,4.2c-0.6,1,1.3,4,2.7,5.5c1.3,1.4,3.5,2,4.8,4.1
		c-1.6-0.3-3.6-0.2-4.7-1.1c-4.2-3.5-7.7-1.7-11.4,0.8c-2.5,1.6-4.9,3.3-7.6,4.4c-2,0.8-4.4,0.5-6.6,0.7c0-2.5-0.8-5.5,0.3-7.3
		c2.6-4.2,5.9-8.1,9.4-11.6c1.8-1.8,4.8-2.2,7.2-3.4c4.1-2,8.1-4.1,12.2-6.2c0.9-0.4,1.7-0.9,2.7-1.1c12-2.3,24.1-1,34.9,3.6
		c7,3,15.2,5.6,20.3,12.4c1,1.3,1.7,2.7,3.4,5.4c-10.9,0.7-20.6,1.3-30.4,1.9C221.2,316.2,221.1,315.6,221,314.9z"/>
	<path d="M367.7,316.7c-1.3,0.5-2.7,1.5-4,1.5c-8.2,0.1-16.3,0.1-24.5,0.1c-2.3-9.1,5.9-10.8,10.4-14.5c4.3-3.6,9.8-5.9,15.1-8.1
		c3.7-1.5,7.8-2.5,11.8-2.8c8.1-0.5,16.4-0.9,23.3,4.7c3.1,2.5,6,5.4,8.9,8.2c4.4,4.3,8.7,8.5,12.9,13c1.6,1.7,2.7,3.8,4,5.7
		c-0.4,0.3-0.8,0.6-1.3,1c-1.3-1.4-2.5-2.7-3.8-4.1c-6.6-7.1-7.1-7.2-16.5-3.2c-1.4,0.6-2.9,1-4.4,1.4c-0.2-0.4-0.3-0.7-0.5-1.1
		c2.5-1.4,5.1-2.9,7.6-4.3c-1-6.5-7.3-12.7-12.5-12.9c-3.7-0.1-5.5,2-3.7,4.8c2.4,3.8,1.5,6.5-1.1,9.3c-3.3,3.6-7.2,5.7-12.2,4.4
		c-3.2-0.8-6.3-2-9.5-3.1c-2.1-4.6-4.2-9.2-6.7-14.8c-2.8,3.2-4.8,5.5-6.6,7.5C358.8,311.9,363.3,314.3,367.7,316.7z"/>
	<path d="M488.1,720.5c0-0.9,0-1.8,0-2.7c-2-1.8-3.7-3.8-4.8-6.4c-0.3-0.6-1.2-0.9-1.7-1.3c1,3.5,2,6.7,3,10.1
		C485.9,720.3,487.1,720.3,488.1,720.5z"/>
	<path d="M63.6,719.2c2.6-1.7,5.3-3.3,7.9-5c3.7-2.4,6.8-5.8,10.2-8.7l-0.5-0.7c-2.7,1.5-5.3,3-8,4.4c-3,1.5-6,3-9,4.5
		C64,715.5,63.8,717.3,63.6,719.2z"/>
	<path d="M342.4,415.7c-1.9,2.1-3.8,4.3-5.7,6.4c-3.3,3.7-6.8,3.6-9.6-0.6c-2.9-4.5-5.1-9.5-10.8-11.3c-0.4-0.1-0.8-0.6-1.1-1
		c-2.2-2.9-6.1-5.6-3.4-9.7c2.9-4.3,12.1-5.9,15.4-2.8c2.7,2.5,5.1,5.6,6.9,8.9c2.2,4-1.3,12.8-5.5,14.8c2.9,4.6,4.8,1.4,7-0.7
		c1.9-1.8,4-3.4,6-5.1C342,414.9,342.2,415.3,342.4,415.7z"/>
	<path d="M305.9,596.8c3.1,1.6,6.2,3,9.2,4.8c1,0.6,2.1,1.7,2.3,2.8c0.1,0.8-0.9,2.5-1.7,2.7c-3.4,0.7-6.9,1.3-10.3,1.2
		c-5.3-0.1-10.5-1-15.8-1.3c-2.5-0.2-5,0.4-7.4,0.3c-7.3-0.2-14.7-0.4-22-0.8c-3.6-0.2-7.2-0.8-11-1.2c0.5-0.7,1.2-1.9,1.6-2.5
		c5.3,0.6,10.3,1.9,15.2,1.4c2.3-0.2,4.4-3,7.7-2.8c6.5,0.4,13,0.4,19.5-0.2c4.4-0.4,8.6-2,13-3.1
		C306.2,597.6,306.1,597.2,305.9,596.8z"/>
	<path d="M425.7,312.8c-5-5.8-9.5-12.1-15.2-17.1c-3.5-3.1-8.6-5.4-13.2-6.1c-10.1-1.5-20.4-2.2-30.6-2.4c-5.8-0.1-10,3.7-12.8,8.7
		c-1.3,2.3-2.3,4.3-5.8,3.7c-1.9-0.3-4.2,1.7-6.6,2.8c4-9.9,17.3-18.7,27.2-19c11.8-0.3,23.2,2.3,34.5,5.2
		c6.7,1.7,11.5,6.3,15.7,11.4c3,3.7,5.4,7.9,8,11.8C426.4,312.2,426,312.5,425.7,312.8z"/>
	<path d="M287.8,403.4c0,0.4,0.1,0.5,0.1,0.7c-0.3,3-12.5,8.9-15.2,7.4c-2.4-1.4-4.6-3.1-7.2-4c-3.3-1.2-3.1-3.9-2-5.5
		c2.8-4.1,6.9-7.2,12-7.2c5-0.1,8.9,2.8,11.7,7C287.6,402.2,287.6,403,287.8,403.4z"/>
	<path d="M437.6,685.9c6.2-3.1,8.9-1.9,13.2,3c7.1,8.1,12.1,16.9,10.7,28.5c-1.5-3.9-2.7-7.9-4.7-11.5c-2.2-3.9-4.8-7.8-7.9-11
		C445.7,691.6,441.7,689.1,437.6,685.9z"/>
	<path d="M244.4,325.2c1.7,1.1,2.7,1.7,4.3,2.7c0-2,0-3.5,0-3.6c3.2-2.2,6.1-3.7,8.3-5.9c2.2-2.1,3.8-3.6,6.3,0
		c1.9-3.4,3.3-6,4.8-8.7c0.4,0.3,0.9,0.6,1.3,0.9c-1,7.3-6.7,11.6-11.5,16c-4.5,4.1-10.5,6.4-15.8,9.5c-0.2-0.4-0.5-0.8-0.7-1.2
		c1.1-0.9,2.3-1.8,3.8-3c-1.2-0.9-2.1-1.6-3.9-2.8c1.9,0,2.9,0,4,0C245,327.9,244.8,326.9,244.4,325.2z"/>
	<path d="M477.7,369.5c-5.4,2.8-1.6,5.1-1,7.2c0.8,2.5,3.3,4.9,3.2,7.3c0,4.2,1,9.7-5.5,11c-0.6,0.1-0.9,1.5-2,3.4
		c0-5.5,0.4-9.9-0.1-14.1c-0.3-2.5-2.2-4.8-3-7.4C467.8,371.7,470,369.3,477.7,369.5z"/>
	<path d="M352.7,335.3c-5.3,4.5-7.6-0.9-11.2-2c-5.9-1.8-0.3-7.3-3.5-10c2.1,1.4,4.3,2.7,6.4,4.1c0.2-0.2,0.5-0.5,0.7-0.7
		c-1.2-1.6-2.5-3.2-3.7-4.9c0.4-0.4,0.9-0.8,1.3-1.3c2.9,2.1,5.7,4.1,8.6,6.2c0.3-0.5,0.6-1,0.9-1.4c-1.2-0.8-2.5-1.6-3.8-2.5
		c3.2-3.1,4.5-0.3,5.2,1.9c0.7,2.4,0.6,4.8,4.2,4.8c0.9,0,1.8,2.9,2.8,4.6c-4.6-1.9-8.8-3.7-13-5.5c-0.3,0.3-0.6,0.6-0.9,0.9
		C348.7,331.5,350.8,333.5,352.7,335.3z"/>
	<path d="M98.8,751.5c6.8,16.8,13.2,32.6,19.6,48.2C109.5,789.2,97.1,760.1,98.8,751.5z"/>
	<path d="M247.4,407.3c11.4,9.5,14.1,7.7,22.1,8.3c-2.9,5.5,4.2,4.2,5.1,7.4C260,423.2,249.6,417.3,247.4,407.3z"/>
	<path d="M437.2,799.7c5.7-12.7,11.4-25.4,17.1-38c0.5,4.4,0.2,8.2-2.8,12.1c-3.3,4.5-4.7,10.4-7.1,15.6c-1.8,3.7-4,7.3-6,10.9
		C438,800.1,437.6,799.9,437.2,799.7z"/>
	<path d="M240.6,298.5c-7.2-9.8-18.3-8-28.6-9.7c2.3-2,15.1-2.9,19.2-0.9C235.6,289.9,239.4,293,240.6,298.5z"/>
	<path d="M94.3,714.9c0.4-7.1,4.9-11.9,9.2-16.9c-0.3-0.5-0.8-1.2-1.3-1.9c4.4-2.4,8.9-4.9,13.3-7.3c0.3,0.4,0.5,0.8,0.8,1.2
		C108.1,697.4,98,703.3,94.3,714.9z"/>
	<path d="M262.6,114.9c0,0.8,0.3,1.8-0.1,2.4c-3.6,5.5-7.4,11-11.9,17.7c1.8-6,3.3-10.9,4.4-14.4c3.3-2.4,5.5-4,7.7-5.6
		C262.7,115,262.6,114.9,262.6,114.9z"/>
	<path d="M405.3,873.3c2.4-4.6,8-7.2,13.4-5.4C413.9,869.9,409.9,871.5,405.3,873.3z"/>
	<path d="M93.9,716.7c3,5.6,2.8,12,0,15.1C93.9,726.9,93.9,722.4,93.9,716.7z"/>
	<path d="M427.2,854.8c-2.5,2.5-5.1,4.9-7.6,7.4c-0.2-0.2-0.4-0.3-0.6-0.5c2.6-2.4,5.2-4.9,7.8-7.3
		C426.9,854.5,427,854.6,427.2,854.8z"/>
	<path d="M480.3,756.3c-0.7-3.1-1.4-6.3-2-9.4c0.5-0.2,1.1-0.3,1.6-0.5c0.8,3.1,1.7,6.2,2.5,9.4C481.7,756,481,756.1,480.3,756.3z"
		/>
</g>
</svg>
