<?xml version="1.0" encoding="utf-8"?>
<!-- Generator: Adobe Illustrator 20.0.0, SVG Export Plug-In . SVG Version: 6.00 Build 0)  -->
<svg version="1.1" id="Слой_1" xmlns="http://www.w3.org/2000/svg" xmlns:xlink="http://www.w3.org/1999/xlink" x="0px" y="0px"
	 viewBox="0 0 742.8 889.8" style="enable-background:new 0 0 742.8 889.8;" xml:space="preserve">
<style type="text/css">
	.st0{fill:#FFFFFF;}
</style>
<g>
	<path d="M608.2,799.2c-0.1-2.3,0.6-4.7,0.9-6.8c-2.2,0.2-4.3,0.6-4.3,0.5c-1-3.3-6.6-5.2-3.2-9.7c-2.1-2.3-4-4.4-5.9-6.5
		c0.4-0.3,0.7-0.6,1.1-0.9c3.1,3.6,6.8,6.9,9.3,10.9c5,8,11.2,15,17.7,21.8c2.6,2.7,4.1,6.5,6.1,9.8c2.7,4.9,5.5,9.8,8.2,14.7
		c1.7-1.1,3.4-2.1,5.1-3c-0.2-1-0.1-2.1,0.9-3.4c-1.7-0.7-3.9-0.9-4.9-2.2c-3.2-4.1-6-8.5-9-12.8c-5.3-7.6-11.5-14.7-15.8-22.8
		c-5.7-10.5-11.9-20.6-20.3-29c-8.8-8.9-14.3-20.9-25.6-27.4c-2.6-1.5-3.8-5.8-8-4.2c10.5,7.8,18.3,17.5,23.3,29.8
		c3.6,8.8,8.6,17,13.1,25.8c-1.8,2.4,8.3,19.6,13.2,20.9C609.5,802.9,608.3,801.1,608.2,799.2z"/>
	<path d="M637.8,808.9c2.8,4.6,6,8.9,8.5,13.6c0.8,1.6,1.4,3.3,1.9,5.1c0.8-0.3,1.5-0.6,2.3-0.9c-0.1-6.7,0.6-13.4,2.1-19.7
		c2.2-9.7,7.3-18.2,13.8-25.5c-0.9-1.8-1.8-3.6-2.7-5.3c-2.4-4.6-6-8.5-9.6-13.4c2.8-1.2,4.2-4.2,6.3,1.4c1.8,4.7,6.5,8.3,9.2,12.8
		c0.2,0.3,0.3,0.5,0.5,0.8c3.4-3.2,7.1-6.2,10.9-8.8c-0.6-0.9-1.1-1.9-1.6-2.9c-0.6-0.7-1.1-1.3-1.6-2.1c-1.2-1.9-1.6-4.4-2.4-6.6
		c0.1-0.1,0.1-0.1,0.2-0.2c-2.6-7.4-3.9-15.2-4.3-22.9c-0.1-2.4,0-4.9,0.3-7.4c-3.6-3.8-6.9-7.8-9.9-12.3c-4.3-6.5-10.1-12-15-18.2
		c-1.1-1.4-1.4-3.4-1-5.6c1.5,1.8,2.9,3.7,4.4,5.5l1-0.6l-1.9-3.9c9.1,5.4,16,13.2,21.2,22c0.8,1.4,1.8,2.7,2.9,3.9
		c1.7-6,4.2-11.9,7.4-17.2c-3.7-4.6-6.5-10-7.7-16.8c2.4,1.8,4.7,3.7,7.1,5.4c1.9,1.4,3.7,2.8,5.5,4.3c1.5-2,3.2-3.8,4.8-5.5
		c4.3-4.6,9.1-8.2,14.6-10.9c2.9-6.8,6.8-13.2,11.3-18.5c-3.2-3.8-6.1-7.8-8.6-12.2c-2.1-3.7-6.7-7.2-6.6-10.7
		c0.1-5.9-3.6-9.4-5.9-13.7c-3.4-6.5-5.9-12.6-3.4-19.9c1.4-4,0.4-7.4-2.6-10.6c-5.1-5.6-9-11.9-10.2-19.6c-0.5-2.9-1.3-5.8-2.1-8.6
		c-2.3-7.8-9-14.3-6.6-23.5c0.1-0.5-0.3-1.3-0.7-1.8c-3.3-3.5-2.6-7.9-2.7-12.1c0-1.4-0.2-2.9-0.7-4.3c-3.5-9.2-7.6-18.2-10.6-27.5
		c-3.1-9.7-5.4-19.8-7.8-29.7c-1.2-4.7-1.8-9.5-3-14.1c-1.9-7.4-4.5-14.6-6-22.1c-2.3-11.4-3.9-22.8-5.7-34.3
		c-1.2-7.3-2.3-14.6-3.4-21.9c-0.6-4-0.9-8.1-1.7-12.1c-1.3-6.2-0.5-12.9-4.9-18.2c-0.5-0.6-0.1-1.9-0.2-2.9
		c-1.1-9.6-1.9-19.3-3.3-28.9c-1.7-11.6-3.6-23.1-5.8-34.5c-1.6-8.2-3.3-16.5-5.7-24.5c-1.3-4.5-5.4-8.3-2.4-13.6
		c0.3-0.5-0.6-1.8-0.9-2.7c-0.7-1.8-1.5-3.7-1.9-5.6c-0.9-4-0.8-8.5-2.6-12c-3.6-7.1-7.1-14-9.2-21.9c-2.3-8.6-7.5-16.5-11.7-24.6
		c-3.8-7.3-8-14.4-11.8-21.7c-4.2-8-7.3-16.7-12.5-23.9c-8.7-12.3-18.6-23.8-28.1-35.5c-4.8-6-9.6-12-14.8-17.7
		c-4.6-5.1-9.4-10.1-14.7-14.5c-7-5.8-14.6-10.9-21.9-16.3c-9.6-6.9-19.7-12.6-31.9-13.5c-1.2-0.1-2.4-1.1-3.6-1.7h-10
		c0.8,1.8,1.5,3.5,2.5,5.7c1.2-2,1.7-2.9,2.2-3.7c0.6,0.4,1.2,0.8,1.8,1.2c-0.9,2.5-1.8,5.1-2.7,7.9c5.3-1.9,9.7-1.1,10.5,5.7
		c-3,1.7-6.2,3.5-9.1,5.2c-1.1,1.4-2.2,2.8-3.5,4.5c11.3,4.5,24.2,5.8,34.4,14.1c0.2-0.4,0.4-0.8,0.6-1.2c-1.8-1.6-3.5-3.2-5.3-4.8
		c4.6,1.1,8.7,2.8,12.6,5c3.3,1.9,6.7,3.8,9.2,6.6c3.7,4,10.7,5.4,10.9,12.9c0.5-0.9,1-1.8,1.5-2.7c0.3,0.1,0.6,0.2,0.9,0.3
		c-0.3,2.2-0.5,4.3-0.8,6.5c-8.7-5.2-17.4-10.3-26-15.8c-4.5-2.8-9.9-3.4-12.3-0.9c1.9,0.5,4,1.1,6.2,1.7c-1.6,1.2-2.7,2-3.8,2.9
		c0.2,0.4,0.4,0.7,0.6,1.1c1.5-0.4,3-1,4.6-1.1c1.6-0.1,4.2-0.3,4.7,0.5c3.3,5.2,8.3,7.7,13.5,10.3c1.4,0.7,2.4,2.4,3.6,3.6
		l-0.5,0.6c-5.3-2.8-10.6-5.5-16-8.3c1.9,3.4,4.4,6.5,7.5,8.6c13.7,9.2,26.8,18.4,36.3,32.7c5.1,7.7,8.9,15.7,12.8,23.9
		c1.5,3.2,3.1,6.6,4,10c2.1,8.4,4.4,16.5,11.1,22.6c1.8,1.7,3.4,3.6,5.3,5.8c-2.6,0.2-4.8,4.2-7.3,0.3c-1.7-2.6-2.9-5.4-4.5-8.5
		c-2.4,1.1-4.4,0-5.3-3.5c-0.7-2.6-1.2-5.3-2.5-7.6c-6-10.5-12.5-20.7-18.5-31.2c-9.1-15.8-22.2-27.5-38.1-35.7
		c-11.2-5.7-23.1-10-34.7-14.9c-0.3-0.1-0.8,0.3-1.7,0.6c0.8,0.8,1.4,1.3,1.7,1.6c-2.5,4.1-12.2,1.6-8.3,12
		c-2.5-3.1-3.8-4.7-5.1-6.4l-1.1,1.1c4.3,4.6,6.3,11.3,12.5,13.7c1.6-2.8,2.8-5,4.2-7.3c3,2.8,4.8,5.9,7.5,6.9
		c15.7,5.6,25.2,19.1,37.4,29.1c7.2,5.9,12.4,14.3,18.2,21.9c4.3,5.6,9.5,11.3,11.4,17.7c1.9,6.5,4.7,11.7,9,16.5
		c0.5,0.6,0.8,1.5,1.1,2.2c3,8.1,5.2,16.6,9.3,24.2c4.8,8.9,6.5,18.5,8.7,28c1,4.4,1,9.1,2.3,13.4c1.8,6.1,4.5,11.9,6.8,17.8
		c0.5,1.4,0.8,3,1.1,4.4c-0.5,0.4-1,0.9-1.4,1.3c-1.8-1.3-3.8-2.4-5.4-4c-7-6.9-13.9-13.9-21-20.7c-0.7-0.6-2.3-0.4-3.5-0.4
		c-3,0.1-6,0.6-9,0.6c-4.1,0-8.2-0.4-13-0.6c-1.2-1.1-3.1-4.2-5.2-4.3c-2.7-0.2-5.9,1.5-8.5,3.1c-3.9,2.4-9.4,2.7-12.2,0.5
		c-4.3,1.3-3.6,9.4-10.6,6.5c-0.4-0.2-1.2,0.4-1.8,0.7c-4.8,3.2-9.7,6.5-14.5,9.7c1,0.9,2,1.8,2.9,2.6c-1.9,0.8-3.8,1.6-6.6,2.8
		c1.9,0.7,3.3,1.6,4.6,1.5c2.6-0.2,5.1-1.1,7.7-1.5c12.3-2,24.8-3.2,37-5.9c16.8-3.7,33.1-2.7,49.4,3.1c-1.8,4.2,0.3,6.7,3.6,8.8
		c1.1,0.7,2,1.6,2.8,2.6c4.6,6.1,7.5,12.8,7.7,20.8c0.2,7,0.7,14,5.1,20.1c1.2,1.6,1.3,3.9,1.8,6c0.6,3.1,0.5,6.4,1.7,9.2
		c4.1,10.2,5.7,21.2,5.7,31.8c0,12.7-0.9,25.6-6.9,37.7c-3.4,7-4.7,15.1-6.4,22.9c-2,9.1-2.9,18.3-5,27.4
		c-2.6,11.4-6.1,22.7-8.9,34.1c-3.5,14.7-11.1,27.5-18.3,40.4c-8.3,15-20.1,27.5-32.1,39.6c-3.6,3.6-6.8,7.7-10,11.6c0,0,0,0,0,0
		c4.3-2.7,6.6-1.9,7.2,2.9c1,9,1.2,18.1,2.4,27c0.8,6.1,2.6,12.1,4,18.8c-1.8,1.7-4.4,4-7.1,6.5c1.1,1,2.4,2.2,4.3,4
		c-0.7-5.1,0.8-5.6,3.8-2.7c-0.1-1.8-0.2-3.2-0.2-4.5c0.8,0.1,1.6,0.3,2.4,0.4c-1,2.8-1.6,6-3.3,8.3c-0.8,1-3.8,0.4-5.8,0.5
		c0.2,0.5,0.6,1.8,1,3.1c2.2-0.3,4.2-0.6,6.5-0.9c-0.7,6.5-4.7,1.3-7.2,3.1c2,2.8,4,5.7,6.1,8.4c1.7,2.1,3.9,3.9,5.2,6.3
		c2,3.6,3,7.7,5.3,11.1c4.1,6.1,9.8,11.3,13.1,17.7c4.1,8,9.3,14.9,15.1,21.5c1,1.1,1.7,3.4,1.2,4.5c-3.2,6.7-3.2,13.5-1.1,20.5
		c-7.4,1.8-10.6,8-14.1,13.4c-3.6,5.4-5.9,11.6-8.8,17.5c-0.7,1.5-1.3,3.1-2.5,5.9c2.2-1.6,3.1-2.2,4.4-3.1c0.1,1.5,0.1,2.3,0.2,4.7
		c7.3-7.3,14-13.5,20.1-20.2c1.6-1.7,1.9-5,2.1-7.6c0.5-4.4,0.3-8.8,0.7-13.2c0.6-7.2,1.3-14.4,1.9-21.7c0.1-1.1-0.2-2.3-0.5-3.4
		c-1.5-4.4,0-7.6,3.6-8.9c-0.7-1.8-1.7-3.3-2-5c-1-6.5-1.7-13-2.8-19.5c-1.3-7.5-0.7-8.8,5.3-8.7c-1-2.2-1.8-4-2.6-5.9
		c-2.7-6.5-5.5-13-8.1-19.6c-1.9-4.8-3.7-9.6-4.9-14.6c-1.1-4.2,2.6-5.8,5.7-6.9c2.7-1,5-0.7,5.8,3c1.9,8.3,3.5,16.8,6.5,24.8
		c3.3,8.7,7.5,17.2,12.4,25.1c4.3,6.8,10.2,12.7,15.3,19c3.7,4.6,7.5,9.1,10.7,14c0.6,0.9-1.5,3.6-2.4,5.4c-0.1,0.1-0.5,0-1,0.1
		c0.2-1.5,0.5-2.8,0.6-4c-1.2,0.1-2.3,0.2-3.6,0.3c0.9-1.5,1.5-2.6,2.2-3.8c-0.3-0.2-0.5-0.4-0.8-0.6c-1.1,1.5-2.2,2.9-3.4,4.5
		c-11.1-8.6-19.6-19.2-25.9-31.6c-0.9,0.4-2,0.8-4.1,1.6c3.3,4.4,6.6,8.7,10,12.9c8,10.1,16.8,19.5,27.2,27.3
		c3.4,2.5,6.3,5.8,9.1,9.1c4.6,5.6,9,11.3,13.2,17.1c6,8.3,12,16.6,17.5,25.2C626.8,789.8,632.1,799.5,637.8,808.9z M647.8,498.5
		c1.1,0.7,2.9,1.3,3.2,2.3c3.5,11,6.5,22.1,10.2,33c3.6,10.3,7.9,20.3,12.1,30.4c0.5,1.3,2.6,2.3,2.6,3.4c0.1,1.6-0.8,4-1.9,4.5
		c-1.3,0.5-4.2-0.2-4.8-1.3c-2.1-3.6-3.1-7.9-5.4-11.4c-4.1-6.3-5.9-13.1-7.5-20.3c-1.8-8.4-5.3-16.4-8-24.7
		c-0.7-2.1-1.1-4.3-1.7-6.5c0.3-0.1,0.6-0.1,0.9-0.2c-0.5-2-1.4-4-1.5-6.1C646,500.7,647.2,499.6,647.8,498.5z M496.4,89.4
		c2.7,1.7,5.6,3.2,7.9,5.3c6.2,5.8,12.1,11.9,18.1,18c0.7,0.7,1.1,1.5,1.2,2.7C513.6,107.8,505,98.5,496.4,89.4z M539,142.6
		c-2.8-4.6-5.5-9.2-8.3-13.8c0.5-0.4,1-0.8,1.5-1.2c2.8,4.7,5.5,9.4,8.3,14.1C540,142,539.5,142.3,539,142.6z M431.1,102.8
		c1.3-5.7,4.7-8,11.8-7.7C438.4,98,435,100.3,431.1,102.8z M523.2,271c4.2,0.5,9.4-1.9,12.4,4.6C531,273.9,527.1,272.4,523.2,271z
		 M554.2,261.7c0,1-0.7,2-1.1,3.1c-0.6-0.7-1.6-1.4-1.8-2.2c-1.9-7.7-3.6-15.4-5.4-23c-0.6-2.5-1.2-5-1.9-7.5
		c-2.2-7.6-4.4-15.3-6.9-23.7c2.6,1.2,3.9,1.8,6.2,2.9c-0.9-2.1-1.4-3.1-1.9-4.2l0.7-0.5c3.2,5.2,6.4,10.5,9.7,15.9
		c-1.2,0.8-2.3,1.4-2.4,1.5c1.7,8.5,3.7,16.6,4.9,24.7C554.9,252.9,554.4,257.3,554.2,261.7z M555.2,172.6
		c-4.5-7.3-9-14.5-13.5-21.8c1.2-1.1,2.2-1.9,2.9-2.5c2,0.3-2.7,6.3,3.4,3.1c1-0.5,4.5,3.6,6.9,5.6c-0.4,0.4-0.7,0.8-1.1,1.2
		c-0.9-0.3-1.9-0.7-2.8-1c-0.3,0.3-0.5,0.7-0.8,1c1.8,1.9,3.6,3.8,5.7,6c-0.4,0.6-1.3,1.7-2.2,3c0.9,1.4,2,3,3,4.5
		C556.1,172,555.7,172.3,555.2,172.6z M525.9,628.4c-0.1,1.5-1.6,4.1-2.1,4.1c-5.1-0.7-3.8-4.7-3.7-8.4
		C524.5,622.8,526.2,624.6,525.9,628.4z M541.5,623.5c-1.2-1.1-3-2-3.3-3.3c-0.2-0.9,1.8-2.2,2.8-3.4c0.9,1.7,1.8,3.3,2.6,5
		C542.9,622.4,542.2,623,541.5,623.5z M565.1,196.9c-1.3-3.9-2.3-7.2-3.7-11.5c2.2,1.3,3.4,2,4.8,2.9c-0.6,1.1-1.1,2-1.8,3.4
		c1.4,0.1,2.5,0.2,4.2,0.3C567.4,193.5,566.6,194.8,565.1,196.9z M559.3,645.3c-0.6,0.1-2-5.1-2.6-7.9c-0.3-1.5-0.1-3.4,0.3-4.9
		c0.4-1.3,1.5-2.5,2.3-3.7c0.9,1.2,2.2,2.3,2.5,3.6c0.4,1.7,0.1,3.6,0.1,5.9C560.9,640.4,564.3,644.7,559.3,645.3z M571,646.7
		c-1.1-0.1-2-1.9-3-2.9c1.1-1,2.2-2.8,3.2-2.8c1.4,0,2.8,1.5,5.5,3.1C573.9,645.5,572.4,646.8,571,646.7z M590.3,268.7
		c-1.7-4.5-3.3-9-5.2-13.4c-3.9-8.7-8-17.3-12.3-26.5c4.2-4.3,0.8-10.1,0.2-15.7c0.5-0.2,0.9-0.3,1.4-0.5c1.4,3.3,2.7,6.7,4.1,10
		c4,9.1,8.2,18,12,27.2c2.5,5.9,2.4,12.2,1.6,18.5C591.5,268.4,590.9,268.6,590.3,268.7z M595.1,346.9c1,1,2.5,2,2.8,3.2
		c0.2,0.8-1.2,2.1-2.5,4c-1.6-1.9-3.2-3.1-3.2-4.1C592.3,348.8,594,347.8,595.1,346.9z M592.5,330h6.2c-1,3-1.8,5.4-2.6,7.9
		c-0.7,0-1.3-0.1-2-0.1C593.6,335.4,593.1,332.9,592.5,330z M595.6,394.8c-0.8,0.1-1.7-1.4-2.5-2.2c1-1,1.9-2.6,3-2.9
		c0.8-0.2,2.2,1.2,4.3,2.6C598.1,393.6,596.9,394.6,595.6,394.8z M602.8,305.7c-3.4-6.7-6.9-13.4-10.3-20.1c0.6-0.3,1.2-0.7,1.8-1
		c6.6,5.1,4.6,14.6,10.2,20.3C603.9,305.2,603.4,305.4,602.8,305.7z M630.1,659.7c0.7,3,1.4,5.3,1.6,7.6c0.1,0.9-1.3,1.9-2.8,3.9
		c-1.4-4.4-2.3-7.5-3.4-11.1C627.6,659.9,628.9,659.8,630.1,659.7z M616.3,370.4c0.5-0.6,4.2,0.4,5.2,1.7c3.2,4-2.2,3.7-3.1,6
		C614.3,375.8,614.1,373,616.3,370.4z M611.4,738.6c-0.4-1,0.8-2.8,1.4-4.8c-1.4,0.6-2.5,1.1-4.9,2.1c1.6-3,2.6-5,3.8-7.3
		c1.6,2,2.7,3.5,4.2,5.4c-0.6,0.8-1.5,2-2.4,3.2c2.7-1.7,4.2-1.6,6.2,1.4c7.6,11.4,14.5,23,19.5,35.7c0.9,2.2,1.1,4.6,1.6,7
		c-0.9,0.2-1.8,0.5-2.8,0.7c-4.1-6.6-8.1-13.3-12.4-19.8c-2.6-3.9-5.8-7.5-8.2-11.5C615.1,746.9,613.1,742.8,611.4,738.6z"/>
	<path d="M478.5,594c0.8-0.9,1.6-1.9,2.3-2.8c-1.1,0.7-2.2,1.3-3.3,1.9C477.9,593.4,478.2,593.7,478.5,594z"/>
	<path d="M138.4,796.8c0.3-0.2,0.6-0.7,0.7-0.7c5.8,2.2,9.1-4.8,15.5-3.2c-4.7,5-9.9,9.6-14,15.1c-4.1,5.5-7.2,11.7-11.8,17.4
		c0.8-2.5,1.7-5,2.9-8.5c-3.7,4.4-9.9,4.2-11,10.5c-0.4,2.2-3.3,3.9-4.5,6.1c-0.2,0.3-0.4,0.7-0.6,1c6.9,0.9,13.6,2.9,19.9,6
		c2.9-5.1,5.5-10.5,9.2-15c2.5-3.1,5.3-6.4,8.6-8.2c5.4-2.9,9.2-6.8,10.7-12.5c1.5-5.7,6.9-9.2,7.1-16c0.1-5.3,4-10.4,6.1-15.7
		c1.7-4.3,2.6-9.2,5.2-13c4-6,9-11.3,13.6-16.8c2.8-3.3,4.6-8,10-8.2c0.5,0,0.9-1.4,1.5-2.5c-5.5-1.8-8.5,2.4-10,5
		c-3.6,6.5-9.3,10-15.2,13.5c-0.8,0.5-2.3,0-4.2-0.1c2.9-3.4,5-5.9,7.1-8.4c-0.3-0.2-0.6-0.5-0.9-0.7c-1.7,0.4-3.3,0.7-5,1.1
		c9.4-5.7,14.7-14.2,18.1-24.1c0.8-2.3,2.1-4.4,3.3-6.5c3.6-6.5,8.6-12.8,5.2-19.7c1.3-2.4,3.4-4.4,3.1-6c-0.4-2.2-2.6-4.1-4.4-6.6
		c1-0.9,3.1-2.7,4.9-4.7c3-3.1,5.7-6.5,8.8-9.4c2.7-2.5,5.6-1.5,7.5,1.8c0.9,1.6,2.3,2.9,3.8,4.7c-1.1,3-2.4,6.8-3.8,10.6
		c-1.1,2.9-2.4,5.8,0.1,9.4c0.6-2,1-3.3,1.2-3.9c2.4,1.3,4.6,2.4,7.6,3.9c-3.2,4.3-6.7,8.7-10,13.3c-1.2,1.7-2,3.7-2.8,5.7
		c-1.5,3.4-2.1,7.6-4.6,10.1c-3,3.2-4,6.7-5.1,10.6c-2.1,7.6-1.3,15.2,1.7,22c2.5,5.8,3.5,11.2,3.2,17.5c-0.2,4.6,1.1,9.4,2.1,14
		c1.8,8.1,7.9,15.4,4.7,24.5c-0.2,0.7-0.1,1.7,0.2,2.4c2.6,7.7,6.4,15.3,3.1,23.8c-0.2,0.5,0.4,1.2,0.7,1.8c1.1,2.9,2.2,5.8,3.3,8.6
		c1.5,0.7,3,1.4,4.5,2.2c2.1,1.1,4.1,2.4,5.9,3.7c-0.1-0.3-0.2-0.5-0.3-0.8c-1.3-3-0.3-7.2-1.9-10c-2.6-4.4-2.4-7.2,1.5-9
		c-0.1-2.3-0.4-3.9-0.3-5.5c0-2.7-1.7-5.8-3.4-5.8c-4.6,0,0-3.7-2.1-4.2c5.9-3,1.1-5.1-1-7.4c2-0.8,3.7-1.4,5.3-2.1
		c-0.1-0.3-0.2-0.7-0.3-1H235c0.7-1.1,1.3-1.9,1.4-2.1c-1.3-1.3-2.4-2.2-3.2-3.4c-0.2-0.3,0.5-2,0.8-2c1.8,0.1,3.7,0.4,6.4,0.8
		c0-3.6,1.5-8.7-0.3-11.8c-2.7-4.8-2.4-9.4-2.1-14c0.3-5.1,1.5-10.1,2.5-15.8c-2,4.8-5,7.2-10.5,6.2c4.7-4.2,6.5-9.1,3.6-15.6
		c5.7,3.1,8.8,1.9,10-3.3c-2.4,1.3-4.6,2.5-6.8,3.7c-0.3-0.3-0.6-0.6-1-1c0.7-0.9,1.2-1.9,2-2.7c1.9-1.7,4.5-2.9,5.9-4.9
		c5.4-7.9,10-16.2,18.6-21.4c0.9-0.6,0.8-3.5,0.6-5.2c-0.2-2.2-4.4-3.6-1.1-6.4c-3.6-4.8-2-9.9-0.6-14.9c1-3.5,2-7.1,2.7-9.7
		c-0.6-2.5-2-4.8-1.3-6.2c2.7-5.8,5.3-11.5,2.4-18c-0.2-0.5,0-1.3,0.1-2c1.1-7.2,2.4-14.3,3.4-21.5c0.9-6,2-11.9,2.3-17.9
		c0.4-9.3,0.1-18.7,0.1-27.4c-2.9,0.9-6,2.1-9.2,2.6c-1.4,0.2-3-0.8-4.5-1.2c0.8-1.3,1.3-3.1,2.5-3.9c4.6-3.4,8.3-6.7,9.8-13
		c1-4.3-0.1-7-2-9.6c-7.8-10.9-17-21-23.8-32.5c-7.2-12-12.3-25.2-18.3-37.9c-2-4.2-4-8.5-5.3-13c-1.5-5.1-2.2-10.5-3.5-15.6
		c-1-3.9-3.9-7.8-3.6-11.5c0.5-6.1-1.5-11.3-3.1-16.8c-1.1-4-1.6-7.8-7-7.8c-4.3,7.4-5,7.6-8.6,3.1c2-3.2,4-6.2,6.1-9.5h6.4
		c0-0.5,0-1-0.1-1.4c-3.3-1.2-6.3-3.2-9.9,1c-1.2,1.5-4.7,1.2-7.1,1.5c-0.3,0-1.2-1.2-1.1-1.3c1.3-1.5,2.6-3.4,4.3-4.4
		c5.6-3.2,6.4-8.2,2.5-13.5c-0.8-1.1,0.3-4,1.2-5.6c0.6-1.1,2.5-1.3,3.9-2c1.3,1,2.5,1.9,4.8,3.6c-2-9.4-3.8-17.6-5.8-26.8
		c-5.4,6.9-5.4,6.9-7.4,4.6c4.8-2.4,5.9-6.6,5.4-11.4c-1.1,0.1-2.1,0.2-4.1,0.3c3.4-4.3,2.9-7.6,0.3-11.3c-1.4-1.9-1.4-4.8-1.8-7.3
		c-0.3-2-0.1-4.1-0.5-6.1c-0.4-1.9,2.5-13.5,3.9-14.8c0.2-0.2,0.2-0.5,0.3-1c-0.8-0.6-1.7-1.2-2.8-2.1c1.2-0.9,2.1-1.7,3.6-2.8
		c-1.7-0.6-2.8-1-4.9-1.7c3-2.3,5.6-4.2,7.1-5.4c-0.3-7.9-0.7-15.1-1-22.4c-0.4,0-0.7,0.1-1.1,0.1c-0.9,4.9-1.8,9.9-2.7,15.2
		c-1.3,0.3-5,6.3-5,8.8c0.1,7.5,0,15,0,22.5l-1.6,0c-0.3-4.9-0.6-9.9-0.9-14.8c-0.6,0-1.2,0.1-1.7,0.1c-0.1,1.6-0.4,3.1-0.3,4.7
		c0.3,8,1,16.1,1,24.1c0,6.8-0.8,13.5-0.9,20.3c-0.2,7,0,14,0,21c0,6-0.1,12.1,0.2,18.1c0.1,2.6,1.8,5.2,1.9,7.9
		c0.2,6.9-0.9,14,0,20.8c1.6,11,3.8,21.9,3.9,33.1c0,1.8,1.6,3.5,2.2,5.3c1.1,3,2.1,6.1,3.1,9.1c-0.4,0.1-0.8,0.3-1.1,0.4
		c0.9,0.5,1.8,0.9,2.7,1.4c-2.7,7.2,0.4,16.5,6.9,20.4c0.6,0.4,2-0.4,3.9-0.8c1.6,5.2,3,10.2,4.9,15.1c3,7.9,3.6,16.8,9,23.9
		c2,2.7,3.3,6.5,3.6,10c1,10,5.4,18.6,9.9,27.2c0.9,1.6,1.2,3.6,1.5,5.4c0.9,4.5,1,9.2,2.5,13.5c3.3,9.7,6.7,19.2,5.5,31
		c-3.1-6.5-5.8-12.1-8.3-17.3c0,0.1,1.2-1.1,0.9-1.8c-0.6-1.7-1.9-3.1-3.3-5.1c-0.9,2.7-1.9,4.4-1.8,6c0.1,1.9,0.6,4.5,1.9,5.5
		c4,2.9,2.6,6.8,2.7,10.5c0.1,1.9-0.3,3.8,0.1,5.6c1.1,6-5.7,12-12.8,10.2c4.9-3.8,7.2-7.5,3.5-13.8c-2.3-3.9-2.1-9.9-1.6-14.8
		c0.6-5.6-3.1-8.5-5.6-12.3c-0.8-1.2-1-2.9-1.1-4.4c-0.2-3.7,0.4-7.5-0.3-11.1c-1.2-6.1-8.8-10.4-5.5-18c0.1-0.2-0.1-0.6-0.3-0.9
		c-4.5-10-8.4-20.4-13.7-30c-3.8-7-9.5-12.9-14.2-19.5c-3.7-5.2-8.3-6.5-14.2-3.7c-0.4,2.1-1.4,4.1-1.1,5.9c0.6,5.3,0,12.2,3.1,15.4
		c5.1,5.3,5.8,11.2,6.5,17.3c1.3,12.3,5.8,23.1,13.5,32.7c2.3,2.9,4.3,6.2,6.2,9.4c0.4,0.6-0.2,1.8-0.2,2.3
		c-3.4-4.3-6.7-8.4-9.9-12.6c-2.2-2.9-4.5-5.9-6.5-8.9c-1.3-1.9-2.1-4.1-3.2-6.1c-1.4,1.4-1.8,2.3-1.7,3.1c0.7,6.5,1.6,13,2.2,19.6
		c0.1,1-1,3.1-1.5,3.1c-1.2,0-3.5-0.9-3.6-1.6c-0.9-8.2-1.4-16.3-2-25.1c-3.4-0.1-6.2,1.8-7.5,5.6c-0.6,1.8-0.1,3.9-0.1,5.9
		c0.3-0.1,0.6-0.1,0.8-0.2c0.5-2.3,1-4.6,1.5-7.2c3.8,1.6,4.4,3.5,3.6,6.7c-0.8,3.6-0.6,7.4-0.8,11.1c0.5,0.3,0.9,0.7,1.4,1
		c-2.4,0.8-4.9,1.6-6.9,2.2c-2-3-3.5-5.1-5-7.3c1.3-1.5,2.3-2.6,3.5-4c-3.8-0.5-7.2,3.1-6.6,6.2c1.4,7.5,2.9,15.1,4.2,22.6
		c0.3,1.9,1.2,4.3,0.4,5.6c-3.1,5.4-1.7,10.8-0.7,16.2c0.3,1.8,1.5,3.4,2.6,5.8v-11.1c6,5.7,10.3,11.6,13.6,18.4c2,4.1,5.9,7.4,9,11
		c-0.3,0.2-0.5,0.5-0.8,0.7c-1-0.8-2-1.5-3.7-2.8c0.7,1.7,1,2.6,1.5,3.8c-6-2.1-10.7-0.3-12.2,4.6c-2,6.6-4.4,13.3-5.6,20.1
		c-0.9,5.3-3,10.6-1.7,16.4c0.4,1.7-2,5-3.9,6c-3.8,2-5.7,4.7-7,8.8c-1.9,6.5-4.3,13.1-7.4,19.1c-2.9,5.6-5.5,11-5.4,17.5
		c0,2.2-1.3,4.5-2.1,7.4c1.2,0.2,4.1,1.5,5.3,0.5c2.9-2.1,5.1-5.3,7.4-8.1c2.6-3.3,5.1-6.8,7.6-10.2c-0.3-0.3-0.6-0.5-0.9-0.8
		c1.3-0.2,2.7-0.4,3.9-0.5c-0.6,6.5-1.5,12.3-8.5,15.1c0.4,0.3,0.9,0.6,1.3,0.9c2.6-1.1,5.2-2.2,8.4-3.6c0.5,0.3,1.8,1.3,3,2.2
		c0,0.5,0,1,0,1.4c-1.5,0.1-3.1,0.3-4.2,0.4c-1.3,2.7-2.7,5.7-4.4,9.4c4-2.4,7.6-2.7,11.7-0.6c-12.3,7.6-23.9,14.8-35.3,22
		c-0.4-0.5-1.1-2-1.4-2c-4.7,1.4-10.3,1.6-13.3,5.7c-2.4,3.2-3.7,1.7-6,0.8c1.2-2.3,2.1-4.5,3.5-6.3c0.7-0.9,2.7-1.8,3.7-1.5
		c4.1,1.3,5.4-0.6,5.5-3.1c-3-0.2-7.3,0.6-8-0.7c-1.7-3-1-6.9,1.6-10.3c2,1.8,3.5,3.4,5.2,4.7c1.6,1.4,3.3,2.6,4.9,3.8
		c9.5-7.8,11.9-12.8,7.8-18.3c-0.6,7.3-3.6,12.4-10.6,15.4c-0.6-7.1,3.6-11.5,6.6-16c2.3-3.6,3.2-8.2,0-11.6
		c4.9-5.5,5.1-12.7,4.8-19.1c-0.3-6.6,1.9-12,4-17.7c1.2-3.2,2.5-6.4,3.3-9.7c2-7.7,3.9-15.3,5.4-23.1c0.9-4.4,0.9-9,1.3-13.4
		l-2.2-0.2c-0.7,2.9-1.4,5.8-2.1,8.7c-1.1-1-0.9-2-1.1-2.9c-1.1-5.3,4.8-8.1,4.3-13.9c-0.5-5.8,2.2-11.8,3.4-17.7
		c0.2-1-0.6-2.2-0.9-3.3c-1.5,1.7-1.8,3.4-2.5,4.9c-4.3,10-9,19.8-12.7,30c-1.1,3.1,0.4,7.2,1,10.8c0,0.2,2.7,0,4.1,0
		c-0.8,3.9-0.6,8.8-2.8,11.9c-5.8,8.3-8.8,17.9-13.3,26.8c-1.6,3.2-3.1,6.5-4.9,9.7c-0.7,1.2-2.3,1.8-2.9,3
		c-1.1,2.1-1.6,4.5-2.6,6.6c-1.3,2.7-3,5.3-4.2,8c-2.2,4.7-3.4,10.1-6.4,14.1c-2.1,2.7-3.1,4.3-1.7,7.6c-0.7-0.4-1.4-0.9-2.6-1.6
		c-0.1,0.8,0,1.4-0.2,1.8c-4.9,7.6-4.4,9.7,2.6,14.6c0.7,0.5,1,3.5,0.5,3.7c-7.1,4.3-7,13.1-11.6,18.9c-2.4,3-3.9,6.9-5.6,10.5
		c-0.2,0.5-0.4,1-0.7,1.5c1.1,2.6,2.2,5.2,3.3,7.8c2.7-0.3,5.3-0.5,8-0.6c3.5-3.6,6.8-7.2,8.9-12.1c1.3-3.1,5.8-4.8,8.9-7.2
		C123.2,808.8,130.8,802.8,138.4,796.8z M232.6,746.8c-3.8-3.7-2.8-8.8-3.5-13.4c0.4-0.1,0.8-0.2,1.2-0.3c1.2,4.4,2.5,8.7,3.7,13.1
		C233.6,746.4,233.1,746.6,232.6,746.8z M193.2,451.2c5.8-6.3,5.8-8.3,0.5-11.2c3.8,0.9,8.9-3.3,11.4,2.7c1.2,2.7,1.2,5.8-2.6,7.2
		C199.5,451,196.9,455,193.2,451.2z M202.1,507.7c1.8-1,2.9-1.6,4-2.3c0.6,1.9,1.2,3.8,1.7,5.7C205.4,509.6,204.1,508.9,202.1,507.7
		z M198.8,680.5c5.9,1.8,3,5.1,2.8,9.3c-2.4-1.2-5.4-2.2-5.3-2.7C196.7,684.8,197.9,682.7,198.8,680.5z M188.6,636.7
		c1.7,0.5,3.6,1.1,5.9,1.7c-1.5,2.3-2.5,4-3.7,5.5c-0.4,0.5-1.6,0.8-2,0.6c-0.5-0.3-0.8-1.3-0.8-2
		C188.1,640.7,188.4,639,188.6,636.7z M188.5,667.6c2,4,4.1,8,6.1,11.9c-0.7,0.4-1.4,0.9-2.1,1.3c-1.7-4.2-3.5-8.4-5.2-12.6
		C187.7,668,188.1,667.8,188.5,667.6z M180.8,610.6c-0.7-0.9-1.4-1.7-2.5-3c-0.8,1.4-1.6,2.6-2.5,4c0.7,0.1,1.9,0.2,3.7,0.4
		c-7.2,10.4-2.7,21-1.8,32.7c-1.8-1-3.9-1.5-4.3-2.5c-0.7-2-0.5-4.3-0.2-6.5c-1-2.3-4.3-3.9-1.3-7.6c0.7-0.8-0.9-4.9-2.5-5.9
		c-3.6-2.2-1.1-2.7,0.4-3.9c4.2-3.4,5.4-7.8,3.5-13C181.4,608.1,181.4,608.1,180.8,610.6z"/>
	<path d="M258.3,101.4c0.4,0.3,0.9,0.6,1.3,1c-2.1,2.4-4.1,4.7-6.2,7.1c0.1,0.3,0.2,0.5,0.3,0.8c3.7-1.6,7.8-2.7,11.1-5
		c6.4-4.4,12.2-9.6,18.5-14.1c2.6-1.9,5.7-3.3,8.6-4.7c4.7-2.3,9.4-4.5,15-7.1c-3.8,5.8-9.8,7.2-14.5,10.2
		c-7.9,5.1-15.8,10.3-23.5,15.7c-4.6,3.3-8.8,7.2-14.6,11.9c0.3-2.4,0.4-3.7,0.6-5.2c-3.7-1.4-5.7-0.6-9.7,3.9c-0.9,1-2.7,1-3.9,1.7
		c-12.7,7.2-22.9,17-31.6,28.6c-3.1,4.1-6.9,7.6-10.2,11.5c-3.1,3.7-5.7,7.9-8.9,11.6c-2.2,2.5-5,4.6-7.7,6.6
		c-1.9,1.4-1.7,7.4,0.8,9.7c-2.9,2.5-5.9,4.8-8.4,7.6c-0.9,1-0.7,3.3-0.4,4.9c0.7,3.4,1.8,6.7,2.8,10.3c12-16.1,21.3-34.6,37.8-47.2
		c6.2,2.6,7.7,5.1,5.6,9.3c-1.8,3.5-6.9,4.8-10.1,3.1c-3.8,4.7-7.6,9.3-11.2,14c-2.3,3-4.5,6-6.4,9.2c-0.7,1.1-0.5,2.7-0.7,4
		c1.1-0.8,2.2-1.6,3.4-2.5c3.5,2.6,7.9,2.8,11.9-1.5c3.1-3.2,6.4-3,9.3-2.8c1.1-1.3,1.7-2.3,2.6-3.1c7.8-6.2,15.8-11.9,23.2-18.5
		c2.6-2.3,3.5-6.5,5.3-9.8c0.3-0.6,0.9-1.2,1.5-1.5c2.4-1.4,4.9-2.7,7.3-3.9c2,5.3,0.6,8.7-5,12.1c-0.7,0.4-4.2,0.8-1.7,3.4
		c-1.9,1.9-3.6,4.3-5.8,5.5c-3.2,1.6-5.3,3.1-2.8,7.4c-3.6-1.7-6-1.4-6.3,2.7c-0.3,5.2-3.4,7.5-8.1,8.5c-1.7,0.4-3.2,1.5-4.8,2.2
		c1.5-2.7,3.1-5.5,4.5-8c0.2,0-0.5-0.1-1,0.2c-3.4,2-6.7,4.1-10.2,6c-6,3.3-13,5.5-17.8,10c-6.1,5.7-10.6,13.2-15.3,20.2
		c-2.2,3.2-5.1,6.9-2.2,11.8c3.7-3.9,7.4-7.4,10.7-11.2c2.3-2.6,4-5.7,6.2-8.4c3.3-3.8,6.4-7.9,10.3-11c4.6-3.7,9.8-6.5,14.8-9.7
		c-3.5,3.2-7.1,6.3-10.4,9.7c-2.3,2.3-4.1,5-6.3,7.6c-0.2-0.3,0.2,0.3,1.1,1.3c-1.4,0.1-2.4,0.2-4.1,0.4c1.9,1.1,3.1,1.8,4,2.3
		c-7.5,13.3-21.9,18.2-32.3,28.4c1.2,0.2,2.2,0.4,3.1,0.6c-1.8,3.3-3.5,6.5-6,11.1c4.1,1.3,7.8,2.4,11.5,3.6c-0.1-0.7-0.2-1.3-0.2-2
		c1.6-0.8,3.3-1.6,5.2-2.6c0-0.1-0.6-1.1-1.1-2.1c2.3-0.2,4.6,0.1,6.5-0.7c1-0.5,1.2-2.8,1.7-4.3c-0.4-0.1-0.9-0.3-1.3-0.4
		c2-0.5,4-1.1,6.1-1.3c0.7-0.1,2,1.1,2.1,1.7c0.1,1.2-0.2,2.8-1,3.5c-4.1,3.5-8.2,7.1-12.7,10c-3.2,2-7,2.9-10.5,4.5
		c-1.2,0.5-2.6,1.2-3.2,2.2c-3.9,6.7-11.2,8.7-16.9,12.9c-4.7,3.5-8.1,9.2-11.1,14.5c-3.2,5.8-5.3,12.2-7.7,18.4
		c-0.5,1.4-0.4,3-0.5,4.5c-0.7,7.1-2.3,14.2-2,21.3c0.4,11.9,2.1,23.8,3.1,35.7c0.2,2.4-1.7,5.6-0.6,7.1c2.5,3.8,1.6,7.9,2.5,11.8
		c0.6,2.7,1,5.4,1.2,8.1c0.2,3.1,1.4,6.7-3.3,7.9c-0.6,0.2-1.1,1.5-1.3,2.4c-0.4,2-0.6,4.1-0.9,6.7c-4.3-6.7-4.3-9.5-1.4-13.6
		c-2-5.1-4.1-9.4-5.4-14c-0.5-1.9,0.6-4.4,1.3-6.6c0.5-1.6,1.4-3,2.2-4.8c0.1,0.1-0.9-0.6-2-1.2c0.8-1.1,1.5-2.2,2.4-3.4
		c-3.6-0.3-4.8-2.7-4.5-6.4c0.5-5.9,0.6-11.8,1-17.6c0.6-8.3,1.1-16.7,2.1-24.9c1.5-11.7,3.5-23.4,5.4-35c1.1-6.7,2.3-13.4,3.6-20.1
		c0.4-1.9,1-3.9,2-5.5c2.6-4.3,4-8.6,3-13.6c-0.1-0.6-0.3-1.5,0-2c5.1-8.2,4.3-17.9,7.1-26.7c2.2-6.9,2.6-14.7,6.1-20.6
		c4.2-6.9,4-16.3,12.1-21.2c2.4-1.5,3.2-6.1,4.1-9.5c0.9-3.4,0.5-3.5,3.5-4.6c-0.5-0.4-0.9-0.8-1.4-1.2c0.1-0.3,0.3-0.5,0.4-0.8
		c1.5,0.2,3,0.5,4.9,0.8c-0.4-1.3-0.6-2.3-0.9-3.4c2.5-0.8,5-1.5,7.9-2.4c-1.3-1.8-2.1-3-3-4.4c1-0.1,1.8-0.1,2.6-0.2
		c0.2-2.6,0.4-5.1,0.5-7.9c1.7,0.4,3.1,0.7,5.5,1.3c0-3.2,0-6.3,0-9.5c1.3,1.4,2.7,2.9,4.6,5.1c1.8-2.2,3.3-4.2,4.9-6
		c3.3-3.8,6.5-7.8,10.2-11.2c4.7-4.3,4.9-4.3,0.2-8c-0.7-0.5-1.6-0.8-3.1-1.5c2.8-0.7,5-0.9,6.7-2c0.9-0.6,0.8-2.7,1.3-4.7
		c0.4,0.1,1.7,0.3,3.1,0.6c-0.4-5.7,1.3-7.2,7.7-5.4c-1.1-1.7-1.8-2.9-2.5-3.9c6.9-4.8,13.8-9.6,20.7-14.2
		c6.3-4.2,12.6-8.5,19.2-12.2c9.5-5.3,19.2-10,28.9-14.9c7.8-4,15.7-7.9,23.7-11.6c1.7-0.8,4-0.2,5.9-0.6c2.1-0.4,4.3-1,6.3-1.9
		c2.4-1,4.6-2.5,6.9-3.7c5.6-2.8,5.6-2.8,2.2-7c4.5-2.8,9-5.5,13.5-8.3c-0.2-0.6-0.4-1.1-0.6-1.7c-1.3,0.3-2.5,0.7-4.8,1.3
		c-0.2-1.8-0.4-4.3-0.6-6.8c4,0,8,0,12,0c4.8,1.1,9.7,2.2,14.5,3.3c5.6,1.3,10.5,3.7,14.4,8.5c1.8-0.4,4.1-1,6.8-1.7
		c-0.2,1.4-0.4,2.5-0.7,3.9c4-2.4,7.1-1,11.4,4.9c1.2-0.6,2.4-1.3,3.8-2c0.2,0.5,0.7,1,0.6,1.3c-0.8,1.4-1.4,3.6-2.5,4
		c-5.7,2-4.3,7-4.8,10.9c-0.4,2.8,1.6,5.9,1.1,8.6c-0.5,2.4-3,4.3-5.5,7.5c2.9,6.6,6.5,14.5,10,22.5c0.4-0.1,0.8-0.1,1.2-0.2
		c-1.3-0.4-2.7-0.8-4-1.2c-1,7.9-1,7.7-8.7,8.8c-1.4,0.2-1.8,3.3-4.7,2.7c-6.1-1.1-11.9,1.8-18.5,0c-7-1.9-14.9-0.8-22.4-1.3
		c-2.1-0.2-4.1-1.7-5.3-2.1c-31.7,6.7-54.9,25.5-75.7,48.3c-0.5-0.1-1-0.3-1.5-0.4c0.3-1.5,0.2-3.2,1-4.3c0.9-1.1,2.2-4.9,3.5-1.5
		c5.5-6.8,11.1-13.6,16.7-20.5c-0.4-0.4-0.8-0.7-1.2-1.1c-1.8,1.4-3.6,2.7-6.5,4.9c4.5-6.7,7.8-12.4,12-17.4c2.2-2.6,6-3.8,9-5.6
		c3.7-2.2,9.4-1.9,10.2-7.9c0-0.2,2-0.1,3.3-0.2c-0.2-2.9,1.3-4.2,3.7-6.4c4.4-3.9,7.2,0.1,10.6-0.2c1.2-0.1,2.5-0.2,3.5-0.3
		c0.2-3.1,0.4-5.8,0.6-9c6.8,0,14.3-0.2,21.7,0.1c1.9,0.1,3.7,1.9,5.7,2.5c1.4,0.4,2.9,0.1,4.4,0c-0.3-1.4-0.3-3-0.9-4.3
		c-0.7-1.3-2-2.3-3.7-4.2c3.2-0.2,5.1-0.4,7.1-0.5c-1.9-1.2-6.3-0.5-1.3-5.9c-8.6-1-15.7-1.7-23.3-2.6c-0.2,0.4-0.5,1.3-1.2,3.4
		c-1.3-5.3-4.5-5.5-8.2-5.1c16.7-10.2,34.7-12.6,53.8-10.2c-2.3-5.8-7.1-4.8-11-5.8c-1.8-0.5-3.9-0.5-5.8-0.3c-3.3,0.3-6.6,1-10,1.4
		c-5.1,0.6-10.4,0.5-15.2,1.8c-10.5,2.8-21,5.8-31.1,9.6c-14.7,5.6-29.4,11.5-43.6,18.3c-6.6,3.2-11.8,9-17.8,13.3
		c-2.9,2.1-6.2,3.5-9.3,5.3c-7.7,4.6-13.3,11.5-19.6,17.7c-0.4,0.4-0.5,1-0.5,1.8c5.7-4.8,13.8-6.9,16.6-15.3
		c0.5,0.7,1.1,1.4,1.6,2.2C249.9,101.1,252,100.2,258.3,101.4L258.3,101.4z M399.9,58.8c0.4-8.8-6.7-17.9-13.3-18.8
		c-1.5,3.6,1,4.8,3.4,6.5c2.3,1.8,4.1,4.2,6,6.5C397.1,54.5,398.1,56.1,399.9,58.8z M189.9,201c-2.5,3.6-5,7.2-7.5,10.7
		c0.5,0.3,1,0.7,1.5,1c1.5-2.2,2.6-4.8,4.5-6.6C192,202.7,192.2,202.9,189.9,201z"/>
	<path d="M378.5,548c2,0,4,0.1,6,0c1.3-0.1,2.9-0.3,3.8-1.1c0.5-0.5,0.3-2.6-0.3-3.4c-1.8-2.5-2.1-6.8-6.4-6.5
		c-1.9,0.1-3.8,1.2-6,1.9c3.6-5.1,5.5-5.3,10.8-1.1c2.6,2,4.9,1.9,8.8-1.6c0,4.5,0.2,7.8,0,11c-0.2,3,1.2,4.1,3.8,3.6
		c1.4-0.3,2.6-1.3,4-1.8c10.8-3.3,12.3-6.1,9.4-17.4c3.8,10,12.7,9.3,19.4,7.3c5.3-1.6,12.3-6,10.2-15.3c1.8,1,3,1.6,4.9,2.6
		c0.5-2.4,1-4.5,1.5-6.9c-5.6-2.4-10.7-0.8-15.7,0.7c-3.5,1.1-6.6,3.5-10.1,4.4c-3.3,0.8-6.9-0.2-10.2,0.5c-4.5,1-8.9,2.9-13.3,4.6
		c-0.3,0.1,0.1,1.8,0.2,3.4c-1.9-0.4-3.8-0.8-5.6-1.3c-5.6-1.6-11.2-3.1-16.7-4.9c-6.5-2.2-12.9-4.7-19.3-7.1
		c-2.9-1.1-5.6-2.5-8.5-3.5c-5.7-2-8.9,1.5-10.8,5c-3.4-0.5-6-0.8-8.6-1.2c-0.6-0.1-1.6-0.5-1.6-0.8c-0.2-3.1-1.1-6.7,0-9.3
		c0.9-2.2,4.4-4.7,6.6-4.6c5.5,0.4,9.5-0.7,14.2-4.1c8.6-6.4,18.9-9.8,29.8-8.9c4.1,0.3,9.6,0.9,11.5,6.7c1.1,3.4,3.5,1.5,5.7,0.6
		c6-2.4,12-5.5,18.3-6.3c4.4-0.5,9.5,1.7,13.8,3.8c5.9,2.8,11.3,6.7,17.1,9.9c1.9,1.1,4.8,0.8,6.4,2.1c3.2,2.5,5.9,5.7,8.6,8.8
		c0.2,0.2-1,2.5-1.9,2.7c-7.3,1.5-10.6,7.7-15.3,12.3c-11,10.8-21.5,22.4-37.8,24.6c-5.8,0.8-12.1,0.3-17.9-1.1
		c-3.5-0.9-6.4-4.5-9.6-6.9C378,548.9,378.2,548.5,378.5,548z M397.6,511.8c-4-1.1-8.2-2-12.3-3.4c-2.6-0.9-5-1.4-6.3,1.5
		c-1.6,3.5,0,7.6,3.2,8.7c2.1,0.7,4.3,1.1,6.5,1.5C396.4,521.6,398.3,519.9,397.6,511.8z M399.9,510.7c0.4,2.3,0.4,4.3,1.2,5.7
		c0.6,1.1,2.5,2.2,3.7,2.1c3.2-0.3,6.4-1,9.5-1.9c1.1-0.3,1.9-1.8,2.9-2.7c-1-0.8-1.9-2.2-2.9-2.3
		C409.8,511.2,405.2,511.1,399.9,510.7z M374.7,515.7c1.5-7-4.1-5.9-7.2-7.1c-1.4-0.5-3.5-0.4-4.8,0.4c-0.7,0.4-1,3.1-0.4,4
		c0.9,1.3,2.7,2.4,4.2,2.6C369.1,516.1,371.7,515.7,374.7,515.7z"/>
	<path d="M351.3,331.5c-8.4,0.9-16.1,1.8-25.4,2.8c4.8-3.4,8.4-5.9,12.8-9.1c-3.2-3.9-6.5-7.9-9.5-11.6c-4.6,1.6-6.3,3.6-5.7,7.7
		c1,7.1-4,11.1-9.1,14c-4.9,2.7-10.4,1.4-15-1.7c-3.4-2.3-6.2-5.3-9.4-7.9c-1.1-0.9-2.4-1.4-3.8-2.1c6-2,11.8-3.9,18-5.9
		c-7.2-3-14-6.5-21.7-2.8c-2.3,1.1-4.5,2.6-6.4,4.4c-3.7,3.5-1.9,8.3,4.3,11.6c1.8,1,3.7,1.8,5.5,2.7c-0.2,0.5-0.4,0.9-0.7,1.4
		c-2.5-1.3-5.5-2-7.3-4c-3.2-3.4-6.8-5.3-11.3-6.1c-8.3-1.6-8.3-1.7-13.5-7.8c2.1-8.7,10.1-10.8,16.7-14c12.5-6,26.1-8.9,39.6-6.8
		c8.7,1.4,18.2,1.9,25.5,9.6c4.5,4.8,9.6,8.9,12.5,14.8C349,323.7,349.8,326.9,351.3,331.5z M294.2,323.7c1.1,5.4,11,11.1,15.6,10
		c8.3-2,12.6-7.7,12.4-16.3c-0.1-4-1.7-6.3-6.5-5.6c0.7,6.1,3.5,12.7-3.9,16.9C304.7,333,299.6,329.2,294.2,323.7z"/>
	<path d="M467.8,303.3c-2.2,1.5-4.5,3-6.7,4.5c0.1,0.5,0.2,1.1,0.3,1.6c17.3-9.1,34.8-8,52.4-0.6c0.1-0.5,0.1-1,0.2-1.5
		c-2.3-1.3-4.5-2.6-7.3-4.2c7.9-0.6,19.1,6.6,21.6,13.2c0.3,0.9,0.6,1.9,1,2.8c1.1,2.1,3.6,4.8,3.1,6c-1.3,2.6-4.2,4.5-6.5,6.6
		c-0.4,0.3-1,0.9-1.2,0.8c-9.5-4.5-14.1,4.4-20.8,7.4c-0.6,0.3-1.4,0.3-2,0.5c0.7,0.6,1.4,1.2,2,1.7c3-4.5,5.9-9,9.4-14.2
		c-0.7-1.6-1-4.6-2.7-5.9c-3-2.5-6.7-4-10.8-6.3c-1,5.1-1.5,9-2.5,12.8c-1.6,6.3-8.1,11.4-14.2,11.4c-2.5,0-5.2-0.3-7.6-1
		c-9-2.9-13.1-9.9-10.6-20.1c-3.7-4-5.8-0.6-7.9,1.8c-4.5,5.2-3.7,9.7,2.6,16.2c-4.9,0-9.8,0.3-14.5-0.1c-4.1-0.4-6-6.3-3.4-9.6
		c0.9-1.1,1.6-2.4,2-3.8c3.4-11.2,12.3-16.7,22.1-21.1c0.3-0.1,0.9,0.2,1.3,0.4C467.3,302.5,467.5,302.9,467.8,303.3z M480.8,334.6
		c11.1,0.3,16.8-5.4,15.1-14.2c-0.3-1.4-2.3-2.6-3.4-3.8c-0.8,1.6-2.4,3.2-2.3,4.7C490.9,329.1,489.1,332.1,480.8,334.6z
		 M476.6,320.1c-2.7-3-4.8-5.7-8.5-3.6c-0.7,0.4-1,3.6-0.2,4.6C470.9,325.2,473.2,320.7,476.6,320.1z"/>
	<path d="M41.7,786.4c0.5,2.3,0.9,4.7,1.2,7c0.5,0.1,1,0.2,1.5,0.3c1.2-1.2,2.4-2.5,3.6-3.8C45.8,788.7,43.7,787.6,41.7,786.4z"/>
	<path d="M39.6,779.1c0.6,1.9,1.2,3.8,1.7,5.8h3.2c-0.3-0.3-0.7-0.6-1-1c1.4-1.7,3-3.3,4.1-5.2c3.1-4.9,12-2.2,12.9-9.9
		c6.1-1.7,8-7.4,11.3-11.7c1.1-1.4,1.4-3.5,2.3-5.8c3.2,0.1,4.5-2.2,3.5-7.8c-6.4,6.5-12.2,14.1-21.3,18.2c0,0.5,0.1,1.6,0.1,2.6
		c-1.1-0.3-2.2-0.6-3-0.8C48.9,768.8,44.2,774,39.6,779.1z"/>
	<path d="M264.2,265.8c3.7-2.7,7.9-5,11.1-8.3c4.2-4.2,8.7-3.7,13.9-3.4c3.1,0.2,6.3-2.3,9.5-3.4c1.3-0.4,2.9-0.7,4.1-0.3
		c6.3,2,12.6,4.2,18.9,6.5c1.9,0.7,3.6,2.1,6.1,3.6c0-2.4,0-3.9,0-6.2c3.6,1,7.2,1.9,10.7,2.8c2.4,0.6,4.7,1.2,7.1,1.8
		c0.5,0.1,1.2,0.2,1.3,0.5c2.2,6,11.1,5.9,11.9,12.9c0.4,3.1,0.2,6.4-0.7,9.3c-0.3,0.8-4.2,0.9-6.3,0.5c-12.9-2.3-25.8-4.8-38.6-7.5
		c-3.6-0.8-7-2.6-10.5-3.7c-6.3-1.9-12.6-3.5-19-5.2C278.9,264.4,269.2,264.8,264.2,265.8z M294.7,263.4c0.2-0.7,0.5-1.5,0.7-2.2
		c-4.7-0.8-9.3-1.6-14-2.4c-0.1,0.6-0.2,1.2-0.3,1.7C285.6,261.4,290.2,262.4,294.7,263.4z"/>
	<path d="M26.6,756.5c15.1-8.4,28.5-19.1,41.4-30.5c4.9-4.3,9.4-9,14-13.7c5.9-6.1,11.7-12.3,17.4-18.6c0.8-0.9,0.6-2.8,0.8-4.2
		c-1.6,0.2-3.7-0.3-4.8,0.6c-2.7,2.1-5.1,4.5-7.3,7.1c-2.9,3.6-5.4,7.6-8.3,11.1c-0.9,1-2.7,1.3-4.2,1.8c-0.1-0.4-0.3-0.7-0.4-1.1
		c1.1-1.5,2.3-2.9,3.4-4.4c-0.3-0.2-0.5-0.4-0.8-0.6c-1.4,1.2-2.8,2.4-4.2,3.6c-0.3-0.3-0.5-0.6-0.8-0.9l2.1-3.5l-1.3-0.9
		c-1.4,2.3-2.7,4.7-4.3,6.9c-2.5,3.4-7.7,5.5-5.4,11.2c0.2,0.5-0.6,1.5-1.2,2c-6.5,5.7-13,11.5-19.6,17.1c-2.7,2.2-5.8,3.9-8.6,6
		c-3.5,2.7-7.2,5.3-10.3,8.4C25.1,754.9,25.9,755.7,26.6,756.5z"/>
	<path d="M134.5,596.2c3.3,1.7,4.6,9.3,1.3,12.9c-5.3,5.8-10.2,11.6-11.6,19.6c-0.2,1.3-1.4,2.7-2.5,3.5c-2.4,1.7-2.7,3.7-3.2,6.6
		c-0.9,4.9-3.3,9.7-5.8,14.2c-0.9,1.7-3.7,2.4-5.6,3.5c-0.4-0.2-0.9-0.4-1.3-0.6c1.9-3.7,3.7-7.3,5.7-11c0.5-0.8,1.8-1.5,1.8-2.2
		c-0.3-8,6.1-13.3,7.7-20.6c2.3-10.9,4.5-21.9,5.2-33.1c0.3-4.4,2.3-8.6,3.1-13c0.6-3.6,0.5-7.3,0.7-11c0.1-1.1,0.3-2.2,0.4-3.4
		c3.1,0.5,6.4,1.9,4.8-3.7c-0.5-1.6,2.2-4.1,4.1-7.3c0.4,2.8,0.6,4.2,1,6.3c0.6-1.8,1-2.9,1.4-4c0.5,0.1,0.9,0.2,1.4,0.3
		c-0.5,1.6-0.4,3.9-1.5,4.8c-4.8,4.2-1.7,10.9-5.2,15.7c-1.2,1.6,1.4,5.6,1.4,8.5c0,2.1-1.6,4.2-2.1,6.3
		C135.1,590.9,134.9,593.3,134.5,596.2z"/>
	<path d="M54,797.4c0.1,0,0.3,0.1,0.4,0.1c0.7-1.7,1.4-3.4,2.1-5.1c0.6,0.2,1.2,0.5,1.8,0.7c-0.6,1.7-1.1,3.4-1.7,5.1
		c0.1,0,0.1,0.1,0.2,0.1c1.6-1.3,2.6-3,2.9-4.7c0.5-2.7,0.3-5.1,3.9-6.5c3.8-1.5,3.8-5.5,0.9-7.8c3-3.2,5.9-6.3,10.1-10.7
		c2.5-0.4,3.3-2.2,2.1-7.4c6.1-6.1,12.2-11.3,16.2-19h-3c0.3-2,0.5-3.6,0.7-5.2c-0.4-0.2-0.8-0.3-1.2-0.5
		c-2.4,6.1-9.1,9.3-10.4,16.3c-0.2,1.2-1.1,2.4-2,3.3c-4.4,4.3-10,7.8-9.8,15.1c0,0.6-0.4,1.1-0.7,1.9c-0.5-1.3-0.8-2.3-1.2-3.4
		c-1.4,1.5-2.6,2.8-3.8,4c0,2.7-1,5.1-2.2,7.3c-1.1,2.3-2.4,4.5-3.8,7.1c-0.1-0.1-1-0.7-1.6-1.2c-1.5,2.8-3,5.5-4.5,8.2
		C51,795.9,52.5,796.6,54,797.4z"/>
	<path d="M77.5,813.4c1.7-1.5,3.9-3.5,4.2-5.4c0.8-5.5,2.6-10.6,5.1-15.5c1.3-2.6,2.8-5.2,4.2-7.7c0.2,0.1,1.1,0.8,2,1.5
		c0.2-0.2,0.4-0.4,0.6-0.6c-0.7-1.4-1.4-2.7-1.5-2.9c3.8-7.3,7.2-13.6,10.5-20c-0.6,0.1-1.3,0.2-1.9,0.2c-1.7-1.2-3.4-2.4-5.1-3.6
		c-0.9,1.4-1.9,3-3.3,5.1c1.5-0.3,2.2-0.4,3.7-0.7c-1.9,3.8-3.5,7.2-5.2,10.5c-0.4-0.4-0.8-0.8-1.2-1.2c-1.2,1.2-2.3,2.3-4.4,4.3
		c2.1-0.4,2.8-0.5,2.5-0.5c-0.4,3.8-0.8,7.5-1.2,11.7c-0.4-0.1-2-0.5-4.5-1.2c0,0,0,0,0,0c-2.3,6.4-4.5,12.8-6.9,19.1
		c-0.3,0.9-1.1,1.6-1.6,2.4c-0.1,0.1-0.1,0.2-0.2,0.3C74.7,810.6,76.1,811.9,77.5,813.4z"/>
	<path d="M156,480.6c1.5,2.1,3.8,3.9,4.4,6.2c2,8.2,3.7,16.5,4.8,24.9c0.3,2.3-2.1,4.9-3.3,7.4c-0.4-0.2-0.8-0.5-1.2-0.7
		c-0.7-4.4-1.4-8.8-2.2-13.4c-1.9-0.2-4.1-0.5-5.3-0.7c0.4-8,0.8-15.4,1.1-22.7C154.9,481.2,155.5,480.9,156,480.6z"/>
	<path d="M101.5,684c0.6,1.3,1.2,2.5,1.8,3.8c0.5-0.1,1.1-0.3,1.6-0.4c-0.4-1.6-0.8-3.2-1.3-5.5c1.4,1.1,2.4,1.9,3.7,2.9
		c0.1-1.2,0.4-2.3,0.1-2.5c-3.1-2.2-0.8-3.7,0.7-5.1c2.7-2.5,5.6-4.9,8.5-7.3c0.5-0.4,1.6-0.9,1.5-1.1c-1.7-7.6,9.2-11,6.5-19.1
		c-0.2-0.7,1.4-2.8,2.6-3.1c1.1-0.3,3,0.4,3.9,1.2c0.5,0.5,0.3,2.5-0.3,3.4c-6.9,12.3-11.4,26-22.2,35.8c-1.3,1.2-3.7,2-5.5,1.7
		c-1.3-0.2-2.3-2.3-3.4-3.6C100.4,684.8,100.9,684.4,101.5,684z"/>
	<path d="M449.6,426.8c2.2,8.4-2.8,17.1-14.3,23.3c-7.2,3.9-14.4,1.5-21.3-7.5c1-1,1.8-2.5,3-3.1c2.2-1.1,5.2-3,6.8-2.2
		c2.2,1,4.2,4,4.9,6.5c1.1,4.2,1.9,5,5.8,3.3c8-3.7,14-8.8,14-18.5C448.5,428.1,449,427.7,449.6,426.8z"/>
	<path d="M420.2,42.6c0.9,1.2,2.2,3,3.5,4.7c-1.9,2.6-3.7,5.2-5.7,8c1.2-0.1,3.7,0.4,4.8-0.6c3.2-2.9,5.1-1.5,7.4,1
		c1.4,1.5,3.2,2.7,5.9,5c-8.3,0.8-15.7,1.4-23.7,2.2c0.3-3.8,0.6-7.6,1-12.6C415.1,48.6,417.6,45.7,420.2,42.6z"/>
	<path d="M241,147.8c5.2-0.9,10.5-1.7,15.9-2.6c-10.1,7.8-19.4,15-28.8,22.2c-0.3-0.3-0.5-0.6-0.8-0.9c0.8-1.1,1.6-2.2,1.8-2.5
		c-1.9-3.5-3.7-6.6-5.5-9.9c-1,0.5-2,1-3,1.5c-0.3-0.4-0.5-0.9-0.8-1.3c1.9-1.2,3.9-2.3,6.2-3.7c1.4,3.7,2.4,6.7,3.8,10.6
		c1.4-0.8,3.1-1.4,4.4-2.5c2-1.6,3.8-3.5,5.5-5.1c0.2,0-0.7-0.2-1.6-0.4c1-2,2-3.8,2.9-5.6C241.1,147.7,241,147.8,241,147.8z"/>
	<path d="M217.2,229.5c-1.1,1.9-2.1,3.7-3.2,5.6c-1,1.6-2,3.3-3.2,4.7c-0.6,0.8-1.7,1.3-2.6,1.7c-0.5,0.2-1.4-0.3-1.9,0
		c-5,2.6-10,5.3-15.4,8.1c-1-1.2-2.2-2.6-3.7-4.4c3.6-2.7,6.3-6.8,11.8-5.5c0.6,0.1,1.6-1.4,2.4-2.1c1.8-1.6,4.1-4.9,5.3-4.5
		C211.4,234.5,213.8,231.8,217.2,229.5z"/>
	<path d="M120.4,644c-1.5,5.5-2.9,10.6-3.6,13.3c-6,12.2-17.1,15.1-25,22.1c3.5-5.1,7.1-10,10.3-15.2c1.8-3,3.4-4.5,6.2-1.3
		C112.2,656.6,116,650.8,120.4,644z"/>
	<path d="M387.9,440.5c-7.1,2.6-14.3,5.3-21.5,8c-4.9,1.8-8.4-0.6-12.1-8c0.3,0,0.6-0.1,0.7,0.1c7.5,8.1,7.4,8,14.5-0.3
		C373.1,436.1,383.4,434.2,387.9,440.5z"/>
	<path d="M217.4,189.5c-1.5,0.5-3.7,1.1-6.7,2c3.9-5.7,7.2-10.4,13.6-13.2c5.9-2.6,10.5-8,15.8-12.1c1.5-1.2,3.3-2,5.2-3.2
		c-4.7,5.4-8.8,10.7-13.6,15.1c-3.8,3.4-8.6,5.7-12.9,8.6C218.2,187.2,218,188.4,217.4,189.5z"/>
	<path d="M426.3,74.3c1.3,1.2,2.7,2.4,3.8,3.4c-2.1,2.1-4.5,4.6-7.6,7.7c0.2-4.8,0.3-8.4,0.7-11.9c0.1-1.2,1.1-3.1,2-3.4
		c4-1,8.2-1.9,12.4-2.2c1.7-0.1,3.6,1.2,5.3,1.8c-1.8,0.4-3.6,0.6-5.4,1.1C434.2,71.8,430.9,72.8,426.3,74.3z"/>
	<path d="M178.5,494.3c4.5,8.5,8.8,16.8,13.7,26.1c-10.9-6.1-12.4-17.8-19.1-25.1C175.2,494.9,177.1,494.5,178.5,494.3z"/>
	<path d="M216.2,110.8c0.5,0.8,1.2,1.8,1.9,2.8c-7.4,4.9-9.6,9.6-6.6,16.4c1.3-1.5,2.4-2.7,3.9-4.5c0.7,1.4,1.3,2.7,2,4.2
		c-2.7,0.8-4.8,1.4-7,2.1c0.8,4.3-0.2,5.5-5.7,5.1c2.6-2.5,5-4.5,1.7-8.3c-1.1-1.3,0.1-5.8,1.5-8
		C210.3,116.9,213.6,113.8,216.2,110.8z"/>
	<path d="M154.5,669.8c0.7,7.4,2.2,14.9,2,22.3c-0.2,7.3-2.4,14.4-9.5,19.2c6.3-13.2,9.2-26.9,5.5-41.4
		C153.2,669.9,153.8,669.9,154.5,669.8z"/>
	<path d="M321.5,79.3c7.1-6.1,35.9-8.9,39.2-5.4C348,75.7,334.7,77.5,321.5,79.3z"/>
	<path d="M152.6,541c3.5,3.6,6.1,7.6,5.2,12.7c-0.8,4.6-1.8,9.1-3.1,13.6c-0.8,2.9-2.4,3.3-4.5,2.2C156.4,560.5,156.2,551,152.6,541
		z"/>
	<path d="M150.4,536.8c3.3-4.3,6.7-8.6,10.2-13c0.8,4.2,1.5,7.9,2.2,11.7c-2.5-1.2-4.7-2.3-7.5-3.7c-0.2,3.2-0.4,5.4-0.6,8.3
		C152.9,538.7,151.6,537.7,150.4,536.8z"/>
	<path d="M241.1,147.7c-0.8-0.1-1.8,0.1-2.4-0.3c-1.6-1-3.1-2.2-5-3.5c1.8-1.4,4.2-3.5,6.8-5.1c1.2-0.8,2.9-0.9,4.4-0.9
		c0.3,0,1.2,2.3,0.8,2.8c-1,1.5-2.4,2.6-3.8,3.8c-0.3,0.2-1.1-0.2-1.9-0.3c0.4,1.5,0.6,2.6,0.9,3.7
		C241,147.8,241.1,147.7,241.1,147.7z"/>
	<path d="M144.6,319.6c0.4,4.6,0.8,9.2,1.2,13.3c-2,1.2-3.6,2.1-5.8,3.5c0.8-5.8,1.6-11.4,2.4-17.1
		C143.2,319.4,143.9,319.5,144.6,319.6z"/>
	<path d="M142,578.4c-0.9-0.7-1.9-1.4-2.6-1.9c0.8-4.3,1.5-8.3,2.3-12.5c4,4.3,2.6,17.2-3.2,19.8C140.2,581.3,141.1,579.9,142,578.4
		z"/>
	<path d="M560.6,728.2c-3.4-3.3-7-6.4-10.2-9.9c-1.6-1.7-2.5-4-3.4-6.4C551.3,717.6,559,720.1,560.6,728.2
		C560.5,728.2,560.6,728.2,560.6,728.2z"/>
	<path d="M306.4,75.3c-7.7,2.5-15.3,5.1-23,7.6c-0.1-0.3-0.2-0.6-0.4-0.9c7.6-2.8,15.1-5.6,22.7-8.4C306,74.2,306.2,74.7,306.4,75.3
		z"/>
	<path d="M259.3,155.4c1.4-3.7,2.9-7.3,8.8-7.2c-2.5,3-4.9,5.7-7.2,8.5C260.3,156.2,259.8,155.8,259.3,155.4z"/>
	<path d="M446.8,263.9c4.8-1.8,9.6-3.6,14.4-5.4c0.2,0.6,0.4,1.1,0.7,1.7c-4.8,1.8-9.6,3.6-14.4,5.4
		C447.3,264.9,447,264.4,446.8,263.9z"/>
	<path d="M453.9,79.9c3.9,1.1,7.8,2.3,11.8,3.4c-2.3,2.3-5.6,1.7-12.1-2C453.7,80.9,453.8,80.4,453.9,79.9z"/>
	<path d="M151.5,624.4c1.1,4.4-2.6,6.7-4.5,9.8c-0.5-0.2-0.9-0.4-1.4-0.6c1.5-3.2,2.9-6.4,4.4-9.7
		C150.5,624.1,151,624.3,151.5,624.4z"/>
	<path d="M151.3,529.5c1.1-4,2-7.6,3.4-12.8c0.3,4.9,0.5,8.6,0.8,12.5C153.4,529.3,151.9,529.4,151.3,529.5z"/>
	<path d="M236.8,88.2c4.7-3.5,9.4-7,14.2-10.5c0.2,0.3,0.5,0.6,0.7,0.9c-4.7,3.5-9.4,7-14.1,10.6C237.3,88.9,237,88.5,236.8,88.2z"
		/>
	<path d="M283.5,247.3c4.5,0.4,7.7,0.7,10.9,1c0,0.4,0,0.9-0.1,1.3c-1.6,0-3.2,0-4.8,0c-1,0-2.1-0.1-2.9,0.3c-0.6,0.3-0.9,1.3-1.3,2
		C284.9,250.7,284.4,249.4,283.5,247.3z"/>
	<path d="M134.9,448.8c0.6,3.8,1.2,7.6,1.9,11.4c-0.5,0.1-1,0.2-1.6,0.2c-0.8-3.7-1.6-7.5-2.3-11.2
		C133.5,449.1,134.2,449,134.9,448.8z"/>
	<path d="M258.4,101.3c0.4-1.2,0.5-2.9,1.3-3.6c2-1.5,4.3-2.4,6.6-3.6c0.3,0.3,0.6,0.7,0.9,1C264.2,97.2,261.3,99.3,258.4,101.3
		C258.3,101.4,258.4,101.3,258.4,101.3z"/>
	<path class="st0" d="M675.5,757.3c-0.1,0.1-0.1,0.1-0.2,0.2c0.8,2.2,1.2,4.6,2.4,6.6c0.5,0.7,1,1.4,1.6,2.1
		C677.9,763.2,676.6,760.3,675.5,757.3z"/>
</g>
</svg>
