<?xml version="1.0" encoding="utf-8"?>
<!-- Generator: Adobe Illustrator 20.0.0, SVG Export Plug-In . SVG Version: 6.00 Build 0)  -->
<svg version="1.1" id="Слой_1" xmlns="http://www.w3.org/2000/svg" xmlns:xlink="http://www.w3.org/1999/xlink" x="0px" y="0px"
	 viewBox="0 0 721.6 855" style="enable-background:new 0 0 721.6 855;" xml:space="preserve">
<g>
	<path d="M566.5,778.4c-4.3,0.3-8.7,0.2-12.9-0.3c-5.4-0.6-10.3-0.7-15.3,2.2c-4.1,2.4-8.9,3.7-14,5.7c1,2.1,2.2,4.4,3.4,6.8
		c6-5.6,6-5.4,13.2-5.7c8.1-0.3,16.1-0.6,24.2-1.4C565.5,783.3,566,780.8,566.5,778.4z"/>
	<path d="M537.5,639.4c3,7.7,6.7,15.2,10.5,22.6c1.4,2.6,1.9,6.5,6.4,6.5c0.8,0,1.6,1.6,2.2,2.3c-0.4,0.5-0.9,1.2-1.4,1.8
		c0.2,0.2,0.4,0.3,0.6,0.5c0.7-0.5,1.3-0.9,2.2-1.5c0.3,1.1,0.2,2.4,0.7,2.7c4.3,3.1,8.6,6,13,9c0.3,0.2,0.8,0.2,1.2,0.3
		c-0.2-0.4-0.4-0.8-0.6-1.3c-0.9-1.9-1.9-3.8-2.7-5.7c0-0.1,1.5-1.1,1.7-0.9c1.8,1.5,3.7,3,5,4.9c1.6,2.2,2.4,5,3.9,7.3
		c3.1,4.9,6.3,9.6,9.6,14.3c0.7,1,2.2,1.5,3.3,2.3c0.6,0.4,1.2,0.9,1.6,1.4c0.3,0.3,0.2,1,0.5,1.2c3,2.1,3.9,6,2.4,9.3
		c-0.3,0.7,0.3,2,0.6,3c0.1,0.4,0.6,0.7,0.6,1.1c-0.2,3.2,1.4,5.1,4.4,4.8c1.6-0.2,2.5,0,2.8,1.3c2.7-1.1,5.5-2.1,8.4-2.8l17.4-2.3
		c0.8,0,1.6,0.1,2.4,0.1c19.9-11.8,43.3-13.2,65.3-7.5c0.3-0.1,0.6-0.2,0.8-0.2c6.8-1,13.9-2.5,21-2.8c-0.9-2.2-1.9-4.4-2.8-6.6
		c-0.5-1.5-0.9-3.1-1.2-4.6c-12.2-14.8-25.1-29-36.7-44.3c-4.4-5.7-7.8-11.6-10.8-18.1c-7.8-16.5-14.2-33.4-19-51
		c-3.4-12.7-6.2-25.6-9.8-38.2c-3.5-12.4-7.5-24.7-10.9-37.2c-4.2-15.3-7.8-31-10.3-46.9c-1.1-3.5-2.2-7.1-3.2-10.6
		c-1.4-5.1-1.9-10.4-3.3-15.4c-2.5-8.8-5.5-17.6-8.2-26.4c-1.8-5.7-3.5-11.4-5-17.2c-2-7.7-3.6-15.5-5.5-23.2
		c-1.8-7.5-4.1-14.8-5.7-22.3c-1.5-6.8-2.5-13.7-3.7-20.6c-0.8-4.2-1.7-8.3-2.4-12.5c-1.2-7.5-2.2-15-3.6-22.5
		c-1.9-10.3-4.2-20.6-6.1-31c-2.2-12.1-4.2-24.2-6-36.3c-1.1-7.5-1.9-14.9-4.4-22.1c-1.7-4.9-3-10.1-3.8-15.3
		c-1.4-9.4-4.5-18.2-8-26.9c-2.8-7-5.7-13.9-8.7-20.9c-4.1-9.6-8-19.3-12.5-28.7c-2.9-6.1-7-11.5-9.9-17.6
		c-2.9-5.9-7.5-10.6-10.8-16.3c-3-5.3-7.8-9.7-11.8-14.4c-5.4-6.3-10.8-12.4-16.3-18.6c-0.3-0.3-1-0.3-1.3-0.6c-1.1-0.9-3.1-2-3-2.8
		c0.4-4-2.8-5.4-4.9-7.2c-3.7-3.3-6.4-8-11.9-9.1c-0.5-0.1-1.4-0.8-1.3-1c0.9-3.3-1.8-3.2-3.7-4.1c-1-0.5-1.8-1.5-2.5-2.4
		c-1.5-2.1-6-3.8-7.5-2.9c-2-7-8.4-7.4-13.8-8.7c-1.7,0.7-3.5,1.2-5.4,1.4c-0.8,0.1-1.8-0.8-2.4-0.6c-1.3,0.5-2.5,1.4-4.1,2.3
		c1.1,0.4,1.6,0.6,2.1,0.7c-1.8,1.4-3.5,2.7-5.9,4.6c1.9,0.4,3.2,0.6,4.4,0.8c0,0.2,0.1,0.4,0.1,0.5c-4.1,0.8-8.2,1.6-12.4,2.5
		c0,0.4,0,0.8,0,1.2c5.1,4.1,11.4,5.3,17.2,7.8c0.2-0.4,0.3-0.7,0.5-1.1l-1.7-1.1c0.1-0.4,0.3-0.8,0.4-1.2c4.4,1.4,8.8,2.7,13.1,4.2
		c0.3,0.1,0.2,1.7,0.3,3.1c-2.1-1.1-3.6-1.9-5.2-2.7c-2.5,1.6,0.9,2.1,1.6,4c-1.7,0.1-3,0.2-5.2,0.3c2.7,1.1,4.5,1.9,7.1,2.9
		c-5.7,0.6-10.6,1.1-15.4,1.7c0,0.3,0,0.7,0,1c0.9,0.6,1.8,1.1,3.1,2c-1.6,1.2-3,2.2-4.3,3.1c1.8,0.5,5.3,0.7,5.6,1.8
		c0.5,2.1,1.1,3,3.1,2.7c1.4-0.2,2.9-0.5,4.4-0.8c-0.5,1.3-1.1,2.8-1.7,4.3c4.2,0.2,6.6,3.1,10.3,5.8c-4.8,0.8-8.4,2.4-10.1-2.6
		c-0.2-0.6-2.1-0.5-3.3-0.7c-0.9-0.2-1.9-0.3-2.9-0.3c-5.5-0.4-11-0.7-16.5-1.1c-0.6,0-1.6-0.1-1.7-0.3c-0.4-4.1-3.5-2.2-6.6-2.7
		c1.7-1.5,2.9-2.7,4.1-3.8c-1.1-0.5-2.1-1.1-3.9-1.9c2.3-0.8,3.9-1.4,5.8-2.1c-0.8-0.7-1.3-1.2-2.2-2c3.2-1.2,7.1,0.9,9.4-3.8
		c-2.7-0.5-5.1-1.1-7.4-1.2c-2.5-0.1-5.1,0.3-7.6,0.5c-1.4,1-3,2.3-4.7,3.3c-0.4,0.3-1.3-0.2-1.9-0.3c0.2-0.7,0.2-1.5,0.6-1.9
		c2.4-2.4,4.9-4.7,7.5-7c0.6-0.5,1.4-0.8,2-1.2c-0.1,0.8-0.2,1.7-0.4,2.9c2.1-0.5,4-1,5-1.2c-0.5-2.5-0.9-4.4-1.3-6.5
		c-2.3-0.2-5-0.5-8.1-0.7c1-1.1,1.8-1.9,1.9-2c-0.7-2.7-1.3-4.6-1.9-6.9c-0.3-0.1-1.2-0.3-2.3-0.6c0.6-1,1.1-1.7,1.5-2.3
		c-4.2-2.7-6.4-2.1-7.7,2.1c-0.7-0.9-1.1-1.8-1.8-2.5c-1-1-2-2.5-3.1-2.7c-3.2-0.3-6.6,0.3-9.8-0.1c-3.1-0.4-7-0.6-9-2.5
		c-3-2.9-6.2-3-9.6-3.5c-1-0.2-2-0.5-3-0.8h-13.5c0.8,3.5-3.8,1.9-4.2,4.7c1.2,0.1,2.3,0.2,3.4,0.2l0.1,0.6c-6.2,2-12.3,4-18.5,6
		l0.4,1c4.9,0.4,4.9,0.4,5.5,2.3c-9.6,3.9-19.2,7.8-28.7,11.7c0.1,0.3,0.2,0.6,0.3,0.9c0.8,0.2,1.6,0.4,2.4,0.6
		c0,0.3,0.1,0.6,0.1,0.9c-3.9,0.8-8.1,0.9-11.6,2.4c-7.8,3.2-15.6,6.8-22.9,10.9c-7,4-13.8,8.6-20.1,13.5
		c-5.7,4.5-10.8,9.8-15.9,14.8c-3.2,3.2-6.2,6.6-9.2,10c-1,1.2-1.9,2.4-2.9,3.7c0.2,0.2,0.5,0.4,0.7,0.6c1.2-1,2.6-1.9,3.7-2.9
		c4-3.9,7.6-8.1,11.9-11.7c4.4-3.8,9.1-7.3,14-10.3c6.6-4,11.8-9.8,19.2-12.7c5.1-2.1,9.8-5.2,14.7-7.8c10-5.3,20.4-9.8,31.2-13.2
		c1-0.3,2.1-0.5,3.2-0.6c2.9-0.4,5.8-0.8,8.6-1.3c2-0.3,4-0.7,5-0.8c-1,1.3-2.1,3.5-3.8,4.6c-1.8,1.2-4.3,1.6-6.7,2.3
		c0.5,0.7,0.8,1.3,1.4,2.1c-3.1,0.8-5.9,1.5-8.7,2.2c0,0.2,0.1,0.5,0.1,0.7h6.6c0,0.2,0,0.3,0,0.5c-4.3,1.7-8.5,3.4-12.8,5.1
		c1.2,0.1,2.3-0.1,3.4-0.4c3.6-1,7.3-2,10.9-3.1c2.6-0.8,3.9,1.5,5.9,2.1c3,0.9,6.4,0.6,9.5,0.9c2,0.2,4,0.6,6.2,1
		c-0.1,0.7-0.2,1.7-0.2,2.3c-6.2,2.3-12.9,0.9-18.5,4.1c2.6,1,4.7,1.9,6.9,2.8c-0.1,0.3-0.2,0.6-0.3,1c-5.5,1.4-11.1,2.8-16.6,4.1
		l0,0.3c1.3-0.1,2.6-0.2,3.9-0.2c0,0.4,0.1,0.8,0.1,1.2c-3.1,0.5-6.3,0.9-9.3,1.7c-2.4,0.6-5,1.4-4.3,4.8c1.1-0.2,2.3-0.3,4.2-0.6
		c-6.6,3.1-12.5,5.7-18.3,8.4c-0.9,0.4-2,0.7-2.5,1.4c-1.7,2.2-2.7,5.9-4.9,6.7c-5.5,2-4.5,8-8.5,10.6c0.4,0.3,0.7,0.6,1.1,0.9
		c1.6-1.9,3.2-3.8,4.4-5.2c0.2,0.1,1.1,0.7,1.9,1.2c-0.6,1.3-1.3,2.7-2.1,4.1c0.2,0.2,0.4,0.4,0.6,0.5c3-1.9,5.9-3.8,9-5.7
		c0,0.4,0.1,1.1,0.3,2.5c1.1-1.8,1.8-2.9,2-3.2c1.7,0,3,0.4,3.8-0.1c3-1.7,5.8-3.8,8.8-5.5c2.6-1.4,5-3.1,8.6-2.7
		c2.9,0.3,6-2.3,9.1-3c6.3-1.6,12.6-3.4,19-3.9c9.8-0.8,19.6-0.7,29.4-1c-0.2-0.3-0.4-0.6-0.6-0.9c1.8-0.9,3.5-1.8,5.3-2.8
		c0.2-0.1,0.3-0.2,0.6-0.4c0.7,0.6,1.5,1.2,2.4,2.1c1.9-1.4,3.9-2.7,5.8-4c0.2,0.3,0.7,0.8,1.1,1.4c0.6-1.1,1.1-2.2,1.4-2.7
		c-0.9-1.9-1.6-3.6-2.5-5.6c1.5,0.3,2.4,0.4,3.2,0.5c-0.2-0.8-0.2-1.7-0.5-2.4c-1.1-2.1-2.4-4.1-3.4-5.9c-0.3-3.9-0.7-7.7-0.9-10.3
		c1.5-2.6,4.1-5.2,3.6-6.4c-1.8-4.4,0.1-8,0.6-11.9c1.8,0.5,3.1,0.8,4.4,1.3c0.1,0-0.3,1.4-0.5,2.1c-0.2-0.1-0.4-0.2-0.6-0.3
		c0.6,3,1.3,6,1.9,9.1c2.1-0.4,3.4-0.7,5.5-1.1c-1.7,1.5-2.6,2.9-3.8,3.3c-2,0.7-2.1,1.9-1.3,3.4c0.4,0.8,0.8,1.7,1.4,2.1
		c2.5,1.4,5.1,2.5,7.7,3.7c-1.9,1.6-3.6,3-4.8,3.9c0.8,3.2,1.3,5.6,1.9,7.9c1.9-1.4,2.7-0.8,3.2,2.1c0.4,2.3,1.7,4.5,2.9,6.6
		c0.3,0.6,1.4,0.9,2,1.2c0.1-0.5,0.3-1.4,0.6-2.4c0.3,0,0.5,0.1,0.8,0.1v4.6c1.5,0.3,2.9,0.4,4.1,1c2.6,1.4,5,3.3,7.6,4.7
		c3.4,1.8,7.6,2.7,10.4,5.2c5.7,5.1,11.1,10.4,17.9,14.1c1.2,0.6,1.8,2.1,2.8,3.2c3.3,4.1,6.6,8.2,10,12.2c2.3,2.7,4.8,5.3,7.2,8
		c0.2,0.2,0.3,0.4,0.4,0.6c1.1,2.8,2,5.7,3.4,8.3c3.8,7.4,7.8,14.7,11.8,22.1c1.9,3.5,3.3,7.5,5.9,10.4c2.3,2.6,3.8,5,3.9,8.4
		c0,0.4,0.4,0.9,0.6,1.3c2.3,6.3,4.7,12.5,6.8,18.8c1.5,4.6,2.7,9.3,4,14c1.7,6.2,3.5,12.4,5.1,18.7c0.2,0.6,0,1.3,0,1.9
		c-0.8-0.1-1.8,0-2.3-0.4c-4.1-3.5-7.7-7.3-13.3-8.9c-3.3-1-5.8-4.4-8.8-6.4c-1.2-0.8-2.9-0.7-4.4-1c-0.1,0.3-0.3,0.7-0.4,1
		c0.6,0.3,1.2,0.6,1.9,0.9c-0.2,0.2-0.4,0.5-0.6,0.7c-0.8-0.6-1.5-1.2-2.3-1.7c-1.1-0.6-2.6-1.7-3.3-1.4c-3.8,1.8-7.4,1.4-10.7-0.8
		c-0.3,0.8-0.5,1.4-0.8,2c-1-0.6-1.9-1.3-2.7-1.8c-2.6,0.2-5.3,0-7.7,0.7c-5.6,1.7-11,3.8-16.5,5.7c-1.3,0.4-2.5,1.2-3.8,1.4
		c-6.1,1.2-11.5,6.6-12.8,13.3c1,0,1.9,0.2,2.9,0.1c4.7-0.5,9.3-0.9,14-1.5c7.5-1,15-2.2,22.6-3.3c9-1.2,18-2.4,27-3.4
		c1.6-0.2,3.4,0.4,5.1,0.6c0.1-0.2,0.1-0.4,0.2-0.6c-1.1-0.9-2.1-1.8-3.6-3c5.8,1.1,12.5,5.8,14.8,9.9c0.7,1.3,1.5,2.5,2.3,3.7
		c2.9,4.7,6.7,8.8,7,14.7c0.5,9,0.1,17.9,4.1,26.8c3.8,8.3,4.5,17.9,7.3,26.8c3.1,10,2.3,20.3,1.6,30.3c-0.6,8.2-3.2,16.3-5.2,24.3
		c-3,11.8-6.4,23.6-9.3,35.4c-2.8,11.4-4.2,23-8,34.2c-4,11.5-8.8,22.6-15,33c-4.7,7.9-10.3,15.2-16.2,22.3
		c-10.9,13.1-23.4,24.6-37,35c-5.7,4.3-7.2,8.8-4.6,15.6c0.2,0.6-0.4,1.5-0.2,2c0.5,1.2,1.4,2.3,2.1,3.5c0.2-0.1,0.4-0.2,0.7-0.4
		c0.7,5.9,1.5,11.7,2.4,19.6v11.3c0.5,1,1.4,2,1.4,3c0.3,5.3,0.3,10.6,2.2,15.7c1.1,2.9,1.3,6.2,1.8,9.3c1.2,4.1,9.2,2.9,7.6,10.1
		c1.1-0.5,2.1-0.9,3.3-1.5c0.2,3.6-0.9,7.3,3.9,8.3c2.3,0.5,4.3,1.4,3.5,4.6c-0.1,0.5,1.1,1.4,1.8,2.2c0.5,0.5,1.2,1,1.3,1.6
		c1,4,2.3,7.7,6.8,8.9c0.3,0.1,0.5,0.4,0.7,0.7c2.2,3.3,2.3,7.8,6.5,9.8c2.5,1.2,4.4,3.8,7.8,2.8c-0.2,0.9-0.4,1.9-0.7,3.3
		c1.4-0.8,2.3-1.3,3.9-2.1c-1.4,11.4-5.9,20.9-10.4,30.7c8.6,2.3,12-6,18-8.5c0.4,0.8,0.7,1.5,1,2.1c1.1-3,1.4-5.8,1.6-8.7
		c1-11.1,2-22.1,2.9-33.2c0.4-4.8,0.4-9.7,0.8-14.5c0.2-1.9,1.4-3.7,1.3-5.6c-0.3-6.4-0.9-12.8-1.3-19.3c-0.1-1.2,0.5-2.4,1-4.7
		c1.8,2.3,3,3.5,3.8,4.9c5.2,9.2,10.4,18.4,15.4,27.7c1.1,2.1,1.9,4.4,2.8,6.6c0.2,0.5,0,1.1,0,1.6c-0.6,0-1.4,0.2-1.8-0.1
		c-2.3-1.9-4.6-4-6.9-6c-0.9-0.8-2.1-1.2-3.1-1.8c4.2,7.1,9.3,12.8,16,17.3C531.5,629.9,535.4,633.9,537.5,639.4z M341.7,45.7
		c0.9-1.4,1.8-2.8,2.6-4.2c1.1,2.1,1.9,3.7,2.9,5.8C345.3,46.8,343.5,46.2,341.7,45.7z M440.3,46c-2.5,0-4.6,0-6.7,0
		c-0.4,0-1-0.6-1-0.9c0-0.5,0.3-1.3,0.7-1.5c2.3-0.9,4.7-1.7,7.6-2.7c-1.2,1.4-2,2.3-3,3.5C438.6,44.8,439.4,45.3,440.3,46z
		 M449,40.4c-5.1,0.4-8.5-3.9-13-5.1c0.2-0.4,0.3-0.8,0.5-1.2c4.3,1.7,8.7,3.3,13,5L449,40.4z M511.8,587
		c-3.4-6.2-7.1-11.7-8.7-18.1c0.4-0.2,0.8-0.4,1.2-0.6c2.8,5.7,5.7,11.4,8.5,17C512.6,585.7,512.2,586.3,511.8,587z"/>
	<path d="M269.5,557.8c-0.3-7.4-0.7-14.9-1.4-22.3c-0.6-6.2-1.7-12.4-2.3-18.7c-0.9-8.8-1.4-17.7-2.4-26.5
		c-0.5-4.3-0.8-8.8-3.6-12.6c-3.5-4.6-6.9-9.2-10.3-13.8c-3.9-5.4-8.1-10.5-11.4-16.3c-4.9-8.6-9.4-17.4-13.5-26.4
		c-3.1-6.9-5.9-14-8-21.2c-3.1-10.9-5.2-22.1-7.9-33.1c-0.7-2.7-1.7-5.4-3-7.8c-0.5-1-2.1-1.4-3.2-2c-0.1,0-1,0.9-1,1.3
		c0.1,2.4,0.1,4.9,0.8,7.2c1.6,5.4,0.9,7-4.8,8.1c0.3-1.6,1.3-3.8,0.8-4.4c-2.5-2.5-1.1-4.3,0.6-6.3c-1.3-0.6-2.4-1.1-4-1.8
		c0.9-3.1,1.9-6.2,2.8-9.4c-5,2.8-5.4,2.6-5.2-3c0.1-1.8,1.1-3.5,1.3-5.2c0.4-2.6,1.6-6.1,0.4-7.8c-1.3-1.9-0.8-2.8-0.4-4.3
		c0.6-2.5,1.2-5,1.8-7.5c0.1-0.6,0.3-1.5,0-1.9c-3-3.6-2.4-7.9-2.3-12c0-1,0.8-2,1.2-3c0.3,0.1,0.6,0.1,0.9,0.2
		c0.7,3.1,1.4,6.2,2.1,9.3c0.5-0.1,1-0.2,1.5-0.3c-0.9-5.4-1.3-10.9-2.7-16.1c-2.5-9.1-3.8-18.2-3.1-27.5c0.1-1-0.1-2,0-3
		c0.5-3.1,1-6.3,1.7-9.4c1.2-4.6,2.8-9,3.8-13.6c0.5-2.4,0.1-5,0.1-7.5c-0.2,0-0.4-0.1-0.5-0.1c-1,3.1-2,6.2-3.3,10.1
		c-0.2-1.9-0.4-3-0.5-4.1c-0.3,0-0.6,0.1-0.9,0.1c0.1,1.5,0.2,3.1,0.2,3.5c-1,1.6-1.8,2.4-2,3.3c-0.9,5.5-1.6,11-2.4,16.5
		c-1.4,9.6-3.6,19-3,28.8c0.1,1.8-0.6,3.6-0.5,5.5c0,1.1,0.6,2.4,1.4,3.1c1.9,1.8,3.1,8,1.5,10.1c-0.9-2.8-1.7-5.5-2.7-8.7
		c-0.9,6.1-0.9,6.1,0.9,11.1c0.2,0.5,0.1,1,0.2,1.5c0.3,6.5,0.7,13,0.7,19.5c0,5.3-0.9,10.6-0.6,15.9c0.6,10.3,1.6,20.6,3,30.9
		c0.8,5.7,0.2,11.9,3.8,17c0.3,0.4,0.4,0.9,0.4,1.3c-0.2,6.6,1.1,12.9,3.4,19c0.8,2.2,2.8,4.8,2.3,6.7c-1.4,5.6,1.3,10.5,2.3,15.5
		c0.8,3.7,1.5,6.8-0.3,10.2c-4.1-2.6-0.5-6.7-2.1-9.9c-0.4,0.7-0.8,1.3-1.1,1.8c-6.2-12.1-12.2-23.8-18.6-36.3
		c-0.8,1.9-1.7,3.1-1.4,3.5c2.6,3.8,0.8,7.3,0.1,11.1c-0.6,3.5-1.8,3.7-4.6,2.7c-0.1,2,0,3.8-0.3,5.5c-1.4,9.8-0.9,19.5,1.1,29.2
		c0.2,0.8,1.5,1.6,2.5,1.8c2,0.4,3,2.1,2,4c-0.2,0.4-0.7,0.9-0.6,1.3c0.6,3.1,0.9,6.4,2.1,9.3c1.7,4.3-2,6.8-2.4,10.2
		c-0.3-1,0-2-0.2-2.8c-0.9-2.8-2.2-5.4-3.1-8.2c-0.3-1-0.1-2.4,0.3-3.4c1.7-4.2,1.7-4.2-1.5-9.1c-0.6,10.3-1.2,19.7-1.7,29
		c-0.3,0-0.5,0.1-0.8,0.1c-0.8-5.7-1.7-11.4-2.5-17c-0.3,0.1-0.5,0.1-0.8,0.2c-0.6,7.6-1.2,15.2-1.8,22.8c-0.2,0-0.3,0-0.5,0
		c-0.2-1.3-0.4-2.5-0.6-4.3c-2.5,1.6-3.1,3.5-3.3,5.9c-0.8,9.4,2.5,18.5,1.5,27.9c-0.5,4.8-0.5,9.6-0.8,14.4c0,0.6-0.5,1.1-0.7,1.7
		c-0.5,1.4-1.2,2.8-1.4,4.2c-0.7,4.9-1.3,9.8-1.9,14.7c-0.4,0-0.8-0.1-1.1-0.1v-20.9c-0.3-0.1-0.7-0.2-1-0.3c-0.7,1-1.5,2-2,3.1
		c-2,5.4-4,10.7-5.8,16.1c-2,6-3.4,12.1-5.6,18c-1.3,3.5-1.5,7.6-5.3,9.9c-2.9,1.8-2.8,3.9-0.2,5.6c-0.5,3.9-4.7,6.2-3.7,10.6
		c0.1,0.5-0.7,3.7-3.5,2.9c-0.7-0.2-1.8,0.6-3.1,1.2c0.4,2.2,0.8,4.5,1.2,6.9c1.3-0.6,2.2-1.1,3.1-1.5c0.3,0.3,0.7,0.6,1,0.9
		c-4,2.4-2.8,7.6-7.2,10.3c-3.6,2.2-6.1,6.3-9,9.6c-0.8,2.2-1.8,4.7-2.7,7.2c-0.4-0.1-0.8-0.2-1.2-0.3c0.2-1.6,0.3-3.3,0.5-4.9
		c-0.4-0.2-0.8-0.3-1.2-0.5c-4.8,10.7-9.6,21.3-14.6,32.4c0.1,0.1,0.6,0.9,1.1,1.7c-0.4-0.2-0.7-0.3-1.1-0.5
		c-2.7,3.8-5.7,7.4-7.9,11.5c-5.1,9.9-9.6,20-14.8,29.9c-1.5,2.9-1.4,4.1,1.2,4.9c-3.7,4.6-7.4,9.4-11.3,14.1
		c-1.4,1.7-3.2,3.2-4.8,4.8c-0.9,1.1,1,4.2-3.1,3.2c0.3-1.4,0.7-2.7,1-4.1c-0.3-0.3-0.7-0.6-1-0.8c-2.6,2.4-5.1,5-7.9,7.1
		c-3,2.2-6.3,5.5-9.4,5.9c1.4,1.6,2.7,3.4,3.9,5.2c1.2,1.3,2.3,2.7,3.4,4.1c0.4,0,0.8,0.1,1.2,0.1c1.3-1.9,2.5-3.8,3.8-5.7
		c0.6,0.2,1.3,0.4,2.4,0.8c-1.6,1.8-3,3.4-4.4,5.1c7.7,0.7,15,1.8,22.1,3.6c2.3-6.3,4.7-12.5,7.1-18.7c0.9-2.3,1.9-4.5,2.5-6.8
		c0.6-1.9,2.5-3.7,0.1-6c-0.6-0.6,0.5-3.4,1.2-5.1c3.4-7.7,6.8-15.5,10.4-23.1c3.5-7.4,6.9-14.8,10.8-22c1-1.8,3.7-2.6,5.5-3.9
		c0.4,0.2,0.8,0.5,1.2,0.7c-1.7,5.1-3.1,10.2-5.1,15.1c-2.3,5.9-5,11.6-7.7,17.3c-1.1,2.4-2.7,4.6-3.8,6.9
		c-3.9,7.9-8.6,15.7-11.4,24c-1.6,4.8-4.9,9.2-4.4,14.7c0.2,1.8-1.6,3.8-2,5.7c-0.2,0.7,0,1.4,0.1,2.1c6.4,1.9,12.8,4.3,19.3,7.4
		c0-1.3-0.3-2.7,0.1-3.9c0.6-1.6,1.4-3.4,2.7-4.5c1.5-1.3,3.5-2,5.3-2.9c1.4,3-1.6,7.8-7.9,11.5c0.6,0.3,1.2,0.6,1.8,0.9
		c1.6,0.8,3,1.7,4.5,2.7c1.3,0.9,2.6,1.8,3.9,2.8c0.8-2,1.9-4.4,2.9-4.4c3.5-0.2,3.8-1.8,3.3-4.4c1.3-0.2,2.5-0.4,3.7-0.6
		c-0.3-0.3-0.6-0.6-1-0.9c1.3-1.9,2.6-3.7,3.9-5.6c0.5,0.3,1,0.6,1.5,0.9c-2.6,4.5-5.2,9-7.7,13.6c-0.7,1.3-1.3,2.6-1.9,3.9
		c1.4,0.5,2.8,1,4.1,1.6c0-0.1,0.1-0.2,0.1-0.3c3,0.3,5.2,0.5,7.4,0.7c2.1-2,4.4-4.1,6.9-4.4c2.5-0.3,4.5,0.9,7.2-1.5
		c3.7-3.2,8.8-4.7,13.2-7.1c3.3-1.8,6.6-3.8,10.8-6.2c-10.1-1.5-18.8-3.4-27.7-3.9c-4.4-0.3-9.5-2.1-14.2,1.5
		c0.3-2.5,0.9-4.9,1.8-7.3c1.1-2.9,2.5-5.7,3.9-8.5c0.3-0.7,1.1-1.2,1.6-1.9c1-1.2,2-2.4,2.9-3.6c2.7-4,5.3-8.2,8-12.2
		c2.4-3.4,5.3-6.5,7.5-10c4.5-7,8.7-14.3,13.1-21.6c1.1,0.6,1.9,1,3,1.6c1-1.5,2-2.8,2.8-4.3c1.4-2.4,2.8-4.8,4-7.4
		c3.5-8.1,7.2-16.1,10.2-24.4c1.3-3.7,1.1-7.9,5-10.3c0.4-0.2,0.8-0.7,0.9-1.1c1.7-4.9,5.2-8.4,8.5-12.1c0.8-0.9,1.1-2.3,2-4.2
		c-3.6,2.7-6.2,4.7-8.8,6.7c1.9-4.1,3.5-7.8,5.2-11.5c0.2-0.5,0.6-1,1-1.5c1.7-2.7,3.5-5.3,5-8.1c2.3-4.5,3.6-9.7,6.6-13.6
		c2.1-2.9,3.9-5.6,5-9c2.1-6,5.1-11.5,11.6-15.7c-1.3,6.2-3.6,11.9,2.1,16.5c-3,1-4,2.5-2.8,5.4c0.5,1.1-0.3,3.5-1.3,4.3
		c-4.2,3-4.4,8.2-5.6,12.1c-2.6,9-1,18.3,1.4,27.3c1.1,4.1,1.4,8.4,2,12.7c0.5,3.8,0.2,7.8,1.3,11.3c2.3,7,6.2,13.5,4.8,21.4
		c-0.1,0.8,0.4,1.6,0.6,2.5c1,4.3,2.2,8.5,3.1,12.8c0.9,4.8,1,9.8,2.4,14.5c2.6,8.5,6,16.7,9.1,25.1c0.3,0,0.6,0,0.9-0.1
		c-0.1-1.6,0.1-3.2-0.3-4.8c-2.4-11-6.4-21.7-5.6-33.3c0-0.5,0-1-0.1-1.5c-2-6.7-4-13.3-3.8-20.5c0.1-3.8,1.7-3.7,4.3-3.6
		c0.9,0,2.5-0.7,2.5-1.1c0.2-3.5,2.2-6.9,0.6-10.7c-0.8-2-0.2-4.6,0.1-6.9c0.1-0.9,1.3-1.7,1.7-2.7c1.3-3.2,1.9-6.9,3.8-9.6
		c2.9-4,6.7-7.4,10.3-10.9c1.7-1.6,2.4-3.4,1-5.2c-3.1-3.9-0.6-7,1.5-9.9c2.9-4.2,4.8-8.8,5.2-13.9c0.2-3.2,0-6.6,1.2-9.5
		c2.4-6,6.2-11.6,8.3-17.7c1.5-4.2,1.4-9,1.7-13.5C269.8,567.1,269.7,562.4,269.5,557.8z M178.4,454.1c-0.3,0-0.5,0-0.8,0
		c-0.3-4.3-0.7-8.6-1-12.8c0.6,0,1.2,0,1.8-0.1V454.1z M106.8,672.2c-0.3,0.7-1.2,1.1-1.9,1.6c-0.2-0.8-0.6-1.7-0.4-2.4
		c0.8-2.2,1.7-4.3,2.9-6.3c0.2-0.3,1.6,0,2.5,0C108.7,667.7,107.9,670,106.8,672.2z M111.2,658c1.9-3.5,3.9-6.9,5.9-10.3
		c0.4,0.2,0.9,0.5,1.3,0.7c-1.6,3.6-3.2,7.2-4.9,10.8c-0.3,0.5-1.4,0.7-2.1,1C111.4,659.4,111,658.5,111.2,658z M107.8,727.7
		c2.3-3.5,5.6-6.4,7-10.4c-0.3-0.2-0.5-0.4-0.8-0.6l-3.3,1.6c-0.2-0.2-0.3-0.4-0.5-0.7c1.8-1.6,3.6-3.3,5.4-4.9
		c0.6,1,1.2,2.1,1.9,3.4C115.1,720.1,113.6,725.7,107.8,727.7z M121.2,715.1c-0.3,0.4-1.4,0-3.1,0c1.8-2.2,3.1-3.9,4.4-5.5
		c-0.2-0.2-0.4-0.5-0.6-0.7c-1,0.8-2.2,1.6-3,2.6c-0.9,1.1-1.5,2.6-3.2,1.2c2.3-2.7,4.6-5.3,7-7.9c0.5-0.6,1-1.1,2.1-1.3
		c-0.5,1.8-0.9,3.7-1.4,5.5c0.3,0.1,0.6,0.3,0.8,0.4c5.7-7.9,11.4-15.8,20-20.7C136.6,697.5,128.9,706.4,121.2,715.1z M146.6,644.6
		c-0.3,1.3-0.7,2.5-1.1,3.8c-2.2-1.7-2.2-1.7,1.9-8C147.1,641.9,146.9,643.3,146.6,644.6z M165.3,581.9c-0.4,5.3-0.9,10.6-1.4,15.9
		c-1.4,0-2.4-0.5-1.7-3.2c2-8.1-0.7-15.9-0.5-23.8c0-1.3,0.7-2.5,1.1-3.9c1.1,2.9,2.5,5.2,2.9,7.7
		C166.1,576.9,165.5,579.5,165.3,581.9z M179.9,505c0,0.1-0.9,0.2-1.4,0.2c-0.4-3.5-0.9-6.8-1-10.2c0-0.9,1.1-1.9,2.5-2.4
		C180,496.7,180,500.9,179.9,505z M260.4,497.6c-1.1,1-2.8,1.3-4.3,1.8c-0.4-0.6-0.7-1.1-1.1-1.7c1.4-1.2,2.9-2.4,4.3-3.7
		C259.8,495.3,260.8,497.3,260.4,497.6z"/>
	<path d="M490.9,826.2c0.8-0.5,1.9-1,3-1.5c0-2.9,0.6-3.3,3.9-2.1c3.9-3.9,8.2-7.3,13.1-10.2c2-1.3,4.1-2.4,6.2-3.4
		c0.4-0.6,0.8-1.2,1.1-1.9c-1.3,0.3-2,0.4-2.8,0.6c-5.4,1.4-11.1,2.1-16.1,4.4c-9.1,4.2-17.7,9.3-26.5,14.1L490.9,826.2
		C490.8,826.2,490.8,826.2,490.9,826.2z"/>
	<path d="M181.5,134.3c0.3,1.2,0.6,2.3,1,4c0.2,0,1,0.3,2.8,0.7c-2.7,2.1-5,3.6-7,5.4c-1.6,1.5-2.7,3.3-0.4,4.8
		c1.1-0.5,2.1-0.9,3-1.3c0,1.3,0.5,3-0.2,3.8c-1.5,1.8-2.9,3.1-0.3,5.8c2.4-3.5,4.9-6.8,7.2-10.3c3.3-4.9,6.3-10,9.8-14.8
		c4.5-6,9.6-11.4,16.7-14.6c0.4-0.2,0.9-0.4,1.4-0.6c0.2-0.1,0.4,0,1,0.1c-3.7,2.9-7.2,5.5-10.7,8.2c0.3,0.4,0.5,0.8,0.8,1.2
		c3.9-2.4,7.9-4.9,10-6.2c-10,12-21.3,25.4-32.6,38.9c0.2,0.2,0.5,0.5,0.7,0.7c2.5-2.7,6.7-2.6,8.8-6.5c2.1-3.8,6.3-4.3,11-2.3
		c-2.2,2.1-4.3,4-6.2,6.1c-2.3,2.6-4.7,5.2-6.6,8.1c-3.5,5.4-6.9,10.9-9.9,16.6c-1.8,3.5-3.3,7.3-4.2,11.1c-0.9,3.9-0.8,8-1.2,12.8
		c1.8-0.9,2.6-1.3,3.8-1.9c-0.3,1.3-0.4,2.3-0.6,3.4c5,2.3,8.4-0.5,11.8-3.3c2-1.7,4.1-3.2,6.9-4.1c-0.3,1-0.5,2-0.8,3
		c-0.2-0.2-0.4-0.4-0.6-0.5c-1.1,1.1-2.2,2.3-3.5,3.2c-3,2.2-6,4.6-9.3,6.2c-4.1,2-8.1,3.7-10,8.4c-0.5,1.2-2.7,2.1-4.3,2.5
		c-10.7,3.2-15.1,12-18.5,21.3c-2.2,6.1-3.4,12.7-4.8,19.1c-0.7,3.5-1.3,7.1-1.3,10.6c0.1,10.9,0.3,21.7,0.8,32.5
		c0.1,2.8,1.4,5.6,1.9,8.5c0.2,1.3-0.1,2.7,0,4c0.2,2.8,0.5,5.7,0.7,8.5c0.1,1.2,0,2.4,0,3.6c-0.1,1.3-0.7,3.1-0.1,4
		c2,2.8,0.7,5-0.5,7.4c-0.3,0.6-0.4,1.5-0.1,2.1c1.7,3.7,0.9,8.1-1.7,12.7c0-1.5,0-2.9,0-4.4c0-1.6,0-3.1,0-5.2
		c-3.6,2.4-5.9,4.6-4,8.9c0.5,1.2-0.6,3.1-0.5,4.7c0.3,5.2,1.1,10.3,1.3,15.4c0.2,5,0,10-0.1,15c0,0.5-0.6,0.9-1.4,2.1
		c-0.7-4.6-1.5-8.4-1.8-12.2c-0.5-5-0.6-10-0.9-15c-0.2-2.6-0.5-5.2-0.7-7.7c-0.7-7.4-0.4-14.7,0.4-22.1c1-9.1-0.6-18.4-0.3-27.5
		c0.4-14.6,0.9-29.1,3.6-43.6c3-16.2,5.4-32.6,8.4-48.8c1.3-7.2,3.3-14.3,5.2-21.3c2.3-8.4,4.7-16.7,7.4-24.9
		c2.4-7.2,4.9-14.5,8.3-21.3C173.6,144,177.9,139.3,181.5,134.3C181.5,134.3,181.5,134.3,181.5,134.3z"/>
	<path d="M474.6,273.3c0.7-3.1,1.7-6,2-8.9c0.3-3.4-6.1-8.7-9.2-7.3c-1.5,0.7-2.5,3.4-2.8,5.3c-0.9,6.9-8,14.2-15.2,13.2
		c-10.3-1.4-13.3-4.1-15.7-14.4c-0.3-1.5-1-2.9-1.5-4.4c-6.2,3.3-9.7,11.6-5.5,16c-3.8-0.3-7.7-0.6-11.5-1.1
		c-0.9-0.1-2.2-1.4-2.2-2.1c0.1-5.8-2.3-12.5,4.4-16.5c5.4-3.3,10.7-7.1,16.5-9.5c8.4-3.5,17.4-4.1,26.5-3.8
		c9.5,0.3,18.2,3.2,26.3,7.6c3.2,1.7,6.4,4.5,8,7.6c1.6,3,1.6,7.1,1.4,10.7c-0.1,1.8-1.7,4.2-3.3,5.2c-1.6,1-4.1,0.7-6.1,0.9
		c-1.9,0.1-3.8,0-5.7,0.2C479.1,272.3,477.1,272.8,474.6,273.3z M439,254.8c-0.9,2.1-1.8,3.6-2.1,5.1c-0.1,0.7,0.8,1.5,1.3,2.3
		c1.1-0.7,2.2-1.3,3.1-1.9C440.6,258.5,440.1,257.2,439,254.8z M460.7,243.3c-4.8-2.1-12.5-1.5-13.3,0
		C451.7,243.3,456.2,243.3,460.7,243.3z"/>
	<path d="M263.4,261.8c1.9,2.3,3.7,4.5,5.5,6.7c0.4,0.6,0.7,1.3,1,1.9c-0.6,0.2-1.2,0.6-1.9,0.7c-8.7,1.6-15.1-3-21.5-8.4
		c2.3-1.9,4.4-3.7,6.8-5.7c0-0.4,0.1-1.4,0.2-2.6c-0.5,0-1.4,0.1-2.2,0.2c-1.4-2.9,9.8-10.4,17.3-11.7c-0.7,0.9-1.2,1.7-1.8,2.4
		c0.3,0.2,0.5,0.4,0.6,0.4c2.8-0.9,5.7-1.5,8.3-2.7c1.1-0.5,4.3,0.1,2.6-3.1c0.8-0.3,1.6-0.8,2.4-0.8c1.6-0.1,3.2,0,5.1,0
		c-0.4,0.8-0.9,1.6-1.3,2.4c0.2,0.4,0.4,0.8,0.6,1.1c2.4-1.2,4.8-2.5,7.2-3.7c0.6-0.3,1.3-0.5,2-0.6c13-1.2,24,3.7,33.3,12.1
		c6.5,5.8,10.4,13.3,7.6,22.5c-5.2,0-10.5,0-16.5,0c1.9-3.1,3.9-5.3,4.5-7.9c0.4-1.6-0.9-4.3-2.2-5.6c-2.2-2-5-3.3-7.6-4.7
		c-3.1-1.7-4.8-0.5-5.4,3.3c-1-1.1-1.6-1.9-2.4-2.7c-0.7,2.8-1.4,5.3-2.2,8.2c2.2,2.4,1.2,6.3-2.6,7.7c-6.1,2.3-11.6,1.7-16.3-2.9
		c-1.7-1.7-2.9-3.9-4.1-5.7c3.4-2.4,6.4-4.6,9.5-6.8C278.4,250.2,272.9,251.4,263.4,261.8z M284.7,267c3.6,1.3,6.4,2.3,9.5,3.4
		c0.5-5.2-4.5-3.6-5.8-6C287.4,265.2,286.3,265.9,284.7,267z"/>
	<path d="M267.1,809.8c5.6,0,10.7,0,15.8,0c1.4,0,2.8,0,4.1,0c6.5,0.3,13,0.3,19.4,0.9c6.2,0.6,12.3,2.4,18.5,2.7
		c10.4,0.6,20.9,1,31.3,0.7c10.3-0.3,20.6-0.9,30.8-2.3c8.2-1.2,16.1-3.9,24.2-5.7c4.4-0.9,9-1.3,13.5-1.6c10.1-0.6,20.3-1,30.4-1.5
		c1.2-0.1,2.5,0,4,0c-1.1,2.5-2,4.9-3.3,7.1c-1.8,3.1-5.3,2.6-8.2,2.9c-5.1,0.6-10.2,0.8-15.3,1.1c-6.3,0.3-12.6,0.6-19,0.8
		c-19,0.5-38,0.9-57.1,1.5c-9.5,0.3-19.1,0.9-28.6,1.5c-10.1,0.6-20.2,1.6-30.3,2.2c-6.1,0.3-12.3,0.1-18.4,0.1
		c-0.5,0-0.9,0.3-1.4,0.4c-4.9,1.1-5.8,0.6-7.6-4c-0.4-1.1-1.1-2.2-1.7-3.3C268,812.4,267.7,811.4,267.1,809.8z"/>
	<path d="M118.8,581c3.6-7.9,10.2-14.7,10.1-24.1c0-0.3-0.7-0.5-0.5-0.4c-4.2,5.6-8.2,11-12.2,16.4c-0.6-0.2-1.1-0.4-1.7-0.5
		c0-2.6-0.3-5.3,0.2-7.9c0.2-0.8,2.3-1.3,3.6-1.9c0.6-0.3,1.3-0.5,1.7-1c3-3,4.6-6.6,3.5-11.4c-1.3,2.2-2.7,4.4-4,6.6
		c-0.3-0.1-0.5-0.2-0.8-0.3c1.1-3,2-6.1,3.3-9c4.9-10.6,8.6-21.5,10.6-33.1c1.7-10.1,4-20,5.8-30.1c0.3-1.6,0.3-3.2-1.1-5
		c-1.5-2-1.4-5.3-2-8.3c1.3,0.6,2.2,1,3.1,1.3c0.4-0.3,0.7-0.5,0.9-0.8c3.8-5.7,2.9-11.8,2.5-18.2c-0.3-3.8,1-7.8,1.5-11.6
		c0.2-1.8,0.2-3.7,0.7-5.5c0.3-1,1.4-1.8,2.2-2.6c0.4,0.9,1.3,1.7,1.3,2.6c-0.4,11.3-0.8,22.6-1.5,33.8c-0.2,3.7-1.8,7.4-2.1,11.1
		c-0.3,3.7,0.4,7.4,0.6,11.1c0.1,1.2,0.3,2.4,0.7,3.7c2.6-6.9,0.2-14.9,4.7-22.3c2.6,9,0,16.7-1.8,24.8c-1.2-0.7-2.1-1.2-3.8-2.1
		c0.3,2.3,0.4,3.9,0.7,5.4c0.1,0.6,1,1.2,0.9,1.7c-1.6,6.7-4.2,13.1-6.5,19.5c-2.4,6.7-6.1,12.9-7.7,19.9c-0.2,1,0.1,2.2,0.2,3.2
		c1.1-0.4,2.1-0.7,3.2-1.1c0.4-0.2,0.8-0.5,1.2-0.9c3.6,5.3-0.4,9.6-2,13.8c-2.2,5.8-5.5,11.3-8.7,16.7c-1.5,2.6-3.8,4.7-5.7,7
		C119.5,581.5,119.1,581.3,118.8,581z"/>
	<path d="M320.2,209.6c1.6,0,3.1,0,4.4,0c-0.3,2.2-0.5,4-0.8,5.9c-3-0.7-6.3-1.5-10.1-2.4c1,1.7,1.9,3.4,2.9,5.2
		c-4.7,0-9.5,0.2-14.3-0.1c-1.5-0.1-2.9-1.3-4.4-1.9c-2-0.8-4.1-1.5-6.1-2.3c-0.6-0.2-1.4-0.4-1.6-0.9c-3-5.6-7.7-2.7-11.8-2.5
		c-0.6,0-1.2,0.5-1.8,0.4c-10.1-1.3-19.3,2.2-28.7,4.7c-5.6,1.5-10.9,3.6-17,5c0.8-0.9,1.4-2,2.4-2.5c6.2-3,12.4-6.1,18.8-8.6
		c7.6-3,15.4-5.9,23.3-7.8c4.7-1.1,9.9-0.1,14.9-0.1c0.4,0,0.7,0.4,1,0.3c5.6-1.1,10.8,1.2,16.2,1.7
		C312.3,204.4,316.9,205.8,320.2,209.6z"/>
	<path d="M419.4,439.4c-0.8-3.9-3.2-3.3-5.8-2.5c-1.2,0.4-2.7-0.2-4,0.1c-2.4,0.6-4.7,1.3-7,2.2c-4.5,1.7-9.2,0.4-13.7,0.8
		c-4.3,0.4-8.5,0.9-12.7,1.9c-3.9,0.9-6.5-1.3-10.6-3.1c5.4-1.2,9.8-2.3,14.2-3.1c3.4-0.7,6.8-0.8,10.1-1.7c2.8-0.8,4.2-2.8,2.6-6.8
		c2.7,0,5.1,0.3,7.4-0.1c1.5-0.3,2.8-1.8,4.7-3.1c0.5,0,2.1,0,3.7,0.3c2.9,0.5,5.8,1.2,8.7,1.8c2.7,0.6,5.6,1,8.1,2.2
		c1.8,0.9,3,2.9,4.2,4.6c0.2,0.3-0.6,1.8-1.2,2.1C425.3,436.4,422.5,437.8,419.4,439.4z"/>
	<path d="M116.4,580.5c-3.1,4.2-6,8.5-9.2,12.5c-8.8,10.8-18.5,20.8-29.7,29.3c-7,5.4-13.5,11.6-20.5,17c-4.8,3.7-10.3,6.5-15.4,9.9
		c-1.9,1.3-3.3,3.1-5,4.7c-0.7,0.7-1.2,1.5-2,2c-7.2,4.4-14.4,8.8-21.8,13c3-2.6,6-5.3,9.2-7.7c3.7-2.9,7.6-5.7,11.4-8.5
		c5.4-3.9,10.9-7.8,16.2-11.8c9.1-6.9,18.3-13.7,27.1-21.1c6.6-5.6,12.7-11.7,18.6-18c4.7-5,8.7-10.7,13.2-16c2-2.3,4.3-4.4,6.5-6.5
		C115.4,579.7,115.9,580.1,116.4,580.5z"/>
	<path d="M1.4,716.3c0.4-0.2,0.9-0.3,1.3-0.4c1.4-0.4,2.5-1.5,3.9-2c3.5-1.4,4.9-6.4,9.8-5.6c0.3,0,0.8-1.8,1.4-3.1
		c-2.2,0.1-9.3,3.2-17.8,7.6C0.5,713.8,1,715,1.4,716.3z"/>
	<path d="M53.9,730.4c0.3,0.1,1.3,0.6,2.5,1.1c1.1-1.6,2.3-3.3,3.5-5.1c-0.2-0.1-0.4-0.3-0.6-0.4c-1.6,1-3.2,2.2-4.9,2.9
		c-0.9,0.4-2.1,0-3.1,0c0.1-1-0.2-2.2,0.3-2.9c3.1-4.3,6.3-8.4,9.5-12.6c4.3-5.7,8.6-11.4,12.9-17.1c0.5-0.6,1.3-1.1,2.7-2.1
		c-1.6,6.8-7.3,11-7.4,17.7c-3.3,0.6-6.7,6.6-4.7,9.9c0.6-1.2,1.1-2.4,1.7-3.7c1.9,7-7.2,14.8-14.6,16.1
		C52.3,733.3,52.9,732.1,53.9,730.4z"/>
	<path d="M20.2,705.6c1-1.3,2.3-2.4,3.1-3.9c2.3-3.9,5.9-6.2,9.7-8.3c3.3-1.8,6.4-3.9,9.5-6c0.6-0.4,0.2-2.1,0.8-2.8
		c2.2-2.6,4.7-5.1,6.7-7.3c0.8,0.9,1.6,1.8,2.4,2.7c0.9-0.9,2.4-1.6,2.6-2.7c0.8-3.8,3.7-2.5,6.1-2.8c-6.6,10.7-16.5,18-26.5,26.9
		c1.4-3.3,2.4-5.7,3.3-8c-0.3-0.3-0.6-0.6-0.9-0.8c-2.8,2.7-5.5,5.5-8.4,8.2c-0.9,0.8-2.2,1.2-3.1,1.9c-0.5,0.4-0.9,1.1-1.1,1.8
		C23.5,706.6,22.5,706.9,20.2,705.6z"/>
	<path d="M238.9,72.2c-0.6,1.2-0.9,2.7-1.8,3.5c-5.8,5.2-11.8,10.2-17.6,15.5c-3.3,3-6.4,6.3-9.5,9.6c-2.3,2.5-4.7,5-6.8,7.7
		c-4.6,5.9-9,11.9-13.5,17.9c-0.8,1.1-2.1,1.8-3.6,3c-0.4-2-0.7-3.4-1.1-5.1c5.4-0.1,6.4-4.7,8.2-9c0.7-1.7,3.1-2.5,4.4-4.1
		c3.7-4.4,7-9.1,10.9-13.2c5.8-6.2,11.9-12.1,18.1-17.8c3.5-3.2,7.6-5.6,11.5-8.4C238.5,71.9,238.7,72,238.9,72.2z"/>
	<path d="M164.7,453c-0.5-2-1.4-4-1.5-6c-0.2-4.7,0.3-9.4-0.2-14c-0.5-4.3-2.5-8.4-2.8-12.6c-0.5-6.8-0.1-13.7-0.1-21.6
		c1.1,1.6,1.8,2.3,2.1,3.2c1.2,3,2.6,6,3.4,9.1c0.2,1-1.3,2.4-2.1,3.9c0.7,0.1,1.7,0.4,3,0.6c0.4,7.3,2.3,14.7-1,22.1
		c-1,2.2,0.3,5.3,0.5,8c0.1,2.4,0,4.7,0,7.1C165.6,452.8,165.2,452.9,164.7,453z"/>
	<path d="M341.5,426c0.9,2.3,0.9,6.7,4.8,7.7c3.5,0.9,7.4,0.6,11.8,0.8c0-0.1,0.4,0.8,0.7,1.6c-0.4,0.4-0.6,0.6-0.8,0.6
		c-7.9,0.7-14.9-2.3-22-5c-5-1.9-9.5-1.9-14.3,1.3c-1.6,1.1-5-0.5-7.5-1c-0.5-0.1-1-1.1-1-1.7c0.1-2.4,4.3-5.5,7.1-5.4
		C327.2,425.4,334.1,425.7,341.5,426z"/>
	<path d="M159.7,478.1c-0.1-14.9-5.7-29.5-2.4-44.5c1,0.5,2,1,2.9,1.6c0.8,0.5,1.5,1.1,2.3,1.7c-0.2,0.3-0.3,0.5-0.5,0.8
		c-0.8-0.3-1.6-0.7-2.1-0.9C160.3,450.4,164.6,464.1,159.7,478.1z"/>
	<path d="M92.9,636.8c-5,5.3-10,10.6-14.8,15.7c1.5,0.3,3.4,0.8,5.1,1.1c-2.8,1.4-5.7,2.8-8.6,4.2c-0.7-0.9-1.5-2.1-2.7-3.8
		c6.3-5.9,13-12.2,19.7-18.5C92.1,635.9,92.5,636.3,92.9,636.8z"/>
	<path d="M258,64.1c1.1-1.3,1.9-3.1,3.2-3.7c10-4.8,20.2-9.4,30.3-14.1c0.2,0.3,0.4,0.7,0.5,1c-1.1,0.8-2.1,1.7-3.2,2.3
		c-3.8,2-7.6,3.8-11.4,5.8c-1.5,0.8-2.8,1.9-4.2,2.8c-0.6,0.4-1.4,1-1.9,0.8c-4.2-1.6-5.8,2.6-8.8,3.7c-1.4,0.5-2.7,1.3-4,2
		C258.3,64.6,258.2,64.4,258,64.1z"/>
	<path d="M203.2,168.7c-3.4,4.5-6.4,9.3-10.3,13.4c-3.9,4.1-8.6,7.5-13.7,10.6c3-3.3,6-6.6,9-9.9c1.4-1.6,2.7-3.2,4-4.8
		c2.3-2.7,5.3-4.8,6.6-8.4c0.3-0.9,2.3-1.1,3.5-1.6C202.6,168.3,202.9,168.5,203.2,168.7z"/>
	<path d="M403,373.6c-3.9-1.5-7.1-2.5-10.2-3.9c-0.6-0.3-1.2-2.5-1-2.7c1.8-1.3,3.7-3.1,5.7-3.2c2.1-0.2,4.1,1.3,4.1,4.3
		C401.6,369.4,402.3,370.8,403,373.6z"/>
	<path d="M73.1,675.1c-0.2-3,2.1-6,4.9-5.8c-3.5,4.6-6.9,8.9-10,13.3c-1.8,2.5-2.7,5.7-4.7,8c-2.2,2.4-5.2,4.2-8.3,5.7
		c1.9-2.1,4-4.2,5.7-6.4c1.9-2.4,3.7-4.9,5.2-7.5C67.6,679.4,69.2,676.3,73.1,675.1z"/>
	<path d="M239.3,71.2c5.5-6,13-9.7,18.9-15.2c0.4,0.1,0.8,0.2,1.1,0.2c-0.2,1-0.2,2.3-0.8,2.8c-6,4.6-12.2,9-18.3,13.5
		C240,72.1,239.6,71.7,239.3,71.2z"/>
	<path d="M200.4,187.9c-0.2,0.6-0.4,1.2-0.6,1.7c0.2,0.2,0.5,0.5,0.7,0.7c2.3-2.2,4.6-4.4,6.8-6.5c0,3-3.8,7.8-7.2,8.6
		c-0.4,0.1-1.1-0.8-1.8-1.3c-2.3,1.8-4.7,3.7-7.2,5.6c-0.2-0.2-0.4-0.3-0.6-0.5c1.3-1.6,2.6-3.2,4.4-5.4c-2.2,0.9-3.7,1.6-5.1,2.2
		c-0.2-0.1-0.3-0.3-0.5-0.4c1.2-1.4,2.4-2.9,3.7-4.3c0.1,0.3,0.3,0.6,0.4,0.9C195.8,188.8,198.1,188.4,200.4,187.9z"/>
	<path d="M156.9,524.4c0.9,7.5-3.8,13.3-7,19.5c2-6.6,3.9-13.2,5.9-19.8C156.2,524.2,156.6,524.3,156.9,524.4z"/>
	<path d="M95.3,642.5c-1.8-6,4.1-7.8,6.1-11.7C102.5,636.3,99.5,639.7,95.3,642.5z"/>
	<path d="M283.1,43.7c-2.2,1.7-3.1,5.1-7.3,4.4c-1.9-0.3-4,1.8-6.1,2.8c-1,0.5-2.1,1-3.1,1.5c-0.2-0.4-0.4-0.8-0.6-1.2
		c5.6-2.8,11.1-5.6,16.7-8.3C282.8,43.1,283,43.4,283.1,43.7z"/>
	<path d="M362.4,365.1c-3.8,1-7.6,2-11.4,3C354.1,364.5,357.2,361.3,362.4,365.1z"/>
	<path d="M230,101.4c-4.4,3.7-8.9,7.5-13.3,11.2c-0.3-0.3-0.6-0.7-0.9-1c4.5-3.6,9-7.3,13.5-10.9C229.6,100.9,229.8,101.1,230,101.4
		z"/>
	<path d="M150.8,261.4c0.8,6.6,0.3,10.5-2.2,11.3c0.4-4,0.7-7.7,1.1-11.4C150,261.4,150.4,261.4,150.8,261.4z"/>
	<path d="M37,710.9c1.9-1.2,3.7-2.5,5.7-3.6c0.6-0.3,1.6,0.1,2.4,0.2c-0.4,0.6-0.7,1.2-1.1,1.7c-0.6,0.9-1,1.8-1.7,2.6
		C41.2,713.2,40,714.7,37,710.9z"/>
	<path d="M244.5,74.3c2.7-2.8,4.9-6.3,9.9-5.6c-3.1,2.1-6.2,4.3-9.3,6.4C244.9,74.9,244.7,74.6,244.5,74.3z"/>
	<path d="M216.1,138c-0.1-2.6,0.5-3,10.1-6C222.8,134.1,219.4,136.1,216.1,138z"/>
	<path d="M181.5,134.3c0-1.8,0-3.5,0-5.6c2.1,0.5,3.3,0.8,5.6,1.3C184.9,131.7,183.2,133,181.5,134.3
		C181.5,134.3,181.5,134.3,181.5,134.3z"/>
	<path d="M236.1,105.8c3.1-1.1,6.3-2.2,9.4-3.4c0.1,0.3,0.3,0.5,0.4,0.8c-3,1.4-6,2.9-9.1,4.3C236.6,107,236.3,106.4,236.1,105.8z"
		/>
	<path d="M82.9,660.5c-1.7,1.5-0.9,5.8-6.5,3.2c1.9-1.4,3.8-2.8,5.7-4.2C82.3,659.9,82.6,660.2,82.9,660.5z"/>
	<path d="M30.4,726.3c1.2-2.3,2.3-4.5,3.5-6.8c0.5,0.3,1.1,0.6,1.6,0.8c-0.5,1-1,2-1.6,2.9c-0.8,1.2-1.8,2.3-2.7,3.5
		C31,726.5,30.7,726.4,30.4,726.3z"/>
</g>
</svg>
