<?xml version="1.0" encoding="utf-8"?>
<!-- Generator: Adobe Illustrator 20.0.0, SVG Export Plug-In . SVG Version: 6.00 Build 0)  -->
<svg version="1.1" id="Слой_1" xmlns="http://www.w3.org/2000/svg" xmlns:xlink="http://www.w3.org/1999/xlink" x="0px" y="0px"
	 viewBox="0 0 191.1 317.1" style="enable-background:new 0 0 191.1 317.1;" xml:space="preserve">
<g>
	<path d="M136.4,33.9c1,1.1,2.3,2,3,3.3c1.3,2.4,2.3,5,3.4,7.5c0.3-0.1,0.7-0.2,1-0.3c-0.8,1-1.7,2.1-3.1,3.9
		c3.5-0.3,6.2-0.5,9.3-0.7c-0.7,1.2-1.1,2-1.6,2.9c0.3,0,0.5,0,0.8-0.1c0.5,2,0.4,4.3,1.5,5.9c3.4,4.9,4.2,10.7,6,16.1
		c1.1,3.3,2.6,6.5,3.8,9.9c0.8,2.4,2,4.8,2,7.3c0.3,8.1,3.3,16.1,0.3,24.3c0,0.1-0.1,0.2-0.1,0.4c-0.3,5.4-0.6,10.8-1.7,15.9
		c-0.8,1.4-1.7,2.8-2.6,4.2c3.8,1.6,5.5,6,4.7,10.9c-0.1,0.8-1.2,1.5-1.4,1.8c-1.3-2-2.5-3.4-3.2-5c-1.2-2.8-2.9-5.6-2.9-8.5
		c0-8.9-4.2-16.3-7.7-24c-0.4-1,0-2.3,0.6-3.5c0.1-1.1-3.7-1.7,0.1-3.3c0.4-0.2,0.8-1.3,0.6-1.4c-2.3-2.7-0.4-5.1,0.1-7.7
		c0.5-2.6-3.8-9.9-6.9-12c0,1.3,0,2.4,0,3.5c-5.5-3.8-11.5-3.7-17.6-3.1c-4.4,0.4-8.8,0.5-13.2,1.1c-3.3,0.4-6.6,0.9-9.7,2
		c-5.4,1.9-10-0.9-14.9-1.8c-2.6-0.5-5.5-1.8-7.7-1.1c-7.1,2.2-13.8,1.4-20.7-0.2c-4.9-1.2-5.2-0.9-6.8,3.8c-0.5,1.3-1.1,2.6-1.6,4
		c2.6,1.6,3.5,9.6,1.3,14.6c0.9,0.9,1.7,1.8,1.9,2c-0.8,1.8-1.6,2.8-1.5,3.6c0.5,2.4,0.3,4.1-2.3,5.4c-2.6,1.3-3.6,4.1-3.1,7
		c0.7,3.5,0.3,6.6-1,10c-0.6,1.4,0.7,3.5,0.8,5.2c0,1-0.6,2-1,3c-0.4-0.9-0.9-1.8-1-2.7c-0.8-7.4-5.3-12.5-9.9-17.5
		c0.4-0.2,1.3-0.6,2.2-1.1c-0.7-6-1.9-12-1.9-18c0-4.5,1.7-9,2.6-13.5c0.6-3,1.1-6,1.8-8.9c0.7-2.8,1.4-5.7,2.4-8.4
		c3-7.5,5.8-15.1,11.9-20.9c1.6-1.5,2.3-3.8,3.6-5.6c1.2-1.7,2.7-3.3,4-4.9c0.2,0.1-0.2-0.1-0.7-0.4c0.1-0.1,0.2-0.3,0.3-0.4
		c1,0.2,2.1,0.4,2.9,0.5c0.3-0.3,0.7-0.5,0.7-0.6c0.6-5.9,5.4-8.8,9.2-12.3c4.3-3.9,8.8-7.7,13.7-10.8c1.9-1.2,4.2-2.1,6.1-3.6
		c2.2-1.6,4.1-0.8,5.4,1.2c1.8,2.8,3.6,2.2,5.8,0.7c3.9-2.7,11.9-1.5,14.8,2.3c0.5,0.7,0.4,1.8,0,3c-0.6-4.9-4.1-4.3-7.2-4.2
		c-4.1,0.1-3.9,3.3-4.5,6.4c1,0.2,2,0.3,3.2,0.5c-1,0.5-1.9,1-3.4,1.8c1.7,1.3,3,2.2,4.3,3.2c1.4-1.8,2.5-3.5,3.9-4.9
		c1.8-1.8,3.9-1.6,4.8,0.8c0.8,2.2,1.7,2.4,3.8,2.1c2.3-0.4,4.4-0.7,5.4,3.1C130.1,30.1,134,31.9,136.4,33.9
		c-0.7,1.3-1.7,2.5-2.1,3.9c-0.2,0.8,0.8,1.8,1.2,2.8c0.9-0.8,1.9-1.7,2.8-2.6c0.1-0.1,0.1-0.5,0.2-0.8
		C137.8,36.2,137.1,35.1,136.4,33.9z"/>
	<path d="M159.7,271.4c-4.5-4.5-8.8-9.1-13.6-14.1c0.6-0.4,1.6-1,2.4-1.8c2.3-2.4,4.6-4.7,6.6-7.4c3.2-4.3,3.8-9.3,4.2-14.6
		c0.3-4.3-0.9-7.6-2.6-11.1c-0.6-1.2-2.2-1.9-3.4-2.9c-0.3,0.3-0.5,0.5-0.8,0.8c0.6,2.8,0.6,6,2,8.4c2.2,3.7,1.3,7.6,0,10.2
		c-2.8,5.4-6.3,11.2-11.1,14.6c-6.4,4.6-14,8.2-21.6,10.4c-9.1,2.6-18.8,3.5-28.4,2.4c-6.3-0.7-12.6-2.1-18.7-3.8
		c-3.8-1.1-7.2-3.4-10.9-4.9c-6.9-2.8-11.3-8-14.3-14.4c-2.2-4.6-3.7-9.4-5.4-14.1c3.6-3.2,2.3-7.5,2-11.7c-1.3,1.6-2.6,3.3-3,5.2
		c-0.7,2.8-0.5,5.9-1.2,8.7c-1.9,7.5,1.5,13.4,5.6,18.9c1.9,2.6,1.9,4.2-0.1,6.4c-4.5,4.9-8.8,9.9-13.3,14.8
		c-6.8,7.4-13.7,14.8-20.6,22.1c0.9,0.9,1.7,1.8,2.5,2.8c1.8-2,3.7-3.9,5.5-5.9c6.7-7.3,13.3-14.6,20-21.9c3.1-3.4,6.4-6.7,9.8-9.9
		c0.5-0.5,1.9-0.7,2.6-0.4c4.7,2.3,9.2,4.9,13.9,7.1c11.4,5.3,23.5,7.3,36,6.6c6.2-0.4,12.5-1.1,18.5-2.8c5.9-1.6,11.5-4.3,16.9-7.2
		c3.4-1.8,4.8-2,7.2,1c3.6,4.6,7.6,9,11.3,13.4c7.1,8.4,14.3,16.6,21.2,25.2c1.7-0.9,3.4-1.8,5.2-2.6
		C176.3,289.2,168.3,280.1,159.7,271.4z"/>
	<path d="M74.7,215.1c1.7,0.4,3.6,0.5,5,1.4c2.4,1.4,4.4,3.6,6.8,4.9c2.5,1.4,5.4,2,8.1,3.1c1,0.4,1.9,0.9,2.8,1.5
		c3.3,2.5,8.8,2.3,11.9-0.6c3.6-3.3,7.2-6.6,9.1-11.4c0.7-1.7,2.5-2.9,4-4.3c1.2-1.1,2.6-2.1,4.2-3.3c3.6,0.7,3.9,1.2,3.5,7.1
		c2,1.9,3.7,3.5,5.1,4.8c-1.1,2.8-1.4,5.7-3,7.4c-2.7,2.8-5.2,6.2-9.4,7.2c-0.8,0.2-1.8,0.5-2.3,1c-4.8,4.7-10.6,4.7-16.7,4
		c-5.1-0.6-10.2-0.9-15.6-1.4c-1.7-5.2-2-4.8-7.8-9.3c-3.8-2.9-6.6-7-9.8-10.7c-2-2.3-3.8-4.7-5.7-7.2c-0.6-0.8-0.8-1.7-0.6-3
		c3.4,3,6.8,6.1,10.2,9.1C74.5,215.4,74.6,215.2,74.7,215.1z"/>
	<path d="M106.4,134.4c4.3-1.7,8.4-3.4,12.6-5.1c1.4-0.6,2.6-1.6,4-1.9c4-1,8-2,12.1-2.5c2.4-0.3,8.5,5.6,9,8c1,5.7-2.8,9-8.8,8.4
		c-6-0.5-12.1-0.2-18.1-0.2c-2.2,0-4.5,0.2-6.7,0c-0.8-0.1-1.8-1.1-2.3-1.9C107.4,137.8,107.1,136.3,106.4,134.4z M139,137.2
		c0-1,0-2.5,0-3.4c-2.2,0-4.3,0-6.5,0C134.9,135.1,137,136.2,139,137.2z"/>
	<path d="M97,133.9c-3.1,4.1-5.7-0.3-8.6,0.8c0.9,1.1,1.7,2.2,2.8,3.4c-0.8,3-4.3,4.2-6.7,3.5c-6-1.7-12.2,0.9-18-1.9
		c-0.3-0.2-1.1,0.4-1.5,0.5c-0.2-3.6-0.7-7.6,5.9-7.3c-3.2-2.1-5.6-3.7-8.1-5.4c3.1-3.6,5.4-3.7,9.1-2.2c6.1,2.5,12.8,3.7,19.2,5.7
		C93.2,131.5,94.9,132.9,97,133.9z"/>
	<path d="M82.4,193.2c11.4-4.7,39.1-3.6,40.9,0.4c-2,1.8-3.9,3.6-5.9,5.3c-0.1-0.1-0.2-0.2-0.3-0.3c0.4-0.6,0.8-1.2,1.8-2.7
		c-9.7,3.3-18.7,3.5-27.6,0.8C88.4,195.9,85.5,194.5,82.4,193.2z"/>
	<path d="M103.7,178.3c2.6-1.5,5.6-3.5,8.9-5.2c0.6-0.3,1.9,0.3,2.8,0.7c0.8,0.4,1.4,1.1,2.3,1.8c-0.5,0.5-1.3,1.3-2.1,1.9
		c-3.4,2.5-3.2,4.5,0.8,6.3c2.9,1.3,5.8,2.4,8.7,3.6c-0.1,0.5-0.3,0.9-0.4,1.4c-3.9-1-8-1.6-11.7-3.2c-3.5-1.4-6.5-4.1-9.6-0.2
		c-1.4-2.5-2.6-4.4-3.6-6.5c-1.1-2.4-2.7-2.4-4.9-1.5c-0.8,0.4-2.1,0.2-2.9-0.3c-0.4-0.2-0.7-2-0.4-2.3c0.8-0.7,2.2-1.7,2.9-1.4
		C97.6,174.8,100.6,176.6,103.7,178.3z"/>
	<path d="M43.6,283.7c0.1-0.7,0.1-1.5,0-2.1c-0.1-0.4-2.4-1.1-3.2-0.7c-2.8,1.5-1.2,2.6,0,4.2C41.4,284.6,42.5,284.2,43.6,283.7z"/>
	<path d="M37.6,286.4c-2.6-1.1-3.9-0.1-4.6,2.4c0,0.1,0,0.1,0,0.2C34.4,288.1,36,287.3,37.6,286.4z"/>
	<path d="M51.1,275.7c1.8-2.4,0.9-4.3-2.7-5.5c0.3-0.4,0.6-0.7,0.9-1.1c1.3,0.7,3.6,1.4,3.7,2.2c0.2,1.7-0.3,3.9-1.5,5.1
		c-1.7,1.8-4.1,2.8-6.2,4.2c-0.5-2.1-2.6-4.7,0.5-6.3C46.9,273.8,48.8,275,51.1,275.7z"/>
	<path d="M112.1,207c-4.7,3.2-11.3,3.4-16,0C101.8,207,106.9,207,112.1,207z"/>
	<path d="M74.1,245.2c-5.2-4.3-10.4-8.6-15.7-12.9c0.2-0.3,0.4-0.5,0.6-0.8c5.3,4.2,10.5,8.5,15.8,12.7
		C74.6,244.6,74.3,244.9,74.1,245.2z"/>
</g>
</svg>
