<?xml version="1.0" encoding="utf-8"?>
<!-- Generator: Adobe Illustrator 20.0.0, SVG Export Plug-In . SVG Version: 6.00 Build 0)  -->
<svg version="1.1" id="Слой_1" xmlns="http://www.w3.org/2000/svg" xmlns:xlink="http://www.w3.org/1999/xlink" x="0px" y="0px"
	 viewBox="0 0 541 903" style="enable-background:new 0 0 541 903;" xml:space="preserve">
<g>
	<path d="M178.4,853.9c-1.7-1.5-3.6-3.1-5.3-5c-1.8-2-3.3-4.4-5.3-7.2c2.2-0.5,4.2-1.6,5.9-1.2c0.8,0.2,1,3.1,1.9,5.9
		c0.1,0,1.4,0.4,3.1,0.8c-0.5,0.9-1,1.8-1.1,2.1c1,1.9,1.9,3.7,2.8,5.4c5.1,1.8,10.2,4,15.6,7.1c7.1,4,13.8,9.4,19.7,15.4
		c4.2,0,8.4,0.4,13.6,1.1c5.9-2.8,12.1-5.4,18.2-7.6c1.1-0.4,2.2-0.7,3.3-1c3.1-0.7,6.2-1.2,9.4-1.3c5.8-1.6,11.6-1.6,17.4,0
		c3.6,0.5,6.9,1.1,10.2,1.9c6.4-1,13.1-1.3,19.5-1.2c1.4-1,2.9-2,4.5-2.9c20.1-11.8,45.4-11.8,65.7-0.3c0.5-0.1,0.9-0.3,1.4-0.4
		c0.1-0.1,0.2-0.1,0.3-0.2c4.1-4.1,8.9-6.9,14.5-8.4c5.7-3,11.8-4.8,18.2-5.4c1.2-1.4,3.1-2.6,5.8-3.9c2.3-1.1,5-2.6,6.2-4.6
		c2.9-5.1,6.3-3.4,10-1.8c1.2,0.5,2.4,1.1,3.8,1.7c0,3.6-1,4.8-5.9,6.7c0.8,1.2,1.6,2.4,2.1,3.6l2.5,0.3c5,1.2,10,3,14.9,5
		c1.9-2.2,4-4.3,6.1-6.3c1.3-3.6,3-7.1,5-10.6c3.2-5.4,7-10.2,11.4-14.3c0.7-2.7,1.8-5.3,3.3-7.8c1.6-5.6,4.4-10.4,8.4-14.5
		c2.9-4.9,6.8-8.8,11.8-11.8c4.6-4.2,9.9-7.5,15.7-9.7c1.4-2.3,2.9-4.4,4.4-6.4c0.1-4.5,0.9-8.9,2.2-13.2
		c-3.5-5.5-6.2-11.5-7.8-17.8c-0.7-2.7-1.3-5.3-2-8c-4-16-2.6-36.3,6.6-50.5c0.2-0.3,0.4-0.5,0.5-0.8c0.3-1.2,0.5-2.4,0.8-3.5
		c0.1-0.1,0.1-0.3,0.2-0.4c-0.3-2.7-0.5-5.4-0.5-8.2c0.4-3.3,0.9-6.6,1.3-9.9c-2.4-1.2-4.8-2.5-7-4.1c-14.1-9.8-28.9-17.7-45.7-22.1
		c-10-2.6-20.1-4.9-28.7-11.6c-10-7.9-22.9-5.5-35.6-8.9c2.9,2.5,4.4,4.5,6.4,5.5c5.6,2.9,11.4,5.5,17.2,8.2
		c9.4,4.4,18.1,10,25.4,17.4c1.6,1.6,3.1,4.3,3,6.4c-0.3,7.2-0.6,14.5-2.2,21.5c-3,12.8-6.1,25.6-10.6,38c-4,11.1-9.6,21.6-15,32.1
		c-2.7,5.2-5.7,10.5-9.8,14.5c-10,9.7-19.7,20-32.3,26.5c-16.2,8.3-32.3,17.1-49.2,23.9c-15.7,6.3-32.6,8.6-49.7,7.6
		c-5.1-0.3-10.1-1.4-15.1-1.9c-14.3-1.4-27.6-5.7-40.4-12c-4.7-2.3-9.5-4.6-14.2-7c-9.8-5-19.9-9.4-29.3-15.2
		c-9.4-5.8-18.7-12.1-26.8-19.5c-12.1-10.9-24-22.2-34.5-34.6c-10.6-12.6-19.2-26.7-28.8-40.1c-10-14-17.8-29-18.9-45.8
		c-5,2.8-13.1,0.2-15.3,8.5c1.9-1,3.5-1.9,5.4-2.9c0,1.9-0.2,3.4,0.1,4.8c0.3,1.5,1.2,2.8,1.8,4.2c-7.3,2.8-8.5,2.7-11.3-1.3
		c-3.3-4.7-1.5-11.9,3.8-16.1c2.9-2.3,5.7-4.9,8.5-7.3c-4.2,0.4-8.2,1.7-11.8,0.9c-3.1-0.7-4.4,0.3-6.4,1.9c-2.9,2.3-6,4.5-9.2,6.3
		c-3.5,1.9-7.6,2.9-10.9,5.1c-7.2,5-13.6,11.3-21.1,15.7c0,0-0.1,0-0.1,0.1c4.5,3.9,8.2,8.6,11.2,14.1c2.2,5.2,4.4,10.4,6.6,15.7
		c0.5,4,1.1,7.9,1.6,11.9c2,1.7,4.3,3.2,7.3,5.5c-1.1,4.9-3.5,9.5-8.2,12.5c-0.1,0.7-0.2,1.5-0.3,2.2c5.3,9.7,7.9,20.2,8,31.3
		c0,0,0,0,0,0c0.9-0.2,1.7-0.4,2.6-0.6c-0.7-4.6,1.4-6.9,7-5.2c4.4,1.4,9.6,2.5,11.2,8.2c0.3,1.1,2.2,1.7,2.6,2.9
		c0.7,1.7,4.3,3.6,0.2,5.6c-0.2,0.1-0.1,1.4,0.2,1.8c3.3,3.4,0.4,5.9-1.2,8.6c-0.6,1-1.1,2.1-1.6,3.2c-1.4,3-4.6,3.5-7,1.1
		c-1.2-1.2-2.5-2.3-3.4-3.1c0.7,1.7,1.3,3.3,1.8,5.1c3.6,1.4,7,3.2,10.2,5.2c13.9,8.7,24.9,20.4,32,34.6c3.1,1.1,6.1,2.4,9.1,3.7
		c0-1.6,0-3.2,0-4.8c1.9,0.5,3.9,1,5.8,1.6c0,0.6,0,1.2,0.1,1.8c-1.3,0.8-2.6,1.5-4,2.3c1.6,0.7,3.1,1.4,4.7,2.1
		c0.4,0.2,0.7,0.3,1.1,0.5c0.7,0.3,1.3,0.6,2,0.9c-0.3-0.1-0.7-0.3-1-0.4c8.6,4,16.6,8.8,23.6,16.2c5.4,0,10.9,0,16.3,0.6
		C159.9,849.7,169.2,851,178.4,853.9z M471.7,822.9c-5.9,7.7-11.5,15-17.8,23.2C452.7,840,467,822.8,471.7,822.9z M448.2,744.9
		c1.4-0.2,2.7-0.3,4.5-0.6c0.1,1.8,0.2,3.3,0.4,5.1h-4.8V744.9z M444.3,755.7c2.5,1.1,4.6,1.9,6.6,2.7c-1.9,1.3-3.8,2.6-6.6,4.5
		V755.7z M436.5,761.7c0.9-1.8,2.6-3.2,4.7-5.6c0.2,3.2,0.7,5.7,0.5,8.1c-0.1,1.2-1.5,2.5-2.6,3.2c-0.4,0.3-2.4-0.5-2.5-1
		C436.2,764.9,435.9,763,436.5,761.7z M446.6,792.2c-0.2,7.9-9.9,13.6-17.2,9.8C433.9,795.9,440.4,794.7,446.6,792.2z M431.8,827.8
		c0.8,1.4,1.7,2.7,2.5,4.1c-1.6,0.7-3.2,1.4-4.7,2.2c-0.5-0.6-0.9-1.2-1.4-1.8L431.8,827.8z M236.5,862.4c-3.1,0.3-5.9,0.3-4.1-5.6
		c1.8,1.4,3.5,2.8,5.3,4.1C237.3,861.4,236.9,861.9,236.5,862.4z M241.9,838.8v3c-2,1-3.5,1.7-5,2.4
		C234.6,840.4,235.6,839,241.9,838.8z M233.6,845c1,1.6,1.9,3.2,2.9,4.8l-1.2,0.9c-0.8-0.9-1.5-1.9-2.6-3.3c-1.4,2.7-2.6,4.9-3.7,7
		C226.1,851.8,227,849.3,233.6,845z M222.9,850.8c1,1.3,3.2,3.2,2.9,3.7c-0.9,1.6-2.8,2.7-4.3,4c-0.8-0.8-1.6-1.5-2.4-2.3
		C220.4,854.4,221.6,852.6,222.9,850.8z M114.6,781.1c-1.2,1.2-2.3,2.7-3.7,3.4c-0.5,0.2-1.9-1.5-2.9-2.4c1.6-1.1,3.1-2.2,4.7-3.3
		C113.3,779.6,114,780.4,114.6,781.1z M70.7,649.1c2.3,0.9,4.5,1.7,6.8,2.6c-0.2,0.6-0.4,1.1-0.7,1.7c-2.6-0.1-6.2,2-7.1-2
		C70,650.6,70.3,649.9,70.7,649.1z M70.3,665.1c0.9,0.4,2.5,0.7,2.6,1.3c0.4,1.7,0.1,3.5,0.1,5.2c-0.5,0-1,0-1.4-0.1
		c0.1-0.8,0.2-1.6,0.3-3c-1.5,0.8-2.7,1.4-4.3,2.3c-1.1-1.5-2.2-3.1-3.6-5.2C66.5,665.8,69.1,670.3,70.3,665.1z M43.6,695
		c-0.4,4.9-6.1,10.7-10.9,10.3c1.3-2.3,2.3-4.4,3.7-6.3c1.8-2.5,3.7-5.1,6.1-7c1.4-1.2,3.8-1.2,6.2-1.8
		C50,696.6,45.4,693.8,43.6,695z M55,685.3c-1-0.9-2.5-1.7-3.7-1.7c-2.7,0-5.5,1-8.2,0.8c-1.4-0.1-2.7-1.8-4.1-2.7
		c1.3-1.4,2.4-3.7,4-4.1c7-1.7,15.5,4.2,16.7,12.5C58.2,688.6,56.7,686.8,55,685.3z M67.7,789c-0.9-1.2-2.3-2.3-2.5-3.6
		c-0.2-0.9,1.3-2.1,2.6-4c1.5,2.2,3.1,3.4,3,4.6C70.7,787,68.8,788,67.7,789z M73.3,719c-0.1,1.8-0.3,3.7-0.4,5.7l-1.7,0
		c-3.1-3.7,5-10.2-3.7-12.6c-2,1.5-4.7,3.4-7.9,5.6c-1.5-5.4-0.5-7.4,4.5-8.3c8.4-1.5,8.3-2,13.2,4.9c1,1.3,2.3,2.4,3.3,3.7
		c0.9,1.2,1.7,2.6,3.3,5.2c-2.8-1.5-4.2-2.2-5.6-3c-0.5,0.5-0.9,0.9-1.4,1.4c3.1,1.2,6.3,2.3,9.4,3.5c-1.2,1.2-2.4,2.4-3.5,3.6
		C79.9,725.6,76.8,722.6,73.3,719z M107.6,822.3c-1.5-0.2-2.9-2.1-5.8-4.5c3-1.6,4.6-3.2,5.7-2.9c1.4,0.4,3.3,2.4,3.2,3.6
		C110.7,819.9,108.6,822.4,107.6,822.3z M119.1,795.9c-2.7,3.6-5.2,7.3-8,10.9c-1.3,1.7-2.8,3.5-4.7,4.4c-0.8,0.4-3.8-1.2-3.9-2.1
		c-0.2-1.7,0.5-4,1.7-5.2c3.2-3.1,6.8-5.8,10-9c-1,0.6-2,1.4-3.1,1.8c-3,1-5.5,2.4-6.7-2.9c-0.8-3.7-4.7-6.7-7.3-9.9
		c-0.9-1.2-2.2-2.1-3.3-3.1c1-1.1,2.1-2.2,3.5-3.6c-1.1-3.1-2.6-3.9-5.3-0.3c-3.7,4.8-9.8,3.9-13.4-2.4c2.3,0,4.2,0,6.1,0
		c0.9,0,2.5,0.2,2.7-0.2c2-4,5.2-4.8,9.4-4.9c2.7-0.1,2.8-2.1,1.9-4.6c-2.2-5.9-3.8-11.9-5.9-17.8c-0.6-1.8-1.7-3.7-3-5
		c-2.5-2.4-2.7-3.3,0.7-7.3c-0.2,5.8,4.3,7,7.6,9.6c2.1,1.7,2.6,5.2,4,7.7c1.9,3.4,3.3,7.7,8.8,6.9c-1.9,0.9-4.1,1.5-5.5,2.9
		c-1.4,1.4-2,3.7-2.9,5.6c-0.2,0.5-0.3,1.3-0.1,1.9c1.4,5.2,2.8,10.3,4.1,15.5c0.1,0.6-0.7,1.4-1.4,2.5c2.4-0.2,4.6-0.8,6.6-0.5
		c1.5,0.2,2.8,1.6,4.1,2.5c1,0.7,2,1.6,3,2.4c0.8,0.7,1.8,1.4,2.2,2.3C121.1,794.3,119.7,795.1,119.1,795.9z M148,792.9
		c2,0.6,3.8,1.8,5.6,2.7c-0.4,0.9-0.8,1.8-1.3,2.8c-2.1-0.9-4.3-1.8-6.4-2.7C146.7,794.6,147.7,792.8,148,792.9z"/>
	<path d="M36.1,108.7c1.2,0.1,2,0.1,2.7,0.3c7.2,1.9,10.1-0.5,9.3-7.8c-0.2-1.7,0.4-3.5,0.6-5.2c1.1,1.3,2.2,2.7,3.7,4.4
		c3.5-0.2,8.3-5.8,9-11.2c4-1,4-1,5.3-9.5c0.6,1,0.9,1.7,1.4,2.3c1.1,1.3,2.3,2.4,3.4,3.7c1.2-1.5,3.4-3.1,3.4-4.6
		c-0.1-4.6,0.4-8.6,4.6-11.3c0.7-0.4,1.4-0.9,2.1-1.3c3.5-1.9,7-3.8,10.7-5.8c4.3,5.8,6.6,5.7,12.2-0.6c1.6-1.8,4.4-2.4,6.7-3.5
		c0.7-0.3,1.9,0.1,2.4-0.3c4.7-4.2,11.5-4.8,15.6-10.1c0.9-1.2,3.6-1.7,5.3-1.6c4.4,0.3,7.6-1.2,10.5-4.4c2.7-3,5.8-4.9,10.3-4.9
		c2.7,0,5.5-1.6,8.2-2.5c2.6-0.9,4.8-2.8,7.8,0c1.6,1.4,5.1,2.3,7-1c0.1-0.2,1.4,0.2,2,0.4c6.5,2.3,13.2-1.4,14.1-6.7
		c2.7,0,5.4,0.1,8,0c2.1-0.1,4.2-0.7,6.3-0.8c2.9-0.2,5.6,0,5.7-4.3c0.1-4.3-1.9-5.1-5.5-4.8c-1.4,0.1-2.9-0.1-4.4-0.2
		c-0.3-0.4-0.5-0.9-0.8-1.3c2.2-1.7,4.2-4.3,6.7-5c8.5-2.2,17.1-4.6,25.8-5.3c7.4-0.6,15.1,0.4,22.5,1.9c11.2,2.2,22.2,5.1,33.2,8.2
		c10.3,3,20.1,7.8,30.5,9.8c8.3,1.6,14.7,4.7,20.4,10.6c1.6,1.7,4.5,2.6,7,3.1c9.8,1.8,18.5,5.4,26.6,11.5
		c9.2,7,18.8,13.4,28.6,19.5c10.2,6.3,16.3,15.4,20.2,26.4c1.3,3.6,3.3,6.7-0.5,10.8c-1.5,1.6,0.7,6.7,1.4,11.1
		c1.8-0.4,4-0.8,7.4-1.5c-0.8,3.4-1.6,6.6-2.5,10.2c6.7-0.7,8.4,3.2,9.5,8.3c0.8,3.9,2.7,7.6,4.1,11.5c1,2.6,1.7,4.8-1.7,6.7
		c-1.1,0.6-2,3.9-1.3,5.1c0.8,1.6,3.2,2.3,5.3,3.6c-1,0.7-2.4,1.3-3.3,2.3c-1.6,2-2.6,4.1,0.6,6c6.5,4,7.6,7.6,5.8,15.5
		c-0.5,2.2-1,4.7-0.5,6.8c0.7,3.1,0.9,5.1-3,5.5c-0.4,0.1-1.1,2.2-0.9,3.2c1,4.9,3.1,9.7,3.3,14.5c0.5,12.8-1.1,25.9,0.8,38.5
		c1.7,11.7-2.7,22.4-2.6,33.7c0,1.4-2,2.8-2.8,4.4c-1.1,2.2-2.4,4.5-3,6.8c-1,4.1,1.6,5.1,5.7,4.7c-6.1,4.9-11.7,9.3-17.8,14.1
		c-1.4-6.5-2.9-12.4-3.8-18.4c-0.2-1.3,2.3-2.8,2.6-4.4c1-5.9,1.4-11.9,2.3-17.9c0.3-2,1.5-3.9,1.6-6c0.1-3.1-0.5-6.1-0.5-9.2
		c0-3.4-0.3-7,0.5-10.3c1.4-6.1-0.9-11.4-4.2-15.7c-9.1-11.6-19-22.7-28.6-33.9c-6.1-7.1-12.1-14.2-18.3-21.1
		c-2.3-2.5-4.8-4.8-7.5-6.9c-1.2-0.9-3.1-1-4.7-1c-1.5,0-3.1,0.5-4.6,0.8c-0.3-1.9-0.6-3.9-0.9-5.7c-1.5,1-3.7,2.4-6.8,4.4
		c-2.8-4.5-5.2-8.8-8.1-12.7c-2.6-3.6-5.8-6.8-8.7-10.1c-0.8-0.9-1.7-1.8-2.2-2.9c-4.6-9.4-18.4-13.5-26.4-7.1
		c-5.4,4.3-10.1,9.6-14.5,14.9c-12.3,14.8-26.5,26.9-46.2,29.9c-7.4,1.1-14.8,0-22.1-3.1c-6.3-2.7-13.5-3.5-20.4-4.6
		c-8.4-1.3-17-2.1-25.5-3.1c-0.9-0.1-1.9-0.5-2.7-0.9c-7-3.9-14.7-6-22.5-5.8c-12,0.3-24,1.3-35.8,3.1c-4.7,0.7-8.8,5.5-13.5,6.3
		c-14.2,2.5-19.5,14.2-26.2,24.1c-7.5,11.1-13.7,22.9-20.2,34.6c-1.3,2.3-1.7,5.3-1.9,8c-0.4,5.3,0.6,10.6-1.8,15.8
		c-0.8,1.7,0.8,4.4,0.7,6.7c-0.1,5.1-0.7,10.2-0.8,15.3c0,1.5,0.8,3,1.1,4.6c0.2,0.9,0.2,1.8-0.2,2.8c-5-6.7-5.9-14.6-7.1-22.4
		c-1.1-7-1.4-13.8-1.4-20.9c0-6.1-3.2-12.5-6.2-18.2c-6.8-12.8-13.6-25.5-16.5-39.9c-0.5-2.3-1.8-4.5-2.8-6.7
		c-1.1-2.4-2.2-4.5-0.4-7.2c0.6-0.9,0.4-3.1-0.3-4.2c-4-6.5,0.1-12.8,0.4-19.2c0.2-3.8,2.9-7.5,3.8-11.3c0.4-2-0.2-4.6-1.2-6.5
		c-2.1-4.1-1-7.2,3.4-7.9c7.1-1.2,9.9-6.9,6.6-13.4C36.1,110.7,36.2,109.9,36.1,108.7z M275.1,26.1c-0.8-0.8-2.5-3.8-4.5-4
		c-8.8-1.3-17.5-6.6-26.6-1c-0.3,0.2-0.6,0.5-0.8,0.4c-7.6-1.3-15.1-2.6-22.7-3.8c-1.1-0.2-3.2-0.1-3.4,0.4
		c-0.9,2.3-2.3,5.4-1.4,7.2c0.8,1.8,4.1,3.2,6.4,3.3c6.4,0.1,12.9-0.8,19.3-0.7c3.4,0,6.7,1.3,10,1.9c5.9,1,11.9,1.6,17.8,2.7
		C273.6,33.3,275.1,32.5,275.1,26.1z M338.4,45.2c0.3-0.6,0.5-1.3,0.8-1.9c-1.8-0.8-4.1-1.2-5.3-2.6c-3.2-3.8-7.6-5-12-6.4
		c-6.8-2.1-13.6-4.2-20.3-6.5c-5.4-1.9-10.6,0-13.7,6c1.9,1,3.7,2.4,5.7,3c2.7,0.8,5.5,1.1,8.3,1.4c4.7,0.4,9.5,0.5,14.2,1.1
		c1.3,0.1,3.6,1.6,3.5,2.1c-0.8,3.7,1.6,3.8,3.8,3.3c2.3-0.5,4.4-1.8,6.1-2.6C332.2,43,335.3,44.1,338.4,45.2z M410.3,88.9
		c-1.6-10.1-12.3-9.5-17.8-14.8C392.5,85.5,399.7,88.9,410.3,88.9z M363.2,61.6c2.9,0.2,5.3-0.1,4.9-3.8c-0.3-2.5,0.3-5.7-3.9-5.2
		c-2.5,0.3-5.5-0.1-5.4,3.9C358.9,59.6,359.1,62.4,363.2,61.6z M414.1,98.5c0.8,1.7,1.1,3.6,2.3,4.8c1.1,1.1,3.1,2,4.5,1.8
		c1.4-0.2,2.9-1.7,3.8-3c0.4-0.5-0.2-2.6-0.8-2.9C420.9,97.7,417.9,94.6,414.1,98.5z M344.4,49.7c2.3,1.4,2.9,6.3,6.7,3.1
		c1.2-1,1.9-5.1,1-5.8C349.1,44.2,346.4,45.7,344.4,49.7z M443.2,197.4c1.6,0,2.9,0,4.4,0c0-1.7,0-3.2,0-4.9
		c-1.8,0.2-3.2,0.4-4.4,0.5C443.2,194.7,443.2,195.9,443.2,197.4z"/>
	<path d="M173.3,574.3c3.6-1.5,6.8-2.9,9.9-4.2c0.4,3,0.6,6.2,1.5,9.2c0.1,0.5,3,0.3,5,0.4c0.2-1.7,0.4-3.1,0.4-3.3
		c2.2-1.3,3.6-2.1,5.1-3c1,2.4,2,5.1,3.1,7.9c0.6-1.5,1.1-2.9,1.7-4.3c0.4,0,0.9,0,1.3,0c0.3,2.4,0.7,4.8,0.8,5.9
		c3.1,2.1,5.5,3.6,7.8,5.2c1.9,1.4,8,0.1,9.7-2.2c5.4,3.8,11.9,2.3,12.9-4.2c0.4,2.7,0.6,4.3,0.7,4.7c11.4,0,22.4,0,33.8,0
		c0-3.5,0-5.8,0-7.8c3.7-2.1,7.1-3.9,10.5-5.8c-0.3-0.1-0.5-0.2-0.8-0.4c2.3-3.2,4.5-6.4,7.1-9.9c4.4,5.6,7.7,4.7,8.3-1
		c0.2-1.9,0-3.9,0-5.3c1.5,1,3.2,2.1,4.4,3c-0.3,0.7-1.3,2-1,2.9c1.3,3.8,1.4,3.7-1.6,6.1c5.8,0.6,8.9-2.1,10-6.5
		c2.9,1.4,5.5,3.1,8.3,3.6c0.7,0.1,2.4-3.3,3.2-5.2c1.1-2.5,1.7-5.2,2.7-8.2c0.5,0,1.6,0,2.2,0c-0.8,1.9-1.6,3.9-2.5,6.1
		c2.7,0.7,4.6,1.2,6.8,1.7c1.6-3.8,2.9-7.7,4.9-11.2c0.7-1.3,3.1-1.9,4.8-2.4c2-0.6,4.1-0.8,7-1.3c3.3,4.9,4.1-3,7-3.1
		c1,0,2-1.4,2.9-2.3c0.5-0.5,1.3-1.5,1.2-1.7c-2.3-3.7,1.3-6.9,1.2-10.7c-2.4-0.7-4.7-1.4-8.1-2.4c1.8-1.3,3.1-2.9,4.4-2.9
		c2.9-0.2,5.9,0.4,9.3,0.6c0.1,0.8,0.3,2.2,0.5,3.6c3.2,0.8,2.9,0.7,1.2,4.1c-0.6,1.2,1,3.3,1.7,5.3c-1.7,0.8-3.9,1.8-6.1,2.9
		c-0.2-0.4-0.4-0.8-0.6-1.2c-1.8,2.5-3.6,5-5.7,7.8c1,0.5,1.8,0.9,3.1,1.5c-8.5,7.7-16.7,15.4-25.2,22.8
		c-6.6,5.7-13.2,11.4-20.3,16.3c-5.4,3.7-11.7,6-17.5,9.2c-3.7,2-7.9,3.7-10.8,6.6c-6.3,6.3-13.8,4.5-20.9,3.5
		c-4.5-0.6-8.7-3.3-13.1-4.8c-1.1-0.4-2.7-0.5-3.8,0c-4.6,1.9-8.5,0.5-13-1.3c-6.7-2.7-13.8-4.3-20.7-6.5
		C195,588.5,184.1,581.8,173.3,574.3z"/>
	<path d="M286.3,257.6c-0.2,1.5-0.4,2.5-0.6,3.7c-1-0.5-1.7-0.9-2.7-1.4c1,2.5,1.8,4.5,2.5,6.4c2.3,0.4,4.5,0.7,6.7,1.2
		c2,0.5,3.8,1.3,6.1,2c-1.7,1.3-3.2,2.5-4.7,3.7c0.3,0.5,0.7,1.1,1,1.6c1.4-0.8,2.8-1.5,4.3-2.4c0.1,0.3,0.4,1.2,0.8,2.4
		c1.1-0.3,2.4-0.6,3.8-1c-9,2.9-11.1,15.3-22.1,16.3c-0.3,4.7-3.1,5.1-7,3.1c-0.4-1.8-0.8-3.6-1.3-5.3c-2.2-7.5-0.4-13.6,5.9-18.6
		c0.8-0.6,0.1-4.1-0.8-5.8c-1-1.8-3-2.9-3.8-3.7c3.2-3.9,5.9-7.1,8.6-10.4c3.5-4.3,5.5-12.1,11.5-11.4c8.3,1,12.9-6.4,20-6.3
		c6.3,0.1,12.6,1.8,18.9,2.5c2.4,0.2,5.6,2.4,6.9-1.9c0.1-0.4,1.1-0.7,1.7-0.6c7.4,0.9,15.2,0.8,21.5,5.3c5.8,4.1,11,9.1,16.2,14
		c1.2,1.2,1.1,3.7,1.7,5.6c-2.1,0.5-4.4,1.8-6.3,1.4c-4.5-1.2-8.7-3.5-13.2-4.8c-5.4-1.5-11-2.7-16.6-3.5
		c-10.4-1.6-20.2,0.7-30.2,3.5C306,255.9,296.2,256.2,286.3,257.6z"/>
	<path d="M148.9,469.7c1.8-4.9,5.5-7,9.4-6.3c9.4,1.7,18.7,2,27.9-2.1c3.8-1.7,8.6-4.2,12.3,1.1c0.3,0.5,1.6,0.4,2.4,0.4
		c7,0,14,0.1,21,0c4.1-0.1,5.2-2.5,2.8-6.3c2.1-2.7,4.5-2.8,7.8-1.8c7.1,2.1,14.2,0.7,21.1-1.6c6-2,11.5-1.1,17,2.5
		c3.6,2.3,8.4,3.2,12.8,3.8c8.8,1.2,17.9,3.2,26.4,1.9c6.8-1.1,11.7,0.6,17.2,2.6c0.2,0.5,0.3,1,0.5,1.6c-2.9,1.4-5.7,3.8-8.7,4.2
		c-10.4,1.4-20.6,0.8-31-2.2c-11.1-3.2-22.7-3.5-34.6-1.1c-8.9,1.7-18.3,0.7-27.5,0.4c-15.7-0.5-31.4-1.9-46.5,4.2
		c-1.3,0.5-3.1-0.3-4.7-0.3c-3.3-0.1-6.7-0.3-10,0.1C159.3,471.1,154.4,469.5,148.9,469.7z"/>
	<path d="M281.8,407.3c-0.7,1.5-1.5,4.1-3.1,5.9c-1.7,1.9-4.2,4.2-6.5,4.4c-8.3,0.5-13.4,4.3-15.5,13.6c-4.1-3.1-7.8-5.9-12.4-9.3
		c1.3,4.1-0.2,8.6,4.6,8.8c0.4,1.9,0.9,4,1.3,6c0.2,1.2,0.6,3.3,0.1,3.6c-2.4,1.4-5.1,2.5-7.8,3.2c-0.4,0.1-1.5-1.9-1.9-2.5
		c-1.7,0.9-3.8,2.8-5.9,2.9c-2.6,0-4.3-2.6-6.3-4.2c-4.5-3.7-4.1-7.1-2.5-11.3c0.5-1.3,1.5-2.3,2.1-3.6c0.8-1.4,1.4-2.8,2.5-4.7
		c2-0.2,5.7,3.1,8.1-1.8c0.7-1.4,3.8-1.4,5.7-2.3c5.6-3,6.1-9.5,9.4-14.1c7.2-9.8,18.3-9.5,23.8,1.1
		C278.7,404.8,280.7,406.2,281.8,407.3z"/>
	<path d="M341.5,288.6c-0.5,1.9-1.2,3.6-1.5,5.3c-1,6.1-3.8,8.7-10.1,8.6c-4,0-8-0.7-12-0.9c-4.9-0.2-7.9-2.6-9.5-7.1
		c-0.7-2.1-0.5-5.9-4.2-4.6c-3.1,1-6.4,3.7-5,7.4c1.1,3,0.6,8.3,6.5,8c-1.4,0.5-2.9,0.8-4.3,1.4c-2.5,1.1-4.3,2-0.6,4.5
		c1.5,1,2.2,4.3,1.9,6.3c-0.2,1-3.7,2.2-5.5,1.9c-3.8-0.6-7.9-1.4-11.1-3.4c-2.7-1.7-5-5-6.2-8.1c-1.2-3.1-0.9-6.9-1.3-10.6
		c5.6,1,9.9,0.4,14-3.3c2.6-2.4,6.6-3.4,10-5c2.6-1.2,5.2-2.3,7.9-3.3c1.9-0.7,3.9-1.3,5.8-1.9c8.9-2.6,17.5,0.5,26,2.2
		c4.8,1,9.1,4.1,13.6,6.3c2.3,1.1,4.7,2.1,7.4,3.4c1.4-6.5,0.5-11-4.5-14.3c0.4-0.3,0.8-0.7,1.2-1c3.4,3.4,7.2,6.5,10.2,10.3
		c2.4,3.1-0.4,5.6-2.8,7.1c-3,1.9-5.9,3.3-10,2.2c-3.3-0.9-7.1,0.1-10.6,0.3C349.8,293.9,348.6,290.9,341.5,288.6z M298.2,304.8
		c-7-3.6-11.1-2.8-12.7,3.4C290,307,294.1,305.9,298.2,304.8z M314.1,288.8c0.2,3.5,0.3,5.6,0.4,7.7c0.4,0.2,0.7,0.4,1.1,0.6
		c0.9-1.8,2.2-3.6,2.6-5.6C318.4,291.1,316,290,314.1,288.8z"/>
	<path d="M117.6,235c4.2,6,4.8,5.4,12,3.2c5.1-1.5,11-0.3,17-0.3c-0.1-3.1,0-6.7,5-7.3c6.1-0.8,13.4,1.9,16.4,6.4
		c5-2.5,9.6,2.1,10.3,10.6c3.9-0.3,7.8-0.7,12.1-1c-0.4,1.3-0.7,2.2-1,3c-0.6-0.3-1.6-0.9-1.8-0.8c-1.1,1.1-2.5,2.3-3,3.8
		c-0.4,1.2,0.3,2.8,0.7,5.3c-4.6-1.1-8.5-2-12.5-2.9c-14.6-3.5-29.1-7.4-44.3-7.5c-4.4,0-8.8-1.6-11.3-5.7c-1.1-1.8-1-4.3-1.4-6.5
		C116.4,235.3,117,235.2,117.6,235z"/>
	<path d="M457.2,373.3c-0.8,1.7-2,3.9-3,5.9c-1.3-0.2-3.1-0.4-4.8-0.6c-0.3,0.4-0.6,0.7-1,1.1c1.2,1.8,2.4,3.5,4.1,6.1
		c-3.3,1.5-6.6,3.9-10.1,4.3c-3.8,0.4-7.8-1.1-12.5-1.9c-2.4-3.6-0.8-6.8,3.3-9.7c2.5-1.7,2.2-7.2,0.3-10.9c-1.8-3.4-3.4-7-4.5-10.6
		c-1.7-5.8,0.7-10.1,6.2-12.4c3.2-1.3,8.4,0.6,10.6,4.8c2.8,5.5,4.8,11.5,7.3,17.2C454.2,369.1,456,371.3,457.2,373.3z"/>
	<path d="M237,504.9c0.7,4.2,3,5.2,6.9,4.2c0.8-0.2,2,1.1,3.7,2c0.2-2.8,0.4-5,0.7-7.6c3.2,1.4,6,3.2,9.1,3.8c0.9,0.2,3-3,3.5-4.9
		c0.4-1.6-0.6-3.6-1.1-6.1c0.9-0.4,2.3-1.1,3.8-1.7c1-0.4,3,0.8,3.7,1.3c1.2,0.9,2.7,1.3,4.6,2.2c-0.4,0.5-1.7,1.6-1.7,2.6
		c0.1,1,1.5,2,2.5,3.2c-4.1,1.2-5,3.8-3.9,8.5c1.3,5.9-2.6,10.2-8.9,11.1c-8.6,1.2-17.2,2-26,3c-1.2-4.6-3.3-8.2,2.1-10.6
		c0.9-0.4,0.9-2.9,1-4.5C237.1,509.3,237,507.1,237,504.9z"/>
	<path d="M144.6,298.6c1.7,0.3,3.4,0.7,5.1,0.8c1,0,2.9-0.6,2.9-1c0-1.9,0.3-4.5-0.8-5.7c-3.9-4.2-11.4-4.3-17.3-0.8
		c-1.4,0.8-2.8,1.6-4.1,2.4c-0.2,2.3-0.4,4.7-0.5,6.7c-3.3,0-6.3,0-10.9,0c5.2-3.9,9.1-7.7,13.6-9.9c5.7-2.8,11.1-5.8,18.4-6
		c6.7-0.2,12.5,0.8,18.3,3.3c3.2,1.3,7.1,3.7,5.6,7.5c-1.3,3.4-4.5,7.3-7.8,8.4c-6,2.1-12.8,3.1-18.9-0.7c-1.4-0.9-2.3-2.4-3.5-3.7
		C144.5,299.5,144.6,299.1,144.6,298.6z"/>
	<path d="M461.9,366.4c-1.2-13.7-7-25.8-13.3-37.8c-0.5-0.9-0.8-2.8-0.3-3.2c3.2-3,6.2-6.7,10-8.5c4.6-2.1,7.3,0.4,7.2,5.9
		c-0.2,6.9-0.9,13.7-1.4,20.6C463.4,351.1,462.6,358.7,461.9,366.4z"/>
	<path d="M181.4,291c3.3,4.2,6.7,8.3,10.4,12.9c-2.3,0.8-3.9,1.1-5.2,1.8c-1,0.6-1.8,1.6-2.7,2.4c0.9,0.8,1.7,2.2,2.6,2.4
		c0.9,0.1,2.1-0.9,2.8-1.8c0.6-0.8,0.8-2,1.5-4.1c1.8,6-1.2,9.3-4.6,11c-7.8,3.9-16.1,6.8-24.2,10.1c-0.9,0.3-2,0-3.5,0
		c3.8-3.5,7.3-6.6,6.4-12c-0.5-3.3,1.8-3.7,4.3-3.9c6.2-0.6,8.9-5.9,12.4-9.9c0.8-1-0.3-3.7-0.6-5.5c-0.2-1-0.4-2-0.6-3
		C180.8,291.2,181.1,291.1,181.4,291z"/>
	<path d="M162.4,273.3c10.7,2.5,22.1,3.5,31,11.6c3,2.7,3.2,4.8,1.4,8.2C184.1,286.4,173.2,279.8,162.4,273.3z"/>
	<path d="M418.2,424.7c3.5,0,6.7,0,10.9,0c-1.3,1-2.3,1.9-4,3.3c0.9,3.2-0.8,8.1,3.5,11.2c-7.3,3.7-11,3.8-14.8,0
		c4.3-0.7,4.4-2.8,3.5-6.6c-1-4.4-0.2-9.2,0.4-13.9C417.9,420.5,418,422.2,418.2,424.7z"/>
	<path d="M215.4,403.8c-7.4,0.4-14.8,0.8-23.5,1.2c4.5-6,9.3-8,15-7.2C210.7,398.3,214.5,399.8,215.4,403.8z"/>
	<path d="M100.3,621.7c-6.6,4-12.8,7.7-19,11.4c-0.7-1.1-1.5-2.3-2.3-3.4C83.8,623.8,96.1,618.9,100.3,621.7z"/>
	<path d="M298.4,445.7c-0.2,2-0.4,3.6-0.6,5.1c-6.7,0.6-13.2,0.1-18.7-5.1C285.6,445.7,292,445.7,298.4,445.7z"/>
	<path d="M172.6,382.8c-2.2,1.4-4.6,2.6-6.6,4.4c-1.8,1.6-3,3.9-4.5,5.9c-0.9-1.1-1.7-2.1-2.9-3.5c3.5-4.2,7-8.4,10.3-12.4
		C170.5,379.5,171.8,381.5,172.6,382.8z"/>
	<path d="M379.3,511.2c-2.9,2.6-5.9,5.2-10.1,8.9c0-5.9,0-10.2,0-14.5c1.5,1.6,3,3.2,5.2,5.6c0.5-3.2,0.7-4.8,1-6.3
		c0.3,0,0.5-0.1,0.8-0.1c0.6,1.9,1.2,3.7,1.8,5.6C378.4,510.6,378.8,510.9,379.3,511.2z"/>
	<path d="M58,347.5c-1.3-5.5-2.5-10.3-3.7-15.1c0.2-0.2,0.5-0.5,0.7-0.7c2.6,3.4,5.6,6.7,7.6,10.5C63.1,342.9,59.7,345.7,58,347.5z"
		/>
	<path d="M179.4,23.1c-0.3-0.4-0.9-1.2-1.5-2c6.8-1.7,13.6-3.3,20.5-5c0.2,0.3,0.5,0.6,0.7,1c-1.6,1-3.2,2.4-5,3.1
		c-2,0.8-4.2,1.1-6.4,1.5C185.2,22.1,182.7,22.5,179.4,23.1z"/>
	<path d="M292.2,395.3c1.3-5.2,2.5-10.4,3.8-15.6c0.2,3.3,3.8,7.1-1.6,9.5c-0.9,0.4-0.5,4-0.6,6.1
		C293.3,395.3,292.8,395.3,292.2,395.3z"/>
	<path d="M64.4,308.9c0.3,1.7,0.5,2.9,0.7,4.2c-2.3,0.4-4.3,0.8-6.4,1.2C57.1,311,57.1,311,64.4,308.9z"/>
</g>
</svg>
