<?xml version="1.0" encoding="utf-8"?>
<!-- Generator: Adobe Illustrator 18.0.0, SVG Export Plug-In . SVG Version: 6.00 Build 0)  -->
<!DOCTYPE svg PUBLIC "-//W3C//DTD SVG 1.1//EN" "http://www.w3.org/Graphics/SVG/1.1/DTD/svg11.dtd">
<svg version="1.1" id="Слой_2" xmlns="http://www.w3.org/2000/svg" xmlns:xlink="http://www.w3.org/1999/xlink" x="0px" y="0px"
	 viewBox="-49 164 1338 1216" enable-background="new -49 164 1338 1216" xml:space="preserve">
<path fill="#000000"    d="M1108.9,192.8C975.6,144.1,830.4,208,787.6,325.4
	c-21,57.7-12.3,120.7,17.8,175.8c-52.8-20.6-111.7-32.2-173.8-32.2c-79.9,0-154.4,19.1-217.3,52.1c48.3-98.5,29.4-213-44.9-279.2
	c-90.8-80.9-244.1-59.2-340.2,48.8s-86.5,260.9,4.2,341.9c61,54.4,149.5,62.4,230.1,29.1c-25.6,44-40,93.6-40,145.8
	c0,27,3.8,53.2,11,78.5c-40.9,39.4-64.5,85.1-64.5,134.1c0,116.8,133.4,215.7,318.4,250.6c18.6,57,76.1,98.7,144,98.7
	c67.5,0,124.7-40.9,143.7-97.4c188.2-33.9,324.7-133.7,324.7-251.7c0-51.5-26-99.5-70.9-140.2c6.1-23.3,9.5-47.6,9.5-72.6
	c0-61.1-19.5-118.6-53.6-168.1c124.4,29.8,246.1-44.9,282.9-155.3C1303.2,380.6,1242.2,241.5,1108.9,192.8z M1038,1066.8
	c-17.5,59.6-46.7,119.7-128.8,156.8S772.6,1263,772.6,1263s-42.9,99-134.3,99c-112.9,0-146.3-98.1-146.3-98.1
	s-140.2-28.1-202.4-80.6c-62.1-52.5-111.1-120.8-85.7-174.4c25.4-53.5,68.3-64.9,101.5-66.6c33.3-1.7,64.9,7.9,64.9,7.9
	s-37.3-110.7-42.9-148.9c-9.3-62.4,25.4-187.5,85-239.2s111.2-67.5,134.1-57.9c22.7,9.6,43.8,29.8,50,53.5
	c6.2,23.7,15.8,43.8,15.8,43.8s13.8-39.4,38.4-73.6c24.6-34.2,51.8-42.9,83.3-30.6c31.5,12.3,118.3,58.7,146.4,175.2
	c28.1,116.5-34.2,275.2-34.2,275.2s71-26.3,124.4,0S1055.7,1007.2,1038,1066.8z"/>
<path fill="#000000"    d="M622.3,1202.9c49.7,0,132.7-25.8,166-46.7
	c33.3-21,95.6-83.3,95.6-83.3s-44.8,37.8-95.6,120.1c-50.8,82.3-79.3,146.7-166,139.3c-75.1-6.4-87.2-38.7-124-100.1
	c-36.7-61.4-137.5-141-137.5-141s106.4,84,170,100C583.3,1204.3,602.8,1202.9,622.3,1202.9z"/>
<ellipse fill="#000000"    cx="617.5" cy="1015.1" rx="120" ry="68.3"/>
<path fill="#000000"    d="M529.9,870.2c0-36,14.7-65.2,32.9-65.2
	c15.2,0,28,20.5,31.8,48.3c3-16.9,4.7-35.6,4.7-55.2c0-76-24.7-137.5-55.2-137.5s-55.3,61.3-55.3,137.2s24.7,137.5,55.2,137.5
	c3.4,0,6.8-0.8,10.2-2.4C540.1,925.4,529.9,900.1,529.9,870.2z"/>
<path fill="#000000"    d="M685.9,660.2c-30.5,0-55.2,61.6-55.2,137.5
	c0,20.8,1.8,40.4,5.1,58c3.2-29.2,16.4-51.1,32-51.1c18.2,0,32.9,29.2,32.9,65.2c0,30.4-10.4,55.8-24.6,63.1
	c3.1,1.4,6.4,2.1,9.6,2.1c30.5,0,55.2-61.6,55.2-137.5C741.1,721.8,716.4,660.2,685.9,660.2z"/>
</svg>
