<?xml version="1.0" encoding="utf-8"?>
<!-- Generator: Adobe Illustrator 18.0.0, SVG Export Plug-In . SVG Version: 6.00 Build 0)  -->
<!DOCTYPE svg PUBLIC "-//W3C//DTD SVG 1.1//EN" "http://www.w3.org/Graphics/SVG/1.1/DTD/svg11.dtd">
<svg version="1.1" id="Слой_2" xmlns="http://www.w3.org/2000/svg" xmlns:xlink="http://www.w3.org/1999/xlink" x="0px" y="0px"
	 viewBox="255 108 1073 1202" enable-background="new 255 108 1073 1202" xml:space="preserve">
<path fill="#000000"    d="M1308.7,123.1c-21.1-22.2-86.7,10-183.3,47.8
	c-96.6,37.7-198.8,121.1-198.8,121.1s-56.7-17.7-118.9-17.7s-116.6,12.2-116.6,12.2s-32.2-16.6-69.9-44.5
	c-37.7-27.8-207.8-96.6-264.3-102.1c-56.7-5.5-53.3,21.1-55.6,33.3c-2.2,12.2,13.4,36.7,75.5,97.8s188.8,151.1,188.8,151.1
	s-4.5,12.2-11.1,37.7c-6.6,25.6-10,36.7-10,36.7S299,280.8,297.9,285.3c-1.1,4.5-31.1,324.4-31.1,324.4l226.6,104.4L415.6,784
	l116.6,65.6l-47.8,51.1l33.3,30c0,0-26.7,105.5-17.7,184.4c8.9,78.9,62.2,110,62.2,110s-3.4,7.7-14.5,18.9
	c-11.1,11.1-30,35.6-20,52.2c10,16.6,85.5,1.1,104.4,0c18.9-1.1,66.7-21.1,75.5-24.5c8.9-3.4,10.2-15.6,10.2-15.6s64.2-11.1,93-14.5
	c28.8-3.4,88.9,7.7,88.9,7.7s-3.4,11.1,0,21.1s14.5,8.9,30,7.7c15.6-1.1,61.1,8.9,79.9,11.1c18.9,2.2,101.1-2.2,113.3-7.7
	c12.2-5.5,13.4-22.2,1.1-48.8c-12.2-26.7-52.2-27.7-52.2-27.7s31.1-30,47.8-64.4s7.7-86.7,0-146.6s-34.5-167.7-43.3-199.9
	c-8.9-32.2-16.6-87.8-16.6-87.8s3.4-13.4,10-25.6c6.6-12.2,18.9-48.8,23.4-84.4c0,0,0-47.8-10-92.2c-10-44.5-24.5-93.3-24.5-93.3
	s11.1-4.5,59.9-40c48.8-35.6,117.8-105.5,163.3-150C1327.7,176.4,1329.8,145.3,1308.7,123.1z M959.5,421.3
	c19.1-11.1,46.5,0.2,61.1,25.5c14.7,25.2,11.1,54.6-8,65.7c-19.1,11.1-46.5-0.2-61.1-25.5C936.9,461.9,940.5,432.5,959.5,421.3z
	 M835,498.1c16.6,0,25.8,4.1,28.3,8.4c2.5,4.1-14.1,27.5-25.8,26.2c-11.6-1.2-32.6-17.2-32.5-26.2
	C805.1,498.6,818.4,498.1,835,498.1z M630.8,446.6c16-23.6,44.1-32.5,62.7-19.9c18.6,12.6,20.7,42,4.7,65.7
	c-16,23.6-44.1,32.5-62.7,19.9C616.9,499.7,614.8,470.2,630.8,446.6z M545.6,619.7c0-33.7,17.6-61.1,39.5-61.1s39.5,27.3,39.5,61.1
	s-17.6,61.1-39.5,61.1S545.6,653.4,545.6,619.7z M748.5,951.7l-18.5,3.9l-3.1,22.2l-14.4,3.1l-6.2,11.6l-135.9-92.3l131.7,78.4
	l18.6-8.6l2.7-24.5l14.1-3l-2.5-22.2l22-13.9l-86.4-120l99.8,124l-24.6,17.9L748.5,951.7z M767.9,583.9
	c-26.2-4.2-31.7-24.2-31.7-24.2s11.6,13.4,27.5,11.6c15.9-1.6,46.1-17,58.3-20.9c6.6-2.1,20.4-2.1,30,3.4
	c14.1,8,31.7,19.6,46.7,17.5c15-2.1,36.7-15,36.7-15s-8.4,29.2-36.2,27.5c-27.8-1.6-49.7-20.9-64.8-20.4
	C819.2,563.9,780,585.9,767.9,583.9z M1064.3,875.2L951.1,994.1l-8.6-10h-14.7L920,963h-18.9l-2.2-23.4l-27.7-12.2l71.4-142.2
	l-59.2,135.5l24.5,8.9l2.2,22.2h14.5l7.7,23.4l20,4.5L1064.3,875.2z M1081.1,606.9c0,35.8-17.9,64.9-40,64.9
	c-22.1,0-40-29.1-40-64.9c0-35.8,17.9-64.9,40-64.9C1063.1,541.9,1081.1,571,1081.1,606.9z"/>
</svg>
