<?xml version="1.0" encoding="utf-8"?>
<!-- Generator: Adobe Illustrator 20.0.0, SVG Export Plug-In . SVG Version: 6.00 Build 0)  -->
<svg version="1.1" id="Слой_1" xmlns="http://www.w3.org/2000/svg" xmlns:xlink="http://www.w3.org/1999/xlink" x="0px" y="0px"
	 viewBox="0 0 280.2 287.4" style="enable-background:new 0 0 280.2 287.4;" xml:space="preserve">
<g>
	<g>
		<path d="M227.5,125.5c0.8-4.6,1.2-9.1,0.1-13.7c-1-4.3-2.8-5.6-5.9-4.9c-1.4,0.3-1.8-0.3-1.8-1.7c0.1-5.8,0-11.5-0.1-17.3
			c-0.1-2.2,0.5-4,1.6-5.9c3.3-5.4,3.9-11.5,2.9-17.6c-1.3-7.8-4.6-15-9.4-21.3C198.4,21.4,178.2,5,150.5,0
			c-11.3-2.1-22.4-0.7-33.4,2.3c-4.5,1.3-8.7,3-13.5,1.8c-1.1-0.3-2.4-0.2-3.6-0.3C86.8,3.2,75.6,7.6,66.6,17.2
			C60.5,23.8,56,31.5,51.2,39.1C45.4,48.2,41,57.8,39.7,68.7c-1.4,11.4-0.1,22.5,2.3,33.6c2,8.9,4.6,17.7,7.3,26.4
			c1.6,5.3,2.9,10.8,4.8,16c3.4,9.5,6,19.2,7.4,29.3c0.7,5.1,1.2,10.2,2.2,15.2c2.3,10.9,6.1,21,13.7,29.3c4,4.5,8.9,8.2,13.3,12.3
			c2.9,2.6,4,5.6,3.2,9.3c-0.5,2.2-0.9,4.5-1.6,6.6c-0.6,1.8-1.4,3.3-3.8,3.9c-3.9,0.9-7.7,2.3-11.5,3.8
			c-12.5,5-24.7,10.7-36.8,16.6c0.1,0.2,0.3,0.3,0.4,0.5c1.9,0.4,3.7,1.1,5.6,1.8c1.3,0.5,2,1.5,2.2,2.5c0.1,0,0.1,0.1,0.2,0.1
			c0.3,0.1,0.5,0.3,0.7,0.5c3.9,0.7,7.7,1.6,11.5,2.2c1.1,0.2,1.8,0.8,2.1,1.6c0.3,0.2,0.5,0.3,0.7,0.5c1.7,0.3,3.3,0.5,5,0.7
			c0.4,0.1,0.8,0.2,1.1,0.3c4.9,0.5,9.8,1,14.7,1.8c0.4,0.1,0.7,0.2,1,0.4c0.9,0.2,1.7,0.4,2.6,0.8c1.5-2.2,2.8-4.5,4.4-6.6
			c1.5-2,1.6-3.9,1-6.3c-1.3-5.6-2.3-11.4-0.8-17.1c1.6-6.1,3.6-12.1,4.1-18.4c1,0,1.3,0.6,1.8,1.2c4.3,5.2,9.5,9.1,15.8,11.2
			c15.8,5.2,30,1,43.1-8.1c5.9-4.1,11.2-9,16.8-13.5c8.7-6.9,16.9-14.3,21.8-24.6c1.4-3,2.8-6,3.2-9.4c-2.4,4.6-4.8,9.2-8.1,13.2
			c-5.5,6.8-10.9,13.7-18.9,17.8c-4.8,2.5-9.7,4.2-15.2,3.4c-2-0.2-2.7-1-2.5-3.1c0.8-8.5,0.8-17,0-25.5c-0.4-4.3-1.5-8.2-6-10
			c-2.5-1-5-1.4-7.6-1.7c-4.4-0.6-8.5-1.6-11.9-4.5c-1.5-1.3-2.9-1.6-4.8-1c-5.7,1.8-11.6,1.7-17.4,0.9c-1.4-0.2-2.3,0-3.2,1
			c-4,4.5-8.5,8.3-15,8.9c-1,0.1-1.2,0.8-1.4,1.7c-0.5,3.3-1,6.5-0.8,9.9c0.4,6.2,1.8,12.3,2.6,18.5c0.2,1.4,1.3,3.2,0,4
			c-1.1,0.6-2.2-1.3-3.2-2.2c-12.9-11.3-20.1-25.5-21.6-42.6c-1.1-12.1-3.7-23.8-7.6-35.3c-1.7-5-3.9-9.8-4.8-15.2
			c-2.4-14.3-0.8-28.2,2-42.1C55.5,81,57,72.9,57,64.6c0-1.4,0.5-2.6,1.1-3.8c3.9-6,12.8-6.3,17.9-3.3c3.3,1.9,6.6,3.9,10,5.8
			c8.4,4.9,17.3,7.7,27.1,4.5c10.4-3.4,20.9-6.6,31.2-10.1c5.5-1.9,11-2.3,16.6-0.4c2.5,0.8,4.6,2.1,5.6,4.6
			c0.9,2.3,2.3,4.3,3.6,6.3c6,9.3,10.6,19.2,12.9,30.1c0.5,2.1,1.3,3.6,3,5c6.5,5.1,10.4,11.9,11.5,20.1c0.3,2,1,2.8,2.8,3.2
			c3.1,0.7,7-0.4,7.7-2.5c2.1-6,6.5-10.2,10.5-14.7c2.4-2.7,6.2-1.8,7.5,1.5c0.9,2.1,1.6,4.4,1.5,6.8V125.5z M93.7,196.9
			c4.2-2,8.4-4.3,12.6-6.5c1.2-0.6,2.3-0.7,3.5-0.4c2.7,0.6,5.4,0.8,8,0c3.5-1,6.5-0.4,9.6,1c4.4,2,9.2,2.9,14,3.7
			c4.2,0.7,4.4,0.8,4.7,5.2c0.3,5.1,0.9,10.2-0.7,15.2c-1.5,4.5-4.9,7.6-9.7,7.8c-3.2,0.1-6.3,0-8.2,0c-5.2-0.5-9-0.5-12.8-0.1
			c-2.2,0.2-4.1,0.8-5.9,2c-2.4,1.5-4.7,0.1-6.8-1c-4.1-2.1-6.2-5.9-7.8-9.9c-1.8-4.4-2.1-9.1-2.4-13.8
			C91.7,198.5,92.2,197.6,93.7,196.9z"/>
		<path d="M107,287c2.9,0,5.7,0.3,8.3,0.9c2.7-0.9,5.4-1.4,8.2-1.7c0,0,0,0,0,0c-1.7-3.5-3.3-7-3.9-10.9c-0.1-0.9-0.1-2-1.3-2
			c-2.2-0.1-4.3-0.4-6.3,1.1c-4.3,3.2-7.4,7.6-10.5,11.9c-0.4,0.5-0.7,1.1-1.3,1.4c0,0,0,0,0,0C102.4,287.2,104.7,287,107,287z"/>
		<path d="M205.7,286.8c0.3,0,0.6,0,0.8-0.1c0.4-0.8,1-1.5,2-1.8c1.2-0.4,2.4-0.6,3.5-0.7c0.6-0.7,1.4-1.1,2.3-1.1
			c3.9,0.2,7.9,0.6,11.8,0.6c0.5-0.4,1-0.8,1.5-1.2c0.3-1,1-1.8,2.1-1.9c0.2,0,0.4-0.1,0.6-0.1c0.2-0.6,0.7-1.2,1.3-1.6
			c1-0.6,2-1.1,3-1.6c0.2-0.7,0.6-1.3,1.3-1.7c0.2-1,0.9-2,2.2-2.4c1.2-0.4,2.3-0.7,3.5-1.1c0.2-0.8,0.7-1.6,1.5-2
			c0.3-0.6,0.8-1.1,1.5-1.4c0.3-1.2,1.3-2.2,3-2.3c0.6,0,1.2-0.1,1.8-0.2c0.3-0.6,0.7-1.1,1.3-1.4c0.1-0.1,0.3-0.1,0.4-0.2
			c0.3-0.8,1-1.5,2.1-1.8c0,0,0,0,0.1,0c0-1.2,0.7-2.3,2.3-2.6c0.5-0.1,1-0.2,1.5-0.3c0.2-0.7,0.7-1.4,1.4-1.7
			c1.6-0.8,3.2-1.4,4.7-1.7c0.4-0.2,0.7-0.4,1.1-0.6c-2.9-1.5-5.8-2.9-8.7-4.2c-9.6-4.5-17.5-10.7-23.2-19.6
			c-3.4-5.2-6.5-10.6-9.8-15.9c-1.7-2.7-3.8-5.3-7-6c-2.1-0.5-3-1.6-3.7-3.3c-0.3-0.7-0.6-1.3-0.9-2c-1.2-2.7-3.1-5.1-3.5-8
			c-1.2-8.4-1-17-0.9-25.5c0.1-1.7,0.7-2.4,2.5-2.3c4,0.3,7.1-1.5,9.6-4.6c3.4-4.3,5-9.4,6.2-14.6c0.6-2.7,1.6-5.4,1.3-8.3
			c-0.8,2.7-1.4,5.4-2.2,8.1c-1.5,5.2-3.2,10.2-6.9,14.3c-2.8,3.2-6.2,4.7-10.4,2.9c-1.3-0.6-1.8-0.2-1.9,1.3
			c-0.8,9.6-0.3,19,0.5,28.5c0.2,1.7,0.8,3.3,1.6,4.8c1.6,3.1,3.1,6.3,4.8,9.3c2.3,4,3.8,8.2,2.5,12.9c-1,3.8-2.4,7.4-4.5,10.7
			c-5,8-11.5,14.7-17.6,21.8c-7.8,9.1-15.2,18.5-19.8,29.7c-0.2,0.5-0.4,0.8-0.7,1.1c0.4,0.1,0.8,0.3,1.2,0.4
			c3.3-0.9,6.8-1.5,10.3-1.5c3.7,0,7.2,0.5,10.5,1.4c1.8-0.3,3.6-0.4,5.5-0.4c1.7,0,3.4,0.1,5.1,0.3
			C204.5,287,205,286.8,205.7,286.8z"/>
		<path d="M169.9,136.3c-3.2,0.1-6.1-0.9-9.1-1.5c-0.7-0.2-1.4-0.5-2.1-0.4c-8,1.9-16.2,2.5-24.4,2.1c-0.4,0-0.8,0.1-1.7,0.3
			c4.6,3.6,9.8,4.7,14.7,6.4c-3.6,0.5-6.9-0.5-10.2-1.7c-0.5-0.2-1.1-0.7-1.5-0.3c-0.7,0.6,0.1,1.2,0.4,1.7c1.5,2.7,3.6,4.9,5.8,7
			c0.6,0.5,1.1,1.1,1.6,1.7c-2.5-1-4.5-2.6-6.6-4.2c-4.1-3.2-8.1-6.4-11.4-10.5c-2.4-2.9-2.1-4.9,1.6-5.9c7.3-2,14.5-4.8,22.3-3.6
			c5.4,0.8,10,3.4,14.8,5.8C165.9,134.3,167.9,135.3,169.9,136.3z M138.2,135.5c0.8-0.6,2.7,0.7,2.4-1.3c-0.2-1.4,0.7-3.3-1.1-4.3
			c-0.6-0.3-4.1,3.7-3.9,4.5C135.9,136.1,137.3,135,138.2,135.5z M157.3,132.5c-1.8-0.8-2.9-2.7-4.6-1.8c-0.8,0.4-1,2.6-0.3,3
			C153.9,134.6,155.5,133.6,157.3,132.5z"/>
		<path d="M83.4,160.2c3-4.1,5.6-7.8,8.3-11.6c0.7-1,2.1-2.6,1.6-3.3c-0.9-1.2-2.3,0.3-3.4,0.7c-3.8,1.1-7.6,2-11.5,2.7
			c3.5-1.8,7.3-2.9,10.6-5.2c1.4-1,2.7-2,3.9-3.2c1-1,0.6-1.6-0.5-1.8c-0.9-0.2-1.8-0.2-2.7-0.2c-7-0.2-13.9,0-21.2,1.4
			c2.7-4.6,6.1-7.6,11-8.1c7.9-0.9,15.5,0.8,22.4,4.9c2.6,1.6,2.6,2.2,1,4.8c-4.5,7.2-10.6,13-17.3,18
			C84.9,159.7,84.4,159.8,83.4,160.2z M76.9,137.9c0.5-1,2.5,0.9,2.2-1.2c-0.1-1,0.7-3.2-1.1-3c-1.6,0.1-3.1,1.8-3.4,3.4
			C74.5,138.5,76,137.5,76.9,137.9z M94.6,137.6c-1.2-1.2-1.6-2.4-3-2.2c-0.6,0.1-0.7,1.1-0.5,1.4C91.7,138,92.9,137.5,94.6,137.6z"
			/>
		<path d="M143.3,111.7c8.1,0.2,15.8,3.1,23.2,6.8c1.2,0.6,2.3,1.2,3.4,1.9c0.8,0.5,1.6,1,1.2,2.1c-0.4,1.2-1.6,0.8-2.3,0.6
			c-2.4-0.8-4.8-1.9-7.2-2.8c-8.1-3.1-16.3-3.2-24.6-1.4c-4.7,1-9.2,2.4-13.7,4c-1.5,0.6-2.7-0.2-3.6-1.3c-0.6-0.7-0.7-1.6,0.3-2.3
			C127.1,115.1,134.5,111.7,143.3,111.7z"/>
		<path d="M102.1,255.4c2.7,2.2,5.2,4.6,7.8,6.8c4.6,3.7,9.7,4,14.9,2.3c21.7-7,41.4-17.6,58.2-33.3c6.4-6,12.1-12.5,17.2-19.6
			c0.3-0.4,0.6-0.7,1.4-0.9c-0.5,1-1,2.1-1.7,3.1c-7.4,12.2-17.8,21.4-29.4,29.5c-14.2,9.9-29.6,17.5-45.7,23.7
			c-5.4,2.1-10.8,1.8-15.4-2.6C106.7,261.7,104,258.9,102.1,255.4z"/>
		<path d="M219.2,149.3c-4.3-4.8-4.3-4.8-9.1-1.5c-0.1-2.3,0.5-4.4,0.1-6.5c-0.3-2.2-0.7-4.5-1.5-6.6c-0.5-1.3-0.9-2.5,0.6-3.7
			c1.2-0.9,1.6-3.7,2.8-3.1c2.7,1.2,6,0.8,8.4,2.8c2.1,1.8,2.2,4,1.4,6.4c-0.7,2-1.5,3.9-2.3,5.9C219,144.7,219.3,146.8,219.2,149.3
			z"/>
		<path d="M90,125.2c-1.7-0.3-3.6-0.6-5.5-1.1c-4.2-1.1-8.5-1.5-12.8-1c-3.9,0.4-6.5,3.1-8.9,5.8c-0.9,1-1.6,3.1-3.3,2.2
			c-1.5-0.8-1.1-2.7-0.8-4.2c1.2-6.8,6.3-10.4,13.6-9.6c6.9,0.8,13.2,3.5,19.5,6.3c0.5,0.2,1.3,0.4,0.9,1.1
			C92.2,125.5,91.1,125,90,125.2z"/>
		<path d="M130.5,159.9c4.5,3.4,8.1,7.6,11.1,12.2c-2.2-1.9-4.3-3.9-6.5-5.8c-0.8,0.9-0.1,1.3,0,1.8c0.9,3.2-0.1,5.9-2.8,7.8
			c-2,1.4-4.3,1.8-6.6,2.4c-0.4,0.1-0.9,0.1-1.2-0.1c-1-0.8-2-1.6-3.3-2c-1.2-0.3-2.4-0.6-3.6-1.2c3.1-1,6.4-1.8,9.3-0.2
			c2.3,1.3,3.7,0.3,5.2-0.8c1.7-1.2,2.4-3,1.9-5.1c-0.6-2.7-1.8-5.2-3.3-7.5C130.7,161.1,130.3,160.7,130.5,159.9z"/>
		<path d="M76.1,94c7-1.7,14-0.7,20.9-0.5c7.7,0.2,15.1-0.7,22.4-3.6c4.3-1.7,9-1.8,13.6-0.6c-8.5-1.3-15.8,3.1-23.7,5
			c-1.1,0.3-2.2,0.5-3.3,0.5c-6.2,0.2-12.5-0.1-18.7-0.7C83.6,93.7,79.8,94,76.1,94z"/>
		<path d="M224.9,129.7c-1.5-3-1.3-6.3-2.6-9.2c-0.4-0.9-0.7-1.9-1.3-2.8c-1.4-2.2,0-5.8,2.5-6.4c1.8-0.5,2.4,1,2.5,2.4
			c0.4,3.6,0.1,7.1-0.3,10.7C225.6,126.1,225.2,127.8,224.9,129.7z"/>
		<path d="M135.5,75.6c-8.3,0.5-14.8,4.3-21.8,6.5c-5,1.6-9.9,2.2-14.9,0c-2.9-1.3-5.9-2.2-9.1-2c3.6-1.1,6.9,0,10,1.3
			c5.2,2.2,10.1,1.1,15.1-0.7c4.8-1.8,9.5-4,14.5-5.3C131.1,74.8,133,74.6,135.5,75.6z"/>
		<path d="M107.8,179.1c-4.1,0.7-7.4,0.7-10.7-1.6c1.1-0.4,2.2,0.1,2.4-1.4c0.2-1.7,1.6-1.7,2.8-1.1
			C104.1,175.9,105.7,177.2,107.8,179.1z"/>
		<path d="M105.1,113.5c-0.3-5.1-4.6-5.1-7.8-6.3c-3.4-1.3-7.1-2-10.6-3.1c3.9-0.1,7.5,1.3,11.2,2.1c1.5,0.3,2.9,0.9,4.3,1.5
			C104.8,108.8,105.6,110.3,105.1,113.5z"/>
		<path d="M135.2,99.2c-4.9,0-9.7,0.6-14.5,1.3C125.3,97.8,130.3,98.7,135.2,99.2z"/>
		<path d="M94.6,173.6c-1-3.2-0.6-6.3,1.5-9C95.4,167.6,94.7,170.5,94.6,173.6z"/>
		<path d="M142.5,197.9c-1.1,1.4-2.5,2-4.2,2.1c-2,0.1-4,0-6.1-0.4c-4.1-0.7-8.2-1.2-12.2,0.6c-2.3,1-4.6,1.1-6.9,0.5
			c-3.2-0.8-6.3-0.3-9.4,0.5c-2.1,0.5-4.2,0.5-6.3,0.5c-1.3,0-2.1-0.7-2.8-2.6c3.8,1.7,7.1,0.5,10.4-0.5c3.1-1,6.2-1,9.4-0.5
			c2.6,0.4,5-0.4,7.4-1.1c1.8-0.5,3.5-0.5,5.3-0.2c3.1,0.6,6.2,1.1,9.3,1.7C138.5,198.7,140.5,198.4,142.5,197.9z"/>
		<path d="M120,190.9c4.6,0.2,8.7,2.5,13.1,3.8c-4.4-1.1-8.8-2.1-13.2-3.2C120,191.3,120,191.1,120,190.9z"/>
		<path d="M116.4,192.6c-3.3,2.2-6.2-1-9.4-0.5C110.2,190.9,113.2,193.6,116.4,192.6z"/>
		<path d="M114.9,207.1c3.3-0.1,6.5-0.2,9.7-0.8C121.4,207.6,118.2,207.9,114.9,207.1z"/>
	</g>
</g>
</svg>
