<?xml version="1.0" encoding="utf-8"?>
<!-- Generator: Adobe Illustrator 19.1.1, SVG Export Plug-In . SVG Version: 6.00 Build 0)  -->
<svg version="1.1" id="Слой_1" xmlns="http://www.w3.org/2000/svg" xmlns:xlink="http://www.w3.org/1999/xlink" x="0px" y="0px"
	 viewBox="-277 23.3 404.1 514.7" style="enable-background:new -277 23.3 404.1 514.7;" xml:space="preserve">
<style type="text/css">
	.st0{fill:#012010;}
</style>
<g>
	<g>
		<path class="st0" d="M-128,493.3c-0.4,0.3-0.8,0.9-1.1-0.1c-0.3-1.2-0.1-2.4,0.1-3.6c0.8-4.5,0.6-8.8-0.6-13.2
			c-0.9-3.3,0.3-6.5,1.2-9.6c0.5-1.6,0.7-1.5,0.7-2.3c1.6-0.6,0.4-2.4,1.4-3.2c0.7-2.8,1.2-5.6,0.4-8.5c-0.6,2.8-1.1,5.6-0.4,8.5
			c-1-0.7-0.9-2.1-1.6-3.2c-0.3,1.3-0.4,2.4-0.1,3.6c-1.4,0.1-1.1,1.3-1.3,2.1c-0.7,3.1-1.1,6.3-1.9,9.3c-0.4,1.5-2,2.6-2,4.4
			c-0.6-5.9-0.2-11.7,2.4-17.1c0.2,2.2-1.9,4.1-0.5,6.9c0.9-3.3,1.7-6.2,2.4-9.1c-0.9,0.7-0.8,1.9-2,2.4c0.2-1.5,1.2-2.9,0.4-4.5
			c-3.7,5.9-2.5,13.2-5.3,18.4c-2.4-3.9-0.7-8.8,0-13.7c0.3-2.4,0.1-4.9,0.6-7.3c-1.2,1.8-1.5,3.9-2,6.1c-0.3-2.1,0.5-3.9,0.7-6.1
			c-2.1,0.9-1.1,3.4-2.8,4l0,0c0-0.2,0.1-0.3,0.1-0.5c-0.2-0.8-0.5-0.1-0.5,0c-0.5,1.3-1.2,2.6-1.3,3.9c-0.3,2.8-0.3,5.6-3.1,7.3
			c-0.3-1.3,1.4-2.5,0.5-4.4c-2.5,6.2-3.8,12.5-4.4,18.9c-0.6-9.7,3.8-18.4,6.1-28.2c-3.7,4.9-7,18.9-8.3,34.4c-0.1-5,0-10,1.2-15.2
			c-1.5,0.6-1,2-2,2.3c-0.8-0.7,0.3-1.5-0.1-2.2c-0.6,0.2-0.6,0.7-0.7,1.2c-0.2,1.1,0.5,2.7-1.6,2.6c-0.1,0-0.4,0.6-0.4,0.9
			c-0.4,3.5-1.4,7.1,0.1,10.6c-0.2-3.1,1.5-5.8,1.1-9.4c1.6,1.1,1.3,2.2,1.3,3.2c0,3.6,0,7.2-0.1,10.8c0,0.3,0,0.5,0,0.8
			c-0.1,1.5,0.8,3.8,1.5,3.7c1.9-0.2-0.2-2.1,0.7-3.2c0.9,1.5,1.8,3,0.6,4.7c-0.2,0.3,0,1.9-1.3,0.6c-0.3-0.3-0.5,1-0.5,1.6
			c0.4,2.8-2.2,4.5-2.3,7.1c-2.9-0.6-1.3,3.1-3.2,3.4v0.1c0.1-1.7,0.3-3.3,1.4-4.8c1.1-1.5,0.6-3.5,1-5.2c0.7-3.3,0.9-6.5-0.4-9.7
			c-1.3,3.3-0.2,6.7-0.6,10.2c-0.5,0.2-0.5-1.4-1.5-0.5c-4.4,4.1-9.7,7.1-14.2,11.1c-0.8,0.7-1.3,2.3-3,1.5c-0.6-0.3-0.7,0.3-0.6,1
			c0.1,0.8,0,1.7,0.2,2.5c1.9,6.5,1.1,13.3,2.4,19.9c0,0.2-0.1,0.5-0.2,1.4c-1.3-5-2.9-9.2-3.3-13.8c-0.3-2.9-0.5-5.8-1.2-8.6
			c-0.5-2.1,0.2-3.2,2-3.9c1.1-0.5,2.2-0.8,1.2-2.4c-0.3-0.5,0.2-1.4,0.5-2.1c1.6-3.5,1.4-7.5,2.9-11.4c0.8,1.4-0.1,2.4-0.3,3.5
			c-0.1,0.6-1,1.8,0.8,1.2c-0.9,3-1.9,6.1-3,9.6c1.4-1,1.9-2.1,2.9-2.6c0.6-0.3,1.1-1.3,0.5-1.9c-1.1-1.1-1.3-1.1-0.8-2.1
			s0.7-1.9,0.3-2.9c0.3-0.7,0.6-1.4,0.9-2.1c1.7-3.9,1.1-5.9-2.8-7.4c-1-0.4-1.6-2.2-2.6-1.4c-1.1,0.9,0.2,2.2,0.3,3.4
			c0.4,3.3-1.2,5.6-3.1,7.9c1.6-2.4,3-4.8,2.4-7.8c-0.1-0.4,0.2-1.2-0.7-1c-0.2,0-0.3,0.5-0.7,1.2c0-3.3,0-6.1,0-8.9
			c-0.2,0-0.4-0.1-0.7-0.1c-0.7,5.7,0.3,11.7-2.8,17.1c0.4-5.3-0.1-10.4,0.5-15.6c-1.6,7.3-3.2,14.6-6,21.6
			c0.3-3.2,0.4-6.4,0.1-10.2c-1.6,2.6-0.3,5.5-2.6,7.5c-0.1-1.5,0.3-2.7,0.9-3.9c0.7-1.5,0.4-1.6-0.7-2.9c-0.5-0.6-0.4-1.7-0.7-3.1
			c-0.8,3.3-1.5,6-2.2,8.6c0.7-4.5-0.7-9,0.3-13.4c0,2.2,0,4.4,0,6.6c3-9,3.9-18.3,5.7-27.6c-2.1,6-4.2,11.9-6.2,17.9
			c-0.6-3.6,1.2-6.7,1.6-10.2c-1.6,0.2-0.7,1.9-2.3,2.5c2.9-7.1,5.3-13.9,8.4-20.5c-1.8,1-2,3-2.9,4.5c-0.9,1.5-1.2,3.4-1.8,5.1
			c-0.2,0.7-0.2,1.8-1.1,1.9c-1,0.1-0.7-1.2-1.4-1.7c3.4-4.2,4.1-9.8,6.3-12.3c-0.6,2.4-5.9,3.5-7.2,7.8c0.6,0.7,1.2-0.4,1.5,0
			c-0.5,1.4-1,2.7-1.4,4c-0.2,0.7,0.3,0.7,0.8,0.4c0.9,4.2-1.2,7.6-2.7,11.2c-0.7,1.6-1.2,2.9-0.6,4.8c0.5,1.7-0.1,3.7-0.2,6.1
			c-1.3-2.3-0.2-4.3-0.7-6.2c-0.5,2.6-4,4.3-2.2,7.6c0.6-0.6,0.6-1.6,1.1-2.9c0,3.7-1.4,6.5-2.4,10c0.2-4.3,0.3-8.1,0.7-11.8
			c0.3-2.1,1.7-3.9,2.4-5.9c1.4-4,0.1-8.2,1-12.2c-1.3,1-1.7,2.5-1.4,3.8c0.8,3.3-0.7,6.1-1.8,8.9c-0.9,2.4-1.6,4.9-2.4,7.3
			c0.7-7.8,4.1-15.1,3.9-23.1c-1.2,1.1-1.1,2.6-1.8,3.8c-1.2-1.1-0.1-2-0.1-3.1c-2.1,2.1-2,5.5-4.1,7.5c0.4-5.4,3.7-9.3,6.8-13.8
			c0.7,1.4-0.4,1.6-0.3,2.1c0.1,0.5-1.7,1.5,0.5,1.7c0.6,0.1-0.6,1.7-0.2,2.9c2-2.8,1-6.7,4-9c-1.3,0.9-1.8-2.6-3.5-0.6
			c3.8-2.6,8.1-4,11.6-6.8c0.5,0.8-0.4,1-0.2,1.7c1.5,0.1,2.7-1.2,3.3-1.9c2.5-2.9,6.8-2.9,8.9-6.2c2.4,0.3,3.5-2.1,5.3-2.6
			c2.4-0.7,2.7-0.4,3.9-1.4c0.4-0.3,1-0.6,0.8-1.1c-0.3-0.8-1-0.4-1.6-0.3c-3.4,0.7-6.4,2.2-9.4,3.9c-7.4,4.2-15.6,6.6-23.3,10.3
			c-7.8,3.7-15.6,7.4-23.4,11.2c-5.1,2.5-10.4,4.5-15.6,6.8c-2.3,1-3,2.9-1.8,4.8c3.9,5.8,5.3,12.4,6.9,19c1.6,6.4,4.3,12.5,5.3,19
			c0.2,1.1,0.7,2.1,0.1,3.3c-2.8-3.8-2.5-8.7-4.4-12.8c-0.9,11.9,4.8,22.2,7.3,33.4c-1.1-0.6-2.2-2.3-2.4,0.4
			c-1-0.7-0.7-1.9-1.6-2.5c-0.9,0.7,0.6,2.3-0.5,2.3c-1.2,0-2.6,0.3-3.7-0.5c-0.7-0.5-1.3-1.3-2-0.1c0,0.1-0.2,0.2-0.2,0.2
			c-1.3-1.4-3.7-0.9-4.7-2.1c-1.3-1.5-2.4-3.5-2.6-5.7c-1,2.7,1.8,5.1,0.3,7.7c-1.8-2.7-3.6-5.6-5.3-7.7c-1.4-2.1-0.2,2.4-1.8-0.2
			c-0.4-0.7-0.9,0.1-0.9,0.6c0,1.5,0.7,2.8,1.3,4.3c-1.3-0.2-1.8-1.2-2.4-1.9c-3.5-3.8-4.8-8.8-6.8-13.4c-0.3-0.8-1.6-2.3,1-2
			c1.2,0.1,0.3-1.4,1-2.2c1.8,4.6,4,8.6,7.8,11.8c0.8-1-0.6-1.7-0.2-3.1c1.8,2.2,4.2,2.8,6.4,3.9c-0.1-0.9-2-1.6-0.2-2.6
			c-0.1,0.7,0.1,1.3,0.8,1.3s0.6-0.7,0.5-1.2c-0.1-3.5-2.4-5.7-4.3-8.1c0.5,1.7,0.2,3.4,0.3,5.1c-2-4.8-4.1-9.6-4-14.9
			c0-1.3-0.1-2.7,1.8-2.7c-1.1,2.7-0.4,5.1,0.5,8.2c0.9-2.1,1.4-3.7,0.2-5.3c-0.7-0.9-0.7-1.9-0.7-2.9c-0.8-0.6-0.8-1.4-0.6-2.3
			c1.3,0,0.1,1.8,1.4,1.7c1-1.5,1.1-3.1,1-5c-0.2-4.3,0.5-8.6,1.1-12.8c0.8,0.3-0.6-2.7,1.3-0.9c0.3,0.3,0.6-0.2,0.6-0.5
			c0.4-2.4,1-4.8,1.2-7.2c0-1,0.1-2.9-1.4-2.9c-1.4,0-3.1,0.6-3.8,2.3c-0.5,1.3-1,2.8-1.3,4.2c-0.5,2.6-0.9,5.2-0.9,7.9
			c0,5.5-2.1,10.2-6,13.9c-3.3,3-5.5,6.5-6.8,10.7c-0.8,2.6-2.3,4.7-4.7,6.2c-3.4,2.1-5.6,5.1-6.6,8.9c-0.8,3.2-2.8,5.7-4,8.6
			c-0.2,0.4-0.4,1-1.6,0.8c3.5-4.7,3-11.4,7.5-15.3c5.4-4.7,8.8-10.5,11.9-16.7c0.6-1.1,1.6-2,2.5-2.9c4.8-4.9,6.6-10.9,6.6-17.5
			c0-3.7,0-7.4,2.9-10.4c0.8-0.8,1.7-1.4,2.8-1.7c1.4-0.4,2.6-1.2,3.6-2.4c1.6-2.1,4.1-2.7,6.5-3.5c5.8-2.1,5.7-2.1,5.3-8
			c-1.2-14.3-2.4-28.6-3.6-42.9c-0.8-9-0.1-18.1,0-27.1c0.1-14.4-1-28.7-3.1-42.9c-2.3-15.7-2.1-31.4-0.6-47.1
			c0.9-9.7,4.4-19,10.7-26.7c3.9-4.8,8.9-8.5,14.4-11.6c1.8-1,3.6-2,5.3-3.2c5.6-4.1,12.4-4.3,18.7-6.1c7.1-2,14-4.6,20.6-7.9
			c2.5-1.2,2.9-3.6,0.9-5.4c-3.8-3.4-3.9-3.4-4-8.2c0-5.4,1-10.7,2.8-15.8c0.9-2.4,2.1-4.1,3.8-5.7c1-1,1.8-2,1.9-3.4
			c0.1-1.4,1.1-2.2,2-3.2c0.4,0.7-1.3,1.4,0.1,2.1c0.6,0.3,1,0.3,1.2-0.3c0.6-1.5,1.2-3.1,1.7-4.7c-1.3,0.9-1.4,2.7-3.2,2.9
			c1.3-5.8,3.5-11.5,3-17.6c-0.1-0.8-0.2-1.5-0.4-2.3c-0.1-0.5-0.5-0.9-1.1-1c-0.7-0.1-0.7,0.5-1,1c-1.2,2.4-2.8,4.7-3.6,7.4
			c-0.7-1.3,0.1-2.5,0.5-3.7c0.6-1.5,1-3,1.5-4.5c1.6-5.5-2.1-8-5.5-10.4c-2.9-2-3.8-5.1-5.5-7.7c-1.8-2.7-3.1-5.7-5.6-8
			c-0.4-0.3-0.4-1.1-0.6-1.7c-0.7-2.4-1.3-4.7-2.9-6.8c-1.1-1.5-1.6-3.5-0.8-5.6c0.6-1.6-0.1-3.2-0.4-4.8c-0.7-3.3-1-6.6-0.3-10
			c0.9-4.2-0.1-8.4-0.1-12.6c0-4.6,0.6-9.3,2.2-13.4c1.2-3,1.7-6.4,3.2-9.2c1.6-2.9,3.4-5.5,4.3-8.8c0.3-1,1.5-1.6,2.4-2.3
			c1.5-1.3,3-2.6,2.3-5c-0.3-1,0.6-2.1,1-3c1.1-2.4,1.3-4.8,1.2-7.2c-0.7-9.8,3.1-17.5,10.4-24.1c4.6-4.2,9.7-7.4,14.9-10.7
			c2.6-1.6,5.4-2.4,8.5-2.5c3.7-0.1,7.1-1.4,10.3-3.3c-0.3,1.3-2.1,1.1-2.5,2.6c1.1,0.2,2.1,0.3,3.4,0.5c-1.9,0.7-3.4,1.2-5.6,2
			c6.5,0,12.1,1,16.4,5.5c-1.7-0.8-3.4-1.6-5-2.5c-2.8-1.5-6-2.1-9-1.2c5.8,0.4,10.5,2.7,15,5.2c-0.4-0.5-0.7-1.1-1.1-1.6
			c2.3,0.3,3.9,1.7,4.7,3.8c-0.5,0-1-0.4-1.7,0.2c2.5,1.8,3.5,4.7,5.6,6.9c-0.3-2.8-2.3-4.6-3.6-6.8c2.5,1.2,3.7,3.4,5,5.8
			c0.5-1.1-0.4-1.8-0.2-2.6c3,3.2,2.9,7.2,2.4,11.9c1.9-2.7,1.2-4.9,1.2-7.1c0-4.1-3.3-6.3-5.4-9.1c-0.3-0.4-0.6,0.2-0.1,0.6
			c-2.5-2.3-4.3-5.4-8.3-6.3c2.7-0.8,4.4,0.3,6.2,1.3c1.7,1,3.4,2.1,5.1,3.2c0-0.9-0.6-1.3-1-1.9c1.2,0.2,1.6,1.1,2.1,2
			c1.3,2,2.7,3.8,4.4,6.1c-0.6-5.6-3.9-10-7.9-11.1c0.1,1.2,1.6,1.8,1.5,3.1c-3.9-3.4-8.2-5.6-13.4-6.2c-1.3-0.1-3.4,0.7-2.9-2.1
			c0.1-0.4-0.7-0.4-1.1-0.5c-1-0.2-2,0-3,0.2c-0.2,0.1-0.5,0.1-0.5-0.3c0.4-0.6,1.4,0,1.7-0.9c-0.7-0.7-1.6-0.2-2.4-0.6
			c-1.6-0.7-2.8-0.1-3.9,1c-0.6,0.6-1.1,1.7-2.4,1c0.8-0.9,1.9-1.4,2.5-2.6c0.7-1.3,2.3-1.1,3.7-1c1.3,0.2,3,0.8,3.6-1.3
			c0.7,0,1.4,0,2.1,0c2.9,1.5,5.9,2.4,8.8,0c0.7,0,1.4,0,2.1,0c0.6,1.2,1.7,0.4,2.5,0.6c2.3,0.4,4.6-0.4,6.9,0.5
			c-3.1,0.3-6.3,0.6-9.4,0.9c1.7,0.7,3.5,0.8,5.2,0.3c1.4-0.4,3.2,0.6,4.1-1.3c2,0.1,3.9,0.2,5.7-1c2.8,0,5.5,0,8.3,0
			c4.2,2,8.8,1.7,13.7,3.4c-1.4-2-3.6-1.5-4-3.4c4.1,0.7,7.6,2.8,11.6,5.1c-0.5-2.3-2.3-2.2-2.9-3.5c2.6,0.9,5.6,1,7.9,2.9
			c2.1,1.8,4.3,3.6,6.5,5.2c-1.5-3.5-4.4-5.8-8-7.5c3.6-0.1,6.6,2.3,8.2,5.3c1.7,3.2,1.8,6.5,1.5,10c1.7-1.9,1.5-4.3,2.4-6.5
			c0.1,2.9,0.1,5.7-1.3,8.7c1.6-0.8,1.3-2.4,2.3-3.1c0.9,2.2-3.1,3.7-0.4,6.4c-2.2-0.7-3.1,0.4-4.3,1.5c1.7,0.5,3.1-1.1,4.4,0
			c-0.5,0.4-1.7-0.3-2.1,1.2c2.8,0,5.6,0.2,8,1.3c1.9,0.9,4.1,1.8,5.3,3.7c0.9,1.4,2,2.5,3.1,3.8c0.7,0.8,2.4,1.4,1.3,3.3
			c-0.3,0.5,0.9,2.1,1.7,3c1.4,1.5,2.4,2.7,1.6,5.1c-0.4,1,0.2,2.7,1.4,3.7c1.7-9.2-4.7-15-9.3-21.5c2.1-0.5,2.9,1.4,4.6,2.1
			c-0.6-1.7-1.8-2.6-3-3.5c-1.1-0.9-2.8-1.3-2.7-3.3c3.3,1.6,5.9,3.9,7.9,6.8c3.7,5.2,7.2,10.6,8,17.1c0.4,2.9,0.6,5.9,1,8.9
			c0.6,4.7,2.9,8.4,6.1,11.4c5.4,5.2,6.6,11.8,6.9,19.3c-1.9-6.6-4-12.7-8.7-17.5c7.8,12.6,11.1,26.3,10.4,41.1
			c0.2,0,0.4-0.1,0.6-0.1c0.1-0.9,0.2-1.7,0.2-2.6c0.1-0.9,0.1-1.9,0.3-2.8c0.4,12.9-1.1,25.5-4.3,37.9c-1.6,6.3-3.9,12.4-6.3,18.4
			c-1.9,4.9-3.5,9.9-4.4,15c-0.7,3.8-0.7,7.8,0.1,11.7c-1.1-2-0.5-4.3-1.1-7.1c-2,2.7-0.4,5.2-0.7,7.4c-0.8-1.9-1.5-4-1-5.9
			c1.5-5.8,1.7-11.9,4.6-17.3c0.9-1.8,1.3-3.8,2-5.7c-0.2-0.1-0.5-0.2-0.7-0.2c-6.2,6.2-7.1,14.2-7.2,22.6c-0.1-0.4-0.1-0.8-0.1-1.1
			c0-0.4,0.1-0.9-0.4-1.1c-1,4.9,0.2,11.3,2.8,13.7c-1-2.6-2.4-4.8-1.9-7.8c0.5,2,0.3,3.7,1.8,5.1c0.1-0.9,0.1-1.6,0.1-2.2
			c0.9,3.5,1.2,7.4,4.1,10c2.8,2.6,5,5.5,6.9,8.8c1.3,2.3,2.5,4.7,2.7,7.4c0.1,1.2,0.7,2.4,1.9,2.8c4.9,1.5,9.2,4.5,13.9,6.4
			c6.6,2.7,13.6,3.5,20.3,5.9c1.6,0.6,3.7,0.9,4.7,2.1c3.1,3.9,8,3.7,11.9,5.5c5.4,2.5,10,6,14.5,9.7c0.1,0.1,0.1,0.5,0.2,0.7l0,0
			c-2.6-1-4.3-3.3-6.6-4.8c-4.1-2.7-8.6-4.2-13-6.2c-1.8-0.8-2.8,0.6-4.2,1.3c-1.8,0.5-1.3,2.7-2.6,3.5c-1.5,3.9-1.2,8.2-1.3,12.2
			c-0.2,9.6-2.5,19-2.3,28.7c0.1,3.6-0.9,7.2-1.5,10.7c-1,5.4-0.2,10.8-1,16.2c-0.2,1.2,0.5,2.6,1,4.4c0.5-1.4,0.8-2.4,1.2-3.7
			c-0.7,6.2,1,12.3-0.4,18.3c-1.4,5.9-1.3,11.8-1.1,17.7c0.2,8.3,0.8,16.7,0,25c-0.6,6.2-1,12.5-0.9,18.7c0,0.6-0.1,1.2,0.6,2
			c0-2.7,0-5,0-7.4c0.6,4.3,0.7,8.5,0.3,12.8c-0.3,3.8-0.5,7.6-0.4,11.4c0,0.6,0,1.4,0.8,1.4c3.8,0.2,6.5,2.9,9.7,4.5
			c2.5,1.3,5.2,1.3,7.8,1.6c4.6,0.4,7.4,3.7,10.6,6.3c1.4,1.1,2.7,2.1,4.5,2.3c3.7,0.5,6.1,3.1,8.3,5.8c1.9,2.4,4.8,2.8,7.2,3.4
			c1.8,0.5,2.1,1.1,2,2.3c-0.1,2.8-0.9,5.6,0.6,8.3c0.1,0.1-0.1,0.4-0.2,0.6c-1.1,3.8-1.1,3.8,2.9,4.5l0,0c0.3,0,0.5-0.1,0.8,0
			c4.3,0.8,4.1,0.7,4.4-3.9c1-16.2-1.3-32.2-2.9-48.3c-0.3-3.3-1-6.6-0.6-10c0.6,4.9,1.3,9.7,1.9,14.6c1,8.5,1.9,17.1,3,25.6
			c0.9,7.2,0.1,14.4-0.4,21.6c-0.1,1.4,0.2,2.1,1.5,2.4c2.9,0.5,3.7,2.7,4.2,5.2c0.7,3.6,1.4,7.3,2,10.9c0.2,1.6,1,2.4,2.5,2.8
			c1,0.2,2,0.6,2.9,0.9c2.5,0.8,4.1,2.4,3.5,5.2c-0.8,3.6,1.7,5.7,3.3,8.2c1.2,1.9,1.7,3.8,1.6,6c-0.3,3.6,0.5,6.8,2.4,10.1
			c2.8,4.8,4.7,10.1,6.2,15.4c-1.8-4.2-4.3-8.1-5.6-12.5c-0.6-2.2-2.6-3.5-3.2-5.7c-0.7-2.7-2.7-5.4-1.8-8.1
			c0.7-2.3-0.3-3.4-1.3-5.6c-0.4,2.5,0,4.2,0.3,6c0.2,1.4,0.2,1.4-1.3,1.1c-0.1,0-0.2-0.2-0.2-0.3c0,0.2-0.1,0.5-0.1,0.7
			c-0.6,1.9,0.1,3.9-0.6,5.8c1.4-3.7-2.5-5.1-3.2-7.9c-0.1-0.5-0.9-1-1.5-0.8c-0.7,0.2-0.4,0.9-0.2,1.3c0.5,1.7-0.6,3.1-0.7,4.7
			c-0.6-2,0.6-4.2-0.8-6.3c-0.9,2.5-0.8,4.9-0.5,7.2c-1,0.1-0.6-1.6-1.7-1.2c1.4-2.6,1.3-5.2,0.5-7.9c-0.6,2.6-0.9,5.3-0.5,7.9
			c-0.2,2-2.2,2.3-3.2,3.5c-0.1-2.6,2.7-4.8,1.1-7.9c-1,1.4-1.9,2.4-2.5,3.6c-1.1,1.9-0.9,3.8,0.6,5.4c-1.7-0.2-1-2.2-2.2-3
			c-2.5,1.8-1.5,4.8-2.7,7.1c0.1-2.1-0.7-4.3,0.3-6.6c-5.5,3.5-7.8,9.2-10.9,14.2c0.4-2.2,0.9-4.4,2.1-6.3c2.5-4,4.8-8,7.5-11.9
			c1.6-2.3,2.4-4.7,2-7.5c-0.1-0.6-0.2-1.2,0.3-1.7c0.9,0.5,0,1.5,0.8,2.1c2.4-2.3,0-5,0.8-7.4c1-0.1,0.7,1.4,1.7,1.3
			c-0.1-1.8-1.7-3.2-1.6-5.1c-2.2,0.8-2.1,2.5-1.6,4.6c-1.4-1.5-1.4-3.1-2.3-4.6c-0.3,1.4-0.6,2.6-0.9,4.2c-0.3-1.1-0.5-1.8-0.8-2.4
			c0.1,3.2-0.3,6.3-0.4,9.4c-1.7-0.2-0.6-2-1.5-2.7c-0.4,0.9-0.2,1.7-0.1,2.6c0,0.8,0,1.5-0.4,2.2c-0.4-1.2-2.6-1-2-2.9
			c0.5-1.5,0.3-3.1,0.3-4.5c-1.7,7.5-3.3,15-5,22.6c-0.5,2-0.8,4-0.6,6.1c0.3,2.1-0.4,3.9-1.7,5.5c-0.3,0.4-0.7,0.9-1.2,0.7
			c-0.7-0.2-0.8-0.9-0.7-1.5c0.1-1,0.3-2,0.4-3.1c-1.7,1.1-1.1,3.4-3,4.4c2-9.4,4.6-18.6,6.1-28.1c-1.1-0.1-1.7,0.9-2.6,1
			c1.5-1.5,3.1-3,3-5.4c-1.7,2-3.5,3.9-4.2,6.5c0.4-0.4,0.9-0.8,1.3-1.2c0.2,2.2-1.9,3.4-2.5,5.5c-0.5,1.8-1.4,3.7-2,5.7
			c-1.1-0.5-0.4-1.7-1.3-2.4c-0.7,0.8-1.5,1.7-2.2,2.5c0.4-1.7,1.5-3.2,1.1-5.4c-0.6,1.4-1.2,2.5-1.7,3.6c-0.2-0.1-0.3-0.1-0.5-0.2
			c0.6-2.4,1.2-4.8,1.8-7.2c-1.6,1.8-2,4-2.9,6c-0.4,0.9,0.7,2.5-1.8,2.3c-1.4-0.1-2.1,2.4-2.9,3.9c-0.6,1-1.1,2-2.2,2.7
			c1.6-3.8,3.8-7.4,3.8-11.9c-0.8,0.9-1.3,1.9-2.1,2.3c-2.8,1.6-2.7,1.5-2.9,5c-0.1,1.6-1,3.2-1.6,4.9c-0.1,0.2-0.2,0.3-0.3,0.4
			c-2.2,1.1-2.6,1.4-3.3,2.3c-2.1-3.1-2.1-4,0.7-7.6c0.9-1.1,1.5-2.2,1.3-3.7c-1.3,2.5-3.4,4.6-4.4,7.3c-0.3,0.7-0.8,1.3-1.2,2
			c-0.3,0.4-0.4,1.1-1.1,0.7c-0.5-0.3-0.6-0.7-0.5-1.3c0.5-1.7,0.9-3.4,1.4-5.6c-2.6,1.7-1.6,4.6-3.5,6.8c0.4-1.4,0.7-2.1,0.9-2.8
			c-0.9-0.4-0.8,0.8-1.6,0.7c0.9-1.6,0.7-3.4,0.9-5.2c-1.1,3.5-3.4,6.3-5.4,9.4c1-2.6,1.9-5.3,2.9-7.9c-2.9,5.2-5.7,10.5-8.1,16
			c-0.3-2.9-1.1-5.7-0.9-8.6c-1.7,2.2-1.8,5-3.1,7.5c-0.8-1.6-0.2-3.2,0.2-4.9c-1.4,1.1-1.4,2.6-1.8,3.8c-0.2,0.5-0.2,1.4-1,1.2
			c-0.6-0.2-0.8-0.8-0.6-1.5c0.5-2.3,1-4.5,2.2-6.5c0.5-0.8,1.1-1.5,0.6-2.7c-1.6,3-4.3,5.3-5.1,8.6c-0.1,0.5-0.3,1-0.5,1.5
			s0.4,1.4-0.5,1.5c-1,0.1-0.4-1.1-0.8-1.6c-0.5-0.1-0.5,0.3-0.6,0.6c-0.1,0.7-0.1,1.5-1.2,1.3c-0.8-0.2-0.4-1-0.4-1.5
			c-0.2-8.4,0.3-16.8,1.9-25.1c0.1-0.5,0.1-1,0.1-1.8c-3,1.7-6.7,2.2-6.6,6.7c-0.9-0.4-0.7-1-0.7-1.3c0.9-3.7-2-4-4.3-5.3
			c-1-0.5-2.2,2.4-2.2-0.4c0-1.1,0-2.2,0-3.4c0-0.3-0.1-0.5-0.1-0.8c0.2,0.9,0.1,1.9,0.9,2.7c0.6-1.2-0.5-2.9,0.7-3.5
			c1.7-0.8,0.8-2,0.6-2.8c-0.5-1.4-1.4-0.7-2.1,0c0.4-0.8,0.8-1.6-0.4-2.1c-2.2-1-4.4-2.5-7-1.9c-1.8,0.4-0.8-1.4-1.6-1.7
			c-1.3,1-1.2,2.1-0.6,3.6c1.5,3.6,1.7,5.4,1,7.9c-0.7-2.6,0.1-5.1-1.6-7.2c-0.1,0.3-0.2,0.5-0.2,0.7c-0.3,1.2,1.1,3-0.4,3.3
			c-1,0.2-0.9-2.1-1.4-3.2c-0.6-1.2-0.2-2.7,0-4.1c0-0.4,0.3-0.9-0.3-1.1c-0.6-0.1-0.9,0.4-0.9,1c-0.1,2.3-0.5,4.7,0,6.9
			c0.9,4-0.2,8,0.3,11.9c0.1,1.1-0.5,1.7-1.4,2.2c1.3-2.1,0.3-4.3,0.6-7.2c-1.2,2.1-1.3,3.6-0.6,5.2c-1-1-1.1-2.3-0.8-3.6
			c1.4-5.6,1-11.3,1.4-17c0.1-1.3-0.6-2.3-1.1-3.3c0-0.1,0-0.2,0-0.3c1.1-1.7,0.2-3.7,1.1-5.9c0.7,2-0.4,3.6,0.4,5.1
			c0.6-2.5,1.9-4.9,0.5-7.6c-1-2-0.1-4-0.3-6c0.7,1.2,0.6,2.4,0.5,3.7c0,0.6,0.2,1.1,0.8,1.2c0.7,0.1,0.8-0.7,0.8-1.1
			c0.1-1.5,0-3,0-5c-0.6,0.8-0.8,1.1-1.4,1.9c1-5.5-1.6-10-1.3-15.4c-1.1,1.4,0,2.7-0.8,3.7c-1.4-0.8-0.4-2.3-1-3.3
			c-1.1,0.4,0.2,1.5-0.6,2c-0.9-0.7-0.1-2-1.1-2.7c-2.1,3.4,1.7,6.1,1,9.5c-1.5-1.1-2.6-0.6-2.9,0.9c-0.4-0.5-0.8-1.1-1.4-1.9
			c-0.8,1.3,0.4,2.2-0.2,3.1c-0.8-1.6-1.6-3.1-2.4-4.7c-0.1,0-0.2,0.1-0.3,0.1c0.2,1.4,0.4,2.8,0.6,4.2c-1.6-2.3-1.9-4.9-2.7-7.5
			c0-0.1,0.2-0.9-0.4-0.3c-0.2,0.1-0.2,0.4-0.3,0.7c-1-0.6-0.5-2.1-1.6-2.6c-1.3,1.7-0.2,3.4-0.6,5.2c-0.6-2.8-1.3-5.7-1.9-8.5
			c-0.2,0-0.5,0.1-0.7,0.1c1.7,3.3-0.6,6.6,0.4,10c0.5-1.1-0.1-2.3,0.8-3.3c3.7,7.7,2.9,15.8,1.6,23.9c-1.2-3.9-1.3-8-3-11.8
			c1,5.6,1.9,11.1,3,17.4c-1.7-1.4-1-3-2.1-3.8c-0.5,1-0.3,2.2,0.1,3c1.4,3,0.2,6.4,1.8,9.5c0.8,1.6-0.5,4.6,0.4,6.9
			c0.5,1.1-0.1,1.8-0.7,2.5c0.3-0.5,0.4-0.9,0.3-1.5c-1.3-5.6-1.6-11.5-3.9-17.5c0.2,6.9,2.3,12.9,3.3,19.1
			c-0.6-0.7-1.2-1.5-1.9-2.4c0.1,1.5,0.1,2.8,0.2,4c-0.8,0.1-0.6-0.8-1.2-0.9c-0.9,1.3,0,2.8-0.4,4.4c-1.2-1-1.2-2.4-1.8-3.6
			c-1.1,1.7,0.6,3.3,0.1,5.3c-0.9-1.9-2-3.3-1.1-5.4c0.4-0.9-0.3-1.9,0.9-3c1.5-1.3-0.4-3.3,0.1-5.7c-2.1,1.7-2.2,3.4-2.6,5.3
			c-0.3-0.8-0.6-1.6-0.9-2.4c-0.2,0-0.5,0.1-0.7,0.1c1.9,7.7,3,15.5,3.7,23.3c-0.6-2.6-1.2-5.3-1.9-8.5c-0.4,3.9,1.6,7.1-0.3,10.3
			c-1.2-1.2,0.2-2.7-0.2-4c-0.8,0-0.4,1.2-1.6,1.1c1.6-5.1-0.4-10-0.7-15c-0.3-5.1,1-10.3-0.5-15.4c-0.6-1.9-1.2-3.8-1.8-5.7
			c0.7-0.2,0.9,1.4,1.5,0.2c0.1-0.1,0.1-0.4,0-0.5c-0.5-1.1-0.6-2.3-0.7-3.4c-0.1-1.5,2.2,0.7,1.8-1.2c1.2-0.1,0.9-0.7,0.7-1.6
			c-1.2-3.5-1.8-7.1-0.8-10.8c0.4-1.8-1-2.9-2-4.5c-1.7,3.4-2,6.7-1.7,9.9c0.2,2.7-1.2,5.6,0.6,8.2c-2.4,9.6-0.1,19.3-0.8,29
			c-0.4,4.9,0.5,9.9-0.4,15.7c-1.5-8.9-0.4-17.1-1.1-25.3c-0.1,1-0.1,1.9-0.2,3.2c-0.6-1.2,0.1-2.4-0.7-3.2c-1-0.2-0.5,1-1.2,1.2
			c-0.7-0.8-1-1.6-0.6-2.7c0.6-1.5-0.7-2.3-1.5-3c-0.8-0.6-1.4,0.5-1.8,1.2c-0.6,1.1-2.1-0.2-2.7,1c0.1-0.5,0.1-1,0.2-1.6
			c-0.3,0.1-0.6,0.1-0.7,0.2c-0.3,0.3-0.7,0.6-1,0.9c-0.9,0.9-2.5,1.2-3.1,0.6c-0.7-0.7,0.5-1.8,1.2-2.5c0.5-0.5,1.2-0.9,1.4-2.1
			c-1.3,1.6-2.5,3-4,4.9c-0.4-1.5-0.5-1.9-0.6-2.4c-1.1,0.3-0.7,1.7-1.7,1.9c-0.3-1.5,0.7-2.8,0.8-4.3c-0.8-0.1-1.5-0.1-3-0.2
			c2.1-1,3.8-2.4,4.8-2.1c2.5,0.8,3.7-1.3,5.6-1.6c2.3-0.3,4.1-2.2,6.4-2.4c0.5,0,0.8-0.5,0.6-1c-0.2-0.6-0.6-0.2-1-0.1
			c-6.3,2.1-12.6,4.4-19.4,4.5c-0.1,0-0.2,0-0.3,0c-1.4,0.4-2.3,1.7-4.2,0.9c-1.7-0.7-3.9-0.2-5.9-0.3c-1.9-0.1-3.8-0.2-5.6-0.3
			c-0.8,0-1.7-0.2-2.6-0.8c3.7,0,7.5,0.3,11.2-0.1c8.9-0.8,18-1.4,26.4-4.9c0.4-0.2,0.8-0.4,1.1-0.6s0.6-0.4,0.3-0.8
			c-0.2-0.2-0.4-0.4-0.8-0.1c-1.4,0.9-3.6,1.5-4.7,1.3c-3.4-0.8-5.8,1.9-8.8,1.7c-0.7-0.1-1,1-2.4,0.3c4.1-3.3,9.8-3.5,13.1-7.6
			c0.6,0.1,0.4,1,1,1.3c1.2-1.7,1.5-3.4,0.8-5.4c-0.4-1.1,0.3-2.1,1.3-2.9c-3.5-0.2-9,3-9,5.1c0.2-0.1,0.4-0.3,0.7-0.3
			c0.8-0.3,1.4-1.9,2.3-0.9c1.1,1.3-0.5,2.3-1,3.4c0,0.1-0.3,0.2-0.4,0.2c-2.4-2.4-2,0.8-3.1,1.6c0-1.3-0.2-2.5,0-3.5
			c0.5-2.3,0.3-2.7-2-2c-2.3,0.6-4.7,1-7.1,1.4c-12.2,2-24.1,0.7-35.8-3c-3.8-1.2-7.7-2.3-11.3-4.7c-0.1,1.3-0.2,2.3-0.2,3.2
			c0,0.8,0,1.5-1,1.4c-0.9-0.1-0.6-0.8-0.5-1.4c0.1-0.3,0-0.6-0.1-1.6c-0.7,1.4-1.8,1.9-1.5,3.1c0.4,1.6,1,3.1,1.6,4.6
			c0.3,0.7,0.7-0.7,1.5-0.2s1.7,0.7,1.6,2.5c-1-1.6-2.7-0.3-3.2-1.1c-0.9-1.4-2.8-1-3.6-2.3c-0.2-0.3-0.5-0.6-0.7,0
			c-0.2,0.4-0.4,0.8-0.1,1.2c0.8,1.1,2,1.8,3.2,2.5c2.7,1.4,5.4,2.9,8.2,4.3c-3.9-0.6-7.4-2.1-10.8-4.3c1.9,3.4,6.1,3.8,8.6,6.6
			c-1.5,0.7-3-1.8-4.2-0.2c-0.7,1.1-0.1,2.9-1.8,3.8c-0.9-1-0.3-1.8,0.5-2.5c0.3-0.3,0.6-0.8,0.2-1.1c-0.3-0.3-0.7-0.5-1.1-0.5
			c-0.6,0-0.9,0.6-0.9,1.1c0,0.8,0.2,1.7,0.3,2.5c0.6,4.3-1,8.5-0.4,12.8c-0.5-2.2-1-4.5-1.4-6.7c-0.9,1.5-0.3,2.8-0.2,4.2
			c0.3,7.7,0.6,15.4,1,23.1c0.1,1.5-0.5,1.8-1.7,1.7c-0.9,0-1.7-0.1-2.6,0c-1,0-1.4-0.3-1-1.4c0.4-1.4,0.7-2.8,0.3-4.8
			c-1,2.4-0.3,4.9-2.6,6.2c0-0.9,0-1.8,0-2.6c-0.2,1.8-1.9,1.9-3,2.5c-0.8,0.4-1-0.2-0.9-1.1c0.2-2.2-0.3-4.5,0.1-6.7
			c-1,2.4-2.1,4.8-3.2,7.5c-0.4-2,0.5-3.5,0.8-5.5c-1.9,0.9-1.9,2.7-3,3.8c1.2-4.1-0.6-8.4,1.1-12.6c-1.9,1.5-2.2,3.9-3.7,6
			c0.2-1.9,1-3.4,0.9-5.5c-1.8,1.7-2,4.5-4.6,5l0.1,0.1c1.3-1.7,1-3.9,1.6-6.4c-2.5,2.3-2.7,5.1-4,7.2c-2.3-3.3,2-5.4,1.6-8.7
			c-0.2-1.9,2.5-2.7,4.4-3.3c2-0.7,4-3.4,3.7-3.9c-1.3-2.4,0.7-4.1,0.6-6.1c-0.1-1.9,1.8-3.1,1.5-5.3c-1.5,2.2-3.2,4-3.6,6.5
			c-0.2,1.2-0.6,2.3-1.8,3c0.4-1.7,2.2-3.2,1.3-5.9c-1.4,2.2-1.9,4-2.5,5.7c-0.2,0.7,0.2,1,0.9,0.5c-0.2,1.3-1.1,2-2.2,3.2
			c0.2-1.9-0.9-3.3-0.5-5.1c-1.9,2.1-2,5.3-4.5,7c1.7-3.3,3.5-6.5,4-10.2c0.7-1.3,1.4-2.6,0.9-4.2c1.4-2.3,0.7-5.7,3.4-7.4
			c-0.6,2.4-1.1,4.9-1.8,7.8c2.6-2.6,2.7-5.1,1.8-7.8c0.2-2.2,0.5-4.4,0.7-7c-2.1,1.7-0.3,4.2-2,5.7c-0.1-1.6,0.1-3,0.3-4.4
			c0.4-2.5,2.5-5.2-0.4-7.5v0.1c1.7-2.3-1.7-3.2-1.4-5.2C-126.5,483.7-126.3,488.7-128,493.3L-128,493.3z M-90,221.7
			c1.4-1.2,3.3,0.1,5.2-1c-2.7-0.1-5.1-0.4-7.4,0.6C-91.4,222.3-90.6,221.8-90,221.7c0.1,1.1,0.9,1.2,1.7,1.2
			c2.1-0.2,4.2-0.4,6.4-0.4C-84.6,222.5-87.3,221.6-90,221.7z M-115.9,197.6c-1.6,1.8-0.2,3.2,0.3,4.8
			C-116,200.8-113.5,199-115.9,197.6c0.8-1.2,0.8-2.4,0-3.6c-0.3-0.4,0.5-1.5-0.6-1.3c-1,0.2-1,1.4-0.6,1.9
			C-116.2,195.5-116.4,196.7-115.9,197.6z M-8.6,145.6c0.6,2.1,0.2,4.4,1.2,6.4C-7.3,149.8-6.9,147.5-8.6,145.6
			c-0.7-4.2-2.3-8.2-4.6-11.8C-11.7,137.7-10.7,141.9-8.6,145.6z M-45.3,237.7c-2.1-0.7-4.2-1.5-6.2,0.1c-0.3,0.3-0.8,0.5-0.7,1
			c0.1,0.7,0.8,0.6,1.2,0.5C-49,239-47,238.8-45.3,237.7c2.6,0,5.2,0.6,7.6,1.8c-1.6-2.2-5.2-3.5-7.4-2.8
			C-45.6,236.9-45.4,237.3-45.3,237.7z M-0.3,121.4c-0.3,3,0.6,5.8,1.3,8.7C0.9,127.1,1.4,124.1-0.3,121.4c0.3-4-1.6-7.4-2.7-11
			C-2.5,114.1-2,117.9-0.3,121.4z M-82.5,240.2c1.3,2.4,3,4.5,5.1,6.3C-78.3,243.7-80.1,241.7-82.5,240.2c-4.7-5.3-8.1-7.7-10.5-7
			c2.1,1.3,4.2,2.6,6.1,4.1C-85.4,238.3-84.4,239.8-82.5,240.2z M-146.8,222.3c-1.1-0.5-2.1-0.3-3.1,0.6c-2,1.8-3.1,4.1-4.2,6.5
			c2.2-2,4.1-4.2,6.8-5.5C-146.6,223.5-146.6,222.8-146.8,222.3c3-0.7,5.1-2.7,7.4-4.6c0.4-0.3-0.1-0.6-0.2-0.9
			c2.9-3,4.9-6.3,4.7-10.7c-1.7,3.3-3.2,6.7-5.5,9.7c-0.7,0.9,0.1,0.9,0.7,0.9c-2.4,1.4-4.1,3.8-7,4.4
			C-147.1,221.4-147,221.9-146.8,222.3z M-168.6,454.2c1.3,0.5,0.4,1.8,1,2.6c2.3-2.8,5.5-5,5.8-9.3c-0.5,0.4-0.8,0.7-1.1,1
			C-164.7,450.5-165.6,453.5-168.6,454.2c-1.6,2.8-4.4,5.1-3.8,9.5C-170.4,460.4-168.4,457.8-168.6,454.2z M-126.4,474.4
			c-1.3-1.1-0.5-2.8-1.2-4.6c-1.7,5.3,0.3,9.9,0.2,14.7C-127,481.1-126,477.8-126.4,474.4c1.5-2.8,0.5-5.5-0.1-8.3
			C-127.2,468.9-126.2,471.6-126.4,474.4z M-14.3,226c-0.8-3.2-1.9-6.3-3.8-8.9c-1-1.3-2.6-2.2-3-4.1c-0.1-0.6-0.1-1.4-1.1-1.7
			c-0.2,2.2,0.5,4.1,1.6,5.9C-18.7,220.3-15.7,222.6-14.3,226c-0.6-0.1-2-1.1-1.1,0.8c0.8,1.7,1.7,3.3,1.6,5.3c0,0.8,0,1.7,0.9,2.4
			c0-2.1,0.3-4.1-0.8-5.9C-14.1,227.8-14.7,227-14.3,226z M-106.1,479.2c-1-0.9-2-1.9-3.2-2.5c-1.1,1.9,0.8,2.4,1.2,3.5
			C-107.4,479.9-106.7,479.5-106.1,479.2c-0.8,2.3,0.2,4.7-0.4,7.1c-0.5,1.8-0.1,3.1,2.1,3.2c0.2-0.7-1.4-1.3-0.4-1.9
			c1.7-1.1,1.9-1.2,0.7-3.1c-0.3-0.4,0-0.8,0.2-1.2c0.2-0.4,0.4-0.4,0.8-0.3c0.6,0.2,0.9,1.1,2.4,0.5
			C-102.6,481.9-104.4,480.5-106.1,479.2z M-151.6,209.7c2.6,1.4,2.7-1,3.5-2.3c0.6-0.9,0-5.4-0.5-5.3c-1.6,0.2-1.4,2.1-2.4,2.9
			c-0.4,0.3-0.5,1.1-0.8,1.5c-1.2,1.3-0.6,2.3,0.5,3.2c-0.6-0.3-1.3-1.1-2-0.2c-2.8,3.1-5.4,6.2-6.4,10.4c-0.1,0.5-0.4,1.1,0.2,1.4
			c0.6,0.3,0.9-0.2,1.3-0.6c1.8-2.1,3.9-4.1,5.4-6.5C-152.2,212.9-150,211.7-151.6,209.7z M-216.7,392.8c-2.5,1.3-1.5,3.8-2,5.8
			c1.5-1.5,2-3.4,2.2-5.5c-0.1,1,0.5,1.4,1.5,2.5c0.8-7.3-1.5-14.2,1.3-20.8c-2.6,2.9-1.6,6.7-2.8,10c-0.7-0.5-0.3-1.6-1.1-1.9
			c-0.1,0.2-0.3,0.4-0.3,0.7c0,0.8,0.1,1.5,0.1,2.3c-0.1,0.8,0.3,1.7-0.3,2.4C-219.5,389.9-218.9,391.9-216.7,392.8z M-20.6,231.9
			c1.4,1,3.2,1.5,4.3,3c-1.6-7.5-7.1-12.8-10.2-19.5c-0.2,1.7-0.2,3.3-0.2,5c0,0.3,0.3,0.7,0.7,0.6c2.2-0.5,2.1,2.1,1.9,2.4
			c-0.9,1.6,0.2,2.6,0.8,3.7C-22.4,228.8-21.5,230.4-20.6,231.9c-4.2-2-4.2-7-7-10.3c-0.6,3.7,4.6,10.9,9.8,12.7
			C-18.7,233.5-19.6,232.7-20.6,231.9z M-20.2,188.5c0.6-0.8,1.1-1.7,2-2.3c1.3-0.8,2.6-2.1,2.6-3.4c0-3,1.8-5.1,2.9-7.6
			c1.7-3.6,2.3-7.4,3-11.2c0.3-1.7-0.1-3.2-1.4-4.4c1.1,0.5,1.4-0.2,1.5-1.1c0.7-4.8-1.1-9.1-2.9-13.3c0.5,3.6,0.6,7.3,0.8,10.9
			c0.1,1.2-0.6,2.6,0.8,3.5c-1,7-2.5,13.9-6.6,20c-2.8,4.2-5.3,8.6-8.8,12.3c-0.5,0.5-1.2,0.9-1.3,2c2.8-1.7,4-5.2,7.5-5.6
			c-1.8,1.4-2.8,3.4-4.2,5.6c1.4-0.4,2.1-1,2.7-1.6c-0.6,1.1-1.3,2.2-1.9,3.2c1.1-0.4,1.8-1,2.6-1.7c3.5-3.3,6.7-6.9,9.7-10.6
			c5.8-7.1,9.5-15.4,11.4-24.5c2.3-7.3,3-14.8,2.2-22.5c-0.2,0.3-0.3,0.6-0.3,0.9c-0.8,6.4-0.5,12.8-2,19.1
			c-0.2,0.8,0.1,1.7,0.2,2.5c-0.4-0.3-0.5-0.9-1.2-0.9c0,4.3-3.1,7.2-4.7,10.9c2.2-5.2,3.3-10.6,4.1-16.1c-1.1,3.3-1.6,6.8-2.8,10
			c-3.1,8.6-6.9,16.8-12.7,24c-0.6,0.7-1.4,1.4-0.8,2.5C-18.3,188.2-19.3,188.3-20.2,188.5z M-27.7,149.7c0-0.1,0-0.2,0-0.3
			s-0.1-0.2-0.2-0.2c-2.3,0.5-3.9,2.7-3.8,5.9C-30.8,152.9-29.7,151-27.7,149.7c-0.3,1.9,1.5,1.7,2.3,2c0.8,0.3,1.1-0.9,1.5-1.5
			c2.5-5.2,1.3-10.8,2.1-16.2c0.1-0.5-0.3-0.8-0.8-0.9c-0.6-0.1-0.7,0.4-0.8,0.8c-0.2,1.1-0.2,2.2-0.3,3.3c-0.2,3-0.6,5.9-4.1,7.3
			c0.7-3.4,1.1-6.6,0-9.9c-1.4,5.2-3,10.3-3.2,15.8c1.6-2.4,4.8-3,6.5-5.7C-25,148.3-25,148.3-27.7,149.7z M-146.7,431.8
			L-146.7,431.8c-0.2,0.5-0.3,1.2-0.4,2.2c3.1-2,6-3.6,9-4.9c1.8-0.8,3.5-1.8,5-3.2c3.1-2.7,6.1-5.5,9.3-8.1c1.2-1,1.6-1.5,0.4-2.9
			c-7.4-8.4-11.8-18-12.1-29.4c-0.1-3.6-0.7-7.2-1.3-10.8c-0.3-1.7-0.4-4-3.4-2.9c-0.5,0.2-1.4-0.2-2-0.5c-3.4-2.1-6.1-4.7-6.6-9
			c-0.5-4.5-0.4-9.1-1.7-13.5c-0.8-2.5-0.9-4.9-0.1-7.3c0.9-2.6,0.9-5.3-0.5-7.4c-1.7-2.5-2.7-5.2-4-8.3c-0.1,0.6-0.3,1-0.3,1.4
			c-0.6,13-1.4,26.1,0.7,39.1c0.8,4.7,1.1,9.6,1.4,14.4c0.8,10.1,2.4,20.2,2.5,30.3c0,1.6,0.4,3.2,0.7,4.8c0.2,1.2-0.6,3,1.6,3.2
			c0,0,0.1,0.5,0,0.7c-0.6,4.1,1.9,7.9,1.2,12C-147.1,431.7-146.8,431.8-146.7,431.8z M-102.1,435.2c-0.7-1-0.8-2.2-2-2.9
			c-2-1.2-3.7-2.4-5.3-4.4c-2.4-3-6-5.1-9.5-7.2c-0.2,0.3-0.4,0.5-0.4,0.6c0,8.9,2.5,17.3,4.7,25.8c0.3,1.2,1.1,2,2.7,2.7
			c-1.2-3.6-3.7-6.2-3-9.7c1.9,0.7,1.8,2.9,3,4.3c2.1,2.4,2.1,5.8,3.9,8.3c0.2,0.2,0.1,0.7,0,1c-1.3,3.5-0.5,6.8,1.8,9.4
			c2.5,2.8,3.3,6.6,5.9,9.3c0.2,0.2,0.1,0.8,0.1,1c-2.2,0.9-2.8-1.1-4.2-2.1c-0.2,1.7,1.1,2.7,1.4,4.5c-1.1-1.5-2.5-1.1-3-0.6
			c-0.5,0.6-0.1,1.7,0.8,2.5c1.6,1.4,3.2,2.8,4.9,4.1c4.7,3.3,10.3,4.3,15.5,6.4c1.2,0.5,2.1,0,2-1.5c-0.1-1.6,0.6-2.1,2.5-1.3
			c-1.3-2.3-2.4-4.1-3.6-6.3c0.8,0.5,1.1,0.7,1.6,1c-0.3-3.4-1.1-6.3-1.8-7.5c1.5,0.3,1.1-0.2,1.9-1c0.8-0.9,2-3,3.1-2.2
			c1.9,1.2,3.2-0.1,4.7-0.3c1.1-0.2,1.8,0.2,2.8,0.7c1.1,0.7,3,2.3,3.9-0.8c0.5,1.2,0.9,2.2,1.3,3.1c-0.8-0.5-1.9-0.9-2.1,0.2
			c-0.2,1.1,0.9,2.1,1.7,2.9c0.3,0.3,0.7,0.7,1.1,0.2c0.7-0.8,1-1.6,0.3-2.6c1.8,4.2,2,9.5,0.2,11.9c-1.3-1.4-1-3.2-1.4-4.9
			c-0.2-0.6,0-1.9-0.6-1.8c-2.3,0.4-2-2.2-3.5-2.7c-0.3-0.1,0.5-1.2-0.6-0.8c-0.5,0.2-0.9,0.6-0.6,1.2c0.5,1.2,0.8,2.4,1.9,3.3
			c1.2,1,0.7,2.4,0.9,3.7c-1-0.4-0.1-1.7-1.3-1.8c-0.1,1.2,0.4,2.3,0,3.5c-0.8-0.8-0.4-2.5-1.9-2.5c-1.4,0-0.9,1.4-1.1,2.3
			c-1.2-1-2-2.1-1.9-4.1c-1.2,2-1.2,3.8-1.8,5.4c-0.5,1.5-0.4,3.9,1.5,4.4c1.2,0.3,2.6,0.4,3.9,0.6c7.1,0.7,14.1,0.3,21.1-0.8
			c6.1-0.9,11.6-3.5,16.8-6.7c0.6-0.4,1.1-0.9,1.1-1.6c0-3.3,2.1-6.3,0.4-9.8c-1.4-3-0.9-6.6-0.4-9.9c0.5-4,1.5-8.1,2.6-12
			c0.9-3.1,2.8-5.9,3.2-9.2c0.6-4.6,0.6-9.3,1.3-13.9c0.6-3.7,0.4-7.4,0.8-11.1c0.1-0.6,0.2-1.2-0.5-1.6c-0.6-0.3-0.9,0.2-1.3,0.5
			c-3.8,2.1-7,5.2-9.8,8.3c-3,3.3-6.5,6.5-8.6,10.7c-0.2,0.5-0.4,1.3-1.2,1.1c-1.6-0.3-2.1,1.1-2.3,1.9c-0.6,2-2.3,3.2-3.5,4.7
			c-0.5,0.6-1.1,1.5-1.8,1.1c-0.8-0.5-0.1-1.4,0-2.1v0.1c-0.2-1.1,1.4-1.8,0.7-3.1c-1.6,1.2-3.2,2.4-4.8,3.6c-0.2,0-0.4,0-0.6,0
			c-1.3-1.9-2.5,0-3.8,0.2c-0.1-0.9,1.1-1.3,0.6-2c-1.7-0.3-1.7,3.3-3.9,1.5c-1.5,1.5-4.3,1.6-5,3.8c-1,2.8-3.2,4.2-5.3,5.9
			c-0.5,0.4-1.5,0.6-1.5,1.2c0,2.1-1.7,2.8-2.9,3.9c-1,0.8-1.9,1.7-3,2.7c1.2,0.2,1.8-0.9,2.7-0.3c-1.3,0.7-2.3,3.2-4.3-0.3
			c0.2,1.4,0.1,2.1,0.4,2.5c1,1.3,0,2.5-0.7,2.9c-1.4,0.7-0.8-1.6-2-1.7c-0.6,2.2,1.4,2.7,3,4.2c-1.7-0.2-2.8-0.6-3.7-0.4
			c-0.6,0.1-1.3-0.4-1.9,0.3c-1.4,1.8-2.3,1.7-3.5-0.3c-0.5-0.9-1.1-1.6-2.2-1.7c-0.4,1.2,1.2,1.4,0.7,3c-1.3-2.4-3.1-4-3.8-6.3
			c0-0.1,0.1-0.2,0.1-0.2c0.8-0.4,1,0.8,1.8,0.2c-0.1-0.8-0.7-1.2-1.3-1.7c-0.4-0.4-0.2-1.9-0.6-2c-2.2-0.7-1.1-1.4-0.3-2.4
			c0.2-0.2,1.4-1.4-0.2-1.9c-0.7-0.2-1.6-3.6-0.9-4c1.1-0.7,0.9-2.3,2.2-2.9c0.3-0.1,0.5-1.3,0.3-1.3c-3-1.6-1-3.8-0.7-5.8
			c0.6,0.3,2,1.1,1.9,0.6c-0.3-2.4,1.7-0.8,2.5-1.5c-2.3-1.4-4.5-2.1-6.9-2.4c-0.2,0.3-0.3,0.5-0.5,0.8c1,0.9,2,1.7,3.1,2.6
			c-1.4-0.9-2.8-1.7-4.2-2.6L-102.1,435.2z M41,508.3c-0.1,0.2-0.2,0.5-0.3,0.7c-1.5,3-1.1,5.5,1.4,6.8c2.6,1.3,4.1-0.5,5.5-2.3
			c0.7,0.8,0.7,0.8,1.4-0.1c3.7-5,6.8-10.3,9.6-15.9c4-8,7.4-16.2,10.4-24.6c0.8-2.2,1.9-4.2,3.4-5.9c0,1.2-0.3,2.3-0.6,3.3
			c-0.1,0.5-0.5,1.3,0.1,1.3c2.2-0.1,1.1,1.3,1,2c-0.4,2.3-0.8,4.6-1.7,6.7c-1.7,4-3.5,7.8-6.8,10.9c-2.9,2.8-5.1,6.2-5.8,10.5
			c1.1-2.8,3.6-2.7,5.8-3.3c-2.6,1-4.3,2.9-5.7,5.2c-0.7,1.3-0.4,2.3,0.6,3.2c1.1,1,2.5,1.3,3.5,0.4c1.7-1.6,3.5-3.1,4.4-5.3
			c0.2-0.4-0.1-1.2,0.7-1c0.4,0.1,0.9,0.3,1,0.6c0.3,0.6-0.6,0.5-0.7,0.8c-0.8,1.9-2.8,2.6-3.9,4.5c0.4,0,0.6,0,0.7-0.1
			c10.5-7.2,16.1-17.4,19.1-29.5c1.4-5.6,2.2-11.2,1.4-16.9c-0.2-1.1-0.4-1.8-1.5-2.5c-2-1.3-4.6-1.7-6.2-3.5
			c-2.7-3.1-6.1-5.2-9.9-6.7c-1.3-0.5-2.4-1.2-3.5-2.1c-3.9-2.8-7-6.9-12.7-6.6c-3.7,0.2-7.1-0.9-9.8-3.7c-0.6-0.6-1.4-1-2.3-1
			c-3.3,0.1-6.6,0.2-8.9,3c-0.8,1-1.9,1.3-3,1.7c1.3-1.4,2.5-2.8,3.9-4.3c-5.2-1.3-10.1-3-15.3-3.3c-3.6-0.2-7.1-0.7-10.4-2.6
			c-1.8-1.1-3.8-1.4-5.9-0.9c-1.3,0.3-2.7,0.1-4.1-0.2c-2-0.6-4-0.7-6.1-1.1c-1.3-0.3-2.2,0.6-2.8,1.4c-0.5,0.9,0.7,1.1,1.2,1.6
			c0.8,0.9,1.7,1.7,2.5,2.6c1.9,2.5,4.3,3.7,7.4,3.1c0.4-0.1,0.7,0.1,0.9,0.7c0.9,3,0.9,2.9,3.9,2c0-0.8-1.6-0.3-1.2-1.3
			s1.3-0.1,1.7-0.3c1.8-1.1,4.2,0.6,6-1.3c-1.6,2.3,0.6,3.5,0.8,5.4c0.8-0.8,0.5-2,1.9-2.4c-1.1,2,0.1,2.8,1.4,3.5
			c1.4,0.7,2.8,1.5,4.2,0c0.3-0.3,0.8-0.7,1-0.1c0.5,1.3,1.2,0.7,1.7,0.2c1.3-1.4,1.6-0.4,1.7,1.1c0.7-1.2,0.3-2.5,1.5-3.1
			c1,1.1-1,2.1,0.4,3.2c0.8-1.7,2.5-2.6,3.6-3.9c-2.9,5.1-6.3,9.8-8.2,15.5c1.3-1.6,2.9-2.5,4.6-1.2c0.9,0.7,1.8,0.9,2.7,1.2
			c2.6,0.8,2.6,0.8,3,4c-1.7-3.3-4.6-3.6-7.2-4.5c-1.5-0.5-2,0.6-2.2,1.5c-0.3,1.1,0.9,1,1.6,1.1c1.4,0.1,2.4,0.9,3.8,2
			c-2.6,0-5,1.5-6.5-1.6c-0.3-0.6-1.5-0.3-2,0.3c-0.4,0.5-0.8,1.1-1,1.8c-2.1,5-4.2,10-6.2,15c-1.8,4.5-3.5,9-3.9,14.8
			c0.6-1.1,0.9-1.5,1.1-1.9c0.9-1.9,2.1-3.5,4.3-4c0.8-0.2,1.4-0.3,1.6,0.6c0.2,1-0.7,0.7-1.2,0.8c-1,0.1-2.1,0.1-2.7,1.1
			c-1.4,2-2.5,4-2.9,6.5c-0.4,2.3,0.8,3.4,2.6,4c1.9,0.7,3.4-0.2,4.3-1.9c0.9-1.9,1.8-3.8,2.6-5.7c0.6,1.7-0.7,3.1-1,5.1
			c2.3-1.3,3.2-3.3,4-5.2c4.8-11.1,10.7-21.6,16.6-32c1.2-2.1,2.6-4.2,5.4-4.8c-2.8,2.1-4.3,4.6-3.3,7.9c1.7-0.9,1.8-3.2,3.4-4.2
			c-2.1,5.4-5.4,10.1-8,15.2c-3.7,7.1-6.1,14.7-10.3,21.6c-2.8,4.7-5.6,9.4-5.1,15.3c0.2,2.7,0.8,4.1,3.6,4.9c2.5,0.7,3.4-1,4.4-2.7
			c1-1.8,1.9-3.6,3.1-6.1c0.3,3.2-1.3,4.9-2.2,6.9c3.3-1.8,4.3-5.3,6.3-8c3.2-4.5,4.9-9.9,7.8-14.5c5.1-8,9.6-16.3,13.4-24.9
			c0.6-1.3,1.6-2.3,3.2-3.6c-0.8,2.2-2.2,3.6-2.5,5.3c-0.4,1.7,0.6,1.1,1.8,0.5c-3.7,7.4-5.7,14.9-8.3,22.3
			c-2.7,7.3-7.4,13.8-9.3,22.3C40,509,40.5,508.7,41,508.3z M1.2,288.5c2.2,8,0.5,16,0.8,24.2c-1.3-0.6-0.4-2.1-1.9-2.1
			c0,2.7,1.5,5.4,0.1,8.1c-0.5,1-1,2-1.1,3.1c-0.4,7-2.3,13.8-2.6,20.9c-0.2,4.3-1.1,8.7-0.8,13.1c0.5,7.6-3.6,12.6-9.3,16.6
			c-0.9,0.6-1.3,1.1-1.3,2.2c0,4.1,0,8.2-0.1,12.4c-0.1,4.4-0.5,8.7-2.6,12.7c0.3-1.3,0.6-2.5,0.8-3.8c1.5-11.4,0.9-22.9,0.9-34.3
			c0-7,0.6-14,0.2-21c1.7,2.7,0.2,6.1,2,8.7c0.1-2.8,0.5-5.8-0.9-8.5c-2.1-4.2-1.6-8.8-2.6-13.2c-1.2-5.6-2.4-11-6.2-15.5
			c-0.3-0.3-0.6-0.7-0.2-1.1c0.6-0.1,0.7,1.3,1.7,0.5c-1.2-1-1.2-4.3-4.4-0.9c0.8-4.4-2-7-3.6-10.5c1.8,1,1.7,2.9,3.3,3.2
			c0.1-4.1-1.1-7.8-2.6-11.9c1.4,1.6,2.5,2.7,3.5,3.9c-3.3-5.7-3.1-12.9-7.5-18.2c1.6,2.2-2.1,3.6-0.6,5.7c-1.3-1.4-1-1.5-1.7-2.9
			c-2.2-4.1-2.5-9.9-8.8-10.6c-0.2,0-0.4-0.3-0.6-0.4c-1.6-1.4-3.2-2.7-5.4-2.8c-0.2,0-0.4,0-0.5-0.3c-0.8-2.4-0.8-2.4-3.1-2.7
			c-4.1-0.4-4.9-1.2-4.8-4.7c-3.3,2.7-6.6,2.6-9.5-0.8c-0.6,1.3,0.8,1.3,0.5,2c-0.4,0.3-1-0.4-1.4,0.2c0.5,0.9,1,1.7,1.6,2.7
			c-2.3-0.9-4.4-1.6-6-3.2c-0.5,0.9,0.8,1.1,0.4,2.1c-2.9-2.9-7-0.7-9.8-3.4c0.2,1.8,1.6,2.3,2.5,3.3c-2.1-0.4-3.8-1.6-5.6-2.5
			c-0.7-0.3-1.3-0.9-2,0.2c-0.6,0.9-0.2,1.4,0.4,2c0.2,0.2,0.7,0.2,0.5,0.8c-4.5-0.3-9-0.5-13.5-0.8c2.8,0.2,4.8,2,7.1,3.1
			c-2.2-0.4-4.4-0.6-6.6-0.4c-0.3,0-0.7,0.1-1,0.2c1.1,2.6-1.3,1.1-1.9,1.4c-1.3,0.8-2.9,1.1-4.3,1.6c-0.2,0.1-0.3,0.4-0.5,0.6
			c0.6,0,1,0.1,2.2,0.2c-2.5,1-3.9,2.7-5.9,2.8c-1.8,0-2.7,0.5-3.4,2.2c-0.6,1.4-1.3,3-3.1,3.6c-1.3,0.5-3.4,1.3-3.6,2.2
			c-0.4,2.7-2.1,4.2-4,5.6c-2.2,1.6-3.9,3.2-1.8,6c0.4-0.4,0.5-1.2,1.4-1.4c-0.8,4.2-3.1,7.5-5.6,10.8c0.6,0.4,1.9-0.7,1.6,0.5
			c-0.3,1.2,0.2,2.5-1,3.6c-1.3,1.2-1.4,2.9-1.4,4.6c0.8-0.1,1-1,1.7-0.7c0.2,0.1,0.2,0.7,0.1,0.9c-1.5,2.1-0.9,5-2.7,7
			c-0.3,0.4-0.5,1,0.4,1.3c1.2-0.9,1.3-2.5,2.7-4.3c-0.7,2.5-1.6,4-2.5,5.5c-0.4,0.6-1,1.4-0.6,1.9c2.2,2.2-0.4,2.9-1,4.4
			c-0.7-1,0.8-1.4,0.1-2.2c-1.5,0.7-2.3,1.9-2.8,3.3c-1,2.9-1.2,5.9-0.8,9c0.7,6.7,0.7,13.5,1.1,20.3c0.4,6.8-0.8,13.6,0.5,20.5
			c1.3,7.2,1.4,14.5,2.9,21.7c0.6,2.7,1.5,5.1,3.5,7.7c0.4-2.1,0.7-3.9,2.6-1.6l0,0c0.1,2.1-1.3,4.2,0.8,6.1c2.1,2,3.3,4.7,5.2,6.9
			c1.6,1.7,3.7,3,4.8,5.1c0.6,1.2,2,0.9,2.9,0.8c1.1,0-0.3-1.2,0.3-1.8c0.3-0.3-0.1-1,0.5-1.5c0.8,1.5,0.7,3.5,2.8,4.9
			c-0.5-1.6-0.9-2.6-1.1-3.8c-0.1-0.4-0.6-1.1,0.2-1.2c0.7,0,0.4,0.8,0.5,1.2l0,0c0.3,1.7,1.3,3,2.4,4.8c-0.1-2.3-0.2-4.2-0.4-6.8
			c1.3,3.4,0.3,6.7,2,8.8c1.7,2.2,4.3,3.5,7.5,3c-2-3-5.6-4.7-6.8-3.4c0.4-1.1-0.4-3.8,2.6-1.8c0.6,0.4,2.2,1,2.4,1
			c2.4-0.6,2.8,1.3,3.6,2.6c0.3,0.4,0.6,1.2,1.3,0.9c0.3-0.1,0-1,0.7-0.7c0.5,0.2,0.3,0.7,0.4,1.1c0.1,0.7,0.2,1.4,0.7,1.8
			c3.4-2.6,1.6,2.6,3.6,2.1c0.2-0.8-1.1-1.5-0.4-2.5c0.2,0.1,0.4,0.3,0.6,0.3c1.8,0.6,3.7,1.5,5.5,0.9c1.9-0.6,2.4,3.2,4.4,1.1
			l0.3,0.1c0.2,2,1.7,1.4,2.9,1.5c-0.8,1-0.2,1.2,0.7,1.1s2,0.4,2.5-0.7c0.5-1-0.6-0.7-0.9-1c-1.2-1-1.8-0.2-2.4,0.7
			c0.3-1.2-0.6-1.8-1.9-2.3c3.4-1.1,6.1,0.2,9,0.7c-0.6,1.6-1.8,0.6-2.7,0.8c1.2,1.4,2.2,1.4,3.1,0.1c0.9-1.5,2.3-2.4,3.8-3.3
			c1.3-0.8,2.8,1.4,4.2-0.3c0.2,1.4-1.5,1.9-0.8,3.3c2.3-0.8,4-2.5,6.1-3.5c2.3-1.1,4.1-2.5,3-6.5c1.7,2.3,2.3,1.7,3,0.4
			c1-1.9,2.3-3.5,3.1-5.6c-1.4,2.4,1.8,3.4,1.3,5.6c1.2-0.9,1.4-2.6,2.7-2.5c2,0.1,3.7,0,4.6-2.2c0.3-0.7,0.7-0.5,1.2-0.1
			c0.4,0.3,0.9,0.6,1.3,0c2-2.6,5.3-4,6.5-7.3c0.3-0.7,0.7-1.3,1.4-1.7c0.5,1.8,0.6,1.8,1.5,1c1.7-1.5,3.4-2.9,4.5-4.9
			c1.3-2.4,2.7-4.8,4-7.1c-0.1,1.9-1.1,3.4-1.8,5.1c-0.2,0.6-0.6,1.2-0.5,1.7c1.5,6.4,2.6,13,6,18.8c0.6,1,1.3,1.8,2.5,1.2
			c0.8-0.4,1.5,0,2.2,0.1c3.2,0.4,6.4,1,9.7,0.8c2.3-0.2,4.4,0.4,6.4,1.5c1.8,1,3.8,1.6,5.9,1.9c5.3,0.6,10.7,0.9,15.8,2.9
			c1,0.4,1.9,0.3,2.1-1.3c1.4-8,2.8-16,2.9-24.2c0.1-13.2-1.4-26.3,0.2-39.5c0.5-3.8,0.4-7.7,0.4-11.6c-0.3-13.5,0.4-27,1.7-40.4
			c1.8-18.4,4.1-36.8,4.5-55.3c0.1-7.2,1-6.2-6.5-8.5c-4.7-1.4-9.6-1.7-14.3-3.4C7.6,244.7-3.7,240-16.3,241c-0.8,0.1-1.8,0-2.5-0.3
			c-2.1-0.9-4.7-0.6-6.2-2.7c-0.5,0.4,0.6,1.4-0.5,1.4c-0.4,0-0.8-0.2-0.8-1c-0.1-1.8-1.8-2.3-2.9-3.3c-0.4,0.5-0.7,1.2-1.6,0.5
			c-0.5-0.3-0.9-1.1-2.2-0.7c2.1,1.4,3.5,3,3.9,5.4c-0.9-0.2-0.8-1.3-1.8-1.3c0.3,1.5,0.9,2.7,1.9,3.8c3.3,3.8,7.6,6.4,11.5,9.4
			c3.3,2.6,6.3,5.3,8.3,9.7c-1.3-1-1.6-2.1-2.8-2.4c2.1,2.1,2.8,5,3.9,7.5c0.8,1.8,1.5,3.6,2.6,5.2C-1.1,277.3,1,282.6,1.2,288.5
			c-2.1-4.6-3.4-9.7-6.6-13.9C-3.3,279.8-2,285.3,1,291C1.1,289.6,1.2,289,1.2,288.5z M-88.3,195.8L-88.3,195.8
			c3.2,0.9,6.4,0.1,9.6-0.2c1-0.1,2.1-0.5,3.3,0c-1.2,1.3-2.1,2.6-3.9,2.5c-0.6,0-1.1,0.4-1.5,0.9c-0.9,1.5-2.3,1.7-3.8,1.7
			s-3.1-0.1-4.6-0.1c-0.6,0-1.7-0.4-1.7,0.6c0,1.1,1.2-0.1,1.7,0.7c-0.8,0.4-2,0.4-2.4,1.3c-1.2,2.4-3.1,2.6-5.4,2.2
			c-1.5-0.3-2.2,0.6-2.3,2c0,0.6-0.1,1.2-0.3,1.7c-0.7,1.5,0.2,6.3,1.5,6.6c2.2,0.5,2.8,2.2,3.8,3.8c0.6,0.9,1.4,0.9,2,0.6
			c3.6-2.1,7.2-0.3,10.6,0.1c3.8,0.5,7.2,2.3,10.9-1c1.6-1.4,4.4-1.8,6.2-3.4c3.7-3.4,8.4-5.4,12.4-8.6c3.5-2.9,6.9-5.8,9.3-9.7
			c4.5-7.2,6.5-15.2,7.6-23.6c0.6-4.5,0.7-9.1,1-14c-1.3,2.6-2.3,4.9-3.2,7.2c0.5-2.5,1.2-4.9,1.2-7.5c-1.2,2.3-2.3,4.6-3.5,6.9
			c-0.2-0.1-0.5-0.1-0.7-0.2c1.2-2.8,0.3-5.3-0.5-7.9c0.6,0.5,1.2,1,1.9,1.7c0.2-2.3,1.1-4.1,1.6-6c0.1-0.5,0.2-1.2,1.1-1
			c0.9,0.2,1,0.2,1-0.4c-0.1-1.1-0.4-2.2-0.6-3.3c-0.2-0.7-0.4-1.6,0.2-1.9c1.1-0.6,0.8,1,1.8,1.2c-0.9-1.9-0.1-3.9-1.5-5.7
			c-0.5-0.7-0.8-2.3-0.4-2.9c1.3-1.8,1.1-3.6,1-5.6c0.6,3.1,3.5,5.1,2.9,9.1c1.2-1.5,1.3-2.5,1.2-3.4c-0.3-4.3-0.6-8.7-1-13
			c-0.2-1.9-1.7-4.3-1-5.6c1.6-2.9,0.5-5.5,0.1-8c-0.9-4.9-0.8-10.5-6.1-13.4c-0.8-0.4-1.5-1-1.5-2.3c1.3,0.4,1.3,2.4,3,2
			c-0.5-1.3-1.6-1.9-2.4-2.8c-0.6-0.7-1.4-1.4,0-2.2c-1.9-2.1-0.5-5.3-2.6-7.3c-0.4-0.4-0.8-0.9-0.6-1.6c0.9-0.6,1.1,1.4,1.5,0.5
			c0.3-0.6,1.2-1.7,0-2.7c-0.9-0.7-1.5-1.9-2.1-2.9c-0.5-0.9-0.9-2-1.2-3c0-0.1,1.4,0.3,1-0.8c-0.2-0.5-0.9-0.8-1.3-1.2
			c-0.4-0.5-0.7-1-0.8-1.6c-0.5-3.3-3.2-4.4-5.5-6c-0.9-0.6-1.9-0.7-2.5-2c-0.6-1.4,3.1-0.2,1.1-2.2c-0.3-0.3,1.3,0.1,1.7-0.6
			c-0.4-0.8-2,0.6-1.8-1c0.2-1.2,1.5-1.4,2.3-1.5c1-0.2,2.1,0.5,3.3,0c-2.7-1.4-5.8-1-7.4,1.1c-1.1,1.3-1.2,1.5-2.3,0.6
			c-0.7-0.6-1.7-0.1-2.3-0.8c0.1-1,1.6-1.2,1.5-2.4c-1,0.5-2,1.1-3.1,1.7c0.8-1.8,2.9-1.9,4-3.5c-1.7,0.2-3.3,0.7-3.9,1.7
			c-1.5,2.9-3.8,4.1-6.7,5c-0.8,0.2-1.4,0.6-1.9-0.4c0.7-0.4,1.4-0.8,2.1-1.2c1-0.5,1-1.9,0.8-2.2c-0.6-1-1.5-0.4-2.1,0.3
			c-1,1.2-2.2,1.2-3.7,0.9c1.5-2.3,3.4-4.3,4.3-6.8c1.3-3.6,2.2-7.4,0.7-11c-1-2.6-1.2-5.5-3.5-7.6c-3.6-3.4-8.1-4.7-12.5-6.3
			c-3.1-1.1-9.1-1.1-10.7-0.4c6,0.5,12,1,16.4,5.9c-0.1-1.6-1.6-1.9-2.3-3.3c7.1,4.6,10.7,12,9.5,18.8c-1-2.2-0.1-5-2-7.6
			c-0.2,3.5,1.4,6.8-1.3,9.5c-0.1,0.1,0,0.9,0.1,0.9c2.1,0.5,0.7,1.7,0.3,2.2c-1.3,1.5-2.1,3.4-3.2,5c-0.6,0.9-1.3,2-2.5,2.1
			c-0.4-0.8,0.8-1.1-0.1-2c-1.6,3.5-5.5,3.5-7.9,5.9c-0.5-1,0.9-1.1,0.1-2c-3,2.8-7,1.7-10.6,2.5c-0.1-0.6,0.8-0.7,0.6-1.4
			c-0.7-0.8-2.7,2-2.8-0.9c-0.2,0-0.4,0-0.5,0c-0.7,1.8-2.3,0.4-3.4,0.8c-2.3,0.9-3.7,2.6-5.3,4.3c-0.4,0.4-1,1.5-1.5,0.7
			c-1.1-2-1.9-0.5-2.5,0.2c-0.8,0.9-1.3,2.2-2,3.3c0,0.2,0,0.3,0,0.4c-1.5,2.8-1.5,2.8,0.7,5.8c0,0.1,0.1,0.2,0.1,0.2
			c-0.9,1.3,0.9,2.7-0.1,4.1c-0.5,0.7-0.6,1.5,0.1,2.4c0.5,0.6,0.7,1.6,0,2.3c-0.9,0-0.1-1.6-1.2-1.2c-0.7,0.3-0.5,1-0.4,1.6
			c0.4,1.5,0.8,3,1.7,4.4c0.7,1,0.7,1.8-1,1.6c-0.9-0.1-1.9-0.3-2.7,0.5c0.4,0.7,1.6,0.1,1.8,1.1c-2.2,0.9-4,2-4.9,5
			c2.5-1.6,4.5-1.2,6.3,0.4c-2,1.3-5.3-0.1-6,3.2c-0.1-0.7-0.1-1.5-1-1.5c-1.2,0-2.4,0.6-2.8,1.5c-0.9,1.9-2.2,3.5-3.7,4.9
			c2.4-0.8,4.2-2.5,5.3-4.6c0.8-1.6,1.4-0.6,2.2-0.4c0.8,2.2,3.3,2.7,4.5,2.5c2.9-0.6,4.8,0.6,6.5,2.4c0.6,0.7,1.3,0.9,2.1,1.1
			c4.2,1,8,2.7,10.1,6.9c0.3,0.6,0.9,1.5,1.5,1.3c2.6-1,2.9,1.3,3.5,2.5c0.8,1.8,1.5,3.8,1.6,5.9c0.2,3,1.7,5.8,0.7,9.2
			c-0.8,2.9-0.3,6.4,1.1,9.5c0.9,2,0.8,4.4-0.1,6.5c-0.3,0.7-1,1.8-0.4,2.1c1.8,1,1.4,3,2.1,4.4c1.2,2.4,0.1,5.1,0.7,8
			c0.1,0.1,1.1-0.7,1.4,0.1c0.5,1.4-1.2,1.8-1.7,2.8c1.3,0.1,1.9-0.7,2.6-1.3c1.8-1.6,3.2-3.6,5.3-4.9c1.2-0.8,2.1-0.3,3.1,0.3
			c0.6,0.4,1,0.7,0.5,1.4c-0.8,1.3-1.5,2.7-3.1,3.2c-0.6-0.8,1-1.3,0.2-1.8c-0.5-0.4-1.4-0.1-2,0.2c-0.6,0.4-1.4,0.7-1.5,1.7
			c0,1-0.7,1.6-1.4,2c-2.1,1.1-1.9,3-0.8,4.3c1.1,1.3,0.6,2.4,0.5,3.6c-0.1,1.3-1.4,1.5-2.4,1.3c-1.6-0.3-0.5-1.3-0.2-2
			c0.6-1.2,0.3-2.5,0.2-3.8c-0.1-0.9,0.1-2.5-0.6-2.4c-1.5,0.2-3.5-1.4-4.5,0.5c-1,1.8-2.9,1.7-4.2,3c-0.4,0.4-1.5,0.6-1.6,0.4
			c-1.5-2.3-3.7-0.6-5.5-1c-2.1-0.5-3.9,1.8-6,0.2c-0.1-0.1-1.2,1-1.9,1.5c-0.1-1.3,0.4-2.5,1.3-3.3c1.1-1.1,2.1-2,1.4-3.7
			c-0.2-0.4,0-0.8,0.4-1.2c1.5-1.2,1.4-2.9,1-4.5c-0.5-1.9-0.2-3.5,0.6-5.2c1-2.3,1.9-4.6,1.5-7.1c-0.2-1.4-0.8-2.9,0.8-4
			c0.3-0.2,0.3-0.6,0-0.9c-2.4-2-1-3.7,0.4-5.5c1.1-1.4,2.4-2.9,2.3-4.9c-0.3,0-0.4,0-0.5,0c-0.8,0.5-1.5,1.5-2.7,1
			c-0.5-0.2-0.6-0.6-0.5-1c0.2-1.3,1.2-1.6,2.2-1.9c1-0.2,1.8-0.5,2-1.8c-1.7-0.2-3.3-0.2-4.6,0.7s-4.1,0.9-2.6,3.8
			c0.2,0.4-0.4,0.8-0.8,0.9c-3.5,0.5-6.5,3.1-10.2,2.6c-0.8-0.1-1.5-0.1-2.4-0.1c0.4,1.2,1.7,0.4,2.1,1.3c-0.6,0.4-1.7-0.3-2,0.9
			c2.6,0.6,2,3.5,3.8,4.9c-1.5,0.3-2.7,0.6-4,0.8c-0.4-2.8-3.7-1.8-4.8-3.8c-0.1-0.3-0.4-0.6-0.7-0.6c-0.6,0-0.6,0.4-0.6,0.9
			c0,0.4,0.1,0.7-0.2,1.2c-1.2,1.7,0.2,5.2,2.3,5.5c0.8,0.1-0.5-1,0.8-1.1c-0.3,1.3,1.2,2,0.9,3.5c-0.3,1.6,0.3,2.7,2,3.6
			c1.1,0.6,3.4,0.2,3.2,2.3c-0.1,0.9,0.6,1.3,0.4,2.1c-0.6,0.2-0.9-0.8-1.6-0.5c0.3,1.9,0.3,1.9,2.3,1.6c0.4-0.1,1,0,1.1,0.4
			c0.3,2.8,2.1,5.4,1.5,8c-0.8,3.5,0.1,7-1.5,10.7c2.2-0.7,1.1-2.4,1.9-3.6c1,1.6,1.7,1.1,2.3-0.2c0.3-0.7,0.9-1.3,1.3-1.9
			c1.3,1,1.2,2.3,0.5,3.8c1.3-0.4,1.2-1.9,2.8-2.2c-0.6,2.2-2.1,4-1.6,6.2c0,0.1-0.5,0.4-0.7,0.6c-2.3,2-3.3,7.1-1.8,9.9
			c0.3-0.8-0.1-1.5-0.2-2.3c-0.1-0.4,0-1.2,0.3-1c2.3,1.4,1.5-1,2.2-1.6c1.2-1.1,1.1-2.8,2.8-3.9c1.1-0.7,3.4-1.7,3.6-3.4
			c0.3-2,2-0.4,2.5-1.4c1.3,2.5,2.9,0.7,4,0.1c2.3-1.4,4.4-1.1,6.5,0.2c1,0.6,2.1,0.8,3,1.5c1.2,0.8,2.1,0.9,3.2-0.4
			c0.8-0.9,2.1-1.1,3.3-0.4c2.4,1.2,4.9,2.1,7.6,2.4c0.5,0.1,1,0.4,1.3,0.8c0.8,1.2,1.6,1.5,3,1c1.1-0.4,2.3-0.3,3.3,1.4
			c-3.1-0.7-5.6,1.2-7.9,0.7c-3.5-0.7-6.8-1.3-10.3-0.5c-0.6,0.1-1.4,0.7-2.5,0.5c-2.6-0.4-5.2-0.1-7.8-0.1c0.1,2.5,6.5,2.3,2.5,6.3
			C-89.7,196.1-88.9,195.2-88.3,195.8z M-149.8,236.5c-2.6,0.9-4.6,1.6-5.7,4.5s-2.5,5.8-4.1,8.5c-2,3.2-3.6,6.4-5.2,9.7
			c-1,2-2,4.3-3.8,5.4c-2.9,1.7-4.1,4.5-5.8,7c-1.9,3-3.3,6.2-5.3,9.1c-3,4.4-4.5,9.4-5.9,14.4c-2.3,8.4-2.4,17.1-4.1,25.6
			c-1,5.1-1.3,10.3-2.4,15.4c-1.4,6.6-2.1,13.2-3.9,19.7c-0.7,2.8-0.8,5.8-1.4,8.6c-1.4,7.3-4.5,14-6.7,21c-2.8,9.3-3.5,19-7.6,27.9
			c-1.3,2.8-0.8,6.1-2.5,8.8c-0.7,1.1-2.4,1.8-0.8,3.4c0.1,0.1,0,0.7-0.3,0.5c-1.9-1.3-1.4,0.8-1.5,1.2c-1.3,7.2-4.2,14-4,21.5
			c0,0.3,0,0.8-0.2,1c-2.2,3.1-1.5,6.5-1.1,9.9c0.8,6.4-0.9,6.7,6.4,3.4c5.7-2.6,10.5-6.6,16.7-8.2c8.1-2.2,15.3-6.8,23-10
			c7.6-3.2,14.9-7.4,23.1-9c1.5-0.3,1.7-0.9,1.6-2.3c-0.4-6.4-0.1-12.9-0.5-19.3c-0.7-11.4-1.4-22.8-3.1-34.1
			c-1.4-9.9-2.5-19.8-2.6-29.8c0-8.1,0.5-16.2,0.1-24.2c-0.4-8.9,0.3-17.7,1.6-26.5c0.7,0.2,0.6,1.6,1.4,1.2
			c0.9-0.4,1.6-1.3,1.6-2.5c0-0.5-0.4-1.7,0.3-1.3c2,1,2-0.8,2.5-1.5c3.6-4.2,5.3-9.4,8.6-13.8c-2-0.8-4.1-0.5-6-1.5
			c0.6-0.2,1.4-0.4,1.4-0.4c-0.2-1.2-1.7-1.1-2.2-2.1c0.9-0.1,1.9,0.1,2.7-0.4c-0.3-0.9-1.2-1-1.8-1.4c-0.8-0.5-0.3-1.1-0.3-1.6
			s0.6-0.2,0.8-0.1c1.9,2.4,4.1,0.1,6.1,0.5c0.4,0.1,1.4-0.5,1,0.3c-0.7,1.3,0.2,0.9,0.6,0.8c1.5-0.3,3-0.7,3.7-2.4
			c-2-0.9-4.4,1-6.2-1.2c2-1.2,4.3-1.3,6.5-1.8c-0.4-1.5-1.5-2.4-2.5-3.3c-0.6-0.5-1.2-1.1-1.1-1.9c0.5-2.8-0.6-5.7,0-8.5
			c0.4-2-0.8-1.7-2.1-1.7c1.3-0.7,2.6-1,2.7-2.6c0.1-1.7,1.2-2.7,2.7-3.4c0.3,1.9-0.3,3.5-1.4,5c3-0.2,1.4-3.8,3.4-4.9
			c-0.2,2.7-3.3,5.8,1.6,7.5c2.2,0.7,2.6,1,3.4-1.3c0.9-2.4,2-4.7,3.7-6.8c-0.3,2.1-1,4-0.5,6.4c1.8-3.5,2.4-7.3,4.5-10.3
			c0.7-1-0.4-1.1-1-1.3c-2-0.8-4.3-0.3-6.3-1.4c-0.6-0.3-1.4-0.4-1.4-1.3c0-0.7,0.5-1.1,1.2-1.2c1.2-0.1,0.5-0.7,0.5-1.3
			c-0.1-3-2.6-2.6-4.4-3c0.1-0.4,0.1-0.6,0.2-0.7c2.7-1.6,6.8,1.1,8.9-2.8c0.1-0.2,0.8-0.4,0.9-1.1c0.5,0,0,1.4,0.7,0.7
			c0.5-0.5,0.2-1.7,1.6-1.5c0.1,0,0.4-0.6,0.3-0.9c0-0.5-0.5-0.3-0.8-0.3c-1.2-0.3-2.1,0.7-3.1,0.7c-2.4-0.2-4.5,0.3-6.8,0.9
			c-2.4,0.7-4.6,2.2-7.6,1.2c-3.4-1.1-9.1,2.5-10.5,5.9c-0.6,1.4-2.5,2.7-3,2.3c-1.4-1,1-1.5,0.9-2.6
			C-149.8,237.2-149.8,237.1-149.8,236.5z M-222.6,349.7c0.3,0,0.6,0,0.9,0c0.9-3.1-2.2-6.8,1.5-9.6c0.4,1.2-0.2,2.1-0.6,3
			c-0.2,0.5-0.5,0.8-0.3,1.6c0.9,3.9,2.7,7.6,2.6,11.8c0,0.1-0.1,0.2-0.2,0.3c-0.7-0.6,0.2-1.7-1.2-2c0.7,3.7,1.3,7.3,2,10.9
			c0.1,0.4,0.2,1,0.8,0.8c0.5-0.2-0.1-1,0.6-1.2c0.2,1.2,0.5,2.5,0.7,3.5c0.8,0.3,0.5-1,1.3-0.6c0,2.7-3.3,4.8-1.3,8.3
			c0.4-2.5,2.1-4,2.7-6c0,1.1,0,2.3,0,3.8c1.9-2.2,0.7-4.6,1.3-6.6c1.2,2.8,1,5.2-0.8,7.9c-0.6,0.9-1.7,2.7-1.2,4.6
			c1.7-1.2,1.7-3.3,3.5-4.1c-0.5,2.8-2,5.3-1.7,8.2c0.4-2.6,2-4.7,2.5-7.3c0.2-0.9,0.8-1.7,1.6-1.9c1.9-0.5,2-0.4,2.5-1.9
			c0.4-1.1,0.2-2.3,1.1-3.2c1.7,3.5-1,6.6-0.5,9.9c2.1-6.6,4.1-13.2,6.1-19.7c0.3-1.1-0.4-2.2,0.2-3c2.3-3.1,2.3-7,2.9-10.5
			c2-10.7,4-21.5,5.2-32.3c0.3-2.3,0.6-4.7,0.2-6.9c-0.9-5.1-2.1-10.2-3.5-15.2c-2-7.5-3.9-15-7-22.1c-1-2.2-1.9-4.4-4.9-2.8
			c-0.9-1.1,1.8-0.5,0.6-1.8c-0.9-1-1.5-0.3-2.4-0.1c-2.5,0.7-1.8,3.4-3.5,4.7c-3.5,2.6-6.1,6.3-7.1,10.4s-3.9,7-5.3,10.8
			c-1.6,4.5-2.1,8.8-1.2,13.4c0.1-2.6,0.6-5,1.6-7.6c0.5,1.1,0.4,2.1,0.3,3c-0.2,4.6-2.5,8.7-2.5,13.3c0,1.5,0.7,3.3,0,4.5
			c-2.3,3.7-0.5,7.2-0.4,10.9c0.8-2.4,0.2-4.8,0.8-7.2c1.7,5.9-1.7,12,0.9,17.8c0.2-2.9-0.7-6,1.2-9.1
			C-222.6,337-222.6,343.3-222.6,349.7z M-161.1,247.5c-2.8,0.2-4.9,1.1-7.1,2c-6.4,2.7-12.9,5.1-19.8,6.3
			c-4.8,0.9-9.3,2.3-13.4,5.2c-1.1,0.8-2,1.4-0.3,2.5c1.1,0.7,1.6,2,2.1,3.2c4.8,11.8,7.1,24.4,10.2,36.7c0.2,0.7,0,1.5,0.8,2.3
			c0.5-3.5,0.5-6.9,1.7-10.1c1.5-4,1.7-8.5,4.2-12.1c3.7-5.4,6.6-11.3,10.2-16.7C-168.3,260.7-164.7,254.3-161.1,247.5z
			 M-39.4,231.1c-0.6-1-2.7-1.4-1.4-2.3c1.8-1.3,0.7-1.8-0.2-2.4c-0.8-0.5-1.8-1-1.1-1.9c0.9-1.1,0.4-2.2,0.2-3.2
			c-1.1-4.6-1.4-9.2-1.3-13.8c0-2.2,0-4.4,0-6.6c-0.5,0.1-0.7,0.1-0.8,0.2c-8.1,7.7-16.8,14.7-26.5,20.2c-0.7,0.4-1.5,0.9-1.3,1.7
			c0.3,1.2,1.1,0,1.7,0.2c0.4,0.2,0.9,0.5,1.2,0.9c1.5,1.6,2.9,3.2,4.3,4.7c3,3.2,3.5,3.3,6-0.4c3.2-4.7,8.1-4.6,12.9-4.7
			c0.6,0,1.3,0.3,1.7,1.2c-5.6-1.4-9.5,1.2-13.6,4.4c1.1,0.6,1.3-0.7,1.8-0.4c0.2,2.1-1.8,3.7-1.1,5.9
			C-52.1,231.1-48.1,228.4-39.4,231.1z M-221.4,438.7c2.7-11.9,6.7-23.4,11-34.8c-0.2-0.1-0.5-0.1-0.7-0.2c-0.7,2-1.4,4.1-2.3,6.4
			c0.1-3.3,1.8-6.1,1.8-9.8c-0.7,1.1-0.5,2-1.4,2.4c0.3-1.4,0.5-2.8,0.8-4.2c-0.5,0.3-0.8,0.5-1.8,1c2.2-3.8,3.4-7.2,3.7-11.1
			c-1.2,1.1-1.1,2.7-1.6,4c-0.8-0.9,0.5-2-0.8-3.2c-0.7,4.9-4.2,8.1-5.6,12.2c0-0.1,0-0.4-0.2-0.5c-0.5-0.5-0.5,0.2-0.6,0.3
			c-0.7,1.4,0.7,2.4,0.5,3.7c-0.3,3.8-3,7.2-2,11.4c-1.1-1-0.2-2.4-1.3-3.4c-0.3,1.1-0.6,2.2-1,3.2c-1.3,3.1-1.9,6.3-1.8,9.6
			c0,2,1.6,3.6,1.3,5.5c-0.7,4.4,1.3,8.5,0.8,13.4c2.4-3.6-1-7.3,1.6-10.7C-221.2,435.9-221.3,437.3-221.4,438.7z M-84.9,27
			c2.9,2.9,6.9,1.2,9.6,3.7c2.6,2.4,6,3.8,8.2,7c2.1,3.1,3.5,6.4,4.7,9.8c0.9-6.1-3.9-9.8-6.5-14.7c6.4,5.5,12.4,10.9,11.8,20.1
			c5.1-6.3,2.4-12.1-1.2-18.2c2.5,1.5,2.8,4.1,4.5,5.8c-0.6-4.1-2.1-6-5.6-7.3c-1-0.4-1.9-0.8-2.8-1.3c-3.5-2.2-7.1-4.1-11.5-3.7
			c-1.1,0.1-2.3-0.2-3.3-0.6C-79.5,26.5-82,27-84.9,27z M-148.3,339.4c-1,2.4-1.8,5-1.1,7.5c1.5,5.2,1.8,10.7,2.6,16
			c0.6,3.8,2.9,5.7,5.9,7.1c1.1,0.5,2.3,0.5,2.6-1.4c0.5-3-1.6-5.6-1.2-8.6c0-0.1-0.2-0.2-0.3-0.3c-1.5-1.1-2.3-2.5-2.8-4.2
			c-0.5-2,0.2-4.3-1.5-6.6c0,1.6,0,2.7,0,4.2C-145.7,348.2-148.7,344.3-148.3,339.4z M-6,331c0,3.1-0.1,6.3,0,9.4
			c0.1,3.7-0.2,7-2.2,9.9c-1.1,1.6-2.1,3.4-2.5,4.9c-1.4,4.6-3.6,9.1-3.6,14.1c0,0.6-0.3,1.3,0.3,1.7c0.7,0.5,1.3-0.2,1.8-0.6
			c2.6-2.4,4.8-5.2,5.9-8.6c0.5-1.5,0.6-3.1,0.1-4.9c-0.4,0.4-0.6,0.6-0.8,0.8c-0.2,0.2-0.4,0.6-0.9,0C-5.2,349-2.3,340.3-6,331z
			 M-47.8,57.6c4.3,1.6,8.8,2.1,12.5,5c3.8,2.9,6.3,6.8,9.6,10.1c-1.5-2.8-3.2-5.4-5-8c-0.8-1.1,0.5-2.1,0.1-3.1
			c1.1-0.2,1.8,0.3,2.5,1c0.3,0.3,0.5,0.9,1.3,0.5c-1.5-2-3.9-2.7-5.7-4.3c-3.1-2.7-6.9-3.1-10.8-3.5
			C-45.6,55.2-45.6,58.3-47.8,57.6z M-120.1,44.9c-6.9-2.3-11.4,2.8-16.9,4c-1.4,0.3-1.3,2.1-2.1,3.1c-1.1,1.3-2.1,2.5-2.5,4.2
			c-0.2,0.6-0.1,1.3,0.5,1.6c0.5,0.2,0.9-0.3,1.2-0.8c1.1-1.5,2.1-2.9,3.2-4.4c0.2-0.3,0.4-1.1,1.1-0.7c2.3,1.5,3.7,0.1,4.8-1.6
			c0.4-0.7,1-0.9,1.5-1.2c2.8-1.4,6-0.5,8.8-1.8c0.2-0.1,0.5,0.1,0.7,0.2c1.5,0.2,2.9-0.3,4.4-0.7c-0.8-0.9-1.8-0.4-2.6-1.1
			c0.8-0.1,1.5-0.2,2.2-0.3c-3.8-1.2-6.9,2-10.7,1.5C-124.5,45.9-122.6,45.2-120.1,44.9z M112.3,512.7c-0.1-1.4,0.2-2.4,0.9-3.4
			c0.6-0.9,1.5-2.4,0.7-3.3c-1.9-1.9-1.1-4.2-1.4-6.3c-0.3-2.9-1.5-4-4.4-4c-0.8,0-1.7-0.1-2,0.7c-0.4,0.8,0.4,1.3,0.9,2
			c1.8,2.4,3.5,5.3,2.3,8.2c-1.2,2.9,0.1,3.9,2,5.2C111.6,511.8,111.8,512.2,112.3,512.7z M92,475.2c0.9,0.5,1.7,1,2.5,1.6
			c2.6,1.8,4.8,3.9,5.8,7c0.1,0.4,0.2,0.8,0.2,1.2c-2.2-0.7-1.3,1.3-1.2,1.7c0.8,2.8,1,5.7,1.5,8.5c0.3,1.6,2.2,2,3.3,1.6
			c1.3-0.5,0-1.5-0.4-2.2c-0.3-0.5-0.4-0.9-0.4-1.5c-0.1-5.2-1.9-10.1-2.4-15.2c-0.1-1.3-0.8-2-2-2C96.7,475.9,94.6,475,92,475.2z
			 M-9.1,225.3c1.4,1.4-1.3,1.6-0.6,2.8c1.3,2.7,1.4,5.6,1.4,8.5c0,1.6,1.2,1.8,2.3,2c0.9,0.2,1.8,0.2,2.7,0.5
			c0.8,0.3,1.9,0.5,2.4-0.1c0.3-0.5,0.1-1.5-0.1-2.2C-2.7,232.5-5.2,228.5-9.1,225.3z M-109,117.3c-2.6-0.8-5.1-2.3-7.9-2.1
			c-3,0.2-6.4,0.4-7.6,3.5c-1.1,3-2.2,6.2-2.4,9.6c1.2-0.9,1.9-1.9,2.6-3c1.7-3.3,3.1-7,8-6.7c0.9,0.1,1.9-1.4,3-0.3
			C-112.2,116.6-110.7,117-109,117.3z M-182.9,483.7c-0.1-1.3,1.1-2.1,0.4-3.2c-3.3,4.3-3,10.7-1.6,15.9c0.8-1,0.1-2.1,0.5-3
			c2.1,1,0.9,3.2,1.5,4.9c2.1-4.6,1.9-9.3,2.1-14c-2.2,0.9-0.7,3.4-2,4.8c-0.5-3.5,2-6.3,1.8-9.9
			C-181.9,480.4-180.6,482.9-182.9,483.7z M-25.9,447.6c-1,3.9-0.8,7.6-1.7,11.2c-1.1,4.4-1,9.2-0.9,13.8c0.1,1.8,0.8,3.1,2.7,3.7
			c-1.2-1.6-0.7-3.2-0.5-4.9c0.2-1.7,0.4-3.4-0.4-5c-0.1-0.2-0.5-0.8-0.1-0.8c2.7,0,0.9-1.8,1-2.7c0.2-2.3,1.2-4.5,0.8-6.9
			c-0.3-1.7-1.2-3.6-0.3-4.9C-24.2,449.5-25.1,448.9-25.9,447.6z M-99.2,219.8c0.2-0.3,0.5-0.6,0.7-0.9c-0.9-0.8-1.8-2.4-2.8-2.4
			c-3.5-0.2-4.5-3.6-6.7-5.2c-1.7-1.2-1.3-4.9-4.9-4.2c-0.8-2.3-3.4-2.1-4.8-3.5c-0.4-0.4-1-1.1-2.1-0.4
			C-113.6,209.7-106.9,215.4-99.2,219.8z M-142,434.4c-1.2,0.3-2.5,0.4-3.7,0.8c-3,0.9-5.8,2.2-8.5,4.1c-2.8,2-4.4,4.2-4.2,7.5
			c0.5,0.7,0.9-0.8,1.4-0.1c-0.3,1.1-1.5,1.6-1.2,3.2c1.8-2.8,3.8-5.1,5-7.9c0.8-2.1,3-3.6,4.8-3.6
			C-145.3,438.4-143.8,436.3-142,434.4z M-167.9,157.4c-3-8.7-2.6-18.1-5.6-26.7C-174.3,140.1-172.8,149.1-167.9,157.4z
			 M-172.1,474.4c-0.3,0-0.5,0.1-0.8,0.1c0,3.3,0.1,6.6,0,9.8c-0.1,2,1.2,3.2,2.4,4.2c1.5,1.3,3.4,2.2,5.1,3.3
			c-0.8-1.2-0.7-2.6-1-3.9c-0.8,0-0.6,0.9-1.4,1.1C-167.5,483.7-171.8,479.7-172.1,474.4z M-121.2,42c1.3,0,2.6,0,3.9,0
			c0.7,0,1.6,0.1,1.6-0.8c0-1-1-0.8-1.6-0.8c-2,0-4,0-5.9,0.3c-3.8,0.6-7.6,1.4-10.9,4.9c3.8-0.2,6.5-2.7,9.7-2.6s6.4,0.4,9.6,0.7
			C-116.9,42.9-119,42.4-121.2,42z M-113.1,482c-1.6,1.2-0.3,3.2-1.1,4.4c-1.6,2.5,0.2,4.6,0.3,6.9c0.1,2.7,2.8,5,1.5,8
			c-0.3,0.7,0.1,1.3,0.7,1.8c0.3,0.2,0.6,0.4,0.9,0c0.4-0.6,0.1-1.3,0-2c-0.3-2.4-0.9-4.8-0.9-7.2c0-3.6-1.1-7.1-0.6-10.7
			C-112.3,482.8-112.4,482.1-113.1,482z M-152.6,48.2c-3.2,3-5.3,13.6-3.9,20.2c1.5-1.3,1.5-2.9,1.3-4.5c-0.4-3.1,0.3-6.1,1-9.1
			C-153.6,52.6-152,50.7-152.6,48.2z M-84.8,58.3c0.7,0.1,0.9,0,4.1-2.6c0.3-0.2,0.6-0.7,0.6-1.1c0.5-4.4-0.6-8.6-1.7-12.9
			c-0.2-0.8-0.8-1.5-1.2-2.2C-81.2,46.1-81.6,52.3-84.8,58.3z M-163,485.9c0,1.9,0.3,3.6-0.1,5.4c-0.2,1,0,2.4,1.7,2.7
			c1,0.2,1.9,1.1,2.8,1.2c0.9,0,1.4,1.5,2.2,0.6c0.6-0.7,0.2-1.6,0.1-2.5c-0.2-1-0.6-1.7-1.5-2.2c-0.3-0.2-0.2-1-0.9-0.9
			c-0.7,0.5,0.1,1.7-1.2,1.9C-160.7,489.9-161.2,487.7-163,485.9z M-81.6,59.1c4.9-1.5,7.6-6.3,6.3-10.8c-0.2-0.6-0.1-1.3-0.9-1.4
			c-0.9,0-0.8,0.8-0.9,1.3C-77.6,52.2-79.2,55.8-81.6,59.1z M-158.1,231.9c2.9-6.5,7.4-11.8,12.3-16.8
			C-152.5,218.8-156.7,224.5-158.1,231.9z M-117.9,133.6c3.5,1.6,9.7,1.4,12.4-0.3c2.8-1.7,2.8-2.9-0.1-5
			C-107.1,135.5-112.7,133.4-117.9,133.6z M-172.4,130.3c1.5-0.1,1.6-1,1.7-1.9c0.3-4,0.6-8,1-12c0-0.4,0-1-0.4-1.1
			c-0.7-0.3-0.8,0.4-0.9,0.9c-0.7,2.1-1.2,4.2-0.8,6.5C-171.6,125.1-172.2,127.6-172.4,130.3z M-114.8,250.9
			c0.8-2.2,2.6-3.8,3.5-5.9c0.3-0.6,0.7-1.5-0.6-1.3c-1.3,0.1-2.7,0.3-4,0.6c-1.5,0.4-1.1,1.9-1.4,3c-0.3,1.3,0.9,0.7,1.2,0.9
			c1.4,0.9,0.7-1.6,1.8-1.4C-114.4,248.2-115.3,249.3-114.8,250.9z M-76.6,475.2c-0.8,2.5-1.5,4.7-2.4,7c-0.2,0.5-1,0.7-0.2,1.3
			c0.7,0.5,1.1-0.1,1.5-0.5s0.7-1,0.6-1.6c-0.4-1.6,0.7-2.3,2-3c0.1,0.7,0.2,1.3,0.3,1.9c0.1,1.2,0.8,1.1,1.6,1
			c1.1-0.2,0.7-0.9,0.4-1.5c-0.3-0.8-0.9-1.6-1-2.3c0-0.9-0.3-1.5-1.1-1C-76.3,477.2-76.1,475.6-76.6,475.2z M-79.9,442.4
			c-1.2,0.1-1.4,1.3-2.2,1.4c-3.1,0.4-4,3.4-6.1,5.1c-0.7,0.6-2,2.4-0.5,3.2c1.2,0.7,2.4-1,2.7-1.9c0.8-2.8,2.8-4.4,4.9-6
			C-80.6,443.9-80,443.4-79.9,442.4z M-13.1,91c-3.2-5-7.6-6.6-12.4-7.6C-22,86.6-17.7,88.5-13.1,91z M-172.3,103
			c-3.7,10.7-3.2,12.4-2.7,16.7c0.2-3.7,1.2-7.3,2.3-10.8C-172.2,107.1-171,105.3-172.3,103z M-163.9,94.3c-1.8,2.3-5.2,3.4-5.1,7
			c0,0.9-0.4,2.2,0.8,2.4c1.1,0.2,0.9-1.2,1.2-2c0.2-0.5,0.7-1,1-1.5C-165,98.3-163.7,96.6-163.9,94.3z M-144.7,49.1
			c3.4-4,8.3-5.9,11.9-9.6C-137.2,42.2-142.7,43.5-144.7,49.1z M-53.7,27c3.9,2.9,6.9,6.7,9.8,10.7C-43.7,34.9-48.6,29.3-53.7,27z
			 M-113,198.5c-2.2,2-0.9,3.8,0,5.7c0.9,1.8,1.6,0.6,2.2-0.1c0.6-0.7,0.7-4.2,0.3-5.4c-0.1,1.4-0.9,2.2-1.8,3.1
			C-112.7,200.7-112.1,199.5-113,198.5z M-91.2,162.5c0,0,0.2,0.6,0.2,1.2c0.1,1.5,1.2,1.8,2.3,1.7c1.3-0.2,1.3-1.3,0.9-2.4
			c-0.1-0.5-0.2-1-0.3-1.5c-0.2-0.8-0.1-2-1.3-1.8C-90.5,159.8-91.4,160.5-91.2,162.5z M-122.6,522.4c3.6-3.2,5.9-7,6.1-11.8
			c-0.8,2.9-2,5.6-4.4,7.4C-122.4,519.1-123,520.4-122.6,522.4z M-158.2,166.6c-2.4-3.4-4.8-6.8-7.3-10.2c-0.2,0.1-0.3,0.3-0.5,0.4
			C-163.9,160.4-162.7,164.7-158.2,166.6z M-38.4,210.8c-1.3,4.7-2.3,9.4,0.4,14C-38.9,220.1-39.3,215.5-38.4,210.8z M-9.5,264.9
			c-2.3-5.2-4.5-7.9-7.1-8.6C-15.2,259.8-12.5,262.5-9.5,264.9z M-18.2,471.4c-1.7,4.9,3.2,7.7,3.6,11.9c-0.2-2.7,0.2-5.6-1.6-7.8
			c-1.3-1.7-1.6-1.5-1.8-3.7C-18,471.7-18.1,471.6-18.2,471.4z M81.8,525.6c1.6-4.6,4.5-9.1,3.2-14.4
			C83.9,516,82.8,520.8,81.8,525.6z M-155.6,472.5c-0.6,1.7,0.1,3.4-0.6,5.1s0.5,3.4-0.2,5.1s0,3.1,0.5,5
			C-153.9,482.3-155.9,477.4-155.6,472.5z M-226,337.3c-0.1,5.1,0.9,10,2,14.9C-224.8,347.3-224.7,342.3-226,337.3z M-105.6,247.2
			c-0.4-1.1,2.3-1.4,0.7-2.7c-1.3-1-3-1-4.5-0.7c-1.4,0.3-1.7,1.9-1.9,3.5C-108.5,244.6-107.9,244.6-105.6,247.2z M-95.2,457.6
			c-0.1,2.7-0.4,5,3.1,5.6c-1.2-1.6,0.6-1.8,0.9-2.9C-92.4,459.5-93.7,458.6-95.2,457.6z M-13.9,236.6c0.5,0.3,1.2,0.8,1.9,1.2
			c0.7,0.4,1.7,0.3,1.6-0.5c-0.3-2.4,0.3-5.1-1.2-7.3C-13.2,232-10.1,235.5-13.9,236.6z M-120,530.3c1.9-3,0.9-6.7,2.9-9.8
			c-2,0.1-3,1.5-2.8,2.3C-119.3,525.3-119.9,527.8-120,530.3z M-9,455.9c0.4,3.8,0.8,7.3,2.4,10.9C-5.9,464-7.3,457.9-9,455.9z
			 M-73.9,227.2c3.3,2.6,5,6.4,7.7,9.5C-67.3,232.3-70.1,229.3-73.9,227.2z M-132,453.3c-1.6,4.3-3,8.6-3.3,13.2
			C-134.7,462-131.9,458.1-132,453.3z M-29.6,154.3c0.1,0.9-0.3,2,1,2c1.4,0,2.5-0.9,2.8-2.2c0.3-1.4-1.2-1.2-2-1.5
			C-29.3,152.1-29.4,153.4-29.6,154.3z M-133.5,261.4c-0.1-1-0.1-1.8-0.1-2.5c0-0.2-0.2-0.4-0.4-0.6c-1.2,2.8-0.8,4.4,2,6.9
			c-0.8-2,1.4-4.2-1-5.7C-133.7,259.9-133.1,260.7-133.5,261.4z M-128.4,135.8c-0.3,1.4-0.6,2.6-1,4c1-0.6,0.7-1.7,2.1-2.1
			c-1.4,1.8,0,3.2-0.2,4.7c-0.1,0.6,0.5,0.9,1,1c0.6,0,0.8-0.5,0.6-0.9C-126.9,140.4-126.1,137.8-128.4,135.8z M-114.9,464.4
			c0.1-4.2-0.6-7.7-1.3-11.3c0.3,2.4-0.4,4.5-1.4,6.6c1,0.2,0.9-1.2,1.9-0.8C-115.3,460.4-116.5,462.2-114.9,464.4z M-119.9,201.2
			c-0.7-1,0.2-3-1.5-3.1s-1.9-1.2-2.5-2.2c-0.7-1.1-1.3-2.2-2.7-2.9C-125.3,196.7-122.7,199-119.9,201.2z M-113.1,476.3
			c-0.3,0-0.5-0.1-0.8-0.1c-0.8,3.8-1.7,7.6-2.1,11.4c0.2,0,0.5,0.1,0.7,0.1C-114.5,483.9-113.8,480.1-113.1,476.3z M-2.8,322.7
			c0-0.4-0.2-0.8-0.6-0.7c-1.3,0.4-2.6,0.8-3.9,1.4c-0.6,0.3-0.4,1.1-0.1,1.6c0.2,0.4,0.5,0.9,0.8,1.2C-6.4,326.3-2.9,323-2.8,322.7
			z M-104.8,166.8c2.8-1.7,4.4-4.9,4-7.6C-102,161.7-104.2,163.6-104.8,166.8z M-16.6,451.7c0,4.5,2.4,8.3,3.2,12.6
			C-12.8,459.6-16,456.1-16.6,451.7z M-161.8,87.4c-1.9,2.3-5.4,3.1-6.4,6.3C-166,91.7-162.8,90.7-161.8,87.4z M-40.1,235.8
			c-2.6-1.9-6-2.2-8-0.9C-45.7,235.4-43.2,236-40.1,235.8z M-127,31.5c-3.3-0.4-7.7,1.4-9.8,3.6C-133.5,33.9-130.5,32.8-127,31.5z
			 M-133.3,61.1c1.8-2.3,3.6-4.6,5.5-6.9c-0.2-0.1-0.4-0.3-0.5-0.4C-130.6,55.8-132.7,57.9-133.3,61.1z M-45.3,249.1
			c2.9,0.7,5.9,0.7,8.8-0.1C-39.4,248.7-42.3,248-45.3,249.1z M-139.6,198.2c-1.8,6-1.8,6-0.8,7.4
			C-139.5,203.3-138.5,201.2-139.6,198.2z M-51.8,253c2.9-0.7,5.5-2.4,8.5-2.7C-46.7,249.6-49.5,250.7-51.8,253z M-18.2,281.4
			c-0.1,3.2-0.7,6.3,0,10.2C-17.2,287.7-17.6,284.5-18.2,281.4z M-172.6,471.3c1.1-1.2,0.3-2.5,0.8-3.6c0.2,0.5,0.4,0.8,0.7,1.5
			c0.1-1,0.1-1.6,0.3-2.3c0.3-1.1-0.4-1.1-1.2-1.4c-1.1-0.4-0.7,0.6-0.8,0.9C-172.9,468-173.2,469.5-172.6,471.3z M-46.9,39.4
			c1.4-3.7-1.1-5.3-2.8-7.3c-0.2-0.3-0.6-0.7-1-0.1c-0.2,0.3-0.2,0.7,0.1,0.9C-48.3,34.3-47.1,36.3-46.9,39.4z M-148.9,102
			c3.8-1,4.9-4.2,6.2-7.3C-144.5,97.4-146.4,100-148.9,102z M-145.8,338.8c-1.2-2-1.9-4.1-2.4-6.8
			C-149.3,335.9-148.7,337.7-145.8,338.8z M-166.6,109.5c2.2-1.6,3.1-3.3,2.4-6.3C-165,105.5-166.9,106.9-166.6,109.5z M97.1,480.2
			c0.3,2.8,0.5,5.4,0.8,8.1C99.4,485,99.1,482.3,97.1,480.2z M-239.2,498.1c0.1,0,0.3,0,0.4,0.1c0.7-3.3,1.3-6.6,2-9.9
			c-0.3,0-0.5-0.1-0.8-0.1C-238.1,491.5-238.6,494.8-239.2,498.1z M-44.5,68.4c-0.8-2.9-0.8-2.9-4-2.5C-47.9,68-46.4,68.5-44.5,68.4
			z M-115.2,476.2c1.7-2.7,1.8-3.6,0.7-5.8C-115.7,472.1-115.7,472.1-115.2,476.2z M-143.7,454.2c-1.3,3.3-3.2,6.5-3.8,10.1
			C-145.3,461.3-144.8,457.6-143.7,454.2z M-62.6,53.5c1-2.3,3.4-4.2,1.3-7.7C-61.1,48.9-62.7,51-62.6,53.5z M-7.9,470.4
			c-1-3-1.9-6-2.9-9C-10.8,464.7-9.9,467.7-7.9,470.4z M-141.8,65c1-3.1,3-5.8,3.7-8.9C-140.3,58.6-141.2,61.7-141.8,65z
			 M-31.3,463.1c-1.2,5.2-1.1,6,0.2,8.6C-31.8,468.6-30.6,465.8-31.3,463.1z M-224,286.4c1.5-1.2,1.3-3.2,2.9-4.2
			c0.7-0.5,0.8-1.2,0-1.7c-0.8-0.5-1.3,0.2-1.5,0.9C-223.1,283-223.6,284.7-224,286.4z M-5.4,115.8c0.9,3,0.9,6.3,2.3,9.5
			C-3.2,121.8-4.3,118.8-5.4,115.8z M-86.4,246.5c-1.7-1.7-2.2-3.7-4-4.9C-88.7,246.5-88.7,246.5-86.4,246.5z M-160.6,463
			c-1.1,2.9-1.4,5.9-0.8,9.5C-160.4,469.1-160.6,466.1-160.6,463z M-123.3,38.9c-3-0.2-5.8,0.5-8.5,2
			C-128.9,40.9-126.2,39.9-123.3,38.9z M-176.4,478.3c0.4-2.9,1.4-5.6,0.5-8.9C-176.9,472.6-176.6,475.3-176.4,478.3z M-139.7,435.6
			c1.1-0.7,2.3-1.3,2.8-2.5c0.2-0.4,0.7-1,0.2-1.4s-1.1-0.2-1.6,0.2C-139.5,432.9-139.4,434.3-139.7,435.6z M-154.7,470
			c0.6-2.7,1.2-5.5,0.3-8.3C-155.2,464.4-153.7,467.3-154.7,470z M-134.3,60.4c-2,1.8-2.5,4.2-2.1,7
			C-135.7,65.1-135,62.8-134.3,60.4z M-31.9,265.1c1.8,2.1,3.7,4.2,5.5,6.3C-27.7,268.8-29.2,266.3-31.9,265.1z M-36.6,218.2
			c-0.5,2.5,0.1,4.8,2.1,7.6C-35.2,222.8-36.1,220.6-36.6,218.2z M-225.3,410.5c1-2.7,0.2-5.2,0-7.8
			C-225.3,405.3-225.3,407.9-225.3,410.5z M-98.3,186.7c-2.4-0.3-3.8,0.7-6,1.2C-101.8,189.2-100.3,188.5-98.3,186.7z M87,500.6
			c-0.1,2.2-0.2,4.4-0.3,6.7C87.6,505,88.3,502.8,87,500.6z M-50.7,250.6c-2.6,0.2-4.1,1.3-5,3.3C-53.8,253.4-52.4,252.1-50.7,250.6
			z M-27.4,95.1c1.5,2.1,4,2.2,5.4,0C-23.9,97.1-25.6,94.2-27.4,95.1z M-123,466.5c-0.7,2.2-2.3,4.4-0.9,7.6
			C-123.5,471.2-123.3,468.9-123,466.5z M-113.5,511.3c0.5-2.3,1-4.7,1.4-7c-0.2,0-0.5-0.1-0.7-0.1
			C-113.2,506.5-114.4,508.7-113.5,511.3z M-158.8,229.8c-0.9,1.8-1.5,3.7-1.4,6.4C-158.5,233.9-159.3,231.8-158.8,229.8z
			 M54.4,524.5c0.9-1.5,2.6-2.4,3.4-4C54.4,519.8,55.2,522.9,54.4,524.5z M-29.9,213.5c-0.3,2-0.8,4.1-0.1,6.7
			C-28.5,217.7-29.9,215.6-29.9,213.5z M-76.2,448.9c3.8-2.8,3.8-2.8,2.9-4.7C-73.9,445.9-75.7,446.6-76.2,448.9z M-178.6,467.2
			c-0.7,2.5-2.4,4.6-2.3,7.4C-179.9,472.2-178.5,470-178.6,467.2z M-106.2,118.2c1.5,0.8,3,1.5,4.4,2.3
			C-102.7,118.7-103.8,117.3-106.2,118.2z M-112.9,70c-2.8,0.2-3.9,1.9-3.5,4.8C-115.8,72.8-114.8,71.4-112.9,70z M-118,244.5
			c-1.4,2.1-1,4.7-1.5,7C-118,249.3-118.6,246.8-118,244.5z M-58.2,253.1c-0.3-1.5,1.7-3.2-0.4-4.8
			C-59.1,250.1-59.3,251.7-58.2,253.1z M-157,466.3c0.5-2.1,1-4.2,1.4-6.4C-156.6,461.9-157.9,463.8-157,466.3z M-117.2,201.9
			c0.3-2-0.3-3.3-0.7-5.1C-119.3,198.8-119,200.3-117.2,201.9z M-190.9,463.8c0.2,0.1,0.4,0.3,0.5,0.4c1.1-1.9,2.5-3.6,2.8-6
			C-188.7,460.1-189.8,462-190.9,463.8z M-231,513.7c0.2,2.3,0.5,4.5,3,5.8C-229,517.6-230,515.6-231,513.7z M-236.2,491.1
			c1.8-3,2-4.2,1.1-6.1C-235.9,486.8-235.9,488.7-236.2,491.1z M-127,54.5c2.6-1.5,4.5-3.2,7.2-3C-123.3,51.1-124.7,51.6-127,54.5z
			 M-6.1,159.4c-1.4,1.6-1.7,3.5-1.8,6C-6.6,163.3-6.3,161.4-6.1,159.4z M-148.5,461.2c-1,1.4-1.3,2.9-1,5
			C-148.4,464.4-148.3,462.8-148.5,461.2z M-125.7,422.2c-3,1.4-3.4,1.8-4.1,4.4C-128.2,424.9-126.9,423.6-125.7,422.2z
			 M-47.9,239.5c2.4,0,4.4,0,6.4,0C-43.6,239.2-45.6,237.9-47.9,239.5z M-161.7,461.4c1.2-2,2.6-4,2.6-6.3c-0.2-0.1-0.4-0.1-0.6-0.2
			C-160.3,457.1-161,459.3-161.7,461.4z M-8.1,451.6c-0.1,2,1.3,3.4,2,5.7C-5.5,454.5-7.3,453.3-8.1,451.6z M-111.3,511.8
			c-0.7,1.9-1.2,3.9-0.3,6.5C-111.3,515.7-110.6,513.8-111.3,511.8z M-118.8,470.1c-0.5,2.2-0.9,3.8-1.3,5.4
			C-119,474.1-117.9,472.6-118.8,470.1z M-117.2,482.2c0.4-0.1,0.6-0.2,0.8-0.3c1.1-0.8,0.9-1.9,0.7-3c0-0.2-0.4-0.5-0.5-0.5
			c-1,0.5-0.6,1.6-1,2.4C-117.2,481.2-117.1,481.7-117.2,482.2z M-42.6,53.8c2.5-0.2,4.5-0.2,7,0.6C-38,52.5-39.9,52.2-42.6,53.8z
			 M-175.2,482.4c-1.9,0.8-1.9,2.3-1.3,4C-176,485.1-175.6,483.8-175.2,482.4z M-158.1,466.8c-0.6,2.5-1.3,4.3-0.9,6.3
			C-158.3,471.2-157.8,469.4-158.1,466.8z"/>
		<path class="st0" d="M68.8,270.8c3.9,3,5.8,7.5,7.5,11.8c2.6,6.9,4.8,14,6.1,21.3c1.4,8,1.4,16.1,2.3,24.1
			c0.9,9.4,1.8,18.8,2.7,28.2c0.1,0.8,0.1,1.5-0.2,2.3c-0.7-4.8-1.5-9.6-2-14.5c-1.3-12.7-1.7-25.6-3.7-38.3
			c-1.6-10.3-4-20.4-9.2-29.6C71.1,274.3,69.3,272.9,68.8,270.8L68.8,270.8z"/>
		<path class="st0" d="M-169.9,521c1.9,1.5,1.5,4.1,3.2,5.9c-0.6-4.1-2.1-8-1-12.4c1.3,1.9,2,1.7,2.1-0.6c0.7,1.2-0.1,2.4,0.9,3.2
			c1.1-1.2,0.3-2.8,0.9-4.2c1,0.2,1.2,1,1.1,1.7c-0.7,4.3,0.4,8.5-0.2,12.8c-0.4,3-0.6,6.1,0.3,9.2c0.2,0.8,1.9,1.5,0.1,2.5
			c-0.9-3-1.9-6-1.6-9.2c0.1-1.2-0.3-2.4-1.4-2.4c-1.3,0-1.2,1.3-1.1,2.5c-0.6-1.2-2-1.7-2.2-3.3c0,0.8,0,1.7,0,2.9
			C-171,526.8-167.6,523.7-169.9,521z"/>
		<path class="st0" d="M-218.5,496.5c-2-3.2-0.6-6.4-0.5-9.6c0-3.2,0.2-6.4,1.3-9.5c0.5-1.4,1.1-2.2,2.4-2.6
			c0.1,7.2-0.3,14.4,0.7,21.5c-1.2-1,0.1-2.7-1.5-3.6c-0.8,2.2,0,4.7-1.5,7.1c-0.4-4,1-7.4,0.5-11
			C-218.4,491.2-218.2,493.9-218.5,496.5z"/>
		<path class="st0" d="M-223,487.6c0.5-3.2,1.1-6.4,1.6-9.6c-0.1,0-0.2-0.1-0.3-0.1c-0.6,1.1-1.1,2.1-2,3.7c0.5-2.6,1.1-4.7,0.7-7.3
			c2.8,2,3.1-0.1,3.9-2.5c0.2,1.1,0.3,1.5,0.2,1.7c-2,3.1-1,6.8-1.9,10.2c-0.2,0.8-0.3,1.6,0.4,2.5c0.8,1.1,0.4,2.8-0.1,4.2
			c-0.6,1.6-1.3,3.2-1.6,4.9c0-2.1,0-4.1,0-6.3c-1.6,0.8-0.8,2.5-1.7,3.4c0.1-3-2.1-6,0-9.3C-223.1,484.6-223.8,486.1-223,487.6z"/>
		<path class="st0" d="M-126.5,504.5c0.5,1.6-0.3,2.9-0.9,4.2c-0.6,0.7-1.4,1.6-1.4-0.2c-0.1-2.7-1.2,0.2-1.7-0.6
			c2.2-4.5,1.5-9.8,2.6-14.7l-0.1,0.1c1.3,1.7-0.8,3.6,0.5,5.8c0.6-3,0.9-5.8,1.6-8.4c0.6-2.2-0.3-4.8,1.6-6.7v-0.1
			c-0.7,2-0.4,4.1-0.5,6.1c-0.1,2.1,0.3,4.4-0.4,6.3C-126.4,499.2-126.6,501.8-126.5,504.5z"/>
		<path class="st0" d="M-207.6,481.4c2.4-2.2,2.4-5.3,3.1-8.1c0.3-1.2,0-2.6,1.3-3.5v-0.1c-0.1,0.7-0.5,1.5,0.1,2.6
			c1-2.7,2.2-5.1,2.8-7.9c1.6,2.2,1.7,2.2,0.5,4.3c-1.1,2-1.5,4.2-2,6.4c-0.4,1.9-1,2.3-2.1,0.2c-1.3,3.4,0.2,7-1.9,10.1
			c-0.7-1.3,0.5-2.4,0.1-3.8c-1,1-0.7,2.5-1.8,3.8C-207.5,484-207.5,482.6-207.6,481.4L-207.6,481.4z"/>
		<path class="st0" d="M-157,527.4c-0.1,1.4-0.5,2.6-1.3,4.3c-0.9-4.9-1-9.2-0.1-13.6c3-1.4,0.7-4,1.9-6.1c-1.6,0.4-1,1.8-1.9,2.6
			c0-2.7,0-5,0-7.6c1.1,0.9,0.7,1.8,0.7,2.7c0,0.3,0,0.8,0.5,0.7c0.3-0.1,0.5-0.6,0.8-1c0.3,1-0.1,2.1,0.9,2.8c0,0,0-0.1,0,0
			c-1.1,2.8-0.8,5.8-0.7,8.7c0,0.6,0.3,1.2-0.1,1.7l0.1,0.1c-0.3-1-0.5-2-0.8-3C-157.1,522.5-158.7,525.1-157,527.4L-157,527.4z"/>
		<path class="st0" d="M-224,476.7c-0.4,3.7-1.2,7.3-2.9,10.7c-2.7-3.3-1.9-6.9-1.1-10.7C-226.6,479.4-225.5,478.3-224,476.7z"/>
		<path class="st0" d="M9.5,504.3c1.1,0.6,0.6,1.4,1.3,1.5c0.4-1.1-0.1-2.4,1.4-3.4c0.2,4.4,2.1,8.5-0.1,13.1
			C9.7,512.1,10.3,508.3,9.5,504.3z"/>
		<path class="st0" d="M-143.1,504.1c0.5,1.9,0.1,3.4-0.4,4.9c-1,3.1-2.6,6.3-2.3,9.3c0.3,3.2-1.1,5.9-0.9,9.1c-1-1.1-1-1.1-2.8,1.3
			C-147.4,520.4-145.3,512.4-143.1,504.1z"/>
		<path class="st0" d="M90.5,528.9c-0.7,2.6-1.3,5.6-2.7,8.4c-1.6-3.7,0.5-6.4,2.2-9.1c0.9-1.4,1.9-2.8,2.8-4.3
			c0.3-0.5,0.7-1.2,1.4-0.8c0.7,0.3,0.5,1.2,0.1,1.5c-1.4,1.2-1,3.1-2.2,4.5C90.4,531.1,91.4,528.2,90.5,528.9z"/>
		<path class="st0" d="M-143,523.6c1.2-3,1.1-6,3.1-8.4c1,0.9-0.3,1.9,0.1,2.8c1.1,0,0.7-1,1.4-1.5c1.2,3.9-2.1,6.4-3.1,9.5
			c-0.9-2.5,1.7-4.5,1-7.3C-141.8,520.2-141.5,522.2-143,523.6z"/>
		<path class="st0" d="M-0.9,493.4c0,0.1,0,0.2,0,0.3c-1.3,4.3,0,8.7-0.8,13.1c0.1-7.3-1-14.4-1.3-22.1
			C-0.9,487.6-2,490.8-0.9,493.4z"/>
		<path class="st0" d="M42.5,264.5c1.3-0.9,0.8-3.1,2.6-3.5c0.5,3.6,1.7-1.6,2.3,1c-1.4,2.2-4.1,4.4-4.5,8
			C42.1,268.1,43.8,266.3,42.5,264.5z"/>
		<path class="st0" d="M-156.5,522.7c0.3,0.3,0.6,0.8,0.9,0.8c0.6,0,0.4-0.5,0.4-1c-0.4-2.9,0.3-5.8,1.1-8.6c-0.4,1.9,0,3.7,0.2,5.6
			c0.2,1.9,0.9,4.2-1.7,5.4c-0.3,0.1-0.2,1.1-0.2,1.7c0,0.8-0.3,1.1-1.1,0.8l0.1,0.1c0.2-1.6,0.4-3.1,0.5-4.7L-156.5,522.7z"/>
		<path class="st0" d="M91,403.5c-0.5-4.4-1.1-8.8-1.4-13.3c-0.2-2.6-0.7-5.2-0.3-7.9c0.7,7,1.5,14.1,2.2,21.1
			C91.4,403.5,91.2,403.5,91,403.5z"/>
		<path class="st0" d="M-159.4,510.8c0.9,4.4-1.5,8.5-1.3,12.9C-163,519.1-159.5,515.2-159.4,510.8z"/>
		<path class="st0" d="M-209.9,475.5c-0.7-3.1,2.4-5.2,2.3-8.2c-0.1-1.6,1.6-2,3.2-2.5c-0.8,1.4-2.9,2.1-1.5,4.2
			c0.4,0.6-1.6,0-1.7,1.4c-0.2,1.4-1.1,2.7-1.5,4.1C-209.3,475-209.7,475.1-209.9,475.5C-209.9,475.4-209.9,475.5-209.9,475.5z"/>
		<path class="st0" d="M9.8,513.6c-3.8-3.6-1-8.6-2.5-12.7C9.6,504.8,8.1,509.4,9.8,513.6z"/>
		<path class="st0" d="M-213.5,485.4c2-3,2.4-6.6,3.6-10c0,0,0-0.1-0.1-0.1c0.2,2.8,0.6,5.4-1.4,8c-1.1,1.4-1.4,3.4-2.1,5.3
			C-214,487.4-213.3,486.4-213.5,485.4L-213.5,485.4z"/>
		<path class="st0" d="M7.3,530.2c-0.1-3.2-1.1-5.9-0.7-8.8c0.4,1.7,0.7,3.3,1.1,5c1.1-0.6,0.2-1.7,1.1-2.4
			C9.2,526.2,9.9,528.3,7.3,530.2z"/>
		<path class="st0" d="M-180.8,512.1c0.1,0.6,0.2,1.1,0.3,1.7c1-0.4,0.6-1.4,1.6-2.5c-0.1,3.8-1.9,6.6-2.6,9.7
			C-181.8,518.1-180.7,515.2-180.8,512.1z"/>
		<path class="st0" d="M-139.1,457.4c0.6,3.2-0.6,6.2-0.6,9.4c0,2,1.4,4.1-0.5,5.8C-141.2,467.5-140,462.5-139.1,457.4L-139.1,457.4
			z"/>
		<path class="st0" d="M-207.5,481.3c-0.3,0.5-0.6,1-0.9,1.5c-0.1,0-0.2,0-0.4,0c0.3-2.3,0.5-4.7,1.1-7c0.3-1.2,0.2-2.3,0.5-3.4
			c0.1-0.5,0.5-1,1.1-0.8c0.5,0.2,0.3,0.7,0.1,1.1C-207.3,475.4-206.8,478.6-207.5,481.3C-207.6,481.4-207.5,481.3-207.5,481.3z"/>
		<path class="st0" d="M-144.4,518.6c0.9-4.8,2.5-8.9,2.8-13.4C-141.7,509.7-141.5,514.2-144.4,518.6z"/>
		<path class="st0" d="M-213.4,485.4c-0.1-2.7-2.2-5.7,1.1-8.1c1,1.3,0.4,2.7-0.1,4C-212.8,482.6-213.5,483.9-213.4,485.4
			C-213.5,485.4-213.4,485.4-213.4,485.4z"/>
		<path class="st0" d="M113.2,525.7c1.1-0.1,0.6,0.7,0.6,1.2c-0.1,0.9-0.4,1.9,0.7,2.5c0.8-0.7-0.3-1.8,0.6-2.6
			c0.2,2.1,0.2,4.1-1.4,5.8c-0.1-2.4-1.3-4.5-0.5-6.8C113.2,525.8,113.2,525.8,113.2,525.7z"/>
		<path class="st0" d="M16.7,513.4c0.7,0.9,0.7,1.9,1.7,2.2c0.9,0.2,0.8,0.9,0.5,1.4c-1.2,1.8-1.4,3.8-1.4,5.9
			C17.2,519.7,17,516.7,16.7,513.4z"/>
		<path class="st0" d="M-153.4,524.8c0,1.7,0.6,3.9,0.1,3.8c-2.6-0.6-1.2,1.6-1.7,2.2c-0.4,0.5-0.4,1.4-0.6,2.3
			C-156.8,530.1-155.2,527.8-153.4,524.8z"/>
		<path class="st0" d="M-220,524.9c-1.1-2.9-1.6-5.8-0.6-9.4C-219.6,518.9-220.3,521.9-220,524.9z"/>
		<path class="st0" d="M-1,476.5c1.1,2.8,0.6,5.4-0.7,8.1c-0.9-1.2-1.1-3.4-0.5-3.6C0.1,479.9-2.1,477.9-1,476.5z"/>
		<path class="st0" d="M-132.4,516.1c-0.2,2.4-1.7,4.4-2.7,6.5C-136.1,519.7-133.3,518.3-132.4,516.1z"/>
		<path class="st0" d="M-162.3,74c-1.5-4-1.8-10.8-0.6-14.2C-163.6,64.6-163,69.3-162.3,74z"/>
		<path class="st0" d="M-7.6,524.5c-0.2-3-0.3-5.9-0.5-8.9C-7.6,518.6-5.9,521.5-7.6,524.5z"/>
		<path class="st0" d="M111.7,527c-0.6,1.1-0.2,2.8-2,3.8c0.8-2.6-0.4-5.2,1-7.7C111.7,524.3,110.2,526.1,111.7,527
			C111.8,527.1,111.7,527,111.7,527z"/>
		<path class="st0" d="M-177.4,509.3c0.4-0.1,0.9-0.8,0.9,0.4c0,2.9-1.3,5.4-1.7,8.1c-0.5-1.6,0-3.1,0.5-4.6
			C-177.4,511.9-176.6,510.6-177.4,509.3L-177.4,509.3z"/>
		<path class="st0" d="M-3.5,501.4c-1-3.1-0.6-6.4,0-9.6C-3.5,495-3.5,498.2-3.5,501.4z"/>
		<path class="st0" d="M-122.5,531.5c-0.6,2.2-2.9,3.5-2.6,6c0.1,0.5-0.4,0.4-0.7,0.3c-0.5-0.2-0.4-0.6-0.3-1.1
			C-125.6,534.4-124.2,532.9-122.5,531.5z"/>
		<path class="st0" d="M-6.9,489c0-2.4,0-4.9,0-6.3C-7.1,484.2-4.6,486.5-6.9,489z"/>
		<path class="st0" d="M-7,503.1c-0.1-2.2,0-4.4-0.2-6.6C-5.3,498.5-6.6,500.8-7,503.1z"/>
		<path class="st0" d="M-210.5,493.4c0.7-2.4,1.3-4.8,2-7.2C-208.4,488.8-208.4,491.3-210.5,493.4z"/>
		<path class="st0" d="M-18.2,526.7c1.7,2.5,2.3,5.2,1.6,8.2C-16.8,532.1-17.2,529.4-18.2,526.7z"/>
		<path class="st0" d="M-143.7,476.7c1.6,2.4-0.3,4.6-0.3,7C-144.3,481.4-143.4,479.1-143.7,476.7z"/>
		<path class="st0" d="M-54.3,501.2c0.8-2,2.3-1.4,3.3-1.9c0.7-0.3,0.9,0.3,0.9,0.8c0.1,0.6-0.1,1.3-1,1.1
			C-52.1,500.9-53,500.5-54.3,501.2z"/>
		<path class="st0" d="M64.7,521.1c-0.9,2.8-1.8,5.6-2.7,8.5C62.8,526.6,62.7,523.5,64.7,521.1z"/>
		<path class="st0" d="M-202.6,481.2c0.2,2.9-0.8,5.4-2,7.8C-204.5,486.3-202.7,483.9-202.6,481.2z"/>
		<path class="st0" d="M-181.8,523.7c1.7,2.4,0.4,4.6-0.3,6.8C-181.6,528.3-181.8,526-181.8,523.7z"/>
		<path class="st0" d="M-208.2,515.7c-0.6,2.4,1.4,4.8,0,7.2C-209.1,517.5-209.1,517.5-208.2,515.7z"/>
		<path class="st0" d="M-152.4,523.6c0.2-2.3,0.5-4.4,0.7-6.5C-151.3,519.3-150,521.5-152.4,523.6z"/>
		<path class="st0" d="M-203.2,469.9c-0.1-0.3,0-0.6-0.2-0.8c-1-1.5-0.7-2.3,1.4-4C-202,466.8-202.7,468.3-203.2,469.9
			C-203.3,469.8-203.2,469.9-203.2,469.9z"/>
		<path class="st0" d="M-148.3,518.2c-0.5,2.2-1.2,4.3-1.1,7.2C-150.7,522.3-149.6,520.2-148.3,518.2z"/>
		<path class="st0" d="M-190.7,507.7c-0.2,2.4-0.3,4.7-0.5,7.8C-191.8,512.4-192,510-190.7,507.7z"/>
		<path class="st0" d="M-145.5,507.8c-0.6-1.7-1.5-3.5,1.1-5.2C-144.8,504.8-145.1,506.3-145.5,507.8z"/>
		<path class="st0" d="M113.2,525.7v0.1c-0.5,0.4-1,0.7-1.5,1.1l0.1,0.1c-0.2-1.8,0.9-3.4,0.7-5.2
			C112.6,523.2,113.9,524.2,113.2,525.7z"/>
		<path class="st0" d="M-207,499.5c0-2.5-0.2-5.1,1.6-7.9C-206,494.6-206.5,497.1-207,499.5z"/>
		<path class="st0" d="M-171.5,501.5c-1.6-2.3-0.4-3.9,0.6-5.6C-171.2,497.7-171.3,499.4-171.5,501.5z"/>
		<path class="st0" d="M86.6,518.6c0.5,2.3-0.4,4.4-1.2,6.5C84.7,522.7,87,520.9,86.6,518.6z"/>
		<path class="st0" d="M-15.7,527.8c1.9,1.9,1.7,3.6,1.3,5.3C-14.8,531.6-15.2,530.1-15.7,527.8z"/>
		<path class="st0" d="M-188.9,506.9c0.5,1.5,0.1,3-0.1,4.9C-190.3,509.8-189.2,508.3-188.9,506.9z"/>
		<path class="st0" d="M5.1,526.1c-0.4-1.9-0.7-3.8-0.1-6.1C5.2,522.3,6,524.2,5.1,526.1z"/>
		<path class="st0" d="M109.5,524.3c-0.5,1.7,0,3.5-0.5,5.5C108,526.6,108,526.6,109.5,524.3z"/>
		<path class="st0" d="M-191.7,497.2c0.3-1.8,0.6-3.6,0.9-5.4C-190.8,493.7-190.2,495.6-191.7,497.2z"/>
		<path class="st0" d="M92.8,514.2c-0.3-2.6,2.5-4.2,1.4-6.9C95.5,510.1,93.4,512,92.8,514.2z"/>
		<path class="st0" d="M-179.7,500.3c-0.4,2-0.6,3.4-0.9,5.3C-181.6,503.5-181.3,502.2-179.7,500.3z"/>
		<path class="st0" d="M90.8,472.5c-1.2-2-1.9-4.1-1.5-6.5C89.6,468.2,91.2,470,90.8,472.5L90.8,472.5z"/>
		<path class="st0" d="M40.2,312c-0.4-2.6,0-5.1,0.5-7.6C40.9,307,39.9,309.4,40.2,312z"/>
		<path class="st0" d="M-177.4,509.2c0-2.1,0.4-4,2.1-5.9C-175.6,505.7-176.5,507.4-177.4,509.2
			C-177.4,509.3-177.4,509.2-177.4,509.2z"/>
		<path class="st0" d="M-148.4,502.5c0.2,1.4,0.9,2.7,0.6,4.3C-148.9,505.4-149.5,504.1-148.4,502.5z"/>
		<path class="st0" d="M41.7,292.8c0.3,1.7-0.3,3.1-1.2,4.8C40.5,295.6,40.2,294,41.7,292.8z"/>
		<path class="st0" d="M-128.1,530.5c-0.3,2.2-2.4,3.5-2.9,5.5C-130.3,534-130.3,531.7-128.1,530.5L-128.1,530.5z"/>
		<path class="st0" d="M-102.2,435c-0.4,1-0.9,2-1.7,3.8c-0.5-3.1-2.3-4.2-4.3-5.2c-0.7-0.3-1.3-1.1-1-2.1c0.1-0.3,0.4-0.7,0.6-0.7
			c0.9,0,1.2,0.6,1.5,1.4c0.4,0.9,1.5,1.2,1.9,2.3c0.2,0.4,0.9,1.5,1.1-0.2c0-0.4,1.3,0.5,1.9,1C-102.1,435.2-102.2,435-102.2,435z"
			/>
		<path class="st0" d="M-57.8,440.7c-2.6,4.1-4.2,5.8-6,6.4c0.5-3.3,2.6-5.2,5.5-6.4C-58.1,440.7-58,440.7-57.8,440.7z"/>
		<path class="st0" d="M-53.7,440c-1.9,3-4.5,5.2-6.9,7.6c-0.2-0.2-0.3-0.3-0.5-0.5c2.2-2.4,4.4-4.8,6.6-7.2
			c0.3-0.3,0.6-0.1,0.9,0.2C-53.7,440.1-53.7,440-53.7,440z"/>
		<path class="st0" d="M-114.8,74.2c0.5-0.4,1-0.8,1.6-1.2c-0.7,1.3,1.1,3.2-1.1,4c-0.6-0.7-0.6-1.5-0.5-2.4
			C-114.8,74.5-114.8,74.4-114.8,74.2z"/>
		<path class="st0" d="M-120.1,334.9c-3.3,0.6-5.5,2.9-7.8,5.1c-0.5,0.4-0.8,1.4-1.4,1.1c-0.9-0.5-0.2-1.4,0.2-2
			c1.2-2.5,2.4-5,3.7-7.8c-1.4,0.4-1.4,1.6-2.5,2.2c0.6-2,1.2-3.9,1.1-5.9c-0.1-1.5,0.8-3.1,2.9-2.7c0.9,0.2,1.5-0.3,2.1-0.8
			c2.2-2.2,5.4-2.9,8-5c0.2,1-0.8,1.9,0.4,2.3c1.2,0.5,0.9-0.6,1.2-1c1-1.2,2.7-1.4,4-1.6c1.6-0.2,3.3,0.3,4.8-0.7
			c0.2-0.1,0.9,0.3,0.9,0.4c-0.9,3.9,1.6,0.9,2.1,0.9c2.7-0.2,5.1,1.3,7.6,1.8c1.5,0.3,3.6,0.1,4.3,2.3c0,0.1,0.4,0.2,0.4,0.2
			c1.8-1.6,3.7,1.1,5.6-0.2c0.6-0.4-0.4,1.2,0.4,1.6c2.8-1.6,3-1.9,3.8-4.5c-0.4,1.4,1.8,0.9,1.5,2.3c-0.3,1.3-0.7,2.7-0.7,4
			c0,1.5-0.3,2.6-1.2,3.8c-0.8,1.1-1,2.7-2,3.6c-1.2,1.1-1.2,2.3-0.9,3.5c0.3,1.5-0.2,2.7-1,3.9c-0.2,0.3-0.6,0.7-0.7,0.7
			c-3.1-1.1-3.5,2-4.9,3.3c-1.2,1.1-2.1,2.4-4.5,1.6c2.4-1.4,2.6-3.9,4.1-5.7c1.1-1.3,1.2-2.4-0.2-3.9c-1.9-2-4.4-2.9-6.7-4.4
			c0.6,1.4,0.5,1.5,1.7,2.2c1.1,0.6,2,1.3,2.5,2.5c0.2,0.5,0.9,1.1-0.2,1.4c-0.5,0.2-1.2,0.7-1.4-0.4c-0.1-0.4-0.2-1-0.8-0.8
			c-0.6,0.1-0.1,0.8-0.3,1.1c-0.4,0.7-0.8-0.2-1.3-0.1c-0.6,0.1-0.8-0.1-0.7-0.9c0.2-1.1,0.3-2.3-0.8-3.2c-2.4-2-2.5-2-3.9,0.7
			c-1,1.9-2.7,2.7-4.9,2.8c-2.3,0.1-3.8-0.9-4.7-2.9c-0.5-1.2-0.8-2.1-2.3-1.3c-1.3,0.7-2.1,1.4-0.4,2.9c-1.9-0.7-3.3-0.7-4.1,1
			c-0.6,1.4,1,1,1.6,1.6c-2.9,1.7-6.8-0.3-9.1,2.9c0.2-1.1,1.4-1.7,0.4-2.9c-0.5-0.7,0.3-1,1-0.9c1.5,0.2,2-1,2.9-1.8
			C-122.2,336.3-120,335.5-120.1,334.9c0.1-0.1,0.3-0.1,0.4-0.1c6.3-1.7,11.8-5.7,18.8-5.9c-2.9-1.9-5.4-2.3-9.3-1
			c-1.6,0.5-3.6-0.1-4.7,1.5c-1,1.5-2.5,2.2-4.1,3C-119.9,332.9-121.3,333.3-120.1,334.9z M-108.3,325.9c-0.6-0.9-1.1-0.7-1.6-0.6
			c-2.2,0.3-2.1,0.3-2.6-1.5c-0.1-0.5-0.8-0.5-1.3-0.3c-1.3,0.5-2.1,1.6-3.2,2.3C-114.1,329-111.4,326.1-108.3,325.9z"/>
		<path class="st0" d="M-66.6,319.6c-0.4,1.1-0.7,2-0.9,2.9c-0.1,0.5-0.4,1.3,0.6,1.3c0.6,0,1.2,0.3,1.5-0.6c0.9-2.4,2.9-2.9,5.2-3
			c2.4-0.1,4.8-0.6,7.2-1.4c1.3-0.4,2.9,0.2,4.5,0.3c2.4,0.1,4.6-0.2,6.9-0.4c2.6-0.2,5.3,2.1,8,3.3c-1.5,1.4,0.9,1.6,0.7,3.1
			c-2.3-2.2-5.2-0.7-7.8-1.7c1.9,1.4-0.1,4.2,2.4,5.5c-4.3-1.4-8.4-3.5-13.5-1.3c2.5,1.5,4.8,1.1,6.9,1.8c2,0.7,3.9,1.5,5.6,2.6
			c1.5,1,3,1.9,5,1.4c-0.2,1.1-1.6,0.4-1.3,1.4c0.1,0.4,0.9,0.8,1.4,1c1.1,0.4,2.3,0.6,3.8,0.9c-2.3,0.8-2.3,0.8-1.2,2.3
			c-3.4-0.6-6-5-10.4-1.8c1.5-1.7,2.2-3-0.5-3.6c-0.8-0.2-1,0-1.4,0.6c-2,3.4-3.3,3.9-6.6,3.2c-3-0.6-4-2.6-3.8-5.8
			c-1.9,1.4-3.1,2.8-2.6,5.4c-1.5-1.3-3.1-3-3.6,0.4c0,0.2-0.9,0.5-1.4,0.2c-0.6-0.5-0.1-0.9,0.1-1.3c0.7-1.1,1.7-1.9,2.7-2.7
			c0.7-0.6,1.4-1.2,1.6-2.4c-2.2,0-3.6,1.3-5,2.7c-1,1-1.8,2.1-2.8,3s-2.2,1.1-3.3,0.2c-1.2-0.9-0.5-2,0-3c0.3-0.5,0.9-1,1-1.5
			c0.1-1,0.7-2.1-0.3-3.1c-1.2-1.1-1.3,1.1-2.3,0.7c-0.4-0.7,0-1.3,0.3-1.7c1.3-1.9,1.6-4,1.3-6.3
			C-69.1,320.5-68.9,320.4-66.6,319.6z"/>
		<path class="st0" d="M-85.9,393c-2,0.4-4.5-0.4-5.6,2.7c-0.1-0.2-0.3-0.4-0.4-0.6c0-1.9,0-3.8,0-5.8c-1.6,0.7-2.3,2.4-3.6,3.6
			c-0.5-1.8,0.4-3.3-0.4-4.9c-0.7-1.4,1.7-2.9,3.5-2.2c0.5,0.2,1,0.5,1.7,0.7c-0.6-3.1-1.1-3.3-5.3-2.3c-0.5-1.1,2.5-3.5-1.3-3.4
			c-0.2,0-0.6-1.4,0.3-2c1.7-1.2,1.9-3.1,2.2-5.2c-0.7,0.6-1.2,1-2,1.8c0.2-2,0.8-3.3,2.2-3.9c1.6-0.7,1.2-2.3,1.8-3.5
			c1-0.2,0,3.8,2.3,1c-0.7,1.4-1.4,2.8-2.2,4.2c-0.8,1.5-0.7,3-0.4,4.5c0.2,1,0.7,2,2,2c2,0,4.1,0,6.2,0c0.3-1.4-1.8-1.1-1.8-2.7
			c2.4-0.4,4,0.7,5.3,2.6c-0.8-0.3-1.6-0.4-2,0.5c-0.3,0.8,0.4,1.4,1.1,1.8c1.8,1,3.7,2,6.3,1.5c-1.3-0.7-1.5-2.4-2.7-2.2
			c-1.6,0.3-2.1-0.7-2.7-1.7c3.1,0.1,5.9,2,9,1.3c2.8,2.9,4.1-0.5,5.8-1.5c2.3-1.2,4.9-0.5,7.4-2.3c-0.8,2.5-2.7,3.6-4,4.3
			c-1.9,1-2.5,2.4-3.2,4c-0.3,0.8-0.5,1.9-1.6,0.5c-0.8-1-2.8,0.8-3.3-1.2c-0.3,0.2-0.7,0.2-0.8,0.5c-0.4,0.6-0.6,1.8-0.2,1.9
			c1.7,0.6,0.3,1.3,0.2,1.9c-0.1,0.9-2.1,1.9,0.3,2.7c0.6,0.2,0,1.6-0.8,1.8c-1.4,0.3-2.3,1.4-3.5,2.1c2.5-2.7-0.3-4.9-0.4-7.4
			c-3.2,1.6-0.4,4.9-2.1,6.8c-1.1-0.4,0.1-1.2-0.6-1.6c-0.5,1.7-2.4,0.7-3.6,1.5c0,0-0.5-0.3-0.5-0.4c0.6-2-1.1-1.4-2-1.8
			C-85.5,392.9-85.7,393-85.9,393z"/>
		<path class="st0" d="M-109.8,419.7c1.2-1.9,1.3-5,0.1-7c-0.7,0.4-0.2,1.3-0.6,1.8c-1.1-0.2-0.5-1.2-1.1-1.9c0.1,1.5-0.2,2.8-0.8,4
			c-0.8-1.8-2.6-3.2-1.6-5.6c0.2-0.4,0-1,0.7-1c2.1-0.2,3.2-2.1,3.7-3.6c0.6-1.9,1.9-3.3,3.2-4.4c1.7-1.5,2-3,1.3-5
			c-0.1-0.3-0.1-0.7,0.4-1c1.1,1.1,0.3,3.1,1.6,4.1c0.8-0.2-0.2-1.1,0.4-1.2c2.1-0.6,4.2-1,4.5-3.7c0-0.2,1-0.3,1.3,0.2
			c0.5,0.8,0.6,1.5,0,2.4c-0.3,0.4-1.5,0.3-0.6,1.5c0.7,1,0.6,2.1,2.5,1.8c3.9-0.6,7.9-0.7,11.7-1.8c1.5-0.4,2.9,0,4.2,0.8
			c1.6,1,2.8,1.1,4.5-0.4c3-2.6,6.8-1.5,10.4-1.3c1.8,0.1,3.6,0.4,5.4,0.5c4.4,0.2,5.7-0.6,7.1-4.5c2,0.9,3.1,2.6,3.8,4.6
			c0.2,0.6,0.5,1.1,1.2,1.3c1.1,0.4,1.4,1.1,1,2.2c-0.4,1.2,0.5,2.1,0.7,3.2c0.1,0.6,0.7,1.4-0.2,1.7c-0.8,0.2-1.3-0.6-1.4-1.3
			c-0.2-2-1.3-3.4-2.8-4.7c-2.6-2.3-6.2-2.4-9-0.1c-0.5,0.4-1.2,2.1-1.9-0.2c-0.2-0.7-2.6-0.7-4.1-0.6c-2.8,0.2-5.3,1.4-7.8,2.5
			c-3,1.4-5.9,1.5-9,0.6c-2.1-0.6-4.4-1-6.6-1.2c-1.2-0.1-3.1-1.6-3.9,1.1c-0.1,0.4-2.7,0.7-4-0.2c-3.4-2.4-6.4-0.2-9.1,1.2
			c-0.7,0.4-2,1.6-2.4,3c-0.2,0.7-0.2,2.5-1.9,0.9c-0.4-0.3-1.1,1.1-2.1,1.9c2.3,0.4,2.5,1.8,2.4,3.5c-0.1,1.5,0,3.1,0,4.6
			C-108.4,419.6-108.7,420.2-109.8,419.7L-109.8,419.7z"/>
		<path class="st0" d="M-61.9,407.3c-0.2,2.2-1.3,2.7-2.4,3.2c-1,0.5-2,0.9-2.8,1.8c-0.3,0.4-0.8,0.8-0.5,1.3s0.7,1.2,1.4,1
			c3.3-1,4.2,1.7,5.8,3.4c-4.3-0.6-8.5-1.3-12.8-1.7c-5.8-0.5-11.2,1.4-16.7,2.7c-0.9,0.2-1.4,0.3-1.8-0.6c-0.5-1,0.4-0.8,0.8-1
			c0.4-0.1,0.7-0.3,0.5-0.7c-0.2-0.5-0.7-0.6-1.1-0.3c-0.6,0.4-1.1,0.8-1.6,1.2c-0.6,0.4-1.1,1.3-1.2-0.4c-0.1-1.3-1.8-0.1-2.5-0.8
			c0.2-0.7,0.7-0.9,1.3-0.9c0.5,0,1,0,1.5,0c1.4,0,1.9-1.1,2.4-2c0.2-0.4,0-0.7-0.4-0.8c-1.3-0.3-1.5,1-2.2,1.8
			c1.3-3.3-2.5-4.3-2.7-6.6c2.5-0.7,4.2,2.1,6.8,1.3c0.2-0.1,0.5,0,0.8,0.1c5.3,3,11,1.1,16.5,1.3
			C-69.2,410.8-65.2,410.4-61.9,407.3z"/>
		<path class="st0" d="M-129.7,372.9c0.2,0.4,0.4,0.7,0.8,1.4c0.7-2.8-0.3-5.6,1.2-8.3c0.6,2.4,1.7,4.2,0,6.3c-0.5,0.6,0.1,2,0.1,3
			c0.9-0.2,0.4-1.3,1.4-1.4c0.7,1.9-1.2,3.7-0.1,6c0.3-1.2,0.6-2.1,1.1-3.7c0.2,2.1,0.3,3.5,0.5,4.9c2.2-2.4,1.2-5.8,2.8-8.3
			c0.5,4.3-1.1,8.7-0.1,13.1c0.3,1.1-1.1,1.6-2.3,0.4c-0.8,3.6,3,6.9,0.5,10.1c-3.2-4.3-2.1-10.1-4.6-14.8c-0.5-1,0.1-2.4-0.8-3.6
			c-1.1,1.4,0.1,2.7-0.2,4.3C-131.1,379.1-128.9,376-129.7,372.9z"/>
		<path class="st0" d="M-48.2,379.5c-0.9,0.6-0.5-2.6-2-0.5c-0.3,0.5-0.7-0.5-0.8-0.9c-1.1-3.2-3.8-5.2-5.7-7.8
			c-0.3-0.5-0.8-1.2-1.4-0.9c-0.9,0.4,0.1,1.2-0.4,2c-0.8-1.2-1.8-2.3-2.1-3.7c-0.1-0.5-0.8-1.1-0.1-1.6c0.6-0.4,1.2,0.1,1.6,0.5
			c2.5,2.6,5.2,5,7.5,7.7C-50.2,375.9-48.2,377-48.2,379.5z"/>
		<path class="st0" d="M-126.7,402.8c-0.1-2.3-2.9-3.2-2.7-5.8c0.1-1.5-0.2-3.2-0.7-4.7c1.3,0.6,1.2,1.8,1.3,3.5
			c0.6-2.4,0.2-4.4,2-6.7c-0.1,2.8-1.4,4.9-0.4,7c0.6-0.4,0.4-1.5,1.5-1.8C-125,397.3-128,399.9-126.7,402.8L-126.7,402.8z"/>
		<path class="st0" d="M-61.7,402.9c-2.5,3.4-6.2,4.7-10.1,5.7C-68.4,406.9-65.9,403.5-61.7,402.9z"/>
		<path class="st0" d="M-87.2,371.8c-0.7-1-0.5-2.3-2-2.9c-1-0.4-0.6-1.4-0.1-1.9c0.9-1,1.4-2.6,3.1-2.6c0.7,0,0.5,0.6,0.3,0.9
			C-86.7,367.4-87.4,369.4-87.2,371.8z"/>
		<path class="st0" d="M-85.9,393c0.2,0,0.4,0,0.6-0.1c1.2,0.5,1.3,1.5,1.1,2.5c-0.3,1.3-1.1,0.6-1.8,0.5c-1-0.2-0.8,1.1-1.7,1.5
			C-87.5,395.6-88.6,393.6-85.9,393z"/>
		<path class="st0" d="M-78.3,408.5c-2.4,2.5-4.1,2.2-5.9-0.7C-82.2,407.6-80.6,408.7-78.3,408.5z"/>
		<path class="st0" d="M-103.3,345.1c-2.7,1.9-5.8,0.6-8.8,0.7C-109.3,344.4-106.2,345.7-103.3,345.1z"/>
		<path class="st0" d="M-133.8,378.6c0.1-2.9,2.5-5.5,0.8-8.6C-131.7,372.8-132,375.9-133.8,378.6z"/>
		<path class="st0" d="M-30.8,329.3c0.6-0.4,0.9,0.2,1.4,0.4c1.4,0.6,1.7,1.8,2,3.1c0.1,0.4-0.3,0.7-0.6,0.6
			c-1.1-0.4-1.7-1.3-2.1-2.4C-30.3,330.3-31,330-30.8,329.3z"/>
		<path class="st0" d="M-32.7,326.2c1.4,0.3,2.5,0.6,3.6,0.7c0.7,0.1,1.2,0.1,1.4,0.8c0.1,0.4,0,0.7-0.3,0.8
			c-0.7,0.2-1.6,0.4-1.9-0.1C-30.5,327.3-31.8,327.3-32.7,326.2z"/>
		<path class="st0" d="M-121.8,398.2c0.7,1,2.1,1.4,1.8,2.9c-0.1,0.6-0.4,1.2-1.1,1.2c-0.9,0-0.7-0.7-0.7-1.3
			C-121.8,400.1-121.8,399.2-121.8,398.2z"/>
		<path class="st0" d="M-31.2,388.5c0,2.3,0,4.5,0,6.8c-0.1,0-0.2,0-0.2,0c0-2.3,0-4.5,0-6.8C-31.4,388.5-31.3,388.5-31.2,388.5z"/>
		<path class="st0" d="M-115.2,344.5c-0.5,0.4-0.7,1.5-0.9,1.1c-0.3-0.9-1.9-0.3-1.6-1.6c0.1-0.7,0.5-1.2,1.1-1.1
			C-115.7,343.1-115.7,344.1-115.2,344.5z"/>
		<path class="st0" d="M-140,247.1c-0.1-0.1,0.8-0.7-0.1-1.1c-0.8,2.1-1,4.6-3.2,6.3c0.2-2.7,0.1-5.3,2.3-6.9
			c2.2-1.6,4.7-2.8,7.5-4.4C-135.9,243.3-135.6,247.4-140,247.1z"/>
		<path class="st0" d="M-133.6,235.5c-6.2-0.3-8.8,5-12.9,8.4C-145.6,239.1-140.3,234.2-133.6,235.5z"/>
		<path class="st0" d="M-156.6,251.3c-0.9,4.4-3.5,8.1-5.7,11.9c-0.2-0.1-0.5-0.2-0.7-0.3c1.9-4,3.8-7.9,5.7-11.9
			C-157.1,251-156.9,251.1-156.6,251.3z"/>
		<path class="st0" d="M-155.6,246.1c-0.7-0.5-1,0.7-1.6,0.3c1.3-1.4,2.6-2.8,3.9-4.1c0.3-0.3,0.8-0.9,1.3-0.5s0.1,0.9-0.1,1.3
			c-1,2-3.3,3.3-3.2,5.9c0,0.3-0.6,1-0.8,0.5s-1.5-0.6-0.8-1.5C-156.5,247.3-156.1,246.7-155.6,246.1z"/>
		<path class="st0" d="M-152.2,295.3c-1.5-3,0-4.9,1.4-7.1C-150.1,292.5-150.1,292.5-152.2,295.3z"/>
		<path class="st0" d="M-173.6,292.5c1.5,3.2,0.5,5.9-1.5,8.4C-174.3,298.1-174.6,295.2-173.6,292.5z"/>
		<path class="st0" d="M-206.2,429.8c-0.1,3.1,1.5,5.6,1.1,8.3C-206.2,436.8-206.8,432.9-206.2,429.8z"/>
		<path class="st0" d="M-208.2,448c-2.1-1.4-2.3-3.5-2.2-5.7C-209.7,444.2-208.9,446.1-208.2,448z"/>
		<path class="st0" d="M-211.1,458.5c-2-0.9-2.1-3.3-3.8-4.4C-212.7,454.7-212,456.7-211.1,458.5z"/>
		<path class="st0" d="M-69.6,119c1.2,0.8,2.2-0.4,3.2-0.6c3-0.6,5.8,0,8.7,0.1c3.9,0.2,6.2,2.5,9,4.3c2,1.3,2.8,3.8,5.2,4.8
			c0.8,0.3,0.9,1.7,0.3,2.3c-0.7,0.7-1.8,1.8-2.9,1c-1.4-1.1-2.6-1-4.1-0.5c-1,0.3-1.6,0.5-1.6-1.2c0-1-1.4-1.9-2.8-2.6
			c-0.5,2.5-0.6,5.1-3.6,6c-3.9,1.1-6.7-0.7-6.9-4.8c0-0.6,0.3-1.4-0.6-1.4c-0.9,0-1,0.8-1.1,1.5c-0.2,1.5,0.3,3.1-1.3,4.4
			c5.7,2.6,11,1.8,16.3-0.3c0.6-0.3,1.4-1.4,2.1,0.1c0.7,1.7-0.7,1.4-1.4,1.7c-2.4,1.1-4.8,2-7.3,3.1c0.2,0.5,1.4,0.1,1.1,0.6
			c-0.3,0.6,0.5,1.8-1.3,2c-3.7,0.3-6.9-0.6-9.9-2.7c-0.9-0.7-1.7-0.4-2.4,0c-2.2,1.2-2.8-0.4-3.5-1.8c0.8,0.1,1.3,0.7,2.3,0.5
			c1.3-0.3,1.5-1.2,1.6-2c0.1-0.9-0.9-1-1.5-0.9c-2,0.2-1.9-1.7-2.4-2.6c-0.5-1-0.3-2.3,0.8-3.2c1.4-1.1,3.1-2.1,3.3-4.6
			c-1.8,0.6-2.6,1.9-3.8,3c-0.6,0.6-0.8,1.8-1.8,1.4c-1.1-0.4-0.1-1.4-0.3-2c-0.8-2.8,0.8-3.7,3-4.3
			C-71.8,119.9-70.6,119.5-69.6,119L-69.6,119z"/>
		<path class="st0" d="M-69.5,119.1c-0.2-0.6,0.9-2.1-1.3-1.2s-4.8,0.9-7.3,1.3c0.1-3.3,0.7-3.8,3.8-4.3c1.6-0.3,3.1-1.3,4.7-1.8
			c3.3-1.1,6.8-1.7,10.1-3c6.8-2.7,12.3,0.5,17.7,4.2c0.4,0.3,0.6,0.8,1.2,1.5c-1.7-0.6-2.1-2.3-3.5-2.5c-3.9-0.6-7.7-1.5-11.7,0.7
			c-2.8,1.5-5.8,3.2-9.3,3.1C-66.9,117.1-68.4,117.7-69.5,119.1C-69.6,119-69.5,119.1-69.5,119.1z"/>
		<path class="st0" d="M-44,159.5c0.6,1.6,0.3,2.2,0.2,2.9c-0.1,0.4-0.3,1.1,0.7,0.9c1.8-0.4,1.9,1.2,1.5,1.9
			c-0.7,1.2-1.1,2.5-1.6,3.9c-0.8-0.5,0-1.4-1-1.7c-0.1,0.1-0.3,0.2-0.4,0.4c-0.1,0.5-0.1,1-0.2,1.5c-0.2,0.7,0.5,2.2-0.7,2.1
			c-1.4-0.2-0.2-1.5-0.3-2.3c-0.5-2.2,1.8-4.3,0.1-6.6C-46.2,161.9-44.1,161.4-44,159.5z"/>
		<path class="st0" d="M-41.6,167.7c2.1,1.5,2.2,3,0.6,4.9c-0.2-1.1,0.9-2.2-0.4-3.2c-0.9,1.7-1.7,3.4-2.6,5.1
			c-0.2,0.5-0.5,1-1.1,0.8c-0.7-0.3-0.2-0.9,0-1.3C-43.9,171.9-42.4,170.1-41.6,167.7z"/>
		<path class="st0" d="M-88.3,195.8c2.3-1.5,4.9-1.6,7.6-1.5C-83.1,195.7-85.8,195.3-88.3,195.8C-88.4,195.7-88.3,195.8-88.3,195.8z
			"/>
		<path class="st0" d="M-73.5,161.5c-0.2-0.5-0.4-0.8-0.4-1.2c0-0.8-1.4-1.3-0.3-2.1c0.3-0.2,0.9-0.1,1,0.5
			C-72.9,159.5-71.8,160.5-73.5,161.5z"/>
		<path class="st0" d="M-106.4,184.4c-0.6-2.2-0.4-3.6,1.5-4.1c0.5-0.1,1-1.5,1.6-0.4c0.3,0.7-0.7,1.1-1.2,1.3
			C-106.1,181.6-106.6,182.5-106.4,184.4z"/>
		<path class="st0" d="M48.1,512.8c0.3-1.1,0.4-2.2,0.8-3.2c0.7-2.1-0.5-3.5-1.9-4.6s-2.6,0.3-3.6,1c-1,0.6-1.7,1.6-2.5,2.5
			c0.3-1.1,0.9-2.2,1.8-2.7c1.3-0.8,2.3-3.2,4.5-1.6c2.8,2,3.5,4.1,2.2,6.7C48.9,511.5,48.5,512.1,48.1,512.8z"/>
		<path class="st0" d="M20.1,502.8c1.3-3.3,3.7-3.9,7.2-1.7C24.4,500.5,21.9,500.5,20.1,502.8z"/>
		<path class="st0" d="M79.3,479.7c1.4,0.9,2.4,1.7,2.1,3.3c-0.1,0.3-0.3,0.7-0.7,0.4C79.3,482.5,79.7,481.1,79.3,479.7z"/>
		<path class="st0" d="M63.2,474.2c1.3,0.1,1.6,1.1,1.9,2c0.1,0.4,0.2,1.2-0.3,1.4c-1.1,0.3-0.7-0.6-0.7-1.1
			C63.9,475.6,62.7,475.2,63.2,474.2z"/>
		<path class="st0" d="M59.1,478.7c1.4-0.4,3.7,0,4.3,0.7c0.2,0.3,0.5,0.6,0.1,0.8c-0.2,0.1-0.7,0.1-0.9,0c-0.6-0.3-1.1-0.8-1.7-1.1
			C60.4,478.9,59.8,478.8,59.1,478.7z"/>
		<path class="st0" d="M-69.3,456.6c-0.2,0.7,1.6-0.8,0.8,0.7c-0.9,1.6-2.4,2.9-2.9,4.8c-0.2,0.7-0.7,0.5-1.2,0.3
			c-0.8-0.2-0.6-0.7-0.4-1.2c0.4-0.8,0.8-1.5,1-2.5c-2.1,2.2-3.7,5.4-7.8,5.1c2.1-1.4,3.9-2.7,5.7-3.9c-0.5-1-1.3,0.3-1.8-0.5
			C-74.3,457.1-71.5,457.5-69.3,456.6L-69.3,456.6z"/>
		<path class="st0" d="M-101.8,442.2c-0.8,0.1-1.5,0.1-2.4,0.2c1.2-2.3-2.1-3.1-1.5-5.3C-105,439.2-102.3,439.7-101.8,442.2z"/>
		<path class="st0" d="M-43.3,463.7c-1.3-2.1,0.7-2.9,1.5-4.2C-41.6,461.1-41.4,462.8-43.3,463.7z"/>
		<path class="st0" d="M-69.3,456.6c0-3,2.5-4.7,3.7-7.1C-66,452.4-68.2,454.2-69.3,456.6L-69.3,456.6z"/>
		<path class="st0" d="M-89.2,473.6c-1-1.5-2.1-2.9-3.3-4.7c3.2,0,1.7,3.7,4.1,4C-88.7,473.1-88.9,473.4-89.2,473.6z"/>
		<path class="st0" d="M-112.3,431c1.4,1.4,2.6,2.5,3.6,3.6c0.4,0.4,0.3,1-0.1,1.4c-0.1,0.2-0.4,0.4-0.6,0.4
			c-0.6-0.2-0.6-0.7-0.5-1.2C-109.7,433.4-111.9,433-112.3,431z"/>
		<path class="st0" d="M-38.2,427.8c-0.5,2-1.9,2.6-3.8,2.9C-41.2,428.9-39.5,428.6-38.2,427.8z"/>
		<path class="st0" d="M-61.2,477.5c-1.2-0.9-0.4-2.6-1.8-3.7C-60.4,474.5-60.4,474.5-61.2,477.5z"/>
		<path class="st0" d="M-216.1,362c-0.4-2.4-0.8-4.8-1.2-7.2C-216.4,357.2-215.3,359.4-216.1,362z"/>
		<path class="st0" d="M-221.8,290.7c0.8-1.6,1.6-3.2,2.5-5.2C-219.2,287.8-219.2,287.8-221.8,290.7z"/>
		<path class="st0" d="M-221.1,324.6c0,2.4,0,4.4,0,6.4C-222,328.4-222,328.4-221.1,324.6z"/>
		<path class="st0" d="M-218.1,348.4c-1.2-2.3-0.5-4,0-5.7C-217.8,344.4-217.6,346.1-218.1,348.4z"/>
		<path class="st0" d="M-146.7,431.8c1.2-1.9,0.1-3.8,0.2-6.5c0.9,2.1,0.9,3.8,1.1,5.4C-145.2,431.6-145.6,432.4-146.7,431.8
			L-146.7,431.8z"/>
		<path class="st0" d="M-222.7,420.7c0,1.8,0,3.7,0,5.8C-224.4,424.4-223.6,422.5-222.7,420.7z"/>
	</g>
</g>
</svg>
