<?xml version="1.0" encoding="utf-8"?>
<!-- Generator: Adobe Illustrator 19.1.1, SVG Export Plug-In . SVG Version: 6.00 Build 0)  -->
<svg version="1.1" id="Слой_1" xmlns="http://www.w3.org/2000/svg" xmlns:xlink="http://www.w3.org/1999/xlink" x="0px" y="0px"
	 viewBox="0 0 389.6 456.7" style="enable-background:new 0 0 389.6 456.7;" xml:space="preserve">
<g>
	<g>
		<path d="M389.6,364.6c-3.1-3.1-7.4-5-10-8.7c-0.7-1-1.4-1.9-1.8-3c-0.6-2-1.9-3.6-4.1-3.7c-1.7-0.1-2.8-1.1-3.3-2.2
			c-1.1-2.4-2.9-3-5.2-3.3c-1.3-0.2-1.4-1.1-1.5-2.1c-0.1-4.2-0.2-8.4-0.3-12.6c-0.1-10.4-1.2-20.6-8.2-29c-0.6-0.7-0.7-1.3-0.6-1.9
			c0-1.4-0.4-2-2-2.2c-1.8-0.3-2.9-1.6-3.4-3.7c-1.2-5.8-0.8-11.6-1.5-17.4c-0.8-6-3.3-11.1-9-14.1c-2.4-1.3-3.8-3.5-5.3-5.5
			c-1.3-1.8-2.4-3.2-4.9-2.9c-1.1,0.1-2.4-0.4-3.5-0.8c-1.8-0.8-3.9-1.6-0.9-3.6c1-0.7,0.9-1.5,0.5-2.5c-0.6-1.5-1.7-1.8-3.1-1.7
			c-6.3,0.5-12.4,2.2-18.4,3.9c-3.7,1-6.4,3.8-9.6,5.5c-2.8,1.5-6.3,2.3-9.5,3.1c-3.4,0.8-6.5,2.5-9.5,4c-3.3,1.7-7,2.9-10.1,4.7
			c-5.7,3.3-11.9,5.6-17.5,9c-4.2,2.6-8.5,4.9-13,6.9c-4.1,1.8-7.7,4.8-11.2,7.7c-4.3,3.6-9.8,3.6-14.7,5.5
			c-1.3,0.5-2.6,0.9-3.8,1.7c-8,5.3-16.7,8.9-25.6,12.1c-1.7,0.6-2.8-0.7-4.3-0.7c0-1.2,0.8-1.6,1.5-1.5c4.6,0.8,7.9-2.6,11.9-3.8
			c5.5-1.6,10-4.9,14.5-8.2c3.1-2.3,7-3.3,10.8-3.9c2.3-0.4,4-1.4,5.4-3.5c1.3-2.1,3.5-3.5,5.8-4.6c5.9-2.9,11-7.1,16.8-10.3
			c2.3-1.3,4.3-3.3,7.4-3.3c1.3,0,2.8-0.8,4.2-1.6c8.5-5,17.8-8.9,25.2-15.3c5-4.4,10.8-4.4,16.4-5.6c4-0.9,7.2-3.3,10.9-4.7
			c1.5-0.6,2.8-1.9,4.7-2.1c2.9-0.2,3-2.5,3.1-4.7c0.2-4.3-1.3-8.3-2.4-12.4c-1.8-7.1-4.3-14-5.6-21.2c-0.6-3.6,0.7-7.4,1.3-11.1
			c0.1-0.7,0.6-1.4-0.2-2.4c-0.9,1.7-1.8,3.2-2.4,4.8c-2.8,7.8-9.9,11.4-15.3,16.9c-7.3,7.4-15.4,6.6-24.1,5.1
			c-1-0.2-1.8-0.7-3.1,0.4c-1.6,1.3-2,0.9-1.8,2.9c-0.9-0.1-1.8-0.2-3-0.3c0.9-1.9,0.9-4,1.7-6c0.9-2.1,1.9-1.7,3.2-0.9
			c0.8,0.5,1.6,1.1,2.3,1.8c0.6,0.6,1.3,0.7,1.7,0.3c0.3-0.3,0-1.1-0.1-1.5c6.5,1.7,12.7,1.1,18.2-3.2c1-0.7,2.2-1.1,3.4-1.6
			c5.1-2,6.2-7,8.5-11.1c3.8-6.8,6.7-14.1,10.7-20.8c1.6-2.7,1.8-6.4,2.2-9.6c0.5-4.1,1.1-8.3,1.6-12.4c1.2-10.1-0.2-20-1.8-29.8
			c-0.2-1-0.5-1.9-0.5-2.9c-0.3-7.7-4.9-11.4-11.8-13.2c-0.2-0.1-0.4-0.1-0.6-0.2c-6.5-4.8-12.2-1.1-17.8,1.9
			c-1,0.5-1.9,0.9-3.1,0.5c3.4-3.9,8.2-5.1,12.8-6.4c4.8-1.5,9.2,1.6,13.9,2.5c-2.4-1.2-2.4-3.3-2.3-5.4c0.3-4.7-1.2-9.3-0.5-14
			c0.3-1.9-1.2-3.6-2.1-5.3c-5.9-10.5-11.7-21.1-18.1-31.4c-1.9-3.1-4.3-6.2-7.1-8.9c-2.3-2.3-4.8-3.9-7.7-5
			c-3.8-1.5-6.7-4.6-10-6.9c-2.2-1.4-4.5-0.6-6.6-1.7c-1.6-0.9-1.4-1.6-0.3-2.1c2.1-1,0.8-1.5-0.1-2.1c-0.8-0.6-3.9-2-5.3-1.9
			c-2,0.1-3.7-0.7-5.5-1.4c-1.1-0.4-2.4-1.2-3.4-0.6c-2.3,1.4-3.3,0.3-4.1-1.7c-0.1-0.2-0.2-0.6-0.2-0.6c-4.7,1.7-7.2-4.3-11.9-3.3
			c-1.2,0.2-0.9,1.6-2,1.4c-1.6-4.4-5-1.3-7.6-1.8c-0.3,0-0.6,0.7-1,0c-0.9-1.5-0.9-1.5-2.6-0.9c-0.5,0.2-1.5,0.5-1.5,0.4
			c-1-3-3.2-0.8-4.8-1.1C187.7,7.7,179,7,170.4,6.4c-8.9-0.7-17.9-1-26.9-1c-2.8,0-5.6,1.6-8.5,2C123.1,9,112.9,15,102,19.5
			c-7.6,3.1-14.7,7.3-21,12.6c-3.1,2.6-5.8,5.7-8.5,8.7C64.6,50,57.7,60,51.3,70.3c-2.5,4.1-4.1,8.3-5.7,12.8
			c-0.5,1.4-2.1,3.3-3.7,4.5c0.9,0.8,1.5,0.1,1.7-0.4c1.7-3.2,3.7-0.4,4.2,0.4c0.6,1.1,1.4,3.1-0.9,4.4c-1.8,1-0.6,2.9-0.1,4.1
			c0.7,1.5,1.5,0.4,2.5-0.3c2-1.4,4.5-1,7.3-2.1c-1.9,2.9-1.3,5.5-0.1,7.9c1.2,2.3,0.9,4.7,1.1,7.1c0.1,2.2-0.1,2.2,2.8,2
			c3.3-0.3,6.6-0.3,10,0.4c1.9,0.4,2.1,1,1.8,2.6c-0.2,1.1-1.1,2.9,1.2,2.7c1.4-0.1,3.7,1.1,3.7-1.7c0-1.2,1.2-3.7-1.9-3.2
			c-0.8,0.1-1.3-0.3-1.1-1.1c0.3-1,1.2-1.3,2.1-0.8c1.4,0.8,2.8,1.6,4,2.4c0.3,0.7-0.1,0.8-0.4,0.9c-1,0.2-2.3,0.6-1.9,1.7
			c0.4,1.1,1.9,0.7,2.9,0.8c1,0.1,1.5-0.3,1.5-1.5c0.1-6,1.7-11.7,4.1-17.2c0.3-0.8,1.5-1.9,0.1-2.5c-1.5-0.7-0.7,1.6-2.3,1.8
			c0.8-4.2,3.4-6.3,6.8-8.4c3.5-2.1,7.2-3.7,10.7-5.6c2.1-1.1,4.8-0.4,7.2-1.1c8.7-2.5,17.2-2.3,24.8,3.7c3.6,2.9,6,6.8,7.9,10.6
			c1.5,3,3.6,2.9,5.8,3.8c-3.3-0.2-4.2,1.2-3.3,4.1c0.4,1.3-0.8,2.8,0.3,4.1c0.5,0.6,1.8,1.7,2,1.2c1.5-4.4,2.2,0,3.1,0.3
			c2.1,0.8,4.1,2.1,5.6-0.8c0.1-0.2,0.7-0.4,0.7-0.4c1.3,2,3.2,1.1,5,1.5c1.7,0.3,2.9,3,3.3,5.1c0.1,0.5-0.4,2.8-2.4,1.5
			c-2.6-1.7-4.3-1.1-5.9,2c-0.9,1.8-0.9,1.8-2.4,2.8c-1-1.3,1.5-3.5-1.2-4.3c-1.6-0.5-3.2-0.3-4.7,0.5c-0.3,0.1-0.6,0.2-1,0.2
			c-2.4,0.1-5-0.2-5.2,3.3c-0.1,2.2-2,4.3-0.2,6.5c0.9,1.1,0,1.3-0.6,1.7c-1,0.6-2,1.1-3.1,1.7c0.7,1.2,1.6-0.3,2.5,0.5
			c-1,0.7-1.8,1.8-3.3,1.1c-0.4-0.2-0.6,0-0.7,0.3c-2.2,5-7.2,7.1-11.4,9.3c-3.9,2-8.7,3.4-13.2,2.5c-2.2-0.5-3.5,1.2-5.8,0.7
			c-11.7-2.3-18.5-9.1-21.7-19.3c-0.2-0.7-0.3-1.5-0.6-2.2c-1.8-3.3-1.6-4.6-6.1-2.8c-3.4,1.4-5.4-0.5-7.6-2.6
			c-4-3.7-9.6-4.1-13.1-1c-1.7,1.5-2.2,3.7-3.4,5.4c-3.4,5.1-7.1,9.8-11.5,14.1c-5,4.9-9.9,9.9-15.8,13.7c-2.7,1.8-4.3,5.1-7.4,6.5
			c-0.9,0.4-0.7,1.7-0.2,2.4c2.1,3.2-1.1,3.5-2.5,4.3c-2.3,1.4-2.9-0.7-3.8-2.4c-3.3-6.4-3.1-12.9-2.2-19.9
			c1.1-8.6,5.1-15.5,9.7-22.3c1-1.4,1.9-2.8,2.8-4.3c1.4-2.3,3-4.4,5.6-5.6c2.6-1.2,3.9-2.9,2.7-6c-0.9-2.1,1.1-3.4,1.9-5
			c3.3-6.5,8.3-11.7,12.3-17.7c2.6-3.9,3-8.7,5.5-12.7c2.3-3.6,4.1-7.6,5.9-11.5c1.9-4,5.2-6.8,7.9-10c6.3-7.4,13.8-13.7,21.5-19.8
			c6.4-5.1,13.5-9.1,20.8-12.8c6.6-3.3,13.5-6.1,21-6.9c9.6-1.1,19.1-3.4,28.8-3.4c8.2,0,16.4,0,24.6,1.5c5,0.9,10.3,1.4,15.5,1.5
			c3.2,0.1,6.4,0.4,9.5,1.1c6.9,1.7,14,2.8,21.1,3.5c3,0.3,5.9,1.7,8.9,2.6c6.9,2,13.6,4.4,20.3,7c3.4,1.3,7.3,2.5,10.8,3.7
			c3,1.1,7.1,2.8,8,7.2c1.2-0.2,0.2-1.1,0.6-1.4c5.7,3.3,10.5,8,14.5,13.1c5.2,6.6,9.4,13.9,12.7,21.7c4.5,10.5,8.6,21.2,10.3,32.6
			c1.3,8.7,2.3,17.5,3,26.3c0.3,4.1,0.6,8.1,1.2,12.2c1.3,9.1,0.9,18.3,1.5,27.5c0.6,8.5-0.6,16.8-1.7,25.1
			c-0.8,5.6-0.9,11.2-1,16.8c-0.1,3.3,0.5,6.5,1.2,9.7c1.6,6.6,2.2,13.3,2.7,20c0.1,2,0.7,2.8,2.8,3.1c3.3,0.5,6.5,0.8,9.8,0.2
			c4.2-0.7,5.4,0.8,5.6,5.3c0.2,6.7,2.1,12.8,6.8,17.6c4.7,4.9,6.2,11,7.6,17.2c1,4.6,2.2,8.9,5.5,12.5c1.1,1.1,1.5,2.8,1.4,4.5
			c0,3.1,1,5.8,2.7,8.5c1.8,2.7,2.3,5.8,3,9c1.5,7.3,2,14.9,4.8,22c1.2,3.1,1.8,6.4,1.9,9.7c0,0.7-0.2,3.7,2.3,1.4
			c0.6-0.6,1.2,0.1,1.7,0.5c3.5,3.4,7,6.8,10.5,10.2c1.1,1.1,1.2,1.4,0.6,3.8c-0.1,0.6,0.3,0.7,0.6,1
			C388,361.8,389.1,362.9,389.6,364.6z M40.9,122c2.3,0.2,4,1.2,5.5-0.5c0.3-0.4,0.3-1-0.1-1.1C44.6,120,43,120.4,40.9,122z"/>
		<path d="M105.8,325.5c0.5-0.9,2.9,1.5,2.5-1.4c-0.1-0.3,1.2-0.7,1.7-0.2c2,2.1,4.3,1.3,6.6,0.7c8.8-2.2,17.4-4.9,26-7.7
			c1.2-0.4,2.1-1.3,3-2c1.7-1.3,4.1-2.2,6.3-2.3c5.7-0.3,10.4-3.1,15.5-5.1c1.5-0.6,2.8-1.1,3.6,0.4c0.8,1.7-0.8,2.1-2,2.6
			c-0.2,0.1-0.4,0.3-0.6,0.3c-7.9,1-14.8,5.2-22.7,6.8c-6,1.2-11.8,4.1-17.7,6.1c-3,1-6,1.8-9.1,2.3c-4.3,0.6-8.2,2.5-12.1,4.3
			c-1.6,0.8-3.5,1.3-5.3,1.5c-4.9,0.5-9.1,2.4-13.2,4.9c-1.1,0.7-2.4,1.1-3.6,1.3c-5.8,0.7-10.7,3.8-16.2,5.3
			c-8.1,2.2-16.1,5.2-24.4,6.7c-8.5,1.6-15.9,6.1-24.5,7.2c-3.1,0.4-6.2,1.9-9.1,3.2c-2.8,1.2-3.4,6.9-0.9,8.6
			c4.2,2.7,7.4,6.6,11.6,9.1c3,1.8,6.3,3.5,9.6,4.9c4.5,1.9,10.2,1.7,13.1,6.9c0.7,1.2,2.3,2.1,3.7,2.6c2.5,0.7,4.7,1.9,6.7,3.6
			c3.2,2.6,7.2,3.9,10.5,6.2c2.8,1.9,6.1,2.5,9.3,3.4c1.2,0.3,2.4-0.2,3.3-1.1c1.2-1.2,2.5-1.1,3.9,0.1c-1.7,2.1-3.6,3.9-5.9,5.3
			c-2.2,1.3-4.3,2.9-6.3,4.6c-1.7,1.4-3.2,2.8-5.6,3.4c-3.1,0.8-4.4,4.2-6.2,6.6c-2.6,3.5-5.9,6.3-8.8,9.4c-1,1.1-2.7,1.4-4,2.3
			c-0.9,0.6-2.3,1.6-1.5,2.8c1,1.5,1.5-1.2,2.8-0.7c-0.9,1-0.9,2.8-2.8,2.3c-0.9-0.2-0.9,0.2-0.9,0.8c0.1,4.4-3,7.3-5.3,10.5
			c-1.1,1.6-1.4,3.8-3.4,4.9c-0.5-1.4,0.6-2.1,1-3c3-7.7,7.9-14.5,10-22.6c0.5-1.9,2.5-2.6,3.6-4c-0.3,2.3-3,3.4-2.6,6
			c1.7-2.4,4.3-4.4,4.1-7.9c0.4,0,1.1,0.2,1.2,0.1c1.9-3.2,5.2-5.1,7.4-8c0.6-0.9,0.2-1.1-0.4-1.5c-8.3-5.8-15.2-13.2-23-19.6
			c-2.4-2-5.4-3-7.9-4.7c-5.9-4.1-12.1-7.7-17.2-13c-3.4-3.5-5.9-7.7-9.2-11.3c-1.3-1.4,0.7-7.1,2.9-8.6c4.7-3.3,10-5.5,15.5-6.8
			c7.2-1.8,13.8-5,20.8-7.2c4.6-1.4,9-3,13.5-4.5c1.2-0.4,2.5-0.6,4-1.7c-2.5-1.3-4.7-2.6-7.1-3.6c-6.1-2.6-12-5.7-18.6-7
			c-2.7-0.5-5.4-1.3-7.4-2.9c-2.5-1.9-5.2-4.1-6.4-7.1c-4.1-10-5.2-20.2-1.9-30.8c3.7-11.9,5-24,3.1-36.5c-0.3-1.9-0.3-4,0.2-5.8
			c1-3.8-0.1-7.4-0.8-11.1c-1.4-6.7-0.5-13.4,3.5-18.9c3.1-4.4,2.6-9,2.7-13.6c0.2-5.2-0.5-10.4,0.5-15.5c0.6-2.9-0.5-5-2.8-6.7
			c-3.2-2.5-5.1-5.8-5.2-10c-0.1-2.4,0.4-3.2,3.5-3.3c3.1-0.1,2.5,1.1,2.4,2.8c2.4-0.1,1.7-1.6,1-3.5c2.6,2,5.3,2.9,8,3.5
			c0.9,0.2,1.4,0.9,1.9,1.7c0.9,1.4,0.8,1.4,2.2,0.6c1.1-0.6,1.4,0.8,2.2,0.9l3.2,3.4c1.3-0.7,3,1.3,4.1-0.8c0.4,1-0.9,1.5-0.1,2.4
			c0.2,0,0.6,0,0.7-0.2c1-0.9,1.6-2.3,3.4-2.1c0.8,0.1,1.9-0.5,1.8,1c-0.2,2,1.3,0.3,1.7,0.8c2.9-2.9,6.5-0.9,9.8-1.3
			c3.3-0.4,6.8,0.4,10.2,0.4c2.7,0,5,0.8,6.5,2.9c2.2,3.1,5.2,2.3,8,1.7c1-0.2,1.8-0.1,2.2,0.3c0.8,1-0.6,1.2-1,1.5
			c-2.8,1.7-5.6,4-8.6,4.6c-2.8,0.6-5.9-0.7-8.7-2.5c-3.8-2.3-7.4,0.9-11,1.8c-1,0.3-2.1,1-3.2,1.5c-1.8,0.8-4.2,0.9-4.7,3.5
			c-0.1,0.4-0.6,0.8-0.9,0.9c-4.3,1-5.5,5.6-9,7.3c-5.1,2.5-8.6,7.2-13.9,9.4c-1.2,0.5-2,1.5-1.8,2.7c0.1,0.4,1.5,0.7,2.7,0
			c1.3-0.8,2.3,2.2,4.1,1c0.4,2,3.1-0.3,3.5,1.7c1.9-0.8,3.4-0.9,2.8,1.9c0.5,0,1.1,0.2,1.5,0c0.9-0.4,1.8-0.7,2.8-0.3
			c0.2,0.1,0.3,0.2,0.5,0.4c-0.9,1.5-0.9,3.8-3.4,4.1c-0.8,0.1-0.8,0.9-0.5,1.6c0.5,0.9,0.5,1.9,0.4,2.9c-0.1,1.6-0.1,2.8,2.2,2.5
			c1-0.2,2.8,0,2.1,2.2c-0.4,1.2,0.7,1.1,1.4,1c1.9-0.2,3.6,0.3,5.4,1.4c-2.6,0-4.9,0.2-7.1-0.1c-1.5-0.2-2.7-0.3-3.8,1
			c-0.2,0.3-0.8,0.3-1.2,0.4c-5.8,0.7-5.7,0.8-10.8,4.8c-1.1,0.8-2.6,1.2-3.5,2.6c-0.6,1-0.4,1.8,0.2,2.7c0.5,0.9,1.2,0.5,1.9,0.4
			c2.3-0.2,4.6-1.3,6.7,1c0.5,0.5,2.1,0.6,2.8,0.1c2.4-1.7,3,1.3,4.7,1.7c0.8,0.2-0.2,1.6-1.1,2c-4,1.9-5.6,6-8.2,9.1
			c-0.3,0.3-0.6,1-0.2,1.1c2.8,0.6,1.4,2.9,1.6,4.3c0.2,1.4-0.5,2.5,1.7,3c1.6,0.3,0.2,2,0.4,3.1c0.8,3.9-1.7,7.3-2.3,11
			c-0.3,1.9-2.2,1.2-3.2,2.2c-2.1,2.1-2.8,4.1-0.7,6.4c0.6,0.6,1.4,0.9,1.5,2c0.3,3.3,3.2,3.4,5.4,4.2c0.4,0.1,1,0.3,0.7,0.5
			c-1.9,1.4,1,3.2-0.4,4.7c-0.6,0.6,0.1,1.7,0.8,2.3c0.4,0.4,1.2,0.5,1.3,0.8c1.1,3.5,3.9,4.9,6.9,6.2c1.6,0.6,0.4,2.1,0.9,3.5
			c1.3-1.5,2.5-2.6,0.2-4.3c1.8-0.3,2.2,0.7,2.9,1.8c0.9,1.4,2.1,3.6,4,2.1c3.2-2.5,6.8-1.1,10.1-2c0.8-0.2,1.7-0.2,2.6-0.3
			c0.8,1.1-1.8,1.7-0.6,2.7c0.9,0.8,1.4-0.3,2.1-0.9c0.4-0.4,1.1-0.2,1.5,0.2c0.5,0.5,0.2,1-0.2,1.4c-0.5,0.6-0.9,1.2-1.5,2.1
			c1.8,0.1,3.1-1.3,5.2-0.5c-2-2.3-1.5-2.2,0.9-3c4.3-1.3,9.3,0.6,12.9-3c0.5,1.4,2.6,0.9,3.1,2.5c-2.5,0.7-5.1,0.5-7.2,2.3
			c2.6-0.3,5.1,1.9,7.7-0.2c1.3-1,0.9,1.8,2.2,1.5l-0.1-0.1c-1.1,1.5-0.6,2.5,0.8,3.5c1.1,0.8,3.6-0.3,3.5,2.5
			c0,0.4,0.9,0.3,1.2-0.3c0.6-1.2,1.9-0.8,2.9-1.2c-0.2-1.5-1.8-1.1-2.4-2c0.8-0.5,1.6-1.1,2.5-1.4c1-0.3,1.9-0.6,1.1,1.2
			c-0.5,1.2,0.8,1.2,1.6,1.1c1.1-0.1,2.4-0.3,2,1.5c-0.6,2.3,0.4,2.9,2.6,2.3C107.8,323.5,105.6,323.6,105.8,325.5
			c-1.1-0.7-2.5,0-4-0.5c0.9-1,1.4-2,1.3-3.3c0-0.6,1.3-1.6,0-2c-1-0.3-2.2,0.7-2,1.9c0.4,1.6-0.3,1.8-1.6,1.8c-0.9,0-1.5,0.7-2,1.5
			c0.7,0.1,1.8,0.1,1.9,0.4c0.8,2.9,2.5,1.4,3.9,0.9C104.2,326.1,105,325.8,105.8,325.5z"/>
		<path d="M292.3,112.7c1.2-0.5,2.1-1,3.2-1.3c0.6-0.2,1.7-0.6,2,0.4c0.3,1-0.7,0.7-1.3,0.8c-0.6,0.1-0.6,0.6-0.1,0.9
			c0.6,0.4,1,1,2,0.8c4.2-1.1,4.4-0.7,6,3.7c0.8,2.3,1.3,4.6,1.8,6.9c0.4,2.2,1.1,4.2-0.3,6.5c-0.7,1.2-0.3,3.2-0.1,4.8
			c0.5,3.5,0.8,7.1,1.2,10.7c0.1,0.8,0.2,1.7-0.9,2.4c-0.5-3.9-0.6-7.8-1.4-11.5c-1.3-5.6-1.8-11.3-3.8-16.7
			c-1.3-3.4-4.6-4.9-7.6-3.2c-0.3,0.2-0.8,0.2-1.2,0.2c-3.7-0.1-5.2,1.3-5.7,5.3c-0.2,1.5-1.3,2.9-2.5,3.5c-1.3,0.7-2.7,1.4-3.7,2.5
			c-0.8,0.8-1.5,0.5-2.3-0.1c-0.7-0.5-1.6-1.3-2.2-1.2c-4.7,0.7-3.1-1.9-2.1-4c2.9-5.8,7.6-10.1,12.6-14c2.1-1.6,5-1,7.2-0.1
			C295,110.7,292.3,111.5,292.3,112.7z"/>
		<path d="M67.3,87.1c-1.3-1-3.2,0.6-3.6-1.5c-0.5-2.6,0.1-5.2,1.7-7.3c0.5-0.7,1.5-1.3,2.2-2c0.8-0.9,2.3-1.2,2.8,0.4
			c0.4,1.1,1.4,1.7,1.7,2.7c1.1,3.7,3.4,2.7,5.5,1.3c2.1-1.5,5.2-0.9,6.7-3.6c0.3-0.5,1.2-0.1,1.1,0.5c-0.3,2.9,2.1,1.8,3.6,2.4
			c-0.4,1.5-3.1,2.4-0.8,4.6c-1.3-0.5-2.2-1.6-3.1,0.1c-0.6,1.2-1.7,0.8-2.7,0.3c0.8,1.8-1.6,2.7-1.2,4.2c0.6,2.2,0.2,2.8-2,1.8
			c-0.5-0.2-1.3-0.1-1.6,0.7c-0.8,2-1.9,2.4-3.8,1.6c-0.4-0.2-1.5-0.3-1.3,0.1c1.2,2.8-2.5,3.4-2.3,5.7c0.1,1.1-1,1.4-1.7,1.6
			c-0.7,0.2-1.2-0.7-1.4-1.4c-0.8-2.5-1.3-5.1-2.3-7.6C63.9,89.9,64.5,87.8,67.3,87.1z"/>
		<path d="M287.9,191.5c0.5-2.3,0.2-4.3-1.3-6.1c-1.1-1.4-0.4-2,1-3.3c7.2-6.2,13.6-12.8,12.9-23.7c-0.3-4.4-1.8-7.9-3.6-11.6
			c0.9-0.7,1.3,1,2,0.4c0.6-0.6,0-1.4,0.1-2.1c0.5-4-3.3-7.1-2.1-11.2c0.2-0.8,0.2-2.3-1.6-2.6c-1.3-0.2-1-1.9-2-2.7
			c1.3-0.6,2.4,2.6,3.4,0c0.7,0.4,2.1,1,2,1.3c-0.6,2.1,2.5,3,1.8,4.8c-1.5,3.7,2.1,6.2,2,9.7c-0.1,4,1,7.9,0.6,11.9
			c-0.4,3.9-0.6,7.8-1.3,11.6c-0.5,2.8-0.8,5.6-3.5,7.6c-2.9,2.3-3.7,6.3-5.7,9.3C291.1,187.2,288.9,188.8,287.9,191.5z"/>
		<path d="M285.2,169.2c-0.4-1.5-1-3-1-4.5c0-2.6,0.4-5.1-3.3-5.3c-0.5,0-0.6-0.8-0.6-1.4c0-1-0.9-1.7-1.4-1.3
			c-2.9,2.9-5.8-0.9-8.7,0.2c-0.5,0.2-1.4,0.1-1.2-0.9c0.5-3,0.9-6.1,1.4-9.1c0.2-1.5,0.9-1.7,2.2-1c1.2,0.6,2.6,1.1,3.8,1.8
			c1.5,0.9,2.6,1.9,4.7,1.2c1.2-0.4,4-0.2,2.4,2.8c-0.8,1.5,1.8,1.5,1.3,2.8c1-0.1,2.7,0.3,3-0.2c1-1.6,2-0.5,2.7-0.1
			c0.9,0.6,0.6,1.6,0.2,2.6c-0.9,2.9-1.8,5.8-1.9,8.8c-0.1,1.1,0.4,2.1-1.6,1.3C285.8,166.1,286.9,168.9,285.2,169.2z"/>
		<path d="M286.8,268c-3.7,1.5-7.4,2.8-11,4.4c-4.2,1.8-8.6,3.4-11.5,7.3c-0.1,0.2-0.4,0.4-0.5,0.4c-3.3-0.7-4.3,3.8-7.4,3.5
			c-2-0.2-1.8,2.1-3.3,2.7c-6.2,2.6-12.2,5.4-18.4,8.1c-0.9,0.4-1.9,0.4-2.6,1.2c-0.6,0.7-1.4,0.8-1.8-0.2c-0.2-0.6,0-1.1,0.9-1.3
			c4.2-1.1,7-5.2,11.7-5.5c0.4,0,0.8-1.1,1.2-1.7c2.3-3.8,6.7-4.1,10.2-6c7.4-4.2,15.2-7.6,23.1-10.6
			C280.3,268.9,283.2,267.5,286.8,268z"/>
		<path d="M65,230.8c1.1-2.7,2.3-2.3,4.3-0.7c2.2,1.8,5.4,1.3,8.2,1.9c2.3,0.5,4.3,1.1,4.6,4c0.1,1.4,0.6,2.2-1.8,2.2
			c-5.1,0-10.1,0.1-14.9-1.9c-2.6-1.1-4.5-3.1-6.8-4.6c-0.8-0.5-0.5-0.7,0.6-1.2c1.2-0.5,1.9-1.5,1-2.8c-0.6-0.9-1.2-1.7-2.3-3.2
			C61.1,226.5,62.7,229,65,230.8z"/>
		<path d="M282.3,356.6c0.2-2.9,1.4-3.7,2.9-3.8c3-0.3,5.5-1.9,8-3.4c3.1-1.8,4.8-1.6,7.7,1.3c-1.1,0.7-3,0.6-2.7,2.5
			c0,0.2-0.2,0.4-0.3,0.5c-1.3,1.4-7,2.1-9,1.7C286.8,355.1,284.6,352.7,282.3,356.6z"/>
		<path d="M266.2,161.6c1.8-1.1,1,3,3.2,1.7c0.5-0.3,0,0.1-0.1,2.9c-0.1,5.5-5.6,4.5-7.8,7.3c-0.4,0.5-1.4,0.3-1.9-0.5
			c-0.5-0.9-1.1-1.8-0.2-2.7c1-1,2-1.9,3.2-2.7c1.6-1.1,3.1-2,2.2-4.4C264.7,162.8,264.6,161.4,266.2,161.6z"/>
		<path d="M302.3,351.2c2,0.4,4.1-0.2,5.9,1c0.2,0.2,0.7,0.4,0.9,0.3c4.2-2.5,8.7-1.1,13.1-1.3c1.5-0.1,1.5-0.1,5.3,2
			c-5.2,0.3-9.8-0.1-14.2,0.8c-2.8,0.6-5.8,0.6-8.6-0.6C303.5,352.9,302.4,352.8,302.3,351.2z"/>
		<path d="M115.8,67.6c-0.8,1.9-2.5,2.8-3.2,4.4c-0.4,0.9-1.1,0.9-1.9,0.6c-0.6-0.3-1-0.9-0.9-1.6c0.4-2.8,4.5-5.2,7-3.9
			c0.9,0.4,2.3,0.5,2,2c-0.1,0.7-0.8,1-1.5,1C115.8,70,116.3,68.6,115.8,67.6z"/>
		<path d="M121.5,65.1c1.6-1.2,3.4-1.3,5.3-1c0.6,0.1,1.2,0.2,0.9,0.9c-0.9,2.4-3.2,2.3-5.1,2.8c-1.5,0.4-2.2-0.4-1.9-2
			C121,65.6,121.3,65.3,121.5,65.1z"/>
		<path d="M350.6,345.9c-2.5,1.9-5.4,2.3-8.5,2.5c-0.3-2,3.1-1,2.4-3.2c-0.1-0.3,0.5-0.9,0.8-0.5c1.4,1.8,4.8-3.6,5.2,1.5
			C350.5,346.1,350.6,345.9,350.6,345.9z"/>
		<path d="M350.6,345.9c0,0-0.1,0.2-0.1,0.2c0.6-0.7,1.1-1.8,2.3-1.4c2.1,0.6,4-0.2,6-0.6C357.5,347.3,354.5,347.9,350.6,345.9z"/>
		<path d="M330.4,348.4c3.2-0.4,6.4-2.2,9.6,0C336.8,348.7,333.6,350.4,330.4,348.4z"/>
		<path d="M121.5,65.1c-0.3,0.3-0.6,0.5-0.8,0.8c-1.6,0.7-1.8,0.7-1.6-0.6c0.3-1.2-0.3-1.4-1.1-1.2c-0.9,0.2-1.8,0.6-2.9,0.9
			c1.2-1.7,1.2-1.7,7.6-1.9C123,64.2,122.2,64.6,121.5,65.1z"/>
		<path d="M91.1,80.2c-0.1-1.8,1.5-2.7,2.4-3.6c0.9-1-2.9-1.7,0.1-1.8c0.8,0,2,0.5,1.5,1.1c-1,1.1,1,3.2-1,3.4
			C93,79.4,92.5,80.3,91.1,80.2z"/>
		<path d="M275.4,179.3c-2.4,1.8-3.6,5.8-8.4,5C270.2,182.3,272.8,180.8,275.4,179.3z"/>
		<path d="M323.1,251.9c-2.3,2.3-5.2,3-8.4,3C317.5,253.9,320.3,252.9,323.1,251.9z"/>
		<path d="M90.6,85.3c0.1-1.6,0.8-2.7,1.7-3.5c0.4-0.4,0.8-1.7,1.7-0.8c0.7,0.7,0.3,1.5-0.3,2.3C92.9,84.3,91.3,84.1,90.6,85.3z"/>
		<path d="M44.6,215.8c-0.2-0.1-0.3-0.2-0.5-0.4c-0.8-0.3-1.5-0.8-1.9-1.6c-0.1-0.2,0-0.7,0.1-0.9c0.1-0.2,0.5-0.2,0.8-0.3
			c0,1.8,2.7,1,2.7,2.9c0,0.7,1.5,1.6,0.1,2C44.5,218.1,44.6,216.7,44.6,215.8z"/>
		<path d="M93,314.7c0.5-0.8,0.9-1.7,1.4-2.5c0.4-0.7,1.1-0.7,1.6-0.2c0.6,0.6,2,0.8,1.7,2.1c-0.2,0.8-1,0.5-1.6,0.5
			C95.1,314.5,94,314.6,93,314.7C92.9,314.6,93,314.7,93,314.7z"/>
		<path d="M276.6,357c-1.8,2-4,1.2-6.4,2.3C272.2,356.7,274.3,356.9,276.6,357z"/>
	</g>
</g>
</svg>
