<?xml version="1.0" encoding="utf-8"?>
<!-- Generator: Adobe Illustrator 19.1.1, SVG Export Plug-In . SVG Version: 6.00 Build 0)  -->
<svg version="1.1" id="Слой_1" xmlns="http://www.w3.org/2000/svg" xmlns:xlink="http://www.w3.org/1999/xlink" x="0px" y="0px"
	 viewBox="-269 1.2 419.7 558.8" style="enable-background:new -269 1.2 419.7 558.8;" xml:space="preserve">
<style type="text/css">
	.st0{fill:#074A6D;}
</style>
<g>
	<path class="st0" d="M41.6,409c-1.4,1.2-0.6,2.4,0.1,3.5c4.6,7.1,9.2,14.3,13.8,21.5c0.6,0.9,1.4,1.7,2.4,2.2
		c25.9,12.6,50.8,27.1,77.8,37.6c5.1,2,10.3,3.7,15.1,7.1c-2.2,1.3-4,0.9-5.8,0.3c-14.4-4.7-28.3-10.5-41.6-17.5
		c-13.7-7.2-27.6-13.8-40.9-21.6c-0.5-0.3-1.1-0.4-2.6-1c3.7,6.3,6.4,12,8.7,18c11.8,30.9,25.3,61.1,35.8,92.5c1,2.9,2.5,5.5,3,8.5
		c-0.2,0-0.5,0-0.7,0c-2.1-3.8-4.5-7.5-6.2-11.5c-8.9-21.6-17.4-43.3-26.8-64.7c-6.5-14.7-11.1-30.1-19.3-44
		c-1.4-2.4-1.9-2.7-3.7-0.3c-2.6,3.6-5.7,6.8-8.5,10.2c-0.2-0.2-0.4-0.4-0.7-0.6c2.4-3.1,4.5-6.4,7.2-9.1c3.2-3.2,2.7-5.9,0.3-9.1
		c-1.2-1.6-1.8-1.9-3-0.1c-2,2.9-4.1,5.7-6.2,8.6c-0.6,0.8-1.1,1.6-1.7,2.4s-1,1.8-2.8,2.2c3.5-6.3,8.2-11.2,10.2-17.6
		c-2.8,3.6-5.6,7.3-8.4,10.9c-0.2-0.2-0.4-0.3-0.7-0.5c2.6-3.9,5.2-7.7,8.3-12.2c-2.5,1.6-3.4,3.8-5.9,4.8c1.6-2.4,2.9-4.5,4.6-7
		c-2.2,1-2.5,3.1-4.6,3.4c0.5-2.2,2.6-3.6,2.6-5.9c-1.9,0.6-1.7,3.1-3.9,3.5c-0.1-2.3,2.4-3.4,2.3-5.6c-1.2,0.3-1.1,2.1-3.1,1.9
		c3.7-6-2.4-9.8-2.7-15c-0.6,4.4,0.7,8.5,0.9,12.7c0.4,14.5,0,28.9-3.8,43.1c-4.8,18-10,35.8-16.5,53.3c-3,8.1-5.5,16.4-10.1,23.8
		c-4.6,7.6-9.5,15-14,22.6c-1.2,0-2.4,0-3.7,0c0.6-2.9,2.5-5.2,4.1-7.6c6.9-10.5,13.4-21.2,17.4-33.2c1.9-5.6,3.8-11.3,6-17.6
		c-2.8,1.8-4.8,3.1-7,4.3c-17.2,9.7-36.2,12.8-55.4,14.3c-21.1,1.6-41.9-0.8-62.5-6c-11.3-2.9-22.9-5-32.4-12.5
		c-4.6-3.6-9.1-7.4-13.7-11.2c-0.4,19.5,2.5,42.2,8.9,69.4c-1,0-1.9,0-2.9,0c-4.3-14.6-7-29.6-8.6-44.7c-1.3-12.9-1.6-25.7-1.6-38.6
		c0-17.8,0.2-35.6,2.9-53.1c1.1-7.3,1.6-14.8,4.2-21.7c1.1-2.9,0.5-4.8-1.6-7c-2.1,6-4,11.6-6,17.2c-0.3,0.8-0.2,2-1.5,2.2
		c-5.4,0.8-7.6,5-10.3,8.9c2.5-1.9,4.8-4.1,7.2-6.2c0.6-0.6,1.7-1.1,2.3-0.3c0.7,0.9-0.3,1.4-1,1.9c-4.3,3.4-7.9,7.5-11.7,11.5
		c-0.9,0.9-0.8,0.9-1.3,3c4.8-4.8,9.3-9.7,15.1-13.1c-3,3.9-7.2,6.7-10.7,11.4c2.9-1.6,4.4-3.9,7.1-4.1
		c-6.6,6.2-13.2,12.4-18.7,19.7c5.9-5.3,11-11.4,18.1-15.2c-8.6,8.8-18.2,16.8-23.8,28c6.9-6.7,13.1-14.1,21.3-19.4
		c-2.1,2.5-4.3,4.8-6.5,7.1c-2.3,2.3-4.7,4.6-6.9,7c-2.3,2.5-4.7,5-6.8,7.6c-1.9,2.4-4.9,4.2-5.2,8.3c8.4-7.5,15-16.1,24-22.5
		c0.4,1.2-0.3,1.5-0.7,1.9c-8.3,7.8-16,16-23.8,24.2c-1.8,1.9-2.8,4-3.7,7.3c8.6-9.2,16.4-18,26.7-23.9
		c-7.8,6.4-14.7,13.7-21.7,20.9c-7.2,7.4-11.8,16.1-15.1,26.5c12.5-10.8,23.3-22.7,36.5-31.6c-12.4,11-24.1,22.7-36.1,34
		c-4.1,3.8-4.2,9-6.5,13.4c14.1-13.6,28.4-27,45-38.3c0.1,1.9-0.9,2.2-1.5,2.7c-13.5,9.7-25.8,20.7-37.5,32.5
		c-2.6,2.7-6.5,4.6-8.1,7.5c-6.1,11.3-11.4,23.1-16,35.1c-1,0-1.9,0-2.9,0c8.7-19.9,18.1-39.6,25.6-60.1c3.6-9.8,7.6-19.5,11.4-29.2
		c0.4-1.1,0.7-2.3,1.2-4.2c-8.2,3.1-16.5,3.8-23.8,7.8c5.2-1,10.4-2,16.3-3.2c-1.4,1.7-2.7,1.9-3.9,2.1c-6.8,1.4-13.4,4.3-20.5,3.9
		c-0.9,0-1.8,0.7-2.7,1c-10.5,4.7-21.1,9.5-31.6,14.2c-1.7,0.6-3.1,1.3-4.9,0.6c0.2-1.8,1.9-2,3.1-2.6c18.3-9.1,37.2-17,55.3-26.5
		c4.2-2.2,7.7-6.1,12.4-6.8c4.8-0.8,5.8-4,7.4-7.5c8.9-18.9,16.8-38.3,28.8-55.7c1.4-2,0.2-4.8-2.5-5.6c-0.5-0.2-1.3-0.2-1.5-0.7
		c-2.1-4.8-6.7-8.5-7.5-13.8c-0.6-3.8-2.5-7.1-2.4-11.1c0.1-4.3-3.6-8.4-6.5-9.4c-3.6-1.3-3.3-3.8-4-5.7c-2.4-6.1-2.8-12.6-3-19
		c-0.1-1.4,0.4-2.9-1.5-4.1c-1.6,7.3,2.1,14.4,0.9,21.7c-1.3-0.6-1.6-1.6-1.8-2.6c-2.4-10.9-6.5-21.8-2.3-33.1
		c1.3-3.5,0.3-5.5-3.1-7c-3.9-1.7-6.1-5.1-7.4-9c-4.2-13.1-5.2-26.6-5.1-40.3c0-0.8,0.1-1.7,0.1-2.5c0-0.6-0.2-1.2-0.3-2.1
		c-2.2,1.5-4.3,2.5-7,2.5c0.7-2,3-1.6,3.9-3.3c-1.5-0.6-3.2,1-5.1-0.4c2.9-1.1,5.8-2,5.9-5.6c-1-0.5-1.5,0.7-2.3,0.8
		c-0.6,0.1-1.3,0.2-1.7-0.4c-0.4-0.6,0-1.1,0.4-1.6c1.4-1.6,1.5-2.9-0.8-3.9c-1.3-0.6-1.5-2.1-1.9-3.4c-2.3-7.2-1.7-14.4,0.5-21.6
		c0.6-1.8,1.6-3.5-0.6-5.1c-1-0.8-0.8-2.5-1-3.8c-0.2-1.1,1-3-2-2.5c-1.4,0.2-1.4-2-0.7-3.2c1.4-2.2,2.8-4.3,4.5-6.2
		c1.6-1.9,1.8-3.8,1-6.1c-3.8-10.2-3.2-20,2.4-29.4c0.6-1,0.5-2.3,0.7-3.5c0.3-1.8,0.5-3.6,2.1-4.9c1-0.8,1.3-2.1,1.3-3.3
		c-0.3-6.1,1.8-11.7,2.9-17.6c0.5-2.3,0.9-4.2-1.8-5.5c-1.2-0.6-0.9-2.2-1.5-3.2c-1.2,0-2,2-3.2,0.7c-0.9-0.9-0.7-2.3-0.4-3.5
		c1.5-7.3,4.8-14,7.7-20.8c4.5-10.6,9.6-20.8,16.7-29.8c0.4-0.5,0.7-1,0.2-1.9c-4.6,4.6-8,10-11.2,15.5s-6.2,11.1-8.1,17.1
		c-0.6,1.9-1.8,3.4-3.5,2.8c-1.6-0.5-0.7-2.7-0.2-3.9C-208,82.7-202,71.4-193.1,62c7.9-8.3,16.5-16.2,25.3-23.6
		c5-4.2,10.9-7.3,16.8-10.2c12.7-6.3,25.5-12.4,38.4-18.3c7.7-3.5,16.2-3,24.4-3.7c10.4-1,20.8-1.4,31.3-0.2
		c0.6,0.1,1.2,0.1,1.8,0.2c4,0.7,7.7,2.2,12,0.8c2.3-0.8,5,0.3,7.5,1c21.3,5.8,35.2,18.9,40.4,40.6c0.5,2.1,0.7,2.8,3.2,2
		c18.5-5.6,36-4.1,52.2,7.1c5.8,4,12.4,6.6,17.7,11.5c13,12.1,20.8,26.5,19.7,44.8c-0.1,2.4-0.4,4.8-1.9,6.9
		C98.4,98,88.8,81,70.9,67.8c4.2,6.8,7.6,14,9.4,21.9c-1.4-2.7-2.8-5.4-4.2-8.1c-6.9-13.5-16.7-23.9-31.5-28.7
		c-9.3-3-18.9-2.9-28.6-1.3c-2.5,0.4-5,1.1-7.6,1.1c-1,0-2.4-0.5-2.7,1.1c-0.1,0.7-0.1,1.8,0.3,2c1,0.7,2.1,0.9,3.4,0.3
		c4.7-2.2,9.8-2.6,14.9-3c16.2-1.3,29.4,4.4,39.1,17.4c3.4,4.5,7.7,8.1,10.9,12.7c3.4,4.8,6,9.9,6.5,15.7c0.6,7.4,2.8,13.8,7.5,19.7
		c4.5,5.5,8.3,11.6,11.7,18c1.4,2.7,3.9,4.9,3.1,8.4c0,0.1,0,0.3,0,0.4c5.7,3.6,0.5,8.1,0.9,12.2c0.4,3.5-0.9,7.3-0.5,10.8
		c0.8,8.3,0.2,16.5-1.1,24.6c-0.9,5.9-0.3,11.8-0.7,17.7c-0.1,1.1,0,2.2-0.9,3c-3.4,2.8-2.4,6.1-1,9.3c2.2,4.8,2.9,9.7,2.1,15.3
		c-2.5-2.7-1.4-6.2-3.3-9.4c-0.2,3.1,0.7,5.5,1.1,7.8c0.2,1.4,0.7,2.5-1.7,3.1c-3.5,0.9-5.3,5.1-4.6,9c1.3,6.8-1,11.7-7.2,15
		c-0.1-2.2,1.4-4.1,1-6.3c-0.4-2.1,0.6-4.3-1.1-7c-0.1,2.7-0.1,4.8-0.4,6.8c-0.9,7.3-2,14.5-2.8,21.8c-1.1,9.3-5,17.7-11.1,24.9
		c-0.4,0.5-1.1,1-1.1,1.4c-0.1,10.1-3.9,19.6-5,29.6c-1.5,14.1-2.7,28.3-5.7,42.3c-1.4,6.9-3.1,13.7-6.9,19.8
		c-3,4.8-7,8.4-11.4,11.7c0.7-1.1,1.3-2.4,2.2-3.3c7.4-7,11-15.8,12.6-25.6c1-6,1.9-12,2.5-18c0.9-8.2,1.6-16.4,2.3-24.5
		c-0.6,1.6-0.9,3.3-1.2,4.9c-1.8,10.4-1.3,21.1-3.7,31.4c-2.7,12-6.1,23.5-16.9,31.3C38,406.6,39,408.7,41.6,409z M-133.4,203.4
		c0.7,1-1.3,1.5-0.6,2.7c2-0.8,4-1.5,5-3.6c-2.1-1.4-3.1,0.4-4.5,1c-1.6-1.5-2.8-0.3-3.9,0.7c-1.7,1.6-3.3,3.2-4.8,5
		c-1.3,1.5-3.2,2.8-3.6,5C-141.9,210.3-137.9,206.6-133.4,203.4z M-93,200.2c0.1,1.4-1.1,1.7-1.9,2.3c-2.3,1.7-4.8,3.3-7.1,5
		c-0.5,0.4-1.5,0.7-0.9,1.6c0.6,1,1.3,0.7,2.1,0.2c2.7-1.8,5.5-3.4,8.3-5.2c0.8-0.5,2.2-0.6,2-1.8c-0.1-1.3-1.2-2-2.6-2
		c0.6-2.4-0.2-3-2.3-1.7c-3.2,1.9-6.4,3.9-9.5,5.9c-0.6,0.4-2.6,0.6-1.4,2.2c0.9,1.2,1.8,0.3,2.8-0.3
		C-100.1,204.3-96.8,201.8-93,200.2z M-96.7,85.7c-1.9-3-4.9-4.5-7.9-6.1C-102,81.7-99.8,84.2-96.7,85.7c1,2.6,4.4,3.6,5,7.8
		c-12.3-10.2-24-19.4-39.6-20.1c13.6,4.7,24.3,14.3,36.7,21.4c-0.3,0.5-0.6,1.1-0.9,1.6c-5.6-2.1-10.6-5.6-16-8.2
		c-1.2,0-2.3-0.5-3.5-0.9c-7.1-2.4-14.4-3.3-21.9-2.8c7.6,1.4,15.2,2.6,22.9,3.8c0.8,0.1,1.7-0.1,2.5-0.1c-0.3,3.2,1.6,4.6,4.3,5.5
		c1.2,0.4,2.2,1.1,3.9,1.9c-5.8,1.7-10.8,3.2-15.8,4.7c2.6-2.7,6.2-3,9.9-4.5c-4.6-1.5-8.1-4.5-12.6-2.1c-0.1,0.1-0.1,0.4-0.2,0.5
		c0.6,0.9,2.3,0,2.7,2.3c-12.4-1.4-23.4,1.7-32.8,9.6c10-3.2,20-6.2,30.3-8.4c-0.5,1.3-1.5,1.4-2.4,1.6c-7.7,2.4-15.4,4.5-23,7.2
		c-6.2,2.2-12.7,4.3-17.5,10.9c12.1-6.6,24.2-10.7,36.2-15.1c-1.1,1.5-2.7,2-4.2,2.6c-10.5,4.4-21.4,8.1-31.3,13.9
		c-1.4,0.8-3.5,1.3-3.1,3.9c8.9-5.3,17.8-10,27.4-13.6c-1.3,1.1-2.7,1.9-4.2,2.6c-7.9,4-16,7.8-23.3,12.9c-1.1,0.8-2.6,1.3-2.3,3.3
		c7.6-4.5,15-8.8,23.5-12.4c-1.3,2-2.8,2.5-4.1,3.2c-6.3,3.4-12.6,6.8-18.7,10.6c-1.5,0.9-3.2,1.8-2.7,4.4
		c7.5-5.2,15.6-8.9,24.3-13.3c-2.8,3.7-5.8,5.9-9,7.9c-3.4,2.1-6.7,4.5-10.2,6.5c-3.1,1.7-4.7,4.2-5,8.1c4.6-3.1,9.1-6.1,13.5-9.1
		c-3.9,4.7-9.3,7.7-13.5,11.9c3.7-2.3,7.3-4.7,11-7c-3.3,4.2-7.8,6.7-12,9.6c-2.1,1.4-3.6,3.1-3.4,6.2c5-3.7,9.8-7.3,14.5-10.8
		c0.2,0.2,0.4,0.5,0.5,0.7c-4.8,5.2-11.2,8.4-16.1,13.6c5.7-4.2,11.6-7.9,18.4-11.6c-0.9,2.1-2.1,2.6-3.2,3.3
		c-3.4,2.3-7,4.5-10.3,6.9c-1.7,1.2-3.2,2.6-4.7,4.1c-0.5,0.5-0.7,1.4-0.2,2c0.7,0.8,1.3-0.1,1.8-0.4c2.3-1.6,4.5-3.3,6.8-4.9
		c3-2.1,6-4.1,9.1-6.1c0.2,0.3,0.4,0.5,0.5,0.8c-6.6,4.9-13.1,9.8-19.7,14.7c6.8-3.9,13.1-8.7,20.2-12.1
		c-5.5,4.4-11.2,8.6-16.9,12.7c-1.5,1.1-2.7,2.3-1.7,4.5c6.6-4.2,13.1-8.3,19.6-12.4c-6.3,6.7-15.1,10.4-21.7,16.7
		c0.2,0.3,0.4,0.6,0.7,0.8c6.6-4.4,13.1-8.9,19.7-13.3c0.2,0.3,0.4,0.5,0.5,0.8c-1.3,1.1-2.6,2.2-4.1,3.4c1.4,0.2,2.1-1.3,3.5-0.6
		c-6,4.6-12,9.2-17.9,13.7c0.2,0.3,0.5,0.6,0.7,0.9c5.8-4.1,11.5-8.2,18-12.7c-0.9,2.4-2.3,3.2-3.5,4.1c-4.7,3.7-9.5,7.2-14.2,10.8
		c-1.8,1.4-1.8,1.4-2,3.5c5.8-4.3,11.7-8.7,17.5-13c0.2,0.2,0.4,0.5,0.5,0.7c-6.6,6.3-14.6,10.9-20.5,17.9
		c7.7-5.4,14.7-11.8,22.5-17c0.6-0.4,1-1.1,1.4-1.7c1.8-2.9,6.3-4.8,9.6-3.8c9.4,2.9,18.2,7.8,27.9,9.7c3.3,0.6,6.6,1.3,9.6,2.5
		c2.9,1.1,6.1,1.5,8.8,3.3c2.8,1.8,3,5.2,0.4,7.3c-1.2,1-2.7,1.7-4,2.5c-3.3,1.9-6.6,3.9-10.1,5.9c1.5,1.2,2.2,0.4,3.1-0.1
		c4.1-2.4,8.5-4.4,12.3-7.2c3.4-2.5,5.9,0.5,6.3,1.8c1.2,3.5,5.7,4.6,5.5,8.7c0,0.3,0.2,0.8,0.4,1c2.6,1.8,2.5,4.5,2.7,7.2
		c0.3,6.2-2.3,11.2-6.5,15.6c-0.3,0.3-0.9,0.5-1.3-0.1c1.6-4.9-2.6-6.5-5.3-9.1c3.2-3.2,6.9-5.6,10.6-8.2c0.6-0.5,1.3-1,0.8-1.8
		c-0.6-0.9-1.3-0.1-1.8,0.2c-3.1,2.2-6.4,4.1-9.1,6.7c-2.2,2.1-6,2.5-6.7,6.2l0,0c-0.5-0.8-1-1.6-1.5-2.5
		c-7.1-11.8-20.8-14.9-32.2-7.3c-2.3,1.5-4.7,3.4-4.4,6.5c0.4,3.9,4.2,7.7,7.9,8.4c-0.1-1.4-0.3-2.7-0.4-4
		c-0.2-6.6,4.6-11,11.2-10.3c1.6,0.2,3.1,0.4,4.6,0.7c3.9,1,7.6,6.2,7.4,10.3c-0.1,2.5-1.7,4.3-2.6,6.4c-0.7,1.5-3.5,1.2-5.4,1.5
		c-1.4,0.2-2.9,0.5-4.3,0.5c-7.3,0.4-17.2-2.9-19.4-12.5c-0.2-1-0.5-1.8-1.5-2.3c-4.2-2.1-6.5-1.3-9,3.2c-2.4,2.2-4.8,4.4-7.2,6.5
		c-2.4,0.3-3.2,3.1-5.8,3.9c0.6-1.8,1.7-2.8,2.8-3.7c4-3.7,8.1-7.3,12.2-11c0.7-0.6,1.7-1.3,0.7-2.4c-1.2-1.3-1.7,0.3-2.2,0.8
		c-4.4,4.2-8.8,8.4-13.2,12.6c-1,0.9-1.7,2.3-3.8,2c1.9-2.1,3.7-4,5.4-5.8c-1.9,0.5-2.6,2.4-4.6,3c0-1.4,1-2,1.7-2.8
		c4.1-4.6,9-8.2,13.9-11.8c1.1-0.8,2.5-1.5,2.7-3.2c0.4-3.4,2.8-5.2,5.6-6.7c5.7-3,11.9-3.6,18.1-2.6c4.5,0.8,7.4-1.5,11-4.1
		c-3.9-0.4-6.4,2.5-9.9,2.7c1.2-2,3.6-1.8,4.8-3.5c-1.2-0.6-2.8-0.3-3.5-2c1.8-0.6,3.6-1,5.1-2.1s3.1-2,4.7-2.9
		c-2.5,0.6-4.8,1.7-7.1,2.8c-0.7,0.3-1.3,0.7-2.3,0.3c-3.2-1.2-6.5-2.6-9.9-0.4c-0.9,0.6-1.9,1.6-3.2,1c0.1-1.4,2.2-1,2.2-2.3
		c-2.9-1.1-5,1.8-8.4,1.6c1.5-1.1,2.5-1.8,3.9-2.8c-3.5-0.7-5.6,2.6-8.7,1.8c1.1-1.6,3.2-1.1,3.8-3c-3.3-0.4-5.5,2.4-9,2.4
		c1.7-1.2,3-2,4.6-3.1c-3.6,0-12.8,6.4-14.3,9.9c2.4-1.3,4.5-2.5,6.6-3.7c-2.2,4.2-7.7,4.6-9.7,9.6c2.9-1.7,5.2-3.1,7.6-4.5
		c-2.1,3.4-6,4.5-7.9,8c2.5-1.6,5.1-3.2,8.4-5.3c-1.2,2.8-3.2,3.3-4.4,4.6c1,0.8,1.8-1.3,3,0c-7.9,5.9-16.3,11.3-21.8,19.9
		c2.4-2.2,4.8-4.4,7.2-6.6c-1.2,3.3-3.7,5.4-6,7.7c-4.1,4.2-4.5,4.7-4.9,8.3c1.6-1.8,3.1-3.6,4.7-5.3c1.5-1.6,3-3.1,4.5-4.7
		c-3.2,7.2-11.6,10.8-11.5,19.8c4.4-5,9-9.6,13.9-14.1c-4.9,7.4-12.1,13.2-16,22.2c6.7-6.2,12.8-11.7,18.4-16.9
		c-5.6,7.2-13.5,13.6-18.4,22.3c5.2-6.1,10.7-12,16.4-17.7c-5.2,8.2-12.7,14.8-16.4,24c5.8-6.6,11.6-13.1,17.8-20
		c-0.1,2.1-1.1,2.9-2,3.9c-5,6.1-10,12.3-15.1,18.3c-1.6,1.9-1.9,4-1.4,6.9c6-7.7,11.7-15,17.4-22.3c-4.8,9.9-12.6,17.9-17.7,27.6
		c6-7.5,11.5-15.2,17.9-22.4c-2.8,4.7-6.1,9.2-9.2,13.7c-3.1,4.5-6.6,8.8-8.4,14.1c5.5-7.6,11-15.3,16.9-23.4c0.1,2-0.7,2.8-1.3,3.6
		c-4.8,7-9.6,14.1-14.4,21.1c-0.8,1.2-1.8,2.4-0.2,4.4c1.3-6.8,7.7-9.7,10.2-15.3c0.4-0.9,0.8-1.9,2.8-2.6
		c-3.2,5.2-5.9,9.9-8.8,14.5c-3.3,5.3-5.6,12-4.4,15c2.7-11.5,9.1-20.5,15-29.8c-0.5,1.8-1.3,3.4-2.2,4.9c-4.3,7.6-8.8,15.1-11,23.8
		c-0.6,2.2-0.6,4.2,0.4,6.9c1-2.4,1.7-4.3,2.5-6.1c1.3-2.9,1.8-3.5,3.8-4.8c-2.3,6.6-6.4,12.8-4.8,20.2c2-5.4,2.8-11.2,6.2-16.2
		c0.7,1.2,0,2-0.3,2.9c-1.7,5.2-3,10.5-4.2,15.9c-0.6,2.5,0.1,4.6,1.5,7.2c1.2-7.2,2.2-13.9,6-19.7c-1.8,8-3.8,16-4.5,24.2
		c1.9-5.9,2.6-12,6-17.4c-1.7,6.2-2.3,12.7-3.9,18.9c-0.6,2.5-0.7,2.5,1.2,4.6c1.9-6.2,4.1-12.2,7.6-17.6
		c-1.4,6.7-4.6,12.8-5.9,19.5c-0.5,2.3-0.1,4.2,1.7,6.3c1-5.9,1.3-11.6,4.5-16.5c-1.1,6.1-2,12.2-2.7,18.4c-0.2,1.9,0,3.2,1.5,4.7
		c1.3-5.6,1.4-11.1,4.4-15.9c-0.6,5.6-1.5,11.1-2.7,16.5c-0.5,2.3-0.4,4.2,1.7,6.1c1.5-6.1,1-12.3,3.7-17.8
		c-0.3,6.3-0.5,12.6-2.2,18.7c-0.6,2-0.3,3.3,1.2,4.8c1.3-5.2,2.2-10.1,5.5-14.8c-1.2,8.2-6.1,15.4-2.1,23.4
		c1.4-6,2.1-12.2,4.9-17.8c-0.8,6.6-1.9,13.2-3,19.8c-0.3,2-0.3,3.8,1.6,5.4c1.1-6,1.6-12,4.2-17.5c-0.4,7.5-2.4,14.7-2.2,22.2
		c1-2.8,1.4-5.6,2-8.5c1.1-5.5,1.4-6.2,3.4-7.8c-1.4,7.4-3.7,14.7-2.3,22.2c1.1-5.4,0.5-11.1,3.6-16.1c-0.9,6.8-1.3,13.5-0.8,20.4
		c0.1-8.5,5.3-15.1,8.3-22.4c0.9-2.1,1.6-4.4,3.7-6.4c0,3.3-1.3,5.7-2.5,8c-1.7,3.4-3.2,6.8-5.2,10.1c-2.6,4.2-2.7,10-2.6,15.3
		c0,0.8,0.5,1.7,1.6,2.1c-0.6-6.7,5.9-24.3,10.9-29.6c-3.4,10.2-9.5,19.2-8.4,30.1c-0.2-6.7,4.5-11.5,6.7-17.2
		c0.4-1.1,0.7-2.4,2.3-3.1c-1.7,5.7-4.5,10.8-5,16.5c1.9-1.8,2.4-4.4,4.9-6.5c-1,5.3-5.2,9.3-2.9,14.8c2.3-2.5,2.6-5.9,5-8.1
		c0.6,0.9,0.1,1.6-0.2,2.2c-1.8,4.6-3.5,9.3-5.3,13.9c-0.6,1.5-0.6,2.4,0.9,3.2c1.6-3.6,2.5-7.2,5.4-11c-0.6,5.9-4,10-4.2,15.4
		c2.2-1.5,1.9-4.4,4.7-5.9c-0.8,2.5-1.3,4.4-2,6.1c-0.8,2-0.6,3.7,1.5,5c1-2,1.9-3.9,3-6.2c1.8,4.3-4.9,7.8-0.1,11.7
		c1.3-1.1,1.2-3.1,3.2-4.1c0.3,2.7-2.3,4.7-1.2,7.8c1.1-1.8,1.1-3.6,3-4.9c-0.6,2.7-1.1,4.9-1.7,7.5c2-1.3,1.6-3.8,3.6-4.6
		c0.8,3.1-2.6,5.6-1,8.7c1.4-1.1,0.9-3,2.5-3.7c1.1,2.3-1.3,4.5-0.5,6.7c1.6-0.4,1-2.5,2.7-2.4c0.9,2.3-2.6,4.7-0.1,7
		c1.2-0.4,0.7-2.2,2.3-2.4c1,2-1.3,3.7-0.6,5.7c1.3-0.4,0.8-2.2,2.1-2.4c1.4,1.8-1,3.5-0.2,5.4c1.4-0.8,1-3,3-3.6
		c0.4,2.4-1.6,4.2-1.3,6.4c1.6-0.2,0.8-2.6,2.6-2.6c-0.3,6.6-0.3,6.6,2.5,5.9c0.7,1-1.5,2,0,3.1c1.3-0.5,1.4-2.4,3.1-2.5
		c0.4,1.1-0.3,1.9-0.8,2.7c-0.7,1.1-0.8,2.3,0.3,2.8c1.8,0.8,1.5-2.3,3.2-2c0.8,1.6-1.5,2.7-0.8,4.3c1.5-0.2,1.2-2.5,3-2.3
		c0.9,1.6-1.7,2.7-0.8,4.1c1.8,0.7,1.2-3,3.7-1.4c3,1.9-2,2.8,0,4.4c1.5,0.3,1.6-2.2,3.5-2.1c-0.5,1.2-0.9,2.1-1.4,3.2
		c1.7-0.3,1.8-2.3,3.3-2.4c0.4,0.6,0.2,1.1,0,1.7c-0.3,0.8-1.7,1.4-0.5,2.5c1.1,0.9,1.7-0.3,2.5-0.7c1.1-0.5,1.7-2.1,3.2-1.5
		c-0.3,1.9-2.5,2-2.8,3.6c4.5,2.3,5.7-3.5,9.2-3.7c-0.1,2-2.5,2.3-2.7,4.1c4.3,1.7,5.3-3.9,9.1-4.2c-1,1.4-1.8,2.5-2.7,3.8
		c3.8,0.6,4.8-3.9,8-3.8c-0.3,1.5-2.1,1.8-2,3.8c3.4-1.4,6.9-1.3,9.9-3c0.6,1-1.4,1.8-0.3,2.2c2.1,0.8,2.7-2.1,4.6-2.3
		c0.7,1-1.6,1.5-0.5,2.3c0.6,0.4,1.9,0.4,2.4,0c1.3-1,2.4-0.1,3.6,0c3.3,0.2,6.6,0,8.6-3.4c0.4-0.6,0.9-1.5,2.2-1.1
		c-0.7,1.7-2.9,2.5-3.6,5.1c4.4-1.8,8.4-2.8,11.5-5.8c8-7.6,16.3-14.9,21.2-25.2c4.7-9.9,11.3-18.7,16.5-28.4
		c9.8-18.1,16-37.8,24.5-56.5c8.3-18.2,14.1-37.3,18.3-56.9c0.4-1.8,0.6-2.6,3-2.2c10,1.9,19-3.8,23.5-12.9c4-8.1,5.7-16.7,5.3-25.8
		c-0.4-7.9-0.1-15.8-0.5-23.7c-0.1-2.2-1.5-3.3-3-4.2c-1.3-0.8-2.3,0.2-3.2,1c-2,1.6,0.1,2.8,0.4,4.1c0.7,2.3,1.7,4.6,2.3,6.9
		c1.3,5.1,1.8,10.1-3.8,13.4c-1.5,0.9-2.7,2.5-4.1,3.7c0.2,0.2,0.3,0.4,0.5,0.5c2.7-2.3,5.4-4.6,8.3-7.1c0.6,4.9-2.7,9-6.8,9
		c-1.5,0-2.6-0.3-3.5-1.9c-0.8-1.5-0.9-2.3,0.1-3.6c1.3-1.7,2.5-3.9,1-5.7c-3.8-4.8-3.1-9.6-0.9-14.7c-1.7-0.9-3.9-0.3-5.2-2.3
		c7.1-0.5,7.1-0.5,8.1-2c-8.7-0.7-9-1.4-11,8.5c-0.9,4.5,0.3,8.9,1.2,13.4c1.2,6,0.3,12.4,0.3,18.6c1.2,0,1.1-1.5,2.2-1.2
		c-1.4,8.3-6.6,15.9-10.9,15.7c1.4-1.6,2.7-3.2,4-4.7c1.3-1.6-2.2-3.2,0.1-4.8c-2.3-3.6-0.9-7.5-1-11.2c0-1.3,0-2.8-0.7-3.9
		c-4.2-6.8-3.6-14.6-4.8-22c-0.5-3-0.5-6-0.7-9.1c-0.7-7.4-4.2-14.4-4.4-21.8c-0.2-7.9-2.5-15.3-4.2-22.8
		c-1.4-5.9-3.9-11.6-4.1-17.7c-0.1-2.1-0.7-4.7,0.9-6c4.2-3.3,3.1-7.1,2.2-11.3c-0.9-4.1-4.3-8.3-0.6-12.7c0.2-0.2,0.1-0.7,0-1
		c-0.8-3.6-2.8-6.6-2.3-10.8c0.4-3-3.2-5.6-3.5-9.4c-0.2-3.1-4-5.3-4.9-9c-0.6-2.6-3.4-4.6-5.3-6.9c-1-1.3-3.6-2.6-2.6-3.8
		c1.6-1.8,3,1,4.5,1.6c0.2,0.1,0.4,0,1.1-0.1c-0.9-1-1.6-1.9-2.5-2.6c-5.1-4.3-10-8.9-16.9-10.2c-1.1-0.2-1.7-0.9-1-2.1
		c0.2-0.4,1.2-1-0.1-1.1c-0.4-0.1-1.6-0.7-1.6,0.6c0.1,1.9-1,2.9-2.6,2.6c-1.7-0.2-2.5-1.7-2.7-3.4C-2,89.8-2.4,88-3.3,86.2
		c-0.2,0.4-0.3,0.5-0.4,0.6C-4.4,89.5-5,92.2-7,94.3c-2.3,2.5-5.4-0.6-7.8,1.4c-0.7,0.6-0.9-0.7-1.1-1.4c-0.3-1,0.8-2.6-0.8-3.1
		c-1.6-0.4-2.7,0.5-3.5,1.9c-1.1,1.7-3.5,3.3-4.8,2.4c-2.4-1.6-2.7-0.4-3.6,1.2c-0.5,1.1-1.2,2.1-2.4,2.6c-1.2-0.4-0.6-1.8-1.4-2.4
		c-1.1,0-1,2.1-2.2,1.7c-1.4-8-2.7-15.8-4.2-24.3c-1,2.1,0.4,3.8-0.9,5.1c-1.4-3.2-1.3-7.1-3.8-9.9c0.5,3.2,1.4,6.2,2.2,9.2
		c1.3,4.6,2.8,9.1,2.9,13.9c0.1,2.1-0.3,4-2.8,4.9c-0.7-5.6-1.6-10.9-3.7-16.7c-0.1,6.3,2.5,12.1-1.3,18.1
		c-1.7-5.4-0.6-10.5-2.6-15.9c0.2,5.6-0.4,10.2-3,14.4c2.3-10.1-0.1-19.8-1.9-29.6c-0.2-0.9,0.4-2.8-1.6-2.4c-1.9,0.4-1.5,1.6-1,3
		c2.7,7.9,3.9,16.1,4,24.4c0,3.1,0.2,6.3-2.6,9.1c-1.1-13.4,0.4-27-8.3-38.3c0.9,3.9,2,7.7,3,11.6c1.1,3.9,2.1,7.8,3.1,11.6
		c1,3.8,1.6,7.5-0.3,11.8c-2.3-3.1-1.9-6.7-4.6-9.3c0.9,4.2,3.3,7.8,1.4,12.1c-2-1.6-1.6-4-3-5.7c-1,1.5,0.4,3.7-1.7,4.8
		c-0.5-3.5-0.9-6.9-1.5-10.2c-0.2-0.9,0.3-2.6-1.3-2.6c-1.5,0.1-2.2,1.2-1.8,2.9c0.2,1,0,2.1-1.1,2.5c-1.4,0.5-1.9-0.7-2.5-1.6
		c-0.2-0.4-0.5-0.7-0.7-1.1c-0.7,1.3,1.4,2.9-0.6,3.6c-1.2,0.4-1.5-1-1.9-1.8C-81.2,83.6-87,76-94.8,70.1c-6.6-4.9-13-10.5-22.3-9.2
		c-4.8,0.7-9.6,1.1-14.2,2.8c7.6,0.8,14.7,3.6,22.1,4.9c13.3,2.4,21.4,11.9,29,21.9c0.7,0.9,1.6,2.2,0.3,3.2
		c-1.1,0.9-2.2,0.2-3.3-0.6c-1.9-1.3-3.8-2.6-5.3-4.4C-91.3,87.6-93.2,85.1-96.7,85.7z M27,379.8c-3.4,8.9-6.6,18-10.2,26.8
		c-6.6,15.9-15.6,30.5-25,44.8c-2.7,4.1-4.8,8.4-8,12.2c-3.9,4.5-8.7,8.4-11.7,13.4c-4.4,7.2-9,14.5-13,22c-3,5.5-6.2,10.9-9.3,16.3
		c2.2,0.9,3-0.5,3.7-1.8c2.8-5,5.5-10,8.3-15c4.6-8,9.2-15.9,13.8-23.9c0.3,0.2,0.6,0.3,0.9,0.5c-7.4,13.3-14.8,26.5-22.2,39.9
		c2.7,0.5,3.1-1.6,3.8-2.9c5.8-11.1,12.6-21.6,19.6-32.1c0.7-1.1,1.6-2.2,2.4-3.2c0.3,0.2,0.5,0.4,0.8,0.6c-8,12-15.9,24.1-22,37.2
		c8.5-10,14.3-21.8,22-32.3c0.3,0.2,0.5,0.3,0.8,0.5c-6.4,10.3-12.9,20.6-19.4,31c2.4,0.6,3.4-0.8,4.3-2.3
		c3.5-5.3,6.9-10.6,10.4-15.9c-2.2,6.4-5.9,11.9-9.5,17.6c6.2-5.2,8.8-13.1,14.8-18.5c-3.5,5.8-7,11.5-10.5,17.3
		c0.3,0.2,0.6,0.4,0.9,0.6c3.8-3.4,5.8-8.5,9.5-12.1c-1.2,2.3-2.4,4.7-3.7,7c0.2,0.1,0.3,0.2,0.5,0.2c1.1-1.5,2.2-3.1,3.3-4.6
		c-0.3,3-2.2,5.1-3.8,7.9c8.7-1.8,16.4-5,24-8.7c1.2-0.6,2.9-0.9,3.4-1.9c2.6-4.9,7.2-7.7,11-11.3c0.8-0.8,1.6-1.4,1.4-2.9
		c-3.3,2.2-5.3,6-9.2,6.9c3.5-4.2,8-7.5,11.1-12c-2.5,1.2-3.6,4.1-6.8,4.4c2.9-3.2,5.7-6.4,8.6-9.6c-2.5,0.5-3.2,3.4-6,3.2
		c2.7-2.3,1.6-6.6,4.8-8.7c1.5-0.9,2.5-2.7,3.7-4.1c-2.3,0.5-3,3.1-5.7,3.3c2.1-3.7,6.1-5.6,7.2-9.9c-1.9,1.1-2.2,3.6-5.1,3.8
		c1.4-3.5,4.3-5.4,5.9-8.3c-0.7-0.7-1.8,0.9-2.1-0.2c-0.1-0.5,0.6-1.2,0.8-1.9c0.4-0.9,2.2-2.3,1.2-2.6c-2.2-0.7-1.1-1.9-0.5-2.2
		c4.2-2.6,3.2-6.9,3.4-10.7c0.4-10.1,0.6-20.1-0.8-30.2C27.6,398.5,27.7,389.2,27,379.8z M-15.8,69.1c-0.1-10.7-4.3-20.8-11.8-28.2
		c-7.5-7.5-14.3-15.9-24.6-20.1c-3.2-1.3-6.6-1.8-9.6-3.5c-0.6-0.3-1.9-0.2-1.5-1.9c7.8,0.7,15,3.6,21.3,7.7
		c6.4,4.2,11.7,10.3,17.5,15.3c6,5.1,8.6,12.2,11.9,19.7c1.1-2.8-0.8-4.3,0.4-6.6c7.4,6.9,7.8,15.9,8.6,24.7C0,74.9,0,74.9,1.6,79.4
		c1.4-0.8,2.1-3.3,4.1-2.3c1.4,0.7,0.4,2.7,0.6,4.1c0.1,0.4-0.1,1,0.9,1.1c2.5-2.8,6-2.8,9.6-2.1c8.6,1.6,17,4.2,25,7.8
		c5,2.3,10.5,4.2,13.4,9.1c2.7,4.5,6.9,4.5,11.1,6.3c-0.7-1.9-2.2-1.9-3.1-2.7c-0.5-0.4-1.3-0.3-1.3-1.4c-0.1-2.9-4.4-7.1-7.2-7.2
		c-0.7,0-1.4,0.7-1.9-0.3c-0.4-0.8,0.1-1.5,0.7-1.9c2.2-1.5,0.6-2.2-0.5-3.1c-3.6-2.7-7.8-4.6-12.1-5.9C30,77.7,19.3,73.3,7.2,76.2
		c1.7-2.6,3.8-3.8,6.7-3.9c5-0.2,9.9,0.8,14.8,1.8c5.5,1.2,11,2.7,16.4,4.4c-4.7-3.6-9.6-6.7-14.8-9.4c-5.1-2.7-10.3-5-16.6-6.4
		c2.2-1.6,4.2-1.8,5.8-1.2c6.6,2.3,13.7,3.8,19.6,7.4c14.9,9.3,28.1,20.6,35.2,37.3c0.5,1.2,1.5,2.5,0.7,3.7
		c-0.9,1.4-0.3,2.1,0.9,2.5c1.3,0.5,3,1.3,4.1,0.9c1.4-0.6,0.1-2.1-0.1-3.2c-2.7-13.7-12.1-23.7-20.7-33.4
		C49.1,65.1,35.1,59.2,19.1,59.8C13.7,60,8.5,61.6,3.2,61.7c-1.3,0-2.5-0.1-2.7-1.7c-0.2-1.8,1.8,0.2,2-1.7
		c-7.5-1.6-9.8-8.9-14.2-14.2c0.3,3,2.5,5.3,2.9,9.2c-3.2-3.7-4.9-7.3-6.8-10.8c-2.8-5.2-5.1-11-9.8-14.8
		C-40.7,15.5-57.7,8-77.7,9.5C-85.8,10.1-94,10-102,11.6c-4.5,0.9-8.9,1.8-13.1,3.7c23.5-1.9,47.9,1.8,53.5,8.6
		c-2.7-0.7-5-1.2-7.3-1.9c-12.5-3.7-25.2-5.3-38.2-4.3c-8.7,0.7-16.7,3.3-24.3,7.3c-0.9,0.5-2.3,0.8-1.5,2.3c0.6,1.2,1.6,1.8,3,1.1
		c0.7-0.3,1.3-0.6,2-0.8c24.7-9.7,48.7-8.7,71.5,5.6C-46,39.8-37.8,48.1-35.8,61c0.1,0.9,0.2,2.3,1.6,1.9c2.1-0.5,0.4-1.9,0.2-2.6
		c-1.1-3.9-2.4-7.7-3.7-11.7c2.2-0.2,2.6,1.8,4.7,2.9c-5.9-9.9-13.5-16.9-22.5-23.4c3.8-0.4,6.4,0.9,8.7,2.7
		c11.3,8.8,19.2,19.9,22.4,34c0.2,1-0.4,2.9,1.7,2.5c1.9-0.4,1.9-1.7,1.6-3.4c-0.6-4-1.9-7.7-3.6-12.1
		C-17.9,56.2-19.1,63.8-15.8,69.1z M45.6,199.1c3.7-1.9,6.1,0.6,9,1.5c-3.1-2.8-6.2-5.5-9.2-8.3c0.3-0.3,0.5-0.7,0.8-1
		c8.9,1.6,12.7,10.5,19.7,14.7c-5.3-6.4-11-12.4-17.2-17.9c-0.7-0.6-1.3-1.7-2.4-1.3c-2.6,0.9-2.8-1.3-2.6-2.5
		c0.2-1.8,1.9-2.4,3.7-1.9c2,0.7,3.7,2,5,3.5c3,3.5,7.1,4.9,11.8,6.5c-1.3-1.6-2.1-2.8-3.1-3.8c-4.5-4.2-9.7-7.2-15.3-9.7
		c-1-0.4-2.8-0.8-2.3-2.3c0.5-1.6,2.1-1.8,3.7-1.3c1.7,0.6,3.3,1.2,5.5,1.9c-0.9-1.6-1.5-2.8-2.1-3.9c-0.5-1-1.5-2.2-0.6-3
		c3-2.6,1.1-5.3,0.2-7.8c-2-5.5-1.9-5.9,3-9.3c-2-1.6-4-3.2-6-4.8c-0.5-0.4-1.1-0.8-0.7-1.5c0.3-0.6,1-0.6,1.6-0.3
		c1,0.5,1.9,1.1,2.9,1.5c2.1,0.9,3.6,3,6.9,3.2c-3.9-3.3-1.3-3.3,1.2-3.2c-1.6-2.2-4.3-2.8-5.5-5.6c7.9,1.4,12.7,6.9,18.2,11.4
		c-3-4.8-5.1-10.3-11.2-12.3c-3.3-1.1-6.3-3.1-9.4-4.8c-0.9-0.5-2.5-0.9-2.1-2c0.6-1.5,2.1-0.5,3.2-0.2c2.2,0.5,4.1,2.3,6.7,1.6
		c-1.1-0.9-2.4-1.5-3.6-2c-4.3-1.8-8.5-3.8-12.3-6.4c-0.9-0.7-3.1-0.9-2.3-2.7c0.8-1.8,2.6-1.4,4.2-0.8c3.8,1.4,7.4,3,11,4.9
		c2.6,1.3,5.2,3,8.6,3c-3.1-0.8,0.3-4.3-2.9-5.3c-5.7-1.8-11.1-4.3-16.7-6.4c-0.7-0.3-1.7-0.8-2-0.5c-2,1.5-2.6-0.1-3.7-1.3
		c-4.7-5.3-8.3-11.5-13.8-16c-2.1-1.8-4.4-3.3-8-2.6c4.2,3.3,8,6.3,11,10.1c2,2.5,3.5,5.3,5.4,7.8c1.3,1.7-1,2.7,0,4.3
		c2.3,3.6,4,7.6,5.8,11.6c3.7,8,2.6,16.4,4.1,24.6c0,0.2,0.1,0.6-0.1,0.7c-2.6,1.7-0.7,3.5-0.1,5.3c0.4,1.5,1.4,3.9-0.5,4.1
		c-2.8,0.4-2.4,2.3-2.6,3.8c-0.3,3.4-0.2,6.8,0.5,10.2c0.2,0.9,0.6,2.5,0.2,2.8c-2.9,2.3-0.8,4.5-0.2,6.7c1,3.5,2.1,7,3.3,10.4
		c1.7,4.6,2.8,9.1,2.2,14.2c-0.5,3.9,1.3,7.9,2.5,11.7c0.2,0.7,0.5,1.8,1.3,1.5c2.4-0.9,3.7,1.5,6.2,1.9c-2-1.4-3.4-2.6-5-3.6
		c-3.5-2.1-2.1-6.1-3.5-9c-0.8-1.6,1.9-0.7,2.5-1.8c0.4-0.7,1.2-1.4,0.3-2.2c-2.3-1.8-1.2-3.4,0.3-4.7c-0.9-1.4-2.6-1.3-3.2-3.3
		c4.5,0,7.8,2.2,11.4,4C55.5,206.4,50.7,202.8,45.6,199.1z M-65.9,79.5c-2.9-1.7-2.9-4.9-4.5-7.1c-7-9.5-14.8-18-25.7-23.2
		c-9.6-4.6-19.3-7.4-29.8-3.1c-5.5,2.3-10.9,4.8-15.7,9.6c3.6-0.4,6.5-0.8,9.4-1.1c9.1-0.9,18.5-1.3,27.2,1.6
		c12.5,4.1,23.6,11,30.3,23.1c0.9,1.6,2.2,2.9,3.2,4.4c0.8,1.1,2.2,1.6,2.6,0.5c1.3-2.9,3-1.7,4.9-0.9c-0.4-3.8-0.4-3.8-1.7-5.9
		c0.1,0.5,0.2,1,0.2,1.4C-65.5,79.1-65.7,79.3-65.9,79.5z M-107.8,40.6c15,3.9,26.5,11.8,35.9,23.1c-1-5.1-1.9-10.2-3.7-14.9
		c-1.6-4.3-4-8.7-8.7-10.1c-9.2-2.9-18.9-2.8-28.5-2.8c-4,0-7.6,0.7-10.7,3.4c0.8,0.5,1.6,0,2.3-0.2c5.2-1.1,10.5-2.1,15.9-2
		c1.2,0,3-0.1,3.1,1.2c0.2,1.5-1.6,1.4-2.8,1.6C-105.6,40.1-106.3,40.2-107.8,40.6z M-84.8,514.4c2.8,1.4,3.9,0,4.8-1.9
		c3.8-7.6,8.1-14.9,12.5-22.2c0.7-1.2,1.6-2.4,2.6-3.9c0.4,1.7-0.2,2.4-0.6,3.1c-4.3,7.7-8.7,15.5-13,23.2c-0.4,0.8-2,1.8-0.4,2.6
		c1.3,0.7,2.1-0.2,2.8-1.5c2.1-4.1,4.3-8.2,6.5-12.3c2.6-4.8,5.5-9.5,9.2-14.3c0.2,2.2-0.9,3.3-1.7,4.5c-4.8,6.8-8.3,14.3-12.1,21.7
		c-0.3,0.7-1.7,1.7-0.1,2.3c0.9,0.4,2.2,0.6,2.9-0.6c0.4-0.7,0.9-1.5,1.3-2.2c3.4-6.3,6.7-12.7,10.2-19c1.4-2.6,3-5.2,4.7-8.1
		c-4.7,0-8.8,0-12.9,0c-1,0-2.1,0.1-2.7,1.4C-75.3,496.2-80,505.3-84.8,514.4z M-7.7,29c3.9,7.6,7.1,15.3,7.2,24.1
		c-5.7-20.9-16-37.5-38.9-42.5c6,3,11.4,6.8,15.7,11.9c6.8,8,12.5,16.8,17.2,26.2c1.6,3.3,3.8,5.4,7.1,6.6c2.2,0.8,3.1,0.4,2.8-2.2
		C2.4,43.8-1.8,36-7.7,29z M-30.6,478.8c-3,1.8-6.1,3.8-9.4,4.4c-5.2,1-8,4-10.2,8.5c-3.9,8.1-8.3,16-12.5,24
		c0.3,0.2,0.6,0.3,0.9,0.5c6.2-8.9,10-19.1,15.9-28.1c0.3,0.2,0.6,0.3,0.9,0.5c-4.7,9-9.5,18.1-14.2,27.2c2.1,0.9,3.2,0.4,4.2-1.5
		c3.6-6.4,7.3-12.6,11-18.9c1.5-2.6,3.1-5.1,4.7-7.7c0.3,0.2,0.6,0.4,0.9,0.6c-5.2,9.2-10.4,18.4-15.7,27.6c1.2,0.3,2.2-0.1,2.9-1.4
		C-44.6,502.6-38,490.5-30.6,478.8z M24.4,88.9c-0.1,0.3-0.2,0.6-0.3,0.9c2.1,0.8,4.3,1.5,6.4,2.4c4.6,1.9,9.2,4,12,8.5
		c0.4,0.6,1.5,1.2,0.6,2.2c-1,1-1.5-0.2-2.1-0.6c-3.2-2.2-6.6-4.2-10.1-5.7c-1.2-0.5-2.4-1-4.3-0.2c2.1,0.5,3.5,0.8,4.9,1.3
		c1.2,0.5,2.3,1.6,1.6,2.8c-1.2,1.8,0,2.7,0.8,3.8c2.5,3.3,5.1,6.5,7.6,9.8c0.7,0.9,1.4,1.5,2.5,2c6.4,2.6,12.8,5.3,19.2,7.9
		c2.2,0.9,4.4,1.6,6.6,2.4c-8.7-5.3-17.6-9.8-26.8-13.8c-1.1-0.5-3.2-0.6-2.7-2.3c0.5-1.6,2.3-1.8,4-1.2c3.2,1.2,6.4,2.4,9.6,3.6
		c4,1.6,8,3.2,12,4.8c-6.6-4.7-13-9.5-19.3-14.5c-2.6-2-3.2-5.5-5.9-7.1C35.5,92.7,29.9,90.9,24.4,88.9z M-44,59.7
		c-1.1-3.1-2.1-5.5-3.6-7.7c-0.4-0.5-1.3-0.9-0.4-1.8c2.5-2.4,1.3-4.9-0.5-6.6c-6.9-6.5-13.5-13.4-23.3-16
		c-10.4-2.8-20.7-4-31.4-3.2c-2.5,0.2-5.1,0.6-7.6,1s-4.9,0.8-7.9,2.4c10.7-1.9,20.8-3.3,30.7-1.9c8.2,1.2,16,4.7,23,9.6
		C-56.1,41.7-50.4,50.5-44,59.7z M35.2,397.9c3-5.9,7.8-10.8,9-18.1c-3,4.6-3.6,10.4-9.7,13.3c1.7-3.6,3.5-6.2,4.1-9.7
		c-3.8,1.9-6.2,3.9-6.1,8.3c0.1,3.6,1,6.3,3.1,9.2c2.3,3.1,3.6,2.6,5.6,0.3c9.5-11,11.8-24.4,12.7-38.4
		C49.6,375.6,47.8,389.7,35.2,397.9z M-168.8,91.2c13.8-10.9,27.3-12.6,48-9.6C-133.9,70.8-162.4,79.5-168.8,91.2z M-121.3,91.9
		c-5.8-2.3-11.5-2.1-17.2-2.1c-13.4-0.1-24.7,4.7-33.9,14.3c-3.4,3.6-7.7,6.9-7.4,13.1c0.4-0.5,0.8-0.8,1-1.2
		c13.1-22,30-27,51.4-23.4C-125.3,92.9-123.6,93.1-121.3,91.9z M-47.7,485.1c-2.6,0.6-5.1-1.1-6.6,1.7c-5,9.1-9.9,18.1-14.8,27.2
		c-0.3,0.6-1,1.3-0.1,1.8c0.8,0.4,1.7,0.2,2.2-0.7c0.9-1.6,1.8-3.1,2.7-4.7c4.3-7.5,8.6-15,13.1-22.7c0.5,1.8-1.5,2.6-0.6,4.2
		C-50.4,489.8-49.2,487.7-47.7,485.1z M-88.5,34.5c-6.6-8.1-22.8-6.2-31.2-2.6C-109,32-98.8,32.3-88.5,34.5z M-86.4,505.5
		c2.3-1.1,4.9-1.1,6.1-3.2c3-5.1,5.7-10.4,8.6-15.7c-5.2-0.5-6.9,1.2-9.6,9.1c1.1,0.6,2.2-0.9,4,0.3
		C-82.1,497.6-85.5,500.1-86.4,505.5z M-152.6,67.1c6.4-1.1,11.4-4.5,17.6-5.8C-143.1,58.2-147.7,59.7-152.6,67.1z M-202.1,293
		c2.2-7.6,7.8-13.4,6-21.9c-2.9,6-5.3,11.6-7.1,17.5C-203.7,289.9-203.1,291.1-202.1,293z M-166.2,371.7c-0.4,6.3,1.3,12.1,4.7,17.3
		c0.5,0.7,0.8,2,2.1,1.3c1.1-0.7,1.2-1.6,0.6-2.8C-161.3,382.2-163.7,376.9-166.2,371.7z M32.5,56.6c9.1,3.5,18.2,7,26.2,12.7
		C51.6,61.7,43,57,32.5,56.6z M-202.1,260.4c-4.1,7.9-5.8,12.9-3.1,15.9C-199.6,265.5-199.6,265.5-202.1,260.4z M-91.2,513.8
		c4.5,1.3,7.8-2.1,8.6-8.4C-87,506.4-89.9,509.1-91.2,513.8z M-204.3,284.8c2.3-5,4.5-9.7,6.7-14.4c0.3-0.7,1.6-1.5,0.1-2.4
		c-1.5-0.8-1.9,0.1-2.3,1.2c-1.5,3.7-3.2,7.4-4.7,11.1C-205.2,281.7-205.2,283.1-204.3,284.8z M-181,198.7c6-5.6,13.7-9.6,18.3-16.7
		C-169,187.3-176,191.9-181,198.7z M-195.7,282.8c-4.8,6.5-6.1,13.1-2.9,15.8C-198.5,293.1-193.8,288.7-195.7,282.8z M-206.7,265.3
		c0.2-0.2,0.4-0.3,0.6-0.4c3-3.7,0.5-8.8,3.2-12.7c0.3-0.5-0.2-1.9-1.2-1.8c-0.7,0-1.7,0.8-1.8,1.4
		C-206.9,256.3-208.6,260.6-206.7,265.3z M-129.5,466.3c-6.1,1.7-10.3,4.6-12.4,10.1C-136.6,474.7-133.4,470.7-129.5,466.3z
		 M-95.4,509.3c5.4-0.8,7.6-4.4,9-8.9C-91.6,501.2-93.9,504.6-95.4,509.3z M67.9,81.7c3.6,4.9,7.3,9.3,10.7,15.1
		C77.1,88.7,72.4,82.1,67.9,81.7z M-121.5,457.1c-4.5,2.2-10,3-12.9,8.8C-129,463.8-124,462.4-121.5,457.1z M-136.9,455.7
		c4.8-0.6,7.5-5.3,12.4-4.9c-0.3-3-1.7-3.4-4.4-2.3C-132.4,450-134.6,452.7-136.9,455.7z M-108.9,204.9c0.4-0.2,0.6-0.2,0.8-0.4
		c3.7-2.8,7.7-5,11.8-7.1c0.5-0.3,1.2-0.6,0.6-1.3c-0.5-0.7-1.1-0.8-1.9-0.3c-3.9,2.4-7.9,4.7-11.8,7.1c-0.5,0.3-1.1,0.7-0.6,1.4
		C-109.7,204.6-109.2,204.7-108.9,204.9z M-119.8,480c-4.2,1.3-8.2,5.5-10.9,11.4C-126.8,490.8-126,488.6-119.8,480z M-122.4,486.9
		c4.1-1.2,8.6-5.7,12-11.6C-116.4,477.1-118.1,482.7-122.4,486.9z M-180.7,206.1c3.9-4.1,9.5-6.5,12.2-11.7
		C-173.1,197.7-177.9,200.9-180.7,206.1z M-129.4,218.3c2.7-0.5,4.9-0.8,7.2-1.2c1.8-0.3,4.1-0.9,1.5,2c-0.7,0.8-0.2,1.9,0.6,2.6
		c0.7,0.6,1.5,0.8,2.3,0.4c0.6-0.3,1-1.1,0.5-1.5c-2.7-2.2,0.6-2.8,1.3-3.9C-118.7,215-126,215.8-129.4,218.3z M-129.7,485.4
		c-5.6,1.5-7.4,6.3-10.3,11.2C-134.2,494.3-133,489-129.7,485.4z M-108.7,497.3c-4.1,1.1-7.7,4.8-9.5,9.3
		C-112.8,505.8-111.6,500.7-108.7,497.3z M-88.4,488c-4.8,1.1-7.3,4-7.9,8.4C-91.5,495.7-90.6,491.4-88.4,488z M-194.6,289.1
		c-0.8,3.3-1.6,6.4-2.4,9.6c-0.3,1.1-0.2,2.2,0.9,2.4c1.4,0.3,1.1-1.3,1.3-2c0.7-1.7,0.9-3.5,1.7-5.1
		C-192.3,291.9-192.6,290.4-194.6,289.1z M-81.9,492c-3.8,1.7-7.8,2.6-8.3,7.5C-86,498.6-82.9,496.8-81.9,492z M-145.7,466.5
		c5.9-2.5,7.5-3.9,9.9-8.5C-140.2,459.2-143.3,462.1-145.7,466.5z M-99,505.8c-4.1,0.7-6.2,4.8-10.4,3.9
		C-102.5,513-102.2,512.9-99,505.8z M-113.1,469.3c-2.6-3.8-2.6-3.8-5.5-0.7c-1.2,1.3-2.4,2.7-3.7,4c0.1,0.2,0.2,0.3,0.3,0.5
		C-119,471.8-116.1,470.5-113.1,469.3z M-100,486c-4.7,1-6.3,5.3-10,8.7C-104.1,493.6-102.8,489-100,486z M-121.3,489.5
		c-5.4,1.1-6.3,5.6-8.9,8.6C-125.5,497.2-124.2,493-121.3,489.5z M-86.5,492.2c2.5-0.9,4.7-1.5,6.6-2.9c0.6-0.4,1.1-1.1,0.8-1.8
		c-0.2-0.8-1-0.3-1.5-0.4C-84.6,485.9-85.3,488.9-86.5,492.2z M-139.1,484.5c-4.6,0.7-5.8,4.1-8,6.4c-0.4,0.4-0.5,0.8-0.1,1.2
		c0.6,0.6,1.1,0.1,1.6-0.1C-142.4,490.7-141.6,487.3-139.1,484.5z M-100.2,211.9c3.8-1.7,7.1-4.3,10.8-5.9c0.4-0.2,0.7-0.7,0.4-1.2
		c-0.2-0.4-0.7-0.8-1.2-0.4C-93.6,206.7-97.4,208.5-100.2,211.9z M-130.5,482.7c4.5-1.2,6.9-4,9.3-7.4
		C-125.6,476.2-128.1,478.9-130.5,482.7z M-130.8,473.3c-4,1.6-7.1,4.8-8.5,8.5C-134.9,480.4-133.4,476.3-130.8,473.3z M-87.2,207.3
		c-4.2,1.3-7.7,4.1-11.2,6.5c-0.1,0.1-0.1,0.7,0.1,1c0.2,0.4,0.7,0.8,1.1,0.4C-94.3,212-90.3,210.3-87.2,207.3z M-148.3,486.7
		c4.2-1.7,5.3-5.3,7.6-7.9C-144.5,479.9-146.9,482.4-148.3,486.7z M-99.7,479.8c-4.8,1.6-6.2,3-8,7.4
		C-104.2,485.8-102.3,483.2-99.7,479.8z M-180.9,217.8c-0.3-0.3-0.6-0.6-0.9-0.9c3.5-3.2,7-6.4,10.6-9.6
		C-174.6,210.8-178.1,214-180.9,217.8z M-129.9,493.7c-3.9,0.7-5,3.5-6.6,5.7c-0.6,0.8-0.3,1.3,0.4,1.8s1.1-0.1,1.4-0.6
		C-133.2,498.4-131.7,496.3-129.9,493.7z M-101.2,504.6c4-0.5,5-3.4,6.5-6.2C-98.4,498.9-100.1,501.1-101.2,504.6z M-96.1,491.4
		c-4.3,1.7-6.2,5.7-8.9,9C-101.2,498.2-99.3,494.2-96.1,491.4z M-139.3,443.1c-3.8,1.7-6.7,3.3-7.9,7
		C-143.4,449.1-141.3,446.6-139.3,443.1z M-138.9,446c4.2-1.1,6-3.8,8.3-6.6C-134.9,439.7-136.4,442.8-138.9,446z M-119.3,476.7
		c4,0.4,5.2-5,9.2-4.3C-112.4,469.8-115.5,471.2-119.3,476.7z M-202.6,464c5,1.9,6.1,1.3,6.4-3.7
		C-198.2,461.6-200.2,462.7-202.6,464z M-127.7,443c-6.5,2.7-7.7,3.8-8.9,7.1C-132.8,449.1-130.5,446.2-127.7,443z M-108.9,196.5
		c-3.8,0.2-6.7,2.2-10.3,4.5C-114.1,201.6-112,198-108.9,196.5z M-130.2,476.7c3.7-1.7,5.6-5.1,8.1-8
		C-126.2,469.8-127.8,473.7-130.2,476.7z M-9,90.7c1-4.6,1.3-9.3,1-14C-9.3,81.3-8.5,86-9,90.7z M-122.2,496.8c-2.8,1.3-6.6,6-7,8.4
		C-125.9,503.3-124.2,500.2-122.2,496.8z M-170.8,203.5c-3.4,3.4-7.4,6-9.6,9.5C-177.4,210.1-174.1,206.8-170.8,203.5z
		 M-121.7,205.6c0.9,1.4,2.9-3,2.8,1.1c0,0,1,0.3,1.3,0.1c0.8-0.7,1.7-1.4,2.2-2.3c0.3-0.5-0.6-0.9-1.1-1.1c-1-0.4-2.1-1.6-3.2-0.1
		C-120.2,204.2-121.5,204.4-121.7,205.6z M-159,397.6c-1.8,2.9-3.6,5.8-5.7,9.2C-160.2,404.8-159.3,401.4-159,397.6z M-150,476.8
		c-2.5,1.1-3.9,2-5.1,3.3c-0.9,1-0.5,1.9,0.2,2.5c1.2,1.1,1.3-0.3,1.7-0.9C-152.2,480.5-151.4,479-150,476.8z M-107.9,483.2
		c-4.3,1.2-5.1,4.3-6.6,6.9C-111.5,488.9-110.2,486.2-107.9,483.2z M-140.6,441c4.6-1.3,5.2-1.8,6.2-5.2
		C-137.1,436.7-139.5,438.1-140.6,441z M-91.1,509.1c-2.4,1.5-4.8,1.7-6.2,3.7C-93.6,514.9-92.1,513-91.1,509.1z M-169.3,415.1
		c7.2-5.4,7.2-5.4,7.2-8C-164.5,410-167.7,411.8-169.3,415.1z M-172.9,116.7c-3.2,3.1-5.4,6.6-5.8,11.1
		C-176.6,124.2-175.2,120.2-172.9,116.7z M49.4,355.6c-2.6,3.5-1.9,6.3-1.4,9.1C49.1,362.1,49.6,359.3,49.4,355.6z M-123.6,230.5
		c0.1,0.2,0.1,0.4,0.2,0.6c2.4-0.2,4.7-0.4,7.1-0.5c1.2-0.1,1.4-0.7,1.2-1.7c-0.2-1.1-1.1-0.7-1.7-0.5
		C-119.1,229.1-121.4,229.8-123.6,230.5z M-146.7,452.6c-3.5,1.2-5.4,3.2-6.8,6.5C-150,457.9-148.5,455.6-146.7,452.6z
		 M-105.2,187.5c-0.1-0.3-0.3-0.5-0.4-0.8c-3.4,1.7-6.8,3.5-10.2,5.2c0.1,0.3,0.3,0.5,0.4,0.8C-112,191-108.6,189.2-105.2,187.5z
		 M-115.5,486.6c-2.8,1.5-4.3,4.1-6.4,7.4C-118.1,492.2-117.1,489.2-115.5,486.6z M-168.6,376.8c0-3.8,0-7.6,0-11.4
		C-169.4,369.2-170.6,373-168.6,376.8z M-192.1,295.2c-0.6,2-1.2,4-1.8,6.1c-0.2,0.8,0.1,1.5,0.9,1.6s1-0.5,1-1.2
		C-191.8,299.6-190.7,297.5-192.1,295.2z M-108.9,490.6c-3.3,1.2-5.5,4-7,8.3C-113.2,495.6-111,493.1-108.9,490.6z M-127.8,457
		c0.1,0.2,0.2,0.3,0.3,0.5c1.3-0.5,2.7-1,4-1.6c0.6-0.3,1.5-0.6,1.1-1.5c-0.2-0.6-0.4-1.3-0.9-1.5c-0.8-0.5-1.2,0.4-1.7,0.9
		C-126,454.8-126.9,455.9-127.8,457z M-106.5,476c-0.2-0.2-0.5-0.4-0.7-0.6c-2.3,2.4-4.8,4.6-5.8,8
		C-110.8,480.9-108.6,478.5-106.5,476z M-173.1,136.5c0.2,0.3,0.4,0.6,0.6,0.8c3.7-2.4,7.3-4.9,11-7.3
		C-165.8,131.5-169.3,134.2-173.1,136.5z M-151.6,475.1c3.3-1.8,6-2.8,7.2-6.4C-147.2,470.4-149.9,471.4-151.6,475.1z M-149.1,480.7
		c2.4-1.5,4.6-4.5,5.5-7.5C-146.2,475-148.1,477.5-149.1,480.7z M-129.2,469.1c3.6-1.1,5.2-2.6,6.7-5.8
		C-125.8,464.1-127.2,467-129.2,469.1z M-122.1,217.8c-2.9,0.7-5.8,1.4-8.7,2.1c0.1,0.4,0.2,0.8,0.3,1.2
		C-127.8,219.7-124.3,220.9-122.1,217.8z M-59.7,505.4c-1.9,3.4-3.7,6.8-5.6,10.3C-62.5,512.8-60.8,509.3-59.7,505.4z M-144.8,459.6
		c3-1.3,4.6-2.8,6.5-6.3C-141.6,454.2-142.9,457-144.8,459.6z M-111.9,509.5c0.3,0.2,0.6,0.4,0.8,0.6c1.5-2,3-4,4.5-5.9
		C-109.6,505-110.8,507.1-111.9,509.5z M-145.5,454.7c3.9-2,5-3.3,6-6C-142.1,449.6-143.6,451.6-145.5,454.7z M72,248.1
		c-1.9,1.4-2,4.2-4.7,4.4c-0.7,0.1-0.5,1-0.4,1.5c0,0.2,0.5,0.5,0.7,0.5C69,254.6,72.3,249.9,72,248.1z M-151.8,463.8
		c2.6-1.2,4-3.4,5.7-6.1C-149.6,458.7-150.5,461.4-151.8,463.8z M-121.9,500.9c2.6-1.7,3.9-4.4,5.2-7.1
		C-119.2,495.6-120.6,498.2-121.9,500.9z M-137.9,486.9c2.5-1.3,3.7-3.6,5.8-6.4C-135.5,482.1-136.4,484.7-137.9,486.9z M67,251
		c1.7-2.2,2.8-3.7,3.9-5.2c0.4-0.6,0.2-1.2-0.3-1.6c-0.7-0.5-1.1,0.2-1.3,0.7C68.4,246.5,67.3,248.1,67,251z M-100.1,511.1
		c2.8-1.3,3.7-3.8,4-6.7C-97.5,506.7-98.8,508.9-100.1,511.1z M-136.3,429.4c-0.1-0.3-0.3-0.6-0.4-0.9c-2.3,0.7-4.7,1.1-6.3,4.3
		C-140.4,431.5-138.3,430.5-136.3,429.4z M-199.7,256.1c-0.3,2.1-0.4,4.2,1,6.1C-196.4,259.6-198.8,257.9-199.7,256.1z M-91.6,221
		c0.2,0.2,0.5,0.5,0.7,0.7c1.7-2,4.8-2.4,6-4.9c-0.2-0.3-0.5-0.5-0.7-0.8C-87.6,217.7-89.6,219.4-91.6,221z M-148.9,448.6
		c-3.4,0.7-4.1,3.1-5.8,5.6C-151.5,453.1-150.7,450.9-148.9,448.6z M-135.4,431.4c-2.7,0.5-4.1,2.5-6.2,5.4
		C-138.3,435.3-137.2,432.9-135.4,431.4z M73.6,253.2c-0.5-0.5-1-0.9-1.5-1.4c-1.1,1.5-2.2,3.1-3.4,4.6c-0.4,0.5-0.9,0.9-0.4,1.5
		c0.5,0.7,1.1,0.2,1.5-0.2C71.1,256.3,72.4,254.7,73.6,253.2z"/>
	<path class="st0" d="M-211.5,560c9.7-10.4,19.8-20.4,30.7-29.4c0.3-0.3,0.7-0.7,1.5-0.2c-2,2.8-4.7,4.8-7.1,7.1
		c-7.6,7.3-15.4,14.5-22.1,22.6C-209.5,560-210.5,560-211.5,560z"/>
	<path class="st0" d="M-196.9,560c5.2-7,11.5-12.9,18.2-18.5c-5.2,6.5-11.7,11.8-16.7,18.5C-195.9,560-196.4,560-196.9,560z"/>
	<path class="st0" d="M85.9,440.1c2.1-1.8,3.8-1.3,4.4,1.3c0.3,1.2-0.4,2.6,0.4,3.8c1.1-0.3,0.8-1.4,1.2-2.1
		c0.3-0.6,0.8-0.9,1.4-0.8c0.8,0.1,1.1,1.1,0.7,1.3c-2.1,0.9,0.8,3.8-0.7,3.3c-2.8-0.7-4.3,0.8-6.2,1.7c-1.2,0.6-3.3,0.2-2.3-0.8
		c2-2.4,0.2-4,0-5.9c-0.1-0.8,0.1-1.7,1.2-1.9c-0.1,0.7-0.2,1.4-0.2,2.1c0,1.6,1,2.4,2.2,3c0.7,0.4,1.1-0.1,1.3-0.7
		c0.4-1.4,0.5-2.8-0.5-4.1C88,439.1,86.9,440.5,85.9,440.1z"/>
	<path class="st0" d="M127.6,450.7c0.7,1.6-0.2,1.6-1.1,1.3c-1.4-0.5-3.7-0.4-3.9-2.1c-0.1-0.9,2.4-0.8,3.7-1.2
		C127.9,448.3,127.8,449.8,127.6,450.7z"/>
	<path class="st0" d="M-152.6,221.4c3.2-2.3,3.2-2.3,5.6-2.2c-0.2,1.8-2.8,1.3-3.1,3.5c1.4-0.5,2.6-1,3.9-1.5
		c1.1,8.4,6.1,13,14.2,14.6c1,0.2,2.5-0.1,2.8,1.2c0.2,1.4-1.3,1.9-2.3,2.5c-1.6,1-3.3,1.9-5.3,2.1c1.7-1.2,3.5-2.4,5.2-3.6
		c-0.2-0.2-0.3-0.5-0.5-0.7c-3.5,2.2-7.2,4.1-10.5,6.6c-2.1,1.5-3.6,1.6-5.4,0c5.7,0.5,8.4-4.9,13.2-6.2c-0.2-0.4-0.4-0.8-0.6-1.2
		c-4.2,2.4-8.4,4.8-12.7,7.2c-0.3-1.7,1.2-2.2,2.2-2.9c1.8-1.2,3.8-2.1,5.6-3.3c0.6-0.4,2-0.4,1.5-1.5s-1.6-0.8-2.5-0.3
		c-2.9,1.8-5.8,3.5-8.7,5.3c-0.9,0.5-1.1,1.2-0.6,2.1c-0.9-0.2-2.2-0.3-2.4-1.3c-0.2-1.1,1.1-1.1,1.8-1.5c2.1-1.4,4.4-2.5,6.5-4
		c1.1-0.7,3.6-1,2.8-2.5c-0.9-1.7-2.4,0.4-3.6,1c-2.4,1.3-4.8,2.9-7.2,4.4c-1,0.6-2.1,1-3.3,1.2c3.5-3.8,8.3-5.8,12.4-8.7
		c-2.7-0.5-4.5,1.5-6.6,2.4c-2.2,0.9-3.9,2.7-6.4,3c2.4-2.7,5.6-4.4,8.8-5.8c2-0.9,3-1.6,1.5-3.9c-0.7-1-0.5-2.6-0.8-4.1
		c-5.7,1.7-9.5,6.9-15.4,8.3c0-1.6,1.9-2.2,2.4-3.5C-157.4,225.7-155,223.6-152.6,221.4z"/>
	<path class="st0" d="M37.4,462.8c4.9-7,9.5-14.2,14.7-21.1C49,450,43,456.3,37.4,462.8z"/>
	<path class="st0" d="M41.1,467.5c3.8-6.7,8.1-13,13.2-18.7C51.6,456.2,45.6,461.3,41.1,467.5z"/>
	<path class="st0" d="M47.9,432.2c-1.1,5.9-5.6,9.5-8.9,13.9c-0.3-0.2-0.5-0.4-0.8-0.6C41.4,441.1,44.7,436.7,47.9,432.2z"/>
	<path class="st0" d="M40.1,450.8c-1.2,3.3-1.7,6-4.9,7.1C35.9,455.2,35.9,455.2,40.1,450.8z"/>
	<path class="st0" d="M-220.8,554.7c13.9-14.9,28-29.6,46-39.8L-220.8,554.7z"/>
	<path class="st0" d="M-177.6,494.4c-14.6,12.4-27.8,26.3-41.6,39.6C-206.8,519.2-193.2,505.8-177.6,494.4z"/>
	<path class="st0" d="M-184.5,509.9c-15.1,12.7-28.7,26.9-42,41.5C-224.8,545.8-192.9,514.3-184.5,509.9z"/>
	<path class="st0" d="M-169.4,463c-3.5,2.9-6.9,5.6-10.1,8.4c-7.4,6.6-13.8,14.1-20.5,21.3c-0.8,0.9-1.6,1.8-2.5,2.7
		c-0.5,0.5-1,1.3-1.8,0.7c-1.1-0.9,0.1-1.5,0.6-2c7.3-7.7,14.1-15.8,22-22.9c2.8-2.5,5.7-5,8.8-7.1
		C-171.9,463.6-171.1,462.4-169.4,463z"/>
	<path class="st0" d="M-86.8,291.6c0.3-1,2.7-1.1,1.4-2.7c-1.1-1.3-2.2,0-3.2,0.7c-5.9,4.2-11.9,8.5-18.3,12.2
		c1.8-1.7,3.6-3.4,5.6-5.3c-1.8-0.1-2.6,2.1-4.6,1.6c4-4.2,9.3-6.6,13.4-10.3c-0.2-0.3-0.3-0.5-0.5-0.8c-3.6,2.4-7.3,4.8-10.9,7.1
		c-0.1-0.1-0.1-0.2-0.2-0.3c0.9-0.9,1.9-1.9,3-3.1c-3.5-0.2-6.4,1.3-9.1-1.5c-2.5-2.6-2.9-5.8-4.3-9c-2.4,3.1-3.5,6.7-5.2,9.9
		c-6.9,13.3-8.2,27.9-9.3,42.4c-0.1,1.1,0.2,2.1,0.8,3.1c4.1,6,6.8,12.9,10.6,19.3c1.7-1.3,0.5-2.4-0.2-3.6
		c-4-6.4-7.3-13.1-8.7-20.6c3.3,6.4,5.5,13.4,9.7,20c2.6-13.5,5.2-26.5,18.8-33.4c-3.2,5.2-5.4,11.1-11.8,14
		c1.8,0.8,2.2-0.2,2.8-0.7c9.7-8.1,21.2-9.9,33.3-8.7c3.9,0.4,7.8,0.7,11.6,0.5c7.1-0.4,13.4,1.8,19.5,5c0.6,0.3,1.3,0.7,1.9,1.1
		c1.5,0.9,2.7-0.2,3.5-1.1c1.1-1.3-0.5-1.8-1.2-2.4c-2.3-1.9-4.7-3.7-6.8-5.7c14.6,4.9,17.5,18.2,21.6,31c0.6-1.1,1-2,1.4-2.8
		c1.6,0.3-1.9,25.3-4.1,29.5c-0.2-1.8,0.8-3.4,0.1-5.3c-1.5,0.9-1.8,2.6-2,3.9c-2,13.2-8.5,24.2-16.3,34.6
		c-7.8,10.3-18.6,12.5-30.9,11.6c-17.7-1.2-27.6-11.5-33.4-27c-2.6-6.8-3.7-14.2-6.1-20.9c-1.3-3.8,0.6-5.4,1.3-8.3
		c-1.8,0.8-1.9,2.9-3.6,3.3c-0.6-1.2,0.2-3.3-2.1-3.6c0.1,0.6,0.1,1.1,0.3,2.6c-4.1-5.1-7.7-9.5-10.2-15.4c2.4,0.9,2.4,3.4,4.6,4.4
		c-1.9-4-4.4-7.5-3.6-12c-2.1,1.9-0.9,4.6-2.2,6.6c-1.1-5.3-1.5-10.7-1.3-16.1c0.7-14.5,2.3-28.9,6.8-42.8
		c3.1-9.5,7.2-18.6,15.6-24.9c1.9-1.4,2.2-1.7,5.8-2.4c-1.9,1.6-3.4,2.8-4.8,4.1c-1.3,1.3-2.9,2.6-2.9,4.8c1.3,0.3,1.9-1,3.2-1
		c-0.4,2.7-4.7,2.2-4.3,5.8c1.9-1.2,3.5-2.2,5.8-3.6c-1.4,3.4-5,4-6.2,7.8c3-2,4.7-4.3,7.9-5.7c-1.7,3.5-5,5-6.5,7.9
		c3.1-1.7,5.6-4.5,9.2-5.7c-1.2,1.3-2.3,2.6-3.5,3.7c-1.2,1.2-2.6,2.2-3.6,3.6c3.4-1.3,5.4-4.8,9.1-6.4c-0.4,2.3-2.3,3.3-3.2,4.9
		c1.1,0.3,1.5-0.6,2.1-1.1c1.4-1.1,1.3-1.1,3.5-0.6c1.6,0.4,3.7-3.2,4-4.8c0.7-3.5-1.6-7-0.2-10.3c1.4-3.3,4.8-4.7,7.6-7.1
		c0.8,3.2-1.8,3.9-3.2,5.2c-1.5,1.5-2.4,3.1-2.8,5.3c1.2-0.7,2.3-1.4,3.7-2.2c0.1,2.6-4.4,2.9-3,6.3c2.1-1.8,5.5-2.3,4.6-6.8
		c2.3,2.6,2.6,6,5.9,6.9c0.4,0.1,2.7,3.5-0.6,4.8c-0.8,0.3-1.3,1-2.5,2c2.6,0.1,3.4-2.2,5.7-2c-1.3,2.2-3.4,3.1-5,4.6
		c-0.4,0.4-1.1,0.8-0.6,1.5c0.5,0.8,1.2,0.6,1.8,0.1c1.9-1.4,3.9-2.8,6.6-4.8c-1.2,3.2-3.5,4.1-4.9,5.7c-0.4,0.4-1.1,0.8-0.6,1.5
		c0.6,0.8,1.2,0.4,1.8-0.2c3.1-2.9,6.2-5.8,10.5-8.3c-1.1,2.9-3.3,4.1-4.9,5.6c-1.2,1.2-2.6,2.2-3.9,3.3c-0.6,0.6-2.1,1.2-1.3,2.2
		c1,1.2,1.5-0.5,2.1-1.1c3.6-3,7.2-6,11-8.8c-2,4.7-7,6.7-9.7,10.7c0.2,0.2,0.4,0.5,0.6,0.7c3.4-2.9,7.2-5.5,10.3-8.7
		c3.3-3.5,7.1-4.1,11.2-2.8c1.1,0.3,3.8-1.5,3.7,1.9c0,0.4,1.7-1.1,3.2-0.7c-0.7,0.9-1.3,1.6-1.9,2.4c1.2,1.1,1.8-0.5,2.8-0.3
		c0.1,0.2,0.3,0.4,0.3,0.5c-0.2,0.5-0.7,1.3-0.6,1.6c0.5,0.8,1.3,0.1,1.9-0.1c10.5-4.3,12.7-16.1,4.4-24c-0.5-0.5-0.9-1.1-1.4-1.6
		c1-1,1.8-0.2,2.3,0.3c5.2,5.9,11.7,10.9,13.7,19.1c0.4,1.5,0.9,3.1,2.7,3.6c0.8,0.3,1.2,1,1.2,1.7c-0.3,4,3.1,7.4,1.8,11.6
		c-0.3,0.8,0.2,1.7,0.9,2.3c1-0.6-0.1-1.9,0.8-2.6c0.3,0.2,0.7,0.3,0.8,0.5c1.2,2.5,0.1,5,0.4,7.6c0.1,0.7-0.3,2.8,1,0.4
		c0.2,0.2,0.6,0.4,0.6,0.7c0.8,7.3,5.4,14,3.6,21.7l0.1-0.1c-2.1-2.3-1.1-5.3-1.5-7.9c-0.7-4.6-3.7-8.1-5.2-12.4s-3-8.7-4.9-12.9
		c-2.6-5.8-6.3-11.1-9.9-16.8c-2.6,4.8-5.6,8.7-10.1,11.1c-1.7,1-3.3,1.7-4.7-0.5c-0.2-0.4-0.8-0.8-1.1-0.8
		c-3.8,0.5-7.1-1.6-10.6-2.4c-2.1-0.5-3.3-0.1-4.5,1.8c-2.1,3.5-4.8,6.5-9,7.6c-1.5,0.4-3.2,1.1-4.6,0.3c-1.5-0.8-2.5,0.1-3.8,0.7
		c-0.2-1.2,1.8-1.7,0.7-3c-0.2,0-0.6-0.1-0.8,0.1c-2.6,1.8-4.9,4.2-7.7,5.5c-4.3,2-8.5,3.9-12.3,6.8c-0.6,0.5-1.1,0-1.3-0.7
		c4.6-3.6,9.2-7.2,13.8-10.9C-87.7,293.9-86.1,293.4-86.8,291.6z M-108.7,370.9c1,2.2,3.1,0.8,3.7,2.4c-1.2,1-3.5-1-3.9,1.6
		c-0.3,2.1,0.3,3.8,2.9,3.9c-0.6,1.2-2.1,0-2.6,1.3c0.8,1,2.5-0.1,3.3,1.4c-0.8,0.1-1.4,0.1-2.1,0.3c-1,0.2-2.7-0.5-2.8,0.8
		c-0.1,1.5,1.6,0.9,2.6,1.1c0.3,0.1,0.5,0.3,0.8,0.5c-0.9,0.8-2.4-0.1-2.8,1.3c1.1,1.2,2.7-0.1,3.8,0.8c-0.7,1.2-2.8-0.1-2.9,1.6
		c-0.1,1.9,2.2,0.6,3.1,1.6c-0.7,0.5-1.2,0.9-1.8,1.3c1.2,0.9,2.7-0.2,3.7,0.8c-0.6,1.5-3.2,0-3.1,1.7c0.1,2.2,3-0.1,3.7,1.7
		c-0.3,1.4-2.3-0.1-2.5,1.7c1.1,1,2.8-0.2,3.9,0.8c-0.2,1.6-2.4,0.2-2.7,1.9c2.4,1.4,5.3,0.1,7.8,1.7c-1.7,0.5-3.2,0.2-4.7,0.1
		c-0.6-0.1-1.4-0.3-1.5,0.6s0.7,1.2,1.4,1.2c2,0,4.1-0.6,6.2,0.3c-1.7,1.4-4.2-0.1-5.8,1.6c2.7,2.2,6,0,8.8,1.3
		c-1.3,1.3-3,0-4.5,1.1c3.5,0.1,6.8-0.2,10.2,0.4c-2.8,1.2-5.7,0.8-8.9,1.5c4.1,3.4,8.5,0.9,13,1.8c-2.4,1.3-4.8,0.2-6.9,1.8
		c2.5,0.6,4.5,0.2,6.6,0.2c0.5,0,1.6,0.2,1.1,0.6c-0.9,0.8-2.2,0.8,0.1,1.2c9.8,1.7,19.4,0.8,28.4-3.3c4.7-2.2,9.1-4.9,12.1-9.5
		c4.7-7.5,7.4-15.9,10.8-24.1c0.3-0.8-0.2-1.5-0.3-2.2c-0.4-2.6-2.6-3.2-4.3-4.4c1.1-1.1,2.3,0.5,3.2-0.8c-1.5-1.8-4.2-0.8-5.8-2.5
		c1.2-0.7,2.1,0.1,3.1,0.3c0.8,0.1,2,1.1,2.4-0.3c0.4-1.1-0.6-1.8-1.6-2.1c-1.9-0.6-3.8-1-5.6-1.6c-2-0.7-4.3-0.4-5.9-2.4
		c4.1,1,8.1,2,12.6,3.1c-1.1-3.3-2.3-5.8-6.1-6.1c-3.1-0.3-6.2-1.3-9.3-1.8c-3-0.5-6-1.6-9.2-1.2c6.6,2.3,13.8,2.8,20.2,5.9
		c-6.5-0.1-12.7-4-20.1-1.2c6.1,1.8,11.5,3.4,16.8,4.9c-13.4-3-25.7,4.4-38.7,4.1c8.7-2.7,17.7-4.1,26.6-5.9
		c-10.4-0.5-20.1,3.8-30.3,4.5c-0.1-0.3-0.1-0.6-0.2-0.9c7.7-1.7,15.4-3.4,23.7-5.2c-3-1-3.1-1.2-6.2-0.5c-13.3,3.1-26.7,4-40.2,2.4
		c-3.7-0.4-2.3,1.9-2.8,3.2c-0.8,1.9,0.4,2.6,2.2,2.5c2.2-0.1,4.5,0,6.7,0c0,0.4,0,0.8-0.1,1.2
		C-102.1,370.9-105.2,370.9-108.7,370.9z M-37.6,334.8c-1.9-3-4.1-5.3-7.3-6.1c-4.2-1-7.7-5.3-12.6-2.2c-2.1-3.7-5.9-1.1-8.7-2.2
		c-1.3-0.5-3.6-1.6-4.4,1.3c-0.2,0.9-1,0.2-1.2-0.4c-0.4-1.5-1.6-1.3-2.6-1.3c-2.4-0.1-4.9,0.1-7.3,0c-2.2-0.1-3.9,0.4-4.5,3.6
		c-0.4-3.8-2.4-2.8-4.1-2.2c-1.6,0.5-3.2,1.1-4.9,1.4c-1.4,0.3-2.4,0.9-2.4,2.5c-3.5-2.1-4.7,1.6-6.8,2.8c-2.3,1.2-1.6,3,0.1,4.4
		c1.6,1.3,3.5,1.2,5.2,0.7c2.3-0.7,4.5-0.9,6.6,0.1c1.2,0.6,2.4,0.5,3.5,0.1c5.5-2.1,11.4-0.9,16.7-0.5c6.6,0.5,13-0.9,19.6-0.4
		C-48.1,336.9-42.8,336.2-37.6,334.8z M-56.5,358.3c-11.7-3.3-22.1,3-33.2,4.8C-78.4,363.4-67.6,359.4-56.5,358.3z M-59.2,416.4
		c-10.2,2.8-19.7,1.9-29.1-0.8C-82.3,421.2-62.7,421.9-59.2,416.4z M-128.5,337.4c-1,1.7,0,2.9,0.6,4c2.9,5.7,6,11.4,9,17.1
		c0.5,0.9,1.4,1.8,1,3c-0.1,0.4-1.4-0.2-0.9,0.9c0.3,0.5,0.5,1.4,1.6,1.3c0.2-2.9,0.1-5.4-1.9-8.1
		C-123.2,350.2-125.3,343.6-128.5,337.4z M-51.8,353.8c-0.1,0.3-0.1,0.6-0.2,0.9c4.6,0.9,9.2,1.9,13.8,2.8
		C-42.2,353.8-47.2,355-51.8,353.8z M-92.7,282.9c0.2,0.2,0.5,0.4,0.7,0.6c2.5-1.9,5-3.7,7.6-5.6c0.6-0.4,0.9-0.8,0.5-1.5
		c-0.3-0.4-0.7-0.7-1.2-0.3C-87.6,278.4-90.1,280.7-92.7,282.9z M-90.1,356.6c3.4,1.2,6.1,0.3,9-0.8
		C-84.3,354.4-87,355.1-90.1,356.6z M-81.6,278.8c-2.7,0.7-4.5,2.6-6.6,4.1c-0.4,0.3-0.7,0.7-0.4,1.2s0.9,0.5,1.3,0.1
		C-85.3,282.5-82.9,281.2-81.6,278.8z M-90,354.8c-4-0.8-4.6-0.6-8.2,1.4C-95.3,357-93,355.6-90,354.8z M-72.7,356.7
		c-2.6-0.9-5-0.6-7.9,0.8C-77.5,358.8-75.1,357.5-72.7,356.7z M-51.3,413.7c-2.7,0.7-4.1,1.9-6,2c-0.8,0.1-1.8,0.4-1.4,1.6
		c0.5,1.6,1.4,0.3,2,0.1C-55,416.7-53.3,415.7-51.3,413.7z M-101.4,354.6c3-0.9,6.1-1.9,9.1-2.8C-95.6,351.7-98.6,352.9-101.4,354.6
		z"/>
	<path class="st0" d="M-28.2,227.2c-0.9,0.1-1.5-0.4-1.7-1c-0.7-1.8,1.1-9.5,2.4-10.5c4.9-4,10.7-4.9,14.9-2.3
		c4,2.4,5.8,6.7,4.8,11.3c-0.4,1.9-1.2,3.6-2.5,5.8c4.9-1.7,8.5-4,11.3-7.5c1.4-1.7,1.2-3.2-0.1-4.9c-6.8-9.2-17.2-12.8-28.4-9.8
		c-4,1.1-5.2,4.8-7.4,7.6c-1.4,1.8-2.1,4.3-2.9,6.6c-0.7,2.1,1.8,3.5,1.5,5.7c-1,0-1.3-0.7-1.8-1.4s0-2.6-1.9-1.8
		c-1.1,0.5-2.5,0.9-2.5,2.3c0,1.5,2,0.3,2.7,1.8c-1.8,0.2-3.6,0-4.4-1.2c-0.9-1.3,0.6-2.5,1.5-3.7c1.7-2.1,2.5-4.2,1.9-7.2
		c-0.5-2.2,1.1-4.8,1.5-7.4c-3.1,3.3-5.8,7.1-10.4,8.5c2.6-6.9,4.3-14.1,7.7-20.6c0.3-0.6,0.8-1.4-0.3-1.8c-1.1-0.4-1.9-0.2-2.4,0.9
		c-1.3,2.9-2.5,5.8-3.9,8.6c-1.3,2.7-2.2,5.7-5,7.6c2.7-6,5.5-11.9,8.2-17.9c-0.2-0.2-0.5-0.5-0.7-0.7c-1.2,3.4-4.8,2.2-6.8,4.2
		c2.3-6.7,6.2-12.4,12.3-15.9c1.7-1,4.3-1.1,6.4-1.5c3.2-0.7,6.1-1.6,9.1-2.6c2.3-0.7,4.5,0.4,6.8,0.8c1.4,0.2,2.6,1.3,4.2,0.9
		c0-1.5-2-0.8-2.1-2.4c4.6,0,8.6,2.6,13.5,3.6c-2.7-2.5-5.7-2.9-8.7-3.9c0.5-0.5,0.8-0.8,0.9-0.7c5.6,1.7,11.9,0.4,17.1,4.2
		c1.5,1.1,2.9,1.7,5.2,1.4c2.5-0.3,5.1,2.3,6.1,5.1c1.3,3.6,4,6.3,6.2,9.1c1.6,2.1-0.4,3.6,1.4,5.5c-4.6-2.1-6-6.7-9.8-8.7
		c-2.4-1.3-3.8-4.8-7.5-2.8c-0.3,0.1-1.1-0.8-1.6-1.3c-0.9-0.9-1.3-1.2-1.3,0.6c0,1.2-1.3,0.6-2,0.1c-1.4-0.9-2.4-2.4-4.8-2.7
		c1,1.8,3.2,2,4.2,4.8c-5.3-4.1-10.3-3.9-15.8-2.7c-6.9,1.5-7,0.9-8.8,8.2c1.7-0.3,1.6-2.4,3.2-3c-0.3,2.3-1.1,5.6,2.8,2.3
		c2.8,3,7,1.9,10.3,3.5c2,1,4.1,1.6,6,2.7c1.4,0.8,2.6,1.4,3.5-0.5c1,1.1-0.5,2.2,0.6,3c0.5-0.5,1-0.9,1.5-1.4c1,1-0.9,2.4,0.6,3.4
		c1.4,0,0.8-2,2.2-2.1c0.7,1.3-1.2,2.5-0.4,3.9c1.6-0.3,0.7-2.3,2.3-2.8c0.4,1.9,0,3.8-1.4,4.7c-1.1,0.7-2.2-1.1-3.3-1.8
		c-3.5-2.4-6.2-5.9-10.8-6.3c-1.1-0.1-2.1-0.8-2.7,0.8c-0.5,1.4-0.2,2.2,1.2,2.9c3.1,1.5,5.4,4,7.6,6.6c0.3,0.4,0.5,0.9,0.8,1.2
		c1.4,1.6,4.2,2.7,3.3,5.5c-1,3-2.8,5.6-5.3,7.6c-7,5.5-14.9,6.3-23.2,4.7c-3.9-0.8-8.1-1.1-11.8-3.3C-32.8,227-29.4,232-28.2,227.2
		c2.5,0.8,4.1-1.1,5.9-2.3c0,0-0.3-0.8-0.5-0.8C-25,224.4-27.3,224.7-28.2,227.2z M-46.3,213.2c4.2-4.1,5.3-9.9,8-14.9
		c0.4-0.7,1.6-1.9,0.4-2.5c-1.2-0.6-2.2,0.4-2.6,1.7C-42.4,202.8-44.4,208-46.3,213.2z M-23.5,229.9c3.4,0.4,5.4-2.9,9.2-1.9
		c1.7,0.5,4.5-1.7,4.2-4.8c0-0.5,0-1.1-0.6-1.1c-0.4,0-1.2,0.6-1.2,0.6c0.9,2.2-1.3,2.1-2.2,2.6C-17.1,226.9-20.3,228.3-23.5,229.9z
		 M-39.8,205.8c4.2-1.8,4.4-5.4,5.7-8.3c0.3-0.6,1.1-1.6-0.1-2.1c-1-0.4-1.5,0.3-1.9,1.2C-37.3,199.5-38.5,202.4-39.8,205.8z
		 M-47.3,192.4c3.6-2.4,5.9-6.4,10-8.1C-42.8,184.2-44.7,188.8-47.3,192.4z M-17.3,217.3c-1.1,0-1.5,1-1.5,2.1
		c0.1,1.5,1.1,2.5,2.4,2.7c1.3,0.2,1.9-0.8,1.9-2C-14.3,218.4-15.2,217.5-17.3,217.3z M-24.6,217.1c2.3-0.7,4.6-2,6.8-1.8
		c1.9,0.2,3.5,2.6,6.1,2C-16.1,212.5-20.4,214.5-24.6,217.1z M-22,191.7c-2.9,1.4-2.9,3.7-3.7,5.6c-0.3,0.6,0.4,0.9,0.9,0.8
		c1.9-0.7,1.7-2.8,2.4-4.2C-22.2,193.6-22.2,193-22,191.7z M-26.2,193.8c-4.1,0.5-3.8,3.2-4.2,5.7
		C-27.3,198.8-27.2,196.3-26.2,193.8z M-29.2,206.1c3.1-0.8,3.6-2.5,3.5-4.9C-28.4,201.8-28.4,203.9-29.2,206.1z M-39,215.7
		c2.4-2.5,2.9-5.7,3.1-8.9C-36.9,209.7-38,212.7-39,215.7z M-30.5,203.5c-3,0.9-2.5,3.7-3.8,6.4C-31.3,208.2-31.4,205.6-30.5,203.5z
		"/>
	<path class="st0" d="M-80.3,436.9c-1.6-1.8-2.6-1.6-3.6,0.8c-1.2,2.7-1.4,5.9-3.9,8.8c0.2-3.6,1.4-6.3,2.5-9.1
		c0.3-0.7,1.4-1.5,0.1-2.1c-1.5-0.7-1.5,0.8-1.8,1.6c-1.1,2.9-2.2,5.8-3.6,8.7c-0.6-3.2,1-5.9,2.1-8.6c0.3-0.8,1.5-1.6-0.1-2.3
		c-1.5-0.7-1.8,0.3-2.3,1.5c-1.1,2.8-1.5,6-3.5,8.4c-0.2-3.8,1.9-7,2.9-11.3c-2.8,3.2-2.6,7.2-5.7,10c0.3-3.2,1.4-5.7,2.5-8.2
		c0.3-0.7,1.7-1.8,0.1-2.4c-1.1-0.4-1,1-1.3,1.7c-1.3,2.6-1.8,5.6-4.2,8.1c0.2-3.5,1.5-6.1,2.7-8.8c0.5-1,1.7-2.2-0.1-3
		c-2-0.9-1.7,1.1-2.2,2c-1.3,2.4-1.7,5.3-4.1,7.7c-0.3-3,0.8-5.2,2.1-7.1c2.1-3.2,1.7-5.3-1.5-7.3c-0.7-0.4-2.6-0.7-1.3-2.2
		c0.9-1,1.7,0.3,2.4,0.8c17.5,12.4,35.9,11.7,54.8,3.7c1.1-0.5,2.1-1.7,3.3-1.1c0.6,0.3,0.2,1.6-0.1,2.4l0.1-0.1
		c-2.9,1.5-5.9,3.1-8.8,4.6l0.1,0.1c-2.1-0.6-2.7,0.9-3.5,2.3c-1.5,3-1.9,6.5-4.5,9.6c0.2-4.1,2.4-7.2,3.5-11.4
		c-5.6,2.8-4.7,9.1-8.7,12.7c0.7-4.3,2.4-7.6,4-11c-2.6,0.1-2.6,0.1-4.9,5.1c-1.1,2.3-1.8,4.8-4.4,6.2c1.7-3.6,3.4-7.3,5.1-10.9
		c-0.3-0.2-0.6-0.4-0.9-0.5c-3.6,2.5-2.7,7.9-6.5,11.4c0.6-3.6,1.9-6.2,2.9-8.9c0.3-0.7,1.5-1.7,0-2.3c-1.2-0.5-1.6,0.6-2,1.5
		c-1.4,3.2-2.1,6.6-4.7,10.2c0-4.9,2.5-8.1,3.1-11.9c-2.9,2.9-3.3,7.1-5.5,10.4c-0.5-2.8,0.7-5.1,1.7-7.5c0.4-0.9,1.6-2,0.7-2.9
		C-78.4,435.3-79.3,436.9-80.3,436.9L-80.3,436.9z"/>
	<path class="st0" d="M-182.5,291.9c3.6-6.7,7.2-13.5,10.7-20.2c0.6,4.1-2,7.1-2.8,10.8c2.5-1,2.5-1,3.7-4.9c0.6-2,1.1-4.1,2-6.1
		c0.7,3-0.6,5.8-0.6,8.7c0,1.4-1.7,3.1,0.5,4.4c0.7,0.4-0.1,0.9-0.4,1.1c-2.4,1.9-4.9,3.7-7.6,5.3c0-2.1,1.9-2.4,2.9-3.5
		c0.8-0.8,3.2-1.1,2-2.7c-1.4-1.9-2.4,0.6-3.3,1.2c-2.5,1.7-5,3.6-6.3,6.6C-181.9,292.4-182.2,292.2-182.5,291.9z"/>
	<path class="st0" d="M-11.2,329c3.7,4.6,2.7,10.1,3.2,15.4c1,10.7-1.6,21.2-2.7,31.7C-9.8,360.3-9.7,344.6-11.2,329
		C-11.1,328.9-11.2,329-11.2,329z"/>
	<path class="st0" d="M-6.3,242.7c-11.2,1.5-21.4-0.8-30.2-8.2C-27.3,240.2-16.2,239.1-6.3,242.7z"/>
	<path class="st0" d="M-134.6,244.5c2.3,0.5,4.5-0.3,6-1.6c3.6-3.1,7.9-5.4,12.3-5.4c2.7,0,5-1.1,8.5-1.2c-3.3,2.1-6.1,3.2-9,4.1
		c-5.6,1.9-11.3,3.7-16.9,5.5c-0.8,0.3-2,0.7-2.5-0.6c-0.2-0.7,0.6-0.9,1.1-1.1C-134.8,244.2-134.7,244.3-134.6,244.5z"/>
	<path class="st0" d="M-18,351.6c0.7,2.2-0.9,3.8-0.8,5.5c1.2-0.3,0.9-2,2.3-2.2c-1.1,5.2-0.5,10.8-5.6,14.9
		C-21.1,363.5-22.3,357.2-18,351.6z"/>
	<path class="st0" d="M-86.8,291.6c0.7,1.8-0.9,2.3-1.8,3.1c-4.6,3.7-9.2,7.3-13.8,10.9c-1.4-0.1-2,1.7-4.1,1.3
		C-100.6,300.5-93.6,296.2-86.8,291.6z"/>
	<path class="st0" d="M-125.7,323.3c2.4,8,7.5,15.1,8.5,23.6C-121.2,339.5-124.7,331.8-125.7,323.3z"/>
	<path class="st0" d="M-155.5,324.1c0.8-7.9,3.6-15,7.4-21.9C-150.3,309.6-151.9,317.2-155.5,324.1z"/>
	<path class="st0" d="M-150.5,294.3c-2.3,8-4.2,16.1-7.8,23.6C-157.6,309.5-154.1,301.9-150.5,294.3z"/>
	<path class="st0" d="M-115.8,333.4c-2.1-3.9-2.4-8.5-3.6-13.5c1.8,1.3,1.9,2.8,2.5,4.1c0.8-2-0.9-4,0.2-6.9
		C-114.9,322.9-112.9,327.8-115.8,333.4z"/>
	<path class="st0" d="M-139.3,341.9c-1.5,7.6-4.7,14.5-8.9,21C-146.6,355.3-142.6,348.7-139.3,341.9z"/>
	<path class="st0" d="M-162.5,305.5c0.7-8,3.6-14.5,5.3-21.8C-156,288-159,300.6-162.5,305.5z"/>
	<path class="st0" d="M-148.5,354.6c1.4-7.3,4.3-14,8.1-20.3C-142.1,341.4-144.9,348.2-148.5,354.6z"/>
	<path class="st0" d="M-141.3,324.4c-1.4,7.3-5.3,13.7-7.1,20.9C-148.5,337.4-144.4,331.1-141.3,324.4z"/>
	<path class="st0" d="M-172.3,226.4c5.3-7.2,12.6-12,19.4-17.4c0.2,0.3,0.5,0.5,0.7,0.8C-158.9,215.4-165.6,220.9-172.3,226.4z"/>
	<path class="st0" d="M-161,281.6c-0.1,6.3-2.2,12.2-4,18.1C-166.2,293.1-162.8,287.5-161,281.6z"/>
	<path class="st0" d="M-155.8,208.2c-5.5,4.9-11,9.8-16.5,14.8c-0.2-0.2-0.4-0.5-0.7-0.7c4.4-6.1,10.8-10,16.4-14.9
		C-156.3,207.6-156,207.9-155.8,208.2z"/>
	<path class="st0" d="M-87.5,246.6c-4.3,6.3-10.1,10.9-16.2,15.2C-99.1,255.9-92.9,251.7-87.5,246.6z"/>
	<path class="st0" d="M-95.6,316.6c8.5-3.9,16.8-0.9,25.2,0.6C-78.8,317.8-87.1,314.4-95.6,316.6z"/>
	<path class="st0" d="M-153.6,291.8c-1.9,6.4-3.8,12.8-5.8,19.2c-0.4-0.1-0.7-0.2-1.1-0.3c0.4-6.9,3.6-13,6-19.3
		C-154.1,291.5-153.8,291.6-153.6,291.8z"/>
	<path class="st0" d="M-102.6,263.9c5.7-5.1,11.5-10.1,17.2-15.2C-86.1,252-97.1,262.3-102.6,263.9z"/>
	<path class="st0" d="M-86.7,241.5c-3.7,6-8.7,10.5-14.1,14.7c-0.3-0.3-0.5-0.5-0.8-0.8C-96.6,250.7-91.6,246.1-86.7,241.5z"/>
	<path class="st0" d="M-138.5,359.6c-1.1,6.1-3.8,11.6-6.7,16.9C-144.8,370.1-141.2,365-138.5,359.6z"/>
	<path class="st0" d="M-103,222.8c1.2-0.3,2.3-1.6,3.5,0.2c1.1,1.6,2.6,3,1.4,5.2c-0.9,1.5-2.1,2.3-3.9,1.7
		c-1.8-0.6-3.7,1.2-6.4-0.3c2.7-0.2,3.9-3,6.4-1c0.7,0.5,1.6-0.3,2.1-1c0.6-0.7,0.1-1.4-0.4-1.9C-101.1,224.6-102.1,223.7-103,222.8
		L-103,222.8z"/>
	<path class="st0" d="M-146.4,311.3c-1.9,6.4-3.3,12.9-6.7,19.4C-153,325.7-149.5,315.6-146.4,311.3z"/>
	<path class="st0" d="M-84.5,235.7c-4.2,4.5-8.5,8.9-12.7,13.4c-0.3-0.3-0.6-0.5-0.8-0.8c3.3-5.3,8.6-8.8,12.7-13.4
		C-85.1,235.2-84.8,235.5-84.5,235.7z"/>
	<path class="st0" d="M-48.1,319.2c-6.2-1.7-12.7,0-18.8-1.8C-60.6,317.7-54.1,315.1-48.1,319.2z"/>
	<path class="st0" d="M-96.4,243.3c3.4-4.9,8.2-8.4,11.9-13C-86.9,236.1-91.8,239.6-96.4,243.3z"/>
	<path class="st0" d="M-116.1,340.4c-3.3-5.8-4.6-12.2-6.8-18.7C-120.6,323.9-116.3,335.7-116.1,340.4z"/>
	<path class="st0" d="M-167.2,294.7c-3-5.5,1.4-9.7,2-14.4C-165.5,285.1-164.9,289.9-167.2,294.7z"/>
	<path class="st0" d="M-172.2,217.9c3.4-4.8,8.3-7.7,13.1-10.8C-163,211.3-167.3,215-172.2,217.9z"/>
	<path class="st0" d="M-149.7,336.4c0.5-6.6,2.4-12.7,5.9-18.3C-145.4,324.3-148,330.2-149.7,336.4z"/>
	<path class="st0" d="M-97.9,264.4c3.6-3.3,7.3-6.7,10.9-10c0.2,0.2,0.4,0.5,0.6,0.7c-3.1,3.9-6.7,7.4-11,10.1
		C-97.5,264.9-97.7,264.6-97.9,264.4z"/>
	<path class="st0" d="M-144.7,366c1-5.7,3-11,6-15.9C-139.8,355.7-142.1,360.9-144.7,366z"/>
	<path class="st0" d="M-113.9,428c0.9-4.4,2.8-8.3,5.6-11.9c0.3,0.2,0.6,0.3,1,0.5c-1.9,3.9-3.7,7.9-5.6,11.8
		C-113.3,428.3-113.6,428.2-113.9,428z"/>
	<path class="st0" d="M-44.3,429.7c0.5-1.1,1-2.2,2.9-3.4c-2.6,6-4.9,11.2-7.1,16.4c0.1-4.9,2.6-8.9,4.3-13.2
		C-44.2,429.6-44.3,429.7-44.3,429.7z"/>
	<path class="st0" d="M-84.8,226.6c-2,4-5.5,6.6-8.8,9.3C-91.8,231.8-88,229.5-84.8,226.6z"/>
	<path class="st0" d="M-38.9,428.8c-0.6,4.6-2.6,8.7-4.9,12.6C-43.2,436.9-41.3,432.8-38.9,428.8z"/>
	<path class="st0" d="M-110.6,408.2c-1.9,3.6-3.7,7.2-5.6,10.7c-0.4-0.2-0.7-0.3-1.1-0.5c1-4,3.4-7.3,5.8-10.6
		C-111.2,408-110.9,408.1-110.6,408.2z"/>
	<path class="st0" d="M-115.4,424.6c0.5-3.8,2.4-6.9,5-9.7C-111.3,418.5-113,421.7-115.4,424.6z"/>
	<path class="st0" d="M-113.2,398c-1.6,3.9-3.5,7.6-6.5,10.7C-118.5,404.6-116.3,401-113.2,398z"/>
	<path class="st0" d="M-105.9,420.7c-0.7,3.8-2.5,7.1-4.2,11.2C-110.6,428.2-109,424.2-105.9,420.7z"/>
	<path class="st0" d="M-118.1,415c0.9-4,2.6-7.5,5.5-10.4C-114.1,408.3-115.4,412-118.1,415z"/>
	<path class="st0" d="M-49.2,433.8c-0.9,3.9-2.3,7.7-4.7,11C-53,440.9-51.6,437.1-49.2,433.8z"/>
	<path class="st0" d="M-120.3,401.5c1.3-3.7,3-7.1,5.9-9.7C-115.7,395.5-117.8,398.6-120.3,401.5z"/>
	<path class="st0" d="M-80.3,436.9c1,4.2-1.7,7.1-3.2,10.4c-0.1-3.9,1.9-7,3.3-10.3C-80.3,436.9-80.3,436.9-80.3,436.9z"/>
	<path class="st0" d="M-102.7,428.7c-1.2,3.1-2.3,6.2-3.5,9.3c-0.4-0.1-0.8-0.3-1.2-0.4c0.8-3.2,1.9-6.4,3.8-9.3
		C-103.2,428.5-103,428.6-102.7,428.7z"/>
	<path class="st0" d="M-134.9,244.1c2.6-3,6.2-4.3,9.7-5.9c-2.9,2.4-5.8,4.8-9.4,6.3C-134.7,244.3-134.8,244.2-134.9,244.1z"/>
	<path class="st0" d="M-53,434.2c0,3.9-1.8,7.2-3.8,10.4C-56,441-55.1,437.3-53,434.2C-52.9,434.2-53,434.2-53,434.2z"/>
	<path class="st0" d="M8.5,343.5c1.5-3.5,3.1-6.9,4.6-10.4c-0.3,4-2.2,7.3-3.8,10.7C9,343.7,8.7,343.6,8.5,343.5z"/>
	<path class="st0" d="M7.2,363.5c0.3-3.8,2.3-6.8,4-9.9C10.7,357.2,8.8,360.3,7.2,363.5z"/>
	<path class="st0" d="M3.5,382.7c-0.5,4-1.1,8.1-1.6,12.1C2,390.7,1.7,386.5,3.5,382.7z"/>
	<path class="st0" d="M12.4,342.8c-0.1,3.7-1.6,6.9-3.9,9.8C9.7,349.4,11,346.1,12.4,342.8z"/>
	<path class="st0" d="M-48,367.7c-7,2.5-14.5,2.1-21.5,4.6C-67.4,370-52.7,366.9-48,367.7z"/>
	<path class="st0" d="M-106,366.6c4.4-0.4,8.8-0.2,13.1,0.6C-97.3,368.3-101.6,367.2-106,366.6z"/>
	<path class="st0" d="M-62.2,375.3c3.8-1.1,7.5-2.3,11.4-2.1C-54.5,374.5-58.2,375.5-62.2,375.3z"/>
</g>
</svg>
