<?xml version="1.0" encoding="utf-8"?>
<!-- Generator: Adobe Illustrator 19.1.1, SVG Export Plug-In . SVG Version: 6.00 Build 0)  -->
<svg version="1.1" id="Слой_1" xmlns="http://www.w3.org/2000/svg" xmlns:xlink="http://www.w3.org/1999/xlink" x="0px" y="0px"
	 viewBox="-293 69.7 371.6 423.3" style="enable-background:new -293 69.7 371.6 423.3;" xml:space="preserve">
<g>
	<path d="M-54.4,427.7c-0.4,0.1-0.9,0.4-2.3,0.5c2-5,3.9-10.1,5.9-15.1c-0.3-0.2-0.6-0.3-0.9-0.4c-1.7,2.6-3.5,5.2-5.2,7.8
		c-0.1-0.1-0.3-0.2-0.4-0.3c1.4-8.1,2.8-16.2,4.2-24.3c-0.4-0.2-0.8-0.3-1.2-0.4c-0.4,0.6-0.8,1.2-1.2,1.9
		c-3.3,5.9-6.4,11.9-10,17.6c-1.1,1.7-3.7,3.7-5.5,3.6c-9.6-0.5-18.2,3.8-27.5,4.5c-1.8,0.1-3.7-0.2-6.4-0.3c4.1-5.8,10.3-6,15-9.5
		c-6.7-2.6-13.9-3.1-19.6-7c0.1-0.4,0.1-0.9,0.2-1.3c8.5,0,16.9,0,25.4,0c0.1-0.3,0.1-0.7,0.2-1c-0.4-0.4-0.8-0.7-1.2-1
		c5.8,0.9,10.4-1.5,14.8-4.8c17.6-13.4,35.3-26.6,53-39.8c0.4-0.3,0.8-0.7,1-1.9c-30.4,0.8-60.7,1.6-91.1,2.4c0-0.3,0-0.5,0-0.8
		c30-0.8,59.9-1.6,91.2-2.5c-4-5.9-7.4-10.9-10.8-15.9c-0.1-0.5-0.1-0.9-0.1-1.4c0.8,0.5,1.9,1,2.4,1.7c1.4,1.9,2.6,4,4,6.2
		c1.1-1.4,2.1-2.7,2.8-3.5c-1.9-4.3-3.7-8.3-5.5-12.3c2-2.1,1.6-4-0.1-6.3c-6.9-9.4-13.6-18.9-20.4-28.3c-1.2-1.7-1.4-1.5-2.8-0.9
		c-1.1-3.4-2.2-6.9-3.4-10.4c-4-11.5-12.8-12.8-21.5-4c-4.1,4.2-5.1,8.9-6,14c-0.4,2.5-1.3,4.9-2,7.3c-0.4-0.3-0.7-0.6-1.1-0.9
		c-1.1,0.8-2.5,1.3-3.2,2.3c-8.7,11.7-17.4,23.4-25.9,35.2c-3.3,4.6-6,9.8-13.2,9.4c-11.5-5.9-19.7-16.3-28.1-26.4
		c-7.3-8.7-14.5-17.6-22-26.1c-3.8-4.3-8.4-7.9-13.2-11.4c12.1,19.7,27.4,36.8,41.7,54.7c-0.2,0.4-0.3,0.7-0.5,1.1
		c-17.2-6.9-34.3-13.7-51.5-20.5c-0.2,0.3-0.3,0.7-0.5,1c6.6,6,14.1,10.8,22.4,14.2c15.7,6.5,31.5,12.7,47.2,19.2
		c1.5,0.6,2.6,2.2,3.9,3.2c0.8,0.6,1.8,1.1,2.8,1.4c3.4,1,7,1.4,9.1,5.3c4.5,8.6,9.5,16.9,14.2,25.4c3.2,5.6,6.4,11,12.5,14
		c-7.8-2.2-13.6-6.2-16.6-14.5c-2.3-6.2-6.1-11.9-9.6-17.7c-3.1-5.2-8.4-7.5-14.1-8c-8.6-0.8-16-3.6-22.2-9.9
		c-2.3-2.3-6.3-3-9.5-4.4c-1.3-0.5-2.7-0.9-4.1-1.3c-0.3,0.9-0.7,2.2-1.1,3.6c0.7-6.3-2.6-9.8-12.5-13.3c1.2,2.3,2.3,4.5,3.5,6.7
		c-4.6-6.9-11-11.5-18.6-14.7c-4.9-2-9.9-4.1-14.7-6.4c-2.5-1.2-4.2-0.6-6.1,1.1c-15.2,13.2-17.2,29.9-12.6,48.2
		c2,8,9.8,19.7,15.7,24c0-2.6,0.2-4.9,0-7.1c-0.4-3.5,0.8-6.2,3.3-8.5c3.5-3.3,6.9-6.7,10.4-10c-3,3.3-5.9,6.7-9.1,9.8
		c-2.5,2.5-3.7,5.2-4,9c-0.4,6.4,1.8,10.9,6.3,15.4c15,14.9,30.4,29.2,50.4,37.4c14.7,6,29.9,9.8,45.9,8.9c17.8-1,32.5-8.7,45-21.2
		c0.8-0.8,1.7-1.5,2.6-2.2c-5.4,7.3-10.7,14.6-19.4,18.5c-0.5,0-1.1-0.1-1.5,0.1c-12.7,6.7-26.5,8.7-40.9,9.5
		c6.6,1.8,20.9,0.2,29.9-3.1c2.2-0.8,4.3-1.5,6.5-2.2c-1.6,0.9-3.2,2-5,2.6c-17.5,6.4-35.3,4.9-52.8,0.4c-8.6-2.2-16.7-6.5-25.5-10
		c-1,1-2.4,2.9-4.1,4.4c-2.7,2.4-3.3,5.1-2.8,8.8c0.9,5.9,0.9,11.9,1.2,17.9c-2-7.2-4-14-6.1-21.5c-5.8,4.2-10.6,7.7-16,11.6
		c4,5.4,7.8,10.6,11.7,15.9c-3.2,2.2-5.6,1.9-7.9-1.2c-2.4-3.2-5.2-6.2-7.9-9.3c-2.2,1.7-3.3,2.5-4.3,3.5c-5,5-10.1,10.1-15.1,15.2
		c-3.4,3.5-8,4.4-12.5,2.6c5.3-5.9,10.7-11.8,16-17.8c3.3-3.7,6.2-7.9,9.8-11.2c6.8-6.1,14.5-10.8,23.3-13.7c4.7-1.6,8.5-4.4,10.6-9
		c-21.8-20.2-42.7-41.1-65.3-59.6c-0.9,0.5-1.1,0.5-1.3,0.7c-0.4,0.4-0.9,0.7-1.1,1.1c-3.4,6.7-9.3,8.9-16.3,9.5
		c-1.6,0.1-3.2,0.7-4.8,1.1c-6.8,1.6-13.5,3.2-20,4.8c0.8-0.5,1.8-1.1,3.3-2c-1.9-1.6-3.5-3-5.2-4.3c-3.6-2.8-7.2-5.4-10.6-8.3
		c-2.5-2.1-3.2-4.8-1.4-7.8c0,0.9,0,1.7,0,2.7c0.6-0.2,1.1-0.4,1.6-0.6c-1.6,3.6,0,5.7,3.5,7.6c-1.6-5.9,1.2-8.6,5.8-11.1
		c12.6-6.8,24.9-14.1,37.3-21.2c1.6-1,3.1-2.1,4.9-3.3c-1.5-1.4-2.9-2.6-4.3-3.8c-1.2,0.7-2.5,1.5-3.7,2.2c2.5-4.1,4.9-8.1,7.3-12.2
		c-0.6,1.8-1,3.6-1.7,5.4c-1.6,4.3-1.5,4.5,3.3,7c2.3-5.8,4.2-11.7,6.8-17.3c13-28.6,26.2-57.1,39.3-85.6c4.3-9.4,11.1-16.9,19-23.3
		c8.8-7,18-13.4,27.3-19.7c8.2-5.6,17.5-8,27.6-7.3c15.8,1,31.3,3.1,45.7,10.1c1.8,0.8,3.3,2.2,4.9,3.3c0.4,2.5-0.5,5.8,3.7,5.8
		c-0.5,1-1.6,2.2-1.5,3.2c0.7,9.6,1.7,19.2,2.7,30.2c3.8-3.4,6.8-6.2,9.8-8.9c0.2,0.2,0.5,0.3,0.8,0.5c-2,3.4-4,6.8-6.3,10.6
		c2.9,1.3,6.1,2.8,9.7,4.4c1.9-6.1,0.9-12.6,5.6-18.4c0.3,4.1,2.5,7.4-2.2,9.6c-0.9,0.4-1.2,3.6-0.6,5c0.8,1.8,2.5,4.2,4.2,4.5
		c5.2,0.9,7-1.2,6-6.5c-1.9-10.2-6.6-19.3-12.9-28.5c-3,4.2-5.6,8-8.3,11.8c-0.2-0.2-0.5-0.3-0.8-0.5c2.5-4.1,5-8.2,7.8-12.6
		c-2.4-5-3.8-5.8-10.1-5c-1.3,0.2-2.7,0.5-4.1,0.8c6.7-5.3,14.5-8.3,22.7-10.1c7.9-1.8,15.4-0.8,22.8,3.6c-1-1.2-1.8-2.7-3.1-3.6
		c-7.1-4.9-14.8-6.1-22.9-3.2c-6.4,2.3-12.7,5.2-19.1,7.7c-1.1,0.4-2.6-0.2-3.9-0.3c1.8-0.4,3.7-0.6,5.3-1.4
		c11.5-5.6,23.4-9.9,36.3-11.5c10.3-1.2,19.8,1,29,5c0.2,0.6,0.4,1.1,0.6,1.7c-7.7-4.3-16-6.2-25-5.6c2,0.6,4.1,0.9,6,1.7
		c5.1,2.2,10.5,4.1,15.2,7c5.6,3.5,9.2,8.7,10.8,15.5c9.6,39.8,19.5,79.5,29.3,119.3c0.1,0.2,0.3,0.4,0.5,0.8c1.7,0,3.6,0,5.7,0
		c-0.4-2.4-0.7-4.6-1-6.8l-0.1,0.1c0.8,2.2,1.9,4.4,2.2,6.7c0.1,1.1-1.2,2.4-1.9,3.6c0.4-0.7,0.7-1.5,1-2.3
		c-4.1-1.1-6.4,0.2-8.8,3.7c-10.3,15.2-25.1,24.7-41.9,31.4c-13,5.2-26.6,8-40.5,9.2c-2.1,0.2-4.3,0.5-6.4,0.7
		c-0.1,0.5-0.2,0.9-0.3,1.3c1.4,0.3,2.8,1.1,4.1,0.9c7.5-1.2,15-2.6,22.5-4c1.1-0.2,2.3-0.3,3.4-0.5c-6.7,1.8-13.3,3.5-19.8,5.2
		c3.9,0.3,8.1,0.5,12.2,1c3.9,0.5,7.7,1.3,12.1,2.1c-11.2-0.9-21.9-1.9-33.1-2.8C-48,403.7-48.6,416.1-54.4,427.7L-54.4,427.7z
		 M-72.4,235.7c2.7,0.4,5.5,0.6,8.2,0.8c-0.1-2.5-4.1-3.4-11.3-2.1c2.1-0.5,4.2-1.1,6.3-1.3c1.4-0.2,2.7,0.2,4.1,0.4
		c0.3-0.4,0.5-0.8,0.8-1.2c-1.3-1-2.3-2.4-3.7-2.8c-1.8-0.5-3.8-0.4-5.7-0.2c-4.2,0.5-4.9-0.1-4.4-5c3.8,0,7.7,0,12.6,0
		c-2.1-3.5-4.5-4.4-7.8-4.3c-2.7,0.1-5.3-0.3-8.4-0.6c1.2,7.7,2.4,16.3,3.5,23.7c4.8,0.5,8.6,1,12.4,1.4c-3.9,0-7.9,0-12.9,0
		c-1.3-8.2-2.7-17.7-4.2-27.1c5.3-0.9,10.7-1.8,15.9-2.6c-1.3-0.5-3-1.8-4.8-1.8c-3,0-3.8-1.7-4.7-4c-1.6-4.2-4.7-6.8-9.5-8
		c0.5,3.1,1,6,1.3,8c-7.4-3-14.8-7-22.7-8.8c-16.8-3.9-32.5,0-46.5,10c-4.8,3.4-8.4,7.8-10.5,13.4c-2.4,6.3-4.9,12.6-7.2,19
		c-1.6,4.4,0.2,6.7,4.7,6.7c-0.9-1.8-2.7-3.6-2.8-5.6c-0.1-1.9,1.3-4,2.2-5.9c1.9-4.2,3.8-8.4,5.8-12.5c0.7-1.3,1.8-2.4,2.7-3.6
		c0,0.5,0.1,1,0.2,2.8c2.7-3.4,4.7-6.1,6.8-8.8c-0.2-0.1-0.4-0.3-0.6-0.5c-1.5,1.3-2.9,2.6-4.3,3.9c3.4-3.2,6.8-6.3,10.2-9.5
		c-2.6,4.8-5.3,9.7-8.4,15.5c2.8-1.1,4.9-1.8,7-2.6c-2.3,1.5-4.5,3-6.7,4.6c-1.3,0.9-2.4,1.9-3.4,3c-3.3,3.8-6.7,7.7-9.9,11.6
		c-0.5,0.7-0.4,1.9-0.6,2.9c1-0.2,2.4-0.2,2.9-0.8c1.9-2.3,3.6-4.9,5.5-7.5c0,0.9,0,1.7,0,2.4c2.4-2.6,4.8-5.1,7.3-7.7
		c0.2,0.2,0.4,0.3,0.6,0.5c-3.5,5.4-6.9,10.7-10.3,16.1c0.4,0.3,0.7,0.6,1.1,0.9c1.3-1.3,3-2.4,4-4c6.7-10.6,13.8-21,23.5-29.4
		c-5.2,0-8.5,3.4-12.4,5.8c2.3-3.1,4.8-5.4,8.7-7.2c5-2.3,9.9-2.6,15-3.5c1.5-0.3,2.7-2.6,4.1-4c-0.3-0.6-0.5-1.1-0.8-1.7
		c-7.1,0.7-14.2,1.4-21.3,2.1c17.5-5.9,34.6-6.3,50.6,4.5c-2.3-1.1-4.6-2.2-6.9-3.2c-2.3-0.9-4.6-1.7-7.3-1.8c0.8,0.5,1.6,1,2.9,1.8
		c-1.4,0-2.3,0-3.1,0c-0.1,0.2-0.2,0.5-0.3,0.7c2.4,1.5,4.8,3.2,7.4,4.4c2.3,1,4.4,4.4,7.8,0.4c0.7,1.3,1.3,2.4,1.9,3.5
		c0.4-0.3,0.8-0.7,1.2-1c-1.3-1.6-2.5-3.3-3.8-4.9c2.4,2.1,4.8,4.2,7.2,6.3c-0.7-0.2-1.4-0.4-2.7-0.7c0.2,3.4,0.4,6.7,0.5,9.9
		c0.2,5.4,0.3,10.7,0.5,16.1c0.3,5.7-2.8,9.3-7.7,11.6c-7.8,3.7-16.2,4.4-24.7,4.2c-15.3-0.4-30.2-3-45.3-6.8
		c1.9,1.3,3.6,3.3,5.7,3.9c8.5,2.2,17,5,25.7,5.6c10.6,0.8,21.4-0.1,32-0.9c5.7-0.5,10.8-3.4,15.3-7.3c4.9-4.1,9.9-8.2,17-7.6
		c0.1,0,0.3-0.7,0.5-1.1c0.8,0.2,1.7,0.3,2.5,0.5c0.6-5.8-0.1-6.8-5.8-6.9c-1.5-0.1-3.1,0.1-4.6,0.1c-2.7,0-3.1-0.8-1.7-3.7
		C-75,234.7-74.1,235.5-72.4,235.7z M-102.9,264.3c-3.9,3.1-7.9,2.1-12.2,0.1c2.1-0.5,4.1-0.9,6.1-1.4c0-0.1,0-0.3,0-0.4
		c-12.1,0-24.3,0-36.4,0c8.2,5.5,22.4,8.7,33.5,6.6c-4.2-0.3-8.3-0.6-12.5-0.9c2.6-3.6,12.3-2.3,15.8,2.6
		c-7.1,0.6-13.9,1.2-20.6,1.8c0.1,0.4,0.1,0.9,0.1,1.3c10.6-0.5,21.3-1.1,32-1.6c0-0.2,0-0.3,0-0.4c-2.5-0.4-4.9-0.8-7.6-1.2
		c0.4-4.8,4.4-6.5,7.4-9c8,0,11.2-0.9,13.4-4.8c-4.5,1.6-8.9,3.2-13.4,4.8C-99.1,262.6-101.2,263.2-102.9,264.3z M-170.2,264.3
		c1.4,4.8,2.8,9.5,4.7,14.1c6.7,16.2,18.3,29.3,29.2,43.1c-0.3-1.1-0.3-2.3-0.7-3.3c-4.3-12.1-8.5-24.2-12.9-36.3
		c-0.4-1.2-1.5-2.3-2.5-3.2c-4.7-4.5-9.5-8.9-14.2-13.4c-0.9-0.9-1.2-2.3-1.8-3.5c8.5,4.8,17.5,8.2,27.2,9.5
		c2.6,0.4,5.4,0.1,8.1,0.1c0-0.4,0.1-0.7,0.1-1c-2.4-0.3-4.9-0.4-7.1-1.1c-7.6-2.5-15.2-5.2-22.7-7.9c-1.1-0.4-2.8-1.4-2.7-1.9
		c0.8-5.8-5.9-6.9-6.9-11.5c-0.1-0.4-0.6-0.7-1-1.1c-3.2,6.3-2.7,8.4,2.5,12.8c0.9,0.7,1.7,1.5,2.5,2.3
		C-170.9,261.3-170.7,263.2-170.2,264.3z M-35.8,300.2c6.2,7.6,12.1,14.8,18,22c0.4-0.1,0.7-0.1,1.1-0.2c0.1-1.6,0.2-3.1,0.3-4.7
		c0.7-0.1,1.9-0.1,2-0.4c3.8-10.4,7.5-20.8,11-31.3c0.3-0.8-0.7-2.7-1.6-3.1c-4.1-2-8.3-3.6-12.5-5.4c1.4,0.2,2.7,0.4,3,0.4
		c-2.5-7.5-5.1-15.4-7.9-23.6c-15.3,7.5-29.3,2.5-42.7-7.9c3.1,9.5,12.8,18.6,21.3,20.9c2.2,0.6,4.5,1.3,6.6,2.1
		c6.2,2.5,12.3,5.2,20,3.8c-1.2,1.3-1.8,2-2.5,2.7c0.9,0.7,1.7,1.3,2.4,1.9c-8.6-2.3-17.2-4.7-25.9-6.7c-4.8-1.1-8.2-0.3-12.9,2.3
		c4.5,1.6,10.1-2.2,12.7,2.9c-2.6-0.2-5.5-0.4-8.8-0.7c1.7,4.2,3,7.7,4.5,11c0.5,1,1.7,1.9,2.7,2.5c8.1,5.1,15.3,11.3,21.1,19
		C-27.4,305.1-29.6,300.4-35.8,300.2z M-77,280.4c-3.9-3.8-8.5-5.5-13.4-5.3c-7.8,0.4-15.8,0.6-23.2,2.5
		c-11.2,2.9-22.5,4.5-34.3,4.1c2.4,5.9,5.3,11.4,7,17.3c2.6,8.9,4.4,18.1,6.6,27.1c0.3,1.2,1,2.3,1.5,3.4c1.2-0.7,2.4-1.4,3.6-2.1
		c0.4-0.3,0.7-0.7,1.1-1c-0.7,2.3-1.4,4.5-2.1,6.9c1.9,0.3,3.3,0.5,4.3,0.7c6.5-8.6,12.7-17.2,19.5-25.5c6.5-8,14.5-14.3,23.5-19.4
		c0.9-0.5,3.4-0.4,1.7-2.7C-79.9,284.5-78.5,282.5-77,280.4z M-134.6,253c0.5-0.9,0.9-1.6,1.2-2.1c0.6,0.6,1.2,1.8,1.7,1.8
		c5.2-0.5,10.3-1,15.4-1.8c0.4,0,0.7-2.8,0.7-2.8c-5.6-1.5-3.4-5.6-3.1-9c2-0.5,4-1.5,5.6-1.1c1.6,0.4,2.7,2.3,5.6,4.3
		c-1.1,0.6-2.2,1.1-3.8,1.9c7,4.8,14.3,6,23,5.4c-5.4-2.8-10-5.1-14.6-7.5c0.1-0.5,0.3-1,0.4-1.5c2,0.3,4.3,0.2,6.1,1.1
		c1.9,0.9,3.4,2.8,5.3,4.1c-2.6-8.3-2.8-16.7-2.4-25.1c0.1-2.4-0.6-3.9-3-4.5c-6-1.5-12-3.1-17.5-4.5c-3.9,4.1-7.4,7.8-11.2,11.8
		c1.7,0.8,3.3,1.6,5.7,2.7c-14.7-0.2-21.9,9.5-28.7,19.4c-3.2,4.7-2.1,6.8,3.3,8.3c3.5,1,7.2,1.8,10.8,2.3c1,0.1,2.3-1,3.4-1.5
		c-0.2-0.4-0.4-0.9-0.6-1.3C-132.3,253.3-133.3,253.2-134.6,253z M-4.8,347.4c-3.9-0.5-6.4,1.9-6.1,5.8c0.2,3,0.6,6,0.8,9
		c0.1,2.1,0.9,2.7,3,3c3.3,0.5,6.5,1.8,9.8,2.4c2,0.4,4.6,0.8,6.1-0.1c9.7-6.3,18.3-13.9,24.2-24c2.4-4.1,1.1-7.6-2.9-10.1
		c-2.6-1.5-3.6-0.8-4.3,2.1c-0.3,1.3-1.6,2.7-2.8,3.2c-4.1,1.7-8.5,2.9-12.5,4.7c-1.5,0.6-2.4,2.7-3.3,4.2c-1.6,2.5-2.9,5.2-4.8,8.6
		C1.3,350.3-0.7,348.2-4.8,347.4z M-193.5,295.9c-3.5,6.4-2.4,13,4,17.1c9.2,5.9,18.9,10.9,28.5,16.2c1.8,0.9,3.7,1.6,5.7,2.5
		c-2.7-6.8-26.7-37.8-33.3-42.8C-190.4,291.4-192.3,293.5-193.5,295.9z M-106.5,329.5c6.8-9.1,13.5-18.1,20.2-27
		c-0.2-0.2-0.3-0.3-0.5-0.5c-2.9,1.8-5.8,3.5-8.7,5.2c-0.2-0.2-0.3-0.4-0.5-0.6c1.1-2,2.2-4.1,3.3-6.1c-0.2-0.2-0.4-0.5-0.6-0.7
		c-1.5,0.9-3.5,1.4-4.6,2.7c-8.2,10.1-16.2,20.3-24.2,30.6c-0.9,1.2-1.4,2.8-1.4,4.7c4.7-3.9,9.4-7.8,14.2-11.8
		C-108.1,327.5-107.4,328.3-106.5,329.5z M-171.6,290c9.7,12.9,19.9,25.3,29.8,37.9c1.2,1.5,2,3.3,3,4.9c0.8-0.5,1.5-1.1,2.3-1.6
		c-0.4-1.3-0.5-2.9-1.2-4c-3.9-6.2-7.6-12.4-12-18.2c-7.4-9.8-15.2-19.2-22.8-28.8c-0.8-1-1.7-1.9-2.5-2.8c-0.5,0.2-1.1,0.5-1.6,0.7
		C-174.9,282.1-174.1,286.7-171.6,290z M-68.5,267.1c0.5,1.6,1.8,3.3,3.2,4.1c1,0.6,3.1,0.1,4.2-0.7c0.5-0.4,0.2-2.6-0.4-3.7
		c-1-1.8-2.8-3.3-3.6-5.2s-0.7-4.2-1.1-6.5c4.5,4.3,8.7,8.5,12.9,12.6c0.3-0.3,0.6-0.6,0.9-0.9c-4.7-4.8-9.4-9.7-14.2-14.5
		c-1.7-1.7-3.7-2.5-5.6-0.3c-1.7,1.9-1.1,5.4,1.2,7.1c1.3,0.9,2.7,1.7,4.1,2.6c-0.3,0.2-0.7,0.3-1.1,0.5
		C-68.2,263.9-68.8,265.7-68.5,267.1z M-97.5,252.8c-4.4-1.9-8.3-3.8-12.4-5.3c-0.6-0.2-2.2,0.8-2.5,1.6c-1.7,4.4-3.6,5.7-8.1,4.8
		c-3-0.7-5.6-0.6-8.1,3C-117.8,256.1-107.6,257.3-97.5,252.8z M-13.1,243.8c5.6-4.8,7.1-18.9,2.5-26.8
		C-10.3,226.6-7.6,235.6-13.1,243.8z M-76.1,251.3c-0.3,0-0.6,0.1-0.9,0.1c1.1,7.6,2.3,15.3,3.4,22.9
		C-71.8,266.4-74.3,258.9-76.1,251.3z M-66.1,219.3c-1.4-4-7.8-4.7-13.4-0.7C-75.1,218.8-70.7,219.1-66.1,219.3z M-77.8,225.6
		c1,1.9,5.3,2.3,12.5,1.2C-66.6,224.5-72.8,223.8-77.8,225.6z M-55.6,275.1c-4.7-4.3-13.3-1.1-16.1,5.9
		C-67.7,275.8-62.4,273.8-55.6,275.1z M-87.3,271.7c0.4,0.4,0.9,0.8,1.3,1.2c1.7,0,3.9,0.5,5-0.4c1-0.9,1.2-3.2,1-4.8
		c-0.1-1.2-1.5-2.2-2.4-3.3c-0.6,0.2-1.1,0.4-1.7,0.6C-81.3,268.7-79.3,272-87.3,271.7z M-12.1,346.7c-1,1.8-1.1,4.2-0.8,6.3
		c1.6-2.4,3.2-4.9,5.3-8.1C-9.5,345.6-11.6,345.7-12.1,346.7z M-16.5,349.6c1.6-1.8,3.4-3.7,5.4-5.8
		C-16,342.3-17.4,343.9-16.5,349.6z"/>
	<path d="M-54.3,427.6c1.9,0.3,3.4,2.1,5.9,0.4c2.4-1.7,5.9-3.2,8.7-2.9c15.4,1.5,30.3,4.9,43.1,14.3c8.2,6,15.3,13.7,24.9,17.6
		c7.1,2.9,12.5,7.8,17.8,13c2.5,2.5,5.1,5,7.6,7.6c4.7,4.9,9.5,9.8,14.2,14.7c-0.2,0.3-0.5,0.6-0.7,0.9c-1-0.5-2.2-0.8-3-1.5
		c-3.5-3-6.8-6.3-10.3-9.2c-9.2-7.5-16.4-17.2-27-23.1c-3.9-2.2-7.8-4.5-11.5-7C1,442.8-14.4,435.5-31,430.9c-5.1-1.4-10.7-1.4-16-2
		c-0.1,0.4-0.1,0.8-0.2,1.2c1,0.2,1.9,0.5,2.9,0.8c17.5,5.1,35.1,10,50.2,21c5.2,3.8,10.3,8,15.7,11.6c3.5,2.4,8.1,3.3,11.5,5.8
		c9.1,6.9,17.9,14.3,26.8,21.6c0.6,0.5,1,1.2,1.4,1.7c-8.6,0-16.9,0-25.3,0c1.5-1.4,3.1-2.1,4.6-3c3.9-2.3,4.2-3.7,0.8-6.6
		c-7.7-6.6-15.5-13.2-23.7-19.3c-5.7-4.3-12.2-7.5-18.2-11.4c-5.9-3.8-12.3-5.8-19.5-7.4c3.1,11.7,11.1,21.6,9.9,34.4
		c-3.8-6.7-7.3-13.2-11-19.6c-3-5.2-6.8-9.3-12.6-11.8c-4-1.6-7.4-4.5-11.2-6.6C-50.3,438.3-53.1,433.5-54.3,427.6L-54.3,427.6z"/>
	<path d="M-241.2,235.1c-4.2-21.9-6.1-43.9-2.6-66.1c1.2-7.3,3.5-14.5,5.3-21.7c-0.3,1.7-0.6,3.5-1,5.2c-1.2,5.7-2.7,11.3-3.6,17.1
		c-2.6,16.3-1.9,32.6,0,48.8c0.7,6.2,2.1,12.4,3.2,19.1c2.7-2.7,4.7-4.8,6.8-6.8c4.4-4,8.8-7.9,13.2-11.9c-3.5,3.5-7,7-10.5,10.4
		c-3.6,3.5-7.3,6.9-10.9,10.4C-241.3,238.1-241,236.5-241.2,235.1z"/>
	<path d="M-187.5,84c12.5-6.5,25.9-9.5,39.8-11.1c7.4-0.8,14.7-1.9,22-2.5c6.6-0.5,13.3-1.6,19.8,1.1l0.1-0.1
		c-6-0.3-12.1-0.7-18.2-1c0,0.3,0,0.5,0,0.8c3.1,1.6,6.2,3.1,9.3,4.7c-4.8-1.5-9.5-2.9-14.3-4.4c-0.1,0.3-0.1,0.5-0.2,0.8
		c2.3,1.2,4.6,2.4,6.9,3.6c-3.9-1-7.9-2.6-11.8-2.7c-13.3-0.2-26.4,1.7-39,5.9c-6,1.9-11.7,4.6-17.6,6.9
		C-189.6,85.3-188.6,84.6-187.5,84z"/>
	<path d="M10.9,209.6c3.9,11.9,7.3,24,10.8,36.1c1.9,6.8,3.5,13.7,5.3,20.6h0.1c-1.9-6.1-3.8-12.2-5.6-18.4
		c-3.4-11.5-6.9-23.1-10.1-34.7c-1.3-4.6-3.9-8.1-7.5-11.1c-0.2-0.6-0.4-1.1-0.6-1.7c-2.2-2.3-4.4-4.7-6.6-7
		C2.8,197.7,8.5,202.5,10.9,209.6z"/>
	<path d="M51.5,416.2C37.7,408.9,22.2,408,7,405.5c10.1,1.1,20.2,2.3,30.1,4.5C42.1,411.2,46.7,414.1,51.5,416.2L51.5,416.2z"/>
	<path d="M-16,160.4c1.7,7.7,2.6,15.5,3.9,23.3c-0.6-1.3-1.5-2.6-1.7-4c-0.8-4.6-1-9.4-2-14c-1.6-7.7-3.7-15.3-5.6-23
		C-19.5,148.6-17.3,154.4-16,160.4z"/>
	<path d="M-280.8,343c-3.6,10.8-7.2,21.7-10.8,32.5C-288,364.7-284.4,353.8-280.8,343z"/>
	<path d="M35.5,297.2c-2.5-8.9-5.1-17.6-7.5-26.3c-0.4-1.4-0.6-2.9-0.8-4.4h-0.1c0.6,1.7,1.4,3.4,1.9,5.2
		C31.2,280.2,33.3,288.7,35.5,297.2L35.5,297.2z"/>
	<path d="M-105.7,71.4l-0.1,0.1c1.3,0.2,2.7,0.4,4,0.8c4.1,1.2,8.2,2.4,12.3,3.8c2.3,0.8,4.5,1.8,6.8,2.7C-86.3,77.9-90,77-93.8,76
		c0.8,1.7,1.5,3.1,2.1,4.4C-95,75.3-100.7,73.8-105.7,71.4z"/>
	<path d="M-254.7,275.2c-2.8,7.3-5.7,14.7-8.5,22C-260.4,289.9-257.6,282.5-254.7,275.2z"/>
	<path d="M-21.4,384.7c6.9-2.3,13.9-4.7,20.9-7C-7.5,380-14.4,382.4-21.4,384.7z"/>
	<path d="M-198.4,450.7c5.8-2.3,11.6-4.7,17.4-7c0.1,0.2,0.2,0.5,0.3,0.7c-5.8,2.3-11.6,4.7-17.4,7
		C-198.2,451.2-198.3,450.9-198.4,450.7z"/>
	<path d="M-226,476.9c4-4.1,7.9-8.2,11.9-12.3c-1.8,2.6-4.1,4.6-6.4,6.6c-2,1.8-3.9,3.7-5.8,5.5C-226.2,476.8-226.1,476.9-226,476.9
		z"/>
	<path d="M51.6,416.1c5.1,3.4,10.2,6.7,15.4,9.9l0.1-0.1C61.9,422.7,56.8,419.4,51.6,416.1C51.6,416.1,51.5,416.2,51.6,416.1z"/>
	<path d="M45.4,334c-1.7-6.7-3.5-13.4-5.3-20.1L40,314C41.8,320.7,43.6,327.3,45.4,334L45.4,334z"/>
	<path d="M-263.1,297.1c-2.3,5.9-4.7,11.9-7,17.8C-267.8,308.9-265.5,303-263.1,297.1z"/>
	<path d="M-270.1,314.6c-2.2,5.5-4.4,10.9-6.6,16.3C-274.5,325.5-272.2,320.1-270.1,314.6z"/>
	<path d="M-243.2,245.6c-1.5,4.3-3,8.7-4.6,13c-0.4,1.1-1.3,2.1-2,3.2C-247.6,256.4-245.4,251-243.2,245.6z"/>
	<path d="M40.1,314.1c-1.5-5.7-3-11.4-4.5-16.9h-0.1C37,302.8,38.6,308.5,40.1,314.1L40.1,314.1z"/>
	<path d="M15,370.1c4.6-2.8,9.1-5.7,13.7-8.5C24.2,364.4,19.6,367.3,15,370.1z"/>
	<path d="M-21.3,142.9c-2.1-5-4.1-10.1-6.2-15.1C-25.4,132.8-23.3,137.8-21.3,142.9z"/>
	<path d="M67.1,426c3.9,2.6,8,5.2,12,7.8c-0.2,0.4-0.5,0.7-0.7,1C74.6,431.9,70.9,428.9,67.1,426C67.1,426,67,426.1,67.1,426z"/>
	<path d="M-29.4,335.1c0.9,1.1,2.2,1.8,3.3,2.7c0,0.3,0,0.6,0,0.9c0.1,0.5,0.1,0.9,0.1,1.4c-0.8-0.7-1.7-1.3-2.9-2.3
		c0.6,3.2,1.1,6.1,1.6,9.1c-3.5,0-6.3,0-9.3,0c-2.1-9.5-4.2-18.7-6.3-28C-38.3,324.3-33.9,329.8-29.4,335.1z"/>
	<path d="M-144.4,194.5c9.6-3.9,19.7-7.3,30.1-5.3c11,2.1,21.7,5.6,32.5,8.5c1.4,0.4,2.8,0.8,4.6,1.3c-0.6-5.5-1-10.5-1.7-15.4
		c-0.1-0.8-0.9-1.8-1.7-2.3c-14.7-10.7-30.8-15.9-49-12.8c-6.3,1.1-12.5,2.3-18.8,3.4c23.2-7.6,45.7-7.4,67.4,5.8
		c-8.2-30.1-14.8-60.2-25.7-89.1c2.3,5,5.4,9.8,7,15.1c9,30.3,17.7,60.7,26.5,91c0.4,1.5,1,2.9,2.3,4.1c-1-4.1-1.9-8.3-2.8-12.4
		c1,3.1,2.1,6.2,3,9.3c1.7,5.9,4.4,7.5,10.2,5.8c2.5-0.8,5.2-1.3,7.7-2.1c1-0.4,1.9-1.3,2.8-2c-0.1,0.8,0.1,2-0.2,2.2
		c-2.5,1.2-5.3,2-7.7,3.4c-3.9,2.4-7.5,1.6-11.3,0.3c-9.5-3.3-19-6.5-28.6-9.6c-13.1-4.2-26.3-5.7-39.7-0.9c-4.1,1.5-8.3,3-12.5,4.5
		C-148.2,196.4-146.4,195.4-144.4,194.5z"/>
	<path d="M-160.9,176.6c-5.3,2.5-10.6,5.1-15.9,7.7C-171.5,181.7-166.2,179.1-160.9,176.6z"/>
	<path d="M-38.5,157.2c3.1,4.1,5.3,8.7,7.9,13.1c2.9,4.9,5.4,10.3,11.8,12c-11.3-2.6-22.6-2.6-34-0.3c0-0.4,0-0.9,0-1.4
		c8.6-0.4,17.3-0.8,25-1.1C-31.1,172.7-34.8,165-38.5,157.2z"/>
	<path d="M-66,146.7c1.8,5.7,3.2,11.5,4.7,17.3c-2.5-8.2-5.2-16.4-7.7-24.7c-1.6-5.4-3.1-10.7-4.6-16.1C-71,131-68.3,138.8-66,146.7
		z"/>
	<path d="M-79.7,106.4c-3.6-8.3-7.2-16.5-10.8-24.7C-86.9,90-83.3,98.2-79.7,106.4z"/>
	<path d="M-98.6,427.2c-15.2,1.4-28.9-2.2-41.1-11.3C-127,423.3-113.2,426.4-98.6,427.2z"/>
	<path d="M-131.5,380c8.1,4,16.2,7.9,24.2,12.2c2,1.1,3.4,3.4,5.1,5.2c-0.3,0.3-0.6,0.5-0.9,0.8c-10.2-9.3-22.7-14.4-34.8-20.5
		C-135.8,378.5-133.6,379.2-131.5,380z"/>
	<path d="M-155.5,419.4c-4.4,4-17.2,0.1-26.7-7.7C-173.8,415.6-166,421.2-155.5,419.4z"/>
	<path d="M-70.3,300.8c5.9,0,11.2,0,16.5,0c-0.6,0.8-1.3,1.5-1.8,2.1c2.9,3.9,5.9,8,8.9,12c-0.7-0.5-1.5-0.9-2.6-1.5
		c1.6,11.4,3.2,22.3,4.8,33.4c-3.6,0-6.6,0-9.8,0c-1.6-15-3.2-29.7-4.8-44.3c-2.6,0-4.6,0-6.7,0c1.3,14.9,2.5,29.5,3.8,44.4
		c-3.2,0-5.9,0-8.7,0c-1.3-13.6-2.7-26.9-4-40.3c-0.7,0.3-1.2,0.5-2.5,1.1c3.3-4.9,6-9.2,8.8-13.4
		C-68.9,296.4-69.5,298.6-70.3,300.8z"/>
	<path d="M-91.4,364.8c0.5-0.6,0.8-1.2,1.2-1.8c-0.2-0.3-0.4-0.5-0.6-0.8c-2.7,1.9-5.3,3.7-8.3,5.8c0.8,0.4,1.2,0.7,1.2,0.6
		c4.1-4.5,8.1-1.6,12.1,0.3c-1.9,1.2-3.8,2.5-5.7,3.7c-1.3,0.8-2.7,1.3-4,2c0.1,0.3,0.3,0.7,0.4,1.1c4.2-2.5,6.8,0.7,9.9,2.4
		c-1.1,0.9-2,1.5-2.9,2.2c-0.4,0.2-0.9,0.5-1.3,0.7c-0.8,0.1-1.6,0.2-3.3,0.5c2.8,1.8,4.8,3.1,7.1,4.6c-0.8,0.5-1.2,0.7-1.6,1
		c-0.4,0.4-0.8,0.8-1.5,1.4c6.8-0.6,6.8-0.6,8.7,1.5c-2.1,0.9-4.1,1.8-6.8,3c4.2,0.7,7-3.6,11.3-0.9c-1.9,0.8-3,1.3-4.2,1.7
		s-2.5,0.7-3.7,1c0,0.3,0.1,0.6,0.2,0.9c2.5-0.6,5.1-1.1,7.6-1.7c-5.3,3.5-10.5,2.8-12-0.5c-3.6-8-7.8-15.7-11.6-23.6
		c-2.8-5.8-2.3-6.9,4.2-7.3c10.7-0.6,21.4-1,32.1-0.7c9.3,0.2,18.6,1.4,27.9,2.1c0.1,0.4,0.1,0.7,0.2,1.1c-0.9,0.4-1.9,0.8-2.8,1.2
		c-0.1-0.5-0.2-1.1-0.3-1.6c-2.7,0.7-5.7,0.7-7.9,2.1c-3.9,2.4-7.1,1.2-10.8-0.7c1.3-0.9,2.4-1.7,4.1-2.8c-1.4,0-2.2-0.3-2.6,0
		c-3.9,2.9-7.7,1-11.5-0.3c-0.8-0.3-1.8-0.9-2.5-0.6c-4.4,1.6-8.9,2.8-13.4-0.7c-0.1,0.4-0.1,0.7-0.1,1.1c1.5,0.9,3.1,1.8,4.7,2.7
		c0,0.3-0.1,0.7-0.1,1c-2.6,0.6-5.1,1.2-7.6,1.8C-87.6,367.2-89.5,366-91.4,364.8z"/>
	<path d="M-89,327.3c-0.9,0.5-1.4,0.7-2.7,1.4c3.9-5.7,7.3-10.4,10.5-15c1.4,11.2,2.7,22.5,4.1,33.9c-3.5,0-6.3,0-9.4,0
		C-87.3,340.6-88.1,334-89,327.3z"/>
	<path d="M-91.9,347.9c-2.4,0-4.6,0-6.7,0c-0.4-2-0.8-3.6-1.2-5.4c-0.9,0.5-1.4,0.8-2.7,1.5c3.4-4.8,6.2-8.8,8.3-11.8
		C-93.5,337-92.7,342.3-91.9,347.9z"/>
	<path d="M-50.6,291.3c-0.7-2.8-1-5.7-1.5-8.5c1.6,6.4,3.1,12.9,4.7,19.3c-0.9-1-1.7-2-2.6-3.1c-1.3,0.7-2.4,1.3-3.6,2
		C-50.8,298.4-49.5,295.3-50.6,291.3z"/>
	<path d="M-81.2,286.2c-3.6,1.7-7.2,3.3-10.8,5c-1.6,0.5-3.3,0.9-5,1.3C-91.7,290.5-86.4,288.4-81.2,286.2z"/>
	<path d="M-124.3,247.3c0-3.8,0-7.7,0-11.7c-1.8,0-3.1,0-4.5,0c0-0.1,0-0.2,0-0.3c1.7,0,3.3,0,5.1,0c0,4.2,0,8.1,0,12
		C-123.9,247.3-124.1,247.3-124.3,247.3z"/>
	<path d="M-16,310.7c0.3,0.1,0.5,0.1,0.8,0.2c1-2.8,2.1-5.5,3.1-8.3c1.6-4.6,2.9-9.3,4.8-13.7c1.5-3.3,0.3-4.8-2.7-6
		c-1.6-0.6-3-1.5-4.4-2.3c2,0.6,4.1,1.2,6.1,1.7c2.8,0.7,3.6,2.3,2.6,5.1c-2.7,7.9-5.2,15.9-7.9,23.9c-0.4,1.2-1.2,2.3-2.1,3.8
		c-1.7-2.4-3-4.3-5-7.1c1.6,1.1,2.3,1.5,2.9,1.9c-0.5-2.7-1.5-5.3-1.3-7.8c0.4-7.3,1.3-14.6,2.1-22.2c0.3,0.1,1.5,0.4,2.6,0.7
		C-15,290.6-15.5,300.6-16,310.7z"/>
	<path d="M-31.4,296.8c0.3-0.1,0.7-0.1,1-0.2c0.2-3.5,0.4-7,0.5-10.5c0.2-3.3,0.2-6.7,0.2-10c0.5,0,1.1,0.1,1.6,0.1
		c0,7.7,0,15.4,0,23.2C-29.1,298.6-30.2,297.7-31.4,296.8z"/>
	<path d="M-30.1,268.4c3.2,0.8,6.3,1.6,9.5,2.4c-0.2,0.6-0.3,1.1-0.5,1.7c-3.1-0.9-6.3-1.9-9.4-2.8
		C-30.4,269.3-30.2,268.9-30.1,268.4z"/>
	<path d="M-96.4,106.9c-2-6.4-4.3-12.7-6.4-19.1c3.1,8.4,6.4,16.6,9.1,25.1c2,6.1,3.2,12.5,4.8,18.8
		C-91.4,123.5-93.8,115.2-96.4,106.9z"/>
	<path d="M-79.4,167.1c-2.3-8.3-4.3-16.5-6.4-24.8c1.6,5.6,3.5,11.1,5,16.7c2.5,9.2,4.9,18.4,7.3,27.6
		C-75.5,180.1-77.6,173.7-79.4,167.1z"/>
	<path d="M-77.9,374.3c-5.8,3.5-6.3,3.5-12.3-0.8C-83.7,369.7-82.1,369.8-77.9,374.3z"/>
	<path d="M-69.7,370.1c-4.1,4-8,2.8-11.9-0.4C-76.2,365.8-74.3,365.9-69.7,370.1z"/>
	<path d="M-61.7,374c-5.8,3.7-5.9,3.7-11.5-0.2C-66.7,370.1-65.8,370.1-61.7,374z"/>
	<path d="M-78.1,382c-5.4,4-8.3,3.7-11.5-1.2c0.4-0.2,0.9-0.5,1.3-0.7C-84.4,378.3-81.1,379-78.1,382z"/>
	<path d="M-81.4,377.8c5.5-3.6,5.8-3.6,11.4,0.4C-76,381.7-76.5,381.7-81.4,377.8z"/>
	<path d="M-62.7,382.3c-3.7,3.6-5.2,3.6-10.3-0.2C-67.9,378.5-67.4,378.5-62.7,382.3z"/>
	<path d="M-64.2,369.7c3.5-3.4,7-2,10.6,0.1C-58.4,373.5-59.7,373.5-64.2,369.7z"/>
	<path d="M-70.6,386.2c-3.7,1.2-6.9,4.2-10.5,0.2C-77.3,382.3-75.3,382.2-70.6,386.2z"/>
	<path d="M-64.9,377.8c3.1-1.1,5.8-4.7,9.7-0.9C-60.1,381.5-60.2,381.5-64.9,377.8z"/>
	<path d="M-73.4,365.7c4.1-3.6,7.3-0.7,10.9,0.6C-66.7,370.6-69.8,367.5-73.4,365.7z"/>
	<path d="M-48.3,371.9c-4.5,4-4.5,4-8.1,1.4C-53.3,373.2-51.6,369.4-48.3,371.9z"/>
</g>
</svg>
