<?xml version="1.0" encoding="utf-8"?>
<!-- Generator: Adobe Illustrator 20.0.0, SVG Export Plug-In . SVG Version: 6.00 Build 0)  -->
<svg version="1.1" id="Слой_1" xmlns="http://www.w3.org/2000/svg" xmlns:xlink="http://www.w3.org/1999/xlink" x="0px" y="0px"
	 viewBox="0 0 359.2 447.7" style="enable-background:new 0 0 359.2 447.7;" xml:space="preserve">
<style type="text/css">
	.st0{fill:#222220;}
</style>
<g>
	<path d="M240,150.4c2.4-2.4,4.1-4.9,6.4-6.1c3.1-1.6,6.8-2.2,10.3-3.2c0.8-0.2,1.7-0.4,2.4-0.9c4.9-3.3,11.5-0.9,14.8,1.9
		c0.4,0.3-0.2,2-0.7,2.8c-0.3,0.4-1.5,0.5-2.2,0.2c-6.4-2.1-11.5,1.8-17.1,3.5c-0.3,0.1-0.4,0.4-0.9,1c5.7,0.7,11.1,1.4,15.1,6.1
		c1.9-2,3.5-3.7,5.1-5.5c0.2,0.1,0.4,0.2,0.6,0.3c-0.6,1.3-1.3,2.6-1.9,3.9c-0.6,1.5-1.7,3,0.9,4.2c0.7,0.3,0.6,2.6,0.7,4
		c0.1,1,0,2.1,0,4.2c-1.2-1.3-2.4-2.1-2.9-3.2c-3.1-6.2-8.1-9.4-14.9-10.2c-2.9-0.3-5.2,0.4-5.8,3.1c4.7,1.4,9.4,2.7,14.1,4.2
		c3.7,1.2,5.4,4.3,6.7,7.6c0.2,0.5-0.3,1.3-0.5,2c-1.3-0.6-2.8-1-3.7-2c-2-2.1-3.7-4.5-5.3-6.5c-1.2,2.7-1.8,5.2-3.2,7.2
		c-0.8,1.2-2.7,2-4.2,2.1c-4.6,0.4-7.4-3.3-7.9-9.7c-1,1.4-2,2.9-3.3,4.9c-0.3,0-1.3,0.2-2.6,0.4c0.1-0.9,0.2-1.7,0.4-2.6
		c-0.7,0.4-1.3,0.7-1.7,0.8c-0.6-0.7-1-1.2-2.1-2.6c2.2-3.1,4.9-6.9,7.7-10.9C243.4,151.5,242.2,151.2,240,150.4z"/>
	<path d="M232.1,239.6c2.9-1.3,5.7-2.9,8.7-3.9c1.1-0.3,3.4,0.4,4,1.4c1.8,2.7,3.1,5.6,6.5,6.6c-2.1,2.8-4.8,3.3-7.1,2
		c-1.5-0.9-3.3-1.2-5.1-1.5c-0.9-0.2-2,0.2-2.9,0.4c-5.9,1.6-11.7,2.2-17.7,0.7c-4.5-1.1-8.8-0.2-12.9,1.8c-2.9,1.4-5.5,1-8.2-0.3
		c0.4-3.7,1.3-4.2,4.6-4c1.3,0.1,2.8-0.9,4.1-1.7c4.3-2.6,8.5-5.3,13.7-5.2c1.4,0,2.7,0.7,4.1,1.1c-1.8,0.3-3.5,0.6-5.3,0.8
		c0,0.4,0.1,0.7,0.1,1.1c2.5,0,4.9,0,7.8,0c-1.1-0.8-1.9-1.4-2.7-2C226.5,237.8,229.3,238.7,232.1,239.6c3.8-0.3,7.4-0.5,11.1-0.7
		c0.1-0.4,0.1-0.7,0.2-1.1c-1.7-0.2-3.5-0.8-5.1-0.5C236.1,237.7,234.1,238.8,232.1,239.6z"/>
	<path d="M239.7,254.1c-1,0.5-1.9,1-3.4,1.7c1.1,0.3,1.9,0.5,2.6,0.7c-0.4,3-2.9,5.1-6.5,5c-5.2-0.2-10.4-0.6-15.6-1.2
		c-2.7-0.3-3.5-2.5-4.1-5.1c1.6-0.1,3.1-0.1,4.7-0.2c0-0.8,0-1.5,0-2.3c7.5,0,14.8,0,22.2,0C239.6,253.2,239.6,253.6,239.7,254.1z"
		/>
	<path d="M205,9.1c-2.3,2.7-4.3,5.1-6.3,7.5c-0.3-0.3-0.6-0.7-1-1c3.5-3.2,5.2-8.5,11-9.2c1.1-0.1,2.3,0.6,3.5,0.9
		c-0.3,0.9-0.4,2.1-1,2.8c-4.8,5.7-10,10.9-18.1,10.7c-3.6-0.1-7.2-0.8-10.8-1.3c-8.5-1.3-17-2.8-25.5-4c-3.8-0.5-7.6-0.3-11.4-0.5
		c-1.4-0.1-2.8-0.7-4.2-1c0.1-0.3,0.1-0.7,0.2-1c3.1,0.2,6.3,0.3,9.4,0.6c13.3,1.4,26.6,2.9,39.9,4.4c4.4,0.5,8.6-0.2,12.5-2.2
		C205.6,14.6,206.5,12.6,205,9.1z"/>
	<path d="M234.3,213.8c0.9-1.9,2.2-2.6,4.2-0.6c-2,2.6-3.5,5.4-7.2,5.9c-3.5,0.5-4.9-0.9-3.7-4.9c-3.2,0.5-6.4,0.6-9.1,1.6
		c-2.6,1-3.9-0.6-4.5-2c-0.8-2,1-2.7,2.8-3c1.6-0.2,3.2-0.7,4.6-1.3c2.3-1,4-0.6,5.3,1.6c0.8,1.3,1.8,2.4,3.1,4.1
		c0.1-1.2,0.2-1.8,0.3-2.7C231.5,213,232.8,213.4,234.3,213.8z"/>
	<path d="M268,174.3c-2.3,1.9-4.7,3.8-6.3,5.1c-2.7-0.2-4.8-0.5-6.9-0.4c-3.5,0.1-5.5-1.7-5.6-5.3c6.2,2.9,12.3,4.6,18.4-0.3
		C267.7,173.7,267.9,174,268,174.3z"/>
	<path d="M250.5,51.2c3.9,0.7,6.2,3.2,7.7,6.6c-0.2,0.3-0.5,0.5-0.7,0.8C255.2,56.1,252.9,53.6,250.5,51.2
		C250.6,51.1,250.5,51.2,250.5,51.2z"/>
	<path d="M79.5,159c-2.3,0.5-4.5,1.1-6.6,1.6c1.2-2.9,3.8-4.1,7.5-3.1C80,157.9,79.7,158.5,79.5,159C79.4,159.1,79.5,159,79.5,159z"
		/>
	<g>
		<path class="st0" d="M72.9,163.3c0.5,0,1-0.1,1.6-0.1c-0.1-0.2-0.1-0.4-0.2-0.6C73.7,162.8,73.3,163.1,72.9,163.3z"/>
		<path class="st0" d="M336.5,363c0.5-3.1,0.3-3.4-2.2-2.6c-3.9-7.2-11.2-14.7-14-14.7c0.7,1.8,1.5,3.8,2.3,5.7
			c-0.4,0.2-0.9,0.4-1.3,0.6c-1.8-3.4-3.6-6.9-5.5-10.3c-0.7-1.2-1.5-2.2-2.3-3.4c1.5-0.1,3-0.2,5.4-0.3c-7.7-7.2-14.9-14-22.2-20.5
			c-1.3-1.2-3.4-2.1-5.1-2.1c-3.4,0-4.4-2.3-5.7-4.7c-0.9-1.6-2.5-2.9-4-4.1c-1-0.9-2.4-1.4-3.4-2.3c-6.3-5.5-11.4-12.4-19.9-15.2
			c-0.2,0.6-0.6,1.3-0.7,2c-0.7,4.2-1.2,8.5-2.1,12.7c-0.3,1.3-1.6,2.7,0.5,3.8c-2.2-0.7-1.8,1.1-2.2,2.2c-0.8,2.6-1.6,5.3-2.7,7.9
			c-3.2,8-8.9,12.7-17.5,14.1c-10,1.7-19.7-0.1-30.3-1.9c2.8-0.5,4.9-0.6,6.7-1.2c1.2-0.4,2.1-1.7,3.3-2.2c2.4-1,4.9-1.8,7.4-2.7
			c-0.3-0.8-0.8-1.8-0.7-2c3.2-2.8,6.5-5.5,9.9-8.3c-0.4-0.3-1.1-0.8-2.1-1.6c2.6-1.7,4.8-3.2,6.4-4.3c-0.6-1.6-2.2-3.9-1.7-4.6
			c2.8-3.4,6-6.5,9.2-9.6c2-1.9,4.2-3.7,7-6c-6.3,1.1-11.5,2.1-16.7,2.9c-0.9,0.1-2.1,0.1-2.8-0.4c-2.3-1.4-4.5-2.8-7.4-1.7
			c-0.9,0.4-1.9,0.6-2.9,0.6c-4.5,0-9-0.3-13.4-0.2c-4.8,0.2-9-1.4-12.7-4.2c-2.6-2-3.2-6.1-7.1-6.7c-0.2,0-0.2-0.8-0.5-1.1
			c-0.4-0.6-0.8-1.3-1.4-1.6c-3-1.7-6.7-2.7-9.1-5.1c-4.1-4.1-10.3-6-12.7-11.9c-5-1.7-7-6.3-10-10.1c-0.1-0.1-0.4,0-0.6,0
			c1,3,1.6,6.2,3.1,8.9c4.1,7.1,10.2,12.3,16.2,17.8c2.2,2,5.4,3.6,5.4,6.8c-1.3,0.7-2.8,1.4-2.8,1.6c0.4,1.2,0.9,2.5,1.8,3.3
			c1.9,1.7,4.2,3,6.2,4.7c2.9,2.5,5.9,4.9,8.5,7.7c2.7,2.8,4.9,6.1,7.5,9.1c1.6,1.8,3.8,3.3,4.8,5.4c1,2.2,2,3.2,4.4,2.7
			c0.8-0.2,1.8,0.1,2.7,0.2c-4.3,2.9-8.2-0.5-12.9-0.6c1.8,1.5,3.1,2.5,4.4,3.6c-0.1,0.2-0.3,0.5-0.4,0.7c-4-1.5-7.9-3.1-12.8-4.9
			c2.7,2.8,4.5,5.2,6.7,7c1.6,1.3,2.5,2.2,0.1,3.8c2.8,1.2,5.1,2.2,7.5,3.3c-0.8,0.5-1.5,0.6-2.1,0.5c-11.1-2.7-22.2-5.2-33.2-8.2
			c-7-1.9-13.4-5.1-19.4-9.3c-7.2-5.2-10.6-12.9-14.8-20.1c-1.3-2.2-3-4-2.5-7.4c2.1-12.2,1.2-24.5,0-36.8
			c-1.2-12.2-2.2-24.4-0.1-37.2c-2.5-0.3-5.1-2.4-8.1-0.1c-0.7,0.5-2.4,0.5-3,0c-2.4-2.1-4.7-4.5-4.5-8.3h3.4
			c0.3-1.4,0.7-2.9,1.2-5.3c4.4,3.4,8,6.3,11.7,9.2c-0.1,0.2-0.1,0.4-0.2,0.6c-1.6-0.2-3.2-0.4-4.8-0.6c-0.1,0.3-0.1,0.6-0.2,0.9
			c3.4-0.2,5,1.5,5.4,4.6c0.2,1.3,0.7,2.6,1.4,3.7c0.5,0.8,1.7,1.8,2.5,1.8c3.1-0.3,6.3-1,9.7-1.7c0.5-5.5-3.4-9.8-5-14.9
			c-0.6-1.9-1.2-4-1.4-6c-0.1-1.1,0.5-2.3,0.7-3.4c-0.1,0-0.2-0.1-0.4-0.1c-0.6,1-1.2,1.9-1.7,2.9c-0.3-0.1-0.6-0.2-0.9-0.3
			c1.3-5.3,2.2-10.7,4.1-15.8c1.7-4.7,4.9-8.6,10.1-9.9c2.4-0.6,5-0.6,7.7-0.8c0.3,0.8,0.7,1.9,0.9,2.5c3.2-0.5,6.1-0.9,9.4-1.4
			c-0.2,1.9-0.3,3.5-0.5,5.7c7.2-3,12.2,0.7,17,5.5c0.3-0.5,0.7-1.1,1.2-1.7c0.1,0.3,0.2,0.7,0.3,1c1.8-0.3,3.5-0.7,5.3-1
			c0.1-0.5,0.2-1,0.3-1.5c-5.4-1.2-12-0.1-14.7-6.5c0.6,0.5,1.2,1,1.8,1.5c0.5-1.4,0.9-2.7,1.4-4.1c4.2,5,6.3,6.1,10,4.9
			c3.5-1.2,5.4-4.4,5.5-9.8c5.4,0.7,8.6,5,13.5,7.9c-0.7-2.2-1.3-4.2-2-6.4c3.3,0.7,6.4,1.3,9.5,1.9c-0.6-2-0.9-3.8-1.6-5.4
			c-1.4-2.9-3.2-5.7-4.6-8.7c-0.3-0.6,0.4-2.1,1-2.6c3-2,1.5-3.6-0.3-5.2c-1.9-1.8-3.9-3.4-6.7-6c10.3-2.1,19.9-4,29.4-6
			c2.6-0.5,5.6-0.7,7.8-2c5.3-3.1,10.8-5.1,17-5.3c2-0.1,3.9-1.7,5.9-2.7c0.5-0.3,1-0.8,1.6-0.9c4.8-1,9.7-2,15-3
			c2.2,7.7,3.9,16,2.6,24.4c-1.8,11.8-1.9,23.6-0.5,35.4c1.6,12.6,1.4,25-2.6,37.2c-0.1,0.4,0.1,0.9,0.1,1.4
			c0.3,0.1,0.5,0.2,0.8,0.3c1.1-1.8,2.7-3.6,3.2-5.6c1.6-6.3,2.7-12.6,4.1-19.4c2.2,2.9,4.7,5.1,8.7,4.9c4.5-0.2,4.7-4.5,7.1-6.6
			c4.2-3.6-1.2-6.3-0.6-9.7c0.8,0.3,1.6,0.5,2.5,0.8c1.6-2.9,3.2-5.5,4.3-7.5c-0.4-0.9-0.9-1.4-0.8-1.7c0.6-1.4,1.6-2.7,2.1-4.1
			c1.1-3.2,2-6.4,3.1-9.9c-2.6,2-4.6,3.5-6.6,5c-0.3-0.4-0.7-0.8-1-1.2c0.7-0.7,1.4-1.6,2.2-2.2c4.6-3.6,5-8.8,0.6-12
			c-2-1.4-3.1-2.8-2.7-5.2c1.1-0.2,2.2-0.3,3.1-0.5c0.7-2.4-2.3-4.4,0.2-6.4c-2-4.1,1.1-3.6,4.1-3.6c-1.9-0.4-3.1-0.7-3.7-0.9
			c0.1-1.9,0.7-3.6,0.2-4.6c-0.7-1.2-2.4-2-3.8-3c0.7-0.4,1.6-0.9,2.4-1.4c-1.9-1.1-3.7-2-5.8-3.1c5.4-1.5,10.3-2.5,15-4.1
			c2.5-0.9,4.5-3.4,7-4c3.7-0.9,2.7-4.1,3.7-6.2c0.4-0.8-1.2-2.8-2.3-4c-0.9-1.1-2.2-1.8-3.3-2.6c4.4,0.7,8.1,2.2,7.9,7.7
			c1-1,1.5-1.8,2-2.6c2.2-3.8,1.9-4-1.5-6.7c-2.4-1.9-6-2.2-7.4-5.4c0-0.1-0.4,0-0.8,0c0.2,0.6,0.4,1.2,0.9,2.5
			c-1.8-0.8-3.2-1.1-4.1-1.9c-5.3-4.1-11.7-5-18-5.6c-4.8-0.4-9.6,0.6-14.5,0.8c-2,0.1-4.1-0.2-6.2-0.3c-2.2-0.1-4.4,0-6.6,0v0.6
			c1.2-0.1,2.5-0.2,3.7-0.3c0,0.3,0.1,0.6,0.1,0.9c-4.7,0.6-9.3,1.2-14,1.9c-0.1-0.3-0.1-0.6-0.2-1c1.1-0.5,2.2-1,3.3-1.5
			c-0.1-0.1-0.1-0.3-0.2-0.4c-4.8,1.3-9.6,2.5-13.6,3.6c-1.7-0.2-2.6-0.6-3.5-0.4c-2.3,0.6-4.6,1.8-6.9,1.9
			c-3.3,0.2-6.4,0.1-9.2,2.3c-0.3,0.2-1.2-0.3-1.8-0.5c1.3-1.1,3.3-1.1,3.8-1.9c1.9-3.2,4.9-2.7,7.8-3c2.6-0.3,5.3-0.5,7.9-1.2
			c5-1.4,10-3,15-4.5c3-0.9,6.1-1.8,9.1-2.7c-0.1-0.4-0.2-0.8-0.2-1.2c-13.3,2.2-26.5,4.5-39.8,6.7c-0.1-0.5-0.2-1-0.2-1.5
			c11.4-2,22.8-4,34.2-6c0-0.3-0.1-0.5-0.1-0.8c-2.7,0.3-5.4,0.6-8.1,0.8c-3.8-2.4-8.2-2.8-12.5-3.8c1.2-0.2,2.4-0.4,4.3-0.7
			c-2.6-2.9-4.8-0.4-6.9-0.8c-0.4-2.3-0.4-4.9-1.2-7.1c-1.7-4.5-3.8-8.9-5.7-13.3c-1.1-2.6-2.1-5.3-3-8c-0.1-0.1,0.3-0.4,0.7-1
			c0.3,1,0.5,1.7,0.7,2.3c0.1-0.2,0.3-0.5,0.4-0.7c1.4,0.6,2.9,1.1,4.1,1.9c1.9,1.3,3.6,2.8,5.3,4.2c-1.8-3.8-3.5-7.5-7.1-10.4
			c-4.4-3.4-8.1-7.7-12.2-11.6c-2-1.9-4.1-3.7-6.4-5.1c-3.8-2.2-7.8-4-12.5-6.5c2.5-0.4,4.3-0.7,6.2-1c0.1-0.2,0.3-1,0.6-1.8
			c0.6,0.2,0.9,0.3,1.1,0.5c5.8,5.7,11.5,11.4,17.3,17c1.9,1.8,4.3,2.9,6.4,4.4c0.3-0.4,0.6-0.9,0.9-1.3c-2.4-1.7-4.8-3.4-7.2-5.2
			c-0.4-0.3-0.5-1-0.8-1.3c-2.1-2.2-4.2-4.6-6.6-6.5c-2.6-2.1-6.2-3.2-7.7-7.6c2.1,0.5,3.8,0.8,5.6,1.3c0-0.9,0.2-1.7,0-2.1
			c-1.5-2.3-2.9-5-4.9-6.7c-3.2-2.7-6.9-4.8-10.4-7c-0.4-0.3-1.6,0.3-2.2,0.8c-0.2,0.1,0.2,1.3,0.6,1.9c0.8,1.2,1.8,2.4,2.7,3.6
			c1.3,1.8,2.6,3.7,3.8,5.6c0.2,0.4,0.2,0.9,0.4,1.8c-1.5-1.2-2.6-2-3.7-2.8c-1.3,1.2-2.4,2.2-3.5,3.3c1,0.4,1.7,0.7,2.5,1
			c-1.7,1.9-3,3.9-5.8,2.6c-0.5-0.2-1.5,0.2-2.1,0.6c-6,3.7-12.5,3.8-19.2,3c-6.1-0.8-12-3.5-18.3-1.6c-0.3,0.1-0.7-0.1-1-0.1
			c-6.8-0.9-13.6-1.9-20.4-2.7c-8.7-1-16.5,0.4-21.2,8.9c-1.8,3.3-3.5,6.6-5,10c-2.9,6.5-3.3,13.5-3.3,21.4c1-1.7,1.5-2.6,2.2-3.8
			c0.2,1.3,0.3,2.3,0.5,4c1.7-1.6,3.1-2.8,4.7-4.2c-0.7-0.4-1.2-0.6-1.7-0.9c5.4,0,1.1,4.1,3.1,6.2c0.4-1.6,0.7-2.7,0.9-3.9
			c0.4,0,0.7-0.1,1.1-0.1c0.1,1,0.6,2.3,0.1,3c-0.9,1.6-2.3,3-3.6,4.4c-0.3,0.3-1,0.2-1.5,0.3v0.1c-3.7,2.2-1.3,6.6-3.4,9.5V58.4
			c-0.4,0-0.7,0-1.1-0.1c-0.4,7.6-0.7,15.2-1.2,22.8c-0.5,7.9-1.2,15.7-1.8,23.7c1,0.1,1.8,0.1,2.8,0.2c-1.5,1.3-2.7,2.3-4,3.4
			c-0.2-0.8-0.4-1.3-0.6-2c-1.6,2.7-1.4,6.5-5.2,7.9c0.7,0.2,1.4,0.5,2.3,0.8c-0.7,0.6-1.2,0.9-1.7,1.3c0.1,0.2,0.2,0.5,0.3,0.7
			c7-1.2,14-2.3,21-3.5c0.1,0.3,0.1,0.6,0.2,0.9c-8.6,1.8-17.2,3.6-25.9,5.4v1.1c0.8,0.3,1.6,0.6,2.5,0.8c2.9,0.6,5.8,1.1,8.7,1.7
			c1.9,3.6-2.1,3.9-3.5,5.1c-0.9,0.7-3.5-0.8-5.4-1.3v13.5h0.4c0.4-0.9,0.8-1.9,1.2-3c0.5,1.4,0.9,2.6,1.3,3.8
			c0.4,0.1,0.9,0.3,1.3,0.4c0.6-1.3,1.2-2.5,1.8-3.8c0.4,0.3,0.8,0.5,1.1,0.8c-0.2,1.4,0.2,3.4-0.6,4c-2.6,2-5.6,3.5-9,5.5
			c0.7-3,1.2-5.3,1.9-8.3c-5.5,3.3-10.5,6.3-15.3,9.5c-2.6,1.7-5.3,3.6-6.9,6.1c-1.3,1.9-2.5,2.9-4.5,3.1c0.9,2.6,0,3.9-2.8,4
			c-0.8,0-1.5,0.1-2.3,0.2c0.5,1.2,0.8,2.6,1.6,3.4c3.2,3.2,6.9,5.5,11.8,4.9c4.4-0.5,8.8-0.9,13.2-1.3c1-0.1,2-0.1,3.7-0.3
			c-0.7,0.9-0.9,1.4-1.2,1.5c-4.3,2.3-6.5,5.4-4.8,10.5c0.5,1.6,0.2,3.4,0.3,4.7c1.5,2.4,2.9,4.7,4.7,7.7c-3.3,0.9-5.9,2.5-8.1,2
			s-3.9-3.1-5.9-4.9v2.2c-3.5-1.4-6.1-3.3-7.2-7.1c-0.8,1.5-1.5,2.7-2.3,4.3c2.1,2.8,4.6,6,7,9.3c-0.2,0.3-0.4,0.6-0.5,0.9
			c-3.1-1.6-6.3-3.1-9.6-4.8c0,2.4,1.9,4.1,3.8,5.8c0.7,0.6,1.3,1.8,1.2,2.6c-0.1,0.6-1.6,0.9-2.4,1.3c-0.1,0.1-0.1,0.3-0.2,0.5
			c0.9,0.3,1.8,0.5,3.1,0.9c-3,2.1-5.9,3.8-5.8,7.2c2.7-1.4,5.3-3,8.1-4.3c3.3-1.5,6.5-3.7,11-2.1c-6.6,6.8-11.5,13.9-9.7,23.5
			c0.7-3.3,0.3-7,2.9-9.3c2.2,3.6,4.4,6.9,6.5,10.4c1.3,2.2,2.5,4.5,3.6-0.1c0.1-0.3,1-0.4,1.7-0.7c-0.9-0.7-1.4-1.2-1.4-1.2
			c0.5-1.8,0.8-3.1,1.4-4.3c0.6-1.2,1.6-2.1,2.4-3.2c-0.8,11.6-0.7,12.4,3.4,15.8c-3.4-4.6-4.3-9-0.9-14.1c0,1.7-0.1,3,0,4.2
			c0.1,1.4,0.1,3,0.7,4.2c1.1,2.2,2.9,4.1,4,6.4c1.7,3.4,3.1,6.9,4.8,10.6c1.7-2,2.2-1.8,3.6,0.9c2,4,5,6.4,9.4,7.1
			c0.9,0.1,2.2,1.4,2.3,2.2c0.4,3.2,0.5,6.4,0.5,9.6c0,0.5-0.8,1.4-1.3,1.5c-2.2,0.2-4.4,0.6-6.5,0.2c-3.3-0.7-6.1,0-8.7,2
			c-4.4,3.3-8.9,6.5-13.4,9.7c-1.5,1-3.2,1.7-4.8,2.5c-3-4.2-5.6-4.6-7.4-1.4c-3,5.5-8.7,7.4-13.8,9.7c-2.6,1.2-4.9,2.2-6.5,4.5
			c-1.7,2.3-3.3,4.7-5.1,6.9c-1.1,1.4-2.5,2.5-4.3,4.2c-0.1-0.1-1-0.5-1.4-0.3c-3.1,1.8-6.3,3.5-9.3,5.3c0.2,0,0.4,0,0.7-0.1
			c2.9-0.1,5.3,2.9,4.8,5.7c0.6,0.2,1.2,0.3,1.8,0.5c4.4,1.4,4.4,6.6,1.3,8.7c0.5,0.9,1,1.7,1.5,2.6c2.8,2.8,6.6,4.9,9.4,7.3
			c1.5,1.3,1.8,3.8,0.9,5.6c2.3,1,3.3,3.1,3,5.1c1.6,1.1,3.3,2.2,5.1,3.1c0.7,0.3,1.5,0.6,2.2,0.9c4.1,1.7,5.1,8.1,0.1,9.4
			c0,0,0,0,0,0.1c1.5,2.5,0.6,6.2-2.7,7.3c-0.6,0.2-1.2,0.4-1.8,0.5c0.8,1.3,0.9,3,0.3,4.5c0.3,0.1,0.6,0.2,0.9,0.2
			c2.3,0.5,3.4,2.2,3.4,4.1c1.9,0.7,3.9,1.3,5.9,1.9c1.6,0.5,2.6,1.6,3.1,2.9c1.6,0.5,3.3,1.1,4.9,1.8c2.3,0.9,3.4,2.9,3.4,4.9
			c5.6,1.9,11.4,3.1,17.3,4.1c0.9,0.1,1.8,0.2,2.7,0.4c-2-4.3-4-8.7-6-13c0.4-0.2,0.9-0.4,1.3-0.6c3.3,4.4,5.6,9.1,7.6,14.1
			c0.1,0,0.2,0,0.3,0.1c0.3,0,0.5,0.1,0.8,0.2c0.6,0.1,1.3,0.3,1.9,0.5c1.8,0.5,2.9,1.7,3.3,3.2c0.9,0.3,1.8,0.6,2.7,0.8
			c0.8,0.2,1.5,0.7,2,1.2c3.7,1,7.4,2.1,11.3,2.8c1.6,0.3,2.9,1.8,3.4,3.4c0.9,0.3,1.8,0.5,2.8,0.5c0.1,0,0.1,0,0.2,0
			c0.5,0,1.1,0,1.7-0.1c1.2-0.1,2.2,0.2,2.9,0.8c1.5,0.2,2.9,0.4,4.4,0.7c2.8,0.6,3.8,3.3,3.4,5.6c18.9,4.9,40.3,0.2,59.3-0.5
			c5.8-0.2,6.3,7.9,1.3,9.6c-0.1,0-0.3,0.1-0.4,0.1c1.1,0.2,2.2,0.4,3.4,0.5c1-0.7,2.3-1,3.8-0.8c0.9,0.1,1.8,0.3,2.6,0.4
			c0.3-1.8,1.5-3.4,3.4-3.7c3.4-0.6,6.1-2.6,8.6-4.7c-0.4-1.8-0.1-3.8,1.3-4.9c-0.2-3,2.2-6.1,6-5c1.9,0.5,3.7,0.8,5.5,0.8
			c0.2-0.7,0.6-1.2,1.1-1.7c0-2.2,1.2-4.4,3.5-5.1c4.1-1.2,7.9-2.9,11.9-3.7c0.1-0.2,0.3-0.4,0.4-0.5c-1.1-2.6-0.5-5.7,2.8-6.3
			c-2.2-3,0.6-7.4,4.2-7.6c5.6-0.3,11.5,1.8,17.1,1.2c0.6-1.1,1.6-2.1,3-2.4c1-0.2,2.1-0.4,3.2-0.6c0.1-1.9,1.2-3.6,3.4-4
			c2.6-0.5,2.6-1.6,4.2-3.4c1.3-1.5,3-2.6,4.8-3.6c1.4-0.7,2.8-1.3,4.3-1.8c-0.2-2.9,2.3-6,6.1-5.2c3.8,0.8,8.3,1.2,12.4,2.2
			c1.2-0.6,2.4-1.2,3.6-1.7C339.3,363.4,337.8,363.3,336.5,363z M236.7,53.4c1.2,5.6,7.2,8.2,7.5,14.8
			C238.5,64.8,234.7,57.3,236.7,53.4z M215.8,97.5c3.7,0.1,7.2-3.4,10.8-0.4c-3.5,0.5-7.2,1-10.8,1.5V97.5z M186.9,158.2
			c1.1-1.2,2.4-2.6,3.9-4.1c3.5,1.9,7,3.8,10.5,5.7C196.3,159.3,191.6,158.8,186.9,158.2z M180.8,148.8c6.2-3.9,12.7-4.8,19.3-1.2
			c0.8,0.4,0.9,2,1.6,3.5c-4.7,0-8.4-0.3-12.1,0.1c-3.5,0.3-6.9,1.4-11.2,1.5C179.2,151.3,179.7,149.6,180.8,148.8z M153.5,123.8
			c-0.1-0.2-0.3-0.5-0.4-0.7c3.7-2,7.4-4,11.2-6.1c0.1,0.2,0.2,0.4,0.4,0.7C161,119.8,157.2,121.8,153.5,123.8z M161.2,114.9
			c-3.6,1.4-7.4,2.1-11.1,3c-1.3,0.3-2.7,0-4,0.2c-2,0.2-4.1-0.1-5.1,2.4c-0.2,0.4-2.3-0.1-4.1-0.2c2.7-3.2,6.1-4.7,9.6-6.5
			c0.2,0.8,0.3,1.4,0.6,2.3c3-1.7,5.8-3.2,8.7-4.8c0.4-0.2,1-0.5,1.2-0.3c4.1,3.3,7.4-1.4,12.2-0.7
			C166.1,112,163.9,113.9,161.2,114.9z M137.3,111.7c8.5-2.4,17-4.8,25.5-7.2c0.1,0.4,0.2,0.7,0.4,1.1c-8.5,2.5-17,4.9-25.5,7.4
			C137.6,112.5,137.4,112.1,137.3,111.7z M149,47.5c0.6-0.8,0.7-2,1.1-3.1c1.5,0.8,2.7,1.5,4.5,2.5c-3.8,2.4-7.4,4.6-11,6.8
			C145.4,51.6,147.3,49.7,149,47.5z M129.1,69.6c-1.8,7.5-3.6,15.1-5.5,22.8c-0.7-0.5-1.3-0.9-1.3-0.9c-1.5,1.3-2.9,2.4-4.8,4v-5.6
			c0.7,1.2,0.9,1.7,1.2,2.1c0.3,0,0.7,0.1,1,0.1c0.4-4.4,0.6-8.8,1.1-13.1c0.6-5.4,1.4-10.9,2.2-16.3c0.5,1.2,0.9,2.5,1.5,3.9
			c4.2-2,8.2-4,12.3-6v-1.3c-2.1-0.7-4.2-1.4-6.4-2.2c0.7-2,0.9-2.2,8-4.1c-0.2,1.3-0.5,2.4-0.7,3.6c0.2,0.1,0.4,0.2,0.6,0.3
			c1.2-1.7,2.4-3.4,3.8-5.5c0.5,0.8,0.9,1.5,1.3,2.2c-1.4,1.5-2.7,2.9-4,4.4c-0.4,0.4-0.7,1-1,1.5c0.5,0.3,1,0.8,1.5,0.9
			c4.8,0.2,12.6-5.9,13.3-10.4c2.6,0.5,4.8-3,3.8-6.2c-0.7,0.5-1.3,1-2.3,1.8c-0.6-0.9-1.1-1.6-1.8-2.5c2.4-1.2,4-4.5,7.8-2.9
			c0.3-1.4,0.3-3.3,2.2-1.6c0.9-1.6,1.8-3,2.6-4.4c0.4,0.2,0.9,0.5,1.3,0.7c-1.7,2.8-3.3,5.5-4.9,8.3c-1.1-0.2-1.9-0.3-2.7-0.4
			c-0.1,0.2-0.2,0.4-0.3,0.5c1.2,0.7,2.4,1.5,3.7,2.3c3.8-2.2,4.1-6.6,5.7-10.1c1.6-3.5,2.6-7.3,4.1-10.8
			c-0.3,15.5-8.1,27.1-19.4,36.8v-3.2c-0.2-0.1-0.5-0.3-0.7-0.4c-1,1.1-2,2.1-3,3.2c-1,1.1-1.9,2.1-3.4,3.8c0.3-1.8,0.4-3,0.7-4.6
			c-2.3,1.7-4.3,2.9-3.5,6.3c0.3,1.4-0.9,3.2-1.5,5.1c-0.3-0.4-0.6-0.7-1-1.3c-0.9,1.2-1.7,2.4-2.9,4.1c-0.6-1.6-0.9-2.5-1.3-3.6
			c-1,1-2,1.9-3.4,3.2v-6.5c-0.2,0-0.5-0.1-0.7-0.1c-0.8,2.5-1.4,5-2,7.5c-0.2,0-0.4,0-0.6-0.1v-5.2
			C129.5,69.7,129.3,69.6,129.1,69.6z M122.2,120.4l0.9,0.9c1.2,0.2,2.5,0.3,4.1,0.5c0,0.2,0.1,0.4,0.2,0.8c1.8-4.2,5.8-1.6,8.4-3.8
			c0.1,2.3,0.1,2-2,2.6c-1.9,0.6-3.6,1.9-5.5,2.6c-2,0.8-4.1,1.4-7.2,2.4C121.6,123.7,121.9,122,122.2,120.4z M119.4,123
			c0.6,1-0.1,2.8-0.3,5.1c-1.6-2.1-2.4-3.3-3.3-4.4C116.8,122.4,118.1,121,119.4,123z M105.5,151c-4.2,2.3-7.4,6.6-13,6.6
			c0.2-0.5,0.3-1,0.5-1c6-1.6,10.4-6,15.4-9.2c3.9-2.5,7.9-4.7,11.9-7c5.5-3.2,11.1-6.3,16.7-9.3c0.4-0.2,1-0.3,1.5-0.4
			c0.2,0.2,0.3,0.5,0.5,0.7c-5.2,2.9-10.5,5.7-15.7,8.8C117.3,143.7,111.5,147.7,105.5,151z M121.8,247.8c2.9,1.9,5.5,3.6,8.5,5.6
			C126.1,254,123.4,252,121.8,247.8z M83,307.4c-0.7,0.9-1.9,1.4-3.2,2.2c4.5,2.8,3.5,2.7,2.9,7.3c-0.7,5-5.2,7.5-5.9,12.3
			c-0.2,3.3-1.5,6.3-2.5,9.4c-0.4,0-0.9,0.1-1.3,0.1c-0.2-0.9-0.7-1.8-0.5-2.6c0.9-3.4,2.4-6.7,3-10.1c0.3-2.1-0.7-4.4-1-6.7
			c-0.1-0.9-0.1-2.2,0.4-2.7c2.1-2.1,2.3-4.4,1-8.2c-2.3,3.7-4.2,6.7-6.1,9.7c0.5-5.6-1.5-10.9,1.2-16.8c2.2-4.9,5.8-6,10.8-7.8
			c1.1,3.6,2.4,6.9,3.1,10.3C85.1,304.8,83.9,306.4,83,307.4z M83.4,292.3c3-2.3,4.1-1.7,5.9,3.1c-1,0.1-1.9,0.2-3,0.4
			c0.5-0.6,0.9-1.2,1.7-2.2C86.3,293.1,85,292.7,83.4,292.3z M88.9,313.4c-0.7-2.2-1.5-4.4-2.2-6.6
			C89.8,308.1,90.8,310.2,88.9,313.4z M99.2,286.3c2-1.7,4.7-2.7,6.8-3.8c-1.5,3.6-2.9,7.2-4.2,10.4c-0.8-0.6-1.9-1.1-2.1-1.8
			C99.2,289.5,98.5,286.9,99.2,286.3z M93.9,284.2c0.8,3,1.4,5.6,2,8.1C92.3,289.9,91.5,286.4,93.9,284.2z M109,375.8
			c-0.7-1.6-1.4-3.1-2.2-4.6c-0.7-1.2-1.5-2.4-2.3-3.5c-0.6,1.1-1.3,2.2-2,3.5c-3.3-8.9-6.6-18-9.9-27c0.3-0.2,0.5-0.3,0.8-0.5
			c3.8,7.5,7.7,14.9,11.9,23.2c-0.9-4.2-1.7-7.7-2.5-11.2c0.2-0.1,0.4-0.1,0.6-0.2c2.3,6.6,4.7,13.1,7,19.7
			C109.9,375.4,109.5,375.6,109,375.8z M122.7,277.6c-0.2,0-0.4,0-0.6-0.1c-0.2-1.2-0.3-2.3-0.5-3.7c-1.3,0.2-2.4,0.3-3.5,0.5
			c0-0.2,0-0.5-0.1-0.7h6.7C124,275,123.4,276.3,122.7,277.6z M158.2,345.8c-1.1-2.5-2.2-5-3.3-7.5c0.5-0.2,1-0.4,1.5-0.7
			c1.1,2.5,2.2,5,3.3,7.5C159.2,345.4,158.7,345.6,158.2,345.8z M267.1,344.4h-1.3c0.1-2.3,0.2-4.5,0.3-6.8c0.5,0,1,0,1.5,0.1
			C267.4,339.9,267.2,342.1,267.1,344.4z M285.9,316.2c1.3,2.8,2.6,5.6,3.9,8.5c-0.3,0.1-0.6,0.3-0.8,0.4c-1.3-2.8-2.5-5.7-3.8-8.5
			C285.4,316.4,285.6,316.3,285.9,316.2z M286.5,333.3c1.7,1.3,3,2.2,4.4,3.2c0.5-0.8,1.2-2.3,2-3.7c0.3,0.2,0.5,0.3,0.8,0.5
			c-1,2.2-1,5.4-4.8,4.9C287,338,285.7,336.8,286.5,333.3z M293.8,352.7c-3.1-3.3-2.9-7.9-4.6-11.7c0.3-0.1,0.7-0.3,1-0.4
			c1.5,3.9,2.9,7.9,4.4,11.8C294.3,352.4,294,352.5,293.8,352.7z M298.1,355.4c1.9,0.3,3.6,0.5,5.3,0.9c1.6,0.3,3.1,0.8,4.9,1.2
			C305.8,359.7,300.1,358.4,298.1,355.4z M308.6,333.6c-0.6,0.7-1,1.5-1.4,2.2c1.9-3.7-0.7-6.1-2.4-8.6c2.5,2.4,5.1,4.6,7.4,7.2
			c0.8,0.9,0.9,2.5,1.3,3.7C311.9,336.7,310.4,335.2,308.6,333.6z"/>
		<path class="st0" d="M127.1,121.6C127.1,121.7,127.1,121.7,127.1,121.6C127.1,121.7,127.1,121.7,127.1,121.6z"/>
		<path class="st0" d="M127.1,121.7L127.1,121.7L127.1,121.7z"/>
		<path class="st0" d="M79.4,159.1L79.4,159.1C79.5,159,79.5,159,79.4,159.1L79.4,159.1z"/>
		<path class="st0" d="M250.6,51.1c-0.1-0.1-0.1-0.1-0.2-0.2C250.4,51.1,250.4,51.1,250.6,51.1L250.6,51.1z"/>
	</g>
</g>
</svg>
