<?xml version="1.0" encoding="utf-8"?>
<!-- Generator: Adobe Illustrator 19.1.1, SVG Export Plug-In . SVG Version: 6.00 Build 0)  -->
<svg version="1.1" id="Слой_1" xmlns="http://www.w3.org/2000/svg" xmlns:xlink="http://www.w3.org/1999/xlink" x="0px" y="0px"
	 viewBox="-269 -4.2 419.7 569.2" style="enable-background:new -269 -4.2 419.7 569.2;" xml:space="preserve">
<style type="text/css">
	.st0{fill:#0C4A6A;}
</style>
<g>
	<path class="st0" d="M-242.3,114.1c1.5-2.3,3.4-4.4,4.4-7.2c0.8-2.1,3.7-2.8,4.9-5.2c-3.1,2.7-7.2,2.9-10.7,4.7
		c-0.7,0.4-1.5,0.9-2.1,0c-0.6-0.8-0.1-1.4,0.5-2.1c2.1-2.1,3.7-4.7,6.5-5.9c0.9-0.4,1.5-1.1,1.6-2.1c0.5-4.8,3.7-7.8,6.8-11
		c0.3-0.3,0.5-0.7,0.8-1c-1-0.8-1.5,0.5-2.9,0.2c2.4-2.8,3.1-6.7,7.6-6.9c2.1-0.1,2.1-2.3,4.1-3.8c-6.4,0.2-10.3,4.6-15.9,6.1
		c2.9-4.5,6-8.1,10.6-10.2c4-1.8,8-3.7,10.2-7.8c-4,2.9-8,5.6-13,6.7c2-2.2,4.7-3.5,6.2-6.2c0.2-0.3,1.1-0.6,1-0.8
		c-0.5-3,3.3-3.8,3.2-6.7c0-1.4,2.2-2.2,3.7-2.3c1.3-0.1,2.5-0.1,2.8-1.7c0.1-0.3,0.1-0.8-0.1-0.9c-1.3-0.7-2.4,0-3.5,0.6
		c-0.5,0.3-1,0.6-2.1,1.3c1-1.8,2.2-2.6,3.1-2.6c5-0.3,5.6-4.5,7.1-7.9c0.3-0.6,0.1-1.4,1.1-1.8c-0.4,1.4,0.6,2.7-0.1,4
		c1.7,0.5,1.3-1.5,2.7-1.5c-2.2,5-2.6,10.3-4.3,15.4c-0.8,2.2,0.5,3.4,2.7,3.5c-0.1-0.1-0.2-0.1-0.3,0c0.4,0.8,0.4,1.3-0.7,1.2
		c-0.6-0.1-1.3-0.1-0.9,0.8c1.9,3.4-0.8,6.7-0.3,10.1c0.3,1.7,0,3.1,1.3,4.8c1.6,2.1,2.1,5.2,2.8,7.9c1.5,6.2,5.7,10.6,9.8,14.9
		c2.8,3,5.2,6.4,8.9,8.6c5.8,3.5,11.9,6.1,18.3,7.8c11.7,3.1,23.6,3.2,35.5,1.2c4.4-0.8,8.2,2,11.8,4.1c1,0.6,1.3,1.2,1.8-0.1
		c1.1-2.6,2.2-2.1,3.5-0.2c0.9,1.3,2.3,1.4,3.7,1.1c6.2-1.4,12.7-1.4,18.8-3.5c2.5-0.9,3.7,1.4,5.7,1.7c-3-0.1-4.2,0.5-6.5,3.5
		c2.2,0.4,4.1,1.1,6,2c0.6,0.3,1.6,0.5,1.9,0.2c3.3-3.1,5.5,0.8,8.3,1.3c-4-2.4-7.8,3-11.8,0.1c2.9,3.1,6.6,4.5,10.5,5.6
		c1.9,0.5,4.3,0.5,4.4,3.6c-7-1.5-14.1-2.9-21.2-4.4c4.9,3.1,10.1,4.8,15.8,5.3c3.3,0.3,6.4,1,9.5,3.8c-6.2,0.1-11.1-2.7-16.6-2.9
		c1.3,0.6,2.7,1.3,4.9,2.3c-8.2-1.9-15.2-4.4-22.4-6.8c0.1,1.6,1,1.8,1.8,2c4,1.4,7.9,2.8,11.9,4.3c0.5,0.2,1.1,0.3,1.5,0.6
		c3.6,3.1,6.1,3.5,10.8,4.6c2.2,0.5,4.5,2.1,6.9,2.9c9.2,3.2,18.6,5.3,28.2,6.1c1.8,0.1,3.5,0.5,5.4,0.7c-0.3-1.3-1.7-0.7-2.3-1.9
		c6.7,0.7,13.1,1.4,19.6,2.1c0,0.3,0,0.5,0,0.8c-4.9-0.4-9.7-0.8-14.6-1.2c8.6,2.1,17.3,3.5,26.2,3c-2.9-0.7-5.9-1.1-9.7-2.5
		c5.1,0.2,9.2,0.2,13.3,0.7c10.2,1.2,20.4-0.2,30.6-0.1c2.9,0,5.7,0.4,8.4-0.6c0.1,0,0.2,0,0.3-0.1c0-0.1-0.1-0.1-0.1-0.2l0,0
		c6.4-0.6,12.5-2.6,18.2-5.5c6.6-3.3,10.4-9.1,13-15.8c0.7-1.7-1.3-3.2-0.1-4.9l-0.1,0.1c4.4,0.9,5.1,5,5.7,8.1
		c1.5,7.4,1,7.5,5.8,14c0.3,0.4,0.9,0.5,0.5,1.3c-1.4,3.3-1.2,3.1,1.1,5.1c1.9,1.7,3.5,3.8,4.9,6c-4-3.4-9.3-5.2-12.3-9.9
		c0,1.9,1.3,2.8,2.3,4.1s2.1,2.7,3.2,4c2.1,2.5,4.1,5,5,8.3c0.8,2.6,3.6,3.9,4.8,6.5c0.5,1,1.1,1.7-0.2,2.4
		c-0.9-0.9-1.2-2.4-2.9-2.9c-0.4,3,1.6,4.8,2.9,6.9c1.2,0.8,2.5,1.6,2.6,3.3c-0.4,0.1-0.7,0.3-1.1,0.4c-2.6,0.2-1.9-3.2-4-3.7
		c0.1,4.3,2.5,7.8,3.2,11.8c-1.1-1.9-2.1-3.9-3.2-5.8c-1.3,0.5-0.4,1.8-1.5,2.5c-1.7-13.1-4.4-25.7-16.1-34.4
		c0.7,3.6,2.8,6.5,3.8,9.9c0.5,1.7,0.5,1.7-1.4,2.4c-1,0.4-0.5,1.1-0.4,1.6c0.6,2.3,1.3,4.5,2,6.8c-4.7-4.3-1.7-11.4-5.9-15.9
		c2,2.8,0.9,6.1,1.8,9.1c-2.9-2.1-3.5-6.1-7.1-7.4c-0.6,1.8,0.3,3,1.3,4.3c0.7,1,1.6,2.1,0,3.2c-1.9,1.1-1-1.1-1.7-1.5
		c-1.3-0.7-2.4-1.7-3.9-2.8c2,6.7,7.2,11.9,6.1,19.1c0.2-5.1-3.6-8.5-5.6-12.7c1.1,5.5,2,11,4.5,16.2c0.5,1,1,0.8,1.7,1
		c1,0.3,1.3,1.3,0.7,2.2c-0.4,0.6-1.7,0.5-1.8,0c-1.1-4.1-5.7-5.5-7.3-8.9c-1.9-4.1-2.8-8.6-4.1-12.9c-0.4-1.2-0.7-2.4-1.4-3.4
		c-0.5-0.8-1.5-2.3-2.6-1c-0.5,0.6-1.9,1.6-0.3,3.7c2,2.5,4.4,5.6,3.4,9.5c-0.5,2.2,1.9,3.1,2.2,5c0.3,1.8,1.3,3.5,2.1,5.3
		c-1.9-0.1-1.5-3.3-4-2.5c-1.5,0.5-2.9,0.6-1.6,2.5c3.8,6.1,7.4,12.5,15.1,14.5c1.6,0.4,3,0.9,4.1,2.6c-1.7-0.5-3-0.8-4.4-1.2
		c-0.1,0.1-0.2,0.3-0.2,0.4c1.3,0.9,2.6,1.9,4.2,3c-3.2,0.3-1.7,1.5-0.8,2.7c2.6,3.7,6.4,5.7,10.2,7.8l0.1-0.1
		c-1,0.9-1.8,1.2-2.8-0.1c-0.8-1-1.9-1.6-3.2-1.9c-2.1-0.4-3.8-0.2-4.2,2.5c-0.3,2.3-1.2,4.3-2.6,6.2c-1.5,2.1-0.6,4.6-0.3,6.9
		c0.1,1.1,0.3,1.6-0.6,2.4c-4,3.8-4.2,5.2-1.9,10c-2.8,1.2-4.8,3.1-5.5,6.2c-1.1-5.9-0.7-11.8-0.7-17.7c0.1-5.2,0.2-10.3-1.6-15.3
		c-0.2-0.4-0.3-0.9-0.6-1.2c-2.1-2.9-2.8-2.9-4.3,0.3c-0.4,0.9-0.7,2-1.4,2.7c-0.8,0.8-1.9,2.6-2.9,1.5c-0.7-0.7-2.3-2.3-0.8-4.1
		c1.9-2.1,1.8-4.6,1.4-8c-4.2,5.1-6.2,10.7-8.4,16c-0.4,1-0.7,1.3-1.5,1.8c-2.4,1.6-5,2.8-7.8,3.5c-1.9,0.5-2.3,1.6-2.4,3.2
		c-0.5,12.8-6.6,22.7-16.3,30.7c-0.9,0.7-1.7,1.5-2.5,2.3c-0.7,0.6-1.9,0.8-2.3,2.1c1.8,0.1,3.6,0.2,5.3,0.3
		c-8,0.9-15.7,4.2-23.8,4.1c-10.5-0.1-20.7-1.9-29.1-8.8c-4.3-3.5-7.3-8.1-9.2-13.3c-0.7-1.9-1.7-2.7-3.8-3.3
		c-7.4-2-14-0.1-20.6,2.7c-1.9,0.8-3.9,0.9-5.7,2.4c-1.7,1.3-0.6,0.9,0.1,1.4c1,0.7,0.9,1.7,0.7,2.9c-1.2-0.5-1-3-2.8-2.2
		c-1.7,0.7-1.2,2.4-1,3.9c1.9,11.7,0.1,22.5-7.6,31.8c-5.5,6.7-12.4,11-20.9,12.5c-4.6,0.8-8.5,3.5-13.2,4.2
		c-1.1,0.2-2.5,1.1-4.1,0.8c0-1.7,2.1-1,2.6-2.6c-3.3-1.8-7.2-2.3-10.8-3.4c-9.3-2.9-16.5-8.5-22.3-16.1c-0.7-0.9-1.5-1.4-2.6-1
		c-0.4,0.2-0.9,0.2-1.3,0.3c-8.6,2.3-8.3,2.7-13-6c-2-3.8-4-7.6-6.5-11.3c-1-1.4-2.2-2.9-3.7-2.5c-1.3,0.4-1.2,2.4-1.4,3.8
		c-0.5,4.4,1.3,8,4.1,11.1c2.5,2.7,3,6,3.5,9.4c0.3,1.7-0.2,2-2,1.7c-2.9-0.4-4.8-0.7-3.7-4.5c1-3.4-1.5-6.2-3.1-9
		c-2.6-4.3-5.1-8.4-6-13.5c-0.5-2.7-0.2-7-4.9-7.3c0.2-2.6-3.9-2.7-3.3-5.9c0.5-2.3-1.9-1.6-3.2-1.7c-1.3-0.1-2.2-0.3-2.3,1.8
		c-0.1,3.4-1,6.8-1.6,10.7c-2-2.1,0.4-4-1.1-5.5c-3.6,1.6-5.8,4.1-4.8,8.4c1.7,6.6,4.1,12.9,8.3,18.4c2.9,3.8,5.6,7.8,8.4,11.8
		c0.1,0.2,0.3,0.4,0.4,0.5c3.8,2.3,5.5,6.5,8.5,9.4c5,4.8,9.1,10.3,13.9,15.2c2.2,2.3,4.2,1.1,6-1.4c2.3,3.8,3.8,7.7,5.3,11.6
		c5.8,14.8,12,29.2,23.3,40.9c0.5,0.5,0.9,1.1,1.4,1.4c4.8,3,4.3,8.2,5.2,12.7c0.4,1.7-2.2,1.6-2.1,3.3c-1.5-0.3-0.9-2-1.9-2.3
		c-0.7-0.2-1.6-0.5-1.4,0.5c0.6,2.7-1.1,4.1-3.2,5.5c1.2-2,0.8-3.7-1.1-5c-1.1,2.1-2.9,3.3-5.2,3.8c-0.7,0.1-1.4,0.2-2,0
		c-2.8-1.1-2.7-1.1-3.4,2.2c0,0.1-0.1,0.2-0.2,0.5c-1.4-1.4-0.3-3.1-0.7-4.4c-0.5-1.6,0.3-5.4-3.7-2.9c-0.8,0.5-1.5,0.4-1.6-1
		c-0.4-3.8-2.4-7-5.1-9.6c-1.4-1.4-1.4-3-1.8-4.7c-1.7-6.5-3.8-12.9-2.4-19.7c0.2-0.8,0.1-1.9-0.3-2.7c-1.8-4.1-3.1-8.3-3.8-12.7
		c-0.2-1.2-0.7-2.3-1.9-3.4c0.1,3.1-2.6,6,0.5,8.8c0.9,0.8-0.2,2.1-0.4,3.4c-3.8-4.4-5.3-9.5-5.7-15c-0.3-4.4-1.5-8.7-2.5-13
		c-0.9-3.8-4.4-5.4-5.7-8.8c-0.2-0.7-1.3-0.5-1.9-0.3c-0.9,0.4,0.1,0.9,0.1,1.3c0.2,3.6-2.2-0.1-2.9,1c0.5-3.2-2.8-4.9-3.1-7.8
		c-1.1,2.6-1.2,5,1.7,6.5c-4.6,0.2-5.6-3.8-6.8-6.6c-2.4-5.5-5.3-10.7-9.1-15.1c-4.9-5.7-8.2-11.8-8.1-19.6c0-1.9-4.7-7.5-6.6-7.5
		c-2.8-0.1-3.4-2-4.2-3.9c-1.1-2.7-2-5.5-1.6-8.4c0.3-2.4-1.6-4.2-1.2-6.6c0.1-0.9-0.7-1.5-1.6-0.8c-0.7,0.6-1.5,1.4-2.3,0.6
		c-0.8-0.9,0.7-1.2,0.9-1.8c0.3-1,0.6-2-0.3-2.9c-1.5-1.4-3.4-2.3-3.8-4.5c-0.3-1.9-0.7-3.8-1.3-5.7c0,0.7-0.1,1.3-0.1,2
		c0,0.5,0.1,1.2-0.7,1.4s-1.1-0.5-1.6-0.9c-1.6-1.2,0-4.1-2.5-4.8l0.1,0.1c0.2-2,0.7-4,0.4-6.1c-0.3-2.3,0.6-3.5,3.1-2.3
		c2.6,2.3,4.8,5.3,8.6,6.2c-0.9,0.9-2.9-0.3-2.2,0.8c1,1.5,1.6,3.2,2.6,4.6c0.4,0.6,0.9,0.5,1.5-0.4c0.7-1,0.6-2,0.7-3
		c0.2-2.4-2.4-3.9-1.9-6.2c0.8-3.8-0.9-7.3-0.8-10.8c0.1-3.5-3.8-5.8-1.6-10.1c1.6-3.1,0.2-7.6,0.5-11.4c0.5-6.5-0.4-13.1,2.1-19.4
		c1.3-3.2,2.2-6.5,3.3-9.8c-3.8,4.6-6.6,9.6-7,15.5c-0.6,7.8-1.2,15.5-2.4,23.3c-1,6.6-1.3,13.5,0.8,20.1c-2.2-0.1-1.1-2.5-2.5-3.3
		c-0.9,1.2,0.6,3.5-1.8,4c-0.4-7.8-2.9-15.2-3.1-23c-0.1-5.1,0.6-10.1,1.8-15c0.3-1.3,0.6-2.7,0.8-4c0.1-0.6,0.2-1.2-0.6-1.3
		c-0.4,0-1.2,0-1.3,0.2c-0.4,0.7,0.8,0.3,0.8,0.8c0,0.4,0,0.9-0.1,1.3c-1.1,3.4-2.3,6.8-3.6,10.7c-1-2.9,1.2-5.3-0.1-8.1
		c-0.6,2.4-1.2,4.5-1.8,6.8c-2-4.2,1.6-7.3,1.9-11.1c0.4-4.4,2.6-8.6,3.9-12.9c1.3-4.3,3.1-8.4,5.5-12.8c-1.9,0.5-2.3,1.7-2.9,2.7
		c-0.9,1.4-1.4,0.6-2-0.2l0.1,0.1c0.3-1.9,1.7-3.1,2.7-4.7c0.7-1.2,2.8-1.9,0.5-3.8c-0.9-0.7,1.8-0.9,1.6-2.3
		c-2.3,0.1-2.3,0.1-8.5,6.4c1.9-2.2-0.8-5.2,1.9-7.7c2.2-2,3.3-5.3,4.7-8.2c-3,1.8-4,5.4-6.7,7.5c0.9-4.9,6.3-8.1,5.3-13.7
		c-1.2-0.5-1.5,1.7-3.2,1.3c2-2.3,4.3-4.3,5.1-7.3l-0.1,0.1c1.1,0.8,0,2.5,1.4,3.3c1.7-2.7,2.9-5.4,2.8-8.5L-242.3,114.1z
		 M-112,245.2c3.4,0.9,6.6,2.8,10.7,2.7C-104.8,245.5-108,243.8-112,245.2c0.3-2.7-1-3.9-3.5-4.9c-7.1-2.6-14-1.8-21.1,0.3
		c0.2,0.2,0.3,0.3,0.3,0.3c6.9-1.2,13.6-2,20.4,1.1C-114.1,242.9-112.6,243.2-112,245.2z M-137,123.4c5.2,2,10.2,0,15.2-0.3
		C-127,120.7-132,122.7-137,123.4c0.8-0.3,1.6-0.7,2.5-1.1c0-0.4,0-0.7,0-1.1c-8-2.3-16.4,1.8-25-0.8c1.3,1.7,2.6,1.4,3.6,1.6
		C-149.6,123.3-143.3,123.2-137,123.4z M-194.4,157.6c-1-2.8-2.8-5.1-5.1-7C-198,153-197.4,156.2-194.4,157.6
		c-0.3,2.3,0.9,4,2.5,5.2c2.9,2.3,4.9,5.4,7.2,8.1c0.8,0.9,1.6,1.9,2.6,2.7c0.5,0.5,1.2,1.4,2,0.6c0.6-0.6,0.3-1.5-0.2-2.2
		c-1.4-1.8-1.9-4.1-3.7-5.6c-3.4-2.9-3.6-8-7.4-10.7c-1.3-0.9-1.6-3.4-2.1-5.3c-1-3.9-2.7-7.5-4.6-10.9c0.4,4.7,1.6,9.1,3.7,13.3
		C-193.8,154.3-192.7,155.9-194.4,157.6z M-217.9,147.5c0.7-4.9-1-9.4-1.6-14.1C-219.9,138.2-219,142.8-217.9,147.5
		c-1.2,0.7-0.9-0.5-1.1-1c-0.7-2.4-1.4-4.8-2.1-7.3c-1.1,0.4-0.6,1.7-1.9,1.9c-0.5-11.4-3.1-22.7,0.5-34.1c-0.5,0.3-0.8,0.7-1,1.1
		c-2.8,5.7-3.3,11.9-4,18.1c-0.9,8.1-0.5,15.7,7,20.9c0.2,0.1,1,1-0.1,1.1c-1.6,0.2-1,1.4-0.8,2c1,4.5,2.4,8.9,4.7,13
		c-0.5-2.3-1-4.6-1.6-6.9c0.1-0.1,0.3-0.1,0.4-0.2c2.4,3.8,4.9,7.7,7.3,11.5c-0.9-5.7-3.2-10.8-5-16
		C-215.9,150.2-216.2,148.4-217.9,147.5z M-33.1,214c1,0.1,2.8-0.1,2.7,0.7c-0.3,3.1,1.8,1.4,2.8,1.5c0.7,0.1,1.6-0.3,2.3-0.4
		c9.5-1.9,19-3.4,28.8-1.8c3.8,0.6,4.9,4.2,8.8,5c-3.1,1.2-4.9,0.7-6.7-0.9c-2.7-2.4-6.1-3.3-9.8-3.5c-5.1-0.3-9.6,1.8-14.4,2.6
		c-6.8,1-13.4,1.8-19.1,6.3c-3.5,2.7-7.9,4.2-10.8,7.8c-0.4,0.5-0.9,0.8-1.5,0.5c-0.8-0.5-0.5-1.2,0-1.7c1.2-1.4,2.3-2.8,3.6-4.1
		c1-1,0.6-2.1-0.1-2.7c-0.8-0.7-1.4,0.5-1.8,1c-2.9,4.3-4.7,9-5.5,14.2c-2.3,14.5,6.3,25.4,15.2,29.5c16.1,7.4,34.9,6.8,49-7.4
		c6.5-6.5,10.8-14.4,10.9-23.6c0.1-10.4-5.4-18.8-13.8-24.2c-12.6-8-26.1-8.6-39.5-1.4C-33.2,212-33.3,212.8-33.1,214
		c-4.3-2-5.6,2-7,2.9C-39.3,214.9-35.6,215.7-33.1,214z M-154.4,166c-4.7-1.7-8.5-4.8-12.3-7.9c-2.1-2.1-4.3-4.3-6.4-6.4
		c1.5,2.8,2.9,5.7,6.5,6.4c-0.6,1.8-1.8,1-2.6,0.4c-1.2-0.9-2.3-1.1-3.7-0.6c0.7-3.7-2.9-4.1-4.2-6.2c-0.2,0.2-0.5,0.4-0.7,0.6
		c1.7,1.9,3.4,3.8,5,5.6c-2.3-1-3.9-3.5-7.3-3.3c5.3,10.9,9.2,22.1,15,32.5c0.1,0.2,0.4,0.4,0.4,0.5c0,2.7,0,2.7,1,4.1
		c0.7,1,1.5,2.1,2.2,3.1c-2.6-1.8-5-3.7-7.2-5.7c-6-5.4-11.2-11.7-17.6-16.8c-1.2-0.9-1.9-1.6-2.8-0.2c-1.2,1.7-3.1,4.2-1.8,5.5
		c1.9,1.9,3,4.2,5.3,6.1c-2.1,0.2-2.8-1-3.7-1.8c-0.6-0.5-1.4-1.1-2.1-0.6c-0.7,0.6-0.3,1.8,0.1,2.1c4.3,3.6,5.1,9.7,9.7,13.1
		c2,1.4,3.5,3.4,5.3,5.2c-0.2,0.3-0.4,0.5-0.7,0.8c-3.8-4.4-10-5.3-13.8-9.8c-0.8-1-1.7-0.8-2,0.4c-0.5,2.1-1.3,4.2,0,6.3
		c1,1.6,2,3.2-0.2,4.7c-0.8,0.6,0.3,1.4-0.1,2.2c-1-0.2-2.5-2-2.8-0.5c-0.6,2.6-3,4-3.7,6c-2.2,5.9-0.5,11.8,1.4,17.7
		c-3.8,2-5.2-1.3-6.9-3.6c-1.8-2.4-2-5.5-3.6-8c0.2,8.9,5.3,14.1,14.1,17.6c-3.8,1.1-4.1,2.8-3.3,5.7c0.7,2.4,1.5,4.5,3.2,6.4
		c-2.6-1.8-4.7-4.2-7.3-5.8s-3.2-5.5-7-6.2c1.4,4.3,3.8,7.6,7.2,9.7c5,3.1,8.7,6.8,11.2,12.4c3.7,8.3,9.1,15.8,13.2,23.9
		c1.4,2.7,2.7,3,5.1,2.1c0.4-0.2,0.9-0.2,1.3-0.3c2.8-0.1,3.2-1.5,3.1-4.2c-0.4-7,0.1-14,3.6-20.4c0.3-0.5,0.5-1.3,0-1.5
		c-1.4-0.6-0.8-1.3-0.6-2.4c0.6-3.4,2-6.5,4.4-8.8c1.5-1.5,3.6-3.2,5.5-3.2c2-0.1,3.2-0.6,4.8-1.7c2.6-1.9,4.2-4.9,7.8-5.8
		c2.2-0.6,4.5-1.2,6.7-2.2c2.7-1.4,5.6-2.1,8.7-1.6c2.5,0.5,4.8-0.7,7.2-1.1c1.4-0.3,1.2-2,1.6-3.1c0.2-0.5-0.6-0.9-1.2-0.9
		c-4.7,0-9.3-1.7-13.9-0.5c-1.9,0.5-4.2-0.9-5.7,1.3c-0.5,0.8-1,0.3-1.7,0.3c-3.5,0-7-1.2-10.4-0.1c-5.9,1.9-11.6,4.3-16.5,8.2
		c-1.9,1.5-4.3,1.8-6.6,0c2.6-1.9,2-6.3,6-7c0,0,0-0.6-0.1-0.9c-0.3-2.7,1.5-3.9,3.4-5.1c1.1-0.7,1.9-1.7,2.7-2.7
		c1.2-1.6,3.7-2.7,5.9-1.2c0.9,0.6,1.1,0.7,2.1,0.3c3.4-1.3,7.1-2.5,10.5-2.7c4.6-0.3,9.2-0.6,13.8-1.1c2.8-0.3,6.3-0.3,8.4,1.1
		c3.2,2.2,6.1,3.2,9.8,2.3c0.8-0.2,1.6-0.3,2.2,0.4l4.4,7.6c0.5,3.1,3.9,3.7,5.6,5.8c2.6,3.2,5.8,5.8,8.3,9.2
		c2.1,2.9,2.4,4.6-0.3,6.7c-0.9,0.7-0.8,1.5-0.1,2.3c1.1,1.3,1.5-0.1,2.1-0.6c1.1-1,2.1-2.1,3.5-2.7c7-3,14.4-3.9,21.8-5.4
		c2.5-0.5,5-0.3,7.4,0.8c0.1-0.7,0.3-1.2,0.2-1.8c-0.3-3.1,1.6-6,0.4-9.4c-0.7-1.9,2-3.3,2.7-5.2c0.6-1.5-1.4-4,1.7-4.7
		c0.1,0,0.2-0.5,0.2-0.6c-1.5-1.2-0.1-3.6-2.1-4.7c-1.2-0.7-0.9-2.7-0.6-3.8c0.5-1.4-0.5-1.9-1.1-3.2c4.7,2.2,6.5-2.2,8.6-4
		c4-3.4,7.7-6.3,13.3-5.9c0.6,0.1,1.3-0.3,2.9-0.7c-1.9-0.3-2.9-0.4-4-0.5c1.1-1.2,2.2-0.7,3.3-0.7c3.3-0.1,6.5-0.4,9.7-1.3
		c2.9-0.8-1.1-1,0.2-1.7c2.2,1.3,4.7-0.2,7.1,0.1c2.4,0.2,4.8,0.7,5.8-2.4c2.1,0.7,3.9-0.8,5.8-0.8c1.3,0,3.1-0.9,4.5,1.4
		c0.7,1.3,4,0.6,5.7,2.8c0.8,1.1,3.4-0.1,4.7,1.9c0.7,1.1,2.1,1.5,0.2,2.8c-2.1,1.5-3.9,0.7-6-0.2c-3.4-1.6-6.9-3.3-10.8-1.1
		c-2.8,1.5-5.9,2.6-9.3,4.2c1.5,0.4,2.4,0.7,3.4,0.8c14,1.4,25.1,7,31.1,20.6c0.3,0.7,0.6,1.9,1.5,1.6c3.1-1.2,7-1.7,8.9-4.5
		c4.2-6.5,6.5-14.1,9.7-21.1c0.8-1.7,0.1-3-1.3-3.7c-0.7-0.4-1.3-2.2-2.4-0.7c-1.6,2.1-2.6,0.2-3.9-0.3c1.9-0.2,3.8-2,3.2-2.8
		c-1.6-1.8-1.3-5.3-4.3-5.7c-4.7-0.7-8.9-2.6-13.2-4.3c-8.7-3.6-16.4-8.8-24.6-13.3c-2.9-1.6-5.5-3.7-8-5.8
		c-6.7-5.4-15-3.8-22.4-5.9c5.5,6,13,8.5,19.8,12.3c-2.7,0-4.9-2-8.1-2.2c9.2,5.9,17.5,12.4,27.8,15.2c-0.6,0.2-1,0.3-1.4,0.1
		c-5.1-1.7-10.2-3.7-15.3-5.4c-4-1.4-7.9-3.1-11.8-4.6c-4.4-1.7-8.2-5.2-12-8.3c-6.2-4.9-12.7-9.1-20.6-10.8
		c-3.8-0.8-7.6-1.6-11.2-3c-4.1-1.6-7,3.3-10.9,1.4c-1.2,2.4-3.5,1.7-5.4,2c-6.1,0.9-12.3,0.7-18.4,0.7c-1.7,0-2.9-0.7-4.3-2.4
		c6.3,1.2,12.1,0.9,18,0.4c-3.6-0.8-7.1-1.2-10.8-1.2c-5.6,0-11.4,1.3-16.8-1.5c-0.6-0.3-1.3-0.9-2.3,0.2c3,1.1,5.8,2.2,8.9,3.3
		c-1.7,0.4-2.9-0.4-4.2-0.7c-5.1-1.2-9.5-4.2-14.9-4.7c-3.3-0.3-7.5-1.8-9.3-3.9c-2-2.3-3.4-1.8-6.1-2.2c2.5,3,4.5,5.3,7,8.3
		c-3.9-0.6-5.4-3.6-8.9-4.7c2.2,2.9,4,5.3,5.8,7.7c0.4,0.5,1.6,1,0.9,1.5c-2.5,1.5,0,2,0.4,2.8c1.3,2.5,4.6,3.6,5.4,7.2
		c-11.3-6.6-19.9-15.5-28-25c1.4,3.9,4.1,7,5.5,10.6c1.4,3.5,3,7,4.6,10.4c1,2,2.4,3.6,1.4,6.1c-0.9-0.5-2.2-0.3-2.9-1.3
		c0.2-0.4,1.2-0.5,0.5-1.2c-2.3-2.1-4.6-4.1-6.9-6.1c-0.2,1.8,1.1,2.3,1.9,3.2C-157.7,163.4-155.1,163.6-154.4,166z M-135.7,244.9
		c-4.2,0.7-6.9,3.8-9.7,6.5c-3.7,3.7-3.2,5.9,1.5,8.3c0.8,0.4,1.2,0.7,1,1.4c-0.2,0.8-1.1,0.9-1.7,0.8c-1.1-0.1-2-0.8-2.5-1.7
		c-1.3-2.7-3.7-2.6-6.2-3.5c-4.4-1.6-6.1-0.2-7.3,3.6c-0.1,0.4-0.5,0.8-0.6,1.2c-5.1,11.9-4.5,22.4,5.8,31.3
		c3.4,2.9,7.1,5.3,11.1,7.2c16.4,8,42.7,3.8,52.2-17.1c4.5-9.9,4.5-19.3-0.9-28.7c-1.4-2.4-2.8-5.4-6.4-2.5
		c-0.4,0.3-1.2,0.4-1.6,0.3c-2.7-0.9-5.3-0.5-8.1,0.5c2.3-4.3,6.1-1,9-2.4c-4.2-1.5-8.5-2.6-12.5-4.4c-1.6-0.7-2.3,0.2-2.5,2
		c-0.3,3-1.2,5.7-5.2,7.4c2.3-2.8,4.4-4.9,3.1-8.3c-0.2,3.4-3.3,1-4.6,2.8c-1.9,2.6-4.2,2.6-6.6,0.4c-1.3-1.2-2.4-0.8-3.7,0.1
		c-1.4,1-1.1,2.2-0.3,3.3c0.6,0.9,1.5,1.6,2.4,2.6C-134.3,255.1-135.5,252.6-135.7,244.9z M-208.4,129.7c-1.3-1.8-2.3-3.2-2.1-5.3
		c0.1-1,1-2.4-0.7-3.3c-0.3-0.1-0.2-1.3-1.3-1.1c-1.1,0.1-0.8,0.9-0.9,1.5c-0.2,0.8,0.1,1.5,0.3,2.3c1.3,5.6,2.3,11.2,3.7,16.7
		c1.9,7.2,3.9,14.4,7.2,21.2c1.4,2.8,5,7.4,7.1,9c0-0.2,0.2-0.5,0.1-0.7c-4.4-7.5-6.9-15.8-10.1-23.8c-0.3-0.8-1.3-2,0.1-2.7
		c2.4-1.2,1.7-3.2,1.1-4.8c-1.3-3.1-1.7-6.4-2.2-9.6c-0.2-1.4-0.5-2.8-1.3-4.1C-208.9,126.4-207.4,127.9-208.4,129.7z M-229.9,125.3
		c0.2-1.8-0.8-3.9,1.5-5.5c1.1-0.7,1.3-3.7-0.1-5.6c-0.4-0.5,1.2-1.9-0.2-2.2c-1.3-0.3-1.5,1.2-1.8,2.1c-1.6,4.4-2.3,9.2-5.5,13.2
		c2.6,0.6,2.4-2.2,4.3-2.4c0.2,3.3,0.4,6.5,1.2,9.6c0.3,1.1,0,2.5,0.4,3.9c0.7,2.4,2,5-1.1,7c-0.6,0.4-0.5,1.1-0.2,1.6
		c0.6,1.1,0.7-0.2,1.1-0.3c0.6-0.3,1,0.1,0.9,0.5c-0.4,1.6,0.9,2.9,0.8,4.5c-0.3,2.5-0.1,5.1,2.1,7.1c-2-4.9,0.5-10-1.2-15
		c-1.1-3.1-1.2-6.4-0.9-9.7c0.2-3-3.1-6,0-9.1c0.1-0.1,0.1-1.1-0.6-0.5C-229.6,124.6-229.7,125-229.9,125.3z M-214.8,74.2
		c-0.7,2.1,0.8,2.4,2.2,2.9c0.5,0.2,0.9,0.6,1.3-0.2c0.9-1.9,2.4-3.6,1.9-5.9c-0.5-2.2-0.6-4.3-0.6-6.5c0-0.9,0.5-2.4-1-2.4
		c-1.2,0-0.7,1.4-1,2.2c-1,2.9-0.3,6.7-4.7,7.8c-1.1,0.3-3.8,1.2-2.6,3.1C-218.1,77-216.7,74.5-214.8,74.2z M-166,153.1
		c-7-6.2-9.3-14.4-11.8-22.4c-0.4,2.2,0.9,4,1.2,5.9c0.3,2,1.6,3.8,1.1,6.6c-1.2-1.7-2-2.9-3-4.2
		C-178.5,143.1-170.2,152.9-166,153.1z M-172.7,133.7c1.6,8.1,9.8,19.4,14.9,23.3C-162,148.3-168,141.4-172.7,133.7z M22.4,180.1
		c0,0.2-0.1,0.5-0.1,0.7c1.4,0.5,2.7,1,4.1,1.5c1.1,0.4,2,0.5,1.5,2.3c-0.1,0.6,2.4,0.4,3.7,0.4c-0.1-0.9,0.6-1.7-0.2-2.7
		c-0.8-1.1-1.3-2.6-2.7-2.9c-3.7-1-7.6-1.4-11.4-2.5c3.5,2.3,7.8,2.5,11.4,4.6C26.7,180.9,24.6,180.5,22.4,180.1z M25.1,174.6
		c-2.8-2.5-3.4-5.8-7-5.9c-1.2-0.1-2.5-0.8-3.2,0.5c-0.7,1.4,0.5,2.3,1.5,3.1C18.6,174,21.3,174.4,25.1,174.6z M-209.3,157.3
		c-0.8-6.7-3.9-12.9-4.5-19.7C-214,144.5-212.1,151-209.3,157.3z M-155.8,389.3c0.5-0.1,0.9-0.3,1.4-0.4c-1.5-4.4-2.9-8.9-4.4-13.3
		c-0.4,0.1-0.8,0.2-1.1,0.3C-158.7,380.4-158.3,385.2-155.8,389.3z M-187.9,138c1.7,6.2,3,12.5,6.7,17.9
		C-182.9,149.7-185,143.7-187.9,138z M-221.7,99.8c-3-0.5-0.8,4.7-4.6,3.7c-0.3-0.1-1.6,3.8-2.4,5.9c0.3,0.2,0.7,0.3,1,0.5
		C-227.1,105.6-220.8,105-221.7,99.8z M-226.5,194.1c-1.5,6.2-2.1,12.5-0.8,18.8C-227.5,206.7-226.6,200.4-226.5,194.1z M-232.3,210
		c2.7-3.8,1.3-7.6,1.1-11.5c-0.4,0-0.7,0-1.1,0C-232.3,202.3-232.3,206.2-232.3,210z M-217.7,217.2c-0.7,3.3-0.6,6.7,0.4,9.9
		C-216.2,223.7-216.1,220.4-217.7,217.2z M35.5,217.8c2.6-4.9,5.1-9.3,6.2-14.3c-2.3,4.1-4.4,8.4-6.4,12.6
		C35.2,216.4,35.3,216.8,35.5,217.8z M-213.5,85.5c-1.2,0.4-2.4,0.6-2.4,0.7c0.4,3.4,0.9,6.8,1.4,10.3
		C-212.1,93-216,89.5-213.5,85.5z M-223,217.9c-1.4,3.9,0.5,6.3,3.5,9.2C-220.1,223.3-221.2,220.6-223,217.9z M-229.1,224.2
		c0.3-3,0.8-6.1-1.3-9.3C-231.1,218.5-230.8,221.5-229.1,224.2z M3.2,158.8c3.1,1.1,6.2,0.8,9.3,0C9.4,157.9,6.3,158.5,3.2,158.8z
		 M-209.1,239.3c-0.9-1.7-1.9-3.4-2.5-5.3c-0.2-0.5-0.5-1.1-1.2-0.9c-0.6,0.2-0.6,0.9-0.5,1.4C-212.9,236.9-211.6,238.6-209.1,239.3
		z M-213.3,195.9c-1.8,3-1.8,6.2-2.2,9.4C-214.4,202.2-212.9,199.2-213.3,195.9z M-167.8,359.6c1.7-2.8,1.4-5.6-0.2-8.8
		C-169.3,354.1-166.3,356.8-167.8,359.6z M-211.8,102.7c0.1,3.1,2,4.6,2.6,6.6C-208.4,106.7-209.8,105.1-211.8,102.7z M-90.6,137.2
		c-2.6-0.9-4.8-2.6-7.5-3.2C-95.9,135.8-93.5,137.1-90.6,137.2z M-141.4,244.1c0-0.8-0.3-1.3-0.8-1.2c-1.4,0.5-2.9,0.8-3.8,2
		c-0.4,0.5,0.3,1.2,0.9,1C-143.7,245.5-142.5,244.7-141.4,244.1z M-123.4,147.7c-2.4-1.4-4.6-3.4-8.4-4.3
		C-128.9,146-126.3,147.1-123.4,147.7z M-199.8,121.7c1.2,2.1,2.6,3.9,4.7,5.2C-196.3,124.8-197.3,122.6-199.8,121.7z M-151.6,147.1
		c0.2-0.2,0.4-0.4,0.7-0.6c-1.7-2.2-3.4-4.4-5.1-6.5c-0.2,0.2-0.4,0.4-0.7,0.5C-155,142.7-153.7,145.3-151.6,147.1z"/>
	<path class="st0" d="M56.8,446.6c-1.1-15.1-2.5-30.1-1.9-45.3c0.5,2.1,4,3.1,2.3,6c2.6,0.9,1,3.1,1.6,4.7c1.1,3.1,3.2,1.3,5.3,0.7
		c-1.2,3.4-0.9,6.1,2.2,8.5c2,1.6,4.6,3.6,4,7.3c-0.3,1.6,1.7,1.8,2.8,1.8c2.1-0.1,2.8,0.4,2.2,2.6c-0.7,2.6,0.8,2.9,3.6,1.7
		c-2.1,2.6-3,5.1-5,6.9c1.7-1,3.3-1,5.1,0.1c-2.1,2.1-2.8,4.6-2.6,7.5c0.3,4.5-0.1,9,0.7,13.4c0.6,3.2,0.4,6.8,2,9.5
		c1.3,2.3,1.4,3.9,0.8,6.2c-0.7,2.7,0.9,5.3,1.2,8.1c0.2,2.3,0.6,4.1,3.6,3.2c0.4-0.1,1.8-0.1,1.9,1c0.1,1-1.2,0.7-1.3,0.9
		c-0.7,1.4-1.6,3-1.4,4.5c0.2,1.8,2,0.7,3.1,0.8c0.7,0,1.4,0,2,0.2c0.8,0.2,1.7,0.4,1.7,1.4c-0.1,1.4-1,0.8-1.9,0.8
		c-0.4,0-0.8,0.9-1.2,1.4c1.3,0.5,2.9-0.3,4,1.8c-6.8-1.4-9.3,3.1-11.7,7.7c-3.7,7.1-9.1,12.7-15.1,17.8c-2.5,2.2-4.6,4.9-6.9,7.3
		c-1.3-1.2-0.6-2.1-0.2-2.7c0.9-1.3,2.7-2.5-0.4-3.5c-0.4-0.1-0.4-2-1.5-1.7c-1.6,0.4-0.5,1.8-0.3,2.6c0.9,5.9-1.5,9.3-6.1,13.2
		c-6,5.1-12.2,9.8-18.7,14.2c-7.3,4.9-15.1,8.8-23.1,12.6c-0.5,0.3-1.3,0.9-1.9,0.1c-5-6.6-12.6-9.9-18.9-14.9
		c-7.7-6.2-15.3-12.6-23-18.8c-7.5-6.1-15-12.3-22.1-18.8c-7.1-6.6-13.9-13.5-20.2-20.9c-6.8-8.1-13.9-15.9-20.3-24.3
		c-7.5-9.9-15.9-19-24.1-28.2c-8.7-9.8-18.4-18.5-30.8-24.3c1.7-0.6,2.6,0.3,3.6,0.8c0.7,0.3,1.6,1.3,2.1,0.7c2.5-3,3.9,0,5,1.2
		c1.6,1.6,3,3,5.3,3.2c0.3,0,0.8,0.2,0.9,0.4c2,5.1,7.6,4.8,11.1,7.4c2.5,1.8,5.1,3.5,7.7,4.6c3.2,1.3,5.8,3.8,9.5,4.4
		c3.5,0.6,6.2,3.8,8.7,6.5c0.3,0.4,0.6,1.1,0,1.5c-0.6,0.5-1.3,0.5-1.7-0.3c-1.3-2.3-1.9-1.9-2.8,0.3c-0.5,1.2-1.6,0.1-2.3-0.1
		c-1.9-0.6-3.8-1.6-5.9-0.8c2.6,5.8,7.1,10.1,10.5,15.1c1.9,2.8,4.5,4.1,7.7,4.4c7,0.7,13.8,2.8,21,2.7c1.3,0,2.8,0.7,3.4-1.2
		c0.3-1.1,1-1.1,1.8-0.7c0.6,0.2,0.9,0.6,0.8,1.3c-0.2,0.9-0.6,1.4-1.6,1.4c-3.9,0-7.9,0.6-11.6-0.1c-4.1-0.8-8.3,1.1-12.5-1
		c-0.4,2.8,1.7,3,3.2,3.1c2.2,0.2,4.5,0.8,6.6,0.8c3.1,0,2.8,1.6,2.6,3.6c-0.1,1.3-0.4,2.7,0,4.1c0.3-1.5,0.6-3.1,0.9-4.6
		c0.2-1.2,0-2.8,2-2.4c2.1,0.4,2.2,1.6,1.4,3.2c-0.1,0.2,0.1,0.6,0.1,1.1c1.1-1.3,0.9-2.8,1.5-4.7c0.7,1.8,4.2-0.6,2.9,3.2
		c1.4-0.4,0.7-2,1.9-2.3c1.3-0.3,1.6,0.1,1.7,1.3c0,0.4,0.4,0.4,0.7,0.1c0.5-0.5,0.1-2,1.4-1.4c1.1,0.5,0.2,1.6,0.2,2.5
		c0,0.6,0,1.1,0,1.7c0,0.8,0,1.6,0.2,2.4c0.3-1.7,0.6-3.3,0.9-5c0.1-0.8,1.1-1.9,1.3-1.6c1.2,2.6,2.5,0,3.7,0.2c2,0.3,4,0.2,6,0.2
		c1.9,0.1,3.8,0,5.7,0.2c3.8,0.3,7.5,1.1,11.3,1.1c5.8,0.1,11.6-0.2,17.4-0.5c3.9-0.2,7.7,0.6,11.6-0.1c1-0.2,2.1-0.4,2.4,1.1
		c0,0.2,0.6,0.5,0.7,0.5c3.7-3.3,8,0,11.7-0.9c5.3-1.3,10.4-0.2,15.6-0.6c4.3-0.3,8.7,0.3,13.1-0.5c6.2-1.2,11.9-3.5,17-7.3
		c2.7-2,5.3-4.1,7.6-6.7c2.5-2.9,0-7.6,3.9-9.8c-2.5-2.2-0.8-5.5-0.3-7.3c1.3-4.7-1.5-7.5-3.2-10.8c-0.6-1.1-1.4-2.2-3-1.5
		s-0.5,2-0.5,3C56.7,440.1,57.7,443.3,56.8,446.6z M-5.3,523.7c-0.5-2.4-2.1-2.7-4.1-2c-0.5,0.2-1.3,0.4-1.1,1.1
		c0.1,0.6,0.7,1.1,1,1.6C-8.3,523-6.3,525.6-5.3,523.7c0.7,2.4,2.2,2.3,4.1,1.5c-0.4,1.1,0,1.3,1.1,1.2c2.6-0.1,5.3,0,7.1,2.3
		c0.5,0.7,1.2,1.4,1.8,0.3c0.4-0.7,0.5-1.9-0.8-2.2c-0.9-0.2-1.6-0.4-1.4-1.5c0.2-1,1.1-0.9,1.9-1.1c1.2-0.3,2.4-0.6,3.6-0.8
		c4.7-0.9,9.8,0.7,14.1-2.4c2.8-2.1,6.5-1.4,9.7-3.3c5.8-3.3,12.1-5.6,16.3-11.3c0.6-0.9,2.1-1.3,1.1-2.6c-0.8-1-2.1-0.7-3.3-0.3
		c-2.3,0.8-3.6,2.8-5.4,4.2c-3.3,2.4-7.2,3.4-10.7,5.2c-4.4,2.3-9.3,3.3-13.7,5.9c-3.9,2.3-9.2,2.8-13.8,4.3c-0.8,0.2-2,0.6-2.3,0.3
		c-2.9-3.2-3.5,0.5-5.1,1.5c1.4-1,1.1-2-0.4-2.3C-2.6,522.5-4.3,522.1-5.3,523.7z M33.2,524.3c-0.1,0-0.1,0-0.2,0.1
		c-1.8,3.9-1.8,3.9,2.5,5.3c1.1,0.3,2.3,0.6,2.3,2.1c0,1.4,0.3,3.1-1.4,3.8c-0.8,0.4-1.4,0.9-2.8,2.1c3.9-1.6,4.5,0,4.2,2.7
		c-0.1,1-0.2,2.1,0,3c0.2,0.7-0.4,2.1,1.2,1.9c1-0.1,1.3-0.9,1.1-1.7c-0.5-3.3,1.2-6.6,0.2-10c-0.9-2.8,1.3-3.9,3.7-4.4
		c1.3,0.4-0.2,3.2,1.6,2.5c2.8-1.1,1.8,0.9,1.9,1.9c0.1,0.8-0.1,1.6-0.1,2.4c0,1.1-0.3,2.7,1.1,2.8c1.6,0.1,1.1-1.7,1.2-2.7
		c0.1-1.8,0.1-3.6,0-5.4c-0.1-1.2,0.6-2.7-0.9-3.3c-1.2-0.5-2.4,0.2-3.5,0.9c-0.5,0.3-0.9,0.7-1.3,1.1c0.5-2.2,0.6-4.3-2.3-5.5
		c4.1,0.4,4.1,0.4,2.7-3.1c1.2,0.4,3.1-0.4,2.7,2.2c-0.1,0.8,0.9,1.7,2,1.2c0.5-0.3,1.6,0,1.5-1.2c-0.1-2.5-2.6-1.9-3.8-3
		c-1-0.9-2.1-0.7-2.3,1C40,519.7,37,523.3,33.2,524.3z M-2.5,519c0.2-0.4,1.5,0.9,1.6-0.5c0.1-1-0.1-2.8-0.3-2.9
		c-1.3-0.2-1.9-2.5-2.4-1.9c-1.3,1.9-4.2,0.6-5,2.9c-0.2,0.5-0.4,1.6,0.3,1.3C-6.1,516.8-4.9,520-2.5,519z M18.8,525.9
		c-1.5-1.5-2.8-0.3-4.1-0.6c-2.2-0.5-2.6,0-2.5,2.2c0,0.3-0.5,0.6-0.7,1c-0.3,0.4-1.5,0.4-0.7,1.4c0.6,0.7,1.3,1.3,2.3,0.8
		c1.3-0.7,2.9-1.5,3.2-2.8C16.7,526.4,17.8,526.5,18.8,525.9z M3.3,519.8c2.3,0.3,4.5,0.9,5.7-1.7c0.9-1.9-2.2-1.6-1.7-3.4
		C8,518.3,2.6,516.4,3.3,519.8z M21.8,525.3c3.9,0.6,0.9,3.1,1.9,4.5c2.5-0.8,2-3.5,4.1-5.8C25.4,525.3,23.9,523.6,21.8,525.3z
		 M6.3,513.5c-1.4-1.1-2.6-1.8-3.8,0.3c-0.3,0.5-2-1.8-2.2,0.1c-0.1,1.3,1.9,0.4,2.8,0.7C4.6,515.3,5.5,514.6,6.3,513.5z M-41,488.1
		c-2,2.1-2.5,4.1-1.9,7.1C-41.5,492.8-41.7,490.6-41,488.1z M5.6,531.1c0-0.1-0.1-0.2-0.1-0.3c-0.1,0.1-0.3,0.2-0.4,0.3
		c0.1,0.1,0.3,0.2,0.4,0.2C5.5,531.3,5.5,531.2,5.6,531.1z"/>
	<path class="st0" d="M-134.5,4.3c-0.8,1.7-2.5,1.7-4,2.1c-1.8,0.5-3.6,1.2-4.6,3.4c4.8-2.5,9.5-3.8,14.6-2.3
		c-3.2,0.8-6.7,0.4-9.8,2.1c1.5,1.9,3.4,0.8,5,1c3.9,0.4,7.7,0.6,11.6,0.9c6.2,0.4,11.6,3.5,16.9,6.1c12.6,6.1,22.4,16.1,33.5,24.4
		c-4.6-1.3-8.8-3.6-12.8-6.2c-1.1-0.7-2-1.5-3-2.2c-0.5-0.4-1.1-1-1.8-0.5c-0.3,0.2-0.3,0.8-0.3,1.3c0,0.7,0.3,1.2,1.1,1.4
		c4.1,1.4,4.1,1.4,1,4.7c3.9-0.2,6.5,3.4,10.5,2c1.6-0.6,2.7,1.4,4.2,2c3.7,1.6,7.2,3.3,10.9,4.8c1,0.4,1.3,0.7,0.8,1.6
		c-0.9,1.5-1.2,0-1.7-0.3c-2.1-1.6-4.2-2.4-7.1-2c-2.1,0.3-4.4-1.2-6.6-1.3c-6.5-0.5-13-1.2-19.4-2.9c-2.4-0.7-4.7-2.1-7.5-1.5
		c5.2,0.6,9.1,4.2,14,6.1c-4.5,2.3-8.6-1.2-13.4-0.8c1.4,2.2,3.5,1.1,4.8,1.9c-0.7,0.7-2.1-0.1-2.6,1.3c1.1,0.5,2.4,0.5,3.5,0.3
		c5.2-0.9,9,3.4,13.8,3.7c-0.4,3.3,2.6,1.3,4,2.8c-2.5-0.1-4.7-0.2-6.9-0.4c-0.9-0.1-2.3-1-2.5,0.5c-0.2,1.1,0,2.5,1.6,3
		c3.7,1.1,7.5,2.6,11.1,2.8c3.2,0.2,4.9,2.5,7.8,3c2.1,0.3,4.3,1,6.5,1.7c-7.2,1.7-14.2-1.6-21.4-0.7c0.3,1.4,1.9,0.5,2.8,1.8
		C-83.2,70-86,71.1-89,70c-3.9-1.5-8.1-1.3-12.1-2.1c-2.6-0.5-1.2-1.2-0.4-2.1c0.2,1,0.9,1.1,1.7,1.2c2.4,0.1,4.7-1.2,7.1-1
		c-3-1.8-6-2.5-8.9-0.1c-1.8-0.7-1.8-0.7-3.1,2.9l0,0c-5.9-2-11.9-4.1-17.8-6c-2.7-0.9-4.7-2.7-6.9-4.4c-0.9-0.7-1.7-1.4-2.9-1.4
		c-1.1,1.3,1.9,1.5,0.1,3.3c0.1-1.7-4.3-1.2-1.1-4.3c0.5-0.5-0.7-1.2-1.5-1.5c-9.1-3.6-15.6-10.3-21.3-17.9c-2.2-3-3.9-6.6-4.7-10.5
		c-0.6-2.7,2.4-7.3,5.1-7.7c2.4-0.4,0.2,1.8,1.3,2.3c1.9-0.5,1.8-4.7,5.2-3c-4-2.5-8.2-3.3-12.4-1.7c-3.1,1.2-5.1,4.1-7.4,6.4
		c-2.1,2.2-3.7,4.8-5.9,6.9c-1.4,1.4-1.7,2.7-1.8,4.5c0.2,9,2.5,17,7.7,24.2c0.4,0.5,1.1,0.9,0.8,1.7c-0.1,0.2-0.2,0.4-0.5,0.8
		c-2.2-2.3-3.3-5.1-4.7-7.8c-2.2-4.2-3.1-8.9-5.4-13c-2.8-4.9-1-12.3,3.8-15.8c0.4-0.3,1-0.6,1-0.8c-1-4.1,2-4.8,5.3-5.6
		c-3.2-0.9-11.5,2.8-11.3,5c0.3,3.4-2.4,5.8-2.3,9.2c0.1,3.4-0.7,6.9-2.7,10c-0.2,0.3-1.1,1.5,0.8,1.1c1.2-0.3,1.1,1.2,0.9,2
		c-1.6,10.8,4.7,18.3,10.6,26c2.9,3.8,7.6,6.3,9,11.3c0.1,0.3,0.2,0.6,0.4,1.4c-6.9-4.8-10.9-11.4-15.7-17.4
		c-0.5,0.9-0.3,1.5,0.1,2.1c4.2,6.8,8.1,14.1,15.1,18.2c10.6,6.1,21.5,12.1,34.2,13.1c5,0.4,10.3-0.4,15.1,2
		c2.5,1.3,5.4,1.6,8.1,2.5c0.6,0.2,1.5,0.2,1.6-0.7c0.1-0.7-0.5-1.1-1.1-1.1c-2.9-0.2-5.7-1.6-8.7-0.6c-0.8-3.3-3.9-1.4-5.8-2.9
		c1.5-0.2,2.8,0,4.1,0.3c5.4,1.2,10.9,2.4,16.3,3.5c1.5,0.3,2.7,1,4,1.9h0.1c-4.6-0.1-8.8,1.6-13.1,3.1c-9.4,3.4-18.9,6-28.9,7.1
		c-0.3,0-0.6-0.2-1.1-0.4c1.3-1.1,3.3-0.4,4.3-2.3c-2.3,0.1-4-0.3-5.1-2.3c-0.3-0.5-2.2-0.9-2.5-0.5c-2.6,2.8-5.4,0.8-7.2-0.3
		c-3.5-2.1-7.1-1.2-10.7-2.1c0.5,1.8,3.3,1.1,2.8,2.7c-0.5,1.9-2.3,0-3.5,0.5c-2.2,0.8-4.2,0.2-5.9-1.3c-1.6-1.5-3.8-1.2-5.7-2
		c-5.5-2.8-9.6-7.1-13.5-11.8c-6.7-8-11.7-16.9-12.6-27.4c-0.5-7-0.4-13.9,2.5-20.7c1.6-3.8,1.9-8.2,5.2-11.2
		c-0.1,2,0.2,4.1-0.6,6.1c-0.9,2.1-2.1,4.1-2.6,6.3c-2.6,11.7,0.8,21.9,8,31.1c3.8,4.8,8.4,8.4,13.7,11.5c6,3.6,12.1,7.2,18.5,10
		c1.8,0.8,3.9,1,5.8,1.5c-3.7-3.4-8.4-4.4-12.5-6.7c-7.5-4-15.3-7.6-20.3-15c-2.3-3.4-5.1-6.4-5.3-10.8c-0.1-2.8-1.4-1.5-2.7-0.4
		c0.9-4.5-2.8-8-1.8-12.4c0.6,0.5-0.1,1.6,1.3,2.2c-1-4.1-0.9-8.1-1.1-12c-0.1-2.1,0.5-4.4,2.3-5.2c2.4-1.1,2.8-1.2,1.7-3.7
		c-0.9-2.1-1.5-4.3-0.9-6.7c-1.2,1.6-4.2,1.6-3.6,4.4c-2.4-2.9-2.3-4.4,0.8-7c1-0.8,2.9-1.3,1.2-3.2c-0.3-0.4,0.4-0.8,0.8-0.7
		c2.9,0.5,3.5-1.7,4.3-3.7c-1.1-1.2-2.3,0.2-3.7-0.1c2.6-2.2,6.9-0.6,8.7-4.1c-0.1,0.8,0.3,1.2,0.9,0.9c2.6-1.5,5.8-1.7,9.2-3.3
		c-4.3-0.4-7.4,0.4-10.2,2.6c2.9-3.1,6.4-4.7,10.6-3.3c2.9,1,4.5-1.3,6.3-2.3c4.3-2.3,8.4-2.6,12.8-0.9c1.4,0.6,1.7-0.2,1.9-0.9
		c1.7-6.2,6.7-8.1,12-9.8c1.7-0.5,3.5-0.2,5.3-0.7c-1.5,1.9-4.5,2.1-5.1,4.9c0,0.1,0,0.2-0.1,0.3C-134.9,4.3-134.7,4.4-134.5,4.3
		L-134.5,4.3z M-171.8,95.8c-2.2-4.9-8.1-5.3-11.1-9.1c1.2,3,3.6,4.9,6,6.7c1.7,1.3,3.2,3.4,5.9,2.9c6,5,23.3,10.6,28.7,9.2
		c-1.5-1.1-3.2-1.1-4.8-1.6c-7.5-2.5-15.8-2.9-22.3-8.2C-169.9,95.3-171.1,93.9-171.8,95.8z M-137.9,25.2c0,0.3-0.1,0.6-0.1,0.9
		c3.2,1.2,6.4,2.3,9.5,3.5c10.4,4.2,21.9,3.9,32.5,7.5c1.4,0.5,2.3-0.4,2.4-1.6c0.1-0.6-0.3-1.4-1.7-1.7c-8.7-1.6-17.5-2.4-26.1-4.8
		C-126.8,27.6-132.4,26.5-137.9,25.2z M-137.2,16.1c-1.8,0-2.4,1.9-3.9,1.6c-0.8-0.2-1.6-1.5-2.1,0.1c-0.4,1.3,1,1.4,1.9,1.9
		c0.9,0.4,1.8,1,2.9,0.9c9.7-0.9,19,1.3,28.3,3.7c1.7,0.4,3.8,0.4,4.9,1.9c0.7,0.9,1.1,0.9,1.9,0.7c0.3-0.1,0.7-0.4,0.7-0.6
		c0-1-1.1-1.1-1.7-1.4c-3.8-1.9-8-2.8-12-4.1c-2.2-0.7-3.9-2-6.6-2c-5.1,0.1-10.3-0.6-15.8-0.4C-138,17.3-137.6,16.8-137.2,16.1z
		 M-101.1,41.4c-13.7-2.3-26.9-6.2-39-13.1C-128.8,37.5-115.6,41.2-101.1,41.4z M-141.9,37.5c0.1-1.6-0.9-2-1.3-2.7
		c-1.4-2.9-4.4-5.3-3.3-8.9c0.5-1.8-0.2-2.5-1.3-3.3c-0.9-0.6-1.9-1.1-2.8-0.4c-1.1,0.9-1.1,2.2-0.7,3.4
		C-150,30.9-146.9,34.7-141.9,37.5z M-154.1,26.4c-0.9,7.3,8.5,21.6,16,23.9C-145.3,43-151.9,36.1-154.1,26.4z M-115.2,52.1
		c5.1,1.9,9.3,6.3,15.4,6.4c-2-2.4-5-1.9-6.6-5.2C-107.3,51.2-112.1,52.8-115.2,52.1z M-122.7,13.9c-5.5-2.5-11.1-2.7-16.9-1.1
		C-134,12.6-128.3,13.3-122.7,13.9z M-137.6,38.8c2.8,2.3,5.3,5.2,9.2,5.7C-131.7,42.9-134,39.7-137.6,38.8z M-117.6,28.2
		c2.9,2.1,6.4,1.7,9.7,2.2C-110.9,28.9-114,27.7-117.6,28.2z M-104.6,50.8c-1.3-0.8-2.3-2.6-4.1-1.7c-0.5,0.2-0.6,0.8-0.4,1.1
		C-107.8,52.1-106.1,50.7-104.6,50.8z M-121.5,107.7c2.6,1.5,5.3,0.9,8.4,0.1C-116.2,106.1-118.8,108.7-121.5,107.7z M-152.1,14.5
		c2,0.6,3.1,2.7,5.1,0.6C-148.4,13.9-149.7,12.9-152.1,14.5z"/>
	<path class="st0" d="M-66.4,452.8c0.4-2.1-0.8-5.4,4.1-4.1c-1.2-1.7-2.2-1.3-3.1-1.3c-0.7,0-1.6-0.1-1.6-0.9c0.1-1.2,1-0.9,1.8-0.6
		c0.4,0.1,0.8,0.1,1.3,0.1c-1-1.8-2-3.5-2.9-5.1c0.9-0.9,1.6,0.1,2.3,0.1c0.6,0,1.2,0,1.3-0.7c0.1-0.4,0.1-0.9-0.1-1.3
		c-0.7-1.1-0.4-4,0.6-5.1c-1.3-0.8-2.5,0-3.6,0.4c-1.5,0.4-2.1-0.4-2.7-1.4c-1-1.7,0.8-1.1,1.3-1.5c0.7-0.6,1-1.2,0.6-2
		c-0.4-0.9-0.9-1-1.8-0.5c-2.1,1-1.3-2.1-3.1-1.8c0.8-0.9,1.6,0.1,2.2-0.8c-2.6-0.7-1.4-3.6-2.9-5c-1.4-1.4-1.6-4.3-4.7-3.5
		c-0.7,0.2-1.7-0.9-2.5-1.7c-1.8-2-3.7-3.6-6.7-2.4c-1,0.4-2.5,0-3.5-0.5c-1.6-0.7-2.8-2.1-4.2,0.4c-0.6,1-1.6-0.1-1.8-1
		c-0.5-2.9-0.9-3.2-3.1-1.8c-0.7,0.4-1.4,0.5-1.9,0c-1.3-1.4,0.9-0.9,0.8-1.2c-0.3-0.8-0.3-2.1-1.5-2.3c-2.8-0.4-3.3-2.7-4.7-5.4
		c5.1,2.2,9.4,4.4,13.9,6c9.4,3.4,18.8,7.1,28.8,8.1c15,1.4,29.7-0.5,43.8-6.6c5.4-2.3,10.7-4.9,15.9-7.9c0.7-0.4,1.7-1,2.2-0.7
		c0.9,0.5,0.2,1.5,0.1,2.4c-0.7,3.8-0.7,7.7-2.2,11.4c-0.1,0.2-0.2,0.6-0.1,0.6c2.9,1.8-0.6,2.9-0.4,4.5c0.1,0.5-1.1,1-0.3,1.7
		c2.3,2,1.5,3.2-0.9,4.2c-0.3,0.1-1.3,0.3-1,1.1c0.7,1.5,2.5,2.7-0.7,3.9c-0.7,0.2-0.9,4.8,1,6.9c1.2,1.4,1.6,2.4,0.2,4
		c-1.6,1.9,0.6,2.5,1.6,3.5c0.4,0.5,1.7,0.9,0.8,1.8c-0.2,0.2-1,0-1.8-0.1c1.6,2.6,2.5,5.2,1.4,8.2c-0.1,0.4-0.1,0.9,0.1,1.3
		c2.7,4.5,1.5,6.8-3.9,7.4c4.9-0.7,3.1,3.5,4.3,5.5c0.2,0.3-0.2,1.5,0.4,1.3c4.3-1.6,2,2.7,4.3,3.8c-11.8,0.7-22.7,0.6-33.6,0.2
		c-9.6-0.3-19.3-0.9-28.9-1.4c-1.6-0.1-2.9-0.1-3.4-2.2c-0.5-2.2-2-3.4-4.5-2.3c-0.7,0.3-1.8,0.6-2.9-0.5c2.9-0.1,5.1-3.3,8.4-0.2
		c-0.9-2.9-1-3.1-2.5-2.9c-1.7,0.2-2.5-0.7-3.2-2c0.1-0.1,0.3-0.4,0.4-0.4c4.2,0.9,4.2,0.9,3.1-3.3c-0.3-1.1-0.3-1.2,1.3-1.4
		c0.4,0,0.6-0.1,0.7-0.5c0.1-0.7-0.1-1.5-0.8-1.8c-1.1-0.5-2.1-0.9-1.3-2.4C-66.4,452.9-66.4,452.9-66.4,452.8z"/>
	<path class="st0" d="M-90,84.2c-0.7-1.5-2-0.5-3-0.6c-2.1-0.3-4.3,0.5-6.4-0.4c-0.6-0.3-1.7-0.2-2,0.8c-0.4,1,1.5,0.7,1,1.9
		c-3.3,0.9-6.6-0.2-10-0.4c0.1,1.4,1.3,0.6,2.1,1.6c-5.9-1.1-11.3-2-16.7-3.1c-2-0.4-4-0.1-5.9-0.8c-1.3-0.4-2.5-0.4-3.5-1.8
		c-0.4-0.6-1.5-2-2.7-0.4c-0.3,0.4-0.8,0.2-1.2,0c-5.3-2.6-11-4.8-14.2-10.3c-0.3-0.6-0.8-1.3-1.4-1.4c-4-0.9-5.7-4.2-7.7-7.2
		c-3.1-4.6-7.4-8.6-8.8-14.1c-1-4-3.6-8-1.5-12.6c0.7-1.5,2.1-2.3,2.9-4.3c0.8,4.3,1.5,8.1,3.1,11.8c3.5,8.3,10.5,12.6,17.9,16.2
		c6.2,3,12,6.7,18.1,9.8c5.1,2.5,10.6,4,15.5,6.8c0.8,0.5,1.7-0.8,2.7-0.1c-0.4,1.2-1.7,1.2-2.7,1.7c5.6,1.3,11,3.3,16.7,4.1
		C-95,81.5-92.1,81.8-90,84.2L-90,84.2z"/>
	<path class="st0" d="M-70.3,547.6c-7.6-3.7-14.6-8.3-21.9-12.2c-7.6-4.1-14.5-9.2-21.9-13.7c-2.4-1.5-5.3-2.2-7.1-3.5
		c-2.5-1.9-5.6-3.6-7.4-6.3c-1-1.5-2.4-3-3.7-3c-3.6,0.1-5.8-2.7-8.8-3.8c-1.5-0.5-2.8-1.7-3.5-3.5c-0.8-1.9-2.9-2.5-4.6-3.1
		c-0.8-0.3-1-0.3-0.7-1c0.5-1-0.1-1.7-0.9-1.7c-4.2,0-5.1-6.9-10.1-4.8c-0.3-2.6-2.4-4-4.1-5.5c-2.4-2.2-4.7-4.4-8.2-5.5
		c-2.8-0.9-4.8-3.8-7.6-5.2c-1.4-0.7,1.7-2,0.7-3.7c-1.3,0.6-2.5,1.4-3.9,1.7c-0.7,0.1-2.3,0.5-2.6-1c-0.3-1.4,1.4-0.9,1.8-1.7
		c-0.5-1-1.7-1-2.3-0.9c-1.4,0.2-1.9,0.2-1.4-1.4c0.3-1.1-1.9-3.4-2.8-4.2c-2.1-1.8-4.8-2.9-7-3.5c-2-0.6-2.5-3.4-5.1-2.7
		c1.9-0.5,2.4-0.8,1.5-3c-0.6-1.4-3-3.2-0.9-5.4c0.4-0.4-0.4-1-0.8-1.3c-3.9-1.8-7-5.2-11.7-5.2c-2.4,0-4.7-0.4-7,1.2
		c0.8-4.7,3.6-6.7,7.7-5.3c8.1,2.7,14.8,7.9,21.1,13.4c7,6.1,13.4,12.8,20.2,19c6.8,6.3,13.9,12.4,20.8,18.7c4,3.6,8.8,6.6,13,10.1
		c10.7,9,22.6,16.2,34,24.2c6.5,4.5,13.7,8.2,20.1,12.8C-80.2,540.5-75.1,543.8-70.3,547.6z"/>
	<path class="st0" d="M53.4,329.6c1.6-0.6,1.3,0.7,1.5,1.4c0.4,1.2-0.4,2.5,1.1,4.2c0.8-10.1-1.4-19.6,0.2-29.2
		c1.6-9.5,1.6-19.1,0.2-28.9c3.4,1.5,6.3,0.8,8.7-1.4c2.5-2.3,4.7-4.8,7.1-7.2l-0.1-0.1c3,4.9,2.1,10.3,1.3,15.4
		c-0.5,3.4-0.9,6.7-1.2,10.2c-2.6-7.5,2-15.1-0.6-22.8c-2.3,1.7-2.5,4.4-3,6.8c-1.1,5.2,0.1,10.3,1.3,15.3
		c1.5,6.5,3.4,12.9,2.7,19.7c-0.2-0.9-2.2,0.3-1.6-2.2c1.4-6.2-0.3-12.1-5.3-16.9c-0.7,3.2,1.9,5.3,1.6,8.1c-0.9,0.1-0.8-1.1-2-1.5
		c2.1,7,4.4,13.8,3.1,21.1c-2.7-7.2-2.8-15.5-9-21.8c-0.4,5.7-0.1,10.7,1.2,15.7c1.2,4.9,1.6,9.9,0.7,14.9c-0.6,3.4-1.7,7.6-3.6,9.5
		c-3.1,3.2-1.6,6.2-1.6,9c0.1,5.2-0.8,10.1-2.1,15.9c-1.4-7.3-1.2-14-2.1-20.5c-0.1-0.9-0.1-1.8-0.2-2.7c-0.2-4-2.4-8.2,1.5-11.7
		C53.3,329.8,53.3,329.7,53.4,329.6z M53.3,334c-0.8,5.9,0.6,11.7,1,17.6C54.9,345.7,55,339.8,53.3,334z"/>
	<path class="st0" d="M-70.8,326.9c-1.6,1.6-3.6,2.4-5.8,2.5c-0.5,0-3.1,0.6-1.2-1.6c0.5-0.5,0.1-0.9-0.4-0.8
		c-2.9,0.4-2.6-2.3-2.5-3.4c0.2-2.2,2.4-1.5,3.9-1.4c1.2,0.1,2.5,0.4,3.7,0.8c2.4,0.8,4.7,1.3,6.3-1.8c-2.7-0.6-5.6-1.1-8.2-2.2
		c-1.1-0.4-2.1-0.2-3.2,0.4c-2.2,1.1-3.7-0.8-4.3-2.1c-0.8-1.8,1.3-2.3,2.7-2.6c1.6-0.5,3.2,0.1,4.7,0.6c2,0.7,4,1.7,6.1,1.9
		c0.9,0.1,1.5,0.4,2,1.7c1,2.7,4,3.3,6.4,4.4c0.2-0.5,0.3-0.7,0.4-0.9c0.5-1.4-3.2-1.7-1.1-3c1.6-0.9,3.8-2,5.9,0.4
		c3.4,3.9,5.3,3.2,6.9-2c1.1-3.3,3.6-5.8,6.3-7.9c2.1-1.7,4.5-3.1,6.8-4.6c0.6-0.4,1.5-1.1,2.2-0.4c0.7,0.8-0.1,1.7-0.5,2.4
		c-0.3,0.5-0.8,0.9-1.3,1.1c-2.3,0.8-3.8,2.3-4.6,4.6c-0.1,0.3-0.3,0.6-0.5,0.9c-2.1,2.1-2.1,2.1,0,3.6c0.6,1.6-4.8-0.5-1.7,2.8
		c0.5,0.5-1,1-1.7,1.1c-1.2,0.2-2,0.8-1.7,2.1c0.6,2,1.3-0.1,1.9,0c0.9,0.1,1.9,1.1,1.1,1.3c-3.1,0.9-0.6,4-2.6,5.4
		c-1.2,0.9,1.4,1.4,1.1,2.8c-0.6,0.2-1.6,0.2-2,0.7c-4,4.5-8.7,3.6-13.6,2.1c-2.5-0.8-3.8-2.7-3.1-5.5c0.4-1.5,2.4-3.3,1.1-4.2
		c-1.9-1.2-4.5-2.3-6.9-0.3C-69.2,326.1-70,326.5-70.8,326.9z"/>
	<path class="st0" d="M121,456.6c4.2,3.7,5.9,8.5,6,14c0.1,4.2-0.4,8.4-0.9,12.5c-0.2,2.1-1.9,4.6-2.5,7c-1.1,4.7-4.7,8.4-5.4,13.2
		c-0.1,0.9-0.6,0.9-1.4,1c-1.3,0.1-2,1.7-1.5,2.2c1.9,2-0.6,2.3-1.1,3.4c-1.2,2.8-1.8,6.4-6,6.4c-0.8,3.8-5.1,5.9-4.8,10.4
		c0.1,0.8-1.5,1.8-2.7,2.4c-2.1,0.9-3.9,2.2-4.7,4.6c-0.3,0.8-1,1.5-1.8,1.2c-1.1-0.4-0.5-1.6-0.6-2.4c-0.2-3.3,3.6-3.3,4.6-5.9
		c0.6-1.6,2.2-3,3.7-4.3c2.8-2.2,4.1-5.6,2.9-8.8c-1.6-4.5-0.1-8.4,1.5-12.3c0.5-1.1,2.1-2.2,3.4-2.4c6.7-0.9,8.4-6.4,10.3-11.3
		c1.9-4.7,3.3-9.6,4.4-14.6c0.9-4.2-0.1-8.3-1.8-12.3C121.9,459.1,121.5,457.9,121,456.6z"/>
	<path class="st0" d="M-3.3,330c-1.6,3.4-5.1,3.8-7.8,4.5c-7,1.9-13.7,4.4-20.1,7.6c-4.8,2.4-9.9,4.1-14.7,6.5
		c-1,0.5-2.2,0.9-3.3,0.9c-4.1,0-8.2,1-12.2,0.9c-8.6-0.3-16.7,1.9-24.9,3.4c-3.3,0.6-6.8,0.8-10.2,0.9c-1.1,0-2.3-0.8-3.4-1.4
		c-1.2-0.6,0.9-1.9-0.4-2.6c0.7-1,1.4-0.3,2,0c4.5,2.4,8.9,1.7,13.5,0.3c6-1.8,12.7-2.1,18.2-4.7c7-3.3,14.4-0.4,21.1-3.5
		c1.2-0.6,2.6-1.3,4-1.7c10.7-3.2,21.4-6.4,32-9.7C-7.3,330.8-5,331.9-3.3,330z"/>
	<path class="st0" d="M-57.9,27c3,1.6,5.9,3.1,9.7,5.1c-3-0.3-5.1-0.8-7-1.8c-6.6-3.3-13.6-5.6-19.2-10.8c-3.1-2.8-8-3.6-10.2-7.2
		c-2.9-4.7-8.2-4.9-11.9-7.9c-1.1-0.9-2.9-1-4.7-1.6c2-1.2,4.1-0.7,5.4,0.1c3.4,2.2,7.4,2,11,3.1c2.9,0.9,5.8-0.4,8.8-0.5
		c4.2-0.1,8.1,1.2,11.2,3.3c1.6,1.1,3.5,1.5,5,2.6c1.3,1,2.3,0,3.4-0.6l-0.2-0.1c1.5,3.6,5.3,4.4,8.6,6.7c-3.6-0.3-6-2.3-8.7-3.2
		c-3.2-1.1-6.4-1.8-9.6-2.6c-3.3-0.8-6.6-2-10-2.9c-0.5-0.1-1.1-0.4-1.6-0.4c-1.5,0-3.6-1.1-4.4,0.6c-0.8,1.8,1.6,3.3,2.6,3.4
		c3.8,0.4,5.6,3.5,8.2,5.4c4.4,3.1,9.7,3.7,14.5,5.6c1.5,0.6,3,1.2,4.3,2c0.8,0.5,0.6,1.1-0.3,1.3c-1.3-0.5-2.6-1.1-4-1.6
		c-0.6-0.2-1.4-0.4-1.7,0.5C-59,26.2-58.6,26.8-57.9,27z"/>
	<path class="st0" d="M72.2,268.6c4.4-6.1,3.2-13,2.7-19.9c-0.7-8.5,0.3-17,0.4-25.5c0-1,1.3-1.8,0.4-2.8l-0.1,0.1
		c4.4,2.5,5.7,6.8,6.9,11.3c2.2,8,2.4,16,0.9,24c-0.5-5,0.5-10.1-0.7-15.9c-1.1,3.1-1.4,5.6-1.5,8.1c-0.1,6.3-3.1,11.8-5,17.6
		C76,266.3,74.8,269.4,72.2,268.6C72.2,268.5,72.2,268.6,72.2,268.6z"/>
	<path class="st0" d="M33.3,379c0.1,0.7,0.5,1.5,0.3,1.9c-3,4.1-0.6,8.9-2,13.1c-1,2.8-0.1,6.4-3.3,8.3c-1,0.6,1.4,1.9-0.5,1.8
		c-1.5-0.1-1.6,2.5-2.9,1.6c-1.2-0.8,0.4-2.8,0.2-3.2c-1.9-3.2-0.2-6.7-0.9-9.9c-0.4-2-0.5-3.8,0-5.9c0.5-2,0.9-4.2,0.2-6.6
		c-0.7-2.4,0-5.2,1.4-7.5c1.2-2,3.4-3.3,3.7-5.9c0.1-0.8,0.9-1.7,2-1.5c1.4,0.2,0.9,1.4,1,2.1c0.4,3.9,0.8,7.7,1.2,11.6
		C33.5,378.9,33.4,379,33.3,379z"/>
	<path class="st0" d="M44.3,145.9c-2.8,3.9-14.7,7.3-26.7,8.5c-10,0.9-19.4-1.2-29.1-3C7.3,151.1,26.5,153.7,44.3,145.9z"/>
	<path class="st0" d="M-137.9,489.4c-0.7-1.8-2.5-1.6-3.9-2.2c-0.7-0.3-3.6,1.6-1.7-1.6c0-0.1,0-0.3,0-0.3c-3.2,0-2.4-4.2-5.1-4.9
		c-0.4,0.7,1,3-1.5,1.7c-1.1-0.5-2-0.5-3.1,0.3c-1.7,1.2-2.2-0.8-3-1.7c-1.4-1.8,1.5-0.9,1.1-2.4c-0.9-0.7-2-1.2-3.5-0.5
		c-1.1,0.6-2.1,0-2.5-0.9c-0.4-0.8,0.2-1.5,1.2-1.6c0.2-0.1,0.4-0.1,0.6-0.2c1-0.4,1.7-1.4,2.9-1.1l-0.1-0.1
		c1.2,0.8,2.7,1.2,3.2,2.9c0.3,0.8,1,1.2,1.9,1.1s2-0.3,2.3-1.2c0.3-0.9-1.5-0.3-1.5-1.4c3.5-1.3,4.7-1.9,5,3.7
		c0,0.6,1.2,0.5,0.1,1.9c-0.9,1,1.9,0.9,3,1.5c1.3,0.8,0.5,3.3,2.9,3.2c0.8-0.7-1.8-2.5,0.4-2.4c1.8,0,4.5-0.9,5.3,2.1
		C-137.6,484.4-137.4,487.2-137.9,489.4z"/>
	<path class="st0" d="M-101,99.3c1.9-1.1,3.4,0.4,6-0.5c-5-1.5-9.4-2.7-14.1-4.1c1.5-1,3.4,0,4-1.7c0.2-0.7-0.9-0.4-1.4-1.4
		c1.3,0.7,4-0.8,2.4,2.4c-0.4,0.9,0.7,0.9,1.3,1c2.9,0.6,5.8,0.6,8.7,0.6c4,0,8.1,0.7,12.1,1.3c-1.9,0.1-3.9,0.2-6.3,0.3
		c1.3,1.2,2.6,0.8,3.7,1.2c0.7,0.2,2.7-0.3,0.8,1.5c-0.6,0.6,0.6,0.7,0.9,0.8c1.3,0.4,2.6,0.7,3.8,1.7
		C-86.4,101.5-93.7,100.4-101,99.3z"/>
	<path class="st0" d="M11.3,146.8c6.7-1.1,13.5,0.5,20.1-1.2c-12.5,4.6-24.7,1-37-1.1c4.6-1.3,9.2,0.1,13.9,0.2
		c4.6,0.1,9.2,0,14.4,0C18.8,146.6,14.7,145.1,11.3,146.8z"/>
	<path class="st0" d="M-94,74.7c11.2,0.5,22.6,1.1,34,1.6c-1.7,1.1-3.4,1.2-5.2,1c-4.9-0.6-9.9-1.1-14.7,0.8
		c-1.4,0.6-2.8-0.5-4.3-0.7C-87.7,77.1-91.5,77.9-94,74.7z"/>
	<path class="st0" d="M9.4,149.3c-10.5,1.8-20.9,0.3-31.3-0.9C-11.4,147.4-1,147.6,9.4,149.3z"/>
	<path class="st0" d="M-180.5,47.7c3.4,5.2,4.7,10.8,7.6,15.7c2.1,3.6,4.8,6.5,7.6,9.5c0.5,0.6,1.1,1.2,1.5,1.8
		c0.3,0.5-0.2,0.8-0.6,1c-0.7,0.3-0.5-0.4-0.7-0.6c-4-4.3-7.9-8.6-10.8-13.8c-0.8-1.4-1.7-2.7-2-4.3c-0.1-0.6-0.1-1.5-0.4-1.6
		C-181.7,53.8-180.5,50.8-180.5,47.7z"/>
	<path class="st0" d="M-108.3,88.8c11.1,0.1,21.9,3.3,33.9,2.9c-1.8,1.8-3.1,1.5-4.4,1.5c-3.5-0.1-7-0.3-10.5-0.3
		c-1.9,0-3.1-1.5-5-2C-99,89.8-103.9,90.9-108.3,88.8z"/>
	<path class="st0" d="M-57.9,27c-0.7-0.3-1.2-0.8-1-1.5c0.3-0.9,1.1-0.7,1.7-0.5c1.4,0.5,2.7,1.1,4,1.6c4.9-0.6,8.6,3.1,13.2,3.8
		c0.9,0.1,1.2,1.1,0.5,1.9c-0.5,0.5-1.1,0.6-2.2,0.3C-47.3,31.4-52,27.6-57.9,27z"/>
	<path class="st0" d="M-24.9,26.5c0.8,0.4,1.7,0.8,2.4,1.3c1.6,1.3-1.1,0.6-0.7,1.3c0.1,0.2,0.4,0.2,0.6,0.2
		c2.8,0.1,4.6,1.6,5.8,4.6c-3.7-0.5-7.1-0.8-10.3-2.2c-0.8-0.4-2.7-0.8-1.6-2.6l0.1,0.2C-28.9,26.1-25.6,28-24.9,26.5L-24.9,26.5z"
		/>
	<path class="st0" d="M25,142.1c-7.2,0.7-14.4,2.3-22.2,1.1c1.8-1.5,3.5-0.9,5.9-1.4c-3.8-1.3-7,0.1-9.9-1.2c3.9,0.7,7.9-1.8,11.8,1
		c1,0.7,3.1,0,4.7-0.1C18.6,141.2,21.9,141,25,142.1z"/>
	<path class="st0" d="M-252.6,225.5c-0.6,0.6,0.8,2.1-1.2,2.2c-1.7,0.1-1.3-1-1.5-1.8c-0.7-2.7-0.6-5.6-1.7-8.3
		c-1.3-3,1-3.8,3.5-4.7c0,2.8,0.3,5.2-0.1,7.6c-0.3,1.9-0.2,3.6,1,5.1C-252.5,225.6-252.6,225.5-252.6,225.5z"/>
	<path class="st0" d="M84.9,423.5c3.5,2.7,4.3,7,6.8,10.2c0.8,1-0.7,2.7-1.6,3.5c-0.9,0.9-1.1-1-1.7-1.4c-1.7-1-1.9-2.6-1.9-4.2
		C86.3,428.8,85.7,426.2,84.9,423.5z"/>
	<path class="st0" d="M-8,136.4c11.6,0.9,22.5,0.9,33.2,0.3c-3.2,1.6-6.8,2.3-10.4,1.6c-4-0.9-7.9-0.2-11.9,0
		C-0.6,138.4-4.1,138.6-8,136.4z"/>
	<path class="st0" d="M-104.5,68.8c3.3-1.1,6,1.3,9,1.9c1.7,0.4,3.7,0.4,5.5,1.5c-7.5,0.6-14.6,0-21.1-3.8c2.4,0.4,4.7,0.8,7.1,1.2
		c0.4,0.1,1.1,0,0.5-0.7C-103.7,68.8-104.1,68.9-104.5,68.8L-104.5,68.8z"/>
	<path class="st0" d="M-113.2,5.1c9.3-0.4,17.4,3.1,24.7,8.8C-96.5,10.2-104.4,6.4-113.2,5.1z"/>
	<path class="st0" d="M-129.2,472.3c-0.7-0.4-1.4-0.8-2.1-1.2c-1.2-0.7-4.2,0.5-2.9-3.1c0.6-1.6-2.8-2.7-2.4-5.1
		c0.1-0.5-1.3-1,0-1.5c0.8-0.3,1.3-0.1,1.6,0.7c1,2.9,3.7,4.6,5.2,7.1c0.9,1.5,2.2-0.4,3,1.1c-0.6,0.5-1.3,1.2-2.1,1.9
		C-129,472.4-129.1,472.4-129.2,472.3z"/>
	<path class="st0" d="M-1.5,134.8c8,0.7,15.8-2.7,23.8-0.4C14.4,135.7,6.5,135.2-1.5,134.8z"/>
	<path class="st0" d="M35.3,156c0.4-0.6-0.2-1.7,0.9-2c7.2-2.3,12.9-7.1,19.2-11.2c-4.5,3.6-7.4,9.1-13.6,10.5
		C39.4,153.8,37,154.1,35.3,156C35.2,156,35.3,156,35.3,156z"/>
	<path class="st0" d="M-134.1,485.2c3.2,0.4,5.6,2.1,7.1,4.9V490c-2.6-0.7-3.8,0.5-3.5,3.5c-1.8-1.6-2.9-2.9-5.1-1.9
		c-1,0.5-2.3-0.4-2.6-1.9c3.7,0.7,4.3,0.3,3.8-2.9C-134.5,486.3-134.2,485.8-134.1,485.2z"/>
	<path class="st0" d="M81.2,545.5c-0.3,1-1.2,2.3-1.5,2.4c-2.7,1.5-5.1,3.1-7.3,5.3c-0.4,0.4-1.3,0.5-1.7-0.4
		c-0.3-0.7-0.8-1.6,0-2.2c2.9-2,5.9-3.9,8.9-5.8C80.4,544.4,81.1,544.2,81.2,545.5z"/>
	<path class="st0" d="M-159.4,475.2c-0.2,0.1-0.4,0.1-0.6,0.2c-3.3-2.4-7.5-3.4-10.4-6.6c1.4-1,2.3-0.6,3.2,0.3
		c2.3,2.4,4.6,1.9,6.9,0.1c1.6-1.3,2.8-1.3,3.6,0.8c-2.3-1.9-2.8,2.1-4.8,1.3c0.1,1.2,0.4,2.3,1.6,3
		C-159.7,474.5-159.6,474.9-159.4,475.2z"/>
	<path class="st0" d="M4.8,48.1c6.5,2.5,12.9,5,19.4,7.6C17.1,54.5,10.2,53.1,4.8,48.1z"/>
	<path class="st0" d="M-151.1,79.8c2.9-1.7,4.7-0.1,6.7,1.8c3,2.8,6.6,5,10.8,5.7C-137.8,87.7-144.7,84.7-151.1,79.8z"/>
	<path class="st0" d="M-175.5,454.9c1.7,0.7,2.8,2,3.7,3.3c0.9,1.2-0.4,2.1-1.4,2.6c-1.5,0.7-2.9,0.5-3.3-1.5c0-0.2-0.2-0.4-0.4-0.6
		c-0.9-0.6-3.1-0.2-2.6-2C-179.1,455-176.6,456.4-175.5,454.9z"/>
	<path class="st0" d="M-128.1,88.8c6.7-0.1,13.2,1,19.6,3C-115.3,92.3-121.7,90.3-128.1,88.8z"/>
	<path class="st0" d="M33.4,474.3c8.1-2.8,15.2-6.4,21.9-12.1C51.7,468.1,38.8,475.3,33.4,474.3z"/>
	<path class="st0" d="M-60.9,41.4c-5.4-1.7-10.5-4-14.4-8.3C-70,34.9-65,37.2-60.9,41.4z"/>
	<path class="st0" d="M-99.6,18.1c4.5,2.2,9.1,4.2,14,5.1c-0.4,2.1-4.7-1.6-2.1,3.4c-4.5-2.9-8.4-5.3-12.3-7.8
		C-99.9,18.6-99.8,18.3-99.6,18.1z"/>
	<path class="st0" d="M-118.3,8.1c7.5,0.8,14.6,3,20.7,7.8C-104.3,12.7-111.3,10.3-118.3,8.1z"/>
	<path class="st0" d="M-66.4,42.1c5.9,2.5,11.6,5.8,18.2,6.1C-54.9,48.1-61.8,48.6-66.4,42.1z"/>
	<path class="st0" d="M89,536c1.4-0.1,2-0.2,2.4,0.4c0.1,0.2,0,0.8-0.2,0.9c-2.4,1-3.1,4.2-5.9,4.8c-0.6,0.1-1.2,0.8-1.8,0.1
		c-0.5-0.6-0.4-1.3,0-1.9C84.8,537.8,87.1,536.6,89,536z"/>
	<path class="st0" d="M-134.5,4.4c4.8-1.6,9.7-3.1,14.8-3.6c1.9-0.2,3.8-0.4,5.7,0.2c-5.6,0-10.5,3.3-16.2,3.5
		C-131.6,4.4-133,4.9-134.5,4.4C-134.5,4.3-134.5,4.4-134.5,4.4z"/>
	<path class="st0" d="M-54.4,101.5c6.5,0.6,13.2-0.7,19.6,1.1C-41.4,103.8-47.9,102.9-54.4,101.5z"/>
	<path class="st0" d="M-96,104.4c0.3,1.3,1.8,1.7,2.3,1.3c3.6-2.9,6.7,1.1,10.1,0.1c0,0.3,0,0.6-0.1,0.9c-2.4-0.3-4.7-0.6-7.3-0.9
		c0.3,1.6,2,0.9,2.3,1.9c0.1,0.5-0.3,0.5-0.6,0.5c-2.4,0-4.6-1-6.9-1.7C-98.2,105.8-95.9,105.1-96,104.4
		C-95.9,104.3-96,104.4-96,104.4z"/>
	<path class="st0" d="M-55.6,150.1c-5.2,0.7-10.1-0.2-14.6-3.4C-65.3,147.8-60.5,148.9-55.6,150.1z"/>
	<path class="st0" d="M-66.4,452.8c0,0.1,0,0.1,0,0.2c-1.4,0-2.9-0.3-4.3,0c-3.3,0.7-2.6-1.8-2.8-3.4c-0.1-0.7,1-1.5,1.3-1
		C-70.8,450.9-67.5,450.4-66.4,452.8z"/>
	<path class="st0" d="M88.6,187.4c0.4-0.1,0.7-0.3,1.1-0.4c0.8,1.4,0.9,3,1.1,4.6c0,0.6-0.2,1.4,0.1,1.6c3.3,2.2,0.3,4.7,0.3,7.1
		c-0.7-3.8-1-7.7-3.1-11.1C87.7,188.6,87.9,187.8,88.6,187.4z"/>
	<path class="st0" d="M-134.4,477c-0.2,0.3-0.5,0.6-0.7,0.9c-0.7,1.3-4.1,0.8-2.6,3.8c0.1,0.2-1.2,0.6-1.4,0.1
		c-0.4-0.9-2.3-0.9-1.5-2.5c1-2.1,3.9-1.8,4.9-4C-135.5,474.9-134.6,476.1-134.4,477z"/>
	<path class="st0" d="M87.1,183.7c-1.3-2.1-3.4-3.9-2.9-6.9c1.7,0.4,2,2,2.9,2.9c2.8-0.2,1.3,2.2,1.8,3.3
		C89.2,183.8,88.1,184.5,87.1,183.7z"/>
	<path class="st0" d="M-129.2,472.3c0.1,0,0.2,0,0.3,0c1.4-0.2,2.5,0.6,2.3,1.8c-0.1,1.2-1.7,0.9-2.7,1.2c-1.4,0.4-2.7-2-4.2-0.1
		c-0.3,0.3-0.6-0.5-0.7-0.9c-0.3-0.8,0.3-1.1,0.8-1.2C-132,472.7-130.6,472.6-129.2,472.3z"/>
	<path class="st0" d="M43.4,72.9c5-0.9,6.9,3.4,9.8,6C49.9,77,46.7,74.8,43.4,72.9z"/>
	<path class="st0" d="M-66.4,100.8c-4.6-0.6-9.4,0.3-13.9-1.7C-75.6,98.2-71.1,100.2-66.4,100.8z"/>
	<path class="st0" d="M-91,81.1c-4.2-0.6-8.3-1.5-11.9-3.9c-0.5-0.3-1.4-0.6-0.7-1.5c0.4-0.5,1.1-1,1.4-0.5
		C-99.4,79.2-94.5,78.7-91,81.1z"/>
	<path class="st0" d="M74.6,195.8c-0.8-3.5-3.9-6.1-4.5-10.5c2.2,1.9,2.6,4.2,3.9,5.9C74.9,192.3,78.1,193.8,74.6,195.8z"/>
	<path class="st0" d="M-40.4,28.5c3.9-0.9,6.3,0.7,8.6,3.2C-36,33.9-37.2,29.5-40.4,28.5z"/>
	<path class="st0" d="M-122.4-1.4c9-3.5,9-3.5,10.3-1.2C-115.3-2.2-118.5-1.9-122.4-1.4z"/>
	<path class="st0" d="M-167.6,462.1c0.3-0.5,0.5-1.2,1-1.5c0.7-0.4,1.4,0.3,1.7,0.8c0.8,1.1,1.2,2.3,3.1,2c0.8-0.1,1.6,1.2,1.2,2.1
		s-1.4,0.5-2-0.1c-1.1-1.3-3.6,0-4.2-2.2C-166.9,462.8-167.7,462.9-167.6,462.1z"/>
	<path class="st0" d="M-256.4,165c0.8,3.2-0.9,6.1-0.9,9.5c-2.5-2.4,1.3-4.8-0.4-6.4c-1.8-1.7-2.8-3.3-2.2-5.8
		c0.6,1.4,0.5,3.2,2.1,3.9C-257,166.6-257.6,164.9-256.4,165z"/>
	<path class="st0" d="M-59.9,84.5c4.7-0.8,9.5-0.6,14.2,0.4C-50.4,85.5-55.1,85.2-59.9,84.5z"/>
	<path class="st0" d="M-39.8,361c-6.1,3.1-6.1,3.1-9.4,2.3C-46.1,361.6-43.1,360.8-39.8,361z"/>
	<path class="st0" d="M-266,547c0.4,6.2,0.7,12,1,18C-266.2,563.6-266.6,554.9-266,547z"/>
	<path class="st0" d="M-13.9,145.8c-5,0.4-10,1.4-14.8-0.7C-23.7,145.3-18.8,145.6-13.9,145.8z"/>
	<path class="st0" d="M-118.4,484.2c0.3,1.1,0.4,2.5,2,1.8c1-0.5,1.7,0,2.5,0.1c1.1,0,2.7-0.8,2.9,0.6c0.3,1.8-1.9,1.1-2.9,1.5
		C-116.1,489.1-118.8,486.6-118.4,484.2z"/>
	<path class="st0" d="M-150.8,89.7c-3.8-2.7-7.6-5.3-11.4-8c0.2-0.3,0.4-0.6,0.6-0.8c3.8,2.6,7.6,5.3,11.5,7.9
		C-150.4,89.1-150.6,89.4-150.8,89.7z"/>
	<path class="st0" d="M-31.5,151.5c-4.9,1-9.6-0.1-14.3-0.7c0-0.3,0.1-0.6,0.1-0.9C-41,150.4-36.3,151-31.5,151.5z"/>
	<path class="st0" d="M62.5,318.1c-1.6-4.7-0.2-8.9-2.1-12.5c-0.1-0.2,0.1-0.7,0.3-0.8c0.6-0.4,1.1,0,1.3,0.5
		c0.8,1.5,0.4,3.1,0.4,4.7C62.5,312.4,62.5,314.7,62.5,318.1z"/>
	<path class="st0" d="M-56.7,10.8l0.2,0.1c-0.3-1.5-1.5-0.6-2.2-0.9c-1.6-0.7-3.6-1.1-4.6-3.2c2.7,0,4.7,1.7,7.1,2
		c0.7,0.1,1.1,0.4,1,1C-55.3,10.6-55.8,11.1-56.7,10.8z"/>
	<path class="st0" d="M-124.5,496.5c1.6,1.5,3,3.1,5.6,2.1c0.4-0.1,1.3,0.9,1.9,1.5c0.2,0.2-0.2,0.8-0.3,1.2
		c-0.6-0.3-1.2-0.5-1.8-0.8C-121.3,499.7-124.1,499.7-124.5,496.5z"/>
	<path class="st0" d="M135.3,468.1c1.4-1.5,2.7-3.9,3.9-0.1c0.3,0.9,2,0.3,2.6,1.4C139.1,471.4,137.5,468,135.3,468.1z"/>
	<path class="st0" d="M53.5,99c-1.2-1.4-4.9-1.1-2.9-4.7c0.5-1-1.5-1.5-1.8-2.6C51.3,92.3,52.2,93.5,53.5,99z"/>
	<path class="st0" d="M-55.2,144.3c-3.7,0.3-7.2,0-11.4-2.2C-61.9,141.9-58.6,143.7-55.2,144.3z"/>
	<path class="st0" d="M-268.6,564.8c0,6.6,0,13.2,0,19.7c-0.1,0-0.2,0-0.4,0c0-6.5,0-13.1,0-19.6
		C-268.9,564.9-268.8,564.9-268.6,564.8z"/>
	<path class="st0" d="M-242.3,114.1L-242.3,114.1c-1.4,1.7-2.4,3.7-4.2,5.1l0.1-0.1c-0.6,0-1.5,0.4-1.9,0.1
		c-0.5-0.4,0.1-1.1,0.6-1.2c2-0.6,2.2-2.8,3.1-4.2C-243.2,111.8-242.9,113.2-242.3,114.1z"/>
	<path class="st0" d="M65.7,123.1c0.5,0,4.4,4.1,4.4,4.6c0,0.1-0.1,0.2-0.1,0.3c-0.2,0.4-0.6,0.7-1.1,0.4c-1.9-0.8-3.2-2.2-3.8-4.2
		c-0.1-0.4-0.3-0.9,0.3-1.1C65.4,123,65.5,123.1,65.7,123.1z"/>
	<path class="st0" d="M-79.3,21.2c-3.3-0.8-6.4-1.9-8.9-4C-85.6,19.1-81.2,16.8-79.3,21.2z"/>
	<path class="st0" d="M-127,490C-127,490-127,490.1-127,490c0.2-1.4-0.9-2.9-0.2-4.5c1.3,0.9,2.6,1.8,3.8,2.7
		c0.6,0.5,1.5,0.7,1.6,1.8C-123.6,490.2-125.3,488.4-127,490z"/>
	<path class="st0" d="M32.2,94.1c3-0.3,4.6,1.6,6.6,2.9C36.3,97,33.5,98,32.2,94.1z"/>
	<path class="st0" d="M53.4,329.6c0,0.1-0.1,0.2-0.1,0.3c-0.1,0.6-0.3,1.2-1,1.1c-0.8-0.1-0.8-0.8-0.5-1.3c1.2-2.3,0.7-5.1,2.2-7.3
		C53.3,324.7,55,327.2,53.4,329.6z"/>
	<path class="st0" d="M-14.2,26c-2.1,0.5-2.1,0.5-6.9-1.9c3.3-1.3,4.8-0.8,6.9,2V26L-14.2,26z"/>
	<path class="st0" d="M-129.2,497.5c-4,1.1-3.1-3.4-5.6-4.1C-131.5,492.9-131.3,496.3-129.2,497.5z"/>
	<path class="st0" d="M-14.3,26.1c3.5,0.6,6.6,2,9.4,4.2C-8.7,30.2-11.5,28.1-14.3,26.1l0.1-0.1L-14.3,26.1z"/>
	<path class="st0" d="M-66.1,108.2c-4.3,0.5-8.5,0.3-12.5-1.3C-74.5,107.3-70.3,107.7-66.1,108.2z"/>
	<path class="st0" d="M-75,450.6c-2.1-1.7-1.7-2.9-0.7-4.3c1-1.5,2.3-0.9,3.6-0.9c0.4,0,0.8,0.4,0.7,1c-0.2,0.5-0.6,0.5-1.1,0.5
		C-74.7,446.9-76.1,447.5-75,450.6z"/>
	<path class="st0" d="M-84.1,121.7c3,0.5,6.1,0.9,8.7,2.9C-78.8,125.1-81.2,122.6-84.1,121.7z"/>
	<path class="st0" d="M-70.8,326.9c0.8-0.4,1.6-0.8,2.4-1.1c1.1-0.4,1.6,0.1,1,1.1c-0.9,1.7-2.7,2.1-4.7,2.1
		C-72.2,327.9-71.4,327.4-70.8,326.9z"/>
	<path class="st0" d="M-21.4,37.9c-3.8,0.3-6.1-3.1-9.5-3.7C-27.2,34-24.6,36.7-21.4,37.9z"/>
	<path class="st0" d="M-70.3,31.2c3.5-0.2,5.3,1.5,8.2,2.6C-65.8,35-67.5,32.9-70.3,31.2z"/>
	<path class="st0" d="M-79.9,24.1c2.6,0.9,5.3,1.2,7.5,3C-74.4,24.8-78.9,29.4-79.9,24.1z"/>
	<path class="st0" d="M61.6,123.6c-1.1-1.6-1.7-2.6-2.4-3.6c-0.4-0.6-0.7-1.2,0-1.8c0.4-0.3,0.8-1,1.4-0.6c0.5,0.4,1.1,1,1.1,1.5
		C61.9,120.3,61.7,121.5,61.6,123.6z"/>
	<path class="st0" d="M-156.5,474.1c-0.1-1.3-0.1-2.5-0.2-3.8c1.5,0.8,3,0.4,4.6,0c-0.8,2.2-2.3,3.4-4.5,3.7L-156.5,474.1z"/>
	<path class="st0" d="M-32.7,310.6c0.4,2.3-1.2,3-2.7,3.7c-0.6,0.3-1.2-0.3-1.1-0.9C-36.1,311.4-34.5,310.9-32.7,310.6z"/>
	<path class="st0" d="M-14.2,26C-14.2,26-14.3,26.1-14.2,26c1.1,1.4,1.3,3.4,3.4,4.5c-2.9,0.2-4.4-1.6-6.7-2.9
		C-15.8,27.5-14.5,27.5-14.2,26L-14.2,26z"/>
	<path class="st0" d="M64.6,110.1c-1.5-0.3-3.5,1.1-4.1-1.4c-0.4-1.8,1.1-0.9,1.7-1.2C65.3,106.2,63.6,109.4,64.6,110.1z"/>
	<path class="st0" d="M-90.5,87.1c-1.3,0.2-2.4,0.3-3.4,0.7c-0.6,0.2-1.1,1.1-1.6,0.2s0.1-1.7,0.9-1.8
		C-93.3,86.1-91.5,84.4-90.5,87.1z"/>
	<path class="st0" d="M43.6,68.6c-1.3-1-2.5-1.7-3.6-2.6c-0.5-0.4-0.8-1.2-0.3-1.8c0.6-0.7,1.3-0.1,1.7,0.3
		C42.5,65.5,43.7,66.6,43.6,68.6z"/>
	<path class="st0" d="M-249.8,151.3c0.1,2.5-1.2,4.5-3.4,6.8C-252.7,155.1-253.1,152.4-249.8,151.3
		C-249.7,151.4-249.8,151.3-249.8,151.3z"/>
	<path class="st0" d="M32.3,474.4c-2.9-0.6-5.9-0.2-8.8-0.5C26.5,473.9,29.4,472.9,32.3,474.4z"/>
	<path class="st0" d="M-205.8,60.9c0.1,0,0.2,0,0.3,0c-1.2-2.2-0.9-4.3,0.7-6.3C-205.3,56.7-203.6,59.1-205.8,60.9z"/>
	<path class="st0" d="M-115.3,478.3c-2.3,1.2-3.2-0.5-4-1.8c-0.2-0.3,0.8-1.3,1.7-1.1c0.3,0.1,1.6-0.5,0.8,0.6
		C-118.5,478.1-115.4,477.3-115.3,478.3z"/>
	<path class="st0" d="M66.2,129.8c-2.4,0.3-2.3,3-4.1,4.2c-0.4-2.2,0.3-3.7,1.8-4.9c1.5-1.3,1.9-0.5,2.2,0.8
		C66.2,129.9,66.2,129.8,66.2,129.8z"/>
	<path class="st0" d="M26.4,144c3.2-0.6,6.5-1.3,9.7-1.9C33.1,143.7,29.8,144.3,26.4,144z"/>
	<path class="st0" d="M-126.3,498.7c0.2,1.4,4.1,0.9,2,3.7c-0.2,0.3,0.5,0.9-0.3,0.9c-0.3,0-1-0.6-1-0.8
		C-125.1,501.1-126.9,500.3-126.3,498.7z"/>
	<path class="st0" d="M-82.7,50.4c2.3-1.4,4.4-1.1,6.6,0C-78.4,50.4-80.6,50.4-82.7,50.4z"/>
	<path class="st0" d="M56,461.3c1.7-3.1,1.1-6.4,1.4-9.6C57.8,455.1,59.2,458.5,56,461.3z"/>
	<path class="st0" d="M57.6,193.7c-1-1.5-1.2-2.9-1.2-4.2c0-0.4,1-0.4,1.4,0C59.1,190.8,58.7,192.1,57.6,193.7z"/>
	<path class="st0" d="M-24.8,26.4c-2.5,0.1-4.6-0.6-6.3-3.3C-28.3,23.7-26.7,25.3-24.8,26.4C-24.9,26.5-24.8,26.4-24.8,26.4z"/>
	<path class="st0" d="M-113,508.3c0.7-1.4,3.7-1.3,1.8-3.7c0-0.1,0.4-0.8,0.8-0.8c0.4-0.1,1,0,1.3,0.2c0.2,0.2,0.3,0.9,0.1,1.2
		C-110,506.6-110.8,508.1-113,508.3z"/>
	<path class="st0" d="M51.3,136.1c-0.5,4.1-2.7,2.7-4.8,2.8C47.8,137.1,49.6,137.4,51.3,136.1z"/>
	<path class="st0" d="M-90,84.2c3-2.1,5.6-0.4,8.3,0.6C-84.5,84.7-87.2,83.8-90,84.2L-90,84.2z"/>
	<path class="st0" d="M-242.7,93.4c-0.4,0.1-0.8,0.3-1.2,0.4c0-0.1-0.1-0.2-0.1-0.3C-243.6,93.1-243.2,93.4-242.7,93.4L-242.7,93.4z
		"/>
	<path class="st0" d="M-242.8,93.5c0-0.1,0-0.1,0-0.2C-242.8,93.3-242.8,93.3-242.8,93.5C-242.7,93.4-242.8,93.5-242.8,93.5z"/>
	<path class="st0" d="M-28.6,29.2l-0.1-0.2C-28.7,29-28.6,29.2-28.6,29.2z"/>
	<path class="st0" d="M33.2,524.3c1.5,0.2,2.9,0.5,4.4,0.7c0.3,1.6-2.2,1.2-2,3.1c0.1,1.3-0.7-1.1-1.6-0.2c-0.5,0.5-1.3-0.1-0.6-0.6
		c1.9-1.4-0.8-1.8-0.5-2.8C33.1,524.3,33.1,524.3,33.2,524.3z"/>
	<path class="st0" d="M-43.8,237.6c-0.6,0.5-1.4,1.2-1.9,0.1c-0.4-0.9-0.4-2.2,0.5-2.8c5-3.2,7.6-9,12.9-11.6
		c5.5-2.8,11.1-5,17.8-4.3c3.6,0.4,7.3,1.1,11.1,1.1c1.6,0,3.3,1.7,4.7,2.8c1.2,0.9,2.4,1,3.6,1.5c-1.8,2.2-3.6,2.6-5.8,0.9
		c-1.3-1-2.7-1.6-4.3-2c-5.4-1.6-5.4-1.6-5.7,3.6c-0.2,3-1,4.6-3.3,6.3c-0.5-1.3,0.4-2.1,0.7-3.1c0.2-1,0.6-2.3-0.4-2.7
		c-0.8-0.2-2.3-0.5-3,0.7c-0.8,1.3-1.9,2.2-3.4,2.8c-1.2,0.5-2.3,0.5-2.9-0.7c-0.8-1.6-2-2.1-3.6-1.6c-1.2,0.4-1.6,1.4-1.3,2.4
		c0.4,1.5,0.8,3.1,3,3c0.4,0,0.7,0.4,1.2,0.7c-3.3,1.3-5.9-0.9-6.6-5.1c-0.2-1.3,0.8-3.3-0.6-3.7c-1.7-0.6-3,1.1-4.3,2.2
		c-2.3,2.1-3.3,5.4-6.3,6.9C-42.5,235.9-43.8,236.3-43.8,237.6z"/>
	<path class="st0" d="M-43.8,237.6c0-1.3,1.3-1.7,1.8-2.6c2.1-0.6,4.2-0.2,6.4,0.3c-3.2-0.5-4.5,2.7-7.1,3.2
		C-43.7,238.7-44.4,239-43.8,237.6z"/>
	<path class="st0" d="M5.5,232.7c-0.3,0.9-0.7,2.1-1.6,1.9c-1.6-0.5-3-1.7-3.5-3.2c-0.3-0.9,2.2-0.5,2.5-1.9
		C4.3,230.2,5.2,231.3,5.5,232.7z"/>
	<path class="st0" d="M-154.2,266.6c0.1-0.2,0.1-0.3,0.2-0.4c0.6-1.4-0.9-3.8,1.1-4.2c1.9-0.4,2.2,2.1,3.1,3.4
		c0.8,1.1,1.9,1.9,2.8,2.9c0.5,0.5,0.5,1,0.1,1.5c-0.8,0.9-0.8-0.3-1.1-0.5l-5.2-0.8C-154.5,268.3-154.3,267.4-154.2,266.6z"/>
</g>
</svg>
