<?xml version="1.0" encoding="utf-8"?>
<!-- Generator: Adobe Illustrator 20.0.0, SVG Export Plug-In . SVG Version: 6.00 Build 0)  -->
<svg version="1.1" id="Слой_1" xmlns="http://www.w3.org/2000/svg" xmlns:xlink="http://www.w3.org/1999/xlink" x="0px" y="0px"
	 viewBox="0 0 748.5 729.8" style="enable-background:new 0 0 748.5 729.8;" xml:space="preserve">
<g>
	<path d="M619.8,654.3c-8.8-11.8-19.5-22.4-30.4-32.3c-10.9-9.8-21.8-19-34.1-27.1c-4-2.7-8.5-5.7-12.3-9.2c-1.2-0.9-2.2-2-3-3.1
		c-1.1-1.3-2.1-2.6-3-4.1c-0.4-0.4-0.8-0.8-1.3-1.2c-19.3-14-33.9-32.2-47.2-51.7c-4-5.9-7.1-12.9-12.5-17.2
		c-4.9-3.9-7.6-7.6-8-13.6c-0.1-1.8-0.9-3.6-1.1-5.4c-0.6-4.5-2.4-7.9-8.1-8.7c1.9-7.8,3.7-15.1,5.4-22.5c1.9-8.1,3.6-16.3,5.4-24.4
		c-4.8,2.1-4.8-1.9-5.4-4.7c-0.5-2.5-0.6-5.1-0.9-7.7c-0.5,0.1-1.1,0.2-1.6,0.3c-0.2,5.4-1.6,10.8,3.5,15.3c1,0.9,1.4,3.9,0.7,5.1
		c-1.4,2.3-3.7,4-6.5,6.8c-1-4.4-1.9-8.4-2.8-12.5c-0.7,0.2-1.4,0.4-2.1,0.6c1.7,7.4,3.3,14.8,5.1,23c-2.1-2-3.7-3.5-6.3-6
		c1,4.7,1.8,8.3,2.6,11.8c-0.5,0.3-1,0.5-1.5,0.8c-3.6-2.9-7.1-5.7-11-8.9c-0.6,1.4-1.1,2.6-1.3,3c2.7,2.4,5.9,4,6.6,6.4
		c0.7,2.3-1.1,5.4-1.8,8.4c-0.2-1.2-0.4-2.2-0.9-4.4c-1.6,2.6-2.7,4.4-3.8,6.1c-3.4-2.1-7.1,1.5-10.7-0.3c-0.3-0.2-5,1.1-3.1,5.1
		c3.2,6.6-1.2,12.1-3.3,17.9c1.2,4.7,2.4,9.3,3.8,15c-2.4-1.1-3.3-1.4-4-1.8c-0.6-0.4-1.2-0.9-1.7-1.3c3.7-2.9,1.2-6.7,1.3-10.1
		c0-0.6,0.4-1.2,0.6-1.8c0.7-5.4,1.3-10.8,2-16.2c-0.4-0.1-0.9-0.3-1.3-0.4c-1.3,3.5-2.6,7.1-3.9,10.7c-1.2-3.1-2.5-6.3-3.7-9.5
		l-2,0.5c0.4,3.7,0.8,7.5,1.3,11.2c-0.8,0.1-1.5,0.2-2.3,0.3c-0.8-3.9-1.5-7.8-2.4-12.2c-2.5,1.7-7.1,0.8-6.1,6.3
		c1.6-1,2.8-1.8,4.2-2.7c2.4,5.6,1.4,10.2-1.1,14.9c-0.9,1.6-0.7,4-0.5,6c0.2,1.9,1.2,3.6,1.9,5.4c-0.8,0.3-1.6,0.6-2.4,0.9
		c-1.3-3.6-4.1-7.5-3.6-10.8c0.8-4.7,1.1-7.6-3.1-10.3c0.2,2.4,0.4,4.6,0.7,7.7c-1.6-1.8-2.3-2.7-3.1-3.6c-0.7,1.6-0.3,2.7,0,3.8
		c1,3.8,2,7.6,3,11.4c0.3,1.3,0.4,3.2,1.3,3.7c5,2.7,1.7,6.2,1.6,8.7c-1.8-4.1-3.7-8.7-5.6-13.1c-5.5,5.7,1.1,9.5,1.2,14.4
		c-1.3-1.6-2.5-3.2-3.8-4.8c-1.2,1-2,1.8-3,2.6c-1-2.8-1.8-5-2.9-7.9c1.8,1.1,2.9,1.8,4.3,2.7c-2.3-12.4,0.4-11.2-7.2-17.8
		c-2.5,1.7-4.8,3.4-6.9,4.8v7.8l-0.1-0.2c0.9,2,1.9,3.9,2.8,5.9c3.3,2.2,6.6,4.5,10.1,6.9c-3.9,4.5-5.8,8.4-4.4,12.9
		c0.5,0.2,1,0.3,1.5,0.5c1.9-4.2,3.9-8.5,6-13.2c0.4,1.7,1.1,3.2,1.1,4.6c-0.3,6.1-0.8,12.1-1.3,18.1c-0.3,3.8-0.9,7.6-1.5,11.4
		c-0.2,1.1-1.1,2.1-1.6,3.2c-0.2-0.1-0.5-0.3-0.7-0.5c0.7-8.4,1.3-16.9,2-25.3c-0.6-0.1-1.2-0.2-1.8-0.3c-0.6,1.3-1,2.8-1.9,3.7
		c-0.9,1-2.4,1.6-3.7,2.4c-0.2-1.4-0.6-2.7-0.5-4.1c0.2-2.2,0.8-4.4,1.2-6.6c-0.6-0.1-1.1-0.2-1.7-0.4c-0.7,2.2-1.4,4.4-2.2,6.9
		c-0.6-0.3-1.2-0.8-1.7-0.7c-0.8,0.2-1.4,0.7-3.4,1.8c1.1-1.7,1.7-2.2,1.7-2.7c0.1-1.9,0-3.9,0-5.8H380c-0.2,0.8-0.4,1.5-0.7,2.5
		c-0.4-0.8-0.5-1.7-1-2.1c-1-0.8-2.2-1.2-3.3-1.8c-0.2,1.2-0.8,2.6-0.4,3.6c1.2,2.5,2.3,6.1,4.4,7c8.3,3.5,5.4,11,6.4,16.8
		c0.7,3.8-1,8.1-1.9,12.2c-0.2,0.8-1.1,1.4-2.5,3.1c1-7.6,1.7-13.9,2.5-20.1c-0.7-0.1-1.4-0.3-2.1-0.4c-0.7,7.3-1.4,14.6-2.1,21.8
		c-0.5-0.1-1-0.2-1.4-0.2c0-3.8,0.2-7.6,0-11.4c-0.2-3.4,0.4-7.6-1.4-9.8c-2.7-3.3-3.8-5.7-2.3-9.8c0.8-2.1,0.1-4.7,0.1-7.4
		c-5.1,4.9-5.3,10-3.1,15.8c1.3,3.5,0.2,7.8,0.2,11.8c-0.4,0-0.8,0-1.2-0.1l-3.4-24.7c-0.5-0.3-1-0.6-1.6-1
		c-0.7,2.8-1.3,5.6-1.9,8.2c-0.8-0.7-1.5-1.4-3.3-2.9c0.7,3.7,1.1,6,1.7,9c-3.1-3.5-5.7-6.7-9.9-2c-0.4-4.6-0.8-8.5-1.2-12.5
		c-0.5,0-1,0.1-1.6,0.1c-1,6.2,2.1,12.7-0.8,18.9c-1-1.6-1.9-3.4-1.6-5c1.1-5.5-0.7-8.7-6.5-8.9c-0.5,1.2-1,2.4-1.7,3.8
		c-3.7-6.4-3.2-7.7,4.5-9c-2.1-2-3.8-3.6-5.7-5.4c-0.9,2.1-1.5,3.5-2.4,5.5c-1.1-3.2-2-5.8-2.8-8.3c-0.4,0.1-0.8,0.3-1.2,0.4
		c1.3,6,2.5,12,3.9,17.9c0.2,0.8,1.7,1.2,2.4,1.9c0.6,0.7,1.2,1.4,1.7,2.2c-4.2,3.4-0.7,5.7,1.3,8.1c-1.4,1.8-2.8,3.5-4.3,5.3
		c-0.2-2.7-0.3-5.6-0.6-9.1c-1.2,0.8-1.9,1-2,1.3c-0.4,4.1-1,8.1-1.1,12.2c-0.1,3.4,1.1,6.9,0.6,10.1c-1,6.7-2.6,13.2-4.1,19.8
		c-0.2,0.9-0.8,1.7-1.2,2.5l-0.9-0.3c0.7-7.5,1.5-15.1,2.2-22.6c-0.1,0-0.4,0-0.5-0.1c0-3,0.6-5.6-0.1-7.8
		c-1.9-5.4-0.3-10.5,0.3-15.7c0.3-2.8,1.5-5.6,2.1-8c-2.5-0.7-3.8-1-5.3-1.4c-0.7,2.7,6,6.7-1.4,8.5c-0.6-6.7-1.1-13.4-1.7-20.1
		c-1.8,9.1-0.2,18.3-2.6,27.9c-1.8-1.9-2.8-3-4.7-5.1c0.3,2.9,0.4,4.5,0.5,4.9c-2.5,2-4.2,3.4-6.2,4.9c-3-3-3.5-0.4-4.3,2.7h5.2
		c-2.3,2.2-3.7,3.5-5.1,4.9c-0.5-0.2-0.9-0.4-1.4-0.6c0.2-3.2,0.3-6.3,0.5-11c-2.2,3.2-3.7,5.4-5.1,7.5c-0.2-0.2-0.4-0.3-0.5-0.5
		c0.5-2.6,1-5.1,1.4-7.7c-0.4-0.1-0.7-0.2-1.1-0.2c-2.7,5-5.4,10.1-8.1,15.1c-0.2-0.1-0.5-0.2-0.7-0.3c0.2-0.9,0.3-1.9,0.5-3.1
		c-1.4,0.5-2.3,0.8-4,1.4c1-2.4,1.7-4.2,2.4-6c-0.5-0.3-1-0.5-1.5-0.8c-3.8,4.8-7.6,9.6-11.4,14.3l-1.4-1.1
		c3.2-4.8,6.3-9.5,9.5-14.3c-6.2,2.9-10.4,8.8-18.5,10.4c1-3.2,1.7-5.2,2.3-7.2c0.3,0.1,0.7,0.1,1,0.2v4c0.6,0.1,1.2,0.2,1.9,0.3
		c0.8-3.6,1.7-7.1,2.3-9.8c-2.3-1.4-3.6-3-4.7-2.9c-1.8,0.3-3.4,1.7-5.1,2.7c-0.7-0.8-1.7-2-2.8-2.9c-0.6-0.5-1.5-0.6-2.2-0.9
		c-0.2,0.8-0.8,1.8-0.5,2.2c2.3,3.8,0,6.4-2.4,9.2V566c-4.7,2.2-0.6,9.9-7.3,10.3c0.1-0.7,0.2-1.4,0.4-2.4c-2.7,0.9-5.1,1.8-7.5,2.6
		c-0.4,0.6-0.7,1.1-1.4,2.2c2-0.2,3.3-0.4,4.5-0.6c-1.9,4.9-5.3,2-7,0.9c-3.3-2-2.2-5.7,2-10.8c-4.1,1.2-8.1,2.3-12.2,3.5
		c-0.1-0.4-0.2-0.7-0.3-1.1c1.3-0.8,2.6-1.5,3.9-2.3c-0.1-0.4-0.2-0.7-0.3-1.1c-3.3,0.6-6.6,1.3-10.8,2.1c4.4-5.2-2.5-3.7-2.3-7.1
		c1.8,0,3.6-0.2,5.5,0.1c1.5,0.2,2.9,0.8,4.3,1.2c0.8-1.1,1.6-2.2,2.4-3.2c2.6-5.2-3.9-3-4.2-5.9c-4.3,5.9-8.7,0.3-13.9,1.6
		c1.8-1.5,2.5-2.1,3.9-3.3c-3.6-0.6-6.3-1-10.5-1.6c4.5,6.3,7.9,11.3,11.4,16.2c1.4,1.9,2.9,3.7,4.3,5.6c1.2,1.7,2.5,3.4,3.2,5.3
		c0.6,1.6,0.4,3.4,0.6,5.2c0.4,0,0.7,0,1.1-0.1v-9.7h1.2c0.4,3.1,0.8,6.2,1.2,9.3h0.6v-6c0.6-0.1,1.3-0.1,1.9-0.2
		c0.3,3.8,0.6,7.7,0.9,11.5h0.6c0.1-2.6,0.2-5.2,0.4-8.2c5.7,3.5,0.9,9.6,4.8,13.7v-11.2c0.7,0,1.4,0,2-0.1
		c0.3,4.5,0.6,9.1,0.9,14.1c2.3-4.3-1.2-9.6,2.3-12.9c0.6,0.1,1.1,0.2,1.7,0.4v16.4h1.2v-15.5c4.8,4.5,1.3,10.3,3.8,16.5v-14.8
		c0.7-0.2,1.3-0.3,2-0.5c0.8,2.1,2,4.1,2.2,6.2c0.3,4.8,0.1,9.7,0.1,14.6h0.3c0.5-6.4,0.9-12.7,1.4-19.2c3.1,0.4,5.5,0.7,8.3,1.1
		c-0.4,8.6-0.8,17.4-1.2,26.2c1.5-7.6,2.1-15.4,2.8-23.1c0.1-1.4,1.1-2.7,1.6-4c0.5,0.2,1,0.3,1.5,0.5c-0.3,7.6-0.7,15.1-1,22.7h0.6
		c0.7-7.3,1.4-14.6,2.1-21.9c0.5,0,0.9-0.1,1.4-0.1c0.6,1.2,1.1,2.5,1.1,2.5c1.9-1,3.8-2,6.2-3.2c-0.5,8.9-1,16.9-1.4,24.8
		c0.4,0,0.8,0,1.2,0.1c0.4-6.9,0.8-13.9,1.2-20.9c3.4-1,6.9-3.8,10,0.7c-0.7,5.7-1.5,11.6-2.2,17.5c0.3,0.1,0.6,0.1,1,0.2
		c1-6.1,2.1-12.3,3.1-18.4c0.6,0,1.1,0.1,1.7,0.1v22.8h0.7c0.6-9.1,1.2-18.2,1.8-27.4c0.6,0,1.2,0.1,1.8,0.1v29
		c1.3-7.7,1.8-15.4,2.8-23.1c0.2-1.3,2.2-2.3,3.3-3.4c1.4,4.5,2.7,0.4,4-0.1c1.5-0.6,3.1-1.2,5.6-2.2c-2.2,9.5-0.4,18.6-4.1,26.5
		l-2-0.3c0.9-7.6,1.9-15.3,2.8-22.9c-0.4-0.1-0.7-0.1-1.1-0.2c-1.3,8.5-2.6,17-3.8,25.4c-0.6-0.1-1.2-0.2-1.8-0.3V596
		c-0.9,5.3-1.9,10.6-1.5,15.9c0.5,5.5-2.6,7.7-6.6,9.6c-18.2,8.2-34.6,19.1-49.3,32.5c-3.9,3.5-7.4,3.1-11.8,2.7
		c-4.7-0.5-7.4-2-9.1-7.1c-3.9-11.6-10.1-22.5-13.3-34.3c-4.7-17.6-7.8-35.6-11.2-53.6c-2.2-11.3-3.9-22.8-5.9-34.7h9.6
		c0-0.3,0.1-0.6,0.1-1c-0.9-0.6-1.7-1.2-2.9-2c2.1-0.9,3.9-1.7,5.6-2.4c-0.1-0.3-0.2-0.6-0.2-0.9c-4.7,0.6-9.3,1.2-14.8,2
		c3.2,22.7,6.3,45.1,9.5,67.5c3.3,22.9,12,43.9,21.5,64.1c-9,3.3-17.8,6.6-25.5,9.4c-1.2-1.3-1.9-2.6-2.9-3.1
		c-8.8-3.9-17.6-7.7-26.5-11.5c8.1-12.3,28.3-89.8,25.7-100.2c-0.9,2.6-1.6,4.3-2,6.2c-1.8,7.4-3.1,15-5.2,22.3
		c-3.2,11.3-4.2,23.9-15.7,31.1c-2.2,1.4-4.1,3.4-6.4,4.7c-8.3,4.9-16.8,9.4-25,14.4c-4.3,2.6-8.2,3.9-12.9,1
		c-2.2-1.4-5-1.8-7.6-2.3c-4.6-0.9-6,0.6-5.7,5.4c0.3,5.1,0.4,10.3,0.6,15.4c0,0.3-0.4,0.7-0.8,1.3c-0.4-1.5-0.7-2.7-1.3-4.9
		c-4.1,2.1-8.1,4.1-12.1,6.1c0.4,0.7,0.7,1.5,1,2.2c6.6-1,13.2,2.4,15.9,10.4c2.1,6.2,1.2,12.2-1.8,17.2c3.1,1.3,4.7,4,4.8,6.9
		c1.1,0.5,2.3,1,3.5,1.4c0.3,0,0.5,0.1,0.8,0.2c4.2,1.1,7.2,4.8,10.9,6.9c2.4,1.4,3.8,3.9,4,6.5c2,0.9,4,1.8,6,2.7
		c1.1,0.5,2.1,1,2.9,1.7c3.2,0.7,6.3,1.5,9.4,2.7c5.8,0,11.7,0.6,17.5,1.3c4.1,0.5,6.9,2.7,7.8,6.1c0.5,0.2,0.9,0.5,1.4,0.7
		c8.9-1,17.9-1.6,26.8-1.2c6,0.3,11.9,1,17.5,3.4c2.2,1,4.3,2.1,6.3,3.3c1.7-0.4,3.5-0.7,5.2-1.1c1.9-0.4,3.5-2.3,4.9-3.2
		c1.1,7.2,9.1,7.6,14.7,10.9c0.5,0.3,1,0.5,1.5,0.7c8-0.1,16.2-1.3,23.6-1.6c10.4-0.4,20.9,1.4,31.4,1.9h9.9c1.3-1,3-1.7,5-1.8
		c0.2,0,0.4,0,0.6,0c-2.3-21.3-2-42.9-9.5-63.5c-2-5.4-2.4-11.4-4.2-16.9c-2.7-8-5-9-13.1-6.6c-2.2,0.7-4.3,1.7-6.9,2.7
		c-0.5-0.9-1-1.8-1.6-2.7c-2.2-3.1-4.5-4.3-8.4-2.2c-12.3,6.6-24.8,12.7-37.2,19c-1.6,0.8-3.2,1.4-5,1.8
		c13.5-12.6,28.3-23.2,44.6-31.9s32.5-17.4,48.8-26.1c10.8-5.7,22-11,32.6-17c16.2-9.3,31.3-20.2,43.8-34.2
		c9.4-10.5,19.1-20.9,27.2-32.4c5.8-8.2,9.2-18.2,13.7-27.3c1-2,2.1-4,3.2-6.2c3.3-0.1,4.6,1.6,5.2,4.7c1.7,8.9,4.2,17.8,5.3,26.8
		c0.4,3.4-1.3,7.5-3.1,10.7c-6.8,11.8-13.9,23.3-21.2,34.5c-17.7,27.3-35.9,54.4-53.4,81.8c-11.3,17.8-22,36-32.7,54.2
		c-5.8,9.9-11,20.2-16.5,30.2c16.8-0.7,33.6-0.8,50.4-0.2c0.8-0.8,1.9-1.4,3.2-1.8c18.6-5.8,37.4-1.7,56.2-0.5
		c1-1.1,2.2-2.1,3.8-2.5c8-2.3,16.2-2.8,24.4-3.1c3.8-0.5,7.6-1.1,11.3-1.4c-2.2-4.9,1.3-11.9,7.5-11.9c4.8,0,9.7,0,14.5-0.2
		c0.8-2.2,2.5-3.9,5.3-4.5c5.6-1.1,11.5-0.9,17.2-1.3c0.6-1.1,1.6-2.1,2.8-2.9c4.9-3.2,9.8-6.4,14.8-9.4
		c10.1-6.1,20.9-12.5,32.1-16.8c0-4.3,3.4-8.9,8.2-8.9c10.9,0.1,21.7,1.2,32.5,2.5C624.5,660.9,622.3,657.6,619.8,654.3z
		 M391.3,511.1c-0.8,2.8-1.2,5.8-2,9.8c-1.9-2.9-3.6-5.6-5.6-8.6c2-0.5,3.2-0.7,4.8-1.1c-0.6-1.8-1.1-3.2-1.6-4.7
		C390.3,506.1,392.1,508.2,391.3,511.1z M297.1,583.1h-5.8c-0.6-0.6-1.1-1.2-1.7-1.7c2.5-1.5,5-3,8.5-5.1
		C297.8,579,297.5,581,297.1,583.1z M304.2,586.5c0.2-1.9,0.3-3.6,0.5-5.5c0.9,0.5,2,1.4,2.4,1.2c3.6-2.4,8.2-3.4,9.9-8.2
		c1.8-5.1,4.3-10,6.4-14.9c3.9,3.1,3.5,6.3-0.7,9c-1.8,1.1-2.9,3.9-3.6,6.2C317.5,579.9,310.3,586,304.2,586.5z M314.6,611.9
		c-1-0.2-2.1-0.4-3.1-0.6c2.1-7.5-0.5-15.9,4.8-22.7C316.4,596.6,315.9,604.3,314.6,611.9z M318.2,609.4c-0.5-0.1-1-0.3-1.4-0.4
		c0.8-7,1.5-14,2.3-21.3c2.8,1.6,2.8,1.6,1.1,17.9C319.5,606.9,318.9,608.2,318.2,609.4z M320.3,605.4c0,0.1-0.1,0.1-0.1,0.2
		c1-4.4,2-8.8,3-13.2c0.4-1.9,0.7-3.9,1.1-5.9c0.8,0.1,1.5,0.2,2.3,0.3c-0.7,5.9-1.2,12-2.1,18C324.4,605.2,321.8,605.2,320.3,605.4
		z M339.4,553.8c1.2-1.5,0-5.4,3.9-3.9c0.2,3.3,0.5,6.5,0.7,9.7h-1C341.8,557.7,340.6,555.7,339.4,553.8z M334.2,599.6
		c-0.2-5.9-1.9-12.1,2-17.5C336.8,588.1,337.9,594.1,334.2,599.6z M340.1,597.3c-0.6,0-1.3-0.1-1.9-0.1c0-3.5,0.2-7-0.1-10.5
		c-0.1-1.6-1.2-3.1-1.8-4.7c0.9-1.9,1.8-3.8,3.1-6.6c-2.3,0.6-3.3,0.9-4.3,1.1c5.3-1.4,3.8-5.7,4.2-9.1c0.2-2.1,0.5-4.2,0.8-6.3
		c0.9,3.7,1.8,7.4,2.8,11.7c1.3-2,2.1-3.3,3-4.6c0.5,0.2,0.9,0.5,1.4,0.7c-0.9,1.8-1.5,3.9-2.8,5.4c-2.6,3.2-5.9,5.5-3.8,11
		C342,588.8,340.4,593.3,340.1,597.3z M341.5,595.2c0.7-5.4,1.4-10.9,2.2-16.3c0.8,0.1,1.5,0.2,2.3,0.3l-2.4,16.2
		C342.8,595.3,342.1,595.3,341.5,595.2z M347.4,593.9c-0.7-0.1-1.4-0.3-2.1-0.5c1.2-4.7,2.4-9.5,3.6-14.2c0.3,0.1,0.6,0.1,0.9,0.2
		C349,584.2,348.2,589,347.4,593.9z M360.1,564.2c1.6-3.1,3.7-6,5.9-9.6c0.9,4.2,0.8,7.6-2.4,10.6c-2.7,2.6-5.1,5.4-7.6,8.1
		C357.3,570.3,358.5,567.2,360.1,564.2z M358.7,553.4c-0.4,3.1-0.8,5.8-1.2,8.5h-1.1c-0.8-2-1.5-4-2.4-6.4
		C355.4,554.9,356.4,554.4,358.7,553.4z M351.4,559.1l1.3,0.4c0,4.2,3.5,8.4-1.3,13.5V559.1z M353,589.6c0.3-4.4,0.5-8.9,1-13.3
		c0.1-0.8,1.1-1.6,1.7-2.4c-0.5,5.3-1.1,10.5-1.6,15.8C353.7,589.7,353.4,589.7,353,589.6z M357.8,588.8c-0.7-0.2-1.5-0.3-2.2-0.5
		c0.8-4.4,1.6-8.7,2.5-13.1c0.6,0.1,1.2,0.3,1.8,0.4C359.2,579.9,358.5,584.4,357.8,588.8z M364.8,581.4c0.3-2.6,0.6-5.2,0.9-7.9
		c-0.3-0.1-0.5-0.1-0.8-0.2c-1,4.5-2.1,9-3.1,13.5c-0.5-0.1-0.9-0.2-1.4-0.3c0-4.3-0.6-8.7,0.3-12.9c0.4-1.7,3.8-2.8,6.5-4.7
		c-0.6,4.7-1.1,8.6-1.6,12.5C365.3,581.4,365,581.4,364.8,581.4z M368.6,582.4l-1.6-0.3c0.7-4.8,1.4-9.5,2.1-14.3
		c0.5,0.1,1.1,0.2,1.6,0.3C370,572.9,369.3,577.7,368.6,582.4z M375.1,578.7c-0.5-0.1-1.1-0.2-1.6-0.2c0.8-4.8,1.6-9.5,2.3-14.3
		C376.2,569,378.2,574.2,375.1,578.7z M385,570.3c3.1-6.4-0.5-14.4,4.3-20.4c0.5,0.2,1,0.4,1.4,0.6c-1.3,6.8-2.6,13.5-3.9,20.3
		C386.2,570.6,385.6,570.4,385,570.3z M390.7,567.6c-0.4,0-0.9-0.1-1.3-0.1c1-6.5,1.9-13.1,2.9-19.6
		C393.4,554.6,392.2,561.1,390.7,567.6z M399.3,561.1c-0.5-0.1-1.1-0.2-1.6-0.3c0.9-6.2,1.7-12.4,2.6-18.6l1.5,0.2
		C401.5,548.7,402.2,555.2,399.3,561.1z M406.4,554.4c-0.5,0-1-0.1-1.6-0.1c0.5-6.4,0.8-12.8,1.5-19.2c0.1-1.2,1.7-2.3,3.4-2.8
		C408.6,539.7,407.5,547.1,406.4,554.4z M412.9,546.6c-0.4-0.1-0.8-0.1-1.2-0.2c0.8-6.8,1.6-13.7,2.4-20.5c0.7,0.2,1.4,0.3,2,0.5
		C415.1,533.1,414,539.9,412.9,546.6z M416.4,542.9c-0.4-0.1-0.8-0.1-1.1-0.2c1.1-6.8,2.1-13.5,3.2-20.3c0.4,0.1,0.8,0.1,1.3,0.2
		L416.4,542.9z M434.2,521.6c1.5-7.7,3-15.3,4.6-23c0.4,0.1,0.8,0.2,1.2,0.2C437.7,506.4,440.9,515,434.2,521.6z"/>
	<path d="M328.3,580.4C328.2,580.4,328.1,580.4,328.3,580.4L328.3,580.4z"/>
	<path d="M413.9,282.8c2.6,12.5,2.6,12.5,15,11.9c2.6-0.1,5.2-0.6,7.8-0.9l-0.2-0.2c0.7,2.7,2,5.4,2,8c0,1.4-2.3,3.7-3.8,3.9
		c-5.6,0.8-12.4-0.8-16.6,1.8c-4.2,2.6-5.8,9.3-8.5,14.2c-10.3,19.5-33,24.8-51,21.8c-13.4-2.2-25.8-6.5-35.3-16.7
		c-0.3-0.3-0.8-0.4-2.1-1c1,6.9,1.9,13.3,2.8,19.7c-2.5-6.3-5-12.5-7.4-18.8c-0.3,0.1-0.6,0.2-0.9,0.3c1,2.8,2.1,5.6,3,8.4
		c1,3.2,3.5,6.5-0.4,9.5c-0.8-1.9-1.6-3.8-2.8-6.7c-0.8,3.8-1.4,6.5-2,9.2c-0.5,0-1,0-1.4-0.1c0-5.1,0-10.2,0-15.2
		c-0.1-12.3,0-24.6-0.3-36.9c0-1.5-1.7-3.6-3.2-4.4c-9.4-5.1-19.4-3-29.3-1.7c-1,0.1-2.4,3.8-2.1,5.5c2.1,12.5-0.4,24.4-4.5,36.2
		c0.3-2.6,0.5-5.1,0.8-8.2c-0.9,1.1-1.6,1.9-2.9,3.4c1.8-5.5,3.3-10.2,4.7-14.8c-0.4-0.1-0.7-0.3-1.1-0.4c-1.2,2.8-2.5,5.6-3.7,8.4
		c-0.2,0-0.5,0-0.7-0.1c0-3.5,0-6.9,0-9.9c-1.3,1.8-3,4.3-4.8,6.8c-12.4,18.2-29.6,24.3-50.8,19.7c-19.5-4.2-35.6-13.5-41.2-33.9
		c-2.3-8.3-5.2-12.5-13.9-13.4c-4.4-0.4-8.9-2.9-11.7-7.4c-2-3.3-4.8-6.2-6.8-8.7c-1.3,3.3-1.8,7.9-4.2,9.6
		c-7.7,5.6-8.2,12.1-5.1,20c2,5.1,1,9.7-1.2,14.8c-1.6,3.6-0.9,8.3-0.5,12.5c0.7,6.2,2.3,12.3,3,18.5c0.2,1.6-1.5,3.4-3.2,5
		c3.7-7.9-0.9-14.3-3.1-21c-2.2-6.5-1.4-12.7,0.3-19c2.1-7.7,0.7-14.7-3.2-21.6c-1.4-2.4-1.8-5.4-3-9.3c2.8,2.5,4.7,4.3,7,6.4
		c1.4-3.4,2.7-6.3,4.4-10.2c0.7,1.6,1,2.4,1.7,4.1c1.3-2.6,2.3-4.6,3.4-6.9c-3.2-1.2-6.1-2.2-9.9-3.6c-0.6,1.4-1.6,3.6-3,6.5
		c-0.8-1.2-1.4-2.2-2.2-3.5c-1.5,0.9-3.2,1.9-4.8,2.9c1.5-1.4,2.9-2.9,4.5-4.1c1.4-1.2,3-2.2,4.5-3.3c-0.2-0.1-0.5-0.3-0.7-0.4
		c-3.5,0.7-7,1.5-10.6,2.3c0.6,1.5,1.5,3.6,2.3,5.6c1.3,6.1,2.7,12.2,4,18.4c-0.4,0.1-0.8,0.3-1.2,0.4c-1.2-3.2-2.4-6.3-3.5-9.5
		c-0.3,0-0.5,0.1-0.8,0.1c0,2.7,0,5.5,0,8.2c-0.1,0-0.3,0-0.4,0c-0.6-6.1-1.1-12.3-1.7-18.4c-0.5,0-1,0.1-1.5,0.1
		c0,9.1,0,18.3,0,27.4c-0.5,0-0.9,0-1.4,0.1c-0.5-8.2-1.1-16.4-1.6-24.6c-0.4,0-0.9,0-1.3,0.1c0,3.7,0,7.5,0,11.2
		c-0.2,0-0.4,0-0.5,0c-0.4-6.8-0.8-13.6-1.2-20.3c-0.7,0-1.4,0.1-2,0.1c0,4.4,0,8.8,0,13.2c-0.3,0-0.6,0-1,0
		c-0.1-2.3-0.2-4.6-0.4-8.2c-0.7,2.1-0.9,3-1.2,3.9c-0.2,0-0.4,0-0.6,0c0-1.2,0.3-2.6-0.1-3.7c-1-3,2.4-7.1-2.8-9.4
		c-0.9-0.4,0.2-5.3,0.3-8.1c2.3,0.7,5.1,0.8,6.9,2.2c3.2,2.5,5.8,5.9,9.2,9.4c1.7-2.2,3.2-4.2,4.8-6.3c-0.3-0.4-0.6-0.7-0.9-1.1
		c-1.4,0.9-2.8,1.7-4.2,2.6c-0.1-1.3-0.1-2.7-0.3-5.2c0.4-0.6,1.4-2.4,2.5-4.1c-0.2-0.2-0.5-0.4-0.7-0.7c-1.1,0.7-2.2,1.5-3.3,2.2
		c-0.2-0.1-0.4-0.3-0.5-0.4c2-2.5,4-4.9,5.3-6.6c-2.5-2.3-4-4.4-6-5.6c-6.3-3.5-14.7,0.3-16.1,7.4c-0.7,3.3-0.7,6.9-0.2,10.3
		c2.9,19.4,6.1,38.7,9.1,58c0.1,0.8,0,1.6,0,3.9c-1.1-2.2-1.9-3.2-2.1-4.3c-2.4-11.7-4.7-23.4-6.9-35.1c-1.1-5.7-1.7-11.5-2.6-17.2
		c-1.5-10.1-2.5-19.9,6.7-27.5c1.1-0.9,1.2-2.9,1.7-4.5s0.7-3.2,1.2-4.8c0.2-0.6,0.7-1.1,1.6-2.6c-0.3,4.1-0.6,7.1-0.8,10.1
		c0.3,0.2,0.7,0.4,1,0.6c0.6-0.7,1.4-1.4,1.7-2.2c2-7.2,3-14.4,1.5-21.9c-2.2-10.6,2.2-19.9,6.7-28.9c2.8-5.6,6.9-10.5,11.5-15.1
		c-6.8,12.9-13.4,25.7-15,40.8c3-7.8,5.8-15.2,8.6-22.5c0.5,0.2,0.9,0.4,1.4,0.5c-1.5,3.7-2.9,7.3-4.4,11c0.3,0.2,0.6,0.4,1,0.6
		c1.3-1.9,2.5-3.8,3.8-5.8c5,4,0.4,7.9,0.3,11.8c-2.5,5.8-4.9,11.6-7.4,17.4c0.4,0.2,0.9,0.3,1.3,0.5c4.4-5.2,5.8-11.4,5.9-18
		c3.1-5.7,6.5-11.2,9.1-17.1c4.1-9.3,9.4-17.2,18.1-22.9c3.9-2.6,6.5-7.3,13.5-6.9c-4.1,3.8-7.6,7.2-11.1,10.3
		c-2,1.7-2.4,3.6-1.4,5.9c-8.7,10.3-17.1,20.9-21.8,33.8c-1.4,5-2.7,10-4.1,15c0.7,0.3,1.4,0.6,2.1,0.9c1.7-3.1,3.4-6.1,5-9.2
		c1-2.3,2.1-4.6,3.1-6.9c1.8-2.1,3.6-4.1,5.5-6.2c3.3-3.7,6.6-7.3,10.6-10.4c-9.6,11-18.1,22.5-21.3,37.1l0.2-0.2
		c-0.3,4.5-4.9,8.6-1.7,13.7c2.4-3.7,4.5-7.2,6.7-10.6c0.2-0.3,0.4-0.5,0.6-0.7c3.2-3.3,6.5-6.6,9.7-9.8c2.4-2.3,4.9-4.6,7.3-6.9
		c0.4,0.4,0.8,0.8,1.2,1.2c-4.1,4.3-8.2,8.6-11.9,12.5c4.1-1.4,8.9-2.9,13.6-4.5c0.3,0.5,0.6,1,0.8,1.6c-8.9,2.2-15.3,7.6-20,14.8
		c-4.4,6.8-8.2,14-12.7,21.9c1.8-0.8,3.2-0.9,3.6-1.6c2.4-4,5.1-7.8,6.6-12.1c2.5-7.2,16.3-18.2,24.8-16.1c-3.2,1.6-5.8,2.6-8.2,4.1
		c-1.2,0.7-1.9,2.2-2.8,3.3c-1,0.2-2.2,0.1-3,0.7c-7.7,5.3-10.3,13.9-13.8,21.9c0,0.1,0.5,0.4,1.2,0.9c1.5-1.7,4.2-3.4,4.3-5.3
		c0.7-8.2,5.6-13.4,11.4-18.3c0.3,1.2,0.6,2.4,0.9,4c0.7-0.2,2.3-0.6,4.1-1.1c-1.1,2.9-1.8,5.6-3,8s-3,4.6-5.3,8
		c1.9-1.2,2.7-1.6,4.4-2.6c-1.4,4.1-2.5,7.2-3.6,10.4c-0.5,0.3-1,0.7-1.5,1c4.4,3,9,5.7,13,9.1c1.8,1.5,2.3,4.4,3.5,6.8
		c-0.6,0.2-0.1,0.1-0.1,0c0.4-2.2,0.5-6,1.3-6.2c2.8-0.6,5.8,0.1,8.8,0.4c0.8,0.1,1.6,0.4,1.1,0.3c6.8-7.4,13.2-14.3,19.7-21.3
		c-2,0-4.5,5.5-7.7,0.3c0.1,1.4,0.3,2.7,0.4,4.7c-0.5,0.2-1.6,0.9-2.8,1.1c-0.8,0.1-2.4-0.4-2.5-0.9c-0.2-0.9,0.3-2.1,0.8-3
		c0.6-1.2,1.4-2.3,2.8-4.4c1.4,0.1,4,0.2,7.4,0.4c0.7-1.5,1.9-3.8,3.1-6.2c-0.4-0.3-0.8-0.6-1.2-0.9c2.7-0.5,5.3-0.9,8.6-1.5
		c-0.8,1.3-1.2,2-1.9,3.1c4.8-0.3,9.4-0.6,14-0.9c0.5,0.2,1,0.4,1.5,0.5c2.7,0.4,5.5,1.3,8.1,1.1c1.4-0.1,2.7-2.2,3.9-3.2
		c5-2,10.1-4,15.5-6.2c-0.2-0.9-0.3-1.9-0.5-2.9c0.4-0.4,0.8-0.8,1.1-1.2c6.5,5.4,13,10.9,19.7,16.6c0-2.9,0-5.7,0-8.5
		c0.2,0,0.3,0,0.5,0c0.5,2.8,1,5.7,1.5,8.5c0.3,0,0.6,0,0.9,0c0-2.7,0-5.5,0-8.2c0.1,0,0.3,0,0.4,0c0.6,2.8,1.1,5.6,1.7,8.4
		c0.2,0,0.4,0,0.6-0.1c-0.2-2.3-0.4-4.6-0.5-6.9c0.1,0,0.2,0,0.4,0c0.7,2.6,1.5,5.2,2.2,7.9c0.3,0,0.6,0,0.9-0.1
		c0.3-1.5,0.5-2.9,0.8-4.4c0.2,0,0.5,0,0.7,0c0.5,5.4,1.1,10.7,1.6,16.1c0.4,0,0.8,0,1.2-0.1c0-4.2,0-8.5,0-12.7c0.3,0,0.5,0,0.8,0
		c0.4,2,0.8,4,1.1,6c0.2,0,0.4,0,0.7,0c0.2-1.3,0.5-2.7,0.7-4c0.3,0,0.6,0,0.9,0c-0.2,4.3-0.5,8.7-0.7,13c0.4,0.1,0.9,0.1,1.3,0.2
		c0.6-3.3,1.2-6.5,1.7-9.8c0.1,4.7,2.1,9.2-2.4,13.6c-2,1.9-0.9,7-1.2,10.6c0.5,0.1,1,0.1,1.5,0.2c0.6-3.2,1.2-6.5,1.8-9.7
		c0.2,0,0.5,0,0.7,0c0,2.6,0,5.3,0,7.9c0.4,0.1,0.8,0.2,1.2,0.4c0.5-1.1,1.1-2.1,1.7-3.3c0.4,0.7,1,1.5,1.8,2.8
		c0.8-1.5,1.4-2.6,2.1-3.9c0.7,5.9,5.2,2.6,7.7,2.9c2.6,0.3,7.2,2.6,8.2-3.1c0.3,1.1,0.6,1.9,1.2,4.1c0.2-2.7,0.4-4,0.5-5.4
		c0.2,0,0.3,0,0.5,0c0.3,1.8,0.6,3.6,0.8,5.4c0.4,0.1,0.9,0.1,1.3,0.2c0.4-1.8,0.8-3.6,1.5-7c0.5,3.5,0.8,5.7,1.1,7.8
		c0.4,0,0.7,0,1.1,0c0-3.6,0-7.1,0-10.7c0.6,0,1.3,0,1.9,0c0,4.3,0,8.7,0,13c0.7-0.1,1.4-0.1,2.1-0.2c-0.5-6.2-1.1-12.4-1.6-18.6
		c0.2,0,0.5-0.1,0.7-0.1c0.6,3.4,1.3,6.9,1.9,10.3c0.4,0,0.7,0,1.1,0c-0.2-5-0.5-10.1-0.7-15.1c0.3,0,0.7,0,1-0.1
		c0.6,6.3,1.2,12.6,1.9,18.9c0.3,0,0.7,0,1,0c0-7,0-13.9,0-20.9c0.3,0,0.6,0,0.8,0c0.5,5.5,0.9,11,1.4,16.5c3.3-6.6,1.1-13.8,3-20.6
		c0,5.7,0,11.3,0,17c0.5,0,1,0.1,1.5,0.1c0-5.8,0-11.5,0-17.3c0.6,0,1.1,0,1.7-0.1c0,4.9,0,9.9,0,14.8c0.7,0,1.4,0.1,2.1,0.1
		c0-5.6,0-11.3,0-16.9c0.6,0,1.1,0,1.7,0c0,4.6,0,9.2,0,13.8c0.6,0.1,1.2,0.1,1.8,0.2c0.5-3.6,0.9-7.3,1.4-10.9c0.2,0,0.4,0,0.6,0
		c0,2.9,0,5.8,0,9.6c5.3-2.9,3-8.3,6-11.8c-0.1,1.6-0.2,2.8-0.3,4.9c3.6-1.3,7-2.5,10.8-3.8c0,0.2,0.1,0.8,0.1,2.2
		c9-5.8,18.6-3.8,28.2-2.9c-0.8,1.7-1.4,3-2,4.3c7.8-5.9,16.5-2.9,24.6-2.3c-1.2,1.9-2.6,4.1-4.5,7.1c3.6,0.2,6.4,0.4,9.9,0.7
		c-2-1.5-3.6-2.6-6.1-4.3c2.6-0.9,4.1-1.4,4.4-1.5c1.9,2.2,3.2,3.7,5,5.8c0.4-2.3,0.7-3.9,1.2-6.6c0.5,3.5,0.9,5.9,1.2,8.3
		c0.5,0,0.9,0,1.4,0c0.1-2.3,0.3-4.6,0.4-6.8c0.2,0,0.3,0,0.5,0c0.6,5,1.2,10,1.8,15c0.7,0,1.3-0.1,2-0.1c0-5.5,0-11.1,0-16.6
		c2.9,6.9-0.2,14.5,2.7,21.2c0.6,0,1.1-0.1,1.7-0.1c0.3-10.7,1.1-21.5,0.7-32.2c-0.1-3-2.8-6.5-5.2-8.8c-5.3-5-11.2-9.3-16.4-14.7
		c5.7,3.4,11.4,6.9,17.4,10.4c0.2-2.2,0.3-4.3,0.5-6.3c1.1,4.4,2.2,8.8,3.4,13.2c0.6-0.1,1.3-0.2,1.9-0.3
		c-0.9-11.1-1.8-22.2-2.6-33.3c6.5,26.8,0.7,53.7,2.2,81.1c-2.3-0.6-3.8-1-5.6-1.4c-0.1,2-0.2,3.9-0.3,6.3
		c-1.1-4.3-2.2-8.2-3.4-12.9c-1.5,1.7-2,2.3-2.5,2.9c0-6.7-5.6-12-11.6-10.6C406.1,275.9,410,279.4,413.9,282.8z M409.3,285.9
		c-1-0.9-1.9-1.8-3.3-3.1c0,7.4,0,14.3,0,21.2c0.5,0,0.9,0,1.4,0c0-2.1-0.2-4.2,0-6.2C407.9,293.9,408.6,289.9,409.3,285.9
		c-0.7,6.8-1,13.6,0.5,20.3C412,299.4,413.1,292.5,409.3,285.9z M212.6,288.6l0.2,0.1c-1.2-1-2.4-2-4.2-3.5c-0.2,4-0.4,7.2-0.5,10.3
		c-0.3,0-0.6,0-0.9,0c-0.2-2.3-0.4-4.5-0.5-6.8c-0.4,0-0.7,0-1.1,0c-0.3,2.5-0.6,5.1-0.9,7.6c-0.2,0-0.4,0-0.6-0.1
		c-0.2-1.5-0.4-3-0.6-4.6c-0.3,0-0.7-0.1-1-0.1c-0.3,1.8-0.7,3.7-0.8,4.3c-2.2,0.6-3.7,0.6-4.6,1.3c-3.3,2.6-6.6,1.9-10.7,0.5
		c10.9-3.2,14.5-13.3,22.4-19c4.1,3.1,1-3.4,2.9-3.3c0.5,1.2,1.1,2.3,1.6,3.5c0.3-0.1,0.7-0.2,1-0.3c0.2-1.3,0.4-2.6,0.4-2.6
		c7.7,4.6,15.4-0.6,22.7,0.9c0-4.9,0-8.9,0-12.9c-0.5-0.1-1.1-0.2-1.6-0.3c-0.5,2.3-1,4.6-1.4,6.9c-0.2,0-0.5,0-0.7,0
		c0-2.3,0-4.6,0-8.3c-1.3,2.5-1.9,3.6-2.6,5c-1.1-2.7-2.1-5.1-3.1-7.4c-0.3,0.1-0.6,0.3-0.9,0.4c-0.4,2.4-0.8,4.9-1.2,7.3
		c-0.3,0-0.6-0.1-1-0.1c0-1.7,0-3.4,0-5.1c-0.3,0-0.6,0-0.9,0c-0.2,1.7-0.5,3.4-0.5,4c-1.1-1.7-2.7-4-4.5-6.8c2.2-2.4,5.4-2.2,9-1.3
		c3.2,0.9,6.5,1.3,9.7,1.9c-1.3-6.7-25.5-6-40,1.1c2.9,4,7.9-4.1,11.8,3.2c-4.1-0.2-7.2-0.5-10.2-0.6c-3.1-0.1-6.7-1.1-9.2,0.1
		c-3.6,1.7-6.7,4.9-9.5,7.9c-3.5,3.8-6.5,8-6.3,13.6c0.6,24.3,13.4,40.2,36.9,46.5c21,5.6,39.1,1.3,52.3-19.1c0.4-0.6,1.2-1,1.9-1.5
		c4.8-12.9,6-19.8,2.8-23.2c-0.2,3.8,1,8.7-0.9,11.2c-3.3,4.2-2.1,7.9-1.9,12.1c-3.5-0.6-5.4-1.9-3.9-6.1c0.6-1.5-0.3-3.6-0.6-5.4
		c-0.2,0-0.5,0-0.7,0.1c-0.2,1.5-0.4,3.1-0.6,4.6c-0.2,0-0.4,0-0.7,0c-0.2-2.3-0.4-4.5-0.6-6.4c-0.2,1.4-0.5,3.1-0.7,4.8
		c-0.3,0-0.6,0-0.9-0.1c0-4.5,0-8.9,0-13.4c-0.3,0-0.5,0-0.8,0c-0.5,4.3-0.9,8.5-1.4,12.8c-0.6-3.7-0.9-7.4-0.1-10.9
		c1.4-5.9-1.7-8.9-5.2-10.9c-3.1,4.2-6.1,8-8.8,11.7c-5.1-0.3-10-0.5-14.4-0.7c-1.5-3.7-2.9-7-4.6-11.1c-2.6,1.2-4.9,2.4-7.3,3.5
		c1.2,1.6,2.3,3.2,3.5,4.7C215.9,288.6,214.2,288.6,212.6,288.6z M411.4,310.6c-2.8-1-5.7-2-9.4-3.3c1.2,2.7,2.3,5.2,2.8,6.3
		c-3.7,1.8-8,3.8-12.4,5.8c-1,0.5-2.2,1.1-3.2,1.1c-13.2,0-26.6,2.8-39.6-2.3c-0.2-0.1-1,1-1.7,1.9c0-3,0-5.7,0-8.4
		c0.2,0,0.4,0,0.6,0c0.3,1.6,0.5,3.3,0.8,4.9c0.3,0,0.7,0,1,0c0.3-1.1,0.6-2.3,1-3.4c-1.4,6,4.4,2.8,6.2,5.7c0.3-2.5,0.5-4,0.7-5.7
		c0.8,2.1,1.4,3.9,2,5.6c0.4-0.1,0.8-0.2,1.1-0.3c0.3-1.5,0.5-3.1,0.9-5.3c0.3,2.4,0.6,4,0.8,5.6c0.4,0.1,0.8,0.2,1.2,0.3
		c0.7-1.4,1.5-2.8,2.1-4.1c0.3,1.2,0.5,2.5,0.8,3.8c0.3,0,0.6,0,1,0c0.4-1.3,0.7-2.5,1.2-4c0.3,1.5,0.6,2.7,0.8,4
		c2-0.1,3.8-0.2,5.8-0.4c0-3.9,0-7.4,0-10.9c0.3,0,0.5,0,0.8,0c0,3.4,0,6.9,0,10.4c2.3,0,4.2,0,6.4,0c0.2-3.5,0.3-6.6,0.5-9.8
		c0.2,0,0.5,0,0.7,0c0.2,3.3,0.5,6.5,0.7,9.8c0.5,0,0.9,0,1.4-0.1c0-4.1,0-8.2,0-12.2c0.4,0,0.8,0,1.2,0c0,4,0,8.1,0,13.2
		c4.8-2.1,8.7-3.9,12.5-5.6c-0.9-0.1-2.1-0.3-3.4-0.5c1.9-7,0.7-12.7-3.9-15.8c-4.5,0.4-7.7,0.8-10.8,1.1c-0.1-0.4-0.1-0.8-0.2-1.2
		c1.7-0.8,3.4-1.5,5-2.2c-1-6.1-2.2-7.2-7.8-7.6c-0.5,10.4-4.6,14.6-14.5,13.6c-3.2-0.3-6.5-0.1-9.7-0.1c-0.7-0.4-1.3-0.8-2-1.3
		c1.3-0.4,2.5-0.9,3.5-1.2c-1.4-3.7-3.1-7.7-4.7-11.9c-7.7,1.4-12.2,5.6-13.1,13.3c-0.8,6.7-0.9,13.4-1.3,20.1c-0.3,0-0.6,0-0.8,0
		c0-7.4,0-14.8,0-22.2c-0.5,0-1-0.1-1.5-0.1c-0.5,6.7-1.1,13.5-1.6,20.2c-0.6-2.5-0.8-5-0.6-7.5c0.5-6.5-1.9-14,5.5-18.4
		c0.1,0-0.1-0.6-0.2-1c-4.9,2.4-8.3,5.3-7.5,11.6c0.6,4.7,0.1,9.5,0.1,14.3c-3.3,0-5.6,0-8.7,0c10.3,20,28.2,24.5,47.8,25.4
		C388.5,342.4,403.3,330.9,411.4,310.6z M399,296.8c0.6,0,1.1-0.1,1.7-0.1c0-5-0.5-10.2,0.1-15.1s-2.2-7.3-5.7-8.7
		c-3-1.1-6.5-0.8-9.8-0.8c-0.3,0-0.7,1.8-1.1,3c-0.3-1.8-1.3-1.7-7.2,0.1c-0.1-1-0.3-1.9-0.4-3.1c-1.6,0-3.2,0-4.8,0
		c-2,6.3-1.6,7.9,1.6,8.7c6.1,1.5,12.2,3.2,18.4,4.8c0-0.2,0.2-1.6,0.3-1.8c1,2.5,2.4,5.8,3.7,9.1c0.4-0.1,0.8-0.2,1.2-0.3
		c0-3.4,0-6.8,0-10.2c0.1,0,0.3,0,0.4,0C397.9,287.1,398.4,292,399,296.8z M402.7,279.3c-1.7,15.8-1.3,19.6,2.1,21.4
		C403.9,293.3,406.3,286,402.7,279.3z M318.9,305.6c1.6-0.4,2.8-0.8,4.4-1.2c-6.5-5.4-1.2-11.8-2.8-17.6
		C316,292.6,317.9,298.8,318.9,305.6z M145.6,176.4c-4,0.6-14.1,13.3-15.2,19.4C135.3,189.5,140.6,182.8,145.6,176.4z M325.4,301.1
		c0.2,0,0.4,0,0.6,0.1c0-7,0-14.1,0-21.1c-0.2,0-0.4,0-0.6,0.1C325.4,287.1,325.4,294.1,325.4,301.1z M387.4,263.9
		c10.7,6.6,11.1,6.7,15.9,4.9c-2.9-1.2-5.2-2.3-7.6-3.1C393.3,265,390.8,264.7,387.4,263.9z M332.2,274.7c-0.2,0-0.5,0-0.7,0
		c0,4.7,0,9.4,0,14.1c0.2,0,0.5,0,0.7,0C332.2,284.1,332.2,279.4,332.2,274.7z M328.2,292.4c0.3,0,0.5,0.1,0.8,0.1
		c0-5.3,0-10.6,0-15.8c-0.3,0-0.5,0-0.8,0C328.2,281.9,328.2,287.1,328.2,292.4z M369.5,268.8c-0.3,0-0.6,0.1-0.9,0.1
		c-0.6,2.1-1.6,4.1-1.8,6.2c-0.1,1.5,0.8,3.1,1.3,4.6c0.6-0.2,1.3-0.3,1.9-0.5C369.8,275.8,369.7,272.3,369.5,268.8z M265.7,281.3
		c0.1,2.2,0.2,3,0.2,3.8c0.1,0.6,0.2,1.2,0.3,1.8c0.4-0.1,0.7-0.2,1.1-0.3c-0.8-2.9-1.6-5.8-2.3-8.6c-0.5,0.1-0.9,0.3-1.4,0.4
		c0,2.2,0,4.4,0,7.9C264.5,284.1,264.8,283.3,265.7,281.3z M329,311.7c0-6.3,0-11.3,0-16.3c-0.5,0-0.9,0.1-1.4,0.1
		C328,300.5,328.5,305.5,329,311.7z M201.7,254.6c-0.1-0.6-0.2-1.1-0.3-1.7c-3.1,0.1-6.8-1.3-9.1,4.1
		C196.1,256,198.9,255.3,201.7,254.6z M113.2,230.7c-2,3-3,4.6-4.1,6.2c-0.4,0.6-0.8,1.3-1.3,1.9c0.8,0.5,1.6,1.3,2.4,1.4
		c0.6,0.1,1.8-0.8,1.9-1.3C112.6,236.6,112.8,234.2,113.2,230.7z"/>
	<path d="M494.2,213.2c-2.2-10.7-4.5-21.4-6.6-31.6c1.7,3.2,3.5,7.1,5.8,10.7c1.9,2.9,4.5,5.4,6.5,8.1c5,6.7,6.4,14.6,7.3,22.7
		c-2.3-4.9-7.5-7.8-8.3-13.8c-0.5-3.2-2.8-6.2-4.6-9.1c1.7,15.7,8.3,29.5,17.6,42.9c-0.9-9.3-1.7-18-2.5-26.7
		c0.4-0.1,0.8-0.2,1.3-0.3c1.1,3.7,2.2,7.4,3.3,11.1c0.3-0.1,0.7-0.1,1-0.2c-0.4-4.3-0.3-8.7-1.3-12.9c-0.9-3.7-3-7.1-4.4-10.7
		c-0.3-0.6,0.2-1.5,1.6-3.3c2,2.4,3.8,4.8,6,7c7.3,7.6,9.1,18,13.4,27.1c0.9,1.9,2.5,3.4,3.8,5.1c0.5-0.2,1-0.3,1.5-0.5
		c-0.5-2.7-0.4-5.8-1.7-8.1c-9.1-15.5-16.1-31.6-17.6-49.7c-0.3-3.6-1.4-7.1-1.9-10.7c5.9,10.2,2.4,23.5,9.9,32.8
		c7.4,9.2,6.1,22.6,16.5,30.2c-4-10.2-7.9-20.3-11.9-30.5c0.7-0.3,1.4-0.6,2.1-0.9c1.9,4.5,3.9,8.9,5.8,13.4
		c0.6-0.1,1.2-0.2,1.8-0.3c-0.2-1.4-0.2-2.8-0.7-4.1c-2.6-6.9-7.6-13.9-7.3-20.7c0.3-8.4-2.7-15.3-4.7-22.8
		c-1.4-5.2-3.8-10.1-5-15.5c1.6,3.5,3.6,6.8,4.8,10.5c2.6,7.7,5.2,15.4,7.2,23.3c1.3,5.2,3.5,9.7,6.7,13.8c0.1,1.2,0.3,2.3,0.4,3.5
		c3,14.5,5.5,29.2,1.5,43.8c-1.8,6.7-5.5,12.9-8.2,19.4c-0.6,1.3-1.1,3.2-0.5,4.4c3,6.7,2.9,13.5,2.4,20.7
		c-1.3,19.4-8.4,37.5-11.9,56.4c-1,5.3-5,10.1-7.6,15.2c3.2-12.3,6.6-24.6,9.6-37c2.6-10.6,5.1-21.2,7-31.9c1.3-7.1-1-13.8-3.9-20.3
		c0.2,5.9,1.2,11.7,1.1,17.5c-0.1,5.9-1.2,11.8-1.9,17.6c-0.6-0.1-1.2-0.1-1.8-0.2c0-3.7,0-7.5,0-11.2c-0.2,0-0.3,0-0.5,0
		c-3.4,19.1-6.8,38.2-10.2,57.3c-0.3,0-0.6,0-0.9-0.1c0.6-5.9,1.1-11.9,1.7-17.8c0.8-3.7,1.9-7.3,2.5-11c2-13.3,4-26.6,5.5-39.9
		c0.3-2.6-1.6-5.5-2.4-8.3c-0.8,12-1.4,23.4-2.3,34.7c-0.7,8.2-2,16.4-3.1,24.6c-1.3,2.8-3.3,5.6-3.7,8.6c-0.7,4.7-0.4,9.5-0.6,14.3
		c0,0.2-0.3,0.3-0.5,0.5c-0.3-1-0.5-1.9-1-3.5c-0.6,3.8-1,6.9-1.5,10c-0.5,0-0.9-0.1-1.4-0.1c1-27,2.1-54,3.1-81
		c-0.5-0.1-1-0.2-1.5-0.4c-0.7,2.8-1.9,5.6-2,8.4c-0.2,12.7,0.1,25.3-0.2,38c-0.2,10.2-0.9,20.3-1.3,30.5c-0.2,0-0.4,0-0.6,0
		c0-22.6,0-45.3,0-67.9c-0.5,0-0.9,0-1.4-0.1c-1.4,12.9,0.6,26.1-0.6,39c-1.2,13.1-2.5,26.2-3.9,40.3c2.7-3.2,4.8-5.8,6.9-8.4
		c0.4,0.3,0.9,0.7,1.3,1c-2.7,3.5-5.4,7.1-8.1,10.6c-0.8,1-2.3,1.9-2.3,2.9c-0.2,6.9-0.1,13.8-0.1,20.6c0.3,0.1,0.7,0.2,1,0.3
		c1.5-7.4,3-14.8,4.5-22.2c0.3,0,0.6-0.1,0.9-0.1c0.3,2.6,0.7,5.1,1,7.7c1.8-1.7,2.7-3.6,3.5-5.5c2.7-5.9,5.4-11.9,8-17.8
		c-1.2,4.7-1.9,9.7-3.7,14.2c-4.2,10.2-9.1,20.2-13.5,30.3c-2.6,6-4.6,12.4-7.7,18.1c-4.7,8.9-7.6,9.9-17.6,8.4
		c-1.1-0.2-2.3,0-3.5,0l0.1,0.1c-1.5-4-3.2-7.9-4.6-12c-0.5-1.4-0.2-3-0.3-4.5c0.5-0.1,1-0.2,1.4-0.3c1.4,4,2.7,8.1,4.1,12.1
		c0.5,0,0.9-0.1,1.4-0.1c0-1.5,0.4-3.2-0.1-4.6c-0.9-3.1-2.3-6-3.5-9c0.5-0.2,0.9-0.4,1.4-0.6c0.8,1.1,1.7,2.2,2.5,3.3
		c0.2,0,0.4-0.1,0.6-0.1c-1.1-3.5-2.2-7.1-3.3-10.6c0.6-0.2,1.2-0.4,1.7-0.6c0.4,1,0.7,2,1.1,3.1c3-5.3,2.7-7.7-2-13.4
		c1.1,3.4,1.9,5.6,2.6,7.8c-0.3,0.1-0.6,0.3-0.8,0.4c-2.9-3.9-5.8-7.9-8.6-11.8c0.4-0.3,0.8-0.6,1.2-0.9c0.8,1,1.6,2.1,2.4,3.1
		c0.3-0.1,0.7-0.2,1-0.3c-1.2-3.9-2.3-7.7-3.5-11.6c0.7-0.2,1.5-0.5,2.2-0.7c0.8,2.6,1.5,5.3,2.2,7.9c0.6,2.4,1.1,4.8,4.7,3.7
		c0.1-1.3,0.2-2.7,0.3-4.1c0.5,0,1,0,1.5,0c0,6.5,0.2,13-0.1,19.5c-0.2,5.3-0.9,10.6-1.2,15.9c0,0.7,0.9,1.5,1.8,2.9
		c0.9-8.2,1.7-15.3,2.5-22.4c0.6,0,1.2,0,1.7,0c1.8,7.2,0.2,14.6,1.6,22.1c0.6-7.7,1.2-15.4,1.8-23.1c0.4,0,0.7,0,1.1,0.1
		c-0.4,6.9-0.7,13.8-1.1,20.7c0.5,0.1,0.9,0.2,1.4,0.3c0.5-1.5,1.3-3,1.4-4.6c0.3-5,0.4-10,0.5-15c0-7.8-2.7-13.9-9.5-18.6
		c-2.4-1.7-4.2-3.5-7.4-3.9c-1-0.1-1.4-3.8-2.1-5.8c0.5-0.2,1-0.3,1.6-0.5c0.6,1.4,1.3,2.8,1.9,4.2c3.8-4.5,4.8-4,8.5,5.1
		c0-6.7,0-12,0-17.3c0.3,0,0.6,0,1,0c0,5.6,0,11.1,0,16.7c0.4,0,0.9,0.1,1.3,0.1c0.2-3.9,0.4-7.8,0.6-11.7c0.5,0,0.9,0,1.4-0.1
		c0,4.9,0,9.9,0,14.8c0.5,0,1.1,0,1.6-0.1c0-3.3,0-6.7,0-10c0.3,0,0.6,0,0.9,0c0,4.4,0,8.9,0,14.5c1-1.2,1.4-1.6,1.7-1.9
		c0,9.3,0,18.7,0,28.1c0.3,0.1,0.6,0.1,1,0.2c1.1-10.9,2.1-21.8,3.2-32.7c0.4,0,0.7,0.1,1.1,0.1c-0.6,7.5-1.2,14.9-1.8,22.4
		c4.6-9.9,2.4-20.7,4.5-30.9c-3.1,0-5.6,0-7,0c0.9-5.2,2.2-10.1,2.4-15.1c0.1-1.8-2.2-3.8-3.4-5.7c-1.4,1.1-2.8,2.2-4,3.1
		c-0.1-0.9-0.3-2.6-0.6-5.5c-1.1,2-1.7,3.1-2.1,3.8c0-3.2,0-6.6,0-10.1l-0.1,0.1c3.3-5.4,2-12.4-0.9-18.1c-1.5-3,0-7.6,0.3-11.5
		c0.3-3.3,2.2-6.8-1.6-9.6c-0.7-0.5-0.5-2.2-0.6-3.3c-0.7-6.2-0.7-12.6-4.6-18c-0.6-0.8-0.6-2.1-1.1-4.1c1.7,1.1,2.7,1.7,4.1,2.7
		c-0.3-2.4-0.5-4.3-0.7-6.2c1.6,3.6,3.4,7,4.7,10.6c0.6,1.7,2.9,4.4-1.2,5.5c-0.3,0.1,0.2,2.7,0.4,4.1c0,0.2,0.2,0.3,0.3,0.4
		c0.3-1.3,0.5-2.6,0.9-4.7c4.8,6.8,1,13.9,2.6,21c2.1-2.7,3.7-4.8,6.2-8c-2.6,0.5-3.7,0.7-5.1,1c-0.7-9.8-1.3-19.6-2-29.3
		c-0.1-0.8,0-1.6,0-2.6c-2.5,0.8-4.6,1.4-6.8,2.1c-3.3,2.4-6.6,4.7-9,6.4c0.5,15.4,1.1,30.6,1.5,45.8c0.1,3.3-0.8,6.7,2.3,9.4
		c1,0.8,0.9,2.9,1.3,4.4c-0.4,0.1-0.8,0.3-1.3,0.4c-0.7-1.5-1.5-2.9-2.7-5.3c0,9.7,0,18.3,0,26.6c0.4,0.2-0.3-0.2-1.4-0.7
		c0,1.8,0,3.4,0,5c-0.3,0-0.6,0.1-0.9,0.1c-0.7-3.5-1.5-6.9-2.2-10.4c-0.6-3-1.3-6.1-1.9-9.1c0.6-0.1,1.3-0.3,1.9-0.4
		c0.4,1.6,0.9,3.2,1.4,5.2c3.1-20,2.5-56.7-1.2-70.9c-8,4.8-15.9,9.5-23.5,14c-3.1-2.8,2.5-8.5-4.1-9.3l0.2,0.2
		c0-0.9-0.1-2.6,0.1-2.7c5.1-1.4,10.2-2.6,15.3-3.7c0.5-0.1,1.3,0.7,2.3,1.4c0.6-32.2,6-64-2.5-95.6c0.7-0.1,1.3-0.1,2-0.2
		c1.3,9.6,2.4,19.3,3.9,28.8c1.5,9.4,3.3,18.8,5.7,28c0.8-18.6-6.9-36.4-5.7-55c0.6-0.1,1.1-0.1,1.7-0.2c0.6,6.4,1.1,12.9,1.8,19.3
		c0.4,3.8-0.2,8,3.9,10.6c0.5,0.3,0.5,1.5,0.6,2.4c1.5,9.1,4.1,17.8,10,25c3,3.6,0.3,7.3-1.2,8.1c-4.7,2.8-1.1,5.6-1.9,8.3
		c0.4,0.1,0.8,0.2,1.2,0.3c0.6-2.3,1.3-4.6,2.2-7.9c1.6,5.4,2.9,9.7,4.1,14c0.3,0,0.7-0.1,1-0.1c0-10.1,0-20.1,0-30.6
		c1.7,1.5,3.6,3.1,6.5,5.6c-3.8-13.2-2-26.4-10.2-37.6c0.6-0.2,1.2-0.4,1.9-0.6c0.9,0.6,1.8,1.1,2.6,1.7c0.5-0.2,0.9-0.4,1.4-0.6
		c-6.4-15.7-12.9-31.3-19.3-47c-0.8-1.9-1.5-3.8-2.9-5.6c1.1,5,2.5,9.9,3.3,14.9c0.6,3.7,0.1,7.5,0.5,11.1c0.6,4.9,1.4,9.4,4.2,14.2
		c4.6,7.8,6.4,17.2,8.8,26.2c1.3,4.9,1.2,10.1,1.7,15.2c-0.5,0.1-0.9,0.1-1.4,0.2c-1-7-1.5-14.2-3.2-21.1
		c-1.6-6.4-4.5-12.5-7.2-19.7c-0.6,4.7-1.1,8.5-1.5,12.2c-0.3,0-0.6,0.1-0.9,0.1c-2.2-8.1-4.4-16.1-6.8-25c1.9,1,2.9,1.6,3.6,2
		c-0.3-2.6-0.6-5.8-1-9.1c-1.1-9.1-2.3-18.1-3.1-27.2c-0.4-5.2-0.1-10.5-0.1-16.5c1.9,6.3,3.7,12.2,5.5,18.2c0.1,0,0.3,0,0.4,0
		c-0.2-2.5-0.5-5-0.7-7.5c0.2,0,0.4-0.1,0.7-0.1c3.2,5.4,6,11.1,9.6,16.2c3.7,5.2,8.2,9.9,12.4,14.9c-0.4,0.4-0.8,0.8-1.3,1.2
		c-4.6-5.1-9.3-10.3-13.9-15.4c-0.2,0.1-0.5,0.2-0.7,0.3c1.9,3.8,3.5,7.7,5.8,11.2s5.2,6.7,7.8,10c-0.3,0.3-0.6,0.7-0.9,1
		c-3.5-3-7-5.9-10.8-9.2c2.6,5.8,5.4,11.2,7.4,16.9c2.5,7.1,4.1,14.5,6.5,21.7c0.9,2.7,3.1,4.9,4.8,7.3c0.5-0.3,1-0.5,1.5-0.8
		c-0.6-2.2-1.2-4.5-1.8-6.7c0.4-0.2,0.9-0.4,1.3-0.5c3.1,8,6.3,15.9,9.4,23.9c0.5-0.1,1-0.3,1.5-0.4c-1.4-4.2-2.9-8.5-4.3-12.7
		c-1.6-4.5-3.2-9-4.8-13.6L494.2,213.2z M458.4,245.6c-0.8,13.7-1.5,27.3-2.3,41.3c7.6-2.8,8-3.5,8.3-9.7
		C464.8,266.3,464.5,255.6,458.4,245.6z M497.3,356.8c0.5,0,0.9,0.1,1.4,0.1c3-18.3,3.3-36.7,1.4-55.3
		C499.1,320.1,498.2,338.4,497.3,356.8z M498.3,309.9c-0.6-0.2-1.2-0.3-1.8-0.5c-0.8,1.5-2.5,3.2-2.2,4.5
		c2.3,12.3,0.9,24.4-0.4,36.6c-0.3,2.5,0,5.1,0,7.7c0.5,0,1,0,1.5,0C496.3,342.1,497.3,326,498.3,309.9z M486.4,228.8
		c-0.2,0.2-0.5,0.4-0.7,0.6c1.9,4.9,3.8,9.8,5.5,14.2c2.3-2.3,4.2-4.1,6.6-6.5c-0.5-3.8-5-10.7-8.5-10.8c0.8,3.9,1.6,7.7,2.4,11.5
		c-0.3,0.1-0.5,0.2-0.8,0.2C489.5,234.9,488,231.8,486.4,228.8z M516.3,320c3.9-14.2,4.5-38.6,0-42.3
		C516.3,293,516.3,308.1,516.3,320z M515,280.6c-0.6,0-1.2,0-1.8,0c0,9.9,0,19.9,0,29.8c0.6,0,1.2,0,1.8,0
		C515,300.5,515,290.5,515,280.6z M491.8,349.8c0.4,0,0.8,0,1.2-0.1c0-11.4,0-22.7,0-34.1c-0.4,0-0.8,0-1.2,0
		C491.8,327,491.8,338.4,491.8,349.8z M469.4,273.6c0.3-0.1,0.6-0.2,0.9-0.3c-1-3-1.9-6-2.9-9.1c-0.5,0.2-1,0.3-1.5,0.5
		c0,5.7,0,11.3,0,17.9c2.1-1.4,3.6-2.4,5.9-4c-5.9-0.8-6.5-2.3-4.3-8.3C468.3,271.6,468.9,272.6,469.4,273.6z M499.3,358.4
		c-4.3,4-5.3,11.4-2.9,16.3C497.3,369.4,498.2,364.4,499.3,358.4z M520.2,248.2c4.2-6.3,4.1-7.9,0-13.6
		C520.2,238.8,520.2,243.1,520.2,248.2z M511.6,267.3c5,2.2,8.8,3.9,12.7,5.6C521.8,268.2,518.1,265.9,511.6,267.3z M493.5,308.1
		c1.8-3.1,2.4-5.1-1-5.4c-1.4-0.1-2.9,0.8-4.3,1.2C489.9,305.3,491.6,306.6,493.5,308.1z M499,293.2c0.1-0.5,0.3-1,0.4-1.5
		c-2.4-1-4.7-2.1-7.1-2.8c-0.5-0.2-1.6,0.7-2.1,1.4c-0.2,0.3,0.6,1.7,1.1,1.8C493.9,292.6,496.5,292.9,499,293.2z"/>
	<path d="M307.1,416.1c-0.8-1.2-1.6-2.4-2.3-3.5c-0.6,0.3-1.2,0.7-1.8,1c5.1,2.8-2.1,7.9,3.1,11.6c2.5,1.8,2.6,7,5,10.4
		c0.1-2,0.2-4,0.3-6c0.5-0.1,0.9-0.1,1.4-0.2c0.8,1.9,1.5,3.7,2.5,6.2c3.2-0.2,6.9-0.5,10.4-0.8c-0.4-1.8-0.7-3.3-1-4.8
		c0.4-0.1,0.7-0.2,1.1-0.3c0.8,1.5,1.7,3,2.9,5.1c0.8-1.6,1.4-2.8,1.5-2.9c2.9,0.5,5.5,0.9,8.2,1.3c-3.3-5-10.2-5-13.3-11.8
		c6.6,3.5,12,6.4,17,9.1c-0.7,1.4-1.6,2.5-1.3,2.9c0.5,0.7,1.6,1.4,2.4,1.3c0.6,0,1.6-1.2,1.5-1.9c0-1.8-0.5-3.6-0.9-6.7
		c3.4,2.6,5.6,4.3,8,6.1c0.1-1.5,0.2-3.2,0.3-4.9c0.3-0.1,0.7-0.2,1-0.3c0.8,2.4,1.6,4.8,2.4,7.1c3.3-1.7,6.1-3.1,8.5-4.4
		c-1.7-4.4-3.4-8.7-5.2-13.4c0.9,0.1,1.9,0.2,2.9,0.3c-0.4-1.1-0.8-2.2-1.2-3.2c0.6-0.2,1-0.5,1.2-0.4c3.1,1.8,6.2,3.9,9.4,5.5
		c1.9,1,4.4,1,6.1,2.1c2,1.4,3.4,3.5,5,5.3c0.6-1.1,1.1-2,1.7-3c0.7,0.7,1.4,1.5,2.1,2.2c1.1,1.1,2.1,2.1,4,3.9c0-5.1,0-8.9,0-12.2
		c2.6,1.2,4.3,5.6,3.4,10c-0.5,2.6-0.4,5.4-0.6,8.1l0.1-0.1c-1.4-1.4-2.9-2.9-4.8-4.7c-0.9,3.5-1.7,7-2.8,11.4
		c-0.9-2.3-1.5-3.7-2-5.2c-0.3,0-0.7-0.1-1-0.1c-0.4,3.2-0.9,6.4-1.3,9.6l0.2-0.1c-2.3-0.7-4.6-1.4-7.7-2.3
		c4.9,5.6-2.5,9.4-1.1,14.4c-2.7-3.9,2-9.1-2.9-13.3c0,7.5,0,14.3,0,21.1c-0.7,0-1.3,0-2,0c0.1-2.2,0.3-4.4,0.3-6.6
		c-0.1-7.7-0.3-15.4-0.4-23.1c-0.9,0-1.7-0.1-2.6-0.1c0,4.7,0.2,9.5,0,14.2s-0.7,9.4-1.8,14c-1.1-8.4,2.7-17-0.3-25.2
		c-0.6,0-1.3,0-1.9,0.1c0,7.6,0.6,15.2-0.2,22.7c-0.4,3.6-3.3,6.8-5.2,10.2c-0.2,0.3-1.6,0.3-1.8,0c-0.4-0.8-0.8-1.9-0.7-2.7
		c1.5-7.8,3.2-15.6,4.8-23.4c-0.9-0.2-1.7-0.3-2.6-0.5c-2.8,6.2,0.3,13.6-3,20.7c0.3-6.3,0.6-11.7,0.9-17.6
		c-4.1,3.6-3.8,20.6-0.5,25.3c-1.1,3.2-2.1,6.2-3.2,9.2c-4.6-1.5-3.4-1.5-3.3-5.6c0-2.7,3.7-5.6,0.1-8.8c-1.3-1.2-0.5-4.8-0.7-7.2
		c-0.1-1.7-0.2-3.4-0.3-5.2c-0.6,0-1.2,0-1.8,0c0,5.8,0,11.6,0,17.4c-0.3-0.1-0.5-0.2-0.8-0.3c0.2,1.9,0.4,3.9,0.7,5.8
		c-5.5-6-6.2-12.5-3.5-20.6c0.2,3.7,0.3,6.4,0.5,9.9c3.9-5,3.3-8.9-1.4-14.3c-0.3,0.7-0.6,1.3-1,2.2c-1.3-2.5-2.4-4.9-3.6-7.2
		c-0.2,0.1-0.5,0.2-0.7,0.3c0.5,2.8,1.1,5.7,1.6,8.5c-0.2,0-0.5,0.1-0.7,0.1c-1.1-2.6-2.1-5.3-3.2-7.9c-0.3,0.1-0.6,0.2-0.9,0.3
		c0.5,2.4,0.9,4.8,1.4,7.2c-0.3,0.1-0.6,0.2-0.8,0.3c-1.1-2.6-2.2-5.2-3.3-7.8c-0.5,0.2-0.9,0.3-1.4,0.5c0.5,2.2,1,4.5,1.5,6.7
		c-0.2,0.1-0.4,0.2-0.6,0.3c-1.1-2.2-2.3-4.4-3.4-6.5c-0.3,0.1-0.6,0.2-0.9,0.4c0.7,2.4,1.4,4.8,2,7.2c-3.1-1.9-1.8-7.7-7.8-6.7
		c0.4,1.7,0.7,3.1,1.2,5.6c-1.7-1.9-2.7-3.1-4.3-4.8c0.1,1.9,0.1,3.1,0.2,5.1c-1.6-2.1-2.8-3.7-3.9-5.3c-0.3,0.2-0.6,0.3-0.9,0.5
		c0.3,1.5,0.7,3,1,4.5c-0.2,0.1-0.4,0.2-0.6,0.4c-1-1.5-2-2.9-3.7-5.5c0.2,2.9,0.3,4.5,0.4,6.1c-0.2,0.1-0.4,0.1-0.6,0.2
		c-0.8-1.7-1.5-3.4-2.1-4.7c-8.5-0.6-16.6-1.2-24.7-1.6c-1.5-0.1-3.1,1-4.8,1.6c0-0.4,0.1-1.5,0.2-3.8c-2.2,2-3.7,3.4-6,5.4
		c0.9-2.3,1.5-3.7,2.1-5.1c-5.6-2.5-6.9-1.9-12.1,4.5c0.9-1.6,1.4-3.6,2.7-4.7c3.1-2.5,2.7-5,1.5-8.2c-2.6-6.9-2.4-6.9-0.2-11.1
		c3.5,1,7,2,10.4,3.1c0.9-2.2,1.6-3.8,2.8-6.8c0.2,3.1,0.3,4.7,0.4,6.6c1.5,0.3,3.2,0.7,4.3,1c0.8,5.1,1.6,9.7,2.3,14.4
		c0.4,0,0.7-0.1,1.1-0.1c-0.3-2.8-0.3-5.6-0.9-8.2c-0.6-2.7,3.5-5.4-0.3-7.9c0.5-0.8,1.4-2.2,1.6-2.2c4.6,1.9,5.7-2.3,6.3-4.5
		c0.7-2.8-0.7-6-4-7.5c-0.4-0.2-0.5-0.8-1-1.6c-0.7,1.6-1,2.6-1.4,3.5c-0.3,0-0.6,0-0.8-0.1c0-2.3,0-4.7,0-7
		c-0.3-0.1-0.6-0.3-0.9-0.4c-1.3,2-2.6,4-3.9,6c-0.4-0.1-0.8-0.2-1.2-0.4c0.4-2.7,0.9-5.5,1.3-8.2c-0.6-0.1-1.2-0.2-1.7-0.2
		c-1.2,3.2-2.5,6.3-4.2,10.8c-1.2-4.6-3.9-7.7,0.7-10.9c0.9-0.6,0.6-3.1,0.8-4.9c-4.8,2.6-8.4,4.6-12.1,6.6
		c-0.4-0.3-0.8-0.6-1.1-0.9c1-3.7,2-7.3,2.8-10.4c-4.4-3.5-8.9-6.4-12.3-10.2c-3.9-4.5-4.2-10.2-2.6-16.1c0.3-1.1-1.5-2.6-2.1-4.1
		c-0.5-1.1-0.6-2.4-1-4c-13.3,10.9-26.5,21.7-38.5,31.6c0.8-6.1,1.8-13.5,2.9-22.3c0,5.9,0,10.3,0,14.7c0.5,0.1,1,0.1,1.5,0.2
		c0.5-6,0.9-12.1,1.4-18.1c0.2,0,0.5,0,0.7,0c0,4.6,0,9.2,0,13.7c0.2,0,0.5,0.1,0.7,0.1c0.8-5.5,1.5-11,2.3-16.5
		c0.4,0,0.7,0.1,1.1,0.1c-0.5,4.8-1.1,9.5-1.6,14.3c0.5,0.1,1.1,0.2,1.6,0.4c0.9-3.7,1.8-7.5,2.8-11.8c0.2,2.7,0.4,4.8,0.6,7
		c0.1,0,0.3,0,0.4,0c0.3-3.5,0.7-7,1-10.4c0.4,0,0.8,0,1.1,0c0,2.6,0,5.3,0,7.9c0.5,0,0.9,0.1,1.4,0.1c0.4-2.9,0.8-5.8,1.2-8.7
		c0.2,0,0.3,0,0.5,0c0.1,2.1,0.2,4.2,0.3,6.3c0.5,0.1,0.9,0.2,1.4,0.3c0.8-3.7,1.5-7.3,2.3-11c0.2,0,0.5,0.1,0.7,0.1
		c-0.2,2.1-0.4,4.1-0.6,6.2c0.3,0.1,0.6,0.1,0.9,0.2c0.4-2.4,0.8-4.9,1.2-7.3c0.2,0,0.4,0,0.6,0c0.1,1.8,0.2,3.5,0.3,5.3
		c0.3,0.1,0.6,0.2,1,0.2c0.7-2.6,1.5-5.2,2.2-7.8c0.2,0,0.4,0,0.5,0c0,1.5,0,3.1,0,4.6c0.3,0.1,0.7,0.2,1,0.3
		c0.8-2.2,1.6-4.4,2.6-7.1c0.4,1.3,0.6,2.2,1.2,4.6c1.1-4,1.8-6.6,2.9-10.5c0.2,2.7,0.4,4.2,0.5,5.6c0.4,0.1,0.8,0.3,1.2,0.4
		c1.4-3.8,2.8-7.5,4.3-11.3c0.2,0,0.4,0.1,0.6,0.1c-0.5,2.8-1,5.6-1.4,8.4c0.4,0.1,0.8,0.2,1.2,0.3c0.9-2.5,1.7-5,2.9-8.6
		c0.2,2.5,0.3,4,0.4,5.5c5-2.6,6-2.1,7.8,4.3c-1.3-1.1-2.5-2.1-4.5-3.7c-4.8,10.4-10.1,20-6.5,31.4c0.8,2.6,1.9,5.7,6.6,4.3
		c2.2-0.7,5.3,1.9,8.3,3.1c0.1-1.4,0.1-2.9,0.2-4.5c0.2,0,0.5-0.1,0.7-0.1c0.6,2.4,1.2,4.7,2,8.1c0.4-2.7,0.6-4.4,1-7.2
		c0.9,4.2,1.6,7.2,2.2,10.2c0.3,0,0.7,0,1-0.1c0-2.1,0-4.2,0-6.3c0.3,0,0.5,0,0.8-0.1c0.7,3.2,1.4,6.5,2.1,9.7
		c0.3-0.1,0.5-0.1,0.8-0.2c0-3.9,0-7.8,0-11.7c0.1,0,0.3-0.1,0.4-0.1c0.4,1.9,0.8,3.7,1,5.6c0.3,2.1,0.1,4.4,0.5,6.5
		c0.4,1.9,1.3,3.7,1.9,5.5c0.5-0.1,1-0.3,1.6-0.4c-0.3-4.6-0.7-9.2-1-13.8c0.4,0,0.7-0.1,1.1-0.1c0.8,5.4,1.6,10.8,2.4,16.1
		c0.5-0.1,1-0.1,1.5-0.2c-0.3-4.3-0.5-8.6-0.8-12.8c0.4-0.1,0.8-0.1,1.2-0.2c0.7,4.8,1.4,9.6,2.1,14.3c0.4-0.1,0.8-0.1,1.3-0.2
		c-0.3-4.3-0.5-8.6-0.8-12.9c0.3,0,0.7-0.1,1-0.1c0.6,4.1,1.2,8.2,1.8,12.3c0.2,0,0.3-0.1,0.5-0.1c0.2-3.9,0.4-7.7,0.5-11.6
		c0.3,0,0.7,0,1-0.1c0.2,3.8,0.4,7.6,0.6,11.4c0.5,0,1,0,1.5,0c0-4.4,0-8.8,0-13.2c0.4,0,0.8,0,1.1-0.1c0.5,4.4,1,8.8,1.5,13.1
		c0.4,0,0.7,0,1.1,0c0-4.5,0-9,0-13.4c0.4,0,0.7,0,1.1-0.1c0.4,4.3,0.9,8.6,1.3,13c0.3,0,0.6,0,1-0.1c0.2-4.2,0.5-8.4,0.7-12.6
		c0.4,0,0.8,0,1.3,0c0,3.6,0,7.3,0,10.9c0.5,0,1,0,1.5,0c0-5.9,0-11.8,0-17.8c0.5,0,1,0,1.5,0c0,5.1,0,10.3,0,15.4
		c0.4,0,0.8,0,1.3,0c0-4.9,0-9.9,0-14.8c0.3,0,0.6,0,0.9,0c0.2,3.9,0.5,7.9,0.7,11.8c0.3,0,0.6,0,0.9-0.1c0.5-5,1-10,1.5-15
		c0.3,0,0.7,0.1,1,0.1c-0.2,4.4-0.5,8.8-0.7,13.1c0.4,0,0.7,0.1,1.1,0.1c0.5-5.4,1.1-10.8,1.6-16.2c0.2,0,0.4,0,0.6,0
		c0.2,1.3,0.4,2.7,0.6,4c0.4,0.1,0.9,0.2,1.3,0.2c0.7-3.7,1.3-7.5,2.1-12.1c0.2,2.5,0.4,4.2,0.5,5.9c0.5,0,1,0,1.4,0
		c0.3-6.9,0.6-13.9,1-21.7c6.8,10.2,1.4,21,3.9,31c0.3-3.4,0.5-6.8,0.8-10.2c0.3,0,0.6,0,1,0c0,3,0,6.1,0,9.1c0.4,0,0.7,0.1,1.1,0.1
		c0.3-2.5,0.6-4.9,0.8-7.4c0.2,0,0.4,0,0.5,0c0.1,2.2,0.3,4.3,0.4,6.5c0.4,0,0.7,0.1,1.1,0.2c0.4-1.8,0.7-3.6,1.3-6.4
		c0.3,2.8,0.5,4.5,0.8,6.9c5.7-2.7,3.7-8.1,5.4-12c0,4.4,0,8.8,0,13.2c0.4,0,0.8,0,1.2,0c0.5-6.6,0.9-13.3,1.4-19.9
		c0.1,0,0.2,0,0.3,0c0,5.9,0,11.8,0,17.7c0.8-7.8,5.4-16,0.7-23.3c-3.6-5.6-9.7-9.5-15.8-12.8c1.3-2.6,1.3-2.6,8.5,1.3
		c0.6-0.7,1.1-1.6,1.9-2c0.5-0.2,1.7,0.1,1.9,0.5c0.6,1.3,0.9,2.7,2,4.1c0.1-1.2,0.2-2.3,0.4-4.4c1,2,1.5,3.3,2.2,4.7
		c-0.1,0,0.1,0,0.1,0c0.3-0.5,0.5-1,0.7-1.3c1.5,2.6,3,5.1,4.5,7.7c0.5-0.2,0.9-0.3,1.4-0.5c-0.2-2-0.4-3.9-0.7-5.9
		c0.1,0,0.3-0.1,0.4-0.1c1.2,3.2,2.4,6.4,3.6,9.5c0.4-0.1,0.8-0.2,1.2-0.3c0.1-1.5,0.2-3.1,0.3-6.1c1.1,3.8,1.8,6.2,2.5,8.7
		c0.4,0,0.7-0.1,1.1-0.1c0-2.1,0-4.2,0-6.3c0.3,0,0.6-0.1,0.8-0.1c0.6,2.9,1.2,5.7,1.8,8.6c0.2,0,0.3,0,0.5-0.1
		c0.1-1.9,0.3-3.9,0.5-6.6c0.8,3.9,1.4,7.1,2,10.3c0.4-0.1,0.9-0.2,1.3-0.3c0-3,0-6,0-9c1.5,6.6,0.4,14,8.7,17.7
		c0.2-3.6,0.5-7.4,0.7-11.2c0.5,0,1,0,1.5,0c0,5.3,0,10.6,0,15.9c0.5,0,1-0.1,1.4-0.1c0-3.6,0-7.2,0-10.8c0.2,0,0.5-0.1,0.7-0.1
		c0.4,4.9,0.7,9.8,1.1,14.7c0.7,0,1.3-0.1,2-0.1c0-6.3,0-12.5,0-18.8c1.5,7.8,0.2,15.8,2.3,23.4c0.6,0,1.3-0.1,1.9-0.1
		c0-5,0-9.9,0-14.9c0.3,0,0.5,0,0.8,0c0.4,6.3,0.8,12.6,1.2,18.9c0.6,0,1.2,0,1.8-0.1c0-6.3,0-12.6,0-18.8c0.3,0,0.6,0,0.9,0
		c0.5,7.4,1,14.8,1.5,22.2c0.5,0,1.1-0.1,1.6-0.1c0-7.9,0-15.9,0-23.8c0.4,0,0.9,0,1.3,0c0.5,8.9,0.9,17.9,1.4,26.8
		c0.5,0,1-0.1,1.4-0.1c0-9.9,0-19.7,0-29.6c0.5,0,1,0,1.6,0c0,9.4-0.1,18.8,0.1,28.3c0,1.8,0.7,3.5,1.1,5.3c0.6-0.1,1.3-0.1,1.9-0.2
		c0-13.4,0-26.9,0-40.3c0.8,0,1.7,0.1,2.5,0.1c-0.9,14.2-1.8,28.3-2.6,42.5c0,0.8,0.3,1.6,0.5,2.3c1.1,3.3,2.2,6.5,2.6,10
		c-3.1-6.4-5.1-13.3-12.5-18.1c2.7,4.2,4.7,7.4,6.8,10.6c-0.6,0.4-1.1,0.7-1.7,1.1c-1-1.5-1.9-3.1-2.9-4.6c-1.9-2.9-4-5.1-8.2-5.2
		c-2-0.1-4-2.7-6-4.1c0.3-0.4,0.6-0.9,0.9-1.3c2.7,1.1,5.5,2.3,8.2,3.4c0.2-0.4,0.4-0.8,0.6-1.2c-3.6-3-7.3-6-11.3-9.4
		c-0.1,2.7-0.3,5-0.4,7.8c-1.3-0.4-2.6-0.8-4.9-1.4c1.1,2.5,1.9,4.3,2.8,6.2c-5.4-1.2-5.9-11.2-1.1-18c-1,3.6-2.6,7.4,1.1,10.2
		c0.7-0.2,1.4-0.4,2.1-0.6c-1.1-3.2-2.1-6.4-3.2-9.6c-1.4-1-2.8-2-4.6-3.3c-0.3,5.3-0.5,10.2-0.8,15.4c-0.5,0-1.3,0-2.4,0
		c0.3,0.8,0.6,1.5,0.8,1.8c-2.1,0.7-4.3,1.3-6.5,2c-0.2-0.5-0.6-2-1.3-3.9c-1.4,1.7-2.3,2.9-3.3,4.1c0-10.4,0-20.7,0-31.1
		c-0.5,0-1,0-1.4,0c0,5.3-0.2,10.7,0.1,16c0.2,5,0.9,10,1.4,15c-0.3,0.3-0.7,0.6-1,0.9c-0.8-1.5-2.4-3-2.4-4.5
		c-0.1-9.1,0.3-18.1,0.3-27.2c0-1.2-0.8-2.4-2.2-3.5c0,10.4,0,20.9,0,31.3c-0.5,0-1.1,0-1.6,0c0-11,0-22.1,0-33.1
		c-0.4,0-0.9,0-1.3,0c0,10.7,0,21.4,0,32.1c-0.3,0-0.7,0-1,0c0-4.5,0-8.9,0-13.9c-2.9,3.2-3.2,6-1.9,13.5c-0.5,0.1-0.9,0.3-1.4,0.4
		c-0.2-1.3-0.3-2.8-0.8-4c-0.5-1.1-1.5-2.7-2.3-2.8c-1.5-0.1-3,0.9-5.1,1.6c-0.8-0.6-2.4-1.6-5.3-3.5c1.3,2.6,2,3.9,2.7,5.3
		c-5.2,2.8-10.4,5.6-17.2,9.3c-0.2-0.3-1-2-2.2-3.4c-0.3-0.3-1.6,0.2-2.5,0.3l0.1-0.1c-1.8,1.7-3.6,3.3-4.8,4.4
		c0,2.7,0.1,4.6-0.1,6.5C310.4,416.2,308.3,416.1,307.1,416.1L307.1,416.1z M363.6,377.9c-0.3,0-0.6,0-1,0c0,7.1,0,14.2,0,21.3
		c0.3,0,0.6,0,1,0C363.6,392.1,363.6,385,363.6,377.9z M367.8,380.3c-3,6.9-2.2,16.8,1.1,19.5C368.5,392.8,368.2,386.5,367.8,380.3z
		 M370.5,383.5c0,5.7,0,11.3,0,17C372.8,389.8,372.5,385.5,370.5,383.5z M359.5,443c-0.5,0-1.1,0-1.6-0.1
		c-0.5,7.6-0.9,15.1-1.4,22.7c0.4,0,0.8,0.1,1.1,0.1C358.3,458.1,358.9,450.6,359.5,443z M304.7,446.2c-0.3,0-0.6,0-1-0.1
		c0-2.3,0-4.6,0-7c-0.9,2.6-1.3,5.2-1.4,7.7c0,0.7,0.9,1.6,1.6,1.9c0.4,0.2,1.7-0.5,1.8-1c0.6-3,0.9-6,1.3-8.9
		c-0.4-0.1-0.7-0.1-1.1-0.2C305.6,441.2,305.1,443.7,304.7,446.2z M320.8,447.1c0.6,0.3,1.2,0.5,1.9,0.8c1.1-3.2,2.3-6.4,3.4-9.6
		c-0.7-0.3-1.4-0.5-2-0.8C323,440.7,321.9,443.9,320.8,447.1z"/>
	<path d="M437.4,91.2c-0.4-1-0.9-1.9-1.9-3.9c3.1,0,5.6,0.2,8.1-0.1c1.9-0.2,3.7-1,5.7-1.6c-5.6-10.1-18.8-9.2-26.6-16.5
		c0.2-0.5,0.4-1,0.6-1.5c5.9,2.1,11.8,4.2,19,6.7c-2.8-2.7-4.7-4.4-6.5-6.1c0.2-0.4,0.4-0.7,0.6-1.1c2.3,0.8,4.5,1.6,7.1,2.6
		c-0.1-0.7-0.2-1.6-0.3-2.9c1.8,0.6,3.5,1.3,6.1,2.1c-3.6-7.7-11.9-5.2-16.9-8.6c0.1-0.6,0.3-1.2,0.4-1.8c3.9,0.5,7.8,0.9,11.7,1.4
		c1.5,0.2,3.1,0.2,4.7,0.3h-0.1c3.6,1.6,7.1,3.4,10.8,4.7c8.2,3,9.8,11,13,17.6c3.4,7,5.5,14.6,8.2,21.9c0.5,1.3,1,2.6,1.7,4.4
		c1.9-6.2,0-16-5.5-30.1c-3.8-9.7-10.2-17.4-19.2-22.7c15.1,4.7,21.3,17.2,26.5,30.6c-2.1-14.5-9.8-25.6-21.1-34.5
		c4.4,2.2,8.8,4.4,13.5,6.8c-0.9,0.5-1.7,0.9-2.9,1.5c15.2,13.5,13.1,31,12,49.3c1.9-1.1,3.7-2.7,5.7-3c2.5-0.5,5.1,0.1,7.7,0.3
		c0.1,0.6,0.2,1.3,0.3,1.9c-5.3,1.5-10.5,3.1-16.5,4.8c4.3,0,8,0,11.7,0l-0.2-0.2c3.9,3,7.8,6,12.9,10c-3.1-0.4-4.7-0.7-6.8-1
		c0.4,2.1,0.8,3.9,1.2,5.7c-5.8-8.2-14.9-6.5-22.9-7.9c1.7-2.4,1.7-2.4,9.7-2.8c-1.8-0.4-3.7-0.8-5.5-1.2c-1-0.2-2.6,0.2-3-0.4
		c-3.1-3.8-3.8-0.3-5.8,2.3c-1-3.3-1.8-6.1-2.6-8.9c-0.3,0.1-0.7,0.1-1,0.2c0.4,4.3,0.8,8.5,1.1,12.8c-0.6,0.2-1.1,0.3-1.7,0.5
		c-2.7-8.1-5.5-16.3-8.2-24.4c-0.5,0.1-0.9,0.2-1.4,0.3c-1.8,8.1,5.5,14.6,4.7,23.4c-1.5-4-2.7-7.4-4-10.7c-0.2,0.1-0.4,0.1-0.6,0.2
		c0.6,5.4,1.3,10.7,1.9,16.1c-8.9-1.3-8.9-1.3-8.9-13.1c0.6,1.3,1.4,2.6,1.9,3.9c0.5,1.5,0.8,3.1,2.2,4.4c-0.9-3.7-1.7-7.4-2.7-11.6
		c-1.1,0.8-2,1.5-4.1,3c-0.2-2.6-0.3-4.3-0.3-6c0-0.2,0.4-0.6,0.3-0.7c-3.3-3.3-6.6-6.7-10-9.9c-1.5-1.4-3.4-2.3-4.6-3.8
		c-0.4-0.5,0.7-2.1,1.1-3.3c4.3,3.1,8.6,6.2,13.9,10C447.7,94.9,444,90.9,437.4,91.2z M464.2,75c-0.4,0.2-0.7,0.4-1.1,0.7
		c2.3,6.1,4.7,12.2,7,18.2c0.4-0.1,0.7-0.3,1.1-0.4C468.9,87.3,466.6,81.1,464.2,75z"/>
	<path d="M130.4,111.5c2.2-11.4,20.2-21.1,45-25.1c-7.9-1.5-16.3,0.5-33.7,8.6c4.3-5.3,9.1-7.5,14-8.7c4.8-1.2,8.6-3.1,10.5-8.8
		c-5.3,2.1-10.8,3.7-15.9,6.3c-5.2,2.7-9.8,6.4-15.5,8.9c3.1-2.8,6.2-5.7,9.7-8.9c-4.2,1.4-8.2,2.5-11.8,4.1
		c-5.1,2.4-11.9,1.9-13.7,10.2c-0.8-1.8-1.1-2.2-1.1-2.4c2-7.8,15.6-17.6,23.5-16.9c2.1,0.2,4.2,1.1,6.2,1.1
		c11.1,0.1,20.4-6.3,30.8-9c-5.7,0-11.4,0-17.4,0c0.8-1.2,1.4-2,2.2-3.2c-1.9-0.4-3.6-0.8-5.4-1.2c0-0.5,0-1,0-1.4
		c5.6-0.7,11.2-1.3,16.8-2c7.7-1,15.4-2.1,23.2-3c2.7-0.3,5.5,0.2,8.4,1.2c-0.8,0.4-1.6,0.7-2.8,1.3c3.1,1.2,5.9,2.4,8.6,3.5
		c-0.1,0.2-0.1,0.3-0.2,0.5c-5.9-0.5-11.8-1.1-17.7-1.6c-0.1,0.4-0.2,0.8-0.3,1.2c2.7,0.8,5.3,1.5,9.5,2.7c-2.3,1.4-3.9,2.3-5.2,3.1
		c0.1,0.1,0.4,0.7,0.9,1.6c-2.8,0.1-5.2,0.3-8.1,0.4c0.7,1.3,1.3,2.3,2.5,4.5c-7.9-2.6-14.9-3-22.6,0c6.9,1,13.8-0.8,19.7,5.9
		c-3.5,1-6,1.8-8.6,2.5c0,0,0.2,0.6,0.6,1.6c-1.7,0.2-3.2,0.5-4.5,0.7c1.8,0.8,3.8,1.7,6.7,3c-3.1,0.6-4.8,1-7,1.5
		c0.9,1.2,1.5,2,2.2,2.9c-1.1,0.2-2.1,0.4-3.4,0.6c1.6,1,3,1.7,4.4,2.5c-0.1,0.3-0.1,0.7-0.2,1c-3.6,0.2-7.2,0.5-10.6,0.7
		c3.2,2.4,6.1,4.7,9,6.9c-0.3,0.4-0.5,0.9-0.8,1.3c-2.7-0.3-5.4-0.5-8.1-0.8c-0.1,0.2-0.1,0.4-0.2,0.6c1.2,0.5,3.1,0.7,3.6,1.6
		c0.6,1.2,0.6,4.1,0.1,4.2c-5.4,1.8-10.8,3.3-16.6,4.3c3.1-1.8,6.1-3.5,9.2-5.3c0-0.2-0.1-0.4-0.1-0.6c-4.2,1.2-8.5,2.3-12.7,3.5
		c0-0.2,0-0.4,0-0.6c-4.9,2.6-9.9,5.2-15,7.9c6.2-11.4,17.6-14.4,28.2-18.6c-14.5-0.1-23.8,10.2-34.4,17.9c-0.3-0.4-0.7-0.9-1-1.3
		c9.1-7.9,18.1-15.7,27.2-23.6c-0.4-0.6-0.7-1.1-1.1-1.7C146.9,98.5,136.9,101.1,130.4,111.5z M164,92.5c-0.1-0.5-0.3-1-0.4-1.6
		c-4.5,1.5-8.9,3-13.4,4.5c0.1,0.3,0.2,0.6,0.3,0.9C155,95.1,159.5,93.8,164,92.5z"/>
	<path d="M168.6,32.8c6.8,0.3,13.6,0.5,20.4,1.1c2,0.2,3.8,1.3,5.8,1.9c-0.1,0.4-0.2,0.8-0.3,1.2c-4.4-0.4-8.9-1.3-13.3-1
		c-4.3,0.3-8.5,1.8-12.8,2.8c0,0.4,0.1,0.9,0.1,1.3c10.3-0.6,20.7-1.1,31-1.7c0,0.4,0.1,0.9,0.1,1.3c-9,1.2-18,2.3-26.9,3.5
		c0,1.9,0,3.1,0,4.5c0.7,0,1.4,0.2,2,0.1c13-2.7,26-5.2,38.9-8.3c7.5-1.8,14.7-5.1,22.2-7c4.3-1.1,8.9-1,13.4-1
		c11.8-0.1,23.6-0.2,35.3,0.4c4.6,0.2,9.1,2.1,13.7,3.2c0,0.4-0.1,0.8-0.1,1.3c-12.2,0.5-24.4,1.1-36.6,1.6c0,0.4,0,0.8,0.1,1.2
		c4.6,0,9.2-0.2,13.7,0s9,0.8,13.6,2.3c-20.2-2.5-39.3,1.3-58,8.8c2.7-1.5,5.5-2.9,8.2-4.4c1.8-1,5.1-0.5,4.3-4.1
		c1.4-0.3,2.8-0.6,4.2-0.9c12.5-2.5,24.9-5,34.6-7c-17.2-1.8-36.4,1.8-54.9,10.2c-0.2-0.5-0.4-1.1-0.6-1.6c2.5-1.2,4.9-2.5,7.5-3.7
		c2.7-1.2,5.5-2.2,8.1-3.6c-8.3-0.3-16,2.3-23.8,4.7c-7.6,2.3-15.5,3.8-23.3,5.8c-8,2.1-16,4.3-23.9,6.9c5,0,9.9,0,14.9,0
		c0,0.4,0.1,0.8,0.1,1.1c-2.1,0.1-4.3,0.1-6.4,0.4c-10.8,1.8-21.5,3.8-32.3,5.5c-2.8,0.4-5.7,0.1-8.5,0.1c-0.1-1-0.2-1.9-0.2-2.9
		c10.1,2.1,19.5-0.5,28.8-4.1c-4,0.5-8.1,0.9-12.1,1.4c-0.1-0.4-0.2-0.8-0.3-1.1c4.5-1,9-2,13.4-3c-0.1-0.6-0.2-1.2-0.3-1.7
		C158,50.1,147.6,52,137.3,54c-0.2-0.8-0.3-1.6-0.5-2.4c2.5-0.4,5-0.8,7.6-1.2c0.3-1.3,0.6-2.7,1-4.8c-3.2,0.5-6,0.9-9.1,1.4
		c0-0.5-0.2-1.6,0.2-2.2c5.1-6.9,16.5-15,27.1-11.5c1.5,0.5,3.5-0.4,5.2-0.7L168.6,32.8z M148.9,39.3c0,0.7,0.1,1.3,0.1,2
		c3.2,0,6.5,0,9.2,0c-0.2-2.5-0.4-4-0.6-6.2C154.5,36.5,151.7,37.9,148.9,39.3z"/>
	<path d="M385.6,48.6c2.5,3.3,6.8,5.7,5.3,11.2c-1.1-1.5-2.2-3-3.5-4.6c-0.3,0.7-0.5,1.4-0.9,2.3c-2.6-1.9-5.1-3.8-8.8-6.6
		c1.4,2.8,2.2,4.4,3,5.9c-5.8-3.4-11.3-6.6-16.9-9.9c-0.3,0.4-0.6,0.9-0.8,1.3c2.5,2.4,5.1,4.8,7.6,7.2c-0.2,0.6-0.5,1.2-0.7,1.8
		c-2.1-0.6-4.4-0.8-6.3-1.8c-7.6-4-15-8.2-23-11.4c7.5,4.9,15,9.8,22.8,14.8c-3.2,2.1-5.9,0.3-8.8-1.5c-6.2-3.8-12.5-7.4-18.7-11
		c-0.7-0.4-1.5-0.4-3.3-0.8c5.3,4.9,12.7,6.2,13.6,14.1c-2.5-2-5-4-7.6-6c-0.2,0.1-0.4,0.3-0.5,0.4c0.9,1.4,1.9,2.9,2.8,4.3
		c-12.1-7.5-23.4-16-37.8-19.1c1.9,0.1,3.8,0.2,5.6,0.4c2.3,0.2,4.6,0.5,6.9,0.8c2.1,0.3,4.2,0.8,7.5,1.4c-2.5-1.5-4.1-2.5-5.6-3.4
		c0.1-0.3,0.2-0.5,0.3-0.8c4.2,1,8.4,2,12.5,3c0.1-0.5,0.3-1,0.4-1.4c-5-1.8-10-3.5-15-5.3c0-0.1,0-0.3,0-0.4
		c3.6,0.6,7.2,1,10.7,1.8c10.8,2.5,21.5,5.4,32.3,7.8c4.9,1.1,10.1,1,15,1.9c4.1,0.8,8,2.4,12.1,3.7
		C385.8,48.7,385.6,48.6,385.6,48.6z"/>
	<path d="M214.4,436.6c-2.4-7-0.2-11.8,7.4-14.3c-1.6-0.3-2.5-0.6-3.4-0.6c-1,0-1.9,0.2-2.8,0.2c-1-4.6,0.5-6,11.3-8.9
		c-1,0.9-1.9,1.8-2.9,2.7c-1.2,1.1-2.5,2.1-3.7,3.1c0.2,0.4,0.4,0.8,0.6,1.2c3.2-0.6,6.4-1.3,10.3-2c-1.2,1.7-2.4,3.2-4.4,6
		c2.8-0.9,4.2-1.5,5.8-2c2.7,3.3,5.4,6.7,8.8,11c-0.3-2.5-0.4-4-0.4-4.4c1.7-2.1,2.9-3.4,4.2-5c0.1,3.1,0.3,5.6,0.4,8.2
		c-1.7-6.4,4.3-7.2,8-9.5c-1.8,2.2-3.5,4.4-5.3,6.5c0.3,0.3,0.7,0.5,1,0.8c0.7-0.9,1.3-1.9,1.5-2c2.4,2.6,4.6,5.1,6.9,7.5
		c0.2-0.6,0.4-1.3,0.9-3c1.2,4.5,2.2,8.1,3.3,11.6c1.4,4.5-3.4,5.5-5.3,8.2c1.1-2.1,2.1-4.1,3.2-6.2c-0.2-0.2-0.4-0.4-0.7-0.6
		c-1.7,1.9-3.3,3.8-5.1,5.8c-7.5-1.9-12-7.6-16.5-13.9c-0.4,1-0.7,1.7-1.5,3.6c0-4.1,0-7,0-9.8c-0.3,0-0.5-0.1-0.8-0.1
		c-0.5,1.9-0.9,3.8-1.4,5.7c-0.2,0-0.5-0.1-0.7-0.1c-0.1-2-0.3-4.1-0.4-6.1c-0.3,0-0.6-0.1-0.9-0.1c-0.4,2.2-0.8,4.5-1.2,6.7
		c-0.3,0-0.6,0-0.9,0c0-3.6,0-7.2,0-10.7c-0.5,0-1,0-1.5-0.1c-0.4,4.7-0.9,9.3-1.3,14c-0.3,0-0.5,0-0.8-0.1c0-3.7,0-7.3,0-11
		c-0.6,0-1.1-0.1-1.7-0.1c-0.3,3.1-0.6,6.1-1.1,10.6c-0.3-4.3-0.5-7.2-0.8-10.5c-2.3,0.4-4.1,0.7-5,0.9c-1.3,2.6-2.3,4.6-3.3,6.7
		C214.2,436.5,214.4,436.6,214.4,436.6z"/>
	<path d="M325.2,72.4c0.2,0.6,0.3,1.1,0.5,1.8c-3.1-0.4-3.5-5.7-7.8-4.2c-5.5-10.9-17.5-11.5-27.5-15.6c3.4,1.8,6.9,3.7,10.3,5.5
		c-10.6-3.5-19.7-11.6-30.6-8.9c5.9,2.1,13.1,4.7,20.2,7.3c-0.2,0.8-0.4,1.6-0.6,2.4c-17.6-7.5-35.6-10.4-54.3-6.2
		c10.7-6.1,21.7-10.5,34-11.3c19.8-1.3,38.4,2,55.1,13.2c2.1,1.4,3.3,4.2,5.1,6.2c1.4,1.5,3.2,2.9,4.8,4.2c1.4,1.2,2.9,2.2,4.4,3.3
		c-0.3,0.5-0.6,0.9-0.9,1.4c-2.5-1.3-4.9-2.6-7.4-3.9l0.2,0.2c-4.1-5.3-8.1-10.8-14.7-13.2c-7.3-2.7-14.6-5.6-22.1-7.4
		c-15-3.4-30-1.9-43.8,2.4c9.9,0,20.5-0.6,31,0.2c12.1,0.9,23.9,3.5,33.4,12.2c2.7,2.4,5.5,4.7,8.3,7
		C323.6,70.2,324.4,71.3,325.2,72.4z"/>
	<path d="M540,203.1c-0.1-1.2-0.3-2.3-0.4-3.5c-4.8-21.4-9-42.9-24.7-60c0.5-0.4,1-0.8,1.5-1.2c1.9,2.6,3.8,5.2,5.6,7.9
		c0.5-0.4,0.9-0.8,1.4-1.3c-2.7-8.1-8.9-13.6-14.6-19.6c7.2,2.9,11.7,8.7,15.4,15.1c3.6,6.3,6.7,12.8,10,19.3c0.5-0.2,1-0.4,1.5-0.6
		c-2.4-7-4.9-13.9-7.3-20.8c0.6,0.3,1.4,0.8,2.3,1.2l-0.2-0.2c4.1,11.2,9.5,22.1,11.9,33.6c2.8,13.4,3,27.3,3.2,41
		C543.8,210.5,541.9,206.8,540,203.1z"/>
	<path d="M396.8,49c0.6-1,1.2-1.9,1.8-2.9c1.7,1.4,3.3,2.9,5.7,4.9c14.3-9.4,29.3-8.1,44.3,0.6c-3.3-0.5-6.5-1-9.8-1.6
		c-0.2,0.3-0.5,0.7-0.7,1c1.3,0.9,2.6,2,4,2.8c3,1.5,7.2,1.7,7,6.6h0.1c-8.3-1.9-16.5-3.9-25.9-6.1c3.5-0.8,6.5-1.4,9.4-2.1
		c0.1-0.3,0.2-0.6,0.3-0.9c-4.1-0.6-8.3-1.2-12.4-1.8c-0.1,0.3-0.2,0.6-0.3,0.9c1.2,0.7,2.3,1.3,3.5,2c-1.3,1.2-2.3,2.1-3.6,3.3
		c-6.6,2-14,4.2-21.8,6.6c2-4.3,6.6-5.3,9.1-6.8c-3.5-2.1-7.2-4.3-10.9-6.5H396.8z"/>
	<path d="M105.9,332.7c1.3,7.8,2.2,15.6,3.9,23.3c0.8,3.7,2.8,7.3,4.3,10.8c0.5,1.1,1.3,2,1.8,3c4.5,9.1,8.8,18.4,13.6,27.3
		c1.3,2.5,3.7,5,6.2,6.1c2,0.9,5-0.2,8.4-0.6c-1.8,2.5-3.3,6.6-5.8,7.4c-2.3,0.8-6.4-1.4-8.5-3.4c-2.3-2.3-3.4-5.9-4.9-8.9
		c-0.4-0.9-0.6-1.9-1-2.8c-4.8-9.7-9.7-19.4-14.5-29.1c-0.3-0.6-0.7-1.2-0.8-1.8c-1.3-10.4-2.6-20.8-3.8-31.2
		C105,332.9,105.5,332.8,105.9,332.7z"/>
	<path d="M397,26.3c-3-2.2-4.8-3.4-6.5-4.7c0.2-0.3,0.5-0.7,0.7-1c4.6,2.3,9.3,4.7,13.9,6.9c2.4,1.1,4.8,2.3,7.3,2.9
		c3.2,0.8,3.5,2.3,2,4.9c-8-1.6-15.9-3.5-23.9-4.6c-8.2-1.1-16.5-1.3-24.7-2.2c-2.2-0.3-5.9,0.9-6-3.5c0-0.1-0.6-0.2-0.9-0.3
		c-8.7-1.1-17.6-4.5-25.9,1.7c0.9-3.8,3.1-5.7,8.3-5.6c5.9,0.1,11.9,0.7,17.8,1.7c10.6,1.7,21.2,4,31.8,5.8
		C392.5,28.5,394.1,27.3,397,26.3z"/>
	<path d="M437.1,286.8c3.7-3.3,7.4-6.5,10.9-9.9c0.7-0.6,0.6-2.2,0.7-3.3c0.4-15.3,1.2-30.6,0.9-45.9c-0.3-11.4-2.1-22.8-3.2-34.2
		c-0.1-1.4-0.4-2.9-0.2-4.3c9.3,30.9,2.4,62.4,4.2,93.7c-0.4,0-0.9,0.1-1.3,0.1c-0.1-0.5-0.2-1-0.3-1.6c-0.1-0.5-0.2-0.9-0.5-2
		c-5.4,3.8-8.9,10.7-17.2,9.3c3-3.6,6.2-6.8,8.7-10.4c1.3-1.9,2.3-4.4,2.5-6.7c2.4-24.6,2.1-49.2-2.4-73.6c-0.2-1-0.1-2,0.6-3
		c0.7,4.3,1.5,8.7,2.2,13c0.7,4.4,1.9,8.9,1.9,13.3c-0.1,17.9-0.2,35.9-1.2,53.8c-0.2,3.8-4.4,7.4-6.8,11.2
		C436.8,286.5,436.9,286.7,437.1,286.8z"/>
	<path d="M244.1,5c1.7-0.7,3.3-1.8,5.1-2.1c10.7-2,21.4-2.1,32.2-0.7c0.9,0.1,1.9-0.7,2.9-1.1s2-1.1,3-1.1
		c7.9,0.2,15.8,0.1,23.6,0.8c5.7,0.6,11.4,2.1,16.9,3.6c1.4,0.4,2.4,2.6,3.3,4.3c-3.2-0.9-8,2-8.8-3.9c0-0.1-0.6-0.2-0.9-0.3
		c-10.8-0.8-21.6-1.7-32.5-1.9c8.5,2.7,17.4,3.7,24.6,9.6C290.7,6.1,267.8,1.4,244.1,5L244.1,5z"/>
	<path d="M264.9,10.8c-4.4,1-7.5,1.6-9.7,2.1c9.6,1.6,20,3.2,30.3,4.9c-0.1,0.5-0.1,1-0.2,1.5c-11.9-0.5-23.8-1.6-35.7-1.3
		c-11.9,0.3-22.8,5.2-34.5,10.8C218.8,20.3,251.5,8.8,264.9,10.8z"/>
	<path d="M489.9,80.7c-0.1,1.2-0.2,2.4-0.3,3.7c-0.3,0-0.5,0-0.8,0c-0.7-3.5-1.4-6.9-2.2-10.9c1.2,0.2,2.1,0.4,3.7,0.7
		C486,65,481,57.4,472.6,52.4c-1.3-0.8-1.8-2.7-2.9-3.9c-1-1.1-2.3-1.9-3.5-2.9c-0.8-0.6-1.9-1.1-2.4-1.9c-1.1-1.8-1.9-3.7-3.3-6.5
		c5.1,2.1,7.9,5.7,10.9,9.3c1.4,1.6,2.7,3.3,4.4,4.4c13.2,8.8,19.9,21.3,21.6,36.9c0.1,1.1,0.1,2.3,0.3,3.4c1,4.7,1,4.7-3.1,7.7
		c-1-6.1-1.9-12.2-2.9-18.4C491.1,80.6,490.5,80.6,489.9,80.7z"/>
	<path d="M460.2,315.1c0,22.3-0.1,44.5,0.1,66.8c0,3.6,1.2,7.1,1.8,10.9c-0.4,0-1.2-0.1-2.3-0.2c0,8.9,0,17.6,0,26.8
		c-1-0.4-1.8-0.7-3.6-1.4c1.9,4.2,3.4,7.7,5,11.2c-0.5,0.3-1,0.6-1.5,0.9c-1.2-1.6-2.3-3.2-3.5-4.7c-0.3,0.2-0.6,0.4-0.9,0.5
		c3.2,5.1,6.4,10.2,9.7,15.4c-0.2,0.3-0.4,0.6-0.6,0.9c-1.7-1.3-4.2-2.2-5-3.9c-5.3-10.4-5.1-11.4-3.2-24.1c0.8-5.4,2.1-11-0.6-15.3
		c1.1-2.5,2.5-4.4,2.5-6.2c0.3-15.3,0.5-30.6,0.6-45.9c0-9.8-0.3-19.6-0.4-29.4c0-0.8,0.3-1.5,0.4-2.3
		C459.2,315.1,459.7,315.1,460.2,315.1z"/>
	<path d="M479.3,141.2c12.9,3.5,27,30.1,29.4,55c-0.8-1.2-1.2-1.8-2-3c0.3,2.9,0.5,5,0.8,7.2c-4.3-10.3-3.3-22.5-14-30.4
		c1.6,4.4,3.1,8.3,4.5,12.3c-0.1,0-0.3,0.1-0.4,0.1c-6.3-9.4-12.5-18.7-19.2-28.7c9.6,4.9,12.6,16.6,22.2,20
		C498.9,160.1,489.5,150.5,479.3,141.2z"/>
	<path d="M146.9,67.2c-0.5,0.3-1,0.7-1.4,0.9c6,1.6,12,3.2,19.3,5.2c-2.1,1.2-3.1,2.2-4.1,2.2c-5.7,0.3-11.5,0.4-17.2,0.5
		c-2.6,0-5.9,1.4-6.9-2.9c-0.1-0.4-2-0.4-2.4-0.5c-0.3,1.4-0.3,3.3-0.7,3.4c-9,2.1-14.7,8.6-20.2,15.9
		C113.8,81.1,135.2,65.7,146.9,67.2z"/>
	<path d="M185.7,420.8c-0.5-4.2-0.9-8.4-1.4-12.6c-0.4-0.2-0.8-0.4-1.2-0.7c-0.5,1.1-1.5,2.2-1.5,3.2c0.2,5.1,0.7,10.2,1.1,15.4
		c-0.5,0-1,0.1-1.5,0.1c-1-12.7-1.9-25.4-2.9-38.2c0.4,0,0.8-0.1,1.1-0.1c0.5,4.3,0.9,8.7,1.5,14c6.1-6.6,0.1-15,3.9-21.2
		c0.5,0,1,0.1,1.5,0.1c0,5.2,0,10.4,0,15.7c0.5,0,1,0,1.6,0c0-4.7,0-9.4,0-14.2c0.3,0,0.5-0.1,0.8-0.1c0.5,4,0.9,8,1.4,12
		c0.4,0,0.8,0,1.2,0c0-6,0-12,0-19.1c1.2,7.2,2.2,13.2,3.1,19.3c0.1,0.9-0.8,2-1.4,3c-0.8,1.4-2.4,2.7-2.6,4.2
		C189.7,408.2,183,413.4,185.7,420.8z"/>
	<path d="M418.9,19.7c-4.7-2.2-9.3-4.8-14.2-6.5c-10.1-3.6-20.4-5-31.3-2.8c-7.6,1.5-15.6,0.7-23.4,0.9c-0.5,0-1.4,0.1-1.4-0.1
		c-2.4-6.8-9.2-4.2-13.7-6.5c-0.4-0.2-0.6-0.7-1.6-2c5.2,0.7,9.6,0.8,13.8,1.8c11.2,2.8,22.5,3.6,34,2.5c13-1.2,24.9,2.9,36,9.7
		c0.9,0.6,1.7,1.4,2.5,2C419.4,19,419.1,19.3,418.9,19.7z"/>
	<path d="M423.3,370.7c-0.6,11.1-1.1,22.2-1.9,33.3c-0.3,4.8-0.8,9.6-1.6,14.3c-0.3,1.6-1.6,3-2.4,4.6c-1-0.6-1.2-0.6-1.3-0.8
		c-6.2-5.2-7-11.9-6.2-19.6c0.9-9.2,1.1-18.6,1.6-27.9c0.1-1,0.3-1.9,0.8-2.8c0,13.8,0,27.6,0,41.5c0.6,0,1.1,0,1.7,0
		c0.7-15.6,1.5-31.1,2.2-47.3c0,12.2,0,23.8,0,35.4c0,3.7-0.5,7.3-0.4,11c0.1,2.3,0.9,4.5,1.4,6.7c0.5,0,1.1-0.1,1.6-0.1
		c1.2-16.1,2.3-32.2,3.5-48.3C422.5,370.7,422.9,370.7,423.3,370.7z"/>
	<path d="M433.9,428.6c-0.4,1.9-0.6,3.8-1.1,5.7c-1.5,5.8-3.2,11.5-4.7,17.3c-0.5,1.8-0.5,3.7-0.7,5.5l0.1-0.1
		c-1.8,1-3.5,1.9-6.1,3.4c2.3-6,5.2-11.2,6.2-16.6c1.5-8.5,1.6-17.2,2.6-25.8c0.3-2.9,1.7-5.7,1.8-8.5c0.8-15.2,1.4-30.4,2-45.6
		l-0.1,0.1c0.7,4,2.1,8.1,1.9,12.1c-0.5,12.2-1.9,24.5-2.5,36.7c-0.2,4,1,8,1.6,12.1C434.5,426.1,434.2,427.3,433.9,428.6z"/>
	<path d="M205.7,433.7c2.4-3.3,2.2-7.3,2.8-11.1c0.2-1.3,1.5-2.5,2.5-4c4.1,4.3,1.8,8.1,0.6,11.9c-0.9,2.9-1.5,5.6,2.7,6l-0.2-0.1
		c3.1,2.2,3.4,4.6,1.3,7.9c-2.1,3.4-3.7,7.2-5.3,10.9c-0.9,1.9-1.1,4.9-4.1,3c-2.6-1.6-7.3-2.2-4.9-7.2c0.3-0.7,1-1.3,1.7-2.1
		c1.3,1.9,2.4,3.7,4,6c0.6-4,1.1-7.5,1.6-10.9c0.4,0,0.9,0,1.3,0c-1.4-3.5-2.8-7-4.1-10.4L205.7,433.7z"/>
	<path d="M132.9,210.3c-1,2.3-2.1,4.6-3.1,6.9c-0.7,1.4-1.5,2.7-2.2,4.1c-0.5-0.1-1-0.1-1.5-0.2c0.3-3.5,0.5-7.1,0.8-10.6
		c4.7-12.9,13-23.5,21.8-33.8c2-0.9,4-1.8,7.1-3.2c-5.3,5.9-10,10.6-14,15.9c-3.9,5.2-7,10.9-9.8,16.8c6-8,12-16.1,18.1-24.1
		c0.3,0.2,0.6,0.5,0.9,0.7C144.9,192.1,138.9,201.2,132.9,210.3z"/>
	<path d="M464.5,128.1c6.2-2.1,12.3-4.4,18.6-6.2c4.4-1.3,12.9,4.8,14.3,10c-3.2-2.4-6.4-4.8-9.5-7.2c-0.4,0.5-0.8,1-1.2,1.5
		c3.3,2.8,6.6,5.7,10.6,9.1c-8.4-2.9-15.9-5.4-23.3-8c3.2,4,8.7,5.4,10.4,11.4C477.1,134.8,470.6,131.3,464.5,128.1z"/>
	<path d="M294.4,480.4c-0.7,1.6-1.4,3.2-2.1,4.8c-4.9-1.1-5.1-4.3-4.2-8.5c-2.2,3.5-4.5,7.1-6.7,10.6c-1.8-4.1,0.6-9.2,7.8-16.2
		c-4.8-0.8-9.1-1.5-13.4-2.3c0-0.6,0.1-1.2,0.1-1.8c2.1,0,4.2-0.1,6.3,0c6.9,0.3,13.9,0.7,20.8,0.8c1.2,0,2.5-1.3,3.9-2.1
		c2,3.3-0.4,4.6-3.7,4.9c-3.8,0.3-7.6,0.1-10.4,0.1C293.4,474.2,293.9,477.4,294.4,480.4L294.4,480.4z"/>
	<path d="M145.8,375.8c-2.8,3.7-5.7,7.5-8.2,10.8c-1.3-6.8,3.6-15.2,10.2-16.7c0.8-0.2,2.1,0.2,2.6,0.8c0.5,0.6,0.5,1.9,0.2,2.6
		c-0.9,2-2.1,3.9-3.8,6.8c2.4-0.4,3.4-0.6,4.7-0.8c-0.4,1.4-0.8,2.9-1.4,5.2c1.8-1.2,3-2,4.8-3.2c-0.7,5.6-3.6,6.7-7.5,6
		c-2,4.5-4,8.9-6.1,13.3c-0.1,0.3-1.5,0-3.3,0c3.5-6.1,6.6-11.6,9.7-17.1c-0.2-0.3-0.5-0.6-0.7-0.8c-2,1.5-4.1,3-6.1,4.5
		c-0.3-0.2-0.5-0.3-0.8-0.5c2.3-3.3,4.5-6.6,6.8-10C146.6,376.5,146.2,376.2,145.8,375.8z"/>
	<path d="M450.8,336.2c6.6,36.6,2,72.7-4.3,108.7C450.7,408.8,455.6,372.7,450.8,336.2z"/>
	<path d="M272.4,482.2c-1.1,2-2.1,4-3.3,6c2.1,0.6,4,1.1,7,1.9c-1.4,3.3-3,7-4.5,10.7c-0.4,0-0.8,0-1.2,0c-0.4-1.4-0.8-2.8-1.2-4.3
		c-3,0.4-3,0.4-1-6.3c-1,0.6-1.6,1-2.1,1.4s-0.9,0.8-1.9,1.7c-0.5-2-0.9-3.4-1.3-4.9c-0.3,0-0.6,0-0.9,0.1c0.2,2.2,0.5,4.4,0.7,6.6
		c-0.5,0.2-1,0.4-1.5,0.6c-1.2-2.6-2.5-5.2-3.4-7.9c-0.2-0.7,0.9-2.6,1.5-2.6c3.6-0.3,7.2-0.1,9.8-3.4
		C269.6,481.4,271.4,482.1,272.4,482.2L272.4,482.2z"/>
	<path d="M429.6,30.4c0.7,1.2,1.5,2.4,2.6,4.2c-7.3-4.5-13.9-8.6-20.6-12.7c-9.5-5.8-19.3-10.4-31-6.6c-0.1-0.6-0.2-1.1-0.3-1.7
		c1.9-0.6,3.8-1.5,5.7-1.7c11-1.4,20.4,2.9,29.3,8.8c3.2,2.1,6.4,4.1,9.5,6.1C426.4,28,428,29.2,429.6,30.4z"/>
	<path d="M530.8,139.8c-5.7-6.8-11.3-13.7-17-20.5c-1.3-1.6-2.7-3.1-3.9-4.8c15.9,11.5,39.3,39.3,33.2,51.5
		c-1.9-10.3-4.3-19.8-12.5-26.3C530.6,139.6,530.8,139.8,530.8,139.8z"/>
	<path d="M429.6,30.4c-1.6-1.2-3.2-2.4-4.8-3.7c0.9-0.4,2-1.4,2.8-1.2c6.4,1.7,12.7,3.6,19,5.6c3.3,1,6.4,2.2,10.5,3.6
		c-1.6,0.7-2.4,1-4.5,1.9c2.7,2.1,4.9,3.8,7.3,5.7c-3.1,1.8-3,1.7-5.8-2.2c-1.4-2-3.1-3.8-5.4-5.2c0.1,0.8,0.2,1.6,0.4,3.2
		c-3.1-1.6-5.8-3-9-4.7c-0.2,0.6-0.5,1.3-0.9,2.3C436.1,34,432.9,32.2,429.6,30.4z"/>
	<path d="M325.2,72.4c-0.8-1.1-1.5-2.2-2.3-3.3c-4.4-4.9-8.7-9.8-13.1-14.7c0.3-0.3,0.5-0.6,0.8-1c2.3,1.5,4.6,3,6.8,4.6
		c4.5,3.2,9,6.6,13.5,9.8l-0.2-0.2c1.6,2.1,3.3,4.2,4.9,6.2c-0.2,0.3-0.5,0.5-0.7,0.8c-2.5-1.9-5-3.8-8.4-6.4
		c3.2,5.7,5.8,10.4,8.4,15c-0.2,0.1-0.5,0.3-0.7,0.4C331.2,79.9,328.2,76.2,325.2,72.4z"/>
	<path d="M447,351c5.5,29.8-0.1,58.7-6.4,87.5C445.4,409.6,450.4,380.6,447,351z"/>
	<path d="M106.9,124.1c3.5-3.2,7-6.4,10.6-9.5c2.2-1.9,4.5-3.7,6.7-5.5c0.3,0.3,0.5,0.7,0.8,1c-3.9,5-7.6,10.3-11.8,15.1
		c-3.6,4.1-7.6,7.9-12.1,12.3c-2-0.5-2.2-0.7-0.7-3.3c2-3.5,4.3-6.9,6.5-10.4V124.1z"/>
	<path d="M384.3,520.3c1.8,3.1,3.6,6.2,5.6,9.5c-5.5,3.8-7-2.8-11-3c0.4,1.4,0.8,2.8,1.2,4.2c-6.5-4.8-5.7-12.8-8.7-19.2
		c3.4,3.8,6.8,7.7,10.2,11.6C382.8,522.1,383.6,521.2,384.3,520.3C384.4,520.3,384.3,520.3,384.3,520.3z"/>
	<path d="M167.2,470.1c-1.7,0-3.3,0-5.3,0c0.2-0.7,0.4-1.7,0.6-2.9c-1.6,1.3-3,2.3-5.6,4.4c-0.8-3.9-1.4-6.8-2.1-10.1
		c-0.7,0-1.8,0.1-2.9,0.2c-0.1-0.4-0.2-0.7-0.3-1.1c4.2-1.2,8.3-2.3,11.9-3.3c1,2.3,1.9,3.6,2.1,5c0.2,1.3-0.5,2.7-0.9,4.5
		c1.4-0.6,2.6-1.1,5-2.1c-1.2,2.5-2,3.9-2.7,5.4H167.2z"/>
	<path d="M366.9,540c-0.5-0.3-1-0.6-1.6-1c-1.7,0.6-3.5,1.2-5.9,2c2.1-7,0.4-13.8-1.3-20.7c6.9-0.8,7.7,0.6,6,6.6
		c-0.5,1.9,1.4,4.5,2.5,6.7c1,2.1,2.3,4.1,4.1,7.2C368.6,540.4,367.7,540.2,366.9,540z"/>
	<path d="M433.9,428.6c0.3-1.3,0.6-2.5,0.9-3.8c4.9-21.6,7.9-43.4,5.5-65.6c-0.2-2.1-0.3-4.3-0.6-7.3c5.8,14.8,1.8,67.5-6,79.6
		C433.8,430,433.8,429.3,433.9,428.6z"/>
	<path d="M498.6,147c8.6,14.4,16.3,29.1,15.3,45.8C509,178,503.8,162.5,498.6,147z"/>
	<path d="M189.6,17.4c3.1-4.5,36.4-9.5,42.5-5.8C217.8,13.5,203.7,15.4,189.6,17.4z"/>
	<path d="M375.5,30.6c11.7,1.9,24.4-0.3,34.1,10.2c-3.4-0.2-6.8,1-8.9-2.9c-0.4-0.7-1.8-1-2.8-1.2c-6.4-1-12.8-1.9-19.1-3
		c-1.3-0.2-2.5-1.2-3.8-1.8C375.1,31.5,375.3,31,375.5,30.6z"/>
	<path d="M431.3,279.3c-0.6-23.2-1.1-46.3-1.7-68.4C434,232.9,433,256.2,431.3,279.3z"/>
	<path d="M333.3,479.4c0.3-2.1,0.6-4.1,1-6.2c0.5,0.1,1,0.1,1.5,0.2c0.1,1.6,0.2,3.1,0.4,5c0.9-0.9,1.7-1.6,3-2.8
		c0.4,2.8,0.3,5.2,1.2,7.1c0.3,0.7,2.7,0.6,4.1,0.8c0.2-0.5,0.5-0.9,0.7-1.4c1.8,2.8,3.6,5.7,5.6,8.9c-3.6,0-6,0-9.4,0
		c0.1,0.3-0.5-0.7-0.4-1.7c0.2-2.9-1-4.4-3.7-5.6C335.5,483,334.5,480.8,333.3,479.4L333.3,479.4z"/>
	<path d="M118.8,355.5c-4.2-3.7-6.3-8.3-6.9-13.5c-1.1-9.1-1.9-18.2-2.7-26.9C116.6,327,111.8,342.7,118.8,355.5z"/>
	<path d="M527.2,191.6c-5.8-14.7-11.9-30.1-18.2-46.1C518.6,160,525.8,174.9,527.2,191.6z"/>
	<path d="M144.6,64.9c1.4-1.1,2.4-2.4,3.6-2.8c4.1-1.2,8.3-2.6,12.6-3c9.2-1,18.6-1.5,27.8-2.1c0.6,0,1.2,0.2,3,0.6
		C175.4,60.1,160.4,62.4,144.6,64.9z"/>
	<path d="M102.1,122.2c2.3-5,3.6-10.7,7-14.8c3.9-4.8,9.6-8.1,15.2-11.3c-7.3,8.8-14.5,17.5-21.8,26.3
		C102.3,122.3,102.2,122.2,102.1,122.2z"/>
	<path d="M202.8,460.5c-2,3.5-3.3,8.6-6.3,10c-4.6,2.2-8.3,5.3-12.5,8c-1.1,0.7-3.2,0.4-4.6-0.1c-0.5-0.2-0.2-2.4-0.2-3.7
		c1.6,0.1,3.2,0.2,6.1,0.5c4.7-4.6,10.4-10,16.1-15.5C201.9,459.9,202.3,460.2,202.8,460.5z"/>
	<path d="M330.2,493.9c-3.8-5.6,2.6-6.8,3.9-11.1c4.9,8.3,6.1,15.9,4.7,24c-0.6,0.1-1.1,0.1-1.6,0.2c-0.2-3.5-0.4-7.1-0.6-11.6
		c-0.2-0.3-1.3-1.6-2.5-3.2c-0.2,1-0.3,2-0.5,3c-1.1-0.5-2.3-0.9-3.4-1.4C330,493.8,330.2,493.9,330.2,493.9z"/>
	<path d="M333.2,479.3c-1.6,2.1-3.1,4.2-4.7,6.3l0.1,0.1c0-1.7-0.1-3.5,0.2-5.2c0.5-3.5,0.1-6.4-4.1-7.4c-0.6,1.6-1.1,3.1-1.6,4.5
		c-0.5-0.1-1-0.2-1.5-0.3c0.6-4.5,1.1-9,1.7-13.5c1.6,2.5-1.5,6.5,3.9,7.4c0.2-3.1,0.3-6,0.5-8.9c0.4,0,0.8,0,1.2,0
		c0,3.9,0,7.9,0,11.8c0.5,0,0.9,0,1.4,0.1c0.5-4.2,1.1-8.3,1.6-12.5c0.4,0,0.8,0.1,1.2,0.1c-0.4,4.7-0.9,9.4-1.2,14.2
		C331.9,477.1,332.8,478.2,333.2,479.3C333.3,479.4,333.2,479.3,333.2,479.3z"/>
	<path d="M133.4,232.9c-0.2,0.2-0.4,0.5-0.6,0.7c-0.7-0.6-1.4-1.2-2.1-1.8c0.3-0.6,0.6-1.2,0.9-1.9c3.6-4.8,7.1-9.5,10.7-14.3
		c2.7-3.7,5.9-6.6,11.8-6.5c-5.8,5.8-11.3,11-16.5,16.6C135.9,227.8,134.8,230.5,133.4,232.9z"/>
	<path d="M179.3,495.9c-1.9-4.2-3.5-8.1-5.6-11.8c-0.4-0.7-2.3-0.9-3.4-0.9c-1.3,0-2.7,0.6-4,0.9c-0.2-0.6-0.5-1.1-0.7-1.7
		c3.4-1.9,6.9-3.8,9.8-5.4c1.4,4.1,2.7,7.9,4,11.8c0.1,0.4,0.2,1,0.6,1.2C184.7,492.9,184.7,492.8,179.3,495.9z"/>
	<path d="M159.4,142.6c-5.3,5-12.1,10.7-18,17.3S130.5,174,125.2,181C126.6,170.1,150.6,144.2,159.4,142.6z"/>
	<path d="M219.7,546.7c-3.9,3.4-7.2-0.2-9.7-1.8c-2.9-1.9-4.4-6-8.9-5.3c0-1.4,0-2.9,0-4.3c-1.4-1.3-3.1-2.9-4.7-4.4
		c0.3-0.5,0.6-0.9,1-1.4c1.9,0.2,3.8,0.4,5.7,0.6c-0.3,0.3-0.6,0.6-1,0.9c0.9,1.6,1.8,3.3,2.6,4.9l-0.2-0.2c3.2,2.3,4.9,7,10.1,6.1
		c0.6-0.1,1.5,1.8,2.3,2.7c0.9,0.9,1.9,1.6,2.9,2.3L219.7,546.7z"/>
	<path d="M435.1,201c4.7,23.9,4.3,48,2.3,72.8c0-8.5,0.1-16.4,0-24.3c-0.1-8.1-0.2-16.3-0.6-24.4C436.4,217.1,435.7,209,435.1,201z"
		/>
	<path d="M367.9,503.2c-8.8-6.3-12.6-17.5-8.8-24.1c1-1.8,2-6.1,6.9-3.9c-4.9,4.1-6.7,9.3-5.1,14.6
		C362.4,494.6,365.5,498.8,367.9,503.2z"/>
	<path d="M494.1,185.9c-7-12.9-14.6-25.5-25.5-35.7C480.2,159.9,490.6,170.5,494.1,185.9z"/>
	<path d="M450.5,325.5c-3.1-7,0.1-16.8-12.3-17.9c4.3-2.5,14.4-0.7,18.4,3.1c-1.4,0.4-2.5,0.8-3.8,1.2c0.5,4.6,1.1,9.2,1.7,13.9
		c-3.3-4.8-0.3-11.7-6.4-16.8C448.9,315.3,449.7,320.4,450.5,325.5z"/>
	<path d="M93.5,151.9c7.6-7.9,15.2-15.7,22.8-23.6c0.3,0.2,0.6,0.4,0.9,0.6c-2.9,3.8-5.8,7.6-8.7,11.4c-2.4,3.2-4.4,6.7-7.2,9.4
		c-1.7,1.7-4.6,2.3-6.9,3.3C94.1,152.7,93.8,152.3,93.5,151.9z"/>
	<path d="M253.5,208.9c2.6,0.3,5.4,0.3,7.9,1c8.8,2.6,17.4,4.4,26.8,3.2c7.2-1,14.9,1,22.4,1.7c-0.1,0.7-0.2,1.4-0.2,2.1
		c-1.8-0.3-3.6-0.4-5.4-0.9c-6.6-1.9-13.1-2.3-20.1-1.1c-5.3,0.9-11.1-0.6-16.6-1.5c-5-0.8-9.9-2.2-14.9-3.3
		C253.5,209.6,253.5,209.2,253.5,208.9z"/>
	<path d="M427,356.4c3.8,19.8,1.8,57.5-3.5,64.7C427.5,399.5,428.7,378.1,427,356.4z"/>
	<path d="M494.1,213.1c-1.5,2.6-2.8,2.3-4-0.3c-3.5-8.1-7-16.2-9.9-25.1c1.1,1.2,2.7,2.1,3.4,3.5c2.7,5.6,5.1,11.4,7.8,17.1
		c0.8,1.7,1.9,3.3,2.9,5C494.2,213.2,494.1,213.1,494.1,213.1z"/>
	<path d="M126.5,187.5c7.2-15,17.9-26.9,31.7-36.1C145.6,161.7,135.3,173.9,126.5,187.5z"/>
	<path d="M251.3,22c-11.2,3.4-22.3,7.1-33.6,10.1c-4,1.1-8.4,0.5-12.6,0.7c0-0.4,0-0.9-0.1-1.3c1-0.1,1.9-0.2,2.9-0.2
		c6.3,0.1,12.3-1.1,18.3-3.5c7.9-3.2,16.3-4.9,24.6-7.3C251,21.1,251.1,21.5,251.3,22z"/>
	<path d="M112.8,162.5c-6.6,11.8-13.2,23.6-19.5,34.9C91.4,192.6,102.2,176.4,112.8,162.5z"/>
	<path d="M349.8,211.5c-6.8,1.7-13.6,3.9-20.5,5.1c-4.7,0.8-9.7,0.2-14.5,0.2c0-0.6-0.1-1.2-0.1-1.8c11.7-1.4,23.3-2.7,35-4.1
		C349.7,211.1,349.7,211.3,349.8,211.5z"/>
	<path d="M119.1,165.4c0.6-7.7,10.5-22.1,20.7-30.2C132.6,145.7,126.1,155.2,119.1,165.4z"/>
	<path d="M131.7,230c-0.3,0.6-0.6,1.2-0.9,1.9c-0.8,1.5-1.7,3.1-2.5,4.6c-0.3-0.1-0.5-0.2-0.8-0.3c0.1-1.9,0.3-3.8,0.4-5.6l-0.2,0.2
		c5.1-7.8,10.2-15.8,15.5-23.5c1.6-2.3,3.7-4.2,5.9-6.5C143.1,210.8,137.4,220.4,131.7,230z"/>
	<path d="M432.4,77.1c-9.3-1.7-18.6-3.4-27.7-5C407.5,67.9,424.8,70.8,432.4,77.1z"/>
	<path d="M245.9,57.3c13.2-5.1,25.6-2.6,37.5,4.2C271.2,57.7,258.9,54.5,245.9,57.3z"/>
	<path d="M222.1,190.8c11.3,0,22.5,0,33.8,0C244.7,197.2,233.5,190.9,222.1,190.8z"/>
	<path d="M398.8,67.4c3.3-5.3,19.8-9.9,29.1-7.7C417.6,62.5,408.2,64.9,398.8,67.4z"/>
	<path d="M180,466.7c-0.8-1.3-1.6-2.6-2.6-4.3c-1,1.2-1.7,2.1-2.5,3.1c-0.3-0.2-0.6-0.4-0.8-0.5c4-6.8,7.9-13.5,12.1-20.6
		c0.6,0.8,0.9,1.1,0.9,1.2c-1.8,3.5-5,6.8-5.2,10.4C181.5,459.6,183.3,463.3,180,466.7z"/>
	<path d="M481.4,350.2c-3-6.4-6.1-12.9-9.1-19.3c0.4-0.2,0.8-0.4,1.3-0.6c0.6,1.1,1.1,2.1,2.1,4c0-3.8,0.2-6.9-0.1-9.9
		c-0.3-3.1-1.1-6.1-1.8-9.2c0.5-0.1,1-0.2,1.5-0.3c0.6,3.3,1.3,6.6,1.9,9.9s1,6.7,1.5,10C479.6,339.9,480.5,345.1,481.4,350.2
		C481.3,350.3,481.4,350.2,481.4,350.2z"/>
	<path d="M197.9,402.7c0.6-1.7,1.7-3.4,1.7-5.2c0.2-7.9,0.1-15.9,0.1-23.8c0.5,0,0.9,0,1.4,0c0,8.8,0,17.7,0,26.5c0.5,0,0.9,0,1.4,0
		c0-8.2,0-16.5,0-24.7c0.3,0,0.6,0,0.9,0c0,8.7,0.2,17.5-0.2,26.2c-0.1,1.6-3.1,3-5.2,5c0-2,0-3.1,0-4.2L197.9,402.7z"/>
	<path d="M139.5,349.4c1.8-1.9,3.5-3.9,5.3-5.8c-0.2-0.3-0.5-0.5-0.7-0.8c-1.1,0.7-2.3,1.3-3.7,2.1c0.5-4.4,5.7-9.1,10.8-9.5
		c-1.7,1.2-2.7,1.9-4.3,3.1c1.9,0.1,3.2,0.2,5.2,0.3c-1.8,1.3-3,2.1-4.3,3c0.7,0.8,1.3,1.4,1.8,2c-3.1,2.4-5.9,4.7-8.8,6.9
		C140.4,350.4,140,349.9,139.5,349.4z"/>
	<path d="M168.7,32.7c-0.9,0-1.9,0-3,0c3.2-4.5,20.5-7.4,33.7-5.2c-5.8,0.7-11.7,1.3-17.5,2.2c-4.5,0.7-8.9,2-13.3,3
		C168.6,32.8,168.7,32.7,168.7,32.7z"/>
	<path d="M439.7,468.3c-2.1,0.1-3.8,0.2-5.5,0.2c-3.5-9.2-4.3-7.5,7.2-13.7c0.3,0.3,0.7,0.7,1,1c-1.5,1.4-4,2.7-4.2,4.3
		C437.9,462.7,439.1,465.4,439.7,468.3z"/>
	<path d="M144.7,415c1-0.8,2-1.5,2.9-2.2c1.8,2.2,3.5,4.1,5.8,6.9c0.4-1.8,0.7-3.3,1-4.8c0.6,0.6,1.1,1.1,1.7,1.7
		c-0.7,2.7-6.2,7.1-8,5.9c-2.1-1.4-6.4-1.3-5.4-5.8C143.4,416.2,144.1,415.6,144.7,415z"/>
	<path d="M440.8,310.7c0.8,2.7,1.7,5.3,2.3,8c0.6,2.5,1,5.2,1.4,7.5c-7.3-4.2-14.7-8.4-22.8-12.9c8.5,0.4,14.2,5.5,21,10.1
		c-1.1-4.7-2-8.6-2.9-12.5C440.2,310.8,440.5,310.7,440.8,310.7z"/>
	<path d="M275.6,498c0.7-2.1,1.5-4.7,2.3-7.2c0.5-0.2,1-0.5,1.5-0.7c0.2,1.4,0.4,2.9,0.5,4.3c0.5-0.5,0.9-1,1.4-1.5
		c0.7-1.6,1.5-3.1,2.2-4.7c0.4,0.2,0.7,0.3,1.1,0.5c-0.5,4-0.9,7.9-1.5,12.4C280.1,499.8,278.2,499.1,275.6,498z"/>
	<path d="M248.3,67.4c-3.7-2.7-7.4-5.4-10.9-7.9c4.6-1.4,14.9,1.2,17.8,5.3c-2.3-0.3-4.1-0.6-6.6-1c1.2,1.5,1.9,2.4,2.9,3.6
		C250.3,67.3,249.3,67.3,248.3,67.4L248.3,67.4z"/>
	<path d="M408.8,450.8c-0.3-1.9-0.8-3.8-1-5.8c-0.2-2.5,0.3-4.5-2.1-6.9c-1.6-1.6-0.3-6.2,0.4-9.5c2,2.4,4.4,3.8,2.5,8
		c-1.2,2.6,1.4,7.1,2.4,10.7C411.5,449.3,412,451.2,408.8,450.8L408.8,450.8z"/>
	<path d="M333.2,57.5c-11-5.4-21.2-10.4-30.5-14.9C313.8,43.4,323.8,48.9,333.2,57.5z"/>
	<path d="M307.9,477.1c-1.6,1.6-3.2,3.2-4.8,4.7c0.8,0.8,1.6,1.6,2.4,2.5c-4-1.4-4.1-1.7-3.6-10c1,0.8,1.8,1.5,2.6,2.1
		c0.7-0.9,1.5-1.8,2.9-3.4c1.3,2.3,2.3,4.1,3.3,5.9C309.8,478.2,308.8,477.6,307.9,477.1z"/>
	<path d="M248.8,554.8c3.3-2.1,6.6-4.3,9.9-6.4c1.7,6.2,1.1,7.4-7.3,11.9c1.5-2.5,2.3-3.8,2.6-4.4c-1.8,0-4,0-6.3,0
		C248.1,555.5,248.4,555.1,248.8,554.8z"/>
	<path d="M381,445.6c1.2,0.1,2.3,0.2,3.5,0.3c-0.5,1.1-0.9,2.3-1.5,3.3c-2.2,3.6-4.4,7.1-7.4,11.8c-0.9-3.1-1.4-4.9-1.9-6.7
		c0.3-0.2,0.7-0.3,1-0.5c0.6,0.5,1.2,1.1,2.4,2c0-3,0-5.5,0-8c1.3-0.8,2.7-1.6,4.1-2.5C381.2,445.5,381,445.6,381,445.6z"/>
	<path d="M195.6,514c2.2-0.5,4.5-1.3,6.7-1.4c0.8-0.1,1.7,1.3,3.2,2.5c0.8-0.1,2.8-0.2,4.7-0.3c0.1,0.5,0.2,1,0.3,1.5
		c-4.2,1.4-8.3,2.7-12.1,3.9c-1.1-2.5-1.9-4.4-2.6-6.2C195.7,513.8,195.6,514,195.6,514z"/>
	<path d="M434,85c-8.3-0.1-14.9-4.5-21.8-8.3c0.2-0.6,0.4-1.2,0.6-1.7c7.1,2.9,14.3,5.8,21.4,8.7C434.2,84.1,434.1,84.5,434,85z"/>
	<path d="M171.1,390c1.7,16.2,3.3,32.4,5,48.7c-0.4,0-0.9,0.1-1.3,0.1c-1.6-16.2-3.2-32.5-4.7-48.7C170.4,390,170.8,390,171.1,390z"
		/>
	<path d="M212.7,55.8c2.6-0.5,5.1-1.3,7.7-1.4c2.6-0.1,5.3,0.5,7.9,0.8c-0.1,0.8-0.2,1.6-0.3,2.4c-2.9-0.2-5.9-0.5-9.1-0.8
		c1.8,3.1,3.3,5.7,4.7,8.3c-0.4,0.3-0.8,0.5-1.3,0.8c-1-1.4-1.9-2.7-2.9-4.1c-1.5-2.1-2.6-4.8-6.1-3.8c-0.2-0.8-0.4-1.6-0.6-2.4
		L212.7,55.8z"/>
	<path d="M324,180.9c-9.5,4.6-19.3,5.1-29.2,3.8C304.5,183.4,314.2,182.1,324,180.9z"/>
	<path d="M148,318.8c-2.2,1.9-4.4,3.9-6.8,5.6c-0.2,0.1-2.4-1.7-2.6-2.7c-0.2-1.4,0.7-2.9,1.3-5c0.1,0.1-0.5-0.5-1.1-1.2
		c1.4-1.1,2.9-2.1,4.3-3.2c0.5,0.3,1,0.7,1.5,1c-0.8,2.3-1.6,4.7-2.6,7.4c1.6-1.1,3.2-2.1,4.7-3.2C147.2,318,147.6,318.4,148,318.8z
		"/>
	<path d="M199.4,435.3c-0.1-2.1-0.2-4.2-0.3-6.3c-0.1-1.7,0-3.4-0.2-5.2c-0.2-2.3-0.5-3.9,3-3.7c2,0.1,4.1-2.1,7.3-3.9
		c-1.6,2.8-2.3,4.9-3.7,6.3c-3.4,3.3-5.4,7-4.7,11.8C200.8,434.6,199.8,434.9,199.4,435.3L199.4,435.3z"/>
	<path d="M185.6,19.2c-6.8,2.5-13.6,5.1-21.3,7.9c-0.2-0.2-1.3-1-3-2.4c8.3-2.4,16-4.7,23.8-6.9C185.3,18.3,185.4,18.7,185.6,19.2z"
		/>
	<path d="M341.3,426.4c-1.7-3.5-2.5-6.2-4-8.3c-1.5-2.1-3.8-3.6-5.8-5.3c0.3-0.4,0.7-0.7,1-1.1c5.8,4.6,11.7,9.3,17.5,13.9
		C347.1,427.1,343.9,420.2,341.3,426.4z"/>
	<path d="M160,128.2c1.5,0.5,2.6,0.9,3.7,1.3c0,0.3,0.1,0.6,0.1,0.9c-3.1,0.8-6.3,1.7-9.5,2.5c1.8-8.1,3.7-9.8,11.9-8.7
		C163.7,125.8,162.1,126.9,160,128.2z"/>
	<path d="M219.8,546.8c0.5-0.7,0.8-1.7,1.5-2c4.3-1.8,8.7-3.3,13-4.9c-0.7,0.9-1.7,2.5-2.9,3.9c-2.3,2.4-3.1,4.2,1.8,5.3
		c-1.5,0.8-2.9,1.6-4.9,2.7c-0.4-2.2-0.6-3.5-0.8-5C224.7,546.8,222.3,546.8,219.8,546.8L219.8,546.8z"/>
	<path d="M312.5,494.8c0.1-1.6,0.2-3.4,0.4-5.8c4.3,5.2,1,7.9-2.5,10.9c-3.1-4.8-6.1-9.4-1.5-15.1
		C312.2,487.3,304.4,494.1,312.5,494.8z"/>
	<path d="M167.1,470c1.4,0.1,2.7,0.3,5.5,0.5c-2.3,3.2-4.4,6.1-6.5,9c-0.5-0.3-0.9-0.5-1.4-0.8c0.2-1,0.5-2,0.8-3.3
		c-2,0-4.1,0-6.6,0c3.1-2,5.7-3.7,8.4-5.4C167.2,470.1,167.1,470,167.1,470z"/>
	<path d="M494.8,113.8c2.4-3.9,7.5-4.8,10.3-1.9c1.4,1.5,2.8,3.1,3.5,5.5c-4.6-1.3-9.3-2.5-13.9-3.8
		C494.7,113.7,494.8,113.8,494.8,113.8z"/>
	<path d="M294.2,61.8c7.9,2.4,14.4,6.8,18,14.8C306.2,71.7,300.2,66.8,294.2,61.8z"/>
	<path d="M255.5,484.4c-0.4-0.5-1.6-1.7-2.5-3c-0.3-0.5-0.3-1.8-0.2-1.9c5.7-1.5,1.3-6.4,3-9.2c0.2-0.2,0.5-0.4-0.4,0.2
		c2.8,0.3,4.5,0.5,5.7,0.6C259.3,475.5,257.4,480,255.5,484.4z"/>
	<path d="M241.1,576.4c-0.8,0-1.6,0-3.9,0c6.8-5.9,12.6-10.9,18.4-16c0.5,0.5,0.9,1,1.4,1.5c-5.4,4.9-10.7,9.8-16.1,14.6
		C240.9,576.6,241.1,576.4,241.1,576.4z"/>
	<path d="M109,156.8c-5.5,8.7-11.1,17.5-16.6,26.2c-0.5-0.3-0.9-0.6-1.4-0.9c5.6-8.7,11.2-17.4,16.7-26.1
		C108.1,156.2,108.6,156.5,109,156.8z"/>
	<path d="M260.1,478.2c1.6-3.7,2.2-8.6,10-6.7c-1.7,3.6-3.2,7-4.8,10.4c-0.5-0.2-1-0.3-1.5-0.5c0.3-2,0.5-3.9,0.8-5.9
		c-0.3-0.3-0.6-0.6-0.9-0.9c-0.8,1.6-1.6,3.3-2.3,4.9C261,479.1,260.5,478.6,260.1,478.2z"/>
	<path d="M192.3,503.2c1.3-0.1,2.6-0.3,4.1-0.5c-1,3.5-2.4,7.2,3.2,7.1c-1.4,1.4-2.7,2.8-4.1,4.1l0.1-0.2c-2.2,0.4-4.4,0.7-6.6,1.1
		c-0.2-0.6-0.4-1.1-0.6-1.7c4,0,6.2-0.9,3.6-5.1c-0.7-1.2,0.2-3.3,0.3-5V503.2z"/>
	<path d="M144.7,415c-0.6,0.6-1.3,1.2-1.9,1.8c-0.1-2.3-0.6-4.6-0.3-6.8c0.3-1.8,1.6-3.4,2.5-5.1l-0.1-0.1c0.2,3,2.4,4.6,4.9,4
		c1.4-0.3,2.9,0.1,4.4,0.3c0.2,0,0.3,1.7,0.2,1.7c-1.3,0.4-2.7,0.7-4,0.8c-0.8,0.1-1.7-0.2-2.4-0.5C142.9,409.3,143.7,412,144.7,415
		z"/>
	<path d="M393.7,419.2c9.7,6.3,4.9,13.9,5.1,21.6c-3.2-4.6-3-5.4-0.3-9.3c0.6-0.9-0.7-3.1-1.3-4.7
		C396.3,424.7,395.3,422.6,393.7,419.2z"/>
	<path d="M272.5,482.3c-0.3-0.3-0.8-0.6-1-1c-0.7-1.6-1.3-3.3-1.9-5c1.3-0.5,2.7-1.5,3.9-1.2c1.2,0.2,3,1.6,3.1,2.5
		c0.1,1.8-0.9,3.6-1.5,5.4c-0.7-0.4-1.4-0.8-2.1-1.2c-0.1-0.1-0.3-0.1-0.4-0.1c-0.1,0.1-0.1,0.3-0.2,0.4
		C272.4,482.2,272.5,482.3,272.5,482.3z"/>
	<path d="M392.8,434.8c0.3,0.8,1,1.7,0.9,2.5c-0.2,4-0.5,8.1-0.9,13c-1-2.4-1.9-4.3-2.7-6.2c-0.5,0.3-1.1,0.7-1.7,1.1
		c-1.7-1.5,1.6-8.9,4.5-10.5C392.9,434.7,392.8,434.8,392.8,434.8z"/>
	<path d="M143.5,369.9c-1-1.2-2-2.4-2.9-3.6c3.3-3.1,6.4-6,9.6-9c0.3,0.4,0.7,0.7,1,1.1c-1.4,1.5-2.8,3-4.4,4.8
		c1,0.3,1.8,0.5,3.2,0.9c-2.8,1.6-5.2,3-7.7,4.3C142.7,368.9,143.1,369.4,143.5,369.9z"/>
	<path d="M178,433.9c-1-13.8-1.9-27.5-2.9-41.3c0.3,0,0.7,0,1-0.1c1,13.8,2,27.5,3,41.3C178.7,433.8,178.4,433.9,178,433.9z"/>
	<path d="M359,430.8c-3.2-4.4-6.4-8.8-10-13.9C355.3,418.8,360.6,425.6,359,430.8z"/>
	<path d="M204.7,535.8c0.9-2.7,1.1-6,2.8-8.1c1.4-1.8,4.5-2.3,7.3-3.6c-2.3,4.2-4.2,7.6-6.6,11.8c-0.5,0-2.1-0.2-3.6-0.3
		C204.5,535.6,204.7,535.8,204.7,535.8z"/>
	<path d="M151.8,320.9c-4.9,3.8-6.5,11.4-13.6,12.8c-0.4-0.4-0.8-0.9-1.1-1.3c4.6-4.2,9.1-8.4,13.7-12.5
		C151.2,320.2,151.5,320.5,151.8,320.9z"/>
	<path d="M472.2,223.7c1.1,6.5,2.2,13,3.3,19.4c-0.9,0.1-1.7,0.3-2.6,0.4c-0.8-6.5-1.6-13-2.4-19.6
		C471.1,223.8,471.6,223.8,472.2,223.7z"/>
	<path d="M328.6,485.6c-0.1,0.7,0.1,1.7-0.3,2.1c-3.2,3.4-2.8,4.8,1.9,6.2l-0.1-0.1c-0.2,1.2-0.4,2.5-0.8,5.3
		c-2.4-2.7-5.2-4.4-5.7-6.6c-0.6-2.6,0.9-5.7,1.6-9c1.4,0.9,2.5,1.5,3.6,2.2C328.7,485.7,328.6,485.6,328.6,485.6z"/>
	<path d="M226.9,563.7c0.8-1.1,1.6-2.2,2.4-3.2c1.5,0,2.9-0.1,4.4,0c1.3,0.1,2.5,0.5,5.1,1.2c-4.2,2-7.4,4.1-10.8,5
		C225.4,567.3,225.6,565.4,226.9,563.7z"/>
	<path d="M282,70.2c-7.9-2.5-15.8-5-23.6-7.5c0.1-0.5,0.3-1,0.4-1.4c7.9,2.4,15.8,4.7,23.7,7.1C282.3,68.9,282.2,69.5,282,70.2z"/>
	<path d="M192.5,503.1c-1.2-0.2-2.4-0.6-3.5-0.4c-3.9,0.8-6.2-0.5-6.8-3.9c4.4,0,8.8,0,13.8,0c-1.3,1.6-2.5,3-3.7,4.4L192.5,503.1z"
		/>
	<path d="M416.4,438.1c0.4,2.8,0.8,5.5,1.1,8.2c0.5,0.2,1,0.3,1.5,0.5c-1.5,1.2-3,2.4-4.7,3.7C412.2,442.5,412.2,442.5,416.4,438.1z
		"/>
	<path d="M396.7,48.8c0.5,1.5,0.9,2.9,1.3,3.9c-4.3-1.4-8.3-2.8-12.3-4.1l0.1,0.1c-0.6-2.6,0.8-3.6,2.9-3c2.8,0.8,5.4,2.1,8.1,3.2
		C396.8,49,396.7,48.8,396.7,48.8z"/>
	<path d="M106.9,124.1l0.2-0.2c-1.9-0.2-2.3-0.8-1.1-2.3c4.3-5.3,8.8-10.4,13.2-15.7c0.3,0.3,0.6,0.5,0.9,0.8
		C115.7,112.5,111.3,118.3,106.9,124.1z"/>
	<path d="M307.4,544.2c3,1.7,0.9,6.7,5.3,6.5c-0.2,0.9-0.1,1.9-0.6,2.5c-1.2,1.5-2.7,2.8-4.7,4.7
		C307.4,553.2,307.4,548.9,307.4,544.2z"/>
	<path d="M296.7,499.4c-0.2-2.8-0.4-5-0.6-7.2c0.7-0.1,1.4-0.1,2.1-0.2c0.5,3.7,0.9,7.4,1.4,11.1c-0.5-0.1-1.1-0.3-1.6-0.4
		c-1.3,0.9-2.6,1.8-4,2.9C292.8,502.1,293.8,499.9,296.7,499.4z"/>
	<path d="M298.4,27.9c-6.1-0.9-12.2-1.8-18.5-2.7c6.5-2.2,12.6-1.7,18.6,1C298.5,26.8,298.5,27.3,298.4,27.9z"/>
	<path d="M440,333.1c-7-4.9-13.3-9.4-20.9-14.7C428.6,320.9,434.6,325.9,440,333.1z"/>
	<path d="M428.6,94.1c1.6,2,2.6,3.2,4.3,5.2c0.7-1.4,1.3-2.6,1.8-3.4c1.9,3.5,3.7,6.5,5.2,9.3C435.6,105,428.8,99,428.6,94.1z"/>
	<path d="M390.9,493.4c1-2.9,1.7-5.2,2.8-8.3c1.8,3.6,3.3,6.7,4.9,9.8c-0.4,0.4-0.8,0.7-1.2,1.1
		C395.2,495.1,393.1,494.2,390.9,493.4z"/>
	<path d="M361.6,192.7c5,0.3,9.9,0.5,14.9,0.8c0,0.7-0.1,1.4-0.1,2.1c-5,0.4-10,1.5-14.9-0.5C361.5,194.4,361.5,193.5,361.6,192.7z"
		/>
	<path d="M170.9,445.7c-0.7,2.4-1.4,4.7-2.1,7.1c-0.6,0-1.1,0-1.7,0c-3.5-6.8-4.7-14.2-4.8-21.9c1.5,6.4,3,12.8,4.5,19.1
		c0.3,0,0.6,0.1,1,0.1c0.5-1.6,1-3.2,1.5-4.8C169.1,445.3,169.4,445.4,170.9,445.7z"/>
	<path d="M330.3,20.6c-5.7-0.7-11.5-1.4-17.2-2.1c0.1-0.8,0.2-1.6,0.3-2.5c5.7,0.9,11.5,1.8,17.2,2.6
		C330.5,19.2,330.4,19.9,330.3,20.6z"/>
	<path d="M381.5,514.4c-0.1,1.1-0.3,2.2-0.4,3.2c-0.9-0.2-2.4-0.1-2.7-0.6c-1.8-3.5-4.9-6.8-3-11.9c2.3,3.4,4.3,6.4,6.3,9.4
		C381.7,514.6,381.5,514.4,381.5,514.4z"/>
	<path d="M434.9,443.8c1,2.6,2.2,5.1,2.8,7.7c0.3,1.2-0.7,2.6-1.1,3.9c-1.1-0.9-2.2-1.9-3.3-2.8c-0.5-0.4-0.9-0.8-1.7-1.5
		c1.5-0.5,2.6-0.9,3.5-1.2c-0.9-1.8-1.8-3.5-2.6-5.2C433.3,444.4,434.1,444.1,434.9,443.8z"/>
	<path d="M401,203.6c-6.7-2.6-13.3-5.2-20-7.9c0.2-0.4,0.3-0.9,0.5-1.3c6.7,2.6,13.5,5.1,20.2,7.7
		C401.5,202.6,401.3,203.1,401,203.6z"/>
	<path d="M250.2,540.7c-2.9,4.9-5.8,9.8-8.7,14.7c-0.6-0.4-1.3-0.8-1.9-1.1c3-4.8,6-9.7,9-14.5C249.2,540.1,249.7,540.4,250.2,540.7
		z"/>
	<path d="M239.6,425.9c-1.6-2.4-3.2-4.8-5.4-8c1.2-0.4,3.1-1.5,4.8-1.3C241.1,417,241.1,423.7,239.6,425.9z"/>
	<path d="M375.4,496.1c2.7,2.2,5,3.8,7,5.8c0.3,0.2-0.8,1.9-1.3,3c-2.7-1.6-5.2-3-7.4-4.7C373.5,499.9,374.7,497.8,375.4,496.1z"/>
	<path d="M199.3,435.2c-0.8,5.5-6.7,6.3-9.2,10.3C188.3,441.6,193.5,435.9,199.3,435.2C199.4,435.3,199.3,435.2,199.3,435.2z"/>
	<path d="M404.5,471.7c0.7-4.5,1.3-7.7,1.8-10.8c0.4,0,0.7-0.1,1.1-0.1c1,2.5,2.5,4.9,2.8,7.4C410.3,468.8,407.3,470,404.5,471.7z"
		/>
	<path d="M352.4,486.6c-4.1-4.6,1.2-7.1,1.6-11.6C359.8,480.6,352.8,482.9,352.4,486.6z"/>
	<path d="M182.2,443.1c-0.9,2.5-1.6,4.3-2.8,7.3c-0.5-2.5-0.8-3.7-1-5c-0.8-0.7-1.5-1.5-2.3-2.2c-1.2,2-2.3,4.1-3.4,6
		c-2-3.9,3.1-4.6,4.7-6.9C177.8,441.6,180.4,442.7,182.2,443.1z"/>
	<path d="M294.4,480.6c1.4-2,2.8-4,4.1-5.9c0.5,0.2,1,0.4,1.5,0.6c-1.5,4.7-3,9.4-4.5,14.1c-0.3,0-0.7,0-1,0c0-3,0-6,0-9
		C294.4,480.4,294.4,480.6,294.4,480.6z"/>
	<path d="M507.8,105.7c-4.3-0.9-7.8-1.6-11.3-2.3C501.6,99.7,505.6,100.7,507.8,105.7z"/>
	<path d="M423,476.9c0-3.4,0-6.1,0-8.7c0.4-0.1,0.8-0.3,1.1-0.4c0.8,1.4,1.6,2.7,2.3,4.2c0.2,0.4,0.1,1.2,0.4,1.5
		c0.8,0.6,1.8,1,2.7,1.4c-1.3,0.4-2.6,0.9-3.9,1.3C424.8,476.3,424,476.6,423,476.9z"/>
	<path d="M317.9,423.5c2.2,3.2,3.9,5.7,5.5,8.2c-0.6,0.4-1.2,0.8-1.9,1.3c-0.8-1.2-1.6-2.4-2.6-3.9c-0.2,1.1-0.3,2-0.5,3.3
		C314.3,430,315.5,427.3,317.9,423.5z"/>
	<path d="M198,402.6c-1.6,0.4-3.3,0.8-5.2,1.3c5.7-7.7,1.2-17,3.4-26.6c0.6,9.2,1.1,17.3,1.6,25.5C197.9,402.7,198,402.6,198,402.6z
		"/>
	<path d="M394.5,413.4c-2.6,0-5.3,0.3-7.9-0.2c-1.1-0.2-1.8-2.1-2.7-3.2c1.3-0.2,2.6-0.8,3.7-0.5c2.3,0.6,4.6,1.7,6.8,2.6
		C394.5,412.6,394.5,413,394.5,413.4z"/>
	<path d="M263,563.4c0.4-6,0.8-11,1.2-15.9C267.7,550.1,267.5,556.1,263,563.4z"/>
	<path d="M130.8,364.1c-3.2-1.5-5.6-2.6-7.8-3.8c-0.7-0.4-0.9-1.5-1.3-2.3c0.8-0.3,1.8-1.1,2.4-0.9
		C127.1,358.1,130.6,358.7,130.8,364.1z"/>
	<path d="M223,399.1c4.5-5.9,5.5-6,10.6-1.1C230.4,398.4,227.2,398.7,223,399.1z"/>
	<path d="M307.1,416.1c2.3,2.1,4.8,4,6.9,6.3c0.8,0.9,0.7,2.7,1.1,4.7C310.2,424.4,306.2,422,307.1,416.1L307.1,416.1z"/>
	<path d="M339.3,29.9c4.9-1.2,10.1-2.4,15.2-3.7C351.6,31.3,343.9,33,339.3,29.9z"/>
	<path d="M166.5,457c2.9-0.9,5.8-1.9,8.7-2.8c0.2,0.5,0.4,1,0.5,1.5c-2.2,2.7-4.1,6.3-8.6,3.2C166.9,458.3,166.7,457.7,166.5,457z"
		/>
	<path d="M449.3,448.2c1.2,5.1,2.3,9.5,3.3,13.8C448.8,462.6,446.8,459.3,449.3,448.2z"/>
	<path d="M236.3,551.1c0.9-2.2,1.6-4,2.5-5.8c0.8-1.6,1.9-3.2,3.2-4.5C242.2,545.3,243.6,550.4,236.3,551.1z"/>
	<path d="M319.5,484.3c0,3.7,0,7.5,0,12.4c-5.3-4.4-1.8-8.6-2-12.3C318.2,484.4,318.9,484.3,319.5,484.3z"/>
	<path d="M145,404.9c0.1-6.1,2.2-9.3,6.4-9.9c-0.8,2.5-1.3,5.3-2.6,7.7c-0.6,1.1-2.6,1.4-3.9,2.1C144.8,404.8,145,404.9,145,404.9z"
		/>
	<path d="M386.3,450.9c-0.2,3.6-0.5,7.3-0.8,10.9c0,0.4-1.2,1.1-1.4,1c-0.7-0.5-1.9-1.4-1.8-2c0.6-3.5,1.4-6.9,2.1-10.3
		C385.1,450.7,385.7,450.8,386.3,450.9z"/>
	<path d="M433.8,363.8c-1.3-7.4-2.7-14.7-4-22.1c-0.3-1.9-0.7-3.8-1-5.8c0.4-0.1,0.9-0.1,1.3-0.2c1.2,9.4,2.4,18.8,3.6,28.2
		C433.7,363.9,433.8,363.8,433.8,363.8z"/>
	<path d="M248.8,554.8c-0.4,0.3-0.7,0.7-1.1,1c-0.5,0.4-1,0.7-1.5,1.1c-0.4-0.3-0.8-0.5-1.2-0.8c2.4-4.1,4.8-8.3,7.2-12.4
		c0.5,0.3,1,0.5,1.5,0.8C252,547.9,250.4,551.4,248.8,554.8z"/>
	<path d="M190.3,460.5c-2.4,3.4-4.7,6.9-7.4,10.1c-0.3,0.4-2.4-0.6-3.5-1.7C186.2,469.3,184.9,461.3,190.3,460.5z"/>
	<path d="M402.8,482.6c-2.2-1.9-2.1-8.7,0.1-9.7c0.7-0.3,2.2-0.2,2.3,0c0.4,1.2,0.8,2.6,0.4,3.7C405,478.7,403.9,480.5,402.8,482.6z
		"/>
	<path d="M152.2,445.5c-1.8,0.9-4,2-7.5,3.7c1.5-2.4,2.3-3.8,3.4-5.5c-1.6-0.6-2.9-1.1-4.3-1.6c0-0.3,0.1-0.6,0.1-0.9
		c1.9,0,4-0.4,5.7,0.2C150.7,441.7,151.1,443.7,152.2,445.5z"/>
	<path d="M468.7,407.7c-1.5-0.4-3.7-0.4-4.2-1.4c-1-1.8-1.1-4.1-1.6-6.2c0.6-0.2,1.2-0.4,1.8-0.7c1.6,2.3,3.1,4.5,4.7,6.8
		C469.1,406.8,468.9,407.2,468.7,407.7z"/>
	<path d="M383.2,488.6c0.5,1.4,1,2.6,1.4,3.8c-0.4,0.3-0.7,0.5-1.1,0.8c-1-1.3-2.8-2.7-2.8-4c0.1-1.6,1.8-3.1,3.2-5.4
		c1.5,2.3,2.5,3.9,3.5,5.5c-0.2,0.4-0.4,0.7-0.6,1.1C385.7,489.8,384.6,489.2,383.2,488.6z"/>
	<path d="M243.9,4.9c-0.6,2.9-1.4,4.9-5.2,3.3c-2.2-0.9-4.9-0.4-7.4-1.5c4.2-0.6,8.5-1.1,12.8-1.7L243.9,4.9z"/>
	<path d="M312.7,555.8c1.3,7.2-3.5,7.4-8.6,7.1C306.8,560.6,309.6,558.3,312.7,555.8z"/>
	<path d="M359.8,511.1c-6-2.4-8.9-7.6-6.9-11.3C355.1,503.4,357.2,506.9,359.8,511.1z"/>
	<path d="M277,518.6c-1.9,1.2-3.4,2.3-5,3.3c-0.4-0.3-0.8-0.6-1.2-0.9c1.5-3.1,3-6.3,4.4-9.4c0.6,0.3,1.2,0.6,1.8,0.9
		c-0.9,1.6-1.8,3.1-2.7,4.8C274.9,517.6,275.7,517.9,277,518.6z"/>
	<path d="M161.5,134.7c-3.9,2.9-7.9,5.8-11.8,8.6c-0.4-0.5-0.8-1.1-1.2-1.6c3.9-2.9,7.9-5.8,11.8-8.6
		C160.8,133.6,161.1,134.1,161.5,134.7z"/>
	<path d="M212.9,55.6c-4.1,1.1-8.2,2.2-12.2,3.3c-0.1-0.2-0.2-0.4-0.2-0.6c1-0.7,2-1.3,3.3-2.2c-1.3-0.3-2.2-0.5-3.1-0.7
		c0-0.2,0-0.4,0-0.5c4.3-0.2,8.6-0.4,12.9-0.7c0,0,0.1,0.2,0,0.3c-0.2,0.4-0.5,0.8-0.8,1.2C212.7,55.8,212.9,55.6,212.9,55.6z"/>
	<path d="M470.4,371.1c0.4-3.9,0.7-7.9,1.1-11.8c0.8,0.1,1.7,0.1,2.5,0.2c-0.3,4-0.7,7.9-1,11.9
		C472.1,371.3,471.2,371.2,470.4,371.1z"/>
	<path d="M472.6,308.4c-1.5-5.4-3.1-10.8-4.8-16.9C473.4,296.2,472.7,302.3,472.6,308.4z"/>
	<path d="M248.3,67.3c-7.7,1-15.4,2.7-23.8,0.1C232.9,67.3,240.6,67.3,248.3,67.3C248.3,67.4,248.3,67.3,248.3,67.3z"/>
	<path d="M193.6,450.8c-2.2,2.4-4.3,4.9-7.2,8.1c-0.6-5.4,0.1-6.3,5.7-9.2C192.6,450,193.1,450.4,193.6,450.8z"/>
	<path d="M211,250.4c-0.5-0.2-1-0.4-1.5-0.5c0.5-1.4,1-2.9,1.6-4.6c2.7,0.8,5,1.4,7.3,2.1c0,0.5,0.1,0.9,0.1,1.4
		C216.1,249.3,213.5,249.9,211,250.4z"/>
	<path d="M376,544.4c5.5,4.7,5.5,4.7,5.2,6.7C376,551.6,375.7,551.3,376,544.4z"/>
	<path d="M304.3,545.4c0,3.3,0,6.8,0,11.2C300.1,551.4,300.4,548.8,304.3,545.4z"/>
	<path d="M197.8,445.3c0.3,5,0.5,10,0.8,15c-0.6,0-1.3,0-1.9,0c-0.2-5-0.5-10.1-0.7-15.1C196.6,445.3,197.2,445.3,197.8,445.3z"/>
	<path d="M356.4,519.8c-1.1,3.8-2.1,7.6-3.1,11.3c-3.2-2.5-3.2-2.5,1.8-11.4C355.5,519.7,355.9,519.7,356.4,519.8z"/>
	<path d="M289,537.1c-0.3,4.9-0.6,9.6-0.8,13.8C285.2,546.8,285.3,541.3,289,537.1z"/>
	<path d="M250.6,407.5c-0.1,7.1-4.3,6.4-7.4,7.5c-0.3-0.4-0.6-0.8-0.8-1.1C244.8,412,247.3,410.1,250.6,407.5z"/>
	<path d="M167.2,408.6c1.1,8,2.1,16,3.2,24c-0.3,0-0.7,0.1-1,0.1c-1-8-2.1-16-3.1-24C166.5,408.7,166.9,408.6,167.2,408.6z"/>
	<path d="M369,517.4c-5.7,1.4-7.3-0.1-7.6-6.5C364.3,513.4,366.7,515.4,369,517.4z"/>
	<path d="M452,436c0,4.4,0,8.7,0,13.1c-0.4,0-0.9,0-1.3,0c0-4.4,0-8.7,0-13.1C451.2,436,451.6,436,452,436z"/>
	<path d="M218.9,536.1c-0.2-6.6,6.1-3.3,8.1-7.4C226.6,532.3,226.6,532.3,218.9,536.1z"/>
	<path d="M417.9,472.3c0.4-3.2,0.7-6.3,1.1-9.5c0.8,0.1,1.6,0.2,2.5,0.3c-0.3,3.2-0.7,6.4-1,9.5
		C419.6,472.6,418.7,472.5,417.9,472.3z"/>
	<path d="M380.9,480.4c-0.8,3.1-1.6,6.1-2.6,10.4c-4.5-5.1,1.5-7.3,0.7-10.6C379.6,480.2,380.2,480.3,380.9,480.4z"/>
	<path d="M315.2,405.3c2,2.8,4,5.7,6,8.5c-0.5,0.3-1,0.7-1.5,1C316.1,412.8,314.1,409.9,315.2,405.3
		C315.3,405.2,315.2,405.3,315.2,405.3z"/>
	<path d="M206.9,404.7c-1.7,2.8-3.4,5.5-5.2,8.3c-0.7-0.4-1.4-0.9-2-1.3c1.8-2.7,3.7-5.4,5.5-8.1C205.7,404,206.3,404.3,206.9,404.7
		z"/>
	<path d="M252.6,414.4c1.2-3.4,2.4-6.8,3.6-10.1c0.5,0.2,1,0.4,1.5,0.6c-1,3.5-2,7-3,10.5C253.9,415,253.3,414.7,252.6,414.4z"/>
	<path d="M198.2,487.4c-1.1,1.2-2,3.2-3.2,3.5c-1.6,0.3-3.4-0.9-4.8-2.5c2.4-0.6,4.8-1.2,7.2-1.8
		C197.6,486.8,197.9,487.1,198.2,487.4z"/>
	<path d="M205.6,433.6c1.4,4.4-0.6,7.4-5.5,9c1.9-3,3.7-5.9,5.6-8.9C205.7,433.7,205.6,433.6,205.6,433.6z"/>
	<path d="M408.7,450.7c1,1.4,2.2,2.8,3,4.3c0.6,1.1,0.7,2.4,1.1,3.6c-0.6,0.3-1.1,0.6-1.7,0.9c-1.5-2-3.1-3.9-4.2-6
		C406.7,453.1,408.1,451.7,408.7,450.7L408.7,450.7z"/>
	<path d="M422.9,446.3c0-2.9,0-5.7,0-9.2C426.6,442.3,426.6,442.3,422.9,446.3z"/>
	<path d="M317.3,481.4c-1-3.8-1.9-7.6-2.9-11.4c0.5-0.1,1-0.3,1.5-0.4c1.2,3.7,2.4,7.5,3.6,11.2C318.8,481,318,481.2,317.3,481.4z"
		/>
	<path d="M202.9,474.7c1.8-3.3,3.7-6.6,5.5-9.9c0.6,0.2,1.1,0.5,1.7,0.7c-1.7,3.3-3.5,6.6-5.2,9.9
		C204.2,475.2,203.6,474.9,202.9,474.7z"/>
	<path d="M140.9,283c-3,3.4-5.9,6.8-8.9,10.3c-0.5-0.4-0.9-0.8-1.4-1.2c3.1-3.3,6.2-6.6,9.3-10C140.3,282.3,140.6,282.6,140.9,283z"
		/>
	<path d="M295.3,77.3c-2.3-2.9-4.5-5.7-6.8-8.6c0.5-0.4,0.9-0.8,1.4-1.2c2.3,2.8,4.7,5.7,7,8.5C296.3,76.5,295.8,76.9,295.3,77.3z"
		/>
	<path d="M222.1,410c-2.5,1.8-5.1,3.7-8,5.8c0.5-4.3,1.7-5.3,7.1-6.9C221.6,409.4,221.9,409.7,222.1,410z"/>
	<path d="M427.2,457.2c0.1,3.4,2.9,7.1-0.6,10c-0.7-0.1-1.4-0.3-2-0.4C425.5,463.6,426.4,460.4,427.2,457.2
		C427.3,457.1,427.2,457.2,427.2,457.2z"/>
	<path d="M331.1,522.8c-0.3-3.2-0.7-6.5-1-9.7c0.6-0.1,1.2-0.1,1.8-0.2c0.5,3.2,1,6.4,1.5,9.7C332.6,522.6,331.9,522.7,331.1,522.8z
		"/>
	<path d="M134,368.1c-2,2.5-4,5.2-5.9,7.6C126.6,370.1,128.6,367.4,134,368.1z"/>
	<path d="M394.9,507.4c0.1-2.6,0.3-5.2,0.4-7.9c0.8,0,1.6,0.1,2.4,0.1c0,2.6,0,5.3,0,7.9C396.8,507.6,395.9,507.5,394.9,507.4z"/>
	<path d="M324,518.5c-1.6-2.9-3.2-5.8-4.8-8.7c0.5-0.3,1-0.5,1.5-0.8c1.7,2.9,3.4,5.7,5.1,8.6C325.2,517.8,324.6,518.1,324,518.5z"
		/>
	<path d="M251.6,305.2c-0.8,1.5-1.3,3.6-2.6,4.4c-1.9,1.1-4.4,1.8-6.6,1.9c-8.2,0.4-16.5,0.6-24.7,0.6c-4.7,0-7.4-2-10.2-7
		c6.8,5.9,14.6,4,22,3.2c6.9-0.7,14.7,2.8,20.7-3.4C250.6,304.9,251.1,305.1,251.6,305.2z"/>
	<path d="M212.6,288.6c4.5,1.8,9,3.7,13.4,5.5c0,0.3,0.1,0.5,0.1,0.8c-3.6,0-7.3,0-11.2,0c-0.2-0.4-1-1.7-2.4-3.9
		c-0.6,2.3-0.8,3.4-1.3,5.3c-0.5-2.8-0.9-4.9-1.2-6.9c0-0.1,1.7-0.4,2.6-0.6C212.7,288.8,212.6,288.6,212.6,288.6z"/>
	<path d="M210.4,263.5c-0.5-5.7,2.5-5.5,5.3-5.1c0.9,0.1,1.6,1.2,2.4,1.8C215.6,261.3,213.2,262.3,210.4,263.5z"/>
	<path d="M188.4,304.9c4.3-0.4,8.6-0.8,12.9-1.2c0.1,0.7,0.1,1.4,0.2,2.1c-4.3,0.4-8.7,0.9-13,1.3
		C188.5,306.3,188.4,305.6,188.4,304.9z"/>
</g>
<g>
	<path d="M743.5,329.7c0.1,4.3-2.2,6.8-5.9,7.1c-3.9,0.3-7.1-2.7-7.1-7.1h-6c0.1,7.4,0,14.8,0.1,22.2c0.2,12.1,0.4,24.1,0.8,36.1
		c0.1,2.3-0.6,2.8-2.8,2.8c-11.4-0.2-22.7-0.1-34-0.3c-4.5,0-9.1-0.1-13.5-0.9c-8-1.4-15.9-1.8-23.9-2c-6.4-0.1-12.7-0.7-19.1-1
		c-7.6-0.3-15.2-0.8-22.8-0.7c-6,0.1-12,1.1-18,1.7c-1.8,0.2-3.6,0.2-5.8,0.3c0-2.2,0.1-4.4,0-6.5c-0.4-11.7-0.8-23.4-1.1-35.1
		c-0.1-4.1,0.1-8.3,0-12.4c0-1.4-0.6-2.7-0.9-4.1h-14c1.5,5.6,1.7,11.2,0.1,16.7c-0.7,2.3-4,4.2-6,3.8c-3.8-0.8-5.9-2.9-6.1-6
		c-0.3-4.8-0.7-9.7-1-14.5h-8v360.9c1.7-1.1,3.4-2.2,5.2-3.2c0.3-0.2,0.5-0.3,0.8-0.5c1-1.6,2.7-2.7,4.5-3.1
		c0.3-0.1,0.6-0.1,0.9-0.1c7-4.1,14.2-8.2,21.7-11.4c0-12.1,0-24.1,0-36.1c0-1.9,0.4-2.8,2.5-2.6c3.5,0.3,6.7-0.5,10-1.7
		c2.9-1,6.2-0.7,9.3-1.1c9.3-1.2,18.5-1.6,27.8-1.1c3.7,0.2,7.3,1.1,10.9,1.7c0.3,0.1,0.7,0.2,1,0.2c6.7,0.4,13.4,0.7,20.1,1.2
		c4.5-1.1,9.2-1.7,13.8-2.3c-0.4-1.9-0.2-3.9,0.9-5.6c-1.5-2.9-1.3-6.4,0.8-9c-15.2,0.1-30.5,0.1-45.7-0.1
		c-16.1-0.2-32.3-0.8-48.5-1.1c-1.5,0-2.1-0.5-2.1-2c0-3.7-0.4-7.5,0.1-11.2c1.7-12.5,0.3-25,1-37.5c0.3-5.9,0.6-11.7,0.9-17.6
		c0.4-7.3,0.9-14.5,1.1-21.8c0.1-1.7,0.4-2.9,2.1-3.4c2-0.5,4-1.2,6-1.3c3.2-0.2,6.3,0,9.5-0.1c6.9-0.3,13.8-0.8,20.6-0.8
		c10.6,0,21.1,0.4,31.6,0.8c6,0.2,11.9,0.6,17.8,1.2c3.1,0.3,6.1,1.4,9.2,2.1c2.7,0.6,5.4,1.2,8.1,1.6c4.3,0.6,8.6,1.4,12.9,1.8
		c3.4,0.3,6.8,0.2,10.2,0.1c2.3,0,4.4,0.2,6.3,1.6c0.4,0.3,0.9,0.4,1.4,0.5c3.5,0.6,3.5,0.6,3.5,4.2c0,6.8,0,13.7,0,20.5
		c6.8-5.2,14.4-9.1,22.6-11.8c0.4-0.2,0.8-0.4,1.3-0.6V329.7H743.5z M564,361.3c2.7-0.4,6.1,2.7,6.5,5.8c0.5,4.3,0.9,8.7,1.4,13.1
		h-0.3c0,1.7-0.1,3.5,0,5.3c0.3,4.5-3.1,6.5-6.5,6.9c-3.1,0.4-6.3-3.1-6.5-6.6v-1.7c-0.3-5.3-0.6-10.7-1-16
		C557.3,364.1,560.4,361.8,564,361.3z M562.1,463.8c2.7-0.7,6.7,1.8,7.4,4.7c1,4.6,1.8,9.1,2.7,13.6c-0.9,5-1.6,9.7-2.6,14.4
		c-0.4,2.2-3.9,4.1-5.8,3.8c-3.6-0.6-6.3-3-6.2-6c0.2-3.7,1-7.5,0.9-11.2c-0.2-3.6-1-7.2-1.9-10.7
		C555.8,469.3,558.5,464.8,562.1,463.8z M555.1,595.7c0.5-4,0.8-7.8,1.5-11.4c0.4-2.3,3.5-4.4,6-4.4c2.6,0,5.2,2.3,6.1,4.5
		c0.9,2.3,0.1,4.3,0,6.4c-0.2,4.3,0,8.6,0.2,12.9c0.1,3.1-1.9,6.5-4.6,7.1c-3.4,0.7-6.9-1-7.7-4.3
		C555.8,602.9,555.6,599.2,555.1,595.7z M570.4,664.1c0,2.9-2,5.8-4.5,6.5c-2.9,0.8-5.6-0.1-7.4-2.8c-0.6-0.8-1-2-1-3.1
		c-0.1-4,0-8.1,0-12.2s0.1-8.1-0.1-12.3c-0.1-3.4,2.5-5.6,5.3-6.4c2.5-0.7,5.7,1.2,6.8,3.9c0.4,1,0.9,2.1,0.9,3.2
		C570.5,648.6,570.5,656.4,570.4,664.1z M572.3,552.3c-0.2,2.1-0.9,4.4-2.1,6.1c-1.9,2.8-5,3.3-8.2,1.6c-3.4-1.9-4-4.7-3.1-8.3
		c0.8-3.1,0.6-6.4,0.7-9.6c0.1-4.7-0.1-9.3,0.1-14c0.1-2.6,0.3-5.2,2.4-7.2c2.2-2,4.9-1.5,7.3-0.9c1.9,0.5,3.1,2.2,3.3,4.4
		c0.3,3.4,0.7,6.8,0.9,9.3C573.2,540.6,573,546.4,572.3,552.3z M572.8,439.5c-0.4,3.2-2.3,4.5-6.2,4.5c-3.6,0-5.8-1.4-6-4.4
		c-0.4-6.8-0.6-13.5-0.7-20.3c-0.1-1.6,0.4-3.3,1-4.8c0.9-2.3,4.1-3.4,7.8-2.7c2.4,0.4,3.8,2,4,4.5c0.3,3.8,0.7,7.7,1,11.5
		C573.4,431.7,573.1,435.6,572.8,439.5z M725.4,484.9c-0.2,6.2-0.6,12.4-0.9,19.2c-1.6-0.4-2.9-0.9-4.1-1c-1.3-0.2-2.7-0.2-4-0.1
		c-2.1,0.2-4.1,0.5-6.1,0.8c-4.9,0.7-9.8,1.3-14.7,1.9c-0.8,0.1-1.7,0.1-2.5,0.1c-3.8,0-7.7,0.1-11.5,0c-12.8-0.3-25.6-0.6-38.3-1.2
		c-7.2-0.3-14.4-1-21.5-2c-7.5-1-14.9-2.1-22.4-2c-4.1,0-8.1-0.5-12.1-0.9c-0.6-0.1-1.5-1.3-1.5-1.9c-0.1-11.1-0.1-22.1-0.1-33.2
		c0-15.4-0.1-30.7-0.1-46v-15.8c2.5,0.3,4.8,0.9,7.1,0.9c10.2,0.1,20.4-0.5,30.5,0.2c11,0.8,22-0.2,32.9,1.2
		c16.1,2.1,32.3,1.6,48.5,1.7c2.8,0,5.5-1.4,8.3-1.7c3.7-0.4,7.6-0.3,11.4-0.3c0.3,0,0.8,0.7,0.9,1.2c0.2,0.6,0.1,1.3,0.1,2v66.7
		C725.3,478.1,725.5,481.5,725.4,484.9z M728.6,389.8c0.8-3.3,2.9-4.4,7.2-4.1c2.8,0.2,4.8,1.8,4.8,4.8c-0.1,4.7-0.4,9.5-1.1,14.2
		c-0.3,2.1-4,3.9-5.9,3.6c-3.7-0.7-6-2.9-6.1-5.8V398c-0.1-0.1-0.3-0.1-0.4-0.1C727.6,395.2,727.9,392.4,728.6,389.8z M727.5,427.9
		c-0.1-4,3-6.2,6.5-6.7c2.9-0.4,6.2,3,6.5,6.3v8c0,2.4,0.1,4.8,0.1,7.2c-0.1,3.3-2.7,6.4-5.7,7c-2.4,0.5-5.2-1-6.7-3.8
		c-0.4-0.7-0.6-1.6-0.6-2.5C727.5,438.2,727.6,433,727.5,427.9z M728.6,473.7c0-2.6,0-5.2,0-7.8c0-2.7,2.4-5.9,4.8-6.3
		c3.6-0.5,5.8,0.1,7.6,3.3c0.4,0.8,0.6,1.7,0.6,2.6c0.1,4.2,0,8.5,0.1,12.7c0,2.1,0.7,4.1,0.8,6.2c0.2,3.3-3.3,6.2-5.5,6.4
		c-4.6,0.4-6.5-1.8-7.3-5.4c-0.9-3.8-1-7.8-1.5-11.7H728.6z M737.4,541.5c-2.8,1.2-7.8-1.5-7.9-5.5v-10.5c0-3.2,0.1-6.3,0-9.6
		c-0.1-3,2.4-5.3,5.2-6.1c2.5-0.6,5.7,1.2,6.8,3.9c0.6,1.3,1,2.8,1,4.2c0.1,5.2,0,10.5,0.1,15.7
		C742.7,537.5,740.8,540.1,737.4,541.5z M742.4,369.7c-0.6,3.5-3.4,6.1-7.1,5.9c-2.6-0.1-6.1-2.7-5.8-6.8c0.5-6.3,0.5-12.7,1.2-19
		c0.4-3.5,3.4-6.1,7.1-5.9c2.7,0.1,6.1,2.9,5.8,6.6c-0.1,1.7,0,3.3,0,5c0.1,0,0.1,0,0.2,0C743.4,360.2,743.2,365,742.4,369.7z"/>
	<path d="M612.7,360c-0.1-2.6-1.5-3.9-4.7-4.3c-1.8-0.2-3.6-0.7-5.7-1.1c3-1.3,4.3-1.5,12.2,2c0.4-1.4,0.7-2.9,1.2-4.2
		c0.3-0.7,1.3-1.8,1.8-1.7c2.4,0.3,4.7,1,7,1.6c0.5,0.1,1.4,0.7,1.5,0.5c2.5-2.5,3.4,0.3,4.8,1.4c0.9,0.7,1.7,1.4,2.6,2
		c-1.8,0.9-1.8,0.9-5-2.1c-1.3,0.3-2.4,0.6-3.2,0.8c1.1,2.7,2.2,5.4,3.5,8.4C623.2,362.2,618.1,361.2,612.7,360z M618,351.5
		c-0.2,0.3-0.3,0.7-0.5,1c0.3,2.1,2.3,0.6,3.4,1c0.1-0.2,0.2-0.4,0.3-0.6C620.1,352.5,619,352,618,351.5z"/>
	<path d="M663.3,335.8c0.4,1.7,0.8,3.4,1.3,5.1c1.1,3.2,2.2,6.5,3.5,9.6c0.8,2.1,0.6,3.7-1.2,5.1c-0.1-0.2-0.3-0.4-0.3-0.6
		c0.4-4.8-1.6-9-3.2-13.3c-0.7-1.8-0.7-3.9-1-5.9C662.6,335.9,663,335.9,663.3,335.8z"/>
	<path d="M705.2,351.4c0.4,2.6-1.2,4.3-3.6,4C702.8,354.1,703.9,352.9,705.2,351.4z"/>
	<path d="M601.7,471.6c-0.2-4.8,5.1-9.8,11.6-9c-1.6,0.7-3.2,1.7-4.9,2c-1.8,0.3-2.8,0.9-3,2.8c-0.1,0.5-0.4,1.1-0.8,1.4
		C603.8,469.8,602.7,470.7,601.7,471.6z"/>
	<path d="M673.5,443.2c2.5-0.8,8.9,3.1,8.7,5.6C679.2,446.9,676.4,445.1,673.5,443.2z"/>
	<path d="M643.8,454c2.4-1.1,4.8-2.2,7.5-3.5c0.1,0.9,0.2,1.8,0.1,1.9c-2.4,0.9-4.9,1.8-7.3,2.6C644,454.6,643.9,454.3,643.8,454z"
		/>
	<path d="M597.7,474.5c1.4-1.7,3.7-1.3,5.7,1.3C601.6,475.4,599.8,475,597.7,474.5z"/>
	<path d="M616.5,434.8c1.5-0.6,3-1.2,4.8-1.9c0.1,0.6,0.3,1.5,0.2,1.5c-1.5,0.6-3.1,1-4.6,1.5C616.7,435.6,616.6,435.2,616.5,434.8z
		"/>
	<path d="M640.8,429.2c-0.9-0.6-1.5-1-2.1-1.4c0.8-0.3,1.5-0.9,2.3-1c0.5-0.1,1.1,0.5,1.6,0.8C642.1,428.1,641.5,428.6,640.8,429.2z
		"/>
	<path d="M659,531c4.2,1.3,8.4,2.6,12.5,3.9c0,0.2,0,0.4,0,0.6c-1.4,0-3,0.3-4.3-0.1c-2.7-0.7-5.3-1.8-7.9-2.8
		c-0.4-0.2-0.6-0.9-0.9-1.4C658.6,531.2,658.8,531.1,659,531z"/>
	<path d="M662.3,600.8c-0.6-0.2-1.4-0.2-1.8-0.6c-2.6-2.5-6.1-2.6-9.3-3.4c-0.6-0.1-1.2,0-1.7-0.2c-0.3-0.1-0.5-0.6-0.8-1
		c0.4-0.2,0.8-0.7,1-0.7c3.2,0.8,6.4,1.6,9.5,2.7c1.3,0.4,2.3,1.6,3.4,2.4C662.5,600.3,662.4,600.6,662.3,600.8z"/>
	<path d="M694.2,550.1c0.4-0.4,0.9-1.1,1.3-1.2c1.2-0.2,2.5-0.1,3.7,0c0.4,0,0.7,0.5,1,0.8c-0.4,0.3-0.7,1-1.1,1c-1.5,0.1-3,0-4.5,0
		C694.6,550.5,694.4,550.3,694.2,550.1z"/>
</g>
</svg>
