<?xml version="1.0" encoding="utf-8"?>
<!-- Generator: Adobe Illustrator 19.1.1, SVG Export Plug-In . SVG Version: 6.00 Build 0)  -->
<svg version="1.1" id="Слой_1" xmlns="http://www.w3.org/2000/svg" xmlns:xlink="http://www.w3.org/1999/xlink" x="0px" y="0px"
	 viewBox="-290 92.9 377.8 376.1" style="enable-background:new -290 92.9 377.8 376.1;" xml:space="preserve">
<style type="text/css">
	.st0{fill:#EAEAEA;}
</style>
<g>
	<path class="st0" d="M-27.2,272.7c0.5,0.8,1.2,1.6,2.1,1.9c3.9,1.6,7.8,3.3,11.9,4.5c10,2.9,19.5,6.7,28.6,11.8
		c5.1,2.9,10.8,4.8,16.1,7.3c0.9,0.4,1.9,1.1,2.3,1.9c2.6,5.3,6.9,8.3,12.7,9.4c0.5,0.1,1,0.4,1.5,0.7c2.2,1.4,4.4,2.7,6.5,4.2
		c4.3,3.1,8.8,6.1,12.8,9.7c1.9,1.7,2.7,4.4,4.1,6.6c2.9,4.6,6.1,9.2,8.9,13.9c2.5,4.2,4.7,8.6,7,12.9c0.2-0.2,0.3-0.4,0.5-0.6
		c-1.6-1.2-3.6-2.1-4.7-3.7c-3.6-5.2-6.9-10.5-10.3-15.8c-0.8-1.2-1.5-2.5-2.3-3.7c-1.8-2.7-3.1-5.8-5.4-8.1
		c-3.1-3.1-6.6-5.9-10.3-8.4c-7.3-4.8-15.1-8.6-23.8-10.7c-4.7-1.1-9.1-3.3-13.7-5c-8.1-2.9-16.2-5.7-24.4-8.5
		c-2.7-0.9-5.4-1.6-8.2-2.4c-0.4-0.1-0.8,0-1.5,0.1c0.4,1,0.8,1.8,1.1,2.6c0.7,1.7,1.4,3.3,2,5c0.8,2.2,1.2,4.6,2.2,6.7
		c5.2,11.2,10.4,22.3,15.7,33.4c1,2.2,0.8,3.8-1.3,5c-2.6,1.6-5.3,3.1-8,4.5c-4,2.1-8.1,4-12.2,6c0.5,0.6,0.9,1.1,1.4,1.6
		c4.1,4.5,8.1,8.9,12.2,13.4c1.4,1.5,2.6,3.3,4.1,4.7c1.8,1.7,2.3,3.4,1.5,5.8c-2.3,6.8-4.4,13.6-6.7,20.4
		c-1.3,3.9-2.7,7.7-4.3,11.5c-1,2.6-2.3,5-3.4,7.5c-2.4,5.6-4.7,11.2-7.3,16.8c-0.7,1.6-1.9,3.3-4.2,4.1c1.3-2.3,2.6-4.1,3.4-6.1
		c2.6-6.6,5.1-13.2,7.7-19.8c4.4-11.3,8.8-22.5,13.2-33.8c0.7-1.9,0.4-3.3-1-4.7s-2.7-3-4.1-4.4c-2.6-2.7-5.1-5.5-7.7-8.2
		c-3.2-3.4-6.5-6.7-9.8-10.1c1.4-0.6,2.6-1.1,3.8-1.6c6-2.6,12-5.2,17.9-7.9c2.3-1.1,2.5-2.1,1.4-4.4c-0.8-1.8-1.7-3.7-2.5-5.5
		c-3.1-7-6.3-14-9.3-21.1c-1.8-4.3-3.3-8.8-4.9-13.2c-0.3-0.8-0.5-1.6-0.9-2.3c-4.8-8.8-9.6-17.5-14.5-26.3
		c-1.4-2.6-2.6-5.4-4.5-7.7c-3.4-4-7.9-7-9.6-12.3c-0.2-0.6-1.5-0.9-2.2-1.3c-0.2,0.8-0.7,1.6-0.6,2.4c1.7,8.6,3.7,17.2,5.1,25.9
		c1.5,8.7,2.8,17.5,3.4,26.2c0.7,11,0.6,22,0.8,32.9c0.1,6.9,0.3,13.7,0.2,20.6c-0.1,10.1-0.4,20.2-0.5,30.2c0,4.4,0.1,8.8,0.2,13.1
		c0.1,2.5,0.1,5,0.3,7.4c0.4,4.4,1.2,8.8,1.5,13.2c0.7,10.3,1.4,20.7,1.9,31c0.3,5.5,0,11,0,16.8c-0.2-1.6-0.5-3-0.6-4.4
		c-0.2-2.8-0.2-5.7-0.5-8.5c-0.8-7.7-1.8-15.4-2.6-23.2c-0.3-3.4,0-6.8-0.2-10.2c-0.5-5.5-1.6-10.9-1.7-16.4
		c-0.2-12.6,0-25.3,0.1-38c0-3.5,0.4-7-1.3-10.2c-1.8-3.5-3.7-6.8-5.6-10.2c-1.1-1.9-2.2-3.7-3.4-5.8c-4.7,7.8-10.4,14.3-16.7,20.2
		c-7.4,7-15.4,13.2-22.9,20.1c-4.2,3.9-7.6,8.5-8.5,14.6c-1.3,8.4-0.6,16.2,3.6,23.8c6.1,10.7,10.2,22.2,13.9,33.9
		c1.3,4.1,1,8.5,0.4,12.8c-0.3-0.5-0.5-1-0.6-1.5c-0.3-2.3-0.3-4.6-0.7-6.8c-1.1-6.1-3.4-11.8-6.4-17.3c-4-7.3-7-15.2-13.3-21.3
		c-3.5-3.4-5.9-7.8-7.6-12.5c-2.3-6.5-4.8-12.9-7.1-19.4c-4.9-14.2-11.7-27.3-21-39.2c-0.6-0.7-1.1-1.4-2-2.6
		c-0.9,5.8-1.8,10.9-2.6,16c-1,6.1-1.6,12.3-3,18.3c-2,8.6-5,17-5.9,25.8c-0.3,3-0.8,6.1-1.4,9.1c-1.3,7.7-2.7,15.3-4,23
		c-0.4,2.5-0.3,5.2-0.9,7.6c-1.4,5.3-3.1,10.5-4.8,15.8c-0.2,0.6-0.6,1.1-0.9,1.7c-0.3-0.1-0.5-0.1-0.8-0.2c0.1-0.8,0.1-1.6,0.4-2.3
		c0.5-1.6,1.4-3.1,1.7-4.7c1.3-5.8,2.5-11.7,3.6-17.5c0.3-1.6,0.5-3.3,0.7-4.9c1.5-8.6,3.1-17.2,4.6-25.9c0.9-4.9,1.3-9.8,2.6-14.6
		c2.2-8.3,4.7-16.4,5.3-25c0.1-1,0.3-2.1,0.5-3.1c2-10.4,3.9-20.9,4.3-31.6c0.3-10,0.3-20,0.5-30c0-2.2,0.1-4.3,0.2-6.5
		c0.2-2.2-0.4-2.9-2.7-2.8c-0.4,0-0.8-0.2-1.2-0.3c-3.4-0.9-6.4-2.8-8.8-5.4c-1.5-1.6-2.7-1.2-4.1-0.5c-2.4,1.2-4.8,2.5-7.2,3.8
		c-4.9,2.7-9.8,5.4-15,8.2c7.9,5.9,16.5,9.9,25.6,13c-0.3,0.3-0.5,0.5-0.7,0.7c-3.7,3.3-7.4,6.5-11.1,9.8c-4,3.6-7.9,7.2-11.7,10.9
		c-0.5,0.5-0.9,1.5-0.8,2.1c0.4,2.3,1.1,4.6,1.5,6.9c0.7,4.8,1.2,9.6,2,14.4c1.2,7.3,2.7,14.6,2.8,22.1c0.1,6.8,0.9,13.6,1.2,20.4
		c0.4,8.1,0.7,16.3,0.6,24.4c-0.1,9.7-0.6,19.5-0.9,29.2c0,0.4-0.2,0.8-0.3,1.2c-0.5-0.4-0.6-0.8-0.6-1.1c0-4.5,0-8.9,0-13.4
		c0-8.5,0.2-17-0.1-25.4c-0.3-9-1.1-17.9-1.6-26.9c-0.3-5.8,0-11.6-0.8-17.3c-1.7-11.5-4-23-6.2-34.5c-0.3-1.8,0.1-2.5,1.4-3.6
		c6.9-6,13.8-12.1,20.7-18.2c1.3-1.2,0.6-1.7-0.6-2.2c-2.7-1-5.3-1.9-7.9-3.1c-5-2.2-9.9-4.7-14-8.5c-1.4-1.3-1.4-2.1,0.1-3.1
		c0.6-0.4,1.3-0.8,2-1.1c2.6-1.2,5.1-2.5,7.7-3.7c3.8-1.8,7.6-3.8,11.5-5.4c5-2.1,5.1-2,3.1-6.9c-0.2-0.6-1.1-1.2-1.7-1.3
		c-1.9-0.2-3.9-0.1-5.8-0.2c-7.9-0.7-15.2,1.5-22.1,4.8c-5.2,2.4-10.1,5.3-15,8.3c-1.5,0.9-2.7,2.4-3.8,3.8
		c-1.2,1.5-2.2,3.2-3.1,4.9c-1.3,2.5-2.7,5-3.6,7.6c-2.1,6.7-3.9,13.5-5.9,20.2c-0.2,0.7-0.8,1.2-1.2,1.8c-0.2-0.1-0.5-0.2-0.7-0.3
		c1.4-5.5,2.7-11,4.1-16.5c-0.2-0.1-0.3-0.1-0.5-0.2c-0.3,0.5-0.5,1-0.8,1.6c-0.9,2-1.6,4-2.6,5.9c-0.2,0.5-0.9,0.8-1.4,1.2
		c-0.2-0.6-0.7-1.3-0.7-1.9c0.1-1.1,0.5-2.2,0.9-3.2c0.7-2,1.5-4,2.2-6c-3.9,5.1-7.5,10.4-11,15.7c-1.3,2-2.6,4-4.1,5.8
		c-3.2,3.7-6.7,7.3-10,10.9c-0.4,0.4-0.9,0.9-1.4,1.2c-2.1,1.4-3.6,3-3.7,5.8c-0.1,1.6-0.7,3.6-1.9,4.6c-7,6.3-12.4,13.7-15.7,22.6
		c-0.7,1.9-1.8,3.7-2.6,5.6c-1.4,3.2-4,5.4-6.2,8.1c-4.1,4.9-8.3,9.7-13.4,13.6c-0.6,0.4-1.5,0.3-2.3,0.5c0.2-0.8,0.1-1.8,0.6-2.3
		c1.5-1.9,3.2-3.7,5-5.4c1.9-1.8,3.4-3.9,5.5-5.5c2.6-2,4.2-5.4,5.9-8.4c1.4-2.5,2.1-5.4,3.6-7.8c4.1-6.4,8.4-12.6,12.7-18.9
		c1-1.4,2.2-2.6,3.3-3.9c0.6-0.7,1.2-1.5,1.7-2.3c1-1.5,1.7-3.2,2.8-4.6c3.7-4.2,7.8-8.2,11.3-12.5c2.5-3.1,4.8-6.5,6.5-10.1
		c2.3-5.1,4.5-10.2,8.8-14.1c5-4.5,9.6-9.4,14.4-14.1c2.1-2,3.9-4.4,6.4-5.9c6-3.6,12.1-7,18.4-10.1c3.4-1.6,7.2-2.8,11.3-2.7
		c4.8,0.1,9.6,0,14.4,0c0-0.2,0.1-0.4,0.1-0.6c-0.5-6.4-1-12.9-1.4-19.3c-0.2-2.8-0.4-5.6-2.2-8.1c-0.7-0.9-0.7-2.6-0.6-3.9
		c0.3-2.9,1.1-5.7,1.4-8.6c0.1-1.6-0.2-3.5-0.8-5c-1.6-3.8-3.5-7.4-5.4-11s-1.9-7.1,0.1-10.7c0.3-0.6,0.5-1.3,0.8-1.9
		c1.6-2.7,2.1-5.2,0-8c-0.8-1.1-1-2.6-1.5-3.9c-0.4-1.1-0.8-2.2-1.1-2.9c-1.3-0.1-2.3-0.2-3.3-0.3c-1.6-0.3-3.1-0.6-4.7-0.9
		c-0.9-0.2-2-0.4-2.7-1c-2.4-1.9-4.2-4.2-4.9-7.3c-2.2-9.1,0-17.5,4.3-25.5c0.4-0.8,1.2-1.6,2-2.1c2.8-1.7,5.6-3.6,9-3.6
		c4.1,0,7.2-1.3,9.3-5.1c0.8-1.5,1.7-2.5,1.1-4.3c-0.6-1.6-0.5-3.2,1.8-3.5c0.5-0.1,0.9-1,1.3-1.5c0.6-0.7,1-1.5,1.6-2.1
		c1.5-1.5,3-3,4.5-4.4c2-1.9,3.8-4.5,6.2-5.6c7.4-3.6,13.1-10.1,21-12.8c2.7-0.9,4.6-3.3,8.1-2.4c2.6,0.7,5.5-0.1,8.2,0.1
		c5,0.4,9.9,1.7,15,1.5c0.5,0,1.1,0.4,1.6,0.7c-0.1,0.1-0.1,0.2-0.2,0.4c-2.2,0-4.4,0-6.5,0c4.3,1.5,8.8,2.6,13,4.1
		c4.4,1.5,8.6,3.5,12.9,5.3c4.1,1.6,8.6,2.5,12.6,4.4c-0.1,0.3-0.2,0.6-0.3,1c-6.6-2.1-13.2-4-19.7-6.5c-9.6-3.7-18.9-8.1-29.4-8.4
		c-0.1,0-0.3-0.2-0.8-0.5c1.3-0.3,2.2-0.5,3-0.7c-3.8,0-7.5,0.3-11.2,0.8c-1.6,0.2-3.3,0.4-4.8,1.1c-4.6,2.1-8.4,5.3-11.9,9
		c-3,3.1-6.1,6.2-10.3,7.6c-3.5,1.2-5.5,3.5-7.2,6.4c-0.3,0.4-0.6,1.1-1,1.2c-4.1,0.8-6,4-4.4,7.7c0.5,1.2,0,1.7-0.6,2.3
		c-1.1,1.1-2.1,2.1-3.3,3.3c0.7,0.8,1.5,1.5,1.9,2.3c1.5,3.1,4,3.8,7.1,3.7c1.8,0,3.3,0.3,4.3-1.9c0.6-1.4,1.9-2.8,3.2-3.5
		c3.2-1.8,6.5-3.9,10-4.7c3.4-0.8,7.2-0.3,10.8-0.2c3.4,0.1,6.6,0.6,9.6,2.4c5.5,3.4,11.1,6.7,16.5,10.1c4.5,2.8,4.5,2.8,3.3,8
		c-0.5,2.4,1.1,4.4,3.5,4.5c1.3,0,2.6,0.3,3.8,0.6c3.9,1.2,7.7,2.5,11.5,3.8c-0.9-2.4-3.5-3.1-4.2-5.9c0.7,0.1,1.1,0.1,1.3,0.3
		c1.6,1.5,3.1,3.2,4.7,4.7c0.6,0.6,1.4,1.2,2.2,1.4c1.9,0.6,3.9,1,5.8,1.6c3,1,5.9,2,8.8,3c0.3,0.1,0.8,0.2,0.9,0.4
		c0.7,1.6,2.2,1.5,3.6,1.6c3.3,0.2,6.3,1,8.9,3c3.8,2.9,6.7,6.6,6.2,11.4c-0.9,9.2-5.2,16.7-13.2,21.6c-5.5,3.4-11.2,6.5-16.9,9.5
		c-1.4,0.7-3.1,1-4.6,1.1c-2.3,0.1-3.7-1.5-4.6-3.4c-0.9-1.8-0.3-3.4,0.9-5c0.4,0.8,0.5,1.5,0.5,2.3c0,1.5,0.2,2.9,1.6,3.8
		s2.6,0.6,3.9-0.1c6.2-3.4,12.6-6.5,18.6-10.3c7.8-5,11.8-12.3,11.2-21.8c-0.2-2.7-1.5-4.7-3.5-6.4c-5-4.2-10.5-4.1-16.3-2.2
		c-0.6,0.2-1.4,0-2-0.3c-0.5-0.2-0.9-0.8-1.5-1.1c-7.3-3.1-14.6-6.3-21.9-9.3c-5-2.1-11.5-0.3-15.1,3.9c-0.8,0.9-1.8,1.8-2.9,2.4
		c-4.4,2.1-8.9,4.3-13.5,6c-5.5,1.9-11.2,3.3-16.8,4.9c-0.6,0.2-1.4,0.2-2,0c-9.5-2.8-17.4-10.5-16.6-21.6c0.2-2.7,0.3-5.3,0.4-8.6
		c-1.8,0.6-3.7,0.6-4.8,1.5c-3,2.7-5.9,5.7-8.5,8.8c-2.5,3-4.8,6.1-6.8,9.4c-1.5,2.3,0.6,6.9,2.9,7.2c3.1,0.4,5.3,4.2,3.8,7.1
		c-0.9-0.7-1.7-1.4-2.6-2.1c-0.2,0.2-0.5,0.3-0.7,0.5c0.8,1.8,1.5,3.5,2.4,5.5c0.8-1,1.2-1.4,1.5-1.8c0.4,4-1.6,7.4-2.6,11.4
		c2.1-0.2,3.9-0.3,5.7-0.4c0.8,0,1.8-0.2,2.4,0.2c2.3,1.5,4.9,2.8,6.8,4.8c5.6,6,10.9,12.3,16.2,18.5c0.7,0.8,1.3,1.9,1.3,2.9
		c0,2.8-0.2,5.7-0.5,8.5c-0.3,2.9-1.7,3.7-4.5,2.7c-5.8-2.1-11.6-4.3-18.2-3.1c1.3-2,0.6-3.7,0-5.5c-2.2-6.4-4.3-12.7-6.5-19.1
		c-0.3-0.8-0.9-1.6-1.5-2.6c2.1-1.7,4.8-0.8,7.3-0.5s5,1.4,7.5,2.2c-1.8-2.2-3.9-4.1-6.2-5.9c-0.8-0.6-2.1-0.8-3.1-0.8
		c-1.9-0.1-3.9,0.1-5.8,0.1c-2.2,0-3.2,0.7-2.5,2.9c1.3,4.3,2.5,8.7,4.7,12.6c2.9,5.1,2.8,10.2,1.7,15.5c-0.9,4.4-0.5,5.3,3.5,7.2
		c1.1,0.5,2.2,1,3.4,1c4,0.1,8,0,11.5,0c0.9,1.6,1.7,3,2.5,4.4c-4.9-3.9-10.1-3.5-15.7-1c0.3-1,0.5-1.5,0.8-2.2
		c-1.1-0.1-2.1-0.2-3.1-0.3c-0.1,0.5-0.3,0.9-0.3,1.3c0.3,5.9,0.3,11.8,0.9,17.7c0.5,5.6,3.7,10.3,6.3,15.1c0.5,1,1.6,1.8,2.7,2.3
		c7.3,3.5,14.9,4.8,22.9,2.9c1.1-0.3,2.3-0.3,3.5-0.4c-2.1,3.6-5.9,3.2-9.3,4.5c6.6,2.8,13.3,2.8,20.4,2.7
		c-6.7,3.5-13.2,2.8-19.8,1.6c0.1,4.4,0,4.5,2.6,7.9c3.6,4.7,6.1,9.7,7.5,15.5c1.5,6.1,3.3,12.1,4.9,18.1c2.1,8.4,4.2,16.8,6.2,25.3
		c0.8,3.2,1.4,6.4,1.9,9.6c0.9,6,1.7,12.1,2.6,18.1c0.1,1,0.2,1.9,0.3,2.9c0.1,1,0.2,1.9,0.3,2.5c1.2-4.1,2.3-8.5,3.8-12.8
		c1.9-5.4,3.9-10.9,6.1-16.1c2.1-4.8,4.7-9.5,6.9-14.2c2.5-5.2,4.8-10.5,7.2-15.7c1.8-3.8,3.7-7.6,5.5-11.5c0.8-1.8,1.3-3.8,2.2-5.6
		c5.6-11.5,10.6-23.2,13.2-35.7c2.2-10.6,4-21.3,5.8-32c0.7-3.8,0.5-7.5-1.9-11c-1.9-2.7-3.4-5.7-5.1-8.6c-1.2-2.1-0.8-4.1,0-6.2
		c0.4,1.2,0.4,2.4,0.7,3.6c0.2,1,0.7,2.5,1.3,2.7c2.2,0.5,2.9,2.4,4.3,3.6c1.7,1.6,2.6,1.5,4.2-0.2c0.5-0.5,1-0.9,1.6-1.3
		c0.2,2.5-0.9,4.1-2.8,4.9c1.3,0.7,2.8,1.3,4,2.2c1.5,1.2,2.9,2.6,4.2,4c0.7,0.8,1.3,1.7,1.8,2.6c0.7,1.5,3.4,3.7,4.7,3
		c1.5-0.7,2.9,0,4.2-0.4c0.3-0.1,0.5-0.2,0.6-0.2c-0.3-1.2-0.5-2.3-0.7-3c1.3-0.4,2.4-0.7,3.5-1c-0.2-1.1-0.2-2-0.6-2.7
		c-1.3-2.8-1.4-2.9,0.4-4c2.4-0.3,3.9-0.6,5.5-0.7c3.8-0.3,5-3.8,7.4-5.8c-2,4.3-4.7,7.3-10,6.8c-1-0.1-2.1,0.3-3,0.8
		c-0.4,0.2-0.6,1-0.8,1.5c0.2,0.1,0.4,0.2,0.5,0.3c0.3-0.3,0.6-0.6,0.9-1c0.2,1.5,0.4,2.9,0.7,4.6c-1,0.5-2.2,1.1-3.8,1.9
		c0.8,1.1,1.5,2.1,2,2.8c-1.7,0.3-3.6,0.7-5.4,1c0,0.2,0,0.4-0.1,0.5c1.4,0.4,2.9,0.9,4.3,1.3c0,0.2-0.1,0.3-0.1,0.5
		c-1.7-0.4-3.4-0.8-5.7-1.4C-32.6,264.1-29.9,268.3-27.2,272.7z M-81,370.9c2.1-2,4.4-3.9,6.7-5.7c8.5-6.6,15.1-14.9,20.8-24
		c1.4-2.3,2.3-2.4,3.6,0c2.2,3.8,4.2,7.8,6.3,11.8c0.4,0.7,0.8,1.3,1.5,2.5c0.2-3.1,0.6-5.6,0.6-8.1c0.1-8.5,0.4-17,0.2-25.4
		c-0.2-9.1-0.9-18.2-1.3-27.3c-0.5-10.9-4-21.3-5.7-32c-0.1-0.7-0.5-1.4-0.8-2.6c-0.3,0.8-0.5,1.3-0.6,1.8c-2,9.7-3.9,19.5-5.8,29.2
		c-1.6,7.8-4.2,15.2-7.6,22.4c-4.1,8.9-7.9,17.9-11.9,26.9c-2,4.4-4.2,8.6-6.3,12.9c-3.5,7.3-7.1,14.6-10.6,21.9
		c-1.3,2.7-2.2,5.5-3.4,8.2c0.1,0,0.2,0,0.3,0.1C-90.3,379.5-85.7,375.2-81,370.9z M-138.8,317.2c1.2,0.1,2.3,0.1,3.4,0.2
		c2.5,0.2,3.3,1.3,2.2,3.6c-1.7,3.4-3.6,6.6-5.4,9.9c-0.1,0.2-0.3,0.3-0.4,0.5c-1.2,1.8-1,10.7,0.2,12.4c3.6,5.3,7.7,10.3,10.8,15.8
		c3.7,6.7,6.9,13.8,9.7,21c3,7.4,5.2,15.1,7.9,22.6c2.3,6.5,5.8,12.3,11.3,16.8c-0.8-1.6-1.4-3.2-2.3-4.8c-2.9-5.5-3.5-11.4-4-17.5
		c-0.3-3.8-0.6-7.7-1.4-11.4c-2.5-11.6-5.2-23.2-7.8-34.8c-1.4-5.9-2.6-11.8-4.3-17.6c-1.5-5.5-3.1-11.1-5.3-16.4
		c-2-4.8-5.4-8.8-9.2-12.5c-1.9-1.9-3.3-4.3-4.8-6.5c-0.2-0.3-0.2-0.6-0.3-1c-0.2,0.1-0.3,0.3-0.5,0.4
		C-138.8,304.2-138.8,310.6-138.8,317.2z M-19.3,286.4c0.3,0.6,1,1.2,1.7,1.4c6.6,2.5,13.3,4.9,19.9,7.3c3.6,1.3,7.1,2.8,10.7,4
		c6,2,12,3.8,18.1,5.6c0.5,0.2,1.5,0.1,1.8-0.3s0.4-1.5,0.1-1.9c-0.9-1.2-1.9-2.7-3.2-3.3c-4-2-8.3-3.6-12.4-5.4
		c-2.2-1-4.3-2.3-6.6-3.1c-9.3-3.5-18.7-6.8-28-10.3c-2.1-0.8-4-1.7-6-2.6c-0.1,0.2-0.3,0.3-0.4,0.5
		C-22.2,281.2-20.8,283.8-19.3,286.4z M-127.4,155.9c1.7,1.6,3.5,3.1,5,4.8c0.7,0.8,1.3,2.2,1.3,3.2c0,1.3-1.1,0.8-1.9,0.4
		c-2-1.3-4-2.6-5.9-3.9c-0.3-0.2-0.6-0.3-1.1-0.2c1.7,1.3,3.4,2.5,5,4c0.5,0.5,1.1,1.5,0.9,2.1c-0.4,1.4-0.9,1.5-3,1.1
		c1.3,1.1,2.3,2,3.2,2.9c0.4,0.4,0.4,1.1,0.6,1.6c-0.6-0.1-1.4,0.1-1.8-0.3c-2.4-2-4.8-4-7.2-6c-0.7-0.6-1.4-1.1-2.3-1.3
		c2.9,2.6,5.8,5.3,8.6,7.9c0.4,0.4,0.9,0.7,1.2,1.1s0.5,0.9,0.7,1.4c-0.5,0.2-0.9,0.4-1.4,0.5c-0.4,0.2-0.8,0.3-1.7,1.1
		c0.6,0.3,1.2,0.4,1.7,0.9c0.3,0.4,0.3,1,0.5,1.6c-0.6-0.1-1.2,0-1.7-0.2s-0.9-0.7-1.3-1c-0.6,0.5-1.1,0.9-1.9,1.5
		c2.8,1,2,2.8,0.8,5c-1.1-0.7-2.1-1.3-3.7-2.4c0.2,0.9,0.4,1.4,0.5,1.8s0,0.9,0.1,1.3c-0.4,0-1,0.1-1.3-0.1c-1-0.7-1.8-1.5-2.8-2.3
		c-0.5,0.4-0.9,0.7-1.2,1c0.4,2.9,2.5,2.7,4.7,3.2c7.6,1.7,13.2-5.7,13.7-11.9c0.2-2,0.5-4,0.5-6c0.1-5.8-2.7-10.3-7-14.4
		C-126.3,154.8-126.6,155.2-127.4,155.9z M-118.7,159.1c2.8,3.9,3.1,8.3,2.7,12.9c-0.1,1.3-0.2,2.6-0.5,3.9
		c-0.8,2.9-0.1,3.7,3.1,3.2c0.3-2.3,0.6-4.7,0.9-7.1c0.8-6.2-1.2-11.6-5.1-16.2c-1.4-1.6-3.5-2.6-5.4-3.9c-0.1,0.2-0.2,0.4-0.3,0.5
		C-121.7,154.7-120.3,156.9-118.7,159.1z M-114.7,182.8c-1.1-0.6-2.1-1.3-3.3-2c-4.8,7.2-11.9,8.8-20.3,7.8
		C-132,193.2-122.7,190.7-114.7,182.8z M-98.6,167.3c-2.9,0.5-5.9,1-8.8,1.5c-0.1,0.1-0.1,0.3-0.2,0.4c0.9,0.2,1.7,0.5,2.6,0.5
		c0.8,0,1.6-0.4,2.4-0.5c0.5-0.1,1.1,0,1.6,0.3c1.2,0.7,2.2,6.1,1.1,7c-2.3,1.7-0.8,3.1,0,5.1c1.8-2.2,3.4-4.2,5-6.2
		C-98,173.2-98,173.2-98.6,167.3z M-109.7,156.6c0.5,0,1.1-0.7,1.7-1c-0.4-0.5-0.7-1.4-1.2-1.5c-1.7-0.6-3.5-1.1-5.3-1.5
		c-0.6-0.1-1.2,0.2-2.2,0.3C-114.7,155.2-112.4,156.3-109.7,156.6z M-107.1,158.1c1.9,1.5,3.8,3,5.7,4.4c0.2,0.2,1,0.2,1.1,0
		c0.2-0.3,0.4-0.9,0.2-1.3c-0.2-0.5-0.7-1.1-1.1-1.4c-1.5-1.1-3.1-2.1-4.6-3.2c-0.3-0.2-0.8-0.2-1.1-0.1c-0.2,0.1-0.4,0.5-0.6,0.8
		C-107.4,157.6-107.3,157.8-107.1,158.1z M-134.8,319.9c-1.4-0.1-2.6-0.2-4-0.3c0,2.4,0,4.8,0,7.8
		C-137.3,324.7-136.2,322.4-134.8,319.9z M-102.7,183.6c-1.1-1.3-1.8-2.1-2.5-2.8c0.2,0.3,0.4,0.6,0.5,1c-1.6,1.5-3.1,3-4.5,4.4
		C-107.2,186.6-105.8,183.4-102.7,183.6z M-161,156.1c-1.5,0.5-2.2,1-1.5,2.4c0.6,1.3,0.9,2.7,1.3,4.1c0.3,0,0.5,0,0.8,0
		C-160.6,160.4-160.8,158.3-161,156.1z M-169.5,162.7c0.1-0.2,0.2-0.4,0.3-0.5c-2.2-1.1-4.4-2.2-6.6-3.3c-0.1,0.3-0.2,0.5-0.4,0.8
		C-174,160.7-171.8,161.7-169.5,162.7z M-180,167.2c-1.2,2.8-1.2,2.8,1.6,3.9c-0.5-0.7-1.1-1.4-1.5-2.2c0,0,0.7-0.5,1.2-1
		C-179.2,167.7-179.6,167.6-180,167.2z M-132.9,152.9c-0.1-0.3-0.1-0.7-0.2-1c-1.2,0.3-2.4,0.5-3.6,0.8c0.1,0.3,0.1,0.6,0.2,0.9
		C-135.4,153.3-134.1,153.2-132.9,152.9z"/>
	<path class="st0" d="M47.9,450.4c-0.7-14,0.9-27.8,4.4-41.3c2-7.6,3.1-15.2,2.6-23.1c-0.2-3-0.1-6,0-9c0-0.9,0.7-1.8,1-2.7
		c0.5,0.8,1.3,1.6,1.4,2.5c0.3,3.3,0.6,6.7,0.4,10c-0.3,5.6-1.4,11.2-1.4,16.8c0,10.4-1.2,20.7-2.8,30.9c-0.1,0.6-0.3,1.2-0.5,1.8
		c-0.2,0-0.4-0.1-0.6-0.1c0.9-10.6,3.1-21.2,2.4-31.9c-4.8,15.8-6.3,32.1-6.7,48.5C48.1,452,48,451.2,47.9,450.4z M56.2,388
		c0.1,0,0.2,0,0.3,0c0-3.2,0-6.3,0-9.5c-0.1,0-0.2,0-0.3,0C56.2,381.7,56.2,384.9,56.2,388z"/>
	<path class="st0" d="M-85.7,153.6c-0.7-0.2-1.3-0.4-2-0.7c-0.5-0.2-1.2-0.7-1.5-0.6c-1.4,0.9-2.3-0.1-3.4-0.7
		c-0.8-0.5-1.6-0.8-2.5-1.1c-3.2-1.2-6.5-2.5-9.7-3.7c-2-0.8-4.1-1.6-6.2-2.2c-1.6-0.4-2.9-0.9-3.4-2.7c0.3-0.3,0.5-0.9,0.9-1
		c3.2-1.2,6.2-3.4,9.8-3.2c1.2,0.1,2.3,0.4,3.5,0.8c0.7,0.3,1.4,1,2.1,1.2c1,0.2,2.2,0.2,2.8,0.2c0.9,1.5,1.5,2.7,2.3,4
		c0.5,0.1,1.2,0.3,2,0.5c-1.4,2.3-1.3,2.9,0.8,3.8c0.6,0.3,1.4,0.4,1.9,0.9c1.1,1.2,2.1,2.6,3.1,3.9
		C-85.3,153.2-85.5,153.3-85.7,153.6z M-93.7,144.9c-1.5-1.7-3.3-3.1-5.1-4.4c-1-0.6-2.5-0.4-3.5-1c-2.2-1.4-4.1-0.2-6,0.5
		c-1.1,0.4-2,1.1-3.1,1.7c1,0.5,1.9,1,2.9,1.4c3.4,1.5,6.9,3,10.3,4.5c1.7,0.7,3.4,1.2,5.1,1.6c0.4,0.1,1-0.2,1.2-0.3
		C-92.6,147.4-92.8,145.9-93.7,144.9z"/>
	<path class="st0" d="M-80.8,296.4c0.4-0.9,0.7-1.9,1.1-2.8c2.1,1.1,2.6,0.8,2.6-1.4c0-2.8-0.4-5.6-0.1-8.3c0.3-3.5,1.1-7,1.8-10.4
		c0.1-0.5,0.4-1,0.3-1.4c-0.2-0.9-0.5-1.8-0.7-2.7c-0.6,0.7-1.5,1.3-1.7,2.2c-1.4,4.8-2.8,9.6-3.9,14.4c-0.6,2.7-0.5,5.5-0.6,8.3
		c0,0.8,0.4,1.5,0.6,2.3C-81.3,296.4-81,296.4-80.8,296.4z"/>
	<path class="st0" d="M37.7,441.7c0.1-0.7,0.2-1.4,0.2-2c-0.1-14.3,2.8-28.2,5.8-42.1c1.1-5.2,2.2-10.3,3.4-15.5
		c0.2-0.8,0.3-1.6,0.4-2.5c0-0.3-0.4-0.6-0.6-1c-0.3,0.2-0.7,0.4-0.9,0.7c-0.2,0.4-0.3,0.9-0.4,1.4c-3.2,14.5-6.6,28.9-7.8,43.7
		C37.3,430.1,37.7,435.9,37.7,441.7C37.6,441.7,37.6,441.7,37.7,441.7z"/>
	<path class="st0" d="M-59.7,220.1c0.8,1.5,1.6,2,3.1,1.3c5.8-2.7,10.1-7.1,12.7-12.7c2.2-4.8,2.7-9.9,0-14.9c-1.4-2.6-3.5-3.6-6-3
		c1.2,0.8,2.5,1.4,3.4,2.4c3.6,4.2,3.3,8.9,1.2,13.5C-48.3,212.7-53.1,217.3-59.7,220.1z"/>
	<path class="st0" d="M-136.9,198.7c0.5,1.4,0.9,2.4,1.3,3.4c1.1,2.3,2.2,4.5,3.2,6.8c0.3,0.6-0.1,1.5-0.1,2.4
		c2.3,5.5,4.7,11.2,7,16.6C-124.2,219.6-130.7,202.1-136.9,198.7z"/>
	<path class="st0" d="M-120.4,245.8c-0.6,0.9-1,1.5-1.4,2.1c-1.2-2.5-2.3-5-3.5-7.5c2.1,9.4,2.9,18.5-2,27.5
		C-123.5,266.2-118.7,251.2-120.4,245.8z"/>
	<path class="st0" d="M-138.2,115.1c0.7,1.4-0.2,1.1-0.9,0.8c-1.9-0.8-3.7-1.8-5.6-2.5c3.4,2.3,7,4.1,11.1,4.7
		c2.1,0.3,2-1.9,2.7-3.1c1.4-2.6,2.6-5.3,3.9-8c0.2,0.1,0.4,0.2,0.7,0.3c-0.4,2-0.7,3.9-1.1,5.9c0.1,0,0.2,0,0.2,0
		c1.8-4.4,3.6-8.7,5.5-13.4c-0.5,0.4-1.1,0.7-1.4,1.2c-1.3,2.6-3.1,4.8-5,7c-1.5,1.6-2.3,3.9-3.4,6c-0.2-0.2-0.4-0.5-0.6-0.9
		c-0.4,0.6-0.7,1.2-1.1,2c-3.2-0.9-5.4-3.4-7.6-5.6c-2.3-2.2-4.2-4.7-6.3-7.1c-0.2,0.1-0.3,0.2-0.5,0.3c1.8,2.6,3.5,5.3,5.3,7.9
		c-0.3-0.7-0.6-1.3-0.8-1.7c3.1,2.2,6.5,4.5,9.7,6.9c0.3,0.2,0.4,0.8,0.6,1.2c-0.5,0.2-1.1,0.7-1.3,0.6
		C-135.6,116.8-136.9,115.9-138.2,115.1z"/>
	<path class="st0" d="M-50.3,104.1c1.7,0.6,3.4,1.1,5.7,1.9c-1,0.3-1.3,0.6-1.6,0.5c-2.7-0.6-5.4-1.1-8-1.9
		c-0.8-0.2-1.4-1.2-2.2-1.8c-0.5-0.4-1-0.9-1.5-0.9c-0.5,0.1-1.2,0.8-1.2,1.2c0.1,0.6,0.5,1.5,1,1.8c1.5,0.6,3.2,0.9,4.8,1.4
		c3.8,1.2,7.5,2.4,11.3,3.6c1.1,0.3,2.3,0.3,3.4,0.4c0-0.2,0.1-0.4,0.1-0.6c-2.5-0.6-5-1.2-7.5-1.8c0-0.2,0-0.4,0-0.6
		c1.7-0.1,3.4-0.1,5.1-0.2c1.6-0.1,3.2-0.1,4.7-0.4c1.7-0.4,2.4-1.7,1.5-4c-0.2,2.8-1.5,3.5-3.9,3.2c0.7-1.1,1.3-2,2.2-3.3
		c-0.8,0.5-1.2,0.6-1.4,0.9c-1.2,2.3-3.2,2.3-5.4,1.9c-2.4-0.5-4.8-0.9-7.2-1.4C-50.2,103.9-50.2,104.1-50.3,104.1z"/>
	<path class="st0" d="M-79.8,316.2c6.4-6.5,13.5-12.4,16.7-21.4c-0.2-0.2-0.4-0.3-0.6-0.5c-5.6,7.1-11.2,14.1-16.9,21.2
		C-80.4,315.8-80.1,316.1-79.8,316.2z"/>
	<path class="st0" d="M-67.5,189.1c-2.8,0.6-3.9,3.2-3.9,8.9c-0.5,0.2-1.1,0.3-1.9,0.6c-1-2.6-2-5.1-3.1-7.8
		c-0.2,0.6-0.5,1.2-0.4,1.7c0.6,2.4,1.2,4.8,2.1,7.1c0.2,0.6,0.8,2.4,2.4,1.2c0.1-0.1,0.6,0.4,0.9,0.7c0.6,0.6,1.2,1.4,1.9,1.9
		c0.5,0.3,1.4,0.2,2,0.3c-0.3-0.7-0.5-1.3-0.8-2c-0.1-0.2-0.3-0.3,0.1-0.3c0.2-0.5,0.6-1.4,0.4-1.6c-2.9-2.6-2.3-5.5-0.9-8.6
		C-68.2,190.6-67.9,189.9-67.5,189.1z"/>
	<path class="st0" d="M-157.7,195.7c0.1-0.9,0.2-1.2,0.2-1.5c3.6,0,5.7,2,7,5.2c0.8,1.8,2.3,2.8,4.4,2.6c2.2-0.2,3.9-1.1,5.3-3.4
		c-1.4,0.7-2.4,1.4-3.5,1.8c-2.8,1-3.9,0.5-5.2-2.1c-1.1-2.1-2-4.3-3.2-6.3c-0.9-1.6-2.5-2.3-4.4-2.3c-2.5,0.1-3.3,1.6-2,3.8
		C-158.8,194.2-158.4,194.7-157.7,195.7z"/>
	<path class="st0" d="M-250,413.9c7.4,5.3,16,8.6,23.3,14c-0.1,0.3-0.1,0.5-0.2,0.8c-8.5-0.4-17-0.9-25.5-1.3c0,0.2,0,0.4-0.1,0.6
		c0.4,0.1,0.8,0.4,1.3,0.4c7.6,0.4,15.1,0.8,22.7,1.2c1,0,2-0.5,3.1-0.8c-0.7-0.9-1.2-2-2.1-2.6c-5.6-3.2-11.3-6.3-17-9.4
		C-246.3,415.7-248.2,414.7-250,413.9z"/>
	<path class="st0" d="M-249.5,368.9c3.1,14,5.2,28,2.3,42.8c0.8-1.9,1.9-3.4,2-4.9c0.3-4.9,0.5-9.8,0.4-14.8
		c-0.3-7.4-1.3-14.7-3.5-21.7c-0.2-0.5-0.4-1-0.6-1.5C-249.1,368.9-249.3,368.9-249.5,368.9z"/>
	<path class="st0" d="M-187.4,352.4c-0.4,1.1-1,2.3-1.2,3.4c-1,7.2-2.1,14.4-2.9,21.7c-0.9,8.1-1.7,16.2-2.5,24.3
		c0,0.2,0,0.4,0.5,0.6c0.5-2.8,1.1-5.5,1.4-8.3c1-10.1,1.8-20.2,3-30.3c0.4-3.8,1.5-7.4,2.2-11.2
		C-187.1,352.6-187.3,352.4-187.4,352.4z"/>
	<path class="st0" d="M10.7,172.7c-3.7-3.2-7.4-6.5-11.4-10.1c3.2,0.2,6,0.5,8.7,0.7c0-0.1,0-0.2,0-0.4c-0.8-0.1-1.6-0.3-2.9-0.6
		c3-1.1,6-1.1,7.4-3.7c-6.7,4.3-13.7,2.7-20.7,1.1c0,0.2-0.1,0.4-0.1,0.5c1.3,0.5,2.7,0.9,4,1.5c1.5,0.7,3,1.3,4.2,2.4
		c2.8,2.4,5.4,5,7.9,8C3.4,171-1,170-5.5,168.9c0,0.1-0.1,0.2-0.1,0.4c5.4,1.3,10.7,2.6,16.1,3.9C10.6,173.1,10.7,172.8,10.7,172.7z
		"/>
	<path class="st0" d="M-44.9,117.1c4.5,2.9,9.1,5.8,13.6,8.6c-0.1,0.2-0.1,0.4-0.2,0.6c-1.9,0.2-3.8,0.5-5.7,0.7c0,0.2,0,0.4,0,0.6
		c9.3-1,17.1,3.2,25,7c0.1-0.2,0.2-0.4,0.3-0.6c-2.9-1.5-5.7-3.5-8.7-4.4c-5.9-1.8-11.1-4.7-15.9-8.5c-2.4-1.9-5.4-3-8.1-4.5
		C-44.8,116.8-44.8,116.9-44.9,117.1z"/>
	<path class="st0" d="M-189.3,400.2c2.4-4.3,7.6-35.2,7.2-42.6C-184.4,371.7-186.9,386-189.3,400.2z"/>
	<path class="st0" d="M-34.8,178.2c6.6,2.8,13.5,5.1,18.9,10.7c-0.6-3.2-1.7-4-12.6-9.8c1.7,0.2,3.4,0.4,5,0.7
		c1.7,0.3,3.4,0.7,5.2,1.1c-1.3-1.4-3.6-2.3-8.1-2.6C-29.2,178.1-32,178.2-34.8,178.2z"/>
	<path class="st0" d="M2,153.6c-0.7-0.9-1.3-1.9-2.1-2.6c-5.4-4.1-10.9-8.2-16.3-12.3c-0.7-0.5-1.4-1.1-2-1.1
		c-4.6,0.5-9.1,1-13.6,1.4c3.8,0.9,7.7,0.8,11.5-0.5c1.3-0.5,2.2-0.3,3.2,0.4c6.4,4.9,12.8,9.8,19.1,14.6
		C1.9,153.7,1.9,153.6,2,153.6z"/>
	<path class="st0" d="M-63,206.8c-2.5,0-5.5,4.5-4.5,6.5c0.2,0.3,0.7,0.5,1.1,0.6c0.3,0.1,0.7-0.2,1-0.2c3.7-0.9,3.7-0.9,5.7,1.9
		c1.5-1.8,1.3-3.3-0.7-4.3c-0.2-0.1-0.5-0.2-0.8-0.3C-64.1,209.7-64.1,209.7-63,206.8z"/>
	<path class="st0" d="M-98.8,284.2c0.6-0.3,1.1-0.7,1.7-0.9c0.5-0.2,1.1-0.6,1.5-0.5c1.8,0.9,2.7-0.2,3.6-1.4c1.1-1.5,2.3-3,3.3-4.6
		c0.3-0.4,0.1-1.1,0.1-1.6c-0.5,0.1-1.1,0.1-1.5,0.4c-2.8,2.2-5.6,4.4-8.3,6.6c-0.4,0.4-0.7,1-1,1.5
		C-99.2,283.7-99,283.9-98.8,284.2z"/>
	<path class="st0" d="M-92.4,452.9c0.1,2.4,1.3,3.6,3.4,3.5c1.6-0.1,2.7-1.7,2.7-3.9c0-1.7-1.6-3-3.6-2.9
		C-91.5,449.7-92.4,451-92.4,452.9z"/>
	<path class="st0" d="M-81.8,98.8c12.8-2,25.2-2.2,36.6,5.2c0.2-0.3,0.3-0.5,0.5-0.8c-0.4-0.1-0.7-0.3-1.1-0.4
		c-4.6-1.8-9.2-4-13.9-5.4c-6.7-1.9-13.5-0.4-20.3,0.7C-80.6,98.2-81.2,98.6-81.8,98.8z"/>
	<path class="st0" d="M-129.9,279.2c-3,2.9-7,2.1-10.6,3c-0.5,0.1-1,0.5-1.5,0.7c0.4,0.5,0.7,1.1,1.2,1.5s1.2,0.7,1.7,0.6
		c3.4-0.3,6.5-1.2,8.8-4c0.4-0.4,0.5-1,0.8-1.5C-129.6,279.4-129.8,279.3-129.9,279.2z"/>
	<path class="st0" d="M-78.1,159.7c0.8,1.1,1.6,2.2,2.5,3.3c1,1.2,2.3,2.2,3.3,3.4c0.6,0.7,0.7,1.8,1.2,3.3c0.4-1.1,0.7-2,1-3
		c2.3,1.2,4.7,2.4,7,3.7c0.2-0.3,0.3-0.5,0.5-0.8C-67.8,166.3-72.9,163.2-78.1,159.7z"/>
	<path class="st0" d="M-220.7,391.2c-3.6-10.4-7-20.8-7.5-31.9C-228.8,370.7-225.5,381.2-220.7,391.2z"/>
	<path class="st0" d="M-78.3,181.7c1.6,1.2,3.1,2.4,4.9,3.7c-1.8,1.4-2.2,2.6-1.1,4c0.1,0.2-0.2,0.6-0.2,1c0.1,0.7,0,1.6,0.4,2.2
		c0.3,0.4,1.7,0.6,1.7,0.5c0.4-0.8,0.9-1.8,0.7-2.5c-0.5-1.4-1.5-2.7,0-4.1c0.2-0.2,0-0.9-0.2-1.1c-1.7-1.5-3.4-3-5.2-4.5
		C-77.7,181.2-78,181.4-78.3,181.7z"/>
	<path class="st0" d="M-129.2,243.6c-1.2,4.7-2.4,9.5-3.6,14.4C-128.5,255.6-126.8,248.1-129.2,243.6z"/>
	<path class="st0" d="M-29.5,118.4c-8.3-0.4-15.5-4.3-22.6-8C-49.2,114.8-33.5,120.3-29.5,118.4z"/>
	<path class="st0" d="M-216.6,351.7c-0.9,8.9-1.7,17.7-2.6,26.6c0.3,0,0.6,0.1,0.9,0.1c0.9-8.8,1.7-17.7,2.6-26.5
		C-216,351.8-216.3,351.8-216.6,351.7z"/>
	<path class="st0" d="M-117.4,218.8c1.8,6.1,3.4,11.7,4.9,17C-110.8,232.3-113.3,222.6-117.4,218.8z"/>
	<path class="st0" d="M-51.3,197.1c-1.1,4-2.2,8-3.4,12.2c1.9,0,2.4-1.7,3.1-3.1C-49.5,202.2-49.5,198.9-51.3,197.1z"/>
	<path class="st0" d="M-110.9,269.2c-3.5-1.3-3.6-1.7-3.5-5c0.1-2-0.2-3.9-0.2-5.9c-0.2,0-0.5,0-0.7,0c-0.4,3-0.9,6-1,9.1
		c0,2.3,1.3,3.4,3.2,3.2C-112.4,270.6-111.8,269.8-110.9,269.2z"/>
	<path class="st0" d="M-64,142.3c0-0.2,0.1-0.4,0-0.6c-1.8-2.9-3.6-5.7-5.9-8.4c0.5,1.1,0.9,2.2,1.4,3.3c-2,1.9,0.9,8.9,4.7,9.9
		c-1.1-1.7-2.1-2.9-2.8-4.2c-0.8-1.3-1.4-2.7-2.1-4c0.2-0.1,0.5-0.3,0.7-0.4c1.2,1.6,2.4,3.1,3.6,4.7
		C-64.3,142.6-64.2,142.4-64,142.3z"/>
	<path class="st0" d="M-64.2,189.2c0.8,0.4,1.2,0.7,1.7,0.8c0.6,0.1,1.2,0.1,1.7,0c0.2,0,0.4-0.9,0.2-1.1c-0.4-0.5-1-0.9-1.5-1.2
		c-0.2-0.1-0.5,0.1-0.8,0.1c-1-0.1-2.5-1.6-2.9,0.1c-0.4,1.8,0.1,3.8,0.3,5.8c0,0.2,1,0.6,1.4,0.5c0.3-0.1,0.6-0.9,0.6-1.3
		C-63.6,191.8-63.9,190.8-64.2,189.2z"/>
	<path class="st0" d="M-41.2,166.1c0.8-4.1-1.6-8.2-5.1-9.2c-3.7-1.1-8.8,0.6-9.8,3.2C-48.7,155.4-44.5,157.1-41.2,166.1z"/>
	<path class="st0" d="M-51.4,173.9c-1.2,0.6-1.1,0.6-0.5,2.8c0.3,1.1,0.5,2.2,0.8,3.5c-1.5,0-2.8,0-4.4,0c2.1,2.1,5.9,2.7,7.1,1.6
		C-49.4,179.2-50.4,176.6-51.4,173.9z"/>
	<path class="st0" d="M-5.5,233.1c-1.6-1.3-3.2-2.6-4.7-3.9c3.8-1.6,7.4-3,10.9-4.5c0.5-0.2,0.8-0.6,0.9-0.7
		c-3.1,1.1-6.6,2.2-10,3.5c-2.1,0.8-3.4,0.1-4.2-2c-0.3-0.7-0.6-1.3-1.1-2.2C-13.4,227.9-8.9,233.1-5.5,233.1z"/>
	<path class="st0" d="M-34,130.2c6.4,2.2,13.1,3.7,19.2,7.2c-0.2-0.4-0.3-1-0.6-1.2C-21.1,132.8-27.5,131.2-34,130.2z"/>
	<path class="st0" d="M-58.8,153.8c-4.6-1.2-9.3-2.4-13.9-3.6C-72,152.3-61.7,155.4-58.8,153.8z"/>
	<path class="st0" d="M-0.2,175.3c1.3,1.8,2.3,3.1,3.6,4.9c-2.1-0.6-3.8-1.1-5.5-1.7c5.7,2.1,9.7,5.4,10,12c0.9-3.9-1-6.7-3.4-9.4
		c0.9,0.4,1.8,0.8,2.7,1.1c0-0.1,0.1-0.2,0.1-0.3C4.9,179.9,2.6,177.8-0.2,175.3z"/>
	<path class="st0" d="M-203.2,372.2c-1.3,3.4-2.5,6.9-5.1,9.5c-0.2,0-0.5-0.1-0.7-0.1c-0.2-3.5-0.5-6.9-0.7-10.4c-0.1,0-0.1,0-0.2,0
		c0,3.5-0.2,6.9,0.1,10.4c0.1,1.5,1.8,1.7,2.7,0.1c1.7-3,3.2-6.1,4.7-9.1C-202.7,372.4-203,372.2-203.2,372.2z"/>
	<path class="st0" d="M8.6,157.3c-6.9-1.1-13.4-2.7-19.4-6C-8.8,154.6,4.7,158.7,8.6,157.3z"/>
	<path class="st0" d="M-59.3,157.2c-4.9-1.2-10.3,0.2-13.8-4.4c0.2,0.7,0.2,1.4,0.6,1.9C-70.8,157.4-62.6,159.2-59.3,157.2z"/>
	<path class="st0" d="M-1,191.1C-3.3,196,2.7,205,9,203.5C2.4,201.8-0.7,197.7-1,191.1z"/>
	<path class="st0" d="M-39.3,148.8c0.3-2.4-1.1-3.8-3-4.7c-3.3-1.6-6.7-1.5-10.1-0.1C-47.5,144.2-42.2,143.1-39.3,148.8z"/>
	<path class="st0" d="M-98.7,94.2c-6.8-0.2-13.5-0.1-19.5,3.8C-112,95.1-105.2,95.1-98.7,94.2z"/>
	<path class="st0" d="M-53.1,227.2c-0.5,0.5-0.7,0.6-0.6,0.7c0.4,3,0.8,6.1,1.4,9c0.1,0.6,1.1,1.1,2,1.4
		C-53.7,235.3-50.9,230.8-53.1,227.2z"/>
	<path class="st0" d="M-33.8,230.6c-2.7-0.4-5.2-0.4-5.8-3.1c-0.5-2.1-0.4-4.3-0.9-6.5c-0.2,0.4-0.4,0.9-0.5,1.3
		c0,1.5-0.1,3.1,0.1,4.6C-40.6,230.2-37.7,231.9-33.8,230.6z"/>
	<path class="st0" d="M-71.4,146.1c3.6,1.9,6.7,5,11,5.3c0.1-0.2,0.2-0.4,0.2-0.6c-3.7-1.8-7.3-3.6-11-5.4
		C-71.2,145.7-71.3,145.8-71.4,146.1z"/>
	<path class="st0" d="M-41.7,140.3c-2.1-2-10.4-1.6-12,0C-49.8,140.3-45.8,140.3-41.7,140.3z"/>
	<path class="st0" d="M-75.8,169.3c1.4,1,2.8,2.1,4.2,3.1c-0.2,0.2-0.3,0.4-0.5,0.6c-0.4,0-0.7-0.1-1.5-0.1c1.6,0.9,3,1.7,4.4,2.4
		C-69,173.3-73.2,169.2-75.8,169.3z"/>
	<path class="st0" d="M-147.2,263.7c3.3,1,7-0.3,9.6,3C-138.3,262.8-142.1,261.8-147.2,263.7z"/>
	<path class="st0" d="M9.6,206.1c-2.3,1-4.6,2.1-6.9,3.1c3.2-0.1,5.8-1.6,8-3.9c-3.2,0-6.3,0-9.5,0c0,0.1,0,0.3,0,0.4
		c2.7,0,5.5,0,8.2,0C9.5,205.7,9.6,205.9,9.6,206.1z"/>
	<path class="st0" d="M-25.7,229.2c-4.3,2.5-4.6,7.5-7.1,11.1c0.3,0.2,0.5,0.3,0.8,0.5c1-2,1.8-4,2.9-5.9
		C-28.1,233.1-26.9,231.2-25.7,229.2z"/>
	<path class="st0" d="M-12.5,232.1c1.1,5.2-3.4,5.5-6.1,7.5c3.1-0.4,5.5-2.2,8.4-4.1C-13.3,235.3-11.6,233.2-12.5,232.1z"/>
	<path class="st0" d="M-46.5,238.6c-4.1,2.4-6.9,0.4-9.6-3.1c0.8,2.8,2.6,4.5,4.7,4.9C-49.5,240.7-47.8,240.3-46.5,238.6z"/>
	<path class="st0" d="M-158.5,203.8c-0.4,0.5-0.8,0.8-0.9,1.2c-0.3,0.8-0.6,1.6-0.7,2.4c-0.1,0.5,0.1,1,0.2,1.5
		c0.5-0.2,1.4-0.3,1.5-0.6c0.4-1,0.5-2.2,0.7-3.3C-157.6,204.7-158.1,204.3-158.5,203.8z"/>
	<path class="st0" d="M5.2,221.9c-3.4-1.6-5.8-3.8-5.2-8C-1.9,218.1,1.2,221.9,5.2,221.9z"/>
	<path class="st0" d="M-102.8,96.7c4.5,0,9.1,0,13.6,0c0-0.1,0-0.2,0-0.3c-4.6,0-9.1,0-13.7,0C-102.8,96.6-102.8,96.6-102.8,96.7z"
		/>
	<path class="st0" d="M-5.3,189.9c-3.3,2.4-7,3.5-11.3,3.2C-13.4,194.9-7.7,193.3-5.3,189.9z"/>
	<path class="st0" d="M-57.9,201.6c0.3,1.6,0.6,3.3,1,4.9c0,0.2,0.7,0.4,0.9,0.3c0.3-0.2,0.7-0.7,0.6-0.9c-0.4-1.5-0.8-3-1.3-4.5
		C-57.1,201.2-57.5,201.4-57.9,201.6z"/>
	<path class="st0" d="M-10,206.7c3.1,1.2,6.2,1.6,9.4,0.6C-3.7,207.1-6.8,206.8-10,206.7z"/>
	<path class="st0" d="M-100,93.1c5.2,0.4,10.3,0.8,15.5,1.3c0-0.1,0-0.3,0-0.4c-5.2-0.4-10.3-0.7-15.5-1.1
		C-100,92.8-100,92.9-100,93.1z"/>
	<path class="st0" d="M-26.6,204.2c-0.2,2-0.3,4-0.5,6c0.1,0,0.3,0.1,0.4,0.1c0.3-1.3,0.5-2.7,0.8-4.3c0.5,0.8,0.8,1.4,1.2,2.1
		c0.1,0,0.2-0.1,0.3-0.1c-0.5-1.2-0.9-2.5-1.4-3.7C-26,204.2-26.3,204.2-26.6,204.2z"/>
	<path class="st0" d="M-49.4,226.2c0.5,2.1,0.9,4.2,1.4,6.1C-47,230.7-47.6,227.9-49.4,226.2z"/>
	<path class="st0" d="M7.1,178.8c2.3,1,4.6,2,6.9,3c0.1-0.2,0.2-0.3,0.2-0.5c-2.3-1-4.6-2-6.9-2.9C7.2,178.6,7.1,178.7,7.1,178.8z"
		/>
</g>
</svg>
