<?xml version="1.0" encoding="utf-8"?>
<!-- Generator: Adobe Illustrator 19.1.1, SVG Export Plug-In . SVG Version: 6.00 Build 0)  -->
<svg version="1.1" id="Слой_1" xmlns="http://www.w3.org/2000/svg" xmlns:xlink="http://www.w3.org/1999/xlink" x="0px" y="0px"
	 viewBox="-273.4 293.2 247.9 343.2" style="enable-background:new -273.4 293.2 247.9 343.2;" xml:space="preserve">
<g>
	<path d="M-48,461.1c-6.9,10.4-17.5,13.7-28.8,14.5c-12.9,0.9-25.5-1.3-35.1-10.8c-5.9-5.8-10.8-12.7-13.6-20.8
		c-2.3-6.6-5.2-12.9-3.2-20.3c1-3.7,1.1-8.6-3.5-10.7c-4.8-2.1-9.9-2.9-15-0.3c-1.2,0.6-1.2,1.3-1.4,2.3c-1,5.1-4,9.8-3.1,15.4
		c0.2,1.3-0.7,3.6-1.7,4.2c-4,2.2-4.8,6.1-6.1,9.8c-1.2,3.6-1.3,3.5-5.4,3.8c-0.7,0.1-1.4,0.9-1.9,1.5
		c-13.9,15.6-30.9,15.4-49.3,10.3c-13.5-3.7-22.7-11.4-24.9-25.5c-1-6.5-0.2-13.2-0.2-21c-5,5.1-5.4,10.9-7.3,16
		c-2.3,6.4-0.2,12.7,0.4,19c0.6,5.9,2.1,11.6,1.4,17.6c-2.4-0.3-1.8-2.1-1.7-3.4c0.2-3.6,0.3-7.1-1.8-10.2c-0.5-0.8-0.5-2.1-2-1.3
		c-0.7,0.4-1.1,1-0.6,2c0.5,1.2,0.5,2.6,0.9,3.8c1.8,5.9,1.2,7.4-5,8.7c-2.5,0.5-4.5,1.6-4.9,3.5c-0.4,1.6,0.4,4.2,3,4.7
		c1.1,0.2,1.1,0.9,1.3,1.7c0.8,3.3-3,4.2-3.8,6.9c-0.4,1.4-2.5-0.9-3.9-1.7c-8.1-4.7-9-11.3-7.7-20.2c1.2-8.2,1.9-16.7,2.5-25
		c0.6-9.3,0.8-18.9,3.4-27.8c2-6.8,7.1-12.7,11.1-18.9c3.2-5,5.8-10.2,6.5-16.2c0.3-2.6,1.2-5,3.4-6.9c6-5,11.9-10,17.9-15.1
		c0.6-0.5,1.5-1,1.8-1.7c4.6-10.1,14.3-12.8,23.3-16.4c4.7-1.9,8-6.4,13-7.5c12.6-2.8,23.2-10.1,34.7-15.1
		c5.2-2.2,10.2-6.1,16.9-4.6c2.7,0.6,6.5-1.3,9-4.1c5.1-5.8,11.8-3.8,16.5-0.7c5.4,3.6,12.2,4.6,16.8,9.3
		c7.8,7.9,18.1,12.7,25.1,21.7c5.8,7.5,12.3,14.6,18.1,22.3c10.9,14.6,19,30.7,25.9,47.3c2.6,6.4,1.2,13.7,0.2,20.4
		c-1,6.5-1.8,13-2.6,19.4c-1.9,17.1-3.3,34.2-7,51c-2.3,10.5-7.7,16.4-17,17c-1.6,0.1-4.1,0.3-3.9-1.9c0.2-2.7-2.3-6.2,1.5-8.1
		c0.5-0.2,1.4-0.1,1-0.8c-3.9-5.4,0.7-10.2,0.8-15.4c0-3.9,1.1-7.8,3.1-11.2C-49,468.5-48.6,464.9-48,461.1z M-53.2,395.5
		c0,0,0.7-0.6,0.2-1.8c-3.2-7.1-3.9-14.6-4.9-22.3c-1.1-8.6-2.2-17.7-9-24.7c-2.7-2.7-5.2-5.8-7.3-9.3c-4.3-7.2-11.1-12.6-18-17.6
		c-6.7-4.8-14.6-5.5-22.3-6.7c-2.2-0.4-4.2-3-6.3-1.5c-1.9,1.4-3.7,1-5.6,1.2c-6.4,0.5-12.8-1.1-19.1,0.4
		c-16,3.9-31.2,10.2-45.4,18.5c-10,5.8-21,10.7-26.4,22.2c-2.7,5.8-6.1,11.3-8.3,17.4c-3,8.2-3.5,17.6-10.2,24.3
		c-0.6,0.6-0.5,1.1,0.1,1.6c0.4,0.3,0.7,0.2,1.1-0.3c4.6-5.6,11.4-7.5,17.9-9c3.8-0.9,7.1-4.1,11.2-3c4.5,1.2,9.1,2.4,13.7,1.7
		c4.1-0.6,7.2,2.6,11.4,2.3c7.7-0.5,15.4-0.3,23.1,0.8c8.1,1.1,16.2,2.5,24.4,2.8c6.3,0.3,12.5,2.5,18.5,1.8
		c7.6-0.8,14.8-0.1,22.2,1c6.7,1,13.5,3.2,20.2,2.1c4.6-0.7,8.3-1.3,12.6,1.5C-55.9,401.3-53,399.5-53.2,395.5z M-171.7,411.3
		c-4.6-5.1-4.1-7.1,2-9.5c1.3-0.5,1.6-1.2,0.2-1.9c-0.9-0.4-2.5-0.3-0.2-1.2c1.5-0.6,1.9-1.2-0.3-1.4c-1.3-0.1-2.2-1.4-2.6-2.7
		c-0.8-2.9-3.3-3.5-5.6-3.8c-12.8-1.3-25.8-2.3-38.5,0c-10.8,1.9-17,5.5-19.8,16.5c-0.9,3.5,3.4,7.6-1.4,10.4
		c-1.8,14.9-2.1,33,18,39.3c11,3.5,22,6.2,33.5,3c13.5-3.7,21-14.1,27.8-25.3c0.3-0.4,1.4-1.4,0.2-2c-3.2-1.6-1.6-3.1-0.7-5.5
		c0.9-2.5,2.4-5.1,4.1-5.8c5-2.1,2.8-5.5,2.5-8.7c-0.3,2.8-2.5,4.4-4,6.4c-1.7,2.3-5.5,1.6-6.3,3c-2.5,4.6-6.9,3.8-9.9,3.2
		c-5.9-1.2-11.6,0.5-17.4-0.7c-3.8-0.8-7.7-1.2-11.5-2.3c-3.3-0.9-4.3-5.3-8.3-4.6c0,0-0.7-0.5,0-1.1c2.4-2,0.3-2.5-1.1-3.1
		c-1.2-0.5-2.5-0.8-3.6-1.4c-1.2-0.7-3.1-0.9-2.8-2.9c0.1-0.6,1.1-1.4,1.8-1.5c1.4-0.3,2.8-0.5,3.2,1.8c0.2,1.3,2.1,2.2,3.7,2.6
		c6.7,1.6,13.5,2.6,20.4,2.4c1.5,0,3.5,0.8,4.4-2c-3.4,0-6.7,0-9.9,0c-1.3,0-2.6-0.4-2.1-1.9c0.3-1.1-1.6-2.6,0.2-2.9
		c4.6-0.7,3.3-4.4,3.6-6.3c2-2.5,0.9,3.1,3.4,0.4c1-1.1,3.1-0.2,4.3,1.3c0.4,0.5,1,1.7,1.8,0.6c3-4,3.9,0.2,6.3,1.3
		c-1.9,0.5-3.2,0.7-4.3,1.2c-0.8,0.3-2.2,0.5-1.7,1.9c0.3,0.9,1.1,2.3,1.6,2.2C-177.8,410.3-174.9,412.9-171.7,411.3z M-115.6,451.5
		c1.8,1.1,0.1,3.1,1,5c5.7,10.8,14.9,15.8,26.6,16.1c5.9,0.1,12.5,2.4,18-2.1c4.7,3.4,5.5-0.4,6.9-3.6c0.7-1.5,1.6-3,2.9-3.9
		c2-1.3,0.6-5.1,4.1-5c-2.6-3,3.9-5.5,0.6-8.6c-0.2-0.2,0-1.1,0.2-1.4c1.6-2,1.4-4.6,2.1-6.7c1.3-3.6-0.1-6.5-2-8
		c-1.8-1.5-5.4-1.3-8,0.3c-3.9,2.4-8.7,2.2-12.8,4.1c-2.5,1.1-5.3,1.1-8.4,0.3c-3.8-1-8.3-2.3-11.6-1.7c-5.2,1-9.7,1.9-14.4-1
		c-2.8-1.7-2.2,3.5-4.7,2.3C-112.2,442.3-114.7,446.7-115.6,451.5z M-141.2,399.6c-1.2-1-2.3-0.1-2.9,0.2c-2.4,1.5-5.3,2.7-4.5,6.4
		c0.7,3.5,3.4,2.2,5.5,2.5c2.7,0.3,5.4-0.3,8.3,0.7c1.3,0.5,3.7,3.1,5,0.2c1.2-2.6,1.4-5.7-1.9-7.5
		C-134.7,400.6-137.9,399.5-141.2,399.6z M-111.5,418c-4.6-3.9-5.6-8.6-2-9.4c5.1-1.3,0.2-4.1,1.6-5.6c-1-0.8-1.6-2.6-3.1-2
		c-3.6,1.3-7.8,2.3-8.2,6.8c2.3,0.6,4.9-0.1,5.8,2.5c1.6,4.6-4.7,0.7-4.6,4.4C-118.1,414.1-117.2,421.7-111.5,418z M-164.4,402.7
		c-1.9,1.1-3.6,1.2-3.1,3.1c0.2,1,1.1,1.7,0.5,3.2c-0.7,1.6,4.6,7.9,6.4,7.6c1.6-0.3,3.8-1.9,2.7-3.1c-1.5-1.7,0.1-2,0.5-2.7
		c0.8-1.7,2.1-3.3,2.8-5.1c0.5-1.2,0.3-2.9-1.2-3.4c-0.8-0.2-2.2,0.2-2.6,1.5c-1.4,4.2-3.2,4.8-5.3,0.4
		C-164.1,403.6-164.3,403-164.4,402.7z M-102.2,419.6c4.1,1,5.9-3.2,8.3-6.3c0.9-1.2,0.2-2.6-1.2-3.2c-0.9-0.4-1.9-0.6-2.4,0.7
		c-1.7,4.6-3.8,4.2-6.3,0.5c-0.4-0.6-0.9-1.6-1.9-0.8c-0.6,0.6-2.2,1.3-1.4,2.1c1.5,1.5,0,2.5,0,3.6
		C-107,418.1-106,420.1-102.2,419.6z M-45.6,488.9c-0.8-2.2-2.7-2.9-4.6-3.1c-1.1-0.1-3.2-1-3.3,1.4c-0.1,2.9,2.7,2.3,4.2,3.1
		C-47.8,491.2-46.8,489.7-45.6,488.9z M-53.6,413.7c-2.3-1.2-5.2-0.6-4.4-3.7c0.1-0.2-0.7-0.6-1-0.9c-0.6,2-2.6,2.6-3.8,4
		c1.9,0.1,2.2,3.1,4.3,2.5C-57.2,415.4-56,414.7-53.6,413.7z"/>
	<path d="M-77.1,551.5c2.1-1.7,4.7-2.6,5.8-6.4c2.2,9.2,4.7,16.9,10.4,23.1c1.9,2.1,2.5,4.7,2.4,7.7c-0.5,10.1-4.4,18.5-11.4,25.7
		c-4.6,4.7-8.8,9.8-13,14.9c-1.6,1.9-3.6,0.2-5.2,1.1c-0.2-1.3-2-3.1,1.1-3.2c0.1,0,0.3-0.7,0.2-0.9c-3.5-4.3,0.9-9.6-1.8-14
		c-1.4-2.2-0.8-5,0.2-6.4c2.4-3.1,0-4.6-1-6.8c-0.9-2-2.6-1.9-3.6-1.1c-1.6,1.3,0.9,2,1,3.2c-5.6-0.8-16.9,8.6-16.6,14.1
		c-1.9-0.9-2.1-2.9-3.6-4.1c-6.4-5-6.1-4.7-13.5-1.5c-2.8,1.2-6.6,0.3-9.2,2.9c-0.5,0.5-1.5-0.2-2.1-1c-0.9-1.2-0.2-1.7,0.9-2.1
		c0.7-0.3,1.6-0.8,1-1.8c-0.6-1-1.3-0.5-2.1-0.2c-1.3,0.4-2.1-0.3-3.1-1.1c-2.4-1.9-2.4-1.8-3.7,0.7c-0.2,0.3-0.8,0.5-1.1,0.5
		c-1.4-0.2-2.8-0.6-4.2-0.9c1.5-2.7-1.7-3.2-2.3-4.9c-2.5,1.9-3.8-2-6.4-1.3c-2.7,0.7-4.8-0.2-5.3-3.9c-0.2-1.2-3.3-2.4-5-3.9
		c-3-2.7-6.2-5.1-9.1-7.9c-3.7-3.6-9.1-3.1-13.8-3.9c-4.6-0.8-7.2-3-9.7-6.6c-1-1.4-2.7-3.4-5.1-3.6c-1.9-0.1-1.5-1.6-2.6-3.5
		c3.2,1.6,5.6,2.6,7.8,3.8c1.2,0.6,2.3,3.2,3.7,0.2c0-0.1,1.9,0.3,2,0.7c1.6,5.9,7.1,4.6,11,5.6c3.4,0.9,6.8,1.4,9.7,3.6
		c1.8,1.4,3.4,0,5.1-0.3c4.2-0.6,8.1,0.9,11.9,2.1c6.7,2.2,13.4,2.5,19.9,0.6c3.3-0.9,6.5-2.4,9.9-2.9c0.3,0,0.6-0.2,0.8-0.4
		c3.1-3.3,3.5-3.4,6.2,0.9c1.6,2.6,2.1,2.5,3.2-0.3c1.8-4.4,8.8-7.8,13.9-7.2c0.8,0.1,2.2,0.2,2.4-0.2c3.4-6.1,9.5-3.9,14.5-4.5
		c2.2-0.3,2.9-0.1,3.5-2.6c0.6-2.3,3.1-4,4.8-6c0.1-0.1,0.8,0,1.1,0.2C-75.6,548.8-78.1,550-77.1,551.5z M-62.2,570
		c-4.6-2-9-1.3-14,0.9C-70.8,573-66.6,570.3-62.2,570z"/>
	<path d="M-231.9,541c-1.2,4.1-0.2,8.4-0.9,12.5c-1.4,9.4,1.4,18.7-0.4,28.2c-0.7,3.6-0.4,8.2,0.5,12.3c1,4.5,0.3,9.2,0.8,13.9
		c0.9,8.1,3.9,15,8.4,21.5c1.6,2.3,2.3,4.7,3.5,7.1c-4.9-3-7.7-8-11.4-12c-7.7-8.6-15.4-17.3-23.6-25.4c-2.2-2.1-2.6-3.8-1.7-6.8
		c4.1-13.8,10.7-26.2,19.7-37.3c4-4.9,2.2-10.2,3.2-15.2c1,0.4,1,0.4,1.8,1.4L-231.9,541z"/>
	<path d="M-182.2,507.6c8-2,13.7-7.7,22-7.2c3.1,0.2,6.5,0.9,9.8-0.4c1.4-0.5,3.4-2,5.5-0.4c3.7,2.8,7.1-0.3,8.5-2.4
		c1.3-2.1,2.4-1.6,2.8-0.7c0.8,2,2.1,0.9,3.2,0.9c5.1,0.3,8.5,3.9,12.3,6.5c2.7,1.9,5.2,4,8,5.6c1,0.6,2.3,0.9,2.2,2.3
		c-0.2,1.6-1.9,0.8-2.8,1.3c-3.8,2.1-7.7-0.2-11.1-0.8c-15.5-2.9-31-3.8-46.7-3.6C-172.7,508.8-177,510.6-182.2,507.6z"/>
	<path d="M-113.8,469.3c0.2,5.8-7.1,10.5-12.4,8.3c-3.7-1.6-7.8-4-11.4-3.5c-5.1,0.7-8.2-0.7-11.8-3.9c-2.1-1.9-6.1-0.6-8.2,1.3
		c-4.6,4.1-6.9,0.4-11.4-2c4.5-0.7,7.1-2,9.5-4.1c3.4-2.9,8.9-2.1,13.5,1.7c2.1,1.7,3.7,2.9,5.4-0.3c0.6-1.2,2.3-2.2,3.2-1.7
		c5.8,3.4,13.3-0.3,18.6,4.7C-117,471.3-115.5,469.2-113.8,469.3z"/>
	<path d="M-144,522.7c3-0.3,7.3,0.4,11.7,1c1.7,0.3,3.1,1.3,3.2,2.6c0.1,1.2-1,2.3-2.9,2.6c-2.1,0.2-4.3,0.3-6.2,1
		c-5.5,2-10.1,0.7-15.4-1.1c-4.1-1.4-2.2-2.9-2-4.7c0.2-1.5,1-1.9,2.8-1.5C-150.5,523.1-147.9,522.7-144,522.7z"/>
	<path d="M-232,541.1c0.6-0.1,1.6-0.4,1.9-0.1c4.4,4.4,10.8,5.9,16.4,11.1c-2.9-1-5-1.1-5.9-2.2c-3.1-3.6-5.6-4.4-8,1.3
		c0.5-4.6-1.9-7.3-4.2-10.2C-231.9,541-232,541.1-232,541.1z"/>
</g>
</svg>
