<?xml version="1.0" encoding="utf-8"?>
<!-- Generator: Adobe Illustrator 19.1.1, SVG Export Plug-In . SVG Version: 6.00 Build 0)  -->
<svg version="1.1" id="Слой_1" xmlns="http://www.w3.org/2000/svg" xmlns:xlink="http://www.w3.org/1999/xlink" x="0px" y="0px"
	 viewBox="-273.4 293.2 227.4 313" style="enable-background:new -273.4 293.2 227.4 313;" xml:space="preserve">
<g>
	<g>
		<path d="M-160,293.2c3.1,0.6,6.2,1.1,9.3,1.8c5.5,1.2,10.8,2.9,16.1,4.5c0.7,0.2,1.5,0.7,1.9-0.4c0.2-0.4,0.6-0.4,1-0.4
			c6.7,1,13.5,0.7,20.2,2.2c4.3,1,7.7,3.3,10.3,6.8c3.3,4.4,6.2,9,7.7,14.4c0.3,1.1,0.3,2.2,0.3,3.3c0,0.4,0.1,0.9-0.4,1
			c-0.4,0.1-0.7-0.2-1-0.5c-1.5-1.3-2.3-3.1-3-5c-0.9-2.4-1.5-4.9-3-6.9c-0.7-0.9-1.4-2.4-2.6-1.8c-1.3,0.7-0.3,2,0.1,3.1
			c0.3,0.9,1.5,2.3,0.4,2.7c-1.2,0.4-1.3-1.4-1.7-2.4c-0.1-0.2-0.2-0.5-0.3-0.7c-2.4,0.9-2.4,0.9-0.6,4c-2-0.5-3.4-1.9-5-2.8
			c-0.7-0.4-1.4-0.9-2.2-1.3c-0.3-0.1-0.8-0.7-1.1,0c-0.2,0.5-0.1,0.9,0.3,1.2c0.2,0.1,0.3,0.3,0.5,0.3c2.9,0,3.6,2.6,4.7,4.5
			c0.5,0.8,2,1.4,1.3,2.3c-0.7,0.9-1.7-0.4-2.5-0.7c-0.8-0.3-1.8-0.6-2.2,0.1c-0.5,0.8,0.5,1.3,1,1.9c0.6,0.5,1.2,1,1.9,1.7
			c-1.5,0.4-2.4-0.3-3.3-0.9c-2.5-1.6-4.7-3.7-7.8-4.2c-0.7-0.1-1.3-1.3-2-2c-1.4-1.5-2.9-3-4.3-4.5c-0.1-0.1-0.3-0.4-0.4-0.4
			c-3.1,0-4.5-2.5-6.6-4.2c-0.1-0.1-0.3-0.1-1-0.4c4,7.4,9.6,12.3,17.4,15.5c-4.4,1.3-7.9-1.9-12-1.1c4,5.1,9.8,8.1,13.4,13.6
			c0.8-1.4-0.9-2.1-0.1-3.2c1.4,0.4,0.8,2.5,2.3,2.9c0.1-1,0.1-1-1.2-3.4c4,1.6,5.5,5.5,7.7,8.8c0.6-2.1,0.4-3.3-1.1-5.8
			c-1.2-2-2.6-3.9-3.8-5.9c-0.3-0.6-1.2-1.4-0.3-2c0.7-0.5,1.5,0.2,2,0.8c1.3,1.3,2,2.9,2.7,4.5c0.3,0.8,0.7,1.5,1.6,1.8
			c1.6,0.6,2.9,1.5,3.5,3.3c0.7-1.9,0.4-3.8-0.1-5.6c-0.5-1.9-1.1-3.7-1.8-5.9c1.9,1,2.6,2.4,3.3,3.9c0.3,0.6,0.1,1.6,1.4,1
			c0.7-0.3,1,0.7,1.3,1.2c0.5,0.8,0.4,2,1.3,2.7c0.4-0.8-0.1-1.4-0.3-2c-0.1-0.6-0.4-1.2,0.2-1.6c0.6-0.3,0.9,0.2,1.3,0.6
			c1.4,1.4,2.4,3.1,3.3,4.8c0.9,1.8,2.2,3.6,2.5,5.5c0.3,2-2.2,2.8-3.1,4.6c-0.9,1.7-2.1,3.3-3.3,4.8c-1.5,1.9-3.3,3.3-6,3.1
			c-0.3,0-0.7-0.1-0.8,0.1c-0.8,1.4-1.5,2.8-3.2,0.8c-0.4-0.4-0.5,0.6-0.6,1.1c-0.1,0.4,0.2,1-0.4,1.2c-0.5,0.2-1.1,0.2-1.4-0.4
			c-0.6-1.3-1.3-0.6-1.8-0.1c-1,0.9-1.8,1.9-2.7,2.8c-0.7,0.7-1.7,1.3-2.6,0.8c-0.8-0.4-0.4-1.6-0.3-2.4c0.2-1.9,1.5-3.6,1.3-5.8
			c-2.5,1.2-1.2,4-2.5,5.6c-0.8-0.2-0.4-1.1-1-1.6c-0.4,0.7-0.7,1.5-0.6,2.3c0,1.7-1,2.2-2.4,1.8c-1-0.3-1.5-0.1-1.8,0.9
			c-0.9-1.1-0.5-2.2-0.7-3.3c-0.1-0.4,0-0.9-0.4-1c-0.6-0.2-0.8,0.3-1,0.7c-0.1,0.2-0.3,0.5-0.3,0.7c0.4,2.8-1.9,3.6-3.7,4.6
			c-1.2,0.7-1.8,0-2-1.2c-0.3-2.1-0.6-4.3-0.9-6.4c-0.2-1.2-0.5-2.4-1.8-3.2c-1,1.5-0.3,3.1,0,4.5c0.8,4.2,0.6,4.7-3.5,5.6
			c-2.8,0.6-5.3,0.3-7.4-1.7c-0.5-0.5-0.8-0.5-1.4,0c-2.4,1.9-6.8,1.5-8.7-0.7c-0.2-0.3-0.4-0.7-0.4-1.1c-0.7-4.6-3.4-8.1-6.8-11
			c-1.8-1.6-3.7-3.1-5.5-4.7c-1.7-1.5-3.2-3.3-4.2-5.3c-0.2-0.4-0.7-0.9-0.3-1.4c0.5-0.5,1.1-0.1,1.6,0.1c1.3,0.5,2,1.7,2.8,2.7
			c1.1,1.3,2.1,2.9,3.8,3.5c0.5-2.2-0.1-4.2-2.3-7c-1.6-2-3.5-3.8-4.9-6.3c1.5,0.2,2.5,1,3.4,1.8c1.9,1.7,3.8,3.6,5.8,5.3
			c1.3,1.1,2.7,2.2,4.7,2.5c-0.3-0.5-0.4-0.7-0.5-0.9c-0.2-0.5-1.4-0.6-0.9-1.2c0.6-0.8,1.2,0.2,1.8,0.5c0.8,0.5,1.6,2.1,2.2,1.2
			c0.7-0.9-0.9-1.6-1.6-2.2c-1-0.8-2.2-1.5-2.7-3c1.7,0.3,2.8,1.4,4.2,1.9c1.4,0.6,2.8,1.3,4.3,1.8c0.5,0.2,1.1,0.8,1.5,0
			c0.3-0.7-0.3-1.1-0.7-1.4c-0.2-0.2-0.5-0.3-0.6-0.7c2.7-0.1,3.5,2.6,6.1,3.7c-1.6-3.5-4.4-5.2-6.4-8.1c2.3-0.3,4,0.7,5.6,1.8
			c2.2,1.5,4,3.6,5.9,5.5c1.4,1.4,2.7,3,4.6,4.2c-0.1-1.1-0.9-1.4-1.3-1.9c-0.6-0.8-0.9-1.6-0.1-2.3c1-0.8,1.2,0.4,1.7,0.8
			c0.6-0.8-0.3-1.3-0.4-2.3c1.2,0.6,1.8,1.5,2.4,2.3c1.1,1.5,2.1,3.2,3.5,4.5c0.4,0.4,1,1.2,1.6,0.6c0.5-0.5,0-1.2-0.4-1.7
			c-0.3-0.4-0.7-0.8-1.2-1.3c2.1-0.2,1.5-1.1,0.9-2.2c-1.3-2.1-2.5-4.2-4.7-6.1c2.5,0.2,4.2,1.1,5.8,2.5c0.4-2.1-1.2-2.8-2.2-4.1
			c0.9-0.2,1.3,0.5,1.7,0.9c1.3,1.5,2.2,3.2,3,5c0.3,0.7,0.4,1.7,1.7,1.2c0.6-0.2,0.9,0.5,1.2,1.1c0.3,0.6,0.4,1.4,1.3,1.6
			c0.4-1.2-0.2-2.2-0.5-3.2c-0.8-2.2-2.1-4.2-3.3-6.2c-0.4-0.6-1.6-1.3-0.2-2.1c0.1-0.1,0.1-0.4,0.1-0.5c-0.2-0.8-3.3-3.1-4.1-3.1
			c-1.9,0.1-3.5-0.8-5.2-1.6c-2-1-2.5-0.8-3.1,1.3c-0.3,1-0.8,0.6-1.3,0.5c-0.7-0.2-1.2-1.1-2.1-0.9c-0.3,1.2,1,1.6,1.3,2.6
			c-2.6-0.1-4.8-1.2-6.9-2.5c-2.2-1.3-4.3-1.4-6.7-0.8c-7.5,1.8-14.9,3.5-22.7,3.8c-2,0.1-4,0-6.1,0c-2.3-0.1-4.5,0.1-6.7,1
			c-0.7,0.3-1.5,0.6-2.3,0.1c-0.8-0.5-1.5-2-2.3,0.1c-0.1,0.4-1,0.1-1.4-0.2c-1.1-0.9-1.8-0.6-2.8,0.2c-1.4,1.2-3.3,1.5-5.1,1.6
			c-1.2,0-2.4,0-3.6,0.2c3.5,2.3,7.1,4.3,11.5,4.3c0.5,0,1-0.1,1.4,0.4c1.6,1.9,3.8,3,5.8,4.3c1.6,1,2.8,2.2,3.2,4.2
			c0.1,0.5,0.1,2.2,1.6,0.8c0.5-0.4,0.8,0.4,1.1,0.7c1.1,1.4,2,3.1,3.8,4.4c-1.8-5.7-6.3-8.8-10.2-12.8c2.3,0,3.5,1.2,4.7,2.4
			c0.9,0.8,1.6,1.7,2.4,2.6c0.3,0.3,0.5,1.1,1.2,0.6c0.7-0.4,0.6-1.1,0.3-1.7c-0.7-1.3-2.1-1.9-3.1-3c2.8-1.6-1.2-2.8,0-4.4
			c2.3,1.4,4,3.4,5.5,5.6c1,1.4,2.2,2.5,3.6,3.5c3.4,2.2,6.8,4.4,9.5,7.4c2.9,3.3,4.5,7.1,4.9,11.4c0.1,1.2-0.3,1.5-1.4,1.4
			c-0.3-0.1-0.6-0.2-0.9-0.2c-1.5-0.2-2.4-2.3-3.5-2.1c-1.5,0.3-2.8,0.2-4.1-0.4c-0.4-0.2-0.8-0.4-1.1-0.3c-2.9,0.9-4.7-1-6.8-2.3
			c-0.7-0.5-1.6-0.7-2.4-1.1c-0.2,1.2,0.5,1.5,1.2,1.9c0.5,0.3,1.1,0.4,1.6,0.7c0.7,0.4,1.2,1.2,0.9,2c-0.3,0.8-1.2,0.4-1.7,0.3
			c-1.6-0.3-3.1-1-4.5-1.9c-0.5-0.3-1-1.3-1.6-0.5c-0.5,0.7,0.6,1,1,1.4c0.2,0.2,0.2,0.4,0.5,1.2c-2.6-2-5.3,1-7.7-1.4
			c0.9,1.7,0.1,1.7-0.9,1.7c-2.1-0.1-3.9-0.9-5.7-1.8c-1-0.5-1.9-1.1-2.9-1.6c-0.4-0.2-0.9-0.8-1.3-0.2c-0.3,0.4-0.1,0.9,0.1,1.3
			c0.2,0.4,0.8,0.6,0.5,1.1c-0.4,0.5-1,0.2-1.5,0.1c-0.8-0.1-1.9-1.1-2.2,0.7c-0.1,0.5-0.4,0.3-0.7,0.2c-0.7-0.3-1.4-0.3-2.1,0.1
			c-1.9,1.2-3.5,0.4-4.9-0.9c-1.4-1.3-2.7-2.8-4.1-4.2c-1.8-1.8-4-2.9-6.6-2.9c-1.6,0-1.6,0.7-1,1.8c0.5,0.9,1.4,1.4,2.3,1.7
			c1.2,0.4,2.4,0.7,3.5,1.1c0.9,0.3,1.5,0.5,0.8,1.7c-0.8,1.3,0.6,1.6,1.4,2c1.9,1,2,1,0.4,2.6c-1.9,1.9-4.2,3.3-6.6,4.5
			c-3.8,2-7.9,3.5-11.2,6.3c-0.8,0.7-1.5,1.3-1.2,2.6c0.2,0.9-0.2,1.8-0.7,2.6c-1.5,2.4-2.1,4.9-2.2,7.7c-0.1,4.2-1.8,8.1-3.1,12.1
			c-0.8,2.6-1.3,5.2-1.4,7.9c-0.1,1.6-1,2.8-1.8,4c-0.3,0.5-0.6,0.7-0.2,1.5c1.2,2.2,2.5,4.6,0.2,7c-0.4,0.5-0.9,1.2-0.5,2
			c0.1,0,0.3,0,0.3-0.1c0.5-0.5,0.6-1.9,1.5-1.4c1,0.5,0.4,1.6,0.2,2.4c-0.4,1.8-1.8,3.2-2.8,4.7c-0.3,0.5-1.1,1.1-0.4,1.7
			c0.7,0.6,1-0.4,1.5-0.8c0.3-0.2,0.5-0.7,1.2-0.5c-0.8,3.5-0.8,7.1-2.9,10.3c-0.6,1-0.9,1.8-0.4,2.9c0.2,0.5,0.4,1.1,0.3,1.5
			c-0.4,1.1-0.4,1.9,0.8,2.6c0.5,0.3,0.3,1.2,0.1,1.9c-0.5,2-1,4-0.6,6.2c0.2,1.2-1,1.4-1.7,1.8c-2.6,1.5-4,1-5.3-1.6
			c-1.3-2.6-1.9-5.4-2.8-8.1c-0.5-1.4-1-2.8-1.9-4.1c-1.9-2.8-5.6-3.6-8.5-1.8c-2.4,1.5-4.3,3.3-4.9,6.4c-1.4,7.6-2.8,15.1-3.2,22.8
			c-0.4,8.2,0.6,16.2,4.1,23.8c3.6,7.8,7.8,15.3,12.6,22.4c2.8,4.2,5.8,5,9.8,2.7c0.8-0.5,1.2-1,1.1-2c-0.8-9.5-1.9-19-2.9-28.6
			c-0.5-4.6-0.9-9.2-0.9-13.8c0-0.4-0.2-1,0.3-1.2c0.5-0.2,1,0.1,1.4,0.5c1.1,0.9,1.3,2.2,1.4,3.5c0.2,2.9-0.4,5.9,1.5,8.5
			c0.3,0.4,0,1.1,0.1,1.7c0.6,19,2.6,37.9,8.6,56.1c2.8,8.5,8,15.5,13.4,22.3c7.2,9.1,16,16.6,24.9,24c3,2.5,6.1,4.7,8.9,7.3
			c5.6,5.1,12.4,6.8,19.7,7.3c0.8,0.1,1.7-0.1,2.5,0.4c-3.3,0-6.5,0-9.8,0c-0.6-0.7-1.5-0.7-2.3-0.8c-4.2-0.6-8.4-1.1-11.6-4.4
			c-2.3-2.4-5.2-4.1-8.2-5.6c-2.5-1.3-4.7-3.1-6.5-5.3c-1.9-2.3-3.7-4.6-6.2-6.2c-1.5-0.9-2.4-2.3-3.3-3.7c-0.5-0.8-0.9-1.4-1.7-2
			c-2.7-1.7-5-3.8-6.7-6.6c-1.4-2.2-3.1-4.2-4.6-6.3c-3.8-5.2-7.2-10.7-9.9-16.5c-3.8-8-5.9-16.5-6.5-25.3c-0.1-1.6-0.8-1.7-2-1.3
			c-1.1,0.4-2.1,1-3.2,1.4c-2.3,0.9-4.4,0.6-6.2-1.3c-1.7-1.8-3.2-3.6-4.3-5.7c-4.1-8.1-8.3-16.2-12.3-24.4
			c-1.3-2.6-2.1-5.4-2.8-8.3c-0.4-1.5-0.3-3.1-0.9-4.5c0-3.5,0-7,0-10.6c0.4-0.6,0.3-1.4,0.4-2.1c0.8-7,1.9-13.9,3.6-20.7
			c0.9-3.5,3.1-5.4,6.5-6.2c2.3-0.5,4.5-0.3,6.9-0.4c-0.2-0.7-0.4-1.3-0.5-2c-1.2-4.5-2.2-9.1-2.9-13.7c-0.9-6.1-1.1-12.2-1.9-18.2
			c-0.4-3.3-1.5-6.6-1.6-10c-0.4-10.9,0.6-21.7,2-32.5c1.5-11.7,6.6-21.2,15.6-28.7c12.9-10.8,26.6-20.5,40.5-29.9
			c2-1.4,4-2.6,6.6-3c4-0.5,7.3-2.9,11-4.4c2.4-1,4.9-2.1,7.5-1.7c3.4,0.5,6.2-0.7,9.1-2.1C-167,293.2-163.5,293.2-160,293.2z
			 M-167.4,352.3c-2-0.4-3.5-1.6-4.7-3.2c-1.8-2.3-1.8-2.3-3.3-2.8c2.2,3.5,3.8,7.3,8.7,8.1C-167.3,353.5-167.4,352.9-167.4,352.3
			c1.9-0.2,1.8-1.2,0.7-2.3c-0.5-0.6-1.1-1.1-1.7-1.5c-0.4-0.3-0.9-0.8-1.4-0.3c-0.5,0.5,0.1,1.1,0.5,1.5
			C-168.4,350.3-167.2,350.9-167.4,352.3z M-151.6,310.2c2.7,1.6,4.5,4.3,7.9,5.8c-1.7-3.9-5.2-5.9-7.1-9.6c2.9,0.9,4.8,2.4,6.4,4.3
			c1.7,2.1,3.4,4.3,5.1,6.4c1,1.2,2.3,2.2,4.1,2.9c-0.1-0.6-0.2-0.8-0.3-1c-0.5-1.1-1.4-1.8-2.2-2.8c-0.4-0.5-1.4-1-0.3-2
			c0.4-0.4,0.8-1.9-0.2-2.9c-5-4.7-10.4-8.9-16.7-11.7c-1.2-0.5-2.3-1.1-3.8-1.2c1.4,1.2,3.1,1.6,4,3.1c-0.4,0.3-0.7,0-1-0.1
			c-1.2-0.2-2.6-1.5-3.3,0.8c-0.2,0.6-0.9,0-1.3-0.2c-1.8-1-3.5-2.1-5.2-3.1c-1.3-0.7-2.6-1.3-4.4-0.9c2,1,3.6,2.1,4.6,3.8
			c0.5,0.8,0.1,1.7,0.9,2.4c4.3,3.8,8.3,7.9,11.2,12.9c0.7,1.2,1.8,2,3.5,2.2c-2.1-2.4-4.3-4.4-5.3-7.6c1.8,0.5,3,1.4,4,2.4
			c1.1,1.1,2.1,2.3,3.2,3.5c1,1.1,2,2.1,3.5,2.9C-145.5,316-149.9,314.1-151.6,310.2z M-213.5,347.1c-1.8-0.4-3.2-0.8-4.7-1
			c-2.1-0.3-4.2-0.1-6,1c-0.5,0.3-1,0.7-1,1.3c0,0.9,0.9,0.6,1.3,0.8c1.2,0.5,2.6,0.4,3.8,1.5c-1.6,0.2-3.1-0.7-4.4,0.6
			c1.5,0.5,3,0.9,4.3,1.4c2.1,0.8,4.1,1.7,6.4,1.4c2.2-0.3,3.9,0.2,5.4,1.9c0.6,0.7,1.5,1.3,2.7,0.6c-2.3-1.6-1.8-4.2-2.8-6.5
			c3.1,0.7,4.4,3.9,7.3,4.9c-1-4.2-3.4-7-6.7-9.1c-4.2-2.7-8.9-3.9-13.5-5.3c-0.3-0.1-0.6-0.3-0.9,0c-1.3,1.5-2.9,0.9-4.4,0.7
			c-0.9-0.1-1.7-0.1-2.4,0.3c-0.3,0.2-0.6,0.4-0.5,0.8c0.1,0.5,0.5,0.3,0.8,0.3c1.6,0.1,3.1,0.2,4.7,0.4
			C-220.4,343.8-216.8,344.6-213.5,347.1z M-170.1,321.9c-0.5-3.2-4.1-3.5-4.9-6.2c2.2,0.2,4,1.1,5.6,2.3c2.3,1.7,4.4,3.7,6.6,5.4
			c1.4,1.1,2.8,2.1,5.2,2.3c-2.3-1.8-4-3.4-5.6-5.2c-2.6-2.8-5.1-5.7-8.2-8.1c-3.7-2.9-7.9-4.5-12.6-4.7c-0.4,0-1-0.2-1.3,0.2
			c-0.3,0.5,0.3,0.9,0.5,1.3c0.5,0.7,1.5,1,1.5,2.1c-0.8,0.3-1-0.3-1.5-0.5c-1.8-0.6-2.9,0.1-3.3,1.8c-0.2,1,0.4,1.3,0.8,1.7
			c3,3.4,7.4,5,10.9,7.9c0.3,0.3,0.6,0.2,0.8-0.1c0.2-0.3,0-0.6-0.2-0.9c-0.5-0.8-1.7-1-1.8-2.6
			C-175.1,320.2-172.7,320.6-170.1,321.9z M-202,340.5c4.3,1,7.7,3.1,11.8,4.8c-1.7-3.4-4.2-5.2-7-6.7c-3.8-1.9-7.9-3-11.9-4.4
			c-1.2-0.4-1.6,0-1.3,1.2c0.4,1.2-0.2,1.1-1.1,0.9c-1.1-0.3-2.2-0.8-3.5-0.3c0.8,2.1,3.7,1.2,4.8,3.2c-2.7,0.5-5.1-1.6-8-0.1
			c7.2,3,14.7,4.5,20.4,10.2c0.4-4.4-4.5-3.2-5.7-6.2c2.6,1,5,1.9,7.5,2.9C-197.2,343.2-200.2,342.8-202,340.5z M-155.2,320
			c-0.4-3-1.6-5-3.2-6.9c-2.4-2.9-5.3-5.4-7.4-8.6c-0.2-0.3-0.4-0.6-0.7-0.6c-2.2,0.2-4.1-0.6-6-1.8c-0.3,0.7,0,1.1,0.3,1.6
			c0.2,0.4,1,0.6,0.6,1.2c-0.5,0.6-1.1,0.2-1.6-0.1c-0.9-0.4-1.6-1.3-2.9-0.9c2.3,3.2,4.8,6,7.7,8.5c2.4,2.1,5.1,3.9,8,5.1
			c0.4,0.1,0.7,0.5,1.1,0.2c0.5-0.4,0-0.8-0.2-1.2c-0.7-1.2-1.8-2.1-2.7-3c-0.6-0.6-1.4-1.1-1.1-2.5
			C-160.7,314-158.1,316.8-155.2,320z M-191.1,320.1c-0.5-0.3-1-0.7-1.5-0.9c-0.6-0.2-1.2-0.9-1.8-0.5c-0.5,0.4,0.1,1.1,0.3,1.6
			c0.1,0.3,0.2,0.6,0,0.9c-0.3,0.2-0.6,0.2-0.9-0.1c-1.5-1.4-3.4-1.4-5.3-1.4c-1.5,0-3.3,2-3,3.5c0,0.2,0.3,0.4,0.5,0.6
			c2.9,1.5,5.7,3,9.2,3.6c-1-1.5-3.1-1.7-3.7-3.9c2.3,1.7,4.5,0.9,6.7,1.1c0.2-1.1-1.1-1.2-1-2.3c3.3,0.2,4.5,4.1,7.9,4.7
			c-0.8-1.6-2.1-2.3-2.6-3.6c-0.1-0.3-0.2-0.6,0.1-0.9c0.3-0.3,0.6,0.1,0.8,0.2c0.4,0.3,0.8,0.7,1.2,1.1c1.1,1,2,2.2,3.9,2.1
			c-0.5-1.1-1.4-2.2-1.3-3.1c0.2-2.6-1.6-3-3.3-3.5c-1.8-0.5-3.7-0.9-5.5-1.3c-0.4-0.1-0.8-0.2-1.1,0.1c-0.2,0.4,0,0.7,0.3,1
			C-191.1,319.3-190.8,319.5-191.1,320.1z M-246.9,362.9c0,0.4,0,0.6-0.1,0.7c-0.4,0.8-0.6,1.7,0,2.4c0.7,0.8,1.6,0.2,2.3-0.1
			c0.4-0.2,0.9-0.4,1.2,0.1c0.6,1.1,1,0.5,1.5-0.1c1.5-1.8,3.2-3.5,5.5-4.2c0.7-0.2,1.6-0.1,2.3-0.8c-1.1-1.1-2.6-0.5-3.8-1
			c0.2-0.6,1.2-1.2-0.1-1.7c-0.9-0.4-1.5-0.4-1.9,0.8c-0.7,1.8-2.3,2.4-4.3,2.7c1.1-1.7,0-1-0.7-1.3c-1.2-0.6-2-0.4-2.9,0.4
			c-0.8,0.7-1.9,1.2-2.4,2.3c-0.2,0.4-0.3,0.8,0.1,1.1c0.3,0.2,0.6,0.1,0.9,0C-248.5,363.9-248,363.1-246.9,362.9z M-237,379.7
			c0-0.5,0-1.3-0.6-1.5c-0.8-0.2-0.9,0.8-1.2,1.2c-0.4,0.5-0.7,1.1-0.9,1.7c-2.1,4.4-3,9.2-4.7,13.8c-0.4,1.1,0.3,1.2,1.1,0.9
			c2.2-0.6,3.4-3.6,2.3-5.9c-0.5-1.1-0.4-1.7,0.2-2.6c0.9-1.3,1.8-2.7,2.6-4.1C-237.5,382.2-237,381.1-237,379.7z M-241.5,347.7
			c-0.6,0.1-1.7,0.1-2.8,0.3c-2.6,0.5-4.2,2.3-4.1,4.6c0,2.1,0.5,2.4,2.2,1.3c2.6-1.6,4.5-4.4,8-4.2c0.4,0,0.8-0.5,0.8-1
			c0-0.6-0.6-0.6-1-0.7C-239.2,347.9-240.1,347.9-241.5,347.7z M-237,369.8c-3.7,3.5-4.9,8.6-8.5,12.1c1.2,0.6,2,1,2.5-0.7
			c0.4-1.6,1.6-2.8,2.7-4C-238.5,375.2-236.6,373.2-237,369.8z M-236.8,340.4c-1.5-0.6-2.8-1.2-4.2-1c-1.3,0.2-1.8,1-0.9,1.9
			c0.9,1,0,1.2-0.6,1.5c-2.1,1.2-2.5,1.5-3,3.1C-242.6,345.2-239.2,343-236.8,340.4z M-239.4,337.6c1.5,0.4,2.7,0.1,3.4-0.9
			c1.7-2.5,4.2-3,6.9-3.3c2.2-0.2,3.1-0.9,3.8-2.7C-230.6,331.7-235.5,333.3-239.4,337.6z M-250.8,371.6c-1.4,0.3-1.8,1.8-3,2.4
			c-0.4,0.2-1.2,1.2-0.5,2c0.3,0.4,1.4,0.8,1.5,0.6c1.1-1.4,2.6-2.7,3-4.3c0.2-0.9-0.7-2.4-0.2-3.8
			C-252.3,369.5-252.5,370.2-250.8,371.6z M-204.2,324.1c-1.3-2.4-3.6-3-7.9-2.1C-209.8,323.9-207.2,324.6-204.2,324.1z
			 M-232.8,367.1c1.5-0.1,2,0.7,2.4,1.7c0.3,0.9,1,0.4,1.5,0.3c0.9-0.2,0.4-0.7,0.2-1.1c-0.1-0.3-0.4-0.6-0.2-1.1c0.3,0,0.6,0,0.9,0
			c0.9,0,1.6-0.6,1.5-1.4c-0.1-0.7-1-0.5-1.7-0.4C-229.8,365.3-231.3,365.8-232.8,367.1z M-130.2,318.8c-0.4-2.9-2-4.8-4.8-6.3
			C-134.7,315.9-132.1,317.1-130.2,318.8z M-225.5,369.4c1.3,0.3,2.6,0.6,4,0.9c-1.2-2.2,1.7-1.1,1.6-2.4c-1,0-1.9,0.1-2.9,0
			C-224.1,367.6-225.4,367.3-225.5,369.4z M-181.9,352.4c-1.7-1.1-2.3-3.4-4.8-4.5c0.6,1.3,1.1,2.2,1.3,3.1
			C-185,353.1-183.5,352.9-181.9,352.4z M-215.6,325.9c5.3,0.3,5.3,0.3,6.4-0.5C-212.1,324.2-214.3,324.3-215.6,325.9z
			 M-220.5,328.2c1.3,0.1,2.4,0.6,3.5,1.2c0.6,0.3,1.2,0.6,1.8,0.5c0.4-0.1,1.1-0.2,0.8-0.7c-0.2-0.5-0.2-1.6-0.7-1.5
			C-216.8,328.3-218.7,327.3-220.5,328.2z M-249.2,392.6c-0.1-0.7-0.1-1.4-0.8-1.6c-0.9-0.2-0.9,0.7-1.1,1.3
			c-0.4,0.9-0.8,1.8-0.2,2.8c0.2,0.3,0.6,0.3,0.9,0.1C-249.5,394.5-249.4,393.5-249.2,392.6z M-243.2,425.8c-0.2-0.6,0.2-1.6-1-1.5
			c-1.3,0.1-1.8,1.1-1.9,2.3c0,0.5,0.2,1.1,0.7,0.8C-244.6,426.9-243.2,427.3-243.2,425.8z M-124.5,351.3c-0.5-1-0.1-2.5-1.7-2.9
			c-0.6-0.1-0.7,0.5-0.5,0.7c0.8,0.9-0.6,2.7,1.4,3.1C-124.8,352.3-124.3,352.1-124.5,351.3z M-253.1,388.6c1.7-0.1,1.6-1.4,1.8-2.3
			c0.1-0.5,0.8-1.3-0.5-1.4c-1-0.1-1.5,0.2-1.4,1.3C-253.1,386.9-253.1,387.7-253.1,388.6z M-246.1,433.2c1.4-1.6,2.6-3.3,2.6-5.6
			C-244.7,429.3-246.2,430.8-246.1,433.2z M-237.1,365.2c1.2-0.1,2.1-0.6,2.4-1.9c0.1-0.4-0.3-0.5-0.6-0.4c-1.1,0.4-2.4,0.5-2.8,1.8
			C-238.3,365.4-237.5,365.1-237.1,365.2z M-147.1,353.7c0.1,1.6,0.6,2.8,1.7,4C-144.7,355.3-145.1,354.4-147.1,353.7z M-235,371.7
			c1.1,0,2-0.2,2.8-0.8c0.3-0.2,0.7-0.5,0.5-0.9c-0.2-0.4-0.6-0.5-1-0.4C-233.9,369.5-234.5,370.3-235,371.7z M-255.8,380.5
			c0.2,0.5-0.4,1.4,0.6,1.5c0.8,0.1,1.2-0.5,1.1-1.2c0-0.8-0.3-1.7-1.2-1.7C-256.2,379.2-255.6,380.1-255.8,380.5z M-227.4,353.7
			c-1-0.7-1.9-1.1-2.9-1.2c-0.5,0-0.9,0.1-0.9,0.8c0.1,0.6,0.6,1.4,1,1C-229.3,353.7-228.4,354.6-227.4,353.7z M-153.7,346
			c0.1,1.3-0.5,2.5,0.7,3.4c0.3,0.2,0.7-0.1,0.8-0.3C-151.9,347.8-152.3,346.8-153.7,346z M-157.5,344.5c0-0.1,0-0.2,0-0.2
			c-0.8-0.7-1.5-1.6-2.7-1.8c-0.3,0-0.6,0.3-0.4,0.5c0.7,0.7,1.3,1.6,2.4,1.9C-157.9,345-157.6,344.9-157.5,344.5z M-256.2,374.8
			c0.7-0.1,1-0.5,1.2-0.9c0.3-0.6,0.5-1.2,0-1.8c-0.2-0.3-0.6-0.4-0.8-0.3c-0.7,0.3-0.3,1-0.4,1.5
			C-256.4,373.9-256.3,374.3-256.2,374.8z M-246.9,418.5c-0.7-0.4-1.4-1.1-2.2-0.7c-0.4,0.2-0.4,1.1,0,1.4
			C-248.2,419.8-247.5,419.3-246.9,418.5z M-245.3,419.4c2-0.8,2.3-1.4,1.7-2.9C-244.2,417.4-244.9,418.1-245.3,419.4z"/>
		<path d="M-150.2,606.2c3-0.7,6.1-0.9,9.2-1.4c7.3-1.4,13.5-4.6,18.7-9.9c10.7-11,21.1-22.4,30-35c4.9-7,7.2-14.9,9.4-23
			c1-3.5,2-7,2.8-10.5c0.4-1.9,1.9-3.1,2.6-4.8c1.9-4.6,2.8-9.4,3.6-14.3c1.3-7.6,1.2-15.3,1.2-23c0-1.8-0.5-3.5-0.7-5.2
			c-0.2-1.8-0.5-3.6,1.3-5.2c0.1,2.6,0.3,4.9,0.4,7.2c0.2,6.7,1.2,13.4,0.9,20.1c0,1-0.1,2-0.2,2.9c-0.3,2.6,0.2,3.6,2.6,4.7
			c2.1,0.9,4.2,0.5,5.6-1.3c1.5-1.8,1.9-4,2-6.2c0.3-6.5,2.8-12.4,5.4-18.2c1.9-4.1,4-8.2,5.4-12.5c3.2-9.7,1.1-18.6-4.6-26.8
			c-0.8-1.1-1.8-1.6-3.1-1.5c-0.9,0.1-1.8,0-2.7,0c-3.7,0.2-4,0.5-4.9,4.1c0,0.2-0.1,0.4-0.2,0.6c-1.7,2.7-2,5.7-2.2,8.7
			c0,0.8-0.5,1.5-1.1,2c-1.4,1-2.5,0.5-2.6-1.2c-0.2-6.3-1.4-12.5-2.2-18.8c-0.3-2.1-0.3-2.1,1.6-1.5c0.2-0.3,0.1-0.8-0.2-0.8
			c-1.9-0.5-1.7-1.7-1.2-3.2c0.2-0.5,0.4-1.2,0.3-1.7c-1-2.5-0.4-4.8,0.7-7.1c0.5-1.1,0.3-2.4-0.1-3.6c-0.3-0.8-0.1-1.6,0.8-2
			c1-0.4,1-1,0.8-2c-0.9-3.8,0.5-7.3,1.2-10.9c0.6-3.1,0.4-5.9-1-8.9c-1.2-2.7-2.3-5.3-4.3-7.4c-0.3-0.4-0.6-0.9-0.8-1.3
			c-2-4.1-1-6.2,3.6-7c3.1-0.6,6.2-0.8,9.3-1.3c0.7-0.1,1.8,0,2-1.2c0.3-1.6-0.6-2.5-2.2-2.4c-2.6,0.2-5,1.3-7.4,2.4
			c-2.8,1.2-5.7,2.2-8.9,1.7c-1-0.2-1.6-0.5-2-1.5c-1.5-3.6-3.5-6.9-7.1-8.8c-0.3-0.2-0.8-0.5-0.6-0.9c1-1.6-0.4-2-1.2-2.7
			c-5.5-4.5-5.7-7-1.1-12.3c3.3-3.9,7.6-6.3,12.4-7.7c1.1-0.3,2.1-0.5,2.1-2c0-1.1,1-1.1,1.8-0.7c0.6,0.3,1.2,0.7,1.8,0.1
			c0.5-0.6,0-1.2-0.2-1.8c-0.5-1-1-1.8-2.5-1.6c-1.9,0.2-3.7-0.5-5.2-1.8c-0.4-0.3-0.6-1-1.3-0.7c-0.6,0.3-0.3,0.9-0.3,1.4
			c0,0.5,0,1,0,1.8c-1-0.2-2.1-0.7-2.4,1c-0.9-1-1.1-2.2-1.5-3.2c-0.9-2.5-1.8-5-3.1-7.3c-0.4-0.7-0.1-1.9,1.1-1.8
			c7.1,0.7,12.9,3.9,17.3,9.5c0.1,3.6,3.3,5,5.2,7.3c1.1,1.3,2,2.7,2.5,4.4c3.4,10.8,6,21.8,9.9,32.4c1.5,4.1,1.5,8.4-0.7,12.5
			c-0.4,0.7-0.6,1.5-0.6,2.2c0.2,1.7-0.3,2.5-2.2,1.7c1.9,5.6,0.1,10.9-1,16.1c-0.8,4.2-1.5,8.5-1.4,12.8c0.1,3.8-0.1,7.6-1.4,11.2
			c-0.4,1.2,0.2,1.6,1.1,1.7c1.4,0.1,2.9,0.2,4.3,0.2c1.5,0,2.4,0.7,3.2,1.8c1.5,2.2,2.5,4.7,3.8,7.1c0.6,1.2,1,2.7,2.9,2.8
			c0.3,0,0.5,0.4,0.4,0.9c-0.2,0-0.5,0-0.7-0.1c-1.8-0.8-1.7,0.2-1.4,1.4c0.6,2.6,1.2,5.2,1.6,7.8c0.5,3.4-0.2,6.5-1.7,9.4
			c-0.9,1.7-1.9,3.4-2.8,5.1c-0.5,0.9-0.8,1.8-0.6,2.8c0.4,2.1-0.4,3.8-1.8,5.3c-1.4,1.6-2.5,3.3-2.1,5.6c0.2,1.3-0.9,2.1-1.6,3
			c-0.7,0.9-1.2,1.7-0.5,2.8c0,0.1,0.1,0.1,0.1,0.2c-0.6,3-0.7,6.2-2,8.8c-1.6,3.2-4.1,6-8.2,6.7c-1.1,0.2-2.2,0.1-3.3-0.2
			c-1-0.2-1.4,0.1-1.7,1c-2.4,7.8-5.5,15.3-6.4,23.4c-0.1,0.5,0,1.4-0.6,1.5c-1.9,0.4-1.7,2-2,3.3c-1,4.5-3,8.6-5.2,12.6
			c-2.1,3.8-4.2,7.6-5.6,11.8c-0.1,0.4-0.2,0.8-0.6,1c-2.5,1.3-3.7,3.8-5.2,6c-1.2,1.9-2.5,3.7-4.4,4.9c-3.5,2.3-6.2,5.3-8.6,8.7
			c-2.5,3.4-4.9,6.9-9.1,8.6c-1.6,0.6-2.6,2.2-3.7,3.4c-1.7,1.8-3.3,3.7-5.3,5.2c-2.1,1.7-4.4,2.8-7.2,2.4c-0.7-0.1-1.6-0.3-2.2,0.4
			C-142.4,606.2-146.3,606.2-150.2,606.2z M-71.2,385.4c1.6,0.3,2.9,0,4.2-0.3c1.2-0.3,2.5-1.2,4-0.4c-0.9,1-2.5,0.4-2.9,1.8
			c0.7,0.4,1.2,0,1.7-0.2c0.4-0.2,0.9-0.5,1.2,0.1c0.2,0.5,0,0.9-0.4,1.2c-0.3,0.2-0.6,0.3-0.8,0.5c-0.5,0.3-0.7,0.7-0.7,1.3
			c0.1,0.7,0.7,0.7,1.2,0.8c1.3,0.2,2.6-0.1,3.8-0.4c1.1-0.3,1.6-0.9,1.5-2.1c-0.1-2.2-0.7-4.2-1.8-6.1c-1-1.6-3.5-2-4.2-0.4
			c-0.8,1.9-2.3,1.8-3.8,2.2C-69.3,383.8-70.5,384-71.2,385.4z M-74.4,367.2c2.4-0.3,4.5-0.5,6.5-0.9c0.5-0.1,1.9-0.3,1.1-1.4
			c-0.7-1-0.3-1.7,0-2.5c0.6-1.4,0.1-2.4-1.2-3c-1.3-0.6-2.7-1-4.1-0.8c-1.1,0.1-2.2,0.3-2.4,1.9c0.8-0.2,1.9-1.1,2.3-0.2
			c0.5,1-0.9,1.1-1.5,1.6c-1.3,1.1-2.9,2.1-3.8,4c1.1-0.3,1.8-0.5,2.5-0.6C-73.5,365.1-73,366-74.4,367.2z M-83,354.3
			c3.1-0.2,5.9-1.1,8.1-3.4c1-1,1.2-2.2,0.1-3.3c-0.9-0.9-1.9-1.7-3.3-0.4c-1.8,1.6-3.9,3-5.8,4.6c-0.6,0.5-1.8,1-1.5,1.8
			c0.3,0.9,1.5,0.7,2.4,0.7C-83.2,354.3-83.1,354.3-83,354.3z M-70.4,368.9c1,0.8,1.8-0.7,2.8,0.1c-2.6,0.4-3.6,3.1-5.8,4
			c-0.5,0.2-0.8,0.8-0.4,1c1,0.4,1.4,1.8,2.9,1.4c1.7-0.5,3.5-0.9,5.3-1.2c1.3-0.3,1.6-1.1,1.4-2.2c-0.3-1.7-1.9-2.8-2.2-4.5
			c0-0.1-0.5-0.2-0.7-0.2C-68.3,367.4-69.6,367.5-70.4,368.9z M-83.1,360.1c1.6-1.8,3.2-2.3,5-2.4c1.8-0.1,3.6-0.2,5.4-0.3
			c1.5-0.1,2.9-0.3,4.2-1.3c-1.4-1-2.8-1.8-3.5-3.4c-0.1-0.2-0.4-0.3-0.6-0.4c-1.7-0.4-4.4,0.5-5,2.2c-0.6,1.4-1.6,1.8-2.8,2.2
			C-81.6,357.2-83.1,357.7-83.1,360.1z M-58.6,390.9c-2.6-0.2-4.4,0.9-6.1,2.5c0.9,0.5,1.4,0.1,1.9-0.1c0.5-0.2,1-0.6,1.7-0.1
			c-1.5,0.8-2.5,2.1-2.2,3.6c0.2,1.2,1.8,1.3,2.9,1.5c1.2,0.3,2.1-0.2,1.6-1.7C-59.4,394.8-59.7,392.9-58.6,390.9z M-61,399.2
			c-0.6,0.1-1.6,0.1-1.7,1.1c-0.1,0.7,0.8,0.8,1.3,0.8c0.7,0,1.4-0.3,1.5-1.2C-59.7,399.1-60.4,399.3-61,399.2z M-65.1,428
			c-0.7-1.2-1.6-1.9-3-1.8c-0.4,0-0.6,0.3-0.4,0.6c0.5,1.3,1.6,1.2,2.7,1.4C-65.7,428.2-65.5,428.1-65.1,428z M-71.8,433.4
			c0.4,1.5,1.5,1.9,2.6,2.1c0.1,0,0.3-0.3,0.3-0.4c-0.2-1.3-1.3-1.4-2.3-1.7C-71.3,433.4-71.4,433.4-71.8,433.4z M-61,412.9
			c-0.1-0.7-0.6-0.7-1-0.6c-0.7,0.1-1.3,0.3-1.3,1.1c-0.1,0.7,0.4,0.7,0.9,0.7C-61.7,414.1-61.2,413.7-61,412.9z M-66.5,416.2
			c-0.4,0.4-1.5-0.4-1.4,0.6c0,0.9,1.1,0.5,1.7,0.6c0.5,0.1,1.3,0.1,1.2-0.7C-65.1,416-65.9,416.4-66.5,416.2z"/>
		<path d="M-191.3,537c6-0.2,11-2.7,16.2-4.2c4.8-1.3,9.6-2.3,14.5-2.9c2.5-0.3,5.1-0.3,7.5,0.7c3.4,1.4,7,1.3,10.8,1.1
			c-1,1.1-1.9,1.4-3,1.4c-2.4,0.1-4.8,0.1-7.2-0.6c-4-1.1-8-0.5-11.9,0.4c-4.9,1.1-9.7,2.3-14.7,3.1c-1.3,0.2-2.5,0.6-3.5,1.9
			c3.2,0.3,6.1-0.3,9-0.8c8.1-1.4,16.3-1.6,24.5-1.5c8.1,0.1,16.2,0.2,24.2-0.6c0.4,0,0.8-0.1,1.7-0.3c-5.3-3.6-11.2-2.1-16.8-3
			c6.4-0.9,14.6-1.4,19.8,0.8c3.2,1.3,3.7,3.5,0.8,5.5c-8,5.8-16.2,11.1-26.7,11.3c-12.2,0.2-24.1-1.1-35.5-5.9
			C-185,542-188.3,540.2-191.3,537z M-153.6,538.1c-4,0-8.1-0.1-12.1,0c-4.6,0.1-9.1,0.6-13.4,2.3c-1.3,0.5-1.2,1.1-0.4,2
			c0.9,1,2.2,1.4,3.5,1.6c3.2,0.5,6.4,0.9,9.5,2c3.7,1.3,7.4,1.8,11.3,1.2c2.5-0.4,5-0.5,7.5-0.9c4.8-0.7,9.7-0.9,14.5-1.9
			c2-0.4,4-1.1,5-3.1c1.4-2.8,1.1-4.3-2.4-4.4c-2.5-0.1-4.9,0.8-7.3,1.2C-143.1,538.9-148.3,538.5-153.6,538.1z"/>
		<path d="M-180.6,444.4c1.1-1.3,0.9-1.8-0.2-2.1c-2.2-0.7-4.4-0.8-6.5,0c-3.3,1.2-6.6,1.7-10,0.3c-2.2-0.9-4.2,0.2-6.2,1.1
			c-2.2,1-4.2,2-6.8,1.3c-2.3-0.6-4.3,0.8-6,2.3c-1.5,1.3-2.9,2.6-4.5,3.8c-1.1,0.8-2.8,1.7-3.7,0.8c-0.8-0.8,0.6-2.1,1.2-3.1
			c1.1-1.7,2.7-3,4.2-4.4c0.9-0.8,1.9-1.5,2.7-2.3c1.8-2,3.6-3.7,6.8-2.6c1.3,0.5,2.6-0.5,3.8-1.1c1.4-0.8,2.7-1.6,4.1-2.3
			c0.8-0.4,1.7-0.7,2.4,0c1,1,1.9,0.7,2.7-0.1c2.3-2.6,4.9-2.8,7.9-1.2c0.4,0.2,1.1,0.5,1.5,0.4c2.3-0.7,3.9,0.3,5.8,1.5
			c1.8,1.1,4,0.8,6.1,1.2c1.3,0.3,3,0.5,3.2,1.8c0.3,1.5-1.3,2.3-2.6,2.8C-176.4,443.2-178.2,443.7-180.6,444.4z"/>
		<path d="M-85.1,441.9c-1.6,0.9-2.7,0.7-3.2-1.3c-0.4-1.4-1.4-0.9-2.2-0.4c-0.4-1.1,0.5-1.4,0.9-1.9c0.2-0.3,0.4-0.8,0-1
			c-0.3-0.2-0.6,0.1-0.8,0.3c-0.2,0.3-0.4,0.6-0.6,1c-0.3,0.6-0.7,1.2-1.4,1.2c-0.9,0-0.9-0.9-1-1.4c-0.2-1.1-0.8-1.2-1.8-1.2
			c-7.5,0.3-14.7,1.9-21.2,5.8c-0.8,0.5-1.6,0.9-2.5,0.3c-0.7-0.4-1.1-0.1-1.7,0.3c-0.9,0.6-1.9,2-2.9,0.1c-0.1-0.1-0.5-0.1-0.7,0
			c-2.3,1.2-1.9-0.5-1.9-1.7c0-1.1,0.5-2,1.2-2.8c1.7-2,4-3,6.5-3.8c0.3-0.1,0.8-0.3,0.9,0.3c0.1,1.1,0.8,0.4,1.1,0.3
			c3.4-1.4,6.7-2.9,9.5-5.3c0.9-0.8,1.7-0.8,2.6-0.2c0.6,0.4,1.4,0.9,2,0c0.2-0.3,0.4-0.3,0.6-0.1c2.3,2.1,5,1.2,7.6,1.3
			c2.5,0.1,4.8,1.6,5.6,3.9c0.1,0.4,0.1,0.8,0.7,0.7c2.8-0.4,4.1,1.5,5.3,3.5c0.3,0.5,0.6,1,0.8,1.5c0.8,1.6,0,2.9-1.8,2.9
			C-85.5,444.3-84.4,442.6-85.1,441.9z"/>
		<path d="M-181.6,449.5c-7.7,0-15,0-21.8,4.5c1.8,0.6,2.8-0.1,3.8-0.7c6.7-4,17.3-3.3,23.4,1.5c1.9,1.5,2.8,2.7,3.4,4.5
			c-2.1,0.3-3.6-0.7-4.9-2.1c-1.1-1.2-2.1-2.7-3.7-3.3c-1.4-0.5-2.1-0.3-2.1,1.4c0,0.7,0.1,1.3,0.1,2c0,1.1,0,2.1,1.6,1.3
			c0.3-0.2,0.8-0.4,1,0.2c0.2,0.6-0.2,0.7-0.7,0.9c-5.1,1.5-10.2,3-15.7,2.7c-1.7-0.1-3.1-0.5-4.3-2.2c1.3-0.1,2.3-0.1,3.4-0.2
			c-0.1-0.6-0.2-1.2-0.2-1.9c-0.2-2.2-0.6-2.4-2.6-1.6c-1.5,0.6-2.8,1.6-4.5,1.7c-1.2,0.1-0.6,0.7-0.1,1.1c0.5,0.4,1.2,0.7,0.9,1.5
			c-0.3,1-1.2,0.6-1.8,0.6c-1.9,0.1-3.8-0.2-5.6-0.8c-1.3-0.5-1.5-1.3-0.4-2.1c1.4-1,3.3-1.6,3.4-3.8c0-0.1,0.2-0.2,0.3-0.2
			c6-2.6,11.5-6.4,18.3-7c1.7-0.2,3.4-0.1,5.1-0.1C-184,447.4-182.8,447.9-181.6,449.5z M-186.4,457.6c0.6,0.6,0.3,1.8,1.4,1.5
			c0.8-0.2,0.9-1.1,0.8-1.8c-0.1-1-0.3-2-0.6-3.1c-0.2-1-0.9-0.9-1.4-0.3c-0.4,0.4-0.6,1-0.8,1.5c-0.7,1.9-2.3,2.8-4.8,2.4
			c-1.9-0.3-2.4-1.6-2.2-3.3c0.1-1.2-0.5-1.1-1.3-0.9c-1.5,0.4-2.7,3.1-2.2,4.9c0.4,1.4,2,1.9,3.9,1.2c0.8-0.3,1.7-0.9,2.4-0.2
			c1.4,1.6,2.3,0.6,3.3-0.4C-187.5,458.7-187,458.1-186.4,457.6z"/>
		<path d="M-95.4,457c-6.8,4.6-14.1,3.3-21.5,2.4c0.5-1.3,1.6-1.5,2.6-1.5c1,0,1.3-0.5,1.1-1.3c-0.2-1.1-0.5-2.1-0.7-3.2
			c-0.1-0.7-0.6-0.5-1-0.4c-1.7,0.4-2.9,1.4-4.1,2.5c-1.3,1.2-2.7,2.5-4.9,2.4c0.5-2,1.8-3.2,3.2-4.3c3.4-2.7,7.3-3.9,11.5-4.4
			c6.1-0.7,12.1-0.3,17.8,2.2c1.9,0.8,3.7,1.8,4.9,3.4c0.8,1,1.8,1.3,3,1.3c1.2-0.1,2.4-0.1,3.1,1.2c0.2,0.3,0.3,0.7-0.1,0.9
			c-1.1,0.5-2.3,0.4-3.4,0c-1-0.4-1.9-0.8-2.9-1.1c-0.9-0.3-1.8-0.8-2.7-0.4c-2.2,1.2-3.2,0.1-4.2-1.7c-0.7-1.2-1.9-1.9-3.2-2.4
			c-1-0.3-1.5,0-1.5,1.1c0,0.8,0.1,1.6,0.2,2.3C-98,457.6-96.5,456.2-95.4,457z M-111.9,455.3c-0.1,0.9,0,1.6,1,2.1
			c1.1,0.5,2.2,0.8,3.3,0.3c0.4-0.2,1-0.6,0.1-1.1c-1.2-0.6-1.2-1.7-1.3-2.8c0-0.6,0.4-1.5-0.5-1.6c-0.8-0.1-1.5,0.2-2,0.9
			C-111.8,453.7-111.9,454.5-111.9,455.3z M-103.8,456.1c1.2,2.3,3.4,2.2,4.5,0.3c0.3-0.4,0.6-1,0.2-1.4c-0.5-0.5-1,0.1-1.3,0.4
			C-101.3,456.3-102.1,457.1-103.8,456.1z"/>
		<path d="M-127.1,549.1c-4.2,2.8-7.3,7-12,9c-3.3,1.4-7,1.2-10.6,1.1c-9.5-0.1-18.1-2.8-25.6-8.6c-1.4-1.1-2.7-2.2-3.8-3.7
			c0.7-0.3,1,0.3,1.4,0.5c8.1,4.8,16.9,7.5,26.3,7.8c6.3,0.2,12.5-0.7,18.1-4C-131.5,550.1-129.5,549.1-127.1,549.1z"/>
		<path d="M-108.3,561.8c1.1-3.7,1.8-7.4,2.3-11.2c0.5-4.3,0.8-8.7,1.6-13c0.6-3.3,2-6.3,3.7-9.2c2.3-4,5.3-7.8,6.6-12.3
			c0.2-0.6,0.6-0.8,1.2-0.7c0.9,0.1,1.5,0.5,1.8,1.3c0.3,0.8,0.2,1.6-0.1,2.3c-1.2,2.5-1.7,5.2-2.5,7.8c-0.4,1.5-1.1,2.9-2.3,3.7
			c-4.9,3.4-5.8,8.5-6.4,13.8c-0.4,3.9-0.7,7.9-2,11.7C-105.2,558.3-106.3,560.3-108.3,561.8z"/>
		<path d="M-265.2,468.5c-0.1-5,0.4-9.6,2.5-13.9c1-2,1.3-2.1,2.7-0.3c2.3,2.9,3.8,6.3,5.2,9.8c0.7,1.8,1.4,3.5,2,5.3
			c0.2,0.5,0.5,1-0.2,1.3c-0.5,0.3-1,0-1.4-0.4c-0.2-0.3-0.4-0.5-0.5-0.8c-1.1-1.9-1.4-1.9-3.2-0.5c-0.3,0.2-0.5,0.4-0.7,0.6
			c-0.7,0.5-1.6,1.2-2.3,0.7c-0.8-0.5,0.1-1.4,0.2-2c0.2-1.1,0.5-2.3,0.8-3.4c0.1-0.4,0.2-1-0.3-1.2c-0.6-0.2-1,0.3-1.3,0.7
			c-1.1,1.4-1.5,3-1.4,4.8c0.1,6.4,0.9,12.7,3,18.8c0.2,0.5,1,1.2,0.1,1.6c-0.7,0.3-1.1-0.5-1.5-1c-1.1-2-2-4.1-2.3-6.4
			C-264.6,477.5-265.4,472.9-265.2,468.5z"/>
		<path d="M-199.5,528c-0.1-1.8,0.7-3.3,1.7-4.7c1.4-2,3.2-3.6,5-5.2c1.6-1.4,3.2-2.9,4.6-4.5c1.1-1.2,2.1-2.5,4-2.4
			c0.7,0,1.2-0.7,1.7-1.2c2.3-2.1,3.7-4.9,4.9-7.7c0.3-0.6,0.3-1.5,1.5-1c0.9,0.4,0.9,1,0.6,1.9c-1.4,4.2-4,7.6-7,10.7
			c-2.4,2.4-4.9,4.7-7.3,7.1c-3,3-5.5,6.3-6.8,10.3c-0.4,1.2-0.8,1.1-1.5,0.3C-199,530.5-199.6,529.4-199.5,528z"/>
		<path d="M-58.3,478.9c0.2-2.8,0.9-5.5,1.4-8.3c0.7-4.4,1.3-8.9-0.2-13.3c-0.2-0.6-0.2-1.5-0.9-1.5c-0.7,0-1,0.9-1.2,1.6
			c-1,2.9-0.6,5.9-0.2,8.9c0.1,0.5,0.6,1.1,0,1.4c-0.6,0.3-1.1-0.2-1.5-0.6c0,0-0.1-0.1-0.1-0.2c-0.7-2-1.7-2.5-3.6-1.2
			c-0.8,0.6-1.5,0.3-1.5-1c0-2.8,0.9-5.3,2.6-7.6c1.7-2.2,3.9-4.1,5.4-6.4c0.2-0.3,0.5-0.6,1-0.5c0.6,0.2,0.7,0.6,0.9,1.2
			c1.3,5.6,2.3,11.2,2,17c-0.2,3.7-1,7.2-3.2,10.3c-0.1,0.2-0.2,0.5-0.3,0.7C-58,479.1-58.1,479-58.3,478.9z"/>
		<path d="M-134.9,489.5c4.1,3.2,7.7,6.7,8.9,12c0.4,1.7,1.3,2.7,2.7,3.8c3.6,2.8,3.4,1.4,1.5,6c-0.7,1.7-1.7,3.4-3.2,4.6
			c-1.7,1.4-3.6,2-6,0.9c3.2-1.3,4-4.4,5.7-6.7c0.5-0.7,0.1-1.2-0.2-1.8c-2.5-5.2-5.4-10.1-9-14.6
			C-135.5,492.4-136.3,491.2-134.9,489.5z"/>
		<path d="M-251.3,497.8c-3.7-2.3-6.5-4.9-7.5-9c-0.3-1.1-0.4-2,1.1-2.3c1-0.2,1.1-0.7,0.8-1.7c-0.7-2.5-0.9-5.1-0.1-7.7
			c0.6-1.9,1.9-3.2,3.8-3.9c0.9-0.3,1.3,0,1.2,1c-0.1,1.2-0.6,2.2-1.5,2.9c-3.1,2.6-2.8,5.7-1.4,9c1.2,2.8,2.8,5.4,3.4,8.5
			C-251.2,495.6-251.1,496.5-251.3,497.8z"/>
		<path d="M-69.3,488.9c0.2-1.9,0.9-3.5,1.7-5.1c1.8-3.7,2.2-7.2-1-10.4c-0.8-0.9-1.8-2.4-0.7-3.2c0.9-0.6,2,0.9,2.6,1.8
			c1.1,1.5,1.6,3.4,2.3,5.1c0.4,1,0.6,2.1,1.2,2.8c1.8,2,1.2,4,0.2,6.1c-0.6,1.2-1.2,2.5-1.9,3.6c-1,1.6-2.7,1.8-4.2,0.7
			C-69.5,489.9-69.3,489.4-69.3,488.9z"/>
		<path d="M-212.3,549.3c-3.6-9.1-7.8-17.6-8.4-27.6C-216.3,525.9-210.8,544-212.3,549.3z"/>
		<path d="M-137.8,491.2c-2.3-1.9-2.7-4.4-2.9-6.8c-0.6-7.3-0.8-14.7,1.1-21.9c0.2-0.6,0.1-1.7,0.9-1.6c1,0.2,1,1.1,0.8,2.1
			c-1,5-0.7,10-0.4,15C-138.1,482.2-137.5,486.5-137.8,491.2z"/>
		<path d="M-175.7,463.7c-1.6,2.4-3.6,3.2-5.6,4c-2.7,1-5.6,1.4-8.4,1.5c-3.6,0.1-7.3,0.1-10.9,0c-1.3,0-2.6-0.2-3.3-1.6
			c-0.3-0.7-0.2-1.2,0.7-1c7.4,1.7,14.5-0.3,21.6-1.8C-179.9,464.4-178,464.1-175.7,463.7z"/>
		<path d="M-152.5,520c3.1-1,5.9-1.7,8.6-2.6c2.8-0.9,5.3-2.4,7-5c1-1.5,2.5-0.7,3.7-0.8c1.1,0,2,0.5,2.5,1.6
			c0.7,1.5,0.2,2.3-1.5,2.2c-2.7-0.1-5.1,1-7.3,2.4c-1.5,0.9-2.9,2-4.5,2.8C-146.7,522.1-149.5,521.8-152.5,520z"/>
		<path d="M-155.4,569.1c6.6-3.6,13.6-2,20.8-1.5c-0.5,1.4-1.6,1.6-2.6,1.7c-5.9,0.6-11.8,1.2-17.7,0.5
			C-155.1,569.7-155.4,569.8-155.4,569.1z"/>
		<path d="M-134.9,458.3c0-2.6,0.8-4.8,2.7-6.6c1.7-1.7,3.8-3,5.2-5c0.5-0.7,1-0.4,1.5-0.1c0.9,0.5,0.2,1-0.1,1.4
			c-2.2,2.9-4.2,5.9-6.1,9.1c-0.6,1.1-0.9,2.1-0.4,3.3c0.2,0.6,0.3,1.1,0.2,1.7c-0.1,0.5-0.4,1-1,1.1c-0.6,0.1-0.8-0.4-1-0.7
			C-134.7,461.1-135,459.7-134.9,458.3z"/>
		<path d="M-164.1,515.5c0.6-3,2.2-4.5,4.8-4.3c3.2,0.2,5.8,1.7,7.5,4.5c0.7,1,0.2,1.3-0.7,1.5c-1,0.2-2-0.1-2.9-0.4
			C-158.2,515.8-161,514.7-164.1,515.5z"/>
		<path d="M-163.6,496c-0.4,2.1-1.4,3.7-2.5,5.2c-1,1.5-2,2.9-2.9,4.4c-1.9,3-2,6,0.9,9.1c-2.1-0.6-3-1.7-3.6-3.2
			C-173.7,505.9-168.1,496.7-163.6,496z"/>
		<path d="M-169.9,448.9c1.8-0.2,2.8,0.8,3.7,1.9c1.8,2.2,3.3,4.7,4.9,7c1.1,1.6,0.8,4,0.1,6c-0.2,0.5-0.7,0.8-1.3,0.7
			c-0.6-0.1-0.5-0.7-0.5-1.1c0-3.2-1.5-5.7-3.3-8.2C-167.7,453.3-169.3,451.5-169.9,448.9z"/>
		<path d="M-90.3,450c-1.6,0.3-2.9-0.4-3.9-1.3c-3.3-2.8-7-3-11-2c-3.3,0.8-6.6,1.9-10.1,2.1C-111.5,444.1-93.5,442.9-90.3,450z"/>
		<path d="M-96.9,466.5c-0.7,0-1.4,0-2-0.1c-0.5-0.1-1.3-0.1-1.3-0.9c0-0.7,0.7-1.1,1.2-1.1c4.2-0.4,7.7-2.6,11.2-4.6
			c1.1-0.6,1.1,0,1,0.8c-0.2,1.3-1,2.3-1.9,3C-91.1,465.5-93.9,466.4-96.9,466.5z"/>
		<path d="M-114.1,472.9c-5.9,0.7-11.5-2.9-13.2-8.2c1-0.3,1.8-0.3,2.3,0.9c0.7,1.5,2.2,2.4,3.7,3c1.8,0.8,3.7,1.6,5.5,2.5
			C-115.1,471.5-114.4,472-114.1,472.9z"/>
		<path d="M-252,505.6c-2.8,0-6.3-4.2-5.9-7c0.1-0.8,0.4-0.8,1-0.5c1,0.5,1.7,1.4,2.3,2.3c0.9,1.2,2,2,3.6,2.1c1.6,0,1.8,0.5,1,1.9
			C-250.4,505.2-251,505.7-252,505.6z"/>
		<path d="M-62.4,491.3c0.1,2.8-0.4,5.3-3,6.9c-0.8,0.4-1.8,0.8-2.4,0.2c-0.7-0.7,0.1-1.6,0.6-2.2
			C-65.9,494.2-63.6,493.3-62.4,491.3z"/>
		<path d="M-162.4,516.8c-1.4,1-2.8,1-4.3,0.4c-0.6-0.2-1-0.7-0.7-1.4c0.2-0.6,0.8-0.4,1.2-0.3C-165,515.9-163.6,515.9-162.4,516.8z
			"/>
	</g>
</g>
</svg>
