<?xml version="1.0" encoding="utf-8"?>
<!-- Generator: Adobe Illustrator 20.0.0, SVG Export Plug-In . SVG Version: 6.00 Build 0)  -->
<svg version="1.1" id="Слой_1" xmlns="http://www.w3.org/2000/svg" xmlns:xlink="http://www.w3.org/1999/xlink" x="0px" y="0px"
	 viewBox="0 0 1042.1 980" style="enable-background:new 0 0 1042.1 980;" xml:space="preserve">
<style type="text/css">
	.st0{fill:#002469;}
</style>
<g>
	<path class="st0" d="M276.4,615.4c1.3-5.2,1.7-11.9,4.6-17.2c4.1-7.3,2.2-11.9-2.9-17.4c-4.2-4.5-7-10.3-11.2-16.8
		c-0.2,4.3-0.3,7.4-0.5,10.4c-0.7,0.3-1.5,0.6-2.2,0.9c-3.9-10.6-7.9-21.2-12.2-32.8c-2.4,3.4-4.3,6.1-6.2,8.8
		c-0.7-0.1-1.3-0.1-2-0.2c0.6-12.4,0.6-24.8,2-37.1c0.8-6.9-0.4-11.4-5.1-16.9c-9.3-10.7-17.2-22.7-26.5-35.4
		c-2.6,5.9-6.1,12.5-8.3,19.4c-2.3,7.1-3.3,14.6-4.9,22c-1.3,0-2.6,0-3.9,0.1c-1.2-17-2.3-34.1-3.6-53.3c-3.1,7.4-5.6,13.7-8.2,20
		c-0.8-0.2-1.7-0.4-2.5-0.5c3.1-15.6,6.2-31.3,9.3-46.9c-0.5-0.2-0.9-0.4-1.4-0.6c-8.6,17.6-17.2,35.3-25.8,52.9
		c-0.9-0.2-1.8-0.3-2.6-0.5c2.4-10.8,4.6-21.6,7.2-32.4c0.5-2,3-4.1,2.6-5.6c-5.1-20.8,10.9-35.2,15.5-53.1c0.4-1.6,0.8-3.3-0.1-5.5
		c-3.4,6.1-6.8,12.2-10.2,18.3c-0.9-0.2-1.9-0.4-2.8-0.5c6.9-16.8,7.5-33.6,1.2-50.9c-1.8,6.1-3.6,12.2-5.5,18.4
		c-1.3-0.1-2.5-0.2-3.8-0.3c0.9-20.5,1.8-41,2.8-62.4c-1-0.1-4.3-0.5-11-1.4c5.8-4.9,10.6-7.9,13.9-12c5.8-7.3,11.1-15.2,16-23.2
		c6-9.7,5.9-17.7-4.4-26.2c-6.4-5.3-8.9-15.2-14.3-25c7.3,1.1,12.1,1.8,17.8,2.7c5.1-18.2-7.5-27.6-19.8-39.3
		c18.7-4.3,33.5-12.6,44.6-27.4c-8.7,3.2-17.5,6.4-26.2,9.5c-0.5-0.6-1-1.2-1.5-1.8c5-5.7,10.1-11.4,17.1-19.2
		c-9.6,1.5-16.5,2.5-23.3,3.6c-0.4-1-0.7-2-1.1-2.9c13.2-7.3,26.5-14.6,40.7-22.5c-0.2-0.7-0.9-2.7-1.6-4.9c2.8,0.4,5.4,0.9,9.5,1.5
		c-3.9-7.8-7.2-14.4-11.8-23.8c6.8,5.3,11.1,8.6,16.7,12.9c-0.6-10.6-1.1-19.1-1.5-27.7c0.5-0.1,1.1-0.2,1.6-0.3
		c2.2,6.2,4.5,12.5,7.1,19.7c3.9-9.7,7.3-18,10.7-26.4c1.2,0.4,2.3,0.7,3.5,1.1c2.7,11,5.3,22,8.1,33.4c-1.9-0.9-4.3-2.1-7.5-3.7
		c-8.8,26.9-6.4,51.7,10.7,74c12,15.7,20.8,32.5,23.9,52c1.4,8.6,5.1,15,12.8,19.3c7.6,4.3,15.1,8.9,22.4,13.7
		c3.3,2.1,6.1,4.8,7.7,6.2c-18.3-2.2-37.1-5.2-56.1-6.5c-27.6-1.8-39.7,7.8-45.5,34.1c-9-0.3-16.4,9-16,19.6
		c0.1,3.6,0.2,7.8-1.5,10.7c-11.6,19.5-14.9,39.9-4.7,60.6c6.6,13.4,15.4,25.7,23.6,39c-0.4,0.2-2.4,1.1-4.3,2.1
		c7,20.5,9.8,21,42.6,6.3c-2.9,4.9-5,8.2-8.5,14.1c15.7-10,27.4-7.3,36.3,6.8c-5.2,1.4-10.7,2.8-16.1,4.4
		c-13.3,3.9-18.1,11.7-15.6,25.7c0.6,3.4,1,7.9,3.3,9.8c13.8,11.7,8.8,27.4,9.5,41.8c0.2,3.4,0.4,6.9,0.7,10.8
		c3.3-0.4,5.9-0.8,9.1-1.2c0,8.2,0,15.7,0,26.4c10.7-12.2,19.6-22.5,29.5-33.8c-5.8-2.4-10.1-4.1-16.7-6.8c4.5-1.5,6.9-2.7,9.4-3.1
		c14.2-2.6,20.1-12.1,22.8-25.4c1.8-8.7,4.5-17.5,8.2-25.5c1.8-3.8,7.1-5.9,11-8.8c1.2,1.9,1.8,2.5,1.9,3.1
		c5,29.2,14,35.8,44.4,33.3c5.4-0.5,11.1,0.2,16.3,1.7c16.7,4.7,32.3,4.8,45.6-8.5c1.4-1.4,4.4-1.3,6.7-1.8
		c5.8-1.4,11.8-2.2,17.3-4.4c13.8-5.5,16.4-14.9,8.4-27.4c-2-3.1-3.6-6.4-4.4-10.5c16.2,6.4,32.8,10.9,37,32
		c1.6,7.7,9.2,14.4,14.6,21.2c5.2,6.5,11.1,12.6,16.6,18.8c-0.7,0.6-1.3,1.1-2,1.7c-8.5-4.1-17.1-8.3-27.5-13.3
		c1.5,7.6,2.6,13.1,3.7,18.6c-0.5,0.3-1,0.6-1.5,0.9c-3.3-4.2-6.6-8.4-10.1-12.9c-1.1,1.5-2.2,3-3.8,5.2c-1.4-2.2-2.7-3.7-3.6-5.5
		c-9.4-17.7-13.8-18.7-32.7-10.7c-14.4,6.1-29.3,13.8-44.4,14.8c-18.1,1.2-36.9-2.7-54.8-6.8c-17.7-4-27.1-2.5-36.9,12.8
		c-3.1,4.8-8.2,3.4-10.5,5.5c-5.8,5.3-10.8,12.1-14.2,19.2c-6.4,13.6-11.5,27.8-17.2,41.8c-0.8,1.9-0.9,4.5-2.3,5.7
		C290.9,603.6,283.9,609.2,276.4,615.4z"/>
	<path class="st0" d="M353.9,307.8c12.1-3.2,8.6-11.2,5.2-18.1c-3.6-7.3-0.9-10,4.8-11.6c18.8,50.1,15.9,99.7,0.2,150.4
		c-5.2-12.2-13.2-9-21.9-6.8c-14.9,3.7-30.1,6.1-45.1,0c10.4-3,20.4-5.9,30.5-8.8c-0.2-0.8-0.5-1.7-0.7-2.5
		c-8.9-1.8-17.8-3.7-27.9-5.8c14.7-4,27.5-6.3,39.3-11.1c14-5.7,15-19.6,17.2-33.6c-6.8,5-12.6,9.2-18.4,13.4
		c-0.4-0.3-0.8-0.6-1.2-0.9c3.5-6.4,7.1-12.8,11.5-20.8c-22.6,4.8-43.2,9.1-66.7,14c3.6-3.4,5.2-4.6,6.5-6.2c1.5-1.8,2.6-4,3.9-6
		c-2.7,0.1-6.1-0.8-7.8,0.6c-5.3,4-9.9,8.9-14.8,13.4c-2.7,2.4-5.4,4.8-8.7,6.4c5.6-27,26.7-37.5,50.7-45c-0.6-0.9-1.2-1.9-1.7-2.8
		c-2.9-0.6-5.7-1.2-9.3-1.9c0.9-2.1,1.7-4.2,3-7.4c-9.3-0.4-18-0.4-26.5-1.3c-10.7-1.1-16.2,4-17.2,15.5c-1.1-0.2-2.2-0.4-3.3-0.6
		c-4.3-7.7-8.8-15.2-12.6-23.1c-0.7-1.4,1-4.6,2.5-6.3c21.9-26,10.7-24.1,43.4-18.3c16.6,2.9,33,6.9,49,12.1
		C343.5,296.5,348.1,303,353.9,307.8z"/>
	<path class="st0" d="M553.7,287.6c-18.8-1-18.7-0.9-37.9,9.2c-2.5,1.3-7.1,1.6-9.4,0.2c-11.8-7.3-30.5-1.3-37.4,13.2
		c3.8-1.1,7.2-2.2,13.2-3.9c-5.1,5.6-8.4,9-11.4,12.6c-2.9,3.5-5.6,7.1-8.1,13.9c3.4-0.2,7,0.1,10.2-0.7c2.2-0.5,4.5-2.2,6.2-3.9
		c18.2-18.1,40.1-18.7,63.4-13.9c12.6,2.6,22,11.8,22.4,23.6c-10.5,0.4-16.8-21-30.2-6.1c2.7,1.1,5.2,2.2,7.8,3.3
		c-0.1,1-0.2,2.1-0.3,3.1c-17.6,0-35.3,0-54.1,0c-3.8,7.2-1.7,14.9,7.3,19.1c13.5,6.2,27.5,11.1,38.9,15.6
		c-21.9,7.7-53.4-3.4-68.6-26.6c-4.6-6.9-9.8-6.1-20.7,4.6c-1.1-8.3-1.5-15.3-3-22.2c-1.5-7.4-3.9-14.6-6-21.9
		c-0.5-1.9-2.5-4.7-1.9-5.5c9.6-11.9-1.6-17.1-8.5-24.2c3.7-5,7.2-9.6,11-14.7c1,7.8,1.9,14.4,2.9,22.1
		c34.9-10.9,63.6-33.3,100-37.8C537.8,262.4,533.3,278.6,553.7,287.6z"/>
	<path class="st0" d="M710.7,253.8c-2.7-1.6-4.8-2.9-8.8-5.2c-0.6,10.8-1.1,20.2-1.7,30.8c21.7-11.9,39.4-4.3,45.6,17.9
		c5.7,20.3,6.4,40.9,2,61.5c-3,14.1-8.2,27.9-9.6,42c-1,9.9,1,21.1,4.8,30.3c6.1,14.7,5.9,29.3,4.5,44.4
		c-3.1-13.9,0.5-29.8-14.6-43.7c-1.3,15.9-3,29.3-3,42.8c0,4,5,7.8,7.5,11.9c3.1,5,6.1,10.2,7.3,16.1c-8.8-9.7-17.6-19.4-27.6-30.3
		c-3.4,23.5-0.5,43.1,14.9,59.8c-22.3-14.5-16.8-40.5-28.2-60.8c-11.8,14.2-9.8,29.2-9.7,45.9c-7.5-17.6-8.7-32.2-2.9-49.1
		c6-17.7,6.9-37.1,9.7-53.8c6.1,7.5,9.9,27.7,7.4,48.9c8.8,0.1,15.6-3,16.1-12.2c0.6-11.4,0.4-23-1.5-34.2c-1.7-10-2.4-18.6,2-28.4
		c9.7-21.7,3.9-43.4-3.2-64.5c-2-5.8-6.8-10.6-12.4-14.8c-0.9,10.5-1.9,21-2.8,31.5c0.3-12.9-4.8-22.7-13-32.3
		c-3.1-3.6-3.4-10.8-2.7-16.1c1.9-16.2,4.8-32.3,7.7-50.3c-0.7-0.6-3.5-2.9-7.2-6C703.3,237.4,708.6,242.3,710.7,253.8z"/>
	<path class="st0" d="M478.4,603.1c-5.9,0-12.9,2.1-17.5-0.4c-10.6-5.8-16.5,11.1-27,3.9c-10.4-7.2-18.4-0.5-25.5,7.3
		c-3.9-2.8-7.2-5.1-9-6.4c-10.9,4.5-20.4,8.5-30.6,12.8c3.9,8.5-5.6,18.8,3.2,27.8c1.1,1.1-1.5,5.7-2.3,8.8
		c-2.2,8.3-4.4,16.6-6.6,24.9c-2.7-3.3-6.2-7.8-10.1-12.7c-1.9,1.2-3.9,2.5-6.2,3.9c-0.1-1.1-0.5-2-0.2-2.8
		c2.6-6.5,6.3-12.8,7.5-19.6c1-5.8,0.8-12.8-1.6-17.9c-10.8-22.4-4.7-41.3,20.1-47.3c3-0.7,6.5,0.6,12.1,1.3
		c0.4-0.3,3.1-2.4,5.9-4.5c0.2,1,0.4,2,0.6,3c7.1-1,14.1-2,21.6-3.1c-0.7,2.1-1.4,4.4-1.4,4.4c8.2,0.8,16.1,2.6,23.8,2
		c6.5-0.4,12.9-3.4,19.4-5.5s12.9-4.4,19.4-6.7c0.5,1,1,2.1,1.6,3.1c1-2.5,2-4.9,3-7.2c9.8,2.2,19.5,3.7,28.5,6.9
		c4.5,1.6,8.7,5.9,11.4,10.1c3,4.5,4.9,10.1,5.9,15.5c2.3,12,3.7,24.2,5.5,36.3c0.4,2.5,0.5,5.1,1,10.4c-4.1-5-6.4-7.8-8.7-10.5
		c-10.5,4.1-9,13.6-8.9,20.9c0.2,9.6-4.9,14.4-10.4,19.9c-0.9-0.3-1.8-0.7-2.8-1c1.9-5.4,4.4-10.7,5.6-16.3
		c0.8-3.5,0.2-7.6-0.7-11.2c-2-8.2-3.9-16,1.5-24c3.1-4.5-3.6-22.1-8.3-23.7c-1.8-0.6-4.1,0.5-6.1,0.4c-4.3-0.3-8.6-0.9-12.8-1.4
		C479.1,603.9,478.8,603.5,478.4,603.1z"/>
	<path class="st0" d="M1042.1,870.8c-22.3-26-47.9-46.2-79.7-60c-0.7,7.3-1.3,13-1.9,18.8c-0.7,0.1-1.4,0.2-2,0.3
		c-2.3-5.2-4.6-10.4-7-15.5c-8.5-18.2-20.6-32.2-38.5-43c-14.1-8.6-24.7-23-36.9-34.8c0.9-1.2,1.8-2.4,2.8-3.7
		c10.2,5.3,21,9.7,30.4,16.2c14.9,10.2,31,16.2,48.6,18.7c9.3,1.3,16.6,5.3,24,11.4c11.3,9.3,24.8,15.7,36.9,24.1
		c5.7,4,11.8,8.8,15,14.7C1042.5,834.5,1041,852.9,1042.1,870.8z"/>
	<path class="st0" d="M185.3,682.6c-4.2-14.8-9.5-33.7-14.9-52.6c-1.5-0.1-3-0.1-4.5-0.2c-7.2,12.8-14.4,25.7-21.6,38.5
		c1.2-28.5,17.5-50.3,31.3-73.3c-1-0.6-2-1.2-3-1.9c-5.4,6.4-10.7,12.7-16.1,19.1c-0.8-0.4-1.6-0.8-2.4-1.3
		c5.4-9.4,10.9-18.6,16-28.1c3.9-7.3,7.3-14.9,11-22.4c-1.4-0.9-2.8-1.8-4.2-2.8c-9,8.7-18,17.4-26.9,26.1c1.3-3,2.3-7,4.5-10.2
		c4.3-6.4,10-11.9,13.8-18.6c6.5-11.7,11.9-23.9,18-36.2c0,10.1,0,20.9,0,31.8c0.9,0.2,1.9,0.4,2.8,0.6c2.3-3.1,4.6-6.2,8.1-11
		c-2.9,16.5-5.5,31-8.1,45.4c1,0.4,2.1,0.9,3.1,1.3c3.2-5.2,6.5-10.4,10.6-17.2c-3.1,21.9-6,42.1-8.9,62.3c1.1,0.4,2.2,0.8,3.4,1.2
		c6.7-4.4,13.4-8.8,19.1-12.6C205.5,642.5,194.4,664.6,185.3,682.6z"/>
	<path class="st0" d="M31.8,726.2c14.9-14.5,27.7-30.3,33.9-50.5c4-12.7,7.9-25.5,13-37.8c4.6-11.2,10.8-21.7,16.3-32.5
		c0.9,0.5,1.8,0.9,2.7,1.4c-1.6,2.8-2.9,5.8-4.7,8.5c-7.4,11.4-9.7,23.9-8.4,37.2c2.3,25.4-1.4,49.5-13.7,72.2
		c-3.6,6.6-5,14.4-8.2,23.6c4.6-1.9,7.1-2.9,8.8-3.5c-3.9,10.8-8,21.8-11.9,32.9c-5.8,16.7-16.2,27.5-34.8,28.5
		c-7.8,0.4-15.6,1.1-23.5,1.6c-0.5-1-1-2-1.4-3c5.7-5.3,12.3-10,16.8-16.2c5.8-8,9.5-17.5,15-25.8c8.5-12.8,17.8-25.2,26.9-37.6
		c9.8-13.2,13.6-28.4,16.1-45.2C61,697,48,712.9,35,728.8C33.9,727.9,32.8,727,31.8,726.2z M59.1,736.5C52,745.1,46.3,752,39,760.8
		C53,757.5,60.1,751.8,59.1,736.5z"/>
	<path class="st0" d="M397.3,113.3c-2.2-13-4.4-25.9-6.7-38.8c-1,0-1.9-0.1-2.9-0.1c-5.4,16-10.8,32-16.8,49.9
		c-2.2-6.3-3.7-10.6-5.6-16.3c-2.4,2.9-4.2,4.9-6.6,7.8c-3.4-3.9-6.3-7.2-10.4-12c-1.7,5.7-3.1,10.3-4.6,15
		c-16.3-8.8-19.4-37.5-5.1-59.3c0,13,0,23.7,0,34.4c0.8,0.2,1.5,0.4,2.3,0.6c3.4-4.9,6.8-9.8,11.3-16.3c1.9,7.7,3.3,13.5,5.2,21.4
		c2.2-4,3.5-6.3,5.5-10c2.6,4.9,4.7,8.9,6.8,13c-1.1-15.1-13.1-27.8-8.2-44.9c1.9,6.5,3.5,12.1,5.8,20c8.1-28.3-6.4-52.3-3.7-77.6
		c5.6,21.7,11.3,43.4,16.9,65.1c0.6,0,1.3-0.1,1.9-0.1c0.6-4.7,1.1-9.3,2-17.2c4.3,8.6,7.3,14.8,10.4,21c0.5-0.2,1-0.4,1.5-0.6
		c-1.6-8.7-3.1-17.3-4.7-26c0.9-0.2,1.9-0.4,2.8-0.6c5.7,20.3,11.3,40.5,17,60.8c-1.3,0.4-2.5,0.9-3.8,1.3
		c-1.9-3.3-3.8-6.6-6.7-11.9C399.6,100.4,398.4,107,397.3,113.3z"/>
	<path class="st0" d="M207.6,688.8c2.1,11.9,4.7,23.6,6,35.5c2.1,19.1,3.4,38.2,3,57.5c-3.1-6.4-6.3-12.7-10.3-20.9
		c-5.1,7-8.8,12.2-13.7,18.9c-0.3-6-0.6-10.3-1-18.1c-7,10.4-12.3,18.3-16.9,25.1c2.8,3.9,6.3,6.7,5.9,8.8
		c-1.8,9.6-8.4,15.3-19.4,20c3.1-4.9,4.8-7.7,7.5-11.9c-5.7,0.5-10.3,0.9-14.8,1.3c12-8.3,18.3-20.3,23.1-33.1
		c2-5.3,4.6-12.4,2.6-16.6c-1.5-3.1-10.1-2.7-16.9-4.1c22.8-10.9,16.3-34.3,20.9-55.2c4.6,8.4,8.1,14.8,12.3,22.5
		C200.7,706.3,204.6,696.5,207.6,688.8z"/>
	<path class="st0" d="M93,541.6c0.9-21.7,11.9-38.1,24.4-54c3.7-4.8,6.3-11.6,6.6-17.7c0.8-15.7,8.8-27.8,16.7-40.3
		c11.3-17.8,8.1-49.3-6.1-64.8c-2.9-3.2-7.6-7.9-6.8-10.6c2.5-8.6,7.2-16.6,11-24.8c6.5,3.6,13.3,6.9,19.4,11.1
		c1.7,1.2,1.8,5.2,2.1,7.9c3.5,37.3,2.6,73.5-23.8,104.2c-4.5,5.3-6.1,13.1-9.1,19.7c1.1,0.6,2.3,1.2,3.4,1.7
		c3.1-5.2,6.2-10.5,9.3-15.7c-4,17-9.1,33.2-23.3,45.3C105,513.6,96.2,526.1,93,541.6z"/>
	<path class="st0" d="M588.7,91.6c-3.3,1.9-7.5,4.2-12.3,7c1.5,2.9,2.8,5.4,4.5,8.6c-2.6,0.4-4.6,0.7-6.6,1
		c-2.2,14.8,15.4,11.1,19.4,20.7c-6.6,1.9-13,3.8-21.4,6.2c14.9,9.9,28,18.6,43.1,28.6c-5.9-0.3-9.6-0.5-15.5-0.8
		c3.4,3.7,5.5,6,7.3,8c-15,0-29.8,0-44.9,0c12-15.2,11.8-18.4-2.1-36.7c4.3-2.7,8.6-5.5,14.9-9.5c-9.8-2.2-17.9-4-29.7-6.7
		c4.9-2.6,8.1-4.4,11.4-6.1c-0.4-1.1-0.8-2.1-1.2-3.2c-7.9,0.8-15.8,1.6-23.6,2.3c-0.5-10.4,9.2-22.1,19.4-21.7
		C563.8,89.8,576.4,90.9,588.7,91.6z"/>
	<path class="st0" d="M574.5,209c-3.7-1.9-5.9-3-9-4.6c11.4-2.4,34.7,3.2,39.8,10.1c5.1,7,8.8,15.1,13.4,22.5
		c3,4.7,6.7,8.8,10.5,13.8c-2.1,0.9-4.7,2.1-7.6,3.4c2.8,9.6,5.4,18.8,8.4,29.3c-10.3-7.2-19-13.4-29.7-20.8
		c1.7,5.7,2.9,9.5,4.1,13.3c-0.9,0.3-1.7,0.7-2.6,1c-3.6-10.1-7.2-20.3-11.4-32c-1.3,5.5-2.3,9.8-3.4,14.1c-0.7,0.1-1.4,0.1-2.2,0.2
		c-0.9-4.2-3-8.5-2.6-12.5c1.5-15.9-0.1-29.3-22.5-29.9c0.7-0.8,1.5-1.7,2.2-2.5C565.6,212.7,569.3,211.1,574.5,209z"/>
	<path class="st0" d="M857,980c9.8-18.6,18.5-37.6,18.5-57.9c-12-4.8-23-9.2-34-13.6c0.1-1.4,0.2-2.8,0.4-4.2
		c26.4,6.6,46.5-3.5,62.6-23.1C920.5,906.9,884.3,967.3,857,980z"/>
	<path class="st0" d="M672.5,150.7c-15.8-13.8-31.6-27.7-47.7-41.8c16.8-0.3,30.8,5.8,41.4,18.3C676.1,139,684.3,152,694,164
		c5.9,7.3,13.1,13.4,19.4,21.2c-6-3-12-6-17.9-9.1c-0.8,0.7-1.6,1.4-2.3,2.1c8.2,15.7,16.4,31.3,23.8,45.5
		c-11.6-5.2-25.1-11.2-41.4-18.5c9.3,0,16.3,0,23.3,0c-3.6-18.1-26.1-40.2-44.3-43.3c-2.7-0.5-5.4-1.2-8.6-3.8
		c3.9-1.3,7.8-3.2,11.9-3.7c3.9-0.5,8.1,0.4,12.1,0.6C670.9,153.6,671.7,152.1,672.5,150.7z"/>
	<path class="st0" d="M594.8,466.7c3.7-19.4,7.8-40.4,12.2-63.1c12.2,20.4,12.3,41.9,12.6,64.9c3.5-2.3,5.8-3.8,9.7-6.4
		c-7.5,23.8-14.5,46-21.4,68.1c-0.6,0-1.2,0-1.7-0.1c0-2.7,0.1-5.4,0-8.1c-0.8-14.3-1.1-28.6-2.9-42.8
		C602.8,475,598.2,471.3,594.8,466.7z"/>
	<path class="st0" d="M702.7,792c-9,10-16.1,17.9-23.2,25.7c17.6-25.6,19.4-55.4,25.9-85c1.4,4.3,2.9,8.5,4.9,14.4
		c3.4-5.2,6.2-9.6,10-15.5c-4.2,44.9-8.2,87.7-12.2,130.2C702.6,840.4,703,817.4,702.7,792z"/>
	<path class="st0" d="M25.6,971.5c-15.6-40-10.5-71.9,29.6-117.9c-3.5,21-7.5,45.2-11.8,69.4c-0.7,3.7-2.4,7.4-4.5,10.5
		C26.6,952.2,26.5,952.2,25.6,971.5z"/>
	<path class="st0" d="M818.8,677.7c-22.4-9.9-36.9-26.8-43-51c-11.6,24.5-11.8,49.4-6.5,75c-8.4-13.2-10.6-27.8-9.2-42.9
		c1-10.8,2.5-21.8,5.9-32c11.3-34.6,4.3-66.5-13-97.1c-1-1.8-2.1-3.7-3-5.6c-0.3-0.5,0-1.3,2.3-3.1c5.8,11.4,13,22.3,16.9,34.3
		c4.9,14.8,8.2,30.4,10.1,45.9c3.6,29,13.8,54.2,36.8,73.3C817.2,675.5,818,676.7,818.8,677.7z"/>
	<path class="st0" d="M644.6,333.7c5.4,0.2,8.8,0.4,12.6,0.6c0.4-2.4,0.8-4.6,1.6-9.2c3.1,8.7,13,13.1,4.2,22.6
		c-2,2.2,1.1,9.2,1.9,14c1.2,0.2,2.3,0.4,3.5,0.6c2.7-13.7,5.4-27.4,8.5-43.3c5.7,27.6-1.1,52.3-4.9,79.3c-1.3-5.3-2.1-8.7-3.4-14.3
		c-11.4,22.2,4,49.3-17.2,65.7c2.5-9.8,5.1-20.2,7.7-30.6c-1.1-0.4-2.1-0.8-3.2-1.2c-2.4,4.2-4.7,8.5-7.1,12.7
		c-0.8-0.3-1.7-0.5-2.5-0.8c1.8-7.9,2.2-16.5,5.8-23.5c10.7-21,10.4-40.9-1.7-61C648.5,342.2,647,338.7,644.6,333.7z"/>
	<path class="st0" d="M123.8,235.5c-1.5,1.2-3,2.4-4.4,3.7c-0.9-0.6-1.7-1.1-2.6-1.7c10.1-17.7,20.3-35.4,30.4-53.1
		c1.1,0.6,2.3,1.3,3.4,1.9c-3.6,5.5-7.2,11-12.1,18.6c6.8-2.7,11.4-4.6,15.9-6.4c0.8,0.6,1.6,1.3,2.3,1.9
		c-20.7,10.7-23.7,29.8-27,49.9c9-6.2,17-11.8,25-17.3c1,0.8,1.9,1.6,2.9,2.5c-22.3,14.7-25.3,37-27.4,60.8
		c7.4-3.9,13.5-7.2,19.6-10.4c0.3,0.6,0.7,1.3,1,1.9c-9,9.9-18.1,19.8-25.5,27.9c0.8-11.2,1.8-24.2,2.7-37.1
		c-1.1-0.2-2.1-0.4-3.2-0.7c-2.8,5.6-5.6,11.2-8.3,16.8c-0.8-0.3-1.6-0.5-2.4-0.8c4-19.2,8-38.3,11.9-57.5
		C125.3,236.1,124.5,235.8,123.8,235.5z"/>
	<path class="st0" d="M698.4,542.1c-2.4,13.8-0.4,25.5,8.7,37.2c5.6,7.2,6.9,19,7.1,28.8c0.2,10.6-3.1,21.3-6.5,31.9
		c-0.5-2.6-0.9-5.2-1.7-9.2c-7.6,20.4-23.8,36.1-21.3,58.9c-2.4-13.4-2.3-26,4.6-38.4c8.7-15.7,8.8-32.9,8.2-50.9
		c-0.4-11.4-6.1-20.4-6.7-30.7c-0.6-9.3,2.1-18.7,3.3-28.1C695.4,541.8,696.9,541.9,698.4,542.1z"/>
	<path class="st0" d="M216.3,911.9c9.4-17,12.1-36.2,7.3-53.2c-5.5-19.4,2.1-37.9-2.6-56.4c8.6,11.9,17.1,23.6,12.3,39.9
		c3.5-2.9,6.9-5.8,11.9-10C246.4,864.2,240.2,891.3,216.3,911.9z"/>
	<path class="st0" d="M535.8,184c-6.5,3.5-12.7,6.8-21.2,11.4c6,3.8,10.3,6.6,14.6,9.4c-0.5,1.1-1,2.2-1.6,3.3
		c-21.6,0.1-41.5,5.4-59,19c-0.6-1.2-1.1-2.3-1.7-3.5c7.1-5.4,14.2-10.7,21.2-16.3c12.6-10.1,12.5-12.2-0.2-21
		C498.5,174.2,519.3,172.9,535.8,184z"/>
	<path class="st0" d="M591,595.1c-9.9-14.4-18.9-27.6-28.1-40.9c-0.3,0.1,1.9-0.6,7.9-2.3c-8.2-7.6-14.9-13.8-21.2-19.6
		c17.1-5.1,39.9,15.2,37.1,33.5c-0.7,4.8,1.9,10.1,2.8,15.3C590.1,585.3,590.4,589.7,591,595.1z"/>
	<path class="st0" d="M444.2,63.2c1.4,5.4,2.7,10.7,4.4,17.4c1.9-3.6,3.3-6.3,6-11.5c-0.9,9.5,6.8,18-5.1,22.3
		c-6.7,2.4-13.5,4.5-20.7,6.9c-1.8-3.1-3.9-6.7-6-10.3c1-0.1,2.1-0.1,3.1-0.2c0.2-5.2,1.1-10.5,0.6-15.7
		c-1.2-12.3-2.9-24.6-3.7-37.4c5,15.4,9.9,30.8,14.9,46.2c1.2-0.2,2.3-0.4,3.5-0.6c0-5.4,0-10.9,0-16.3
		C442.2,63.9,443.2,63.5,444.2,63.2z"/>
	<path class="st0" d="M144.7,912c-4.1-15.8,1.8-26.3,7.8-36c10.6-17.2,22.4-33.7,33.5-50.2c-2.4,17-4.9,34.3-7.3,51.6
		c-1-0.1-2-0.1-2.9-0.2c0-7,0-14,0-20.9C159.5,871.1,149.5,888.5,144.7,912z"/>
	<path class="st0" d="M655.1,848.2c-3.5,22.3-3.4,46.1-31.5,55.8C638.8,886.9,637,862,655.1,848.2z"/>
	<path class="st0" d="M167.9,643.1c-0.4,28.9,2,57.4-23.9,80.1c3.6-8.9,5.6-16.3,9.4-22.7c4.5-7.6,7-14.8,5.1-23.8
		C155.9,664.5,158.8,653.3,167.9,643.1z"/>
	<path class="st0" d="M743,732.3c9.6,8.2,23.5,10.9,28.4,25.5c1.5,4.3,8.9,6.6,13.9,10c-11.6,6.1-16.5,4.7-22.3-4.3
		c-3.1-4.8-8-8.4-11.7-12.9c-4.1-5-7.8-10.5-11.7-15.7C740.8,734.1,741.9,733.2,743,732.3z"/>
	<path class="st0" d="M266.5,881c-0.4,10.1-8.8,19.4,0.3,25.2c-2.3,12.5-4.2,23.4-6,33.2C251,922,252.8,895.3,266.5,881z"/>
	<path class="st0" d="M308.4,77.6c4.7,13.2,9.4,26.6,15.3,43.1c-6.6-4.4-14.1-6.7-16.9-11.7C300.9,98.4,304.4,87.1,308.4,77.6z"/>
	<path class="st0" d="M580.4,510.2c12.7,5.8,19.1,23.2,13,33.4c-0.6,1.1-5.9,0.9-6,0.6C584.9,533.2,582.7,522,580.4,510.2z"/>
	<path class="st0" d="M688.4,907.3c-2.1-10-5.5-21.6-6.7-33.4c-0.8-7.1,1.8-14.5,4.2-21.6C683.4,871.5,701.6,890.6,688.4,907.3z"/>
	<path class="st0" d="M548.3,392c-9.2,16.9-30.1,17.4-51,0.5C515.2,397.4,531.9,402.7,548.3,392z"/>
	<path class="st0" d="M758.4,722.2c8,6.7,16,13.3,24.3,20.1c-8,0.1-16.3-1.4-22.5-8.5c-2.6-2.9-3.3-7.5-4.8-11.4
		C756.4,722.4,757.4,722.3,758.4,722.2z"/>
	<path class="st0" d="M153.7,305c-9,7.9-17.8,15.7-26.4,23.4C130.9,311.7,140.4,303.1,153.7,305z"/>
	<path class="st0" d="M249.9,334.8c-11.1-0.6-19.9-1.1-31.1-1.7c7.5-4,12.9-6.8,18.8-9.9C241.4,326.7,245,330.1,249.9,334.8z"/>
	<path class="st0" d="M241.7,367c-7,3.6-14,7.2-21.6,11.1c-0.7-2.6-1.5-5.5-2.6-9.5c8-1.5,15.9-3,23.7-4.5
		C241.4,365.1,241.5,366,241.7,367z"/>
	<path class="st0" d="M443.9,247.2c-6.8,4.8-12.7,8.9-18.8,13.2C426.1,248.9,432.7,244,443.9,247.2z"/>
</g>
</svg>
